<svg width="43" height="38" viewBox="0 0 43 38" fill="none" xmlns="http://www.w3.org/2000/svg">
<path fill-rule="evenodd" clip-rule="evenodd" d="M11.293 21.1111H32.0742V4.22222C32.0742 1.9 30.2039 0 27.918 0H15.4492C13.1633 0 11.293 1.9 11.293 4.22222V21.1111ZM2.98047 14.7778H5.05859C6.20156 14.7778 7.13672 15.7278 7.13672 16.8889V19C7.13672 20.1611 6.20156 21.1111 5.05859 21.1111H2.98047C1.8375 21.1111 0.902344 20.1611 0.902344 19V16.8889C0.902344 15.7278 1.8375 14.7778 2.98047 14.7778ZM40.3867 14.7778H38.3086C37.1656 14.7778 36.2305 15.7278 36.2305 16.8889V19C36.2305 20.1611 37.1656 21.1111 38.3086 21.1111H40.3867C41.5297 21.1111 42.4648 20.1611 42.4648 19V16.8889C42.4648 15.7278 41.5297 14.7778 40.3867 14.7778ZM11.2929 34.8333C11.2929 36.5855 9.90059 38 8.17575 38C6.4509 38 5.05856 36.5855 5.05856 34.8333V29.5555C5.05856 27.2333 6.92887 25.3333 9.21481 25.3333H34.1523C36.4382 25.3333 38.3086 27.2333 38.3086 29.5555V34.8333C38.3086 36.5855 36.9162 38 35.1914 38C33.4665 38 32.0742 36.5855 32.0742 34.8333V31.6667H11.2929V34.8333Z" fill="url(#paint0_linear)"/>
<defs>
<linearGradient id="paint0_linear" x1="41.3381" y1="14.8131" x2="1.42988" y2="15.0732" gradientUnits="userSpaceOnUse">
<stop offset="0.4375" stop-color="#12CAD6"/>
<stop offset="1" stop-color="#12B3D6"/>
</linearGradient>
</defs>
</svg>
