<svg width="43" height="38" viewBox="0 0 43 38" fill="none" xmlns="http://www.w3.org/2000/svg">
<path d="M16.9326 35.3035V24.3304H26.0407V35.3035C26.0407 36.5105 27.0653 37.4981 28.3177 37.4981H35.1487C36.4011 37.4981 37.4257 36.5105 37.4257 35.3035V19.9412H41.2967C42.3441 19.9412 42.845 18.6903 42.0481 18.0319L23.0122 1.5064C22.147 0.760235 20.8263 0.760235 19.961 1.5064L0.92517 18.0319C0.150985 18.6903 0.629158 19.9412 1.67659 19.9412H5.54751V35.3035C5.54751 36.5105 6.57217 37.4981 7.82453 37.4981H14.6556C15.9079 37.4981 16.9326 36.5105 16.9326 35.3035Z" fill="url(#paint0_linear)"/>
<defs>
<linearGradient id="paint0_linear" x1="41.3046" y1="15.1951" x2="1.07493" y2="15.47" gradientUnits="userSpaceOnUse">
<stop offset="0.4375" stop-color="#12CAD6"/>
<stop offset="1" stop-color="#12B3D6"/>
</linearGradient>
</defs>
</svg>
