<svg width="37" height="42" viewBox="0 0 37 42" fill="none" xmlns="http://www.w3.org/2000/svg">
<path fill-rule="evenodd" clip-rule="evenodd" d="M36.1647 2.03821C36.1647 0.933638 35.2693 0.038208 34.1647 0.038208H2.21582C1.11125 0.038208 0.21582 0.933639 0.21582 2.03821V34.4335C0.21582 35.538 1.11125 36.4335 2.21582 36.4335H11.3631C11.8978 36.4335 12.4103 36.6476 12.786 37.028L16.7673 41.0588C17.5503 41.8515 18.8302 41.8515 19.6132 41.0588L23.5945 37.028C23.9702 36.6476 24.4827 36.4335 25.0174 36.4335H34.1647C35.2693 36.4335 36.1647 35.538 36.1647 34.4335V2.03821ZM18.1898 6.7104C21.1656 6.7104 23.5821 9.15697 23.5821 12.1697C23.5821 15.1824 21.1656 17.629 18.1898 17.629C15.214 17.629 12.7975 15.1824 12.7975 12.1697C12.7975 9.15697 15.214 6.7104 18.1898 6.7104ZM6.20724 26.5256C6.20724 27.5306 7.02198 28.3454 8.027 28.3454H28.3534C29.3584 28.3454 30.1731 27.5306 30.1731 26.5256C30.1731 22.4817 22.1845 20.2575 18.1902 20.2575C14.1959 20.2575 6.20724 22.4817 6.20724 26.5256Z" fill="url(#paint0_linear)"/>
<defs>
<linearGradient id="paint0_linear" x1="35.1901" y1="16.2605" x2="0.671554" y2="16.4382" gradientUnits="userSpaceOnUse">
<stop offset="0.4375" stop-color="#12CAD6"/>
<stop offset="1" stop-color="#12B3D6"/>
</linearGradient>
</defs>
</svg>
