<svg width="43" height="39" viewBox="0 0 43 39" fill="none" xmlns="http://www.w3.org/2000/svg">
<path fill-rule="evenodd" clip-rule="evenodd" d="M26.1625 5.60286C26.1625 2.71195 28.5147 0.368408 31.4163 0.368408C34.3178 0.368408 36.67 2.71195 36.67 5.60286C36.67 8.49376 34.3178 10.8373 31.4163 10.8373C28.5147 10.8373 26.1625 8.49376 26.1625 5.60286ZM15.6561 8.74374C13.8488 6.94309 12.0836 6.02182 9.58278 5.72869C8.27985 5.56119 7.25011 4.5143 7.25011 3.19522V3.00678C7.25011 1.54113 8.51101 0.347675 9.98206 0.473302C13.6387 0.787369 16.1184 1.91801 18.7663 4.55617L32.2579 17.9773C31.9427 18.1448 31.6485 18.3123 31.3963 18.4589C30.6188 18.9404 30.1354 19.2126 28.9796 19.2126C27.8351 19.2126 27.3499 18.9252 26.5856 18.4723L26.5629 18.4589C25.6172 17.8936 24.3143 17.1189 21.9816 17.1189C19.6703 17.1189 18.3699 17.8795 17.4059 18.4433L17.3793 18.4589C16.6018 18.9404 16.1395 19.2126 14.9626 19.2126C13.7858 19.2126 13.3234 18.9404 12.5459 18.4589L12.4136 18.3833C12.0003 18.1466 11.5153 17.8689 10.9277 17.6423L17.7576 10.8375L15.6561 8.74374ZM40.5586 33.1152C40.9368 33.3665 41.252 33.5549 41.6093 33.6805C42.4079 33.9527 42.9753 34.6227 42.9753 35.4812V35.7324C42.9753 37.1353 41.5673 38.0984 40.2433 37.6378C39.4658 37.3656 38.8774 37.0097 38.394 36.7165L38.3713 36.7031C37.607 36.2502 37.1218 35.9628 35.9773 35.9628C34.8004 35.9628 34.3381 36.235 33.5606 36.7165L33.5092 36.7466C32.5484 37.3089 31.2709 38.0565 28.9793 38.0565C26.6466 38.0565 25.3437 37.2818 24.398 36.7165L24.3754 36.7031C23.611 36.2502 23.1259 35.9628 21.9813 35.9628C20.8045 35.9628 20.3421 36.235 19.5646 36.7165L19.538 36.7321C18.574 37.2959 17.2736 38.0565 14.9623 38.0565C12.6296 38.0565 11.3267 37.2818 10.381 36.7165C9.60349 36.235 9.12014 35.9628 7.96432 35.9628C6.80849 35.9628 6.32515 36.235 5.54759 36.6956L5.44592 36.7548C4.96421 37.0356 4.40315 37.3627 3.67726 37.6168C2.3323 38.0775 0.945312 37.1143 0.945312 35.7115V35.4603C0.945312 34.6227 1.51272 33.9527 2.31129 33.6805C2.66854 33.534 2.98377 33.3455 3.36204 33.1152L3.38864 33.0997C4.35264 32.5358 5.65298 31.7752 7.96432 31.7752C10.297 31.7752 11.5999 32.5499 12.5456 33.1152C13.3231 33.5968 13.7855 33.869 14.9623 33.869C16.1391 33.869 16.6015 33.5968 17.379 33.1152L17.4056 33.0997C18.3696 32.5358 19.67 31.7752 21.9813 31.7752C24.314 31.7752 25.6169 32.5499 26.5626 33.1152L26.5853 33.1287C27.3496 33.5815 27.8348 33.869 28.9793 33.869C30.1351 33.869 30.6185 33.5968 31.396 33.1152C32.3417 32.5499 33.6446 31.7752 35.9773 31.7752C38.31 31.7752 39.6129 32.5499 40.5586 33.1152ZM3.27798 28.3203C4.22837 28.0584 4.92582 27.6608 5.50138 27.3327L5.56861 27.2944C6.34616 26.8128 6.82951 26.5406 7.98533 26.5406C9.12988 26.5406 9.615 26.8281 10.3794 27.2809L10.4021 27.2944C11.3477 27.8597 12.6507 28.6344 14.9833 28.6344C17.316 28.6344 18.6189 27.8597 19.5646 27.2944C20.3421 26.8128 20.8045 26.5406 21.9813 26.5406C23.1259 26.5406 23.611 26.8281 24.3753 27.2809L24.398 27.2944C25.3437 27.8597 26.6466 28.6344 28.9793 28.6344C31.312 28.6344 32.6149 27.8597 33.5606 27.2944C34.3381 26.8128 34.8004 26.5406 35.9773 26.5406C37.1218 26.5406 37.6069 26.8281 38.3713 27.2809L38.394 27.2944C38.8773 27.5875 39.4448 27.9225 40.1803 28.1947C41.5042 28.6763 42.9332 27.6922 42.9332 26.2894V26.0381C42.9332 25.2006 42.3658 24.5306 41.5883 24.2375C41.2566 24.1208 40.9611 23.95 40.601 23.7419L40.5165 23.6931C39.5708 23.1278 38.2679 22.3531 35.9353 22.3531C33.6026 22.3531 32.2997 23.1278 31.354 23.6931C30.5764 24.1747 30.0931 24.4468 28.9373 24.4468C27.7927 24.4468 27.3076 24.1594 26.5432 23.7065L26.5205 23.6931C25.5749 23.1278 24.2719 22.3531 21.9393 22.3531C19.6066 22.3531 18.3037 23.1278 17.358 23.6931C16.5805 24.1747 16.1181 24.4468 14.9413 24.4468C13.7967 24.4468 13.3116 24.1594 12.5473 23.7065L12.5246 23.6931C11.5789 23.1278 10.276 22.3531 7.9433 22.3531C5.61064 22.3531 4.30771 23.1278 3.36204 23.6931C2.98377 23.9234 2.66854 24.1118 2.31129 24.2584C1.51272 24.5306 0.945312 25.2006 0.945312 26.0381V26.5197C0.945312 27.7341 2.10114 28.6553 3.27798 28.3203Z" fill="url(#paint0_linear)"/>
<defs>
<linearGradient id="paint0_linear" x1="41.8359" y1="15.0599" x2="1.47885" y2="15.3281" gradientUnits="userSpaceOnUse">
<stop offset="0.4375" stop-color="#12CAD6"/>
<stop offset="1" stop-color="#12B3D6"/>
</linearGradient>
</defs>
</svg>
