<svg width="44" height="38" viewBox="0 0 44 38" fill="none" xmlns="http://www.w3.org/2000/svg">
<g id="icon/action/restore_24px">
<path id="icon/action/restore_24px_2" fill-rule="evenodd" clip-rule="evenodd" d="M5.42172 18.9773C5.42172 8.33504 14.2216 -0.246077 24.9629 0.0483734C34.8602 0.321791 43.1325 8.56639 43.4068 18.4305C43.7023 29.1358 35.0712 37.9062 24.4143 37.9062C20.0249 37.9062 15.9731 36.413 12.7655 33.9101C11.7737 33.1319 11.7104 31.6597 12.5967 30.7553C13.3564 29.9982 14.5381 29.9351 15.3823 30.5871C17.8724 32.543 21.0167 33.6998 24.4143 33.6998C32.6444 33.6998 39.2918 26.9906 39.1863 18.767C39.0807 10.943 32.4756 4.35996 24.6253 4.2548C16.353 4.14964 9.64229 10.7748 9.64229 18.9773H13.4408C14.3693 18.9773 14.8547 20.113 14.1794 20.765L8.29171 26.654C7.86965 27.0747 7.21546 27.0747 6.79341 26.654L0.905718 20.765C0.230427 20.113 0.69469 18.9773 1.64432 18.9773H5.42172ZM22.3028 12.1419C22.3028 11.2796 23.0203 10.5645 23.8855 10.5645C24.7718 10.5645 25.4682 11.2796 25.4682 12.1209V19.2718L31.5458 22.8683C32.2844 23.31 32.5377 24.2774 32.0945 25.0346C31.6513 25.7707 30.6806 26.0231 29.9209 25.5814L23.3368 21.6905C22.7037 21.3119 22.3028 20.6179 22.3028 19.8817V12.1419Z" fill="url(#paint0_linear)"/>
</g>
<defs>
<linearGradient id="paint0_linear" x1="42.2531" y1="14.8015" x2="1.12966" y2="15.0788" gradientUnits="userSpaceOnUse">
<stop offset="0.4375" stop-color="#12CAD6"/>
<stop offset="1" stop-color="#12B3D6"/>
</linearGradient>
</defs>
</svg>
