<svg width="38" height="38" viewBox="0 0 38 38" fill="none" xmlns="http://www.w3.org/2000/svg">
<g id="icon/device/wallpaper_24px">
<path id="icon/device/wallpaper_24px_2" fill-rule="evenodd" clip-rule="evenodd" d="M5.84154 4.15643C4.80783 4.15643 3.96207 4.98199 3.96207 5.991V15.1638C3.96207 16.1728 3.1163 16.9984 2.0826 16.9984C1.04889 16.9984 0.203125 16.1728 0.203125 15.1638V4.15643C0.203125 2.13841 1.89465 0.487305 3.96207 0.487305H15.2389C16.2726 0.487305 17.1184 1.31286 17.1184 2.32187C17.1184 3.33088 16.2726 4.15643 15.2389 4.15643H5.84154ZM8.94318 28.3543L14.5064 21.5664C14.8823 21.1078 15.5965 21.1078 15.9724 21.5664L20.8214 27.4737L23.885 23.4744C24.2609 22.9791 25.0127 22.9791 25.3886 23.4744L29.1475 28.3727C29.6174 28.9781 29.1663 29.8403 28.3957 29.8403H9.67618C8.8868 29.8403 8.45452 28.9597 8.94318 28.3543ZM28.3952 12.412C28.3952 10.8893 27.1359 9.66013 25.576 9.66013C24.016 9.66013 22.7568 10.8893 22.7568 12.412C22.7568 13.9347 24.016 15.1638 25.576 15.1638C27.1359 15.1638 28.3952 13.9347 28.3952 12.412ZM22.7568 0.487305H34.0336C36.1011 0.487305 37.7926 2.13841 37.7926 4.15643V15.1638C37.7926 16.1728 36.9468 16.9984 35.9131 16.9984C34.8794 16.9984 34.0336 16.1728 34.0336 15.1638V5.991C34.0336 4.98199 33.1879 4.15643 32.1542 4.15643H22.7568C21.7231 4.15643 20.8773 3.33088 20.8773 2.32187C20.8773 1.31286 21.7231 0.487305 22.7568 0.487305ZM34.0336 31.6749C34.0336 32.6839 33.1879 33.5095 32.1542 33.5095H22.7568C21.7231 33.5095 20.8773 34.335 20.8773 35.344C20.8773 36.3531 21.7231 37.1786 22.7568 37.1786H34.0336C36.1011 37.1786 37.7926 35.5275 37.7926 33.5095V22.5021C37.7926 21.4931 36.9468 20.6675 35.9131 20.6675C34.8794 20.6675 34.0336 21.4931 34.0336 22.5021V31.6749ZM0.203125 22.5021C0.203125 21.4931 1.04889 20.6675 2.0826 20.6675C3.1163 20.6675 3.96207 21.4931 3.96207 22.5021V31.6749C3.96207 32.6839 4.80783 33.5095 5.84154 33.5095H15.2389C16.2726 33.5095 17.1184 34.335 17.1184 35.344C17.1184 36.3531 16.2726 37.1786 15.2389 37.1786H3.96207C1.89465 37.1786 0.203125 35.5275 0.203125 33.5095V22.5021Z" fill="url(#paint0_linear)"/>
</g>
<defs>
<linearGradient id="paint0_linear" x1="36.7735" y1="14.7902" x2="0.680045" y2="15.0106" gradientUnits="userSpaceOnUse">
<stop offset="0.4375" stop-color="#12CAD6"/>
<stop offset="1" stop-color="#12B3D6"/>
</linearGradient>
</defs>
</svg>
