<svg width="38" height="42" viewBox="0 0 38 42" fill="none" xmlns="http://www.w3.org/2000/svg">
<g id="icon/action/event_24px">
<path id="icon/action/event_24px_2" fill-rule="evenodd" clip-rule="evenodd" d="M27.4444 2.1V4.2H10.5556V2.1C10.5556 0.945 9.60556 0 8.44444 0C7.28333 0 6.33333 0.945 6.33333 2.1V4.2H4.22222C1.87889 4.2 0.0211111 6.09 0.0211111 8.4L0 37.8C0 40.11 1.87889 42 4.22222 42H33.7778C36.1 42 38 40.11 38 37.8V8.4C38 6.09 36.1 4.2 33.7778 4.2H31.6667V2.1C31.6667 0.945 30.7167 0 29.5556 0C28.3944 0 27.4444 0.945 27.4444 2.1ZM27.4445 23.1H21.1111C19.95 23.1 19 24.045 19 25.2V31.5C19 32.655 19.95 33.6 21.1111 33.6H27.4445C28.6056 33.6 29.5556 32.655 29.5556 31.5V25.2C29.5556 24.045 28.6056 23.1 27.4445 23.1ZM6.33337 37.8H31.6667C32.8278 37.8 33.7778 36.855 33.7778 35.7V14.7H4.22225V35.7C4.22225 36.855 5.17225 37.8 6.33337 37.8Z" fill="url(#paint0_linear)"/>
</g>
<defs>
<linearGradient id="paint0_linear" x1="36.9698" y1="16.3723" x2="0.48183" y2="16.5691" gradientUnits="userSpaceOnUse">
<stop offset="0.4375" stop-color="#12CAD6"/>
<stop offset="1" stop-color="#12B3D6"/>
</linearGradient>
</defs>
</svg>
