<svg width="47" height="42" viewBox="0 0 47 42" fill="none" xmlns="http://www.w3.org/2000/svg">
<g id="icon/social/domain_24px">
<path id="icon/social/domain_24px_2" fill-rule="evenodd" clip-rule="evenodd" d="M23.741 4.87866V9.40832H42.0518C44.5695 9.40832 46.6295 11.4467 46.6295 13.938V36.5863C46.6295 39.0776 44.5695 41.116 42.0518 41.116H5.43023C2.9125 41.116 0.852539 39.0776 0.852539 36.5863V4.87866C0.852539 2.38735 2.9125 0.348999 5.43023 0.348999H19.1633C21.681 0.348999 23.741 2.38735 23.741 4.87866ZM5.42972 36.5863H10.0074V32.0566H5.42972V36.5863ZM10.0074 27.527H5.42972V22.9973H10.0074V27.527ZM5.42972 18.4676H10.0074V13.938H5.42972V18.4676ZM10.0074 9.40832H5.42972V4.87866H10.0074V9.40832ZM14.5851 36.5863H19.1628V32.0566H14.5851V36.5863ZM19.1628 27.527H14.5851V22.9973H19.1628V27.527ZM14.5851 18.4676H19.1628V13.938H14.5851V18.4676ZM19.1628 9.40832H14.5851V4.87866H19.1628V9.40832ZM23.7405 36.5863H39.7624C41.0213 36.5863 42.0513 35.5671 42.0513 34.3214V16.2028C42.0513 14.9571 41.0213 13.938 39.7624 13.938H23.7405V18.4676H28.3182V22.9973H23.7405V27.527H28.3182V32.0566H23.7405V36.5863ZM37.4736 18.4676H32.8959V22.9973H37.4736V18.4676ZM32.8959 27.527H37.4736V32.0566H32.8959V27.527Z" fill="url(#paint0_linear)"/>
</g>
<defs>
<linearGradient id="paint0_linear" x1="45.3885" y1="16.2407" x2="1.43367" y2="16.5348" gradientUnits="userSpaceOnUse">
<stop offset="0.4375" stop-color="#12CAD6"/>
<stop offset="1" stop-color="#12B3D6"/>
</linearGradient>
</defs>
</svg>
