<svg width="49" height="32" viewBox="0 0 49 32" fill="none" xmlns="http://www.w3.org/2000/svg">
<g id="icon/maps/local_hotel_24px">
<path id="icon/maps/local_hotel_24px_2" fill-rule="evenodd" clip-rule="evenodd" d="M26.7992 4.19939H39.7247C44.4856 4.19939 48.3417 7.91502 48.3417 12.5025V29.1087C48.3417 30.2503 47.3723 31.1844 46.1874 31.1844C45.0026 31.1844 44.0332 30.2503 44.0332 29.1087V24.9571H5.25674V29.1087C5.25674 30.2503 4.28733 31.1844 3.10249 31.1844C1.91765 31.1844 0.948242 30.2503 0.948242 29.1087V2.12362C0.948242 0.981949 1.91765 0.0478516 3.10249 0.0478516C4.28733 0.0478516 5.25674 0.981949 5.25674 2.12362V18.7298H22.4907V8.35094C22.4907 6.06759 24.4295 4.19939 26.7992 4.19939ZM20.3356 10.4267C20.3356 13.8725 17.4489 16.654 13.8729 16.654C10.2968 16.654 7.41014 13.8725 7.41014 10.4267C7.41014 6.98092 10.2968 4.19939 13.8729 4.19939C17.4489 4.19939 20.3356 6.98092 20.3356 10.4267Z" fill="url(#paint0_linear)"/>
</g>
<defs>
<linearGradient id="paint0_linear" x1="47.0569" y1="12.1854" x2="1.5516" y2="12.5982" gradientUnits="userSpaceOnUse">
<stop offset="0.4375" stop-color="#12CAD6"/>
<stop offset="1" stop-color="#12B3D6"/>
</linearGradient>
</defs>
</svg>
