<svg width="18" height="22" viewBox="0 0 18 22" fill="none" xmlns="http://www.w3.org/2000/svg">
<ellipse cx="9.18659" cy="13.1655" rx="8.36725" ry="7.89649" fill="#FE674C"/>
<path d="M9.16405 10.9183C8.85205 10.9183 8.60005 10.8063 8.40805 10.5823C8.21605 10.3503 8.14805 10.0783 8.20405 9.76628C8.25205 9.46228 8.40405 9.19828 8.66005 8.97428C8.91605 8.74228 9.20805 8.62628 9.53605 8.62628C9.85605 8.62628 10.1081 8.73828 10.2921 8.96228C10.4841 9.18628 10.5521 9.45428 10.4961 9.76628C10.4481 10.0863 10.2961 10.3583 10.0401 10.5823C9.78405 10.8063 9.49205 10.9183 9.16405 10.9183ZM7.00405 17.4103L8.06005 11.4103H10.0521L8.99605 17.4103H7.00405Z" fill="white"/>
<g style="mix-blend-mode:screen" opacity="0.8">
<ellipse cx="9.18659" cy="13.1655" rx="8.36725" ry="7.89649" fill="white"/>
</g>
</svg>
