<svg width="140" height="171" viewBox="0 0 140 171" fill="none" xmlns="http://www.w3.org/2000/svg">
<g opacity="0.52">
<path d="M121.8 114.23C119.749 117.437 117.698 120.644 116.006 124.034C113.264 129.53 111.548 135.528 110.892 141.675C110.714 143.187 112.608 143.998 113.505 142.852C115.297 140.51 117.086 138.118 118.826 135.728C120.52 133.441 122.162 131.106 123.647 128.628C129.221 119.487 132.528 109.051 134.777 98.516C135.349 95.8316 136.398 92.623 136.315 89.87C133.643 93.7083 131.602 98.1678 129.24 102.192C126.779 106.27 124.314 110.249 121.8 114.23Z" fill="white"/>
<path d="M116.421 109.878C121.273 102.376 125.033 94.0737 126.407 85.1348C126.791 82.7102 126.973 80.2451 127.155 77.7801C127.375 75.0626 127.592 72.2951 127.762 69.58C126.767 70.7809 126.19 72.3126 125.507 73.7491C123.421 78.3111 120.254 82.2735 117.391 86.3215C111.618 94.4699 106.732 103.327 102.972 112.682C101.94 115.188 101.008 117.689 100.333 120.329C99.7794 122.36 98.4244 126.486 99.2282 128.603C100.371 131.505 103.445 126.645 104.299 125.651C106.341 123.297 108.381 120.893 110.318 118.444C112.488 115.632 114.508 112.828 116.421 109.878Z" fill="white"/>
<path d="M86.3464 150.427C78.4676 153.363 70.1784 155.066 61.7602 156.174C66.6028 153.685 71.4978 151.243 76.1187 148.313C78.9898 146.521 81.7512 144.533 84.6748 142.788C87.7435 140.935 91.0292 139.424 94.3769 138.159C96.4936 137.355 98.7176 136.697 101.013 136.486C102.659 136.306 106.31 136.13 107.482 137.578C105.024 140.654 100.979 143.054 97.6152 145.021C94.1108 147.195 90.2871 148.984 86.3464 150.427Z" fill="white"/>
<path d="M62.9341 138.923C55.1131 138.899 47.1841 137.678 39.8637 134.522C44.4647 134.3 49.0682 134.128 53.6692 133.906C57.22 133.735 60.7733 133.614 64.2548 133.045C67.3886 132.543 70.4056 131.696 73.4773 130.946C77.242 130.012 80.9591 129.131 84.7835 128.396C88.2078 127.679 91.7369 127.058 95.3022 127.187C96.4072 127.234 99.708 127.075 100.506 128.039C101.831 129.529 98.9193 130.471 97.9884 130.917C91.1339 134.305 83.7786 136.665 76.1703 137.934C71.791 138.597 67.3972 138.959 62.9341 138.923Z" fill="white"/>
<path d="M72.6945 122.012C65.4121 122.764 58.0201 123.321 50.7129 122.521C42.1959 121.578 33.9921 118.815 25.7908 116.103C39.6205 115.988 53.1458 112.679 66.92 111.413C71.6114 110.986 76.365 110.807 81.0239 111.786C83.5558 112.315 86.0046 113.2 88.3678 114.389C90.5786 115.536 92.3489 116.904 89.4133 118.399C84.4207 120.895 78.1789 121.397 72.6945 122.012Z" fill="white"/>
<path d="M111.419 63.299C105.463 72.8598 99.5129 82.5206 95.4635 93.1424C93.8632 97.3802 92.5679 101.703 91.2749 106.077C90.1958 109.688 89.124 113.449 89.7049 117.181C92.5706 114.235 94.4974 110.533 96.5816 106.974C101.126 99.3359 106.706 92.3998 110.429 84.3503C112.334 80.1981 113.722 75.7199 114.555 71.1682C115.305 66.9714 116.24 61.4123 115.235 57.1999C113.817 58.9726 112.675 61.2834 111.419 63.299Z" fill="white"/>
<path d="M95.2554 71.0979C95.9248 67.3061 96.3916 63.4739 96.8085 59.6441C97.5073 53.3444 98.0561 47.052 98.5024 40.7144C98.5331 40.3119 97.9733 40.1383 97.7926 40.5481C96.4231 44.3737 94.2365 47.8878 92.2524 51.4423C85.5247 63.6971 81.4795 77.5269 80.4591 91.7121C80.2158 94.9821 80.1749 98.2925 80.8318 101.519C81.1017 102.96 81.3862 104.701 82.7262 103.383C83.7307 102.382 84.4916 100.491 85.1839 99.2541C88.2743 93.6913 90.7952 87.7549 92.7063 81.6474C93.7426 78.1888 94.6264 74.6873 95.2554 71.0979Z" fill="white"/>
<path d="M49.0637 99.7409C38.2135 96.1536 27.6555 91.3491 16.6415 88.5216C25.767 87.5302 35.0746 88.2344 44.2587 89.4959C56.1175 91.1297 68.0769 93.8113 78.6379 99.7185C80.1317 100.549 84.1007 102.814 80.7361 103.728C78.3597 104.344 75.6018 104.326 73.144 104.294C67.9808 104.293 62.779 103.491 57.7055 102.232C54.8638 101.516 51.9649 100.654 49.0637 99.7409Z" fill="white"/>
<path d="M48.0643 86.3057C35.1522 83.6199 22.0877 80.8913 9.94562 75.4614C14.7443 75.1799 19.493 74.9008 24.2941 74.6693C27.3424 74.4722 30.4431 74.3227 33.5034 74.3756C41.8319 74.5255 50.1898 76.3281 57.97 79.6624C61.9101 81.3271 65.6695 83.4016 69.2457 85.8358C70.5418 86.7257 72.5597 88.032 70.305 89.0932C68.5884 89.8777 65.6992 89.215 63.8867 89.0517C58.5945 88.4547 53.3306 87.4052 48.0643 86.3057Z" fill="white"/>
<path d="M2.63281 60.9767C14.0288 61.3296 25.4248 61.6824 36.6955 63.5952C42.3571 64.5754 47.988 65.9581 53.2645 68.3103C55.9778 69.4828 58.5556 70.9626 60.9453 72.7021C61.4647 73.0781 63.7876 74.4699 63.4285 75.3394C63.1098 76.0064 60.1657 75.2461 59.4607 75.1798C47.1018 73.5701 34.764 71.3579 22.7183 67.9285C15.8559 65.9535 9.17896 63.6688 2.63281 60.9767Z" fill="white"/>
<path d="M6.83789 39.0678C16.6348 41.6031 26.4341 44.1884 35.8436 48.0456C40.5483 49.9743 45.1723 52.3078 49.2776 55.3181C51.3576 56.872 53.3473 58.6308 55.0965 60.6017C55.4659 60.9849 57.2507 62.6533 56.7319 63.33C56.3059 63.8518 53.9403 62.6124 53.3281 62.3913C42.9184 58.5822 32.6846 54.2634 22.9051 48.9703C17.3471 45.98 11.9747 42.6799 6.83789 39.0678Z" fill="white"/>
<path d="M74.75 83.4641C75.9086 81.5033 77.1149 79.4902 78.2735 77.5295C79.6201 75.309 80.9144 73.041 82.1062 70.7278C87.7722 59.3262 89.0933 46.1792 90.0787 33.3491C86.9257 37.6116 84.9615 42.6189 82.6852 47.3905C79.6407 53.9035 76.0292 60.093 73.3444 66.7892C71.5537 71.2366 70.1776 75.9649 69.709 80.7997C69.5361 82.4121 68.8071 86.0064 70.4177 87.1819C72.3381 88.543 73.96 84.7553 74.75 83.4641Z" fill="white"/>
<path d="M65.0189 73.0052C75.1546 56.5759 81.7165 37.7623 84.034 18.2512C79.7537 25.1245 76.0452 32.4215 72.744 39.8492C69.5332 47.072 66.6797 54.428 64.7457 62.1406C64.0282 64.9323 63.4154 67.8191 62.9527 70.6987C62.8365 71.4061 62.0189 74.2025 62.5431 74.6785C63.4367 75.5377 64.6478 73.6246 65.0189 73.0052Z" fill="white"/>
<path d="M58.0075 60.7117C61.8893 44.5338 62.2125 27.3244 59.0089 10.7864C57.3816 17.582 56.3141 24.5511 55.5966 31.5033C54.9195 38.253 54.5473 45.0884 54.9753 51.8851C55.1459 54.3833 55.4165 56.8766 55.7871 59.3651C55.8661 59.9628 55.9366 62.4658 56.4512 62.7418C57.3755 63.1985 57.8364 61.3215 58.0075 60.7117Z" fill="white"/>
<path d="M47.21 44.6398C49.0226 48.9636 51.3256 53.0633 53.431 57.2226C55.6961 61.5748 57.9088 65.8793 60.1715 70.1815C64.6944 78.7358 69.3101 87.1352 74.7568 95.0935C85.221 110.429 96.0305 125.648 107.511 140.233C114.185 148.684 121.294 156.813 128.834 164.52C129.782 165.476 131.117 164.059 130.219 163.099C117.234 149.539 105.688 134.657 94.6788 119.447C83.7217 104.286 72.767 89.1741 63.9477 72.606C61.4681 67.9635 58.9885 63.3209 56.5089 58.6783C53.9196 53.8405 51.4707 48.7955 48.441 44.1794C48.0548 43.4461 46.8714 43.8541 47.21 44.6398Z" fill="white"/>
<path d="M40.1074 4.42997C37.9896 11.4497 39.1135 19.1653 41.2136 26.3326C42.1754 29.6448 43.3823 32.8449 44.4917 36.0998C45.0714 37.7261 45.6511 39.3523 46.1808 40.981C46.6556 42.5121 46.9497 44.4529 47.7174 45.8194C49.246 45.2946 48.9735 39.6433 49.0537 38.1857C49.1687 35.373 49.0836 32.57 48.7486 29.779C48.1236 24.0945 46.696 18.3987 44.5351 13.0891C43.3378 10.089 41.8452 7.20346 40.1074 4.42997Z" fill="white"/>
<path d="M13.291 22.1146C20.5457 22.8676 27.1594 26.9599 32.9042 31.7458C35.5157 33.9258 38.0368 36.3106 40.5555 38.6454C41.8137 39.7878 43.0742 40.9802 44.3824 42.1202C45.5857 43.165 47.2891 44.1857 48.202 45.445C47.1072 46.6507 42.0759 44.1864 40.6967 43.6514C38.093 42.6741 35.5773 41.442 33.1069 40.1074C28.1087 37.2906 23.5268 33.7519 19.4661 29.5866C17.1999 27.2898 15.124 24.7832 13.291 22.1146Z" fill="white"/>
</g>
</svg>
