<svg width="140" height="130" viewBox="0 0 140 130" fill="none" xmlns="http://www.w3.org/2000/svg">
<g opacity="0.52">
<path d="M107.615 29.3193C109.757 31.5317 111.898 33.7441 114.251 35.7075C118.065 38.8912 122.466 41.3605 127.182 43.0233C128.339 43.4453 129.33 42.106 128.596 41.1861C127.087 39.3389 125.537 37.4842 123.981 35.6694C122.497 33.9093 120.965 32.1815 119.292 30.5509C113.137 24.4583 105.54 19.9095 97.6678 16.1744C95.6617 15.2233 93.3319 13.7997 91.1497 13.3512C93.6723 16.1703 96.8016 18.6083 99.528 21.2182C102.279 23.9152 104.951 26.5974 107.615 29.3193Z" fill="white"/>
<path d="M103.188 32.7374C98.1878 27.5197 92.3549 23.0116 85.5756 20.2633C83.7389 19.5085 81.8327 18.9056 79.9265 18.3027C77.8286 17.6228 75.691 16.9354 73.5857 16.2954C74.3453 17.3023 75.4431 18.0428 76.4464 18.848C79.6479 21.3406 82.1758 24.5727 84.828 27.5807C90.1646 33.6441 96.2247 39.1421 102.886 43.846C104.666 45.1258 106.461 46.3259 108.412 47.3492C109.908 48.164 112.903 50 114.719 49.7621C117.216 49.4042 113.964 46.0782 113.341 45.2204C111.869 43.1741 110.357 41.1205 108.791 39.1389C106.983 36.9064 105.152 34.7932 103.188 32.7374Z" fill="white"/>
<path d="M129.493 63.9716C130.334 70.7205 130.128 77.5623 129.43 84.3945C128.374 80.1188 127.365 75.8107 125.921 71.6273C125.046 69.0332 123.996 66.489 123.168 63.8625C122.283 61.1017 121.706 58.2337 121.335 55.363C121.097 53.5471 120.993 51.6738 121.256 49.8276C121.421 48.4989 121.964 45.5926 123.321 44.9397C125.284 47.4483 126.419 51.0796 127.34 54.0941C128.397 57.2578 129.092 60.6009 129.493 63.9716Z" fill="white"/>
<path d="M116.072 80.2531C114.594 86.4044 112.154 92.4171 108.304 97.5902C108.988 93.9275 109.711 90.2722 110.395 86.6095C110.922 83.7828 111.49 80.9636 111.691 78.1173C111.881 75.5571 111.777 73.0246 111.759 70.467C111.727 67.3299 111.727 64.2399 111.861 61.0927C111.936 58.2639 112.105 55.3704 112.871 52.5883C113.114 51.7273 113.605 49.0997 114.512 48.6511C115.932 47.8861 116.131 50.3539 116.308 51.1698C117.697 57.1967 118.182 63.4259 117.762 69.6509C117.466 73.2212 116.932 76.747 116.072 80.2531Z" fill="white"/>
<path d="M104.579 69.4155C103.813 75.2876 102.873 81.2095 100.88 86.8113C98.5491 93.339 94.8447 99.2807 91.1802 105.23C93.6688 94.3233 93.5871 83.0609 95.16 71.9835C95.6991 68.2115 96.4448 64.4367 98.0838 60.9523C98.9728 59.0583 100.126 57.2959 101.503 55.6578C102.817 54.1316 104.225 52.9934 104.854 55.5828C105.887 59.978 105.118 64.9842 104.579 69.4155Z" fill="white"/>
<path d="M65.5938 27.9871C72.0081 34.4576 78.5019 40.9429 86.1067 46.1112C89.1437 48.1611 92.3048 49.987 95.5058 51.8203C98.1467 53.3432 100.907 54.8883 103.952 55.127C102.169 52.3222 99.6143 50.1152 97.2016 47.811C92.0375 42.8097 87.6192 37.1237 81.9779 32.6927C79.0652 30.4187 75.7995 28.4909 72.3724 26.9862C69.2092 25.6131 65.0082 23.8403 61.5053 23.8458C62.636 25.2927 64.2418 26.6224 65.5938 27.9871Z" fill="white"/>
<path d="M68.7155 42.164C65.8559 40.9299 62.9267 39.8477 59.9902 38.8053C55.1623 37.0803 50.312 35.4748 45.4072 33.9414C45.0961 33.8422 44.8551 34.2504 45.1439 34.4691C47.8995 36.2605 50.2575 38.6369 52.6851 40.8615C61.0756 48.4423 71.2061 54.2056 82.1805 57.6544C84.7089 58.4559 87.3067 59.1055 89.9688 59.1903C91.1531 59.2465 92.5762 59.3473 91.789 58.0468C91.1886 57.0696 89.8418 56.1179 88.9978 55.3424C85.1959 51.8726 80.9937 48.7812 76.5432 46.1379C74.0143 44.6772 71.4233 43.3285 68.7155 42.164Z" fill="white"/>
<path d="M82.6442 83.8609C77.7971 91.7317 72.0464 99.1454 67.7667 107.287C68.6885 99.9195 70.9787 92.7251 73.6845 85.7319C77.1823 76.703 81.5235 67.7903 88.1426 60.5798C89.0747 59.559 91.5976 56.8575 91.6895 59.6762C91.731 61.6615 91.2029 63.8288 90.7194 65.7574C89.7551 69.8209 88.1537 73.7655 86.2164 77.5238C85.1235 79.627 83.9038 81.7477 82.6442 83.8609Z" fill="white"/>
<path d="M71.8833 82.1415C67.3611 91.8032 62.7768 101.577 56.2385 110.121C56.9119 106.291 57.5779 102.502 58.2912 98.6799C58.7046 96.2439 59.1653 93.7756 59.7777 91.3768C61.449 84.8497 64.4267 78.6076 68.5021 73.1059C70.5473 70.3153 72.8812 67.7434 75.4641 65.3827C76.4063 64.5285 77.8108 63.1839 78.2254 65.1564C78.5227 66.6539 77.4622 68.8043 76.9957 70.2004C75.5388 74.2544 73.7309 78.2016 71.8833 82.1415Z" fill="white"/>
<path d="M43.4746 113.178C45.8778 104.274 48.281 95.3703 51.8886 86.8563C53.7161 82.583 55.8546 78.4091 58.6901 74.6948C60.119 72.7779 61.7645 71.0251 63.5793 69.4686C63.9721 69.1299 65.5008 67.5613 66.1182 68.0061C66.5837 68.3813 65.4362 70.5567 65.2525 71.0992C61.6805 80.5263 57.6381 89.8244 52.6923 98.6655C49.8579 103.698 46.8144 108.527 43.4746 113.178Z" fill="white"/>
<path d="M27.0156 105.78C30.8383 98.5424 34.7008 91.3119 39.4917 84.6254C41.8872 81.2822 44.5863 78.078 47.7213 75.4084C49.3323 74.0611 51.0876 72.8231 52.9651 71.814C53.3356 71.5947 54.9817 70.5011 55.4175 71.0357C55.7487 71.4683 54.332 73.099 54.0438 73.5396C49.1043 81.0223 43.7964 88.2715 37.8063 94.9814C34.4161 98.7981 30.8167 102.411 27.0156 105.78Z" fill="white"/>
<path d="M74.6249 60.6125C73.2977 59.3349 71.9382 58.01 70.6111 56.7324C69.1147 55.2584 67.571 53.8167 65.9726 52.4472C58.0556 45.8611 47.9544 42.3692 38.0401 39.2006C40.8068 42.4773 44.3815 44.9572 47.7126 47.6388C52.2709 51.2498 56.4688 55.2467 61.2384 58.6087C64.4049 60.8476 67.8697 62.8126 71.5876 64.0832C72.8245 64.52 75.5174 65.7642 76.743 64.7157C78.1725 63.4581 75.4939 61.4751 74.6249 60.6125Z" fill="white"/>
<path d="M64.5785 66.3174C53.5379 55.2756 39.9543 46.602 25.0299 41.1389C29.6414 45.7897 34.6929 50.0696 39.9233 54.0532C45.0093 57.9275 50.2667 61.5453 55.9764 64.506C58.0398 65.5915 60.1976 66.6122 62.3778 67.5134C62.9128 67.7369 64.9613 68.9019 65.4338 68.5781C66.2767 68.035 64.9968 66.725 64.5785 66.3174Z" fill="white"/>
<path d="M53.5926 69.5401C41.5835 63.4675 28.0989 60.0034 14.4848 59.4402C19.5299 61.9885 24.8159 64.1285 30.1539 65.9899C35.3402 67.7817 40.6506 69.3496 46.0799 70.2804C48.078 70.6121 50.0909 70.8641 52.1186 71.0366C52.6038 71.0859 54.587 71.4972 54.9001 71.1437C55.432 70.5014 54.0407 69.7885 53.5926 69.5401Z" fill="white"/>
<path d="M38.9308 75.0437C42.672 74.4236 46.3283 73.3755 49.9946 72.4942C53.8425 71.5232 57.6432 70.5845 61.4513 69.6061C69.0277 67.6417 76.4995 65.5754 83.7791 62.7729C97.8011 57.3971 111.796 51.7279 125.416 45.4121C133.312 41.7358 141.036 37.6566 148.508 33.1596C149.438 32.5916 148.571 31.2763 147.649 31.8045C134.554 39.4956 120.687 45.8067 106.663 51.6352C92.6861 57.4313 78.749 63.2349 64.0639 67.0861C59.9474 68.1718 55.8309 69.2575 51.7144 70.3433C47.4238 71.4789 42.9963 72.4653 38.798 73.989C38.1488 74.1562 38.2492 75.1637 38.9308 75.0437Z" fill="white"/>
<path d="M5.95898 73.1355C11.089 76.1116 17.3713 76.666 23.4041 76.35C26.1904 76.2108 28.9342 75.8576 31.703 75.5916C33.0911 75.4386 34.4792 75.2857 35.8599 75.1726C37.1535 75.0844 38.7359 75.2149 39.9546 74.8656C39.8267 73.5645 35.3279 72.725 34.1956 72.3901C32.0033 71.7749 29.7812 71.3191 27.522 71.0622C22.9314 70.4939 18.1822 70.5552 13.6001 71.2656C11.0155 71.6484 8.46602 72.285 5.95898 73.1355Z" fill="white"/>
<path d="M14.873 97.5393C16.8188 91.9698 21.2733 87.5277 26.1116 83.8988C28.3145 82.2499 30.6617 80.7104 32.9691 79.1635C34.1029 78.3863 35.2766 77.6166 36.4178 76.7996C37.4645 76.0474 38.5856 74.897 39.747 74.4134C40.4918 75.5 37.6138 79.0004 36.9355 79.9861C35.6807 81.8531 34.2417 83.6033 32.7305 85.2988C29.5813 88.7074 25.9415 91.6536 21.9058 94.0727C19.6753 95.428 17.3153 96.5943 14.873 97.5393Z" fill="white"/>
</g>
</svg>
