<svg width="75" height="175" viewBox="0 0 75 175" fill="none" xmlns="http://www.w3.org/2000/svg">
<g opacity="0.52">
<path d="M-11.702 41.3314C-5.35928 39.3211 1.39277 38.2787 8.17162 39.0024C4.50366 40.3811 0.820314 41.7189 -2.84764 43.0977C-5.67835 44.1617 -8.52446 45.1848 -11.1921 46.5615C-13.5961 47.7923 -15.8126 49.2798 -18.0998 50.7004C-20.8989 52.4537 -23.6736 54.151 -26.5742 55.7554C-29.1558 57.24 -31.848 58.6726 -34.7711 59.4909C-35.679 59.7387 -38.3103 60.7278 -39.2163 60.1335C-40.6902 59.2387 -38.5842 57.6992 -37.9499 57.0869C-33.3072 52.4906 -27.9825 48.6195 -22.1596 45.5895C-18.7896 43.9021 -15.3273 42.4604 -11.702 41.3314Z" fill="#F9F2F2"/>
<path d="M-15.0655 57.925C-9.36773 55.4093 -3.52867 53.0275 2.60641 51.7964C9.75992 50.3694 17.1487 50.5366 24.522 50.6629C13.3488 54.3487 3.2804 60.6105 -7.53876 65.2382C-11.2249 66.8107 -15.0278 68.1935 -19.0653 68.5894C-21.2588 68.8063 -23.4804 68.7066 -25.7146 68.3312C-27.8139 67.9518 -29.6158 67.2737 -27.6393 65.2688C-24.2654 61.8973 -19.3433 59.8602 -15.0655 57.925Z" fill="#F9F2F2"/>
<path d="M-19.6592 106.111C-19.1825 109.437 -18.5309 112.745 -17.8394 116.037C-16.7125 121.456 -15.4661 126.83 -14.1245 132.214C-14.0412 132.557 -13.541 132.556 -13.5047 132.168C-13.4233 128.632 -12.5963 125.143 -11.9441 121.673C-9.78689 109.738 -10.2263 97.1904 -13.2118 85.1321C-13.8935 82.3503 -14.75 79.5875 -16.1493 77.0754C-16.7552 75.9477 -17.4534 74.5743 -18.1849 76.0177C-18.7297 77.1106 -18.8379 78.8806 -19.0665 80.0882C-20.0752 85.5153 -20.5222 91.105 -20.4291 96.6788C-20.3392 99.8233 -20.1143 102.964 -19.6592 106.111Z" fill="#F9F2F2"/>
<path d="M10.0647 70.3067C19.8192 70.4727 29.6639 71.7265 39.3469 71.2183C32.2202 74.4113 24.4904 76.2419 16.7108 77.577C6.66422 79.2969 -3.74549 80.1718 -13.8891 78.002C-15.3224 77.6995 -19.1466 76.8467 -16.6664 75.2134C-14.9066 74.0845 -12.6676 73.3831 -10.6679 72.7716C-6.48437 71.4328 -2.05458 70.7492 2.39415 70.4791C4.88851 70.3361 7.46893 70.3009 10.0647 70.3067Z" fill="#F9F2F2"/>
<path d="M14.4845 81.2183C25.6671 80.0997 36.9847 78.977 48.281 80.3396C44.4689 81.8192 40.6968 83.2839 36.8693 84.7226C34.4527 85.6777 31.9808 86.6069 29.4872 87.3572C22.6996 89.3945 15.4439 90.0653 8.24464 89.3127C4.60514 88.9514 1.00197 88.2026 -2.54948 87.1071C-3.83869 86.7036 -5.82461 86.1414 -4.28311 84.674C-3.1032 83.5761 -0.584367 83.3771 0.927889 83.0424C5.37584 82.165 9.92247 81.6712 14.4845 81.2183Z" fill="#F9F2F2"/>
<path d="M58.0996 90.4835C48.7722 93.1482 39.4448 95.813 29.7997 97.1483C24.9495 97.8029 20.0161 98.115 15.1091 97.5291C12.5958 97.2586 10.1097 96.6974 7.70616 95.8715C7.18432 95.6937 4.9284 95.1396 4.98566 94.3235C5.06462 93.6862 7.65412 93.5541 8.24307 93.4262C18.6883 91.5565 29.2785 90.1931 39.9589 89.9176C46.0494 89.7782 52.0727 89.9446 58.0996 90.4835Z" fill="#F9F2F2"/>
<path d="M60.5801 109.79C51.9617 110.225 43.3279 110.62 34.6682 109.855C30.3383 109.473 25.965 108.733 21.8301 107.296C19.7273 106.544 17.6427 105.598 15.6959 104.414C15.2937 104.191 13.3993 103.267 13.6378 102.57C13.8427 102.026 16.0923 102.442 16.6477 102.467C26.1048 102.932 35.5565 103.866 44.9019 105.728C50.2084 106.771 55.4477 108.12 60.5801 109.79Z" fill="#F9F2F2"/>
<path d="M-6.36868 90.5056C-6.78044 92.4364 -7.21667 94.4233 -7.62844 96.3541C-8.12271 98.5497 -8.56171 100.771 -8.90559 103.004C-10.4319 113.954 -7.96904 125.227 -5.31943 136.149C-3.91049 131.787 -3.66485 127.114 -3.10302 122.556C-2.3868 116.351 -1.12427 110.268 -0.748711 104.004C-0.493209 99.8416 -0.64902 95.5535 -1.56866 91.4122C-1.86192 90.0267 -2.23723 86.8493 -3.85802 86.2901C-5.7796 85.657 -6.07575 89.227 -6.36868 90.5056Z" fill="#F9F2F2"/>
<path d="M4.32372 96.6751C0.527484 112.965 0.267298 130.31 3.63321 147.133C5.25379 140.307 6.29727 133.278 6.97561 126.246C7.63579 119.407 7.97071 112.551 7.46483 105.637C7.29595 103.13 7.01653 100.571 6.61751 98.0564C6.52161 97.4381 6.43246 94.9009 5.87983 94.6413C4.92497 94.1589 4.45794 96.0638 4.32372 96.6751Z" fill="#F9F2F2"/>
<path d="M13.3055 105.077C14.5083 119.535 18.8714 133.927 25.9113 146.844C25.4034 140.772 24.3954 134.701 23.1083 128.735C21.8429 122.948 20.3075 117.168 18.1342 111.629C17.3246 109.596 16.4353 107.593 15.4663 105.621C15.2417 105.144 14.5119 103.081 14.0208 102.986C13.1492 102.846 13.2803 104.526 13.3055 105.077Z" fill="#F9F2F2"/>
<path d="M26.3754 115.635C23.7449 112.511 20.7773 109.701 17.9538 106.789C14.9491 103.759 11.9997 100.754 9.01042 97.7649C3.04724 91.8271 -2.94951 86.042 -9.50087 80.8394C-22.0999 70.8056 -34.9473 60.9587 -48.1681 51.813C-55.8456 46.5196 -63.7897 41.6067 -71.9693 37.1564C-72.9949 36.6071 -73.6956 38.1324 -72.7099 38.6967C-58.5457 46.5997 -45.1926 55.9761 -32.1858 65.7631C-19.2342 75.5241 -6.29807 85.2442 5.2995 96.7294C8.55602 99.9455 11.8125 103.162 15.0691 106.378C18.4669 109.728 21.8067 113.287 25.5018 116.338C26.0118 116.847 26.8609 116.201 26.3754 115.635Z" fill="#F9F2F2"/>
<path d="M42.9355 147.223C42.7647 140.838 39.7806 134.715 36.1531 129.301C34.4838 126.797 32.646 124.45 30.8725 122.032C29.9658 120.83 29.0591 119.628 28.1923 118.412C27.3961 117.262 26.6363 115.725 25.6471 114.788C24.5497 115.621 26.2892 120.249 26.616 121.482C27.2787 123.85 28.1009 126.158 29.1224 128.392C31.1564 132.955 33.8437 137.32 37.0212 141.174C38.7975 143.357 40.7822 145.369 42.9355 147.223Z" fill="#F9F2F2"/>
<path d="M59.9092 125.558C53.8294 126.815 47.3715 125.13 41.4311 122.642C38.7295 121.508 36.0461 120.179 33.3781 118.892C32.0518 118.269 30.7101 117.605 29.3439 116.996C28.0882 116.44 26.4339 116.034 25.3559 115.224C25.9188 113.937 30.6572 114.68 31.9184 114.767C34.2904 114.903 36.6596 115.275 39.0198 115.743C43.8261 116.787 48.4891 118.54 52.8983 120.949C55.3516 122.27 57.707 123.815 59.9092 125.558Z" fill="#F9F2F2"/>
</g>
</svg>
