<svg width="171" height="158" viewBox="0 0 171 158" fill="none" xmlns="http://www.w3.org/2000/svg">
<g opacity="0.52">
<path d="M133.418 -43.9572C121.682 -44.1569 109.813 -42.5845 98.8913 -37.9084C95.9206 -36.6532 93.0455 -35.1441 90.1704 -33.6351C86.9874 -31.993 83.7503 -30.3135 80.6047 -28.6173C82.6347 -28.3421 84.744 -28.7615 86.8199 -28.9978C93.3556 -29.84 99.9739 -29.0597 106.476 -28.6788C119.571 -27.9003 132.842 -28.6028 145.885 -30.9069C149.396 -31.4963 152.832 -32.194 156.244 -33.2744C158.894 -34.068 164.436 -35.4222 166.238 -37.7886C168.681 -41.0783 161.126 -41.1309 159.425 -41.3936C155.382 -42.0357 151.284 -42.6404 147.208 -43.0994C142.565 -43.567 138.035 -43.8723 133.418 -43.9572Z" fill="#F9F2F2"/>
<path d="M202.954 -4.48271C208.359 4.25527 212.503 13.9454 214.067 24.3003C210.625 19.3237 207.236 14.3096 203.793 9.33302C201.136 5.49236 198.534 1.61429 195.481 -1.87291C192.745 -5.01887 189.705 -7.79469 186.736 -10.6995C183.081 -14.2493 179.517 -17.7824 176.04 -21.536C172.863 -24.8568 169.719 -28.3607 167.387 -32.4259C166.672 -33.6908 164.202 -37.2609 164.723 -38.8208C165.464 -41.3332 168.538 -38.7404 169.681 -38.012C178.22 -32.7215 185.959 -26.1584 192.658 -18.5556C196.438 -14.1321 199.894 -9.48416 202.954 -4.48271Z" fill="#F9F2F2"/>
<path d="M177.315 -3.62227C183.211 3.97605 188.966 11.8322 193.148 20.5365C198.011 30.6887 200.628 41.7553 203.299 52.7845C193.566 37.443 180.483 24.6587 169.506 10.1779C165.772 5.24275 162.271 0.0664285 160.127 -5.80829C158.959 -8.99945 158.245 -12.3444 157.93 -15.8056C157.673 -19.0672 157.969 -21.9915 161.675 -19.7563C167.926 -15.9227 172.82 -9.31063 177.315 -3.62227Z" fill="#F9F2F2"/>
<path d="M84.9525 -6.03108C99.7497 -6.02993 114.655 -6.10362 129.312 -8.96461C135.149 -10.1232 140.869 -11.6811 146.644 -13.2765C151.42 -14.581 156.359 -15.9978 160.116 -19.2371C154.842 -20.3872 149.375 -19.9648 143.959 -19.817C132.286 -19.5799 120.676 -20.986 109.115 -19.5466C103.161 -18.7875 97.2036 -17.2255 91.5494 -14.9936C86.3486 -12.9154 79.5002 -10.0974 75.501 -6.05112C78.4628 -5.70061 81.8325 -6.0322 84.9525 -6.03108Z" fill="#F9F2F2"/>
<path d="M104.872 6.58076C100.179 8.46773 95.5814 10.6085 91.0212 12.8033C83.5111 16.3991 76.1132 20.1571 68.7361 24.0607C68.2659 24.3059 68.4612 25.0507 69.0436 24.9677C74.2607 23.838 79.6978 23.8358 85.0394 23.5798C103.377 22.5713 121.608 17.4777 138.135 8.76423C141.95 6.76463 145.67 4.51123 148.812 1.53795C150.231 0.23637 151.975 -1.28974 149.575 -1.86884C147.761 -2.29381 145.123 -1.82884 143.264 -1.74215C134.914 -1.32498 126.544 -0.013416 118.406 2.09695C113.83 3.34332 109.312 4.78939 104.872 6.58076Z" fill="#F9F2F2"/>
<path d="M168.892 38.1953C172.427 52.7858 174.402 67.8957 178.898 82.1412C171.455 72.6537 165.776 61.7857 160.805 50.6683C154.391 36.3098 149.076 21.1113 148.329 5.23224C148.217 2.98995 147.987 -3.00889 151.343 0.108171C153.68 2.33046 155.576 5.41788 157.247 8.18073C160.831 13.9395 163.549 20.297 165.668 26.829C166.844 30.4944 167.895 34.3261 168.892 38.1953Z" fill="#F9F2F2"/>
<path d="M154.603 48.6401C160.575 64.9038 166.605 81.3672 168.983 98.6779C165.336 93.5223 161.727 88.4208 158.135 83.2278C155.798 79.9655 153.478 76.6117 151.412 73.1623C145.795 63.7711 142.001 53.1992 140.316 42.2078C139.436 36.658 139.138 31.0252 139.369 25.3469C139.461 23.2835 139.517 20.1261 142.266 21.9034C144.333 23.2728 145.6 26.9549 146.677 29.0893C149.687 35.4053 152.172 42.004 154.603 48.6401Z" fill="#F9F2F2"/>
<path d="M157.912 116.895C150.391 103.942 142.87 90.9888 137.176 77.0923C134.337 70.0983 131.969 62.859 130.927 55.3415C130.35 51.5016 130.21 47.5994 130.491 43.7266C130.549 42.8863 130.488 39.3294 131.707 39.126C132.672 39.0182 133.869 42.8292 134.285 43.6614C141.072 58.5608 147.174 73.8553 151.715 89.6691C154.279 98.6931 156.368 107.725 157.912 116.895Z" fill="#F9F2F2"/>
<path d="M130.561 127.418C126.584 114.733 122.661 102.01 120.428 88.8387C119.311 82.253 118.702 75.4761 119.208 68.8078C119.496 65.4091 120.076 61.969 121.059 58.6497C121.23 57.9716 121.851 54.8227 122.965 54.9313C123.843 55.0439 124.104 58.5426 124.283 59.3788C127.264 73.6321 129.555 88.0433 130.445 102.624C130.97 110.899 131.021 119.182 130.561 127.418Z" fill="#F9F2F2"/>
<path d="M132.907 20.8599C129.916 20.9296 126.833 20.9826 123.842 21.0522C120.431 21.0926 117.003 21.2245 113.596 21.502C96.9467 23.1018 81.3688 30.7589 66.3775 38.5702C73.3204 39.126 80.2681 37.8389 87.1698 37.0634C96.5469 35.9353 105.957 35.6641 115.288 34.0076C121.491 32.9157 127.72 31.1666 133.437 28.3315C135.355 27.4045 139.869 25.7213 140.061 23.1089C140.245 20.0222 134.895 20.844 132.907 20.8599Z" fill="#F9F2F2"/>
<path d="M128.001 38.9706C102.642 39.078 77.1055 44.8263 53.7388 55.792C64.376 55.7917 75.0884 54.8595 85.6637 53.3823C95.9478 51.9467 106.132 50.0201 116.076 46.8204C119.687 45.6819 123.332 44.3603 126.864 42.8764C127.734 42.5148 131.42 41.4845 131.587 40.5693C131.924 38.9761 128.95 38.9543 128.001 38.9706Z" fill="#F9F2F2"/>
<path d="M119.158 55.3251C98.4223 62.2316 79.0075 73.8228 62.7905 88.8804C71.4984 85.9756 80.0112 82.3262 88.2619 78.2981C96.2589 74.3656 104.14 70.0337 111.421 64.8363C114.089 62.9111 116.681 60.8778 119.199 58.7363C119.81 58.2332 122.553 56.4162 122.503 55.6508C122.37 54.3029 119.957 55.0924 119.158 55.3251Z" fill="#F9F2F2"/>
<path d="M108.739 78.53C112.302 73.506 115.274 68.0907 118.45 62.8544C121.73 57.3061 124.993 51.8493 128.219 46.3385C134.617 35.3541 140.778 24.3739 145.87 12.7734C155.704 -9.54571 165.168 -32.1687 173.458 -55.0999C178.247 -68.4102 182.375 -81.9829 185.733 -95.743C186.141 -97.4652 183.633 -97.9694 183.187 -96.3014C177.084 -72.4043 168.506 -49.1944 159.192 -26.3551C149.894 -3.60729 140.651 19.1031 128.3 40.4437C124.845 46.4329 121.39 52.4221 117.935 58.4113C114.339 64.6584 110.414 70.8928 107.37 77.4771C106.821 78.417 108.098 79.4533 108.739 78.53Z" fill="#F9F2F2"/>
<path d="M68.8304 114.375C78.129 111.861 85.9522 105.25 92.486 97.9305C95.5116 94.5578 98.2418 90.9895 101.101 87.492C102.512 85.7161 103.923 83.9403 105.371 82.2186C106.749 80.6258 108.709 78.95 109.699 77.1449C108.052 75.8048 101.94 80.0333 100.259 80.9563C97.0425 82.7814 93.9759 84.8228 91.0963 87.1348C85.1916 91.7794 79.8315 97.3269 75.4113 103.424C72.8975 106.843 70.7163 110.511 68.8304 114.375Z" fill="#F9F2F2"/>
<path d="M107.176 131.998C102.977 123.385 102.948 113.168 104.295 103.439C104.912 99.0125 105.821 94.545 106.675 90.1149C107.075 87.9185 107.529 85.6848 107.892 83.4343C108.221 81.3669 108.177 78.7586 108.947 76.866C111.052 77.2495 111.798 84.5714 112.159 86.481C112.878 90.063 113.251 93.724 113.478 97.4057C113.808 104.935 113.044 112.502 111.219 119.923C110.232 124.045 108.879 128.101 107.176 131.998Z" fill="#F9F2F2"/>
</g>
</svg>
