<svg width="105" height="87" viewBox="0 0 105 87" fill="none" xmlns="http://www.w3.org/2000/svg">
<path d="M101.719 86.7613H3.28125C2.41101 86.7613 1.57641 86.4364 0.961056 85.8582C0.345702 85.28 0 84.4958 0 83.678V9.68023C0 8.8625 0.345702 8.07827 0.961056 7.50005C1.57641 6.92183 2.41101 6.59698 3.28125 6.59698H16.4062C17.2765 6.59698 18.1111 6.92183 18.7264 7.50005C19.3418 8.07827 19.6875 8.8625 19.6875 9.68023C19.6875 10.498 19.3418 11.2822 18.7264 11.8604C18.1111 12.4386 17.2765 12.7635 16.4062 12.7635H11.5625C8.80108 12.7635 6.5625 15.002 6.5625 17.7635V75.5948C6.5625 78.3562 8.80108 80.5948 11.5625 80.5948H93.4375C96.1989 80.5948 98.4375 78.3562 98.4375 75.5948V17.7635C98.4375 15.002 96.1989 12.7635 93.4375 12.7635H42.6562C41.786 12.7635 40.9514 12.4386 40.3361 11.8604C39.7207 11.2822 39.375 10.498 39.375 9.68023C39.375 8.8625 39.7207 8.07827 40.3361 7.50005C40.9514 6.92183 41.786 6.59698 42.6562 6.59698H101.719C102.589 6.59698 103.424 6.92183 104.039 7.50005C104.654 8.07827 105 8.8625 105 9.68023V83.678C105 84.4958 104.654 85.28 104.039 85.8582C103.424 86.4364 102.589 86.7613 101.719 86.7613Z" fill="url(#paint0_linear)"/>
<path d="M42.6563 43.5959C42.2251 43.5966 41.798 43.5175 41.3993 43.363C41.0007 43.2085 40.6384 42.9817 40.3331 42.6956L29.5313 32.5394L18.7294 42.6956C18.2705 43.1279 17.6853 43.4224 17.048 43.5418C16.4107 43.6613 15.7501 43.6002 15.1498 43.3664C14.5495 43.1326 14.0366 42.7365 13.6761 42.2285C13.3157 41.7204 13.1238 41.1232 13.125 40.5126V3.51372C13.125 2.696 13.4707 1.91176 14.0861 1.33354C14.7014 0.755321 15.536 0.430481 16.4063 0.430481H42.6563C43.5265 0.430481 44.3611 0.755321 44.9764 1.33354C45.5918 1.91176 45.9375 2.696 45.9375 3.51372V40.5126C45.9374 41.1227 45.7447 41.7191 45.3837 42.2262C45.0227 42.7334 44.5097 43.1285 43.9097 43.3615C43.5126 43.517 43.0865 43.5967 42.6563 43.5959ZM29.5313 25.0964C29.9624 25.0957 30.3896 25.1748 30.7882 25.3293C31.1868 25.4838 31.5491 25.7106 31.8544 25.9967L39.375 33.0697V6.59697H19.6875V33.0697L27.2081 25.9967C27.5134 25.7106 27.8757 25.4838 28.2743 25.3293C28.673 25.1748 29.1001 25.0957 29.5313 25.0964Z" fill="url(#paint1_linear)"/>
<path d="M88.5938 31.2629H62.3438C61.4735 31.2629 60.6389 30.9381 60.0236 30.3599C59.4082 29.7816 59.0625 28.9974 59.0625 28.1797C59.0625 27.362 59.4082 26.5777 60.0236 25.9995C60.6389 25.4213 61.4735 25.0964 62.3438 25.0964H88.5938C89.464 25.0964 90.2986 25.4213 90.914 25.9995C91.5293 26.5777 91.875 27.362 91.875 28.1797C91.875 28.9974 91.5293 29.7816 90.914 30.3599C90.2986 30.9381 89.464 31.2629 88.5938 31.2629Z" fill="#FE674C"/>
<path d="M88.5938 43.5959H62.3438C61.4735 43.5959 60.6389 43.271 60.0236 42.6928C59.4082 42.1146 59.0625 41.3304 59.0625 40.5126C59.0625 39.6949 59.4082 38.9107 60.0236 38.3324C60.6389 37.7542 61.4735 37.4294 62.3438 37.4294H88.5938C89.464 37.4294 90.2986 37.7542 90.914 38.3324C91.5293 38.9107 91.875 39.6949 91.875 40.5126C91.875 41.3304 91.5293 42.1146 90.914 42.6928C90.2986 43.271 89.464 43.5959 88.5938 43.5959Z" fill="#FE674C"/>
<path d="M88.5937 55.9288H16.4062C15.536 55.9288 14.7014 55.604 14.0861 55.0258C13.4707 54.4475 13.125 53.6633 13.125 52.8456C13.125 52.0278 13.4707 51.2436 14.0861 50.6654C14.7014 50.0872 15.536 49.7623 16.4062 49.7623H88.5937C89.464 49.7623 90.2986 50.0872 90.9139 50.6654C91.5293 51.2436 91.875 52.0278 91.875 52.8456C91.875 53.6633 91.5293 54.4475 90.9139 55.0258C90.2986 55.604 89.464 55.9288 88.5937 55.9288Z" fill="#FE674C"/>
<path d="M88.5937 68.2618H16.4062C15.536 68.2618 14.7014 67.937 14.0861 67.3588C13.4707 66.7805 13.125 65.9963 13.125 65.1786C13.125 64.3608 13.4707 63.5766 14.0861 62.9984C14.7014 62.4202 15.536 62.0953 16.4062 62.0953H88.5937C89.464 62.0953 90.2986 62.4202 90.9139 62.9984C91.5293 63.5766 91.875 64.3608 91.875 65.1786C91.875 65.9963 91.5293 66.7805 90.9139 67.3588C90.2986 67.937 89.464 68.2618 88.5937 68.2618Z" fill="#FE674C"/>
<defs>
<linearGradient id="paint0_linear" x1="102.153" y1="37.8464" x2="1.33459" y2="38.6335" gradientUnits="userSpaceOnUse">
<stop offset="0.4375" stop-color="#12CAD6"/>
<stop offset="1" stop-color="#12B3D6"/>
</linearGradient>
<linearGradient id="paint1_linear" x1="45.048" y1="17.2592" x2="13.5408" y2="17.402" gradientUnits="userSpaceOnUse">
<stop offset="0.4375" stop-color="#12CAD6"/>
<stop offset="1" stop-color="#12B3D6"/>
</linearGradient>
</defs>
</svg>
