<svg width="175" height="108" viewBox="0 0 175 108" fill="none" xmlns="http://www.w3.org/2000/svg">
<g opacity="0.52">
<path d="M142.102 103.645C141.373 107.121 140.645 110.598 140.291 114.116C139.717 119.819 140.204 125.62 141.666 131.201C142.011 132.579 143.932 132.66 144.336 131.363C145.124 128.727 145.894 126.047 146.621 123.386C147.342 120.83 148.002 118.249 148.478 115.596C150.317 105.775 149.749 95.5755 148.225 85.639C147.837 83.1073 147.69 79.9608 146.706 77.586C145.645 81.8193 145.34 86.3857 144.61 90.6785C143.813 95.0514 142.979 99.3387 142.102 103.645Z" fill="#F9F2F2"/>
<path d="M135.975 101.625C137.725 93.4738 138.259 84.9856 136.5 76.7315C136.033 74.4887 135.376 72.2776 134.719 70.0666C134.011 67.6227 133.285 65.1359 132.535 62.7107C132.065 64.0877 132.067 65.6154 131.947 67.0947C131.636 71.7654 130.184 76.271 129.026 80.7503C126.685 89.7704 125.352 99.116 125.167 108.522C125.096 111.051 125.11 113.541 125.395 116.068C125.584 118.024 125.767 122.072 127.169 123.653C129.126 125.807 130.2 120.549 130.617 119.4C131.619 116.67 132.603 113.897 133.483 111.119C134.447 107.947 135.281 104.832 135.975 101.625Z" fill="#F9F2F2"/>
<path d="M116.197 62.6389C114.164 72.9518 112.169 83.3504 112.15 93.9584C112.156 98.1856 112.456 102.387 112.775 106.63C113.029 110.138 113.338 113.775 115.08 116.838C116.606 113.32 117.062 109.452 117.702 105.657C119.14 97.4888 121.714 89.5901 122.299 81.3348C122.587 77.0814 122.316 72.7146 121.537 68.4673C120.803 64.5573 119.779 59.3973 117.508 56.0543C116.857 58.0705 116.626 60.4646 116.197 62.6389Z" fill="#F9F2F2"/>
<path d="M104.671 74.7916C104 71.2616 103.139 67.7633 102.236 64.2837C100.761 58.5557 99.1574 52.8836 97.4497 47.2061C97.3433 46.8447 96.7975 46.8785 96.7753 47.2959C96.8463 51.0871 96.1012 54.8768 95.5462 58.6348C93.7311 71.554 94.7778 84.9597 98.5814 97.6746C99.4511 100.608 100.511 103.51 102.152 106.108C102.864 107.276 103.688 108.701 104.421 107.108C104.967 105.902 105.005 104 105.2 102.692C106.055 96.8155 106.291 90.8015 105.937 84.8401C105.697 81.4793 105.309 78.1317 104.671 74.7916Z" fill="#F9F2F2"/>
<path d="M73.8462 115.07C63.1918 115.53 52.3897 114.831 41.8438 116.009C49.4782 112.124 57.8325 109.659 66.2635 107.72C77.1515 105.222 88.474 103.604 99.6437 105.264C101.222 105.494 105.434 106.157 102.801 108.068C100.931 109.392 98.5193 110.289 96.3642 111.074C91.8584 112.781 87.0543 113.803 82.2107 114.383C79.4946 114.7 76.6797 114.906 73.8462 115.07Z" fill="#F9F2F2"/>
<path d="M68.5283 103.676C56.3731 105.605 44.0708 107.548 31.6795 106.828C35.7734 104.994 39.8245 103.179 43.9371 101.389C46.5317 100.208 49.1877 99.0515 51.8755 98.085C59.1921 95.4599 67.0813 94.2671 74.9732 94.6019C78.962 94.7507 82.9287 95.3168 86.8546 96.2574C88.28 96.605 90.473 97.0771 88.8568 98.749C87.6185 100.002 84.8782 100.379 83.2427 100.837C78.4275 102.067 73.4872 102.893 68.5283 103.676Z" fill="#F9F2F2"/>
<path d="M20.5039 96.6098C30.5642 93.1467 40.6245 89.6836 51.0917 87.6231C56.3561 86.6049 61.7268 85.9482 67.1092 86.2545C69.8647 86.3798 72.6035 86.818 75.2643 87.545C75.8419 87.7012 78.3293 88.147 78.3037 89.0245C78.2463 89.712 75.4258 90.0227 74.7888 90.1982C63.4724 92.8832 51.975 95.0356 40.3298 96.0292C33.6885 96.5767 27.1065 96.7926 20.5039 96.6098Z" fill="#F9F2F2"/>
<path d="M16.9258 76.1021C26.313 75.0725 35.7188 74.0856 45.2054 74.3377C49.9487 74.4637 54.7556 74.9697 59.3337 76.2379C61.6628 76.9055 63.9809 77.7817 66.1594 78.9226C66.6085 79.1347 68.7179 79.9999 68.4891 80.762C68.2901 81.3583 65.8158 81.0596 65.2085 81.0693C54.8651 81.1903 44.5065 80.8083 34.2219 79.4258C28.3828 78.6558 22.6032 77.5541 16.9258 76.1021Z" fill="#F9F2F2"/>
<path d="M90.8697 92.3691C91.2319 90.2749 91.6182 88.1192 91.9804 86.025C92.4207 83.6419 92.7994 81.2347 93.0739 78.822C94.245 66.9986 91.0473 55.0901 87.6617 43.5691C86.321 48.3317 86.264 53.3507 85.8568 58.2674C85.3555 64.9578 84.2523 71.5534 84.1255 78.2846C84.0348 82.7577 84.3986 87.3387 85.5896 91.7124C85.9723 93.1766 86.5255 96.5539 88.3199 97.0467C90.4458 97.5988 90.6077 93.7572 90.8697 92.3691Z" fill="#F9F2F2"/>
<path d="M78.9207 86.4624C82.328 68.7731 81.8281 50.186 77.394 32.3947C75.9336 39.8085 75.1123 47.4026 74.6897 54.9759C74.2782 62.3407 74.2225 69.7033 75.0872 77.073C75.3848 79.7462 75.8054 82.4679 76.3546 85.1336C76.4872 85.7893 76.6992 88.4998 77.3141 88.7417C78.3781 89.1957 78.8018 87.1257 78.9207 86.4624Z" fill="#F9F2F2"/>
<path d="M68.7369 78.0546C66.7707 62.6541 61.358 47.5312 53.0903 34.161C53.919 40.6289 55.2937 47.0631 56.9681 53.3666C58.6109 59.4802 60.5479 65.5675 63.1704 71.3563C64.1459 73.4796 65.207 75.5657 66.3539 77.6144C66.6206 78.1098 67.5104 80.2704 68.0507 80.3409C69.0083 80.4336 68.7894 78.6433 68.7369 78.0546Z" fill="#F9F2F2"/>
<path d="M53.994 67.6049C57.0063 70.7778 60.3724 73.5929 63.5858 76.5255C67.0024 79.5734 70.3574 82.5971 73.7553 85.6022C80.5324 91.5696 87.3392 97.3711 94.7251 102.513C108.93 112.431 123.398 122.134 138.242 131.061C146.861 136.226 155.754 140.967 164.883 145.196C166.027 145.717 166.723 144.038 165.622 143.499C149.804 135.964 134.806 126.798 120.167 117.171C105.589 107.567 91.0302 98.0063 77.8525 86.4682C74.1527 83.2379 70.4529 80.0075 66.7531 76.7771C62.893 73.4127 59.0868 69.821 54.9158 66.7958C54.3361 66.2838 53.4385 67.0313 53.994 67.6049Z" fill="#F9F2F2"/>
<path d="M34.4924 34.8697C34.9674 41.6955 38.5012 48.0559 42.7053 53.6147C44.6404 56.1865 46.7525 58.5794 48.7976 61.0524C49.8415 62.2795 50.8854 63.5067 51.8865 64.7525C52.8075 65.9313 53.7063 67.5275 54.8284 68.4658C55.9885 67.502 53.8807 62.6612 53.4683 61.3629C52.6379 58.8706 51.6362 56.4529 50.4203 54.1285C47.994 49.3754 44.8636 44.8779 41.2211 40.96C39.1837 38.7385 36.9265 36.7147 34.4924 34.8697Z" fill="#F9F2F2"/>
<path d="M16.9443 59.1743C23.5236 57.4308 30.6485 58.813 37.2448 61.088C40.2448 62.126 43.2337 63.3726 46.204 64.5764C47.6798 65.1569 49.1743 65.7802 50.693 66.342C52.0886 66.8554 53.9127 67.1824 55.126 67.9791C54.5697 69.3934 49.3641 68.9081 47.9836 68.8976C45.3885 68.9065 42.7857 68.6638 40.1885 68.3168C34.8952 67.5129 29.7264 65.9414 24.8049 63.6507C22.0675 62.3965 19.4268 60.8963 16.9443 59.1743Z" fill="#F9F2F2"/>
</g>
</svg>
