<svg width="209" height="231" viewBox="0 0 209 231" fill="none" xmlns="http://www.w3.org/2000/svg">
<g opacity="0.86">
<path d="M231.644 254.519C220.696 262.91 209.379 271.095 196.859 277.017C182.257 283.905 166.362 287.562 150.521 291.298C172.608 277.471 191.056 258.818 211.919 243.2C219.03 237.888 226.484 232.911 234.928 229.887C239.514 228.239 244.318 227.244 249.285 226.822C253.965 226.482 258.156 226.932 254.918 232.228C249.366 241.16 239.841 248.122 231.644 254.519Z" fill="#F9F2F2"/>
<path d="M235.897 122.073C235.767 143.295 235.744 164.672 239.721 185.718C241.332 194.099 243.517 202.317 245.755 210.613C247.585 217.474 249.574 224.569 254.187 229.986C255.882 222.431 255.324 214.588 255.158 206.818C254.919 190.075 257.036 173.436 255.072 156.842C254.035 148.298 251.846 139.74 248.694 131.611C245.758 124.134 241.776 114.288 236.007 108.517C235.479 112.762 235.925 117.598 235.897 122.073Z" fill="#F9F2F2"/>
<path d="M217.637 150.535C214.971 143.788 211.941 137.176 208.832 130.616C203.74 119.814 198.414 109.172 192.88 98.5581C192.532 97.8816 191.462 98.1552 191.576 98.9913C193.151 106.483 193.107 114.281 193.428 121.944C194.716 148.253 201.864 174.443 214.218 198.221C217.053 203.711 220.252 209.065 224.489 213.597C226.344 215.643 228.517 218.157 229.369 214.72C229.994 212.122 229.35 208.336 229.241 205.668C228.715 193.69 226.907 181.674 223.95 169.984C222.202 163.41 220.168 156.917 217.637 150.535Z" fill="#F9F2F2"/>
<path d="M171.742 242.078C150.786 247.022 129.099 249.723 108.629 256.048C122.3 245.456 137.936 237.405 153.924 230.371C174.572 221.297 196.415 213.805 219.195 212.871C222.412 212.73 231.018 212.451 226.518 217.237C223.311 220.57 218.866 223.262 214.89 225.635C206.599 230.726 197.458 234.569 188.072 237.552C182.805 239.207 177.3 240.682 171.742 242.078Z" fill="#F9F2F2"/>
<path d="M156.886 221.494C133.509 229.919 109.846 238.425 84.9983 241.685C92.4238 236.5 99.7715 231.368 107.25 226.261C111.949 222.938 116.779 219.639 121.744 216.706C135.262 208.731 150.457 203.381 166.235 201.059C174.202 199.845 182.283 199.467 190.425 199.847C193.383 199.998 197.911 200.104 195.338 204.032C193.356 206.984 188.065 208.77 184.994 210.296C175.91 214.558 166.425 218.065 156.886 221.494Z" fill="#F9F2F2"/>
<path d="M58.9678 225.648C77.6096 214.974 96.2514 204.3 116.231 196.253C126.286 192.242 136.689 188.908 147.48 187.479C152.992 186.685 158.589 186.518 164.141 186.953C165.346 187.044 170.448 186.988 170.729 188.737C170.875 190.123 165.399 191.806 164.202 192.395C142.775 202.001 120.787 210.62 98.0677 216.996C85.1034 220.595 72.1315 223.513 58.9678 225.648Z" fill="#F9F2F2"/>
<path d="M44.1113 186.33C62.3389 180.736 80.6196 175.22 99.5292 172.131C108.984 170.587 118.709 169.772 128.268 170.555C133.14 170.997 138.068 171.858 142.821 173.297C143.791 173.548 148.302 174.465 148.137 176.063C147.968 177.321 142.948 177.665 141.747 177.914C121.279 182.067 100.591 185.228 79.6713 186.378C67.7996 187.06 55.9203 187.061 44.1113 186.33Z" fill="#F9F2F2"/>
<path d="M196.916 190.617C196.842 186.327 196.792 181.905 196.718 177.615C196.69 172.722 196.53 167.805 196.162 162.916C194.011 139.024 183.164 116.617 172.091 95.0487C171.234 105.001 173.02 114.977 174.072 124.882C175.609 138.34 175.917 151.838 178.212 165.236C179.724 174.141 182.179 183.089 186.195 191.312C187.508 194.071 189.883 200.56 193.628 200.859C198.054 201.149 196.921 193.469 196.916 190.617Z" fill="#F9F2F2"/>
<path d="M170.984 183.423C171.049 147.052 163.026 110.378 147.501 76.7713C147.409 92.027 148.653 107.399 150.681 122.578C152.651 137.34 155.326 151.963 159.829 166.252C161.43 171.441 163.294 176.679 165.392 181.758C165.903 183.009 167.349 188.304 168.66 188.551C170.942 189.049 170.999 184.783 170.984 183.423Z" fill="#F9F2F2"/>
<path d="M147.605 170.601C137.879 140.802 121.423 112.857 99.9678 89.4686C104.058 101.983 109.219 114.223 114.925 126.091C120.495 137.594 126.64 148.934 134.031 159.422C136.769 163.264 139.663 167 142.712 170.629C143.429 171.511 146.011 175.459 147.109 175.395C149.043 175.216 147.932 171.748 147.605 170.601Z" fill="#F9F2F2"/>
<path d="M114.415 155.455C121.589 160.608 129.33 164.917 136.813 169.518C144.742 174.27 152.539 178.997 160.415 183.672C176.113 192.942 191.808 201.873 208.401 209.276C240.326 223.573 272.69 237.341 305.506 249.43C324.554 256.413 343.984 262.45 363.69 267.385C366.156 267.985 366.901 264.392 364.512 263.738C330.292 254.779 297.079 242.276 264.404 228.72C231.859 215.189 199.368 201.736 168.869 183.839C160.309 178.832 151.749 173.825 143.189 168.818C134.261 163.606 125.353 157.923 115.937 153.501C114.593 152.705 113.096 154.527 114.415 155.455Z" fill="#F9F2F2"/>
<path d="M63.3515 97.91C66.8759 111.268 76.2906 122.545 86.7314 131.979C91.5423 136.347 96.6363 140.294 101.628 144.425C104.162 146.463 106.697 148.502 109.154 150.594C111.426 152.584 113.813 155.409 116.393 156.846C118.329 154.495 112.318 145.692 111.008 143.273C108.419 138.645 105.517 134.229 102.227 130.079C95.6163 121.57 87.7064 113.835 79.0004 107.443C74.1191 103.808 68.8769 100.648 63.3515 97.91Z" fill="#F9F2F2"/>
<path d="M37.7446 152.751C50.1332 146.804 64.7866 146.85 78.7294 148.866C85.0718 149.79 91.4712 151.132 97.8175 152.395C100.964 152.988 104.164 153.659 107.388 154.199C110.35 154.689 114.092 154.647 116.799 155.768C116.231 158.784 105.724 159.79 102.982 160.292C97.8382 161.291 92.5845 161.795 87.3023 162.089C76.5003 162.498 65.6547 161.336 55.0276 158.655C49.1241 157.204 43.3194 155.227 37.7446 152.751Z" fill="#F9F2F2"/>
</g>
</svg>
