<svg width="120" height="98" viewBox="0 0 120 98" fill="none" xmlns="http://www.w3.org/2000/svg">
<g opacity="0.86">
<path d="M87.0731 -25.4856C82.9805 -24.5951 78.9308 -23.4843 74.9041 -22.324C68.2751 -20.4288 61.7154 -18.3855 55.1524 -16.2205C54.7346 -16.0854 54.7909 -15.4504 55.2778 -15.4374C59.6933 -15.6371 64.1322 -14.8859 68.5283 -14.3551C83.638 -12.6387 99.2265 -14.2719 113.925 -19.0963C117.317 -20.2003 120.665 -21.5247 123.642 -23.5168C124.981 -24.3828 126.616 -25.3872 124.736 -26.1923C123.315 -26.7904 121.097 -26.7762 119.567 -26.9629C112.693 -27.7787 105.678 -27.8673 98.7428 -27.2715C94.8342 -26.8879 90.9453 -26.3331 87.0731 -25.4856Z" fill="#F9F2F2"/>
<path d="M134.957 9.18948C135.822 21.59 135.341 34.1986 137.039 46.4507C132.277 37.6746 129.146 28.016 126.627 18.2518C123.38 5.64186 121.146 -7.50161 122.735 -20.568C122.954 -22.414 123.597 -27.3431 125.905 -24.3337C127.505 -22.1959 128.625 -19.4129 129.607 -16.9259C131.735 -11.7284 133.074 -6.16193 133.899 -0.536001C134.351 2.61913 134.679 5.89278 134.957 9.18948Z" fill="#F9F2F2"/>
<path d="M121.846 15.7372C124.469 29.8413 127.111 44.1164 126.655 58.5773C124.392 53.8635 122.152 49.1991 119.939 44.4622C118.483 41.4754 117.054 38.4162 115.844 35.314C112.56 26.8696 110.926 17.7136 111.073 8.50741C111.123 3.85495 111.661 -0.784602 112.636 -5.38817C112.997 -7.05981 113.479 -9.62974 115.477 -7.79808C116.975 -6.39389 117.5 -3.21248 118.083 -1.32088C119.665 4.25203 120.78 9.9831 121.846 15.7372Z" fill="#F9F2F2"/>
<path d="M115.093 71.915C110.747 60.2993 106.401 48.6836 103.677 36.5505C102.329 30.4477 101.398 24.2099 101.588 17.9287C101.649 14.714 102.075 11.5091 102.841 8.38626C103.005 7.70839 103.447 4.79628 104.471 4.79905C105.274 4.84471 105.723 8.12158 105.947 8.85848C109.425 21.9618 112.287 35.2925 113.804 48.8312C114.647 56.553 115.102 64.2158 115.093 71.915Z" fill="#F9F2F2"/>
<path d="M91.3066 76.718C89.8172 65.8116 88.3771 54.882 88.3781 43.8202C88.3786 38.2892 88.8199 32.6725 90.1563 27.2989C90.8623 24.5643 91.8118 21.8362 93.074 19.2625C93.3073 18.7327 94.2504 16.2481 95.1454 16.4911C95.8464 16.7046 95.5748 19.5969 95.6047 20.3043C96.0649 32.353 95.9394 44.4349 94.6459 56.4615C93.9288 63.2891 92.8234 70.0578 91.3066 76.718Z" fill="#F9F2F2"/>
<path d="M107.981 -9.94622C105.529 -10.3036 103.005 -10.6873 100.554 -11.0447C97.7637 -11.4842 94.947 -11.8513 92.1271 -12.0966C78.3141 -13.0964 64.5366 -9.00292 51.2165 -4.70237C56.8073 -3.2871 62.6574 -3.37562 68.399 -3.05279C76.2103 -2.67508 83.9298 -1.59321 91.7771 -1.65312C96.9921 -1.68538 102.319 -2.25071 107.378 -3.77338C109.073 -4.26449 112.991 -5.01336 113.51 -7.1194C114.088 -9.61371 109.606 -9.68382 107.981 -9.94622Z" fill="#F9F2F2"/>
<path d="M101.467 4.15887C80.7494 0.734338 59.1066 1.89032 38.5124 7.60608C47.1962 9.079 56.0704 9.80165 64.9082 10.0604C73.5025 10.3127 82.0834 10.1504 90.644 8.9155C93.7498 8.48619 96.9082 7.91208 99.9974 7.18994C100.757 7.01517 103.909 6.68455 104.172 5.96056C104.668 4.70672 102.243 4.27692 101.467 4.15887Z" fill="#F9F2F2"/>
<path d="M91.9835 16.2855C74.099 19.0518 56.6443 25.8254 41.3201 35.8718C48.8312 34.7065 56.286 32.9063 63.5794 30.7606C70.6524 28.6578 77.6858 26.2129 84.3502 22.9785C86.7943 21.7763 89.1922 20.4754 91.544 19.0759C92.1131 18.7498 94.6033 17.6463 94.6687 17.0146C94.7471 15.8958 92.6678 16.2062 91.9835 16.2855Z" fill="#F9F2F2"/>
<path d="M80.2625 33.7857C83.8668 30.1778 87.0431 26.1686 90.3611 22.3338C93.8072 18.2587 97.227 14.256 100.624 10.204C107.368 2.12296 113.918 -5.98757 119.682 -14.7525C130.801 -31.6108 141.66 -48.7685 151.604 -66.3402C157.357 -76.543 162.606 -87.0514 167.253 -97.8195C167.825 -99.1688 165.847 -99.9279 165.252 -98.6279C156.96 -79.9646 146.743 -62.2052 135.976 -44.8502C125.236 -27.5676 114.544 -10.308 101.506 5.40303C97.8565 9.81384 94.2065 14.2246 90.5566 18.6354C86.7554 23.2372 82.6876 27.7831 79.2913 32.7366C78.7126 33.4279 79.6113 34.4507 80.2625 33.7857Z" fill="#F9F2F2"/>
<path d="M42.7192 57.5207C50.6582 56.7567 57.9604 52.4427 64.308 47.3725C67.2451 45.0382 69.9681 42.5033 72.7866 40.0441C74.1843 38.7898 75.5821 37.5355 77.0029 36.3305C78.348 35.221 80.1801 34.1244 81.2389 32.788C80.0801 31.4659 74.5044 34.0714 73.0043 34.592C70.1259 35.6365 67.3396 36.8783 64.6687 38.3668C59.2051 41.3407 54.061 45.1271 49.6082 49.4923C47.0825 51.9349 44.7939 54.6275 42.7192 57.5207Z" fill="#F9F2F2"/>
<path d="M71.5815 77.2183C69.3469 69.6057 70.7377 61.2609 73.185 53.5045C74.3019 49.9768 75.6623 46.4555 76.9734 42.9573C77.6042 41.2197 78.2844 39.4591 78.8922 37.6722C79.4474 36.0301 79.7721 33.8945 80.663 32.4562C82.3282 33.0608 81.9233 39.1414 81.9537 40.7503C82.0441 43.774 81.8416 46.8143 81.5174 49.8514C80.7441 56.0441 79.0724 62.1154 76.555 67.9207C75.178 71.1492 73.5114 74.2725 71.5815 77.2183Z" fill="#F9F2F2"/>
</g>
</svg>
