<svg width="183" height="117" viewBox="0 0 183 117" fill="none" xmlns="http://www.w3.org/2000/svg">
<g opacity="0.52">
<path d="M70.2598 132.193C66.8828 130.624 63.5058 129.054 59.9982 127.857C54.3114 125.916 48.2722 125.035 42.2266 125.202C40.7371 125.228 40.1981 127.17 41.4265 127.89C43.9313 129.321 46.4843 130.744 49.0285 132.118C51.4674 133.462 53.9456 134.749 56.5418 135.865C66.1328 140.076 76.6823 141.918 87.1902 142.723C89.8675 142.927 93.1153 143.525 95.7737 143.085C91.7033 140.996 87.1131 139.599 82.9032 137.834C78.6275 135.982 74.448 134.112 70.2598 132.193Z" fill="#F9F2F2"/>
<path d="M73.7774 126.416C81.685 130.139 90.2252 132.701 99.0712 132.865C101.472 132.921 103.886 132.776 106.3 132.63C108.963 132.488 111.675 132.338 114.329 132.148C113.035 131.34 111.474 130.98 109.993 130.506C105.297 129.079 101.042 126.526 96.7431 124.279C88.089 119.746 78.863 116.165 69.3023 113.742C66.7378 113.069 64.191 112.492 61.5441 112.182C59.5019 111.911 55.3249 111.136 53.3777 112.192C50.7128 113.678 55.8265 116.024 56.9015 116.723C59.4506 118.395 62.048 120.058 64.6758 121.617C67.6852 123.354 70.6679 124.946 73.7774 126.416Z" fill="#F9F2F2"/>
<path d="M30.535 102.552C26.659 95.2965 23.9252 87.4823 21.7518 79.4652C24.7977 83.8352 27.8043 88.2622 31.2482 92.3597C33.3613 94.9092 35.6493 97.3269 37.723 99.9334C39.9197 102.667 41.8146 105.655 43.4776 108.735C44.5334 110.683 45.4624 112.753 45.9668 114.951C46.3558 116.523 47.0033 120.04 45.7533 121.366C42.4498 119.384 39.594 115.776 37.2478 112.771C34.6822 109.658 32.4489 106.184 30.535 102.552Z" fill="#F9F2F2"/>
<path d="M38.63 78.3499C37.6317 70.7639 37.7807 62.9169 39.8844 55.4073C40.7004 59.8392 41.4683 64.28 42.2843 68.7119C42.9141 72.1322 43.4957 75.5614 44.5019 78.8625C45.398 81.8353 46.6134 84.6497 47.7414 87.53C49.1381 91.0581 50.4778 94.5469 51.6907 98.1586C52.8326 101.385 53.8959 104.725 54.2366 108.199C54.3354 109.277 54.9208 112.456 54.0904 113.356C52.8188 114.835 51.5247 112.135 50.9708 111.291C46.7905 105.087 43.542 98.2645 41.3178 91.0536C40.1037 86.8942 39.1786 82.6816 38.63 78.3499Z" fill="#F9F2F2"/>
<path d="M56.3028 85.6047C54.6224 78.6424 53.117 71.5483 52.9389 64.3592C52.7405 55.9785 54.3474 47.6638 55.9061 39.358C57.8242 52.7513 62.7989 65.4325 65.825 78.6218C66.8515 83.1146 67.6459 87.6999 67.3058 92.3447C67.1231 94.8686 66.5854 97.3583 65.7409 99.8049C64.9179 102.098 63.8225 103.993 61.9896 101.342C58.9171 96.8278 57.6157 90.8417 56.3028 85.6047Z" fill="#F9F2F2"/>
<path d="M118.283 115.482C108.236 110.957 98.0922 106.449 87.2651 103.91C82.9474 102.912 78.5866 102.221 74.1776 101.539C70.5356 100.964 66.7491 100.416 63.207 101.467C66.4369 103.86 70.2779 105.245 74.001 106.801C81.9998 110.209 89.4535 114.714 97.744 117.271C102.019 118.576 106.542 119.337 111.063 119.551C115.23 119.73 120.742 119.91 124.695 118.385C122.791 117.242 120.402 116.437 118.283 115.482Z" fill="#F9F2F2"/>
<path d="M108.612 100.827C112.376 100.981 116.153 100.933 119.92 100.837C126.119 100.691 132.292 100.402 138.495 100.007C138.889 99.9838 138.984 99.4184 138.563 99.2967C134.675 98.4685 130.983 96.8076 127.277 95.3481C114.517 90.4259 100.58 88.3102 86.6938 89.1736C83.4916 89.3648 80.2767 89.7575 77.2341 90.8158C75.8726 91.2657 74.222 91.7688 75.6747 92.8959C76.7763 93.739 78.7095 94.2298 79.9987 94.7395C85.7956 97.0092 91.8804 98.678 98.0514 99.7332C101.54 100.286 105.05 100.686 108.612 100.827Z" fill="#F9F2F2"/>
<path d="M74.8074 59.7848C76.8683 48.7966 80.1474 37.9328 81.4503 26.885C83.6034 35.6031 84.1363 44.7191 84.1127 53.7881C84.0775 65.4991 83.0396 77.4444 78.6917 88.4553C78.0819 90.0119 76.4043 94.1559 75.0786 91.0132C74.1711 88.7896 73.8278 86.1134 73.5377 83.7263C72.865 78.7202 72.963 73.5721 73.5212 68.4887C73.8435 65.6402 74.3013 62.7169 74.8074 59.7848Z" fill="#F9F2F2"/>
<path d="M87.7038 57.0617C88.6214 44.1922 89.5606 31.1693 93.2392 18.6879C94.1389 23.3036 95.0297 27.8712 95.8812 32.4958C96.4704 35.4255 97.0203 38.4122 97.3687 41.3863C98.3112 49.4805 97.6551 57.8194 95.4385 65.798C94.3391 69.8355 92.8188 73.7513 90.9258 77.5365C90.2323 78.9093 89.2294 81.0364 87.9061 78.989C86.9212 77.4271 87.1864 74.5394 87.1079 72.7608C86.9956 67.5518 87.3256 62.3112 87.7038 57.0617Z" fill="#F9F2F2"/>
<path d="M106.328 9.70331C107.474 20.7982 108.621 31.8932 108.238 43.0704C108.027 48.6875 107.422 54.3274 105.831 59.7505C105.048 62.5342 103.95 65.2267 102.576 67.7709C102.279 68.3236 101.233 70.7574 100.343 70.5229C99.655 70.301 100.008 67.3473 99.9799 66.6551C99.9264 54.4624 100.46 42.2115 102.212 30.0849C103.23 23.1735 104.573 16.4016 106.328 9.70331Z" fill="#F9F2F2"/>
<path d="M128.118 10.9208C126.94 20.7504 125.713 30.5888 123.202 40.2155C121.947 45.0288 120.288 49.8167 117.906 54.19C116.671 56.4097 115.226 58.5684 113.543 60.5218C113.22 60.93 111.835 62.8783 111.112 62.4637C110.55 62.1188 111.443 59.6634 111.577 59.041C113.911 48.4509 116.761 37.9648 120.616 27.7919C122.789 22.0126 125.287 16.3729 128.118 10.9208Z" fill="#F9F2F2"/>
<path d="M93.9427 82.5596C95.9951 83.4269 98.1044 84.3334 100.157 85.2007C102.485 86.2163 104.853 87.1749 107.252 88.0282C119.046 92.0326 131.965 91.5963 144.533 90.876C139.989 88.3758 134.877 87.1254 129.954 85.5417C123.242 83.4405 116.769 80.7474 109.926 79.019C105.38 77.8637 100.616 77.1471 95.8675 77.3242C94.2816 77.3671 90.7017 77.1298 89.7723 78.8449C88.7035 80.8845 92.5876 81.9624 93.9427 82.5596Z" fill="#F9F2F2"/>
<path d="M102.812 71.7614C120.065 79.4425 139.162 83.3473 158.382 83.046C151.159 79.7937 143.6 77.1512 135.967 74.9207C128.545 72.7511 121.041 70.9453 113.31 70.0775C110.51 69.7464 107.631 69.5294 104.779 69.4569C104.078 69.4366 101.26 69.0091 100.867 69.5796C100.15 70.5582 102.163 71.4825 102.812 71.7614Z" fill="#F9F2F2"/>
<path d="M113.817 63.3603C130.009 65.0109 146.736 63.0765 162.352 57.8105C155.551 57.1204 148.655 56.9956 141.821 57.208C135.188 57.4331 128.512 57.9649 121.979 59.2676C119.579 59.7592 117.197 60.3472 114.833 61.0316C114.263 61.1862 111.846 61.5815 111.645 62.1165C111.323 63.0723 113.203 63.274 113.817 63.3603Z" fill="#F9F2F2"/>
<path d="M127.989 50.79C124.033 53.1121 120.359 55.8804 116.602 58.4649C112.678 61.2294 108.793 63.9369 104.918 66.6925C97.2149 72.1949 89.6742 77.7671 82.6697 84.0872C69.1678 96.2356 55.8243 108.704 43.1831 121.739C35.8615 129.313 28.9088 137.267 22.4214 145.584C21.6176 146.629 23.1666 147.738 23.9793 146.742C35.4302 132.381 48.3516 119.244 61.6597 106.583C74.9284 93.9796 88.1489 81.3849 103.06 70.6704C107.238 67.66 111.415 64.6495 115.592 61.6391C119.945 58.4969 124.516 55.4637 128.596 51.9234C129.256 51.4531 128.706 50.359 127.989 50.79Z" fill="#F9F2F2"/>
<path d="M166.046 38.6525C158.964 37.516 151.63 39.6135 144.955 42.5856C141.869 43.9507 138.924 45.5389 135.914 47.0396C134.413 47.814 132.912 48.5884 131.402 49.3147C129.979 49.975 128.136 50.5136 126.911 51.4364C127.62 52.85 133.063 51.8477 134.487 51.735C137.229 51.4791 139.936 51.0306 142.598 50.3412C148.027 48.9928 153.363 46.8648 158.229 44.0763C160.981 42.5236 163.584 40.6996 166.046 38.6525Z" fill="#F9F2F2"/>
<path d="M145.397 14.961C145.615 22.093 142.511 29.0397 138.621 35.2346C136.849 38.0513 134.866 40.8071 132.931 43.554C131.988 44.923 130.996 46.3009 130.062 47.7181C129.206 49.0213 128.439 50.8061 127.337 51.8557C126.025 50.9517 127.758 45.7518 128.096 44.3447C128.704 41.6927 129.57 39.0927 130.541 36.5232C132.619 31.3094 135.451 26.4049 138.96 21.9239C140.89 19.4267 143.05 17.0867 145.397 14.961Z" fill="#F9F2F2"/>
</g>
</svg>
