<svg width="140" height="136" viewBox="0 0 140 136" fill="none" xmlns="http://www.w3.org/2000/svg">
<g opacity="0.86">
<path d="M-18.4191 113.774C-17.6726 117.643 -16.9261 121.512 -16.5957 125.42C-16.0593 131.756 -16.7026 138.181 -18.4225 144.345C-18.83 145.868 -20.9618 145.924 -21.3865 144.478C-22.2145 141.54 -23.021 138.555 -23.7803 135.591C-24.5353 132.742 -25.2217 129.868 -25.7022 126.917C-27.5684 115.992 -26.758 104.689 -24.8924 93.6953C-24.4164 90.8942 -24.1977 87.4069 -23.0654 84.7903C-21.9628 89.5044 -21.7053 94.5745 -20.9717 99.3487C-20.1651 104.213 -19.3157 108.983 -18.4191 113.774Z" fill="#F9F2F2"/>
<path d="M-11.587 111.642C-13.3846 102.57 -13.8267 93.1461 -11.7294 84.0224C-11.1718 81.543 -10.404 79.1023 -9.6363 76.6616C-8.80851 73.9635 -7.95927 71.2182 -7.08429 68.5415C-6.58667 70.0771 -6.61665 71.7715 -6.50937 73.4143C-6.24757 78.6003 -4.71608 83.6232 -3.5106 88.6119C-1.0739 98.6577 0.238966 109.047 0.277862 119.483C0.312256 122.288 0.25228 125.051 -0.107958 127.848C-0.352397 130.014 -0.626797 134.501 -2.20957 136.229C-4.41858 138.584 -5.51684 132.733 -5.9587 131.451C-7.02257 128.405 -8.065 125.313 -8.99161 122.216C-10.004 118.681 -10.8749 115.211 -11.587 111.642Z" fill="#F9F2F2"/>
<path d="M28.757 160.039C36.2894 163.007 44.3836 164.864 52.6323 164.628C48.2913 162.655 43.9288 160.729 39.5878 158.756C36.2377 157.234 32.8662 155.758 29.7348 153.879C26.9123 152.198 24.3342 150.229 21.6661 148.333C18.4018 145.996 15.1632 143.727 11.7658 141.556C8.74598 139.558 5.58887 137.61 2.11007 136.371C1.02912 135.993 -2.08508 134.578 -3.22177 135.2C-5.06622 136.126 -2.62546 138.147 -1.90051 138.932C3.39715 144.812 9.56986 149.895 16.4031 154.026C20.3624 156.338 24.4503 158.366 28.757 160.039Z" fill="#F9F2F2"/>
<path d="M25.8361 140.038C32.5535 143.546 39.451 146.909 46.7861 148.933C55.3394 151.284 64.2872 151.764 73.2136 152.291C59.9547 146.891 48.2099 138.536 35.4443 132.05C31.0947 129.846 26.5907 127.855 21.735 127.015C19.0969 126.556 16.4031 126.47 13.675 126.71C11.1099 126.968 8.88371 127.607 11.1358 130.168C14.9835 134.479 20.7958 137.348 25.8361 140.038Z" fill="#F9F2F2"/>
<path d="M11.0365 68.7511C13.1086 80.2254 15.1379 91.794 14.9709 103.56C14.8895 108.248 14.4821 112.903 14.0533 117.604C13.7103 121.49 13.3029 125.518 11.317 128.885C9.68686 124.956 9.2492 120.658 8.60566 116.437C7.15557 107.352 4.4401 98.5459 3.93797 89.3794C3.69334 84.6567 4.07068 79.8181 5.00994 75.1211C5.89345 70.7973 7.12008 65.0923 9.69795 61.4247C10.3843 63.6724 10.5989 66.3318 11.0365 68.7511Z" fill="#F9F2F2"/>
<path d="M23.6083 82.434C24.4146 78.5306 25.4311 74.6657 26.4948 70.8223C28.2318 64.4953 30.1104 58.2326 32.1049 51.9656C32.2292 51.5667 32.8341 51.6139 32.8512 52.0771C32.7055 56.2808 33.4649 60.4974 34.014 64.6753C35.7989 79.0364 34.4009 93.8866 29.9574 107.922C28.9409 111.16 27.7142 114.36 25.8483 117.213C25.0377 118.496 24.0983 120.061 23.3133 118.281C22.7299 116.934 22.7212 114.824 22.5282 113.37C21.683 106.837 21.5284 100.162 22.0258 93.5567C22.3517 89.8334 22.8406 86.1273 23.6083 82.434Z" fill="#F9F2F2"/>
<path d="M57.0833 127.653C68.8922 128.352 80.8856 127.768 92.5616 129.26C84.1627 124.817 74.9402 121.934 65.6234 119.636C53.5913 116.672 41.0617 114.678 28.6438 116.321C26.8894 116.548 22.2053 117.209 25.0921 119.375C27.1426 120.876 29.8021 121.914 32.1785 122.824C37.1457 124.797 42.4561 126.015 47.818 126.744C50.8249 127.143 53.9434 127.421 57.0833 127.653Z" fill="#F9F2F2"/>
<path d="M63.1815 115.11C76.6291 117.465 90.2396 119.836 103.996 119.257C99.4877 117.151 95.0266 115.066 90.4968 113.007C87.64 111.652 84.7145 110.322 81.7505 109.203C73.6819 106.162 64.9528 104.699 56.1937 104.931C51.7669 105.026 47.3574 105.584 42.9864 106.557C41.3993 106.918 38.9586 107.403 40.7217 109.286C42.0729 110.697 45.1056 111.164 46.9114 111.7C52.2304 113.15 57.6952 114.154 63.1815 115.11Z" fill="#F9F2F2"/>
<path d="M116.574 108.121C105.477 104.102 94.3802 100.083 82.8072 97.613C76.9863 96.3907 71.0411 95.5673 65.0659 95.8119C62.0075 95.9021 58.962 96.3397 55.9979 97.099C55.3545 97.262 52.5878 97.7125 52.6007 98.6862C52.6522 99.4497 55.775 99.8443 56.4784 100.05C68.9824 103.228 81.6964 105.819 94.5949 107.127C101.951 107.851 109.248 108.207 116.574 108.121Z" fill="#F9F2F2"/>
<path d="M120.902 85.4383C110.509 84.1303 100.094 82.8695 89.5677 82.9813C84.3045 83.0372 78.9641 83.5135 73.864 84.8391C71.2688 85.5383 68.6823 86.4692 66.2459 87.6961C65.7441 87.9234 63.3892 88.8457 63.6294 89.695C63.8396 90.3599 66.5891 90.0724 67.2626 90.0939C78.7327 90.411 90.2284 90.1704 101.66 88.8189C108.15 88.0681 114.58 86.9484 120.902 85.4383Z" fill="#F9F2F2"/>
<path d="M38.6043 102.174C38.2396 99.8445 37.8492 97.4467 37.4846 95.1176C37.0384 92.4667 36.6608 89.7901 36.3991 87.1091C35.3092 73.9748 39.0664 60.8232 43.0253 48.1048C44.4281 53.4108 44.4025 58.9785 44.7672 64.439C45.205 71.8684 46.3119 79.2034 46.3335 86.6713C46.3551 91.6343 45.8705 96.7087 44.4723 101.539C44.0219 103.156 43.3486 106.892 41.3497 107.407C38.9819 107.982 38.8703 103.718 38.6043 102.174Z" fill="#F9F2F2"/>
<path d="M51.9597 95.8336C48.4933 76.1536 49.3763 55.5469 54.6089 35.8924C56.0976 44.141 56.8742 52.5784 57.209 60.9857C57.5353 69.1615 57.4669 77.3286 56.3776 85.4872C56.0002 88.447 55.4855 91.4582 54.8293 94.4051C54.6706 95.13 54.3876 98.1327 53.7013 98.39C52.5131 98.8748 52.0798 96.5714 51.9597 95.8336Z" fill="#F9F2F2"/>
<path d="M63.4056 86.6883C65.8587 69.6418 72.1295 52.9642 81.5359 38.281C80.5023 45.4402 78.8639 52.5522 76.8953 59.5141C74.9652 66.2658 72.7091 72.9831 69.6981 79.3574C68.5786 81.6952 67.3647 83.9901 66.0565 86.2421C65.752 86.7869 64.7269 89.1675 64.1263 89.2362C63.0625 89.322 63.337 87.3403 63.4056 86.6883Z" fill="#F9F2F2"/>
<path d="M79.9417 75.3592C76.5445 78.8252 72.7613 81.888 69.1454 85.0838C65.3021 88.4039 61.5275 91.6984 57.7056 94.9713C50.0834 101.47 42.4312 107.784 34.1483 113.357C18.2175 124.107 1.99932 134.612 -14.6221 144.251C-24.2733 149.827 -34.2204 154.928 -44.4207 159.458C-45.6989 160.016 -46.4411 158.141 -45.21 157.562C-27.5333 149.484 -10.736 139.584 5.67096 129.164C22.0093 118.77 38.3262 108.424 53.1459 95.8594C57.3066 92.3419 61.4673 88.8244 65.628 85.3069C69.9689 81.6436 74.2539 77.7272 78.9337 74.4456C79.5856 73.888 80.568 74.733 79.9417 75.3592Z" fill="#F9F2F2"/>
<path d="M102.149 39.3956C101.502 46.958 97.4696 53.9499 92.7084 60.0411C90.5166 62.8594 88.1317 65.476 85.8198 68.1827C84.6402 69.5254 83.4606 70.868 82.3283 72.2321C81.286 73.5233 80.2608 75.2777 78.9997 76.2986C77.73 75.2091 80.1534 69.8772 80.6338 68.4445C81.5989 65.695 82.7527 63.0312 84.1424 60.4746C86.9175 55.2456 90.4691 50.3126 94.5783 46.0316C96.8774 43.6037 99.4167 41.3989 102.149 39.3956Z" fill="#F9F2F2"/>
<path d="M121.184 66.6632C113.917 64.613 105.99 66.0202 98.6339 68.4268C95.2881 69.525 91.9509 70.8548 88.6352 72.1375C86.9881 72.7552 85.3195 73.4201 83.6252 74.0164C82.0681 74.5612 80.0392 74.8916 78.6794 75.7538C79.2714 77.3323 85.0536 76.886 86.585 76.8989C89.4632 76.9545 92.3543 76.7314 95.2411 76.3925C101.126 75.5945 106.887 73.9428 112.386 71.4891C115.444 70.1464 118.4 68.5292 121.184 66.6632Z" fill="#F9F2F2"/>
</g>
</svg>
