<svg width="192" height="137" viewBox="0 0 192 137" fill="none" xmlns="http://www.w3.org/2000/svg">
<g opacity="0.86">
<path d="M179.955 14.4895C179.703 10.3437 179.451 6.19785 179.638 2.06843C179.942 -4.62667 181.491 -11.255 184.13 -17.4631C184.763 -18.9991 186.999 -18.7666 187.246 -17.1978C187.71 -14.0137 188.146 -10.7833 188.535 -7.58174C188.936 -4.5018 189.261 -1.40432 189.361 1.74578C189.821 13.4195 187.432 25.1226 183.982 36.3591C183.103 39.2218 182.398 42.8369 180.858 45.4174C180.349 40.3398 180.771 35.0053 180.656 29.9152C180.476 24.7211 180.239 19.6197 179.955 14.4895Z" fill="#F9F2F2"/>
<path d="M172.523 15.7853C173.164 25.5128 172.341 35.4231 168.904 44.6732C167.983 47.1885 166.847 49.6348 165.712 52.0812C164.479 54.7883 163.216 57.5418 161.937 60.2201C161.626 58.5472 161.889 56.7803 162.001 55.0486C162.434 49.5925 161.519 44.1336 160.94 38.755C159.763 27.9226 159.808 16.8848 161.191 5.9714C161.538 3.03458 161.978 0.155469 162.736 -2.71856C163.287 -4.94933 164.186 -9.60151 166.076 -11.1924C168.706 -13.3525 169.056 -7.0874 169.342 -5.6866C170.039 -2.3583 170.707 1.01639 171.253 4.37977C171.829 8.21215 172.265 11.958 172.523 15.7853Z" fill="#F9F2F2"/>
<path d="M137.282 -18.9986C130.739 -23.5822 123.989 -28.0379 116.598 -31.1545C107.979 -34.778 98.6919 -36.5005 89.434 -38.2695C102.556 -30.8165 113.691 -20.481 126.149 -11.961C130.395 -9.06329 134.831 -6.36868 139.791 -4.82766C142.486 -3.98814 145.29 -3.53106 148.174 -3.41004C150.89 -3.32919 153.304 -3.69357 151.3 -6.6773C147.866 -11.7079 142.183 -15.5 137.282 -18.9986Z" fill="#F9F2F2"/>
<path d="M143.026 57.5296C142.426 45.2539 141.883 32.8855 143.662 20.6104C144.387 15.7211 145.448 10.9122 146.537 6.05694C147.426 2.04179 148.401 -2.11254 150.936 -5.36112C152.104 -1.03202 151.975 3.52002 152.072 8.01944C152.348 17.713 153.985 27.2877 153.26 36.9372C152.871 41.9068 151.816 46.9126 150.194 51.6937C148.681 56.0925 146.62 61.8881 143.426 65.3698C143.015 62.9269 143.153 60.1179 143.026 57.5296Z" fill="#F9F2F2"/>
<path d="M131.754 41.512C130.378 45.4819 128.789 49.3828 127.153 53.2548C124.474 59.6309 121.656 65.9204 118.716 72.1985C118.532 72.5985 117.906 72.4667 117.951 71.9802C118.677 67.6063 118.459 63.0956 118.455 58.6539C118.548 43.4001 122.035 28.0694 128.595 14.0058C130.099 10.7595 131.817 7.58221 134.157 4.85526C135.179 3.6253 136.375 2.11698 136.952 4.08465C137.378 5.57201 137.099 7.779 137.103 9.3252C137.095 16.2687 136.346 23.2659 134.925 30.1024C134.076 33.9496 133.06 37.7565 131.754 41.512Z" fill="#F9F2F2"/>
<path d="M102.931 -10.3164C90.6837 -12.6579 78.0686 -13.6839 66.0684 -16.8366C74.2407 -11.0463 83.4869 -6.77563 92.9112 -3.1018C105.083 1.63728 117.907 5.43099 131.11 5.40756C132.975 5.40923 137.961 5.35766 135.239 2.69981C133.301 0.850965 130.663 -0.596743 128.303 -1.87134C123.38 -4.61119 117.996 -6.60876 112.491 -8.10224C109.403 -8.92932 106.181 -9.64608 102.931 -10.3164Z" fill="#F9F2F2"/>
<path d="M94.8472 1.96062C81.1129 -2.33489 67.2106 -6.67056 52.7534 -7.94155C57.1782 -5.12532 61.5566 -2.33794 66.0102 0.431896C68.8113 2.23829 71.6876 4.02714 74.6329 5.60158C82.6514 9.88078 91.5756 12.6002 100.762 13.5528C105.402 14.0579 110.087 14.0765 114.788 13.6549C116.496 13.4948 119.114 13.321 117.528 11.1124C116.308 9.45306 113.202 8.55074 111.388 7.74401C106.026 5.50317 100.451 3.7087 94.8472 1.96062Z" fill="#F9F2F2"/>
<path d="M38.0898 1.98206C49.1402 7.69652 60.1905 13.411 71.9497 17.5719C77.867 19.6435 83.9686 21.3152 90.2473 21.8747C93.4563 22.1976 96.6992 22.1557 99.9007 21.7664C100.595 21.6838 103.549 21.5904 103.668 20.5709C103.718 19.7659 100.508 18.9275 99.8011 18.6163C87.1655 13.5887 74.2301 9.14667 60.927 6.01999C53.3369 4.25894 45.7592 2.89165 38.0898 1.98206Z" fill="#F9F2F2"/>
<path d="M30.4648 25.0992C41.1497 27.8843 51.8633 30.6229 62.8808 31.942C68.3895 32.6016 74.0363 32.8323 79.5478 32.1426C82.3556 31.7657 85.1861 31.1456 87.9 30.1957C88.4555 30.0265 91.0427 29.3838 90.9075 28.4633C90.7785 27.7397 87.8654 27.6651 87.1644 27.5508C75.2191 25.6546 63.1709 24.3377 51.0384 24.1909C44.1526 24.0903 37.2793 24.3835 30.4648 25.0992Z" fill="#F9F2F2"/>
<path d="M118.774 18.8353C118.837 21.3195 118.918 23.879 118.981 26.3632C119.086 29.1948 119.116 32.0439 119.023 34.8817C118.371 48.7584 112.65 61.992 106.777 74.7453C106.034 69.008 106.821 63.1921 107.184 57.435C107.74 49.6101 107.584 41.7925 108.58 33.984C109.235 28.7938 110.433 23.5561 112.554 18.6985C113.245 17.0697 114.459 13.2565 116.618 12.9911C119.171 12.7133 118.706 17.185 118.774 18.8353Z" fill="#F9F2F2"/>
<path d="M103.944 23.6396C104.883 44.6821 101.149 66.0998 92.9981 85.9289C92.5674 77.1044 92.9067 68.1796 93.7037 59.3465C94.478 50.7567 95.6637 42.2297 97.9153 33.8509C98.7135 30.8089 99.6622 27.7317 100.75 24.7411C101.015 24.0051 101.72 20.9053 102.473 20.7299C103.781 20.3854 103.919 22.852 103.944 23.6396Z" fill="#F9F2F2"/>
<path d="M90.7388 31.6375C85.8493 49.1198 77.0199 65.6959 65.1852 79.7595C67.2422 72.4177 69.9249 65.2078 72.9323 58.1998C75.8707 51.4062 79.1451 44.6929 83.1618 38.4413C84.6508 36.1506 86.2326 33.9175 87.9072 31.7422C88.2999 31.2143 89.6961 28.8659 90.3331 28.876C91.4567 28.9315 90.8995 30.9653 90.7388 31.6375Z" fill="#F9F2F2"/>
<path d="M71.9086 41.2225C75.9322 38.0633 80.3042 35.3782 84.5196 32.5312C88.9896 29.5853 93.3843 26.6569 97.8253 23.7573C106.679 18.0046 115.538 12.4488 124.956 7.7546C143.073 -1.30791 161.458 -10.0757 180.145 -17.8828C190.994 -22.3948 202.086 -26.3689 213.365 -29.7121C214.778 -30.1206 215.298 -28.0601 213.932 -27.6228C194.354 -21.5915 175.447 -13.5349 156.877 -4.88256C138.382 3.75225 119.916 12.3407 102.712 23.4512C97.8837 26.5601 93.055 29.6689 88.2264 32.7778C83.1896 36.0146 78.1765 39.5234 72.8376 42.315C72.0801 42.8089 71.1686 41.7917 71.9086 41.2225Z" fill="#F9F2F2"/>
<path d="M43.791 75.7822C45.4995 67.9663 50.6675 61.2083 56.4748 55.4913C59.1502 52.8447 61.9999 50.4351 64.7856 47.9214C66.2016 46.679 67.6177 45.4366 68.9873 44.1653C70.2529 42.958 71.5637 41.2641 73.0211 40.3691C74.1996 41.681 70.9392 46.9233 70.2417 48.3553C68.8579 51.0975 67.2886 53.7243 65.4873 56.2068C61.8733 61.2936 57.4883 65.965 52.6093 69.879C49.8751 72.103 46.9202 74.0611 43.791 75.7822Z" fill="#F9F2F2"/>
<path d="M27.6133 44.6844C34.9285 47.8186 43.4057 47.4292 51.4229 45.9174C55.0697 45.226 58.7392 44.2913 62.3798 43.403C64.1857 42.982 66.0204 42.5147 67.8726 42.1226C69.5744 41.7656 71.7401 41.6971 73.2789 40.9814C72.8755 39.2508 66.7711 38.9284 65.1722 38.7061C62.1715 38.2552 59.1193 38.094 56.0557 38.0545C49.7957 38.0857 43.5493 39.0261 37.4669 40.8406C34.0871 41.8267 30.7775 43.1139 27.6133 44.6844Z" fill="#F9F2F2"/>
</g>
</svg>
