<svg width="242" height="142" viewBox="0 0 242 142" fill="none" xmlns="http://www.w3.org/2000/svg">
<g opacity="0.86">
<path d="M191.687 133.716C191.556 138.447 191.426 143.177 191.777 147.914C192.347 155.594 194.281 163.268 197.397 170.524C198.147 172.318 200.593 172.18 200.809 170.398C201.206 166.781 201.571 163.108 201.885 159.466C202.216 155.964 202.464 152.437 202.463 148.838C202.556 135.504 199.521 121.973 195.337 108.916C194.27 105.589 193.37 101.412 191.587 98.3704C191.207 104.153 191.859 110.282 191.912 116.101C191.898 122.036 191.818 127.861 191.687 133.716Z" fill="#F9F2F2"/>
<path d="M183.473 131.808C183.834 120.711 182.58 109.322 178.481 98.539C177.381 95.6076 176.048 92.743 174.715 89.8784C173.266 86.7097 171.783 83.4863 170.284 80.348C170.002 82.2449 170.352 84.282 170.536 86.2704C171.205 92.5397 170.392 98.7352 169.946 104.858C169.036 117.189 169.475 129.824 171.378 142.393C171.862 145.774 172.446 149.094 173.38 152.427C174.064 155.012 175.215 160.387 177.346 162.316C180.31 164.938 180.473 157.788 180.738 156.201C181.385 152.431 181.999 148.607 182.48 144.789C182.977 140.436 183.325 136.173 183.473 131.808Z" fill="#F9F2F2"/>
<path d="M149.626 82.3502C149.399 96.3654 149.24 110.49 151.626 124.641C152.594 130.278 153.928 135.842 155.296 141.461C156.413 146.107 157.63 150.917 160.528 154.78C161.657 149.892 161.355 144.675 161.303 139.531C161.264 128.452 162.724 117.587 161.587 106.502C160.985 100.792 159.651 95.0029 157.701 89.4383C155.884 84.3176 153.418 77.5669 149.788 73.3999C149.423 76.1723 149.674 79.3951 149.626 82.3502Z" fill="#F9F2F2"/>
<path d="M137.813 100.037C136.163 95.4152 134.28 90.8599 132.348 86.335C129.182 78.8847 125.866 71.5256 122.418 64.1725C122.201 63.7042 121.519 63.8193 121.586 64.3788C122.537 69.426 122.456 74.5761 122.608 79.6594C123.249 97.1228 127.618 114.868 135.315 131.338C137.081 135.139 139.08 138.874 141.744 142.128C142.91 143.594 144.275 145.389 144.84 143.17C145.256 141.492 144.872 138.95 144.821 137.18C144.567 129.233 143.498 121.182 141.697 113.276C140.63 108.825 139.38 104.41 137.813 100.037Z" fill="#F9F2F2"/>
<path d="M107.997 157.712C94.6336 159.693 80.82 160.148 67.7565 163.071C76.5245 156.91 86.525 152.55 96.7421 148.883C109.938 144.154 123.883 140.544 138.38 141.324C140.427 141.428 145.903 141.772 143.008 144.658C140.945 146.664 138.1 148.17 135.554 149.494C130.246 152.349 124.406 154.328 118.415 155.723C115.053 156.494 111.542 157.13 107.997 157.712Z" fill="#F9F2F2"/>
<path d="M98.6877 143.2C83.7607 147.332 68.6507 151.501 52.8234 152.131C57.5819 149.16 62.2906 146.22 67.0824 143.304C70.0939 141.396 73.1886 139.513 76.3667 137.879C85.019 133.439 94.7207 130.836 104.773 130.27C109.849 129.957 114.992 130.203 120.168 130.953C122.049 131.234 124.928 131.582 123.265 134.02C121.985 135.849 118.606 136.705 116.643 137.524C110.836 139.783 104.778 141.519 98.6877 143.2Z" fill="#F9F2F2"/>
<path d="M36.375 139.936C48.3053 134.027 60.2356 128.117 72.999 124.026C79.4223 121.992 86.0621 120.427 92.9356 120.145C96.4472 119.959 100.009 120.192 103.538 120.82C104.303 120.954 107.549 121.229 107.716 122.403C107.799 123.327 104.305 124.104 103.539 124.419C89.8444 129.453 75.7997 133.799 61.3048 136.618C53.034 138.2 44.7629 139.333 36.375 139.936Z" fill="#F9F2F2"/>
<path d="M27.1914 113.043C38.8237 110.466 50.4894 107.942 62.5386 107.061C68.5632 106.621 74.7545 106.679 80.8297 107.783C83.9256 108.374 87.055 109.245 90.068 110.488C90.6839 110.713 93.5469 111.596 93.4309 112.642C93.3148 113.463 90.1193 113.382 89.3537 113.473C76.3062 114.961 63.1252 115.781 49.8105 115.257C42.2544 114.979 34.698 114.251 27.1914 113.043Z" fill="#F9F2F2"/>
<path d="M124.362 125.251C124.344 122.412 124.343 119.487 124.325 116.648C124.34 113.413 124.272 110.154 124.071 106.9C122.865 90.9812 116.117 75.5089 109.22 60.5777C108.607 67.1017 109.675 73.8029 110.278 80.4126C111.164 89.4 111.268 98.3383 112.637 107.332C113.539 113.31 115.039 119.373 117.539 125.053C118.355 126.957 119.822 131.39 122.202 131.817C125.015 132.281 124.347 127.136 124.362 125.251Z" fill="#F9F2F2"/>
<path d="M107.916 118.907C108.204 94.8771 103.349 70.1514 93.702 46.9918C93.5403 57.067 94.2276 67.3007 95.414 77.4557C96.5671 87.331 98.1695 97.1578 100.937 106.876C101.92 110.403 103.071 113.979 104.37 117.464C104.687 118.321 105.571 121.909 106.403 122.153C107.851 122.622 107.916 119.807 107.916 118.907Z" fill="#F9F2F2"/>
<path d="M93.1257 109C87.1412 88.7121 76.8632 69.2369 63.3743 52.4658C65.8914 60.9858 69.0909 69.3907 72.6398 77.583C76.1053 85.526 79.937 93.3961 84.5673 100.78C86.2828 103.487 88.0982 106.133 90.0133 108.718C90.463 109.345 92.0787 112.112 92.7777 112.137C94.0093 112.138 93.3258 109.778 93.1257 109Z" fill="#F9F2F2"/>
<path d="M72.1213 96.956C76.6501 100.801 81.5447 104.124 86.273 107.623C91.2843 111.249 96.2124 114.852 101.19 118.424C111.113 125.513 121.036 132.377 131.54 138.287C151.75 149.693 172.243 160.776 193.035 170.778C205.104 176.561 217.423 181.742 229.924 186.212C231.489 186.76 231.987 184.432 230.472 183.853C208.766 175.833 187.724 165.534 167.031 154.571C146.422 143.634 125.846 132.751 106.566 119.053C101.156 115.219 95.7448 111.386 90.3339 107.552C84.69 103.56 79.0626 99.2582 73.1027 95.7587C72.2536 95.1502 71.2888 96.2624 72.1213 96.956Z" fill="#F9F2F2"/>
<path d="M40.0341 55.7973C42.1853 64.8401 48.0974 72.8695 54.6747 79.744C57.7053 82.9257 60.9188 85.8461 64.0658 88.882C65.6642 90.3847 67.2627 91.8874 68.8112 93.4206C70.2432 94.8746 71.7421 96.888 73.3736 97.9955C74.6212 96.5612 70.8569 90.3754 70.0406 88.6967C68.4247 85.4793 66.6091 82.3834 64.544 79.4393C60.397 73.4113 55.418 67.8146 49.9235 63.0567C46.8433 60.3553 43.5301 57.9456 40.0341 55.7973Z" fill="#F9F2F2"/>
<path d="M23.375 90.4655C31.2956 87.2959 40.6162 88.2252 49.4714 90.4129C53.4995 91.4123 57.5611 92.6914 61.5893 93.9158C63.5867 94.5006 65.6175 95.1402 67.6649 95.6946C69.5458 96.2003 71.9258 96.4023 73.6405 97.3092C73.2586 99.2669 66.5681 99.2876 64.8207 99.4508C61.5421 99.7956 58.1969 99.8059 54.8349 99.6764C47.9611 99.2835 41.0702 97.8508 34.3285 95.4271C30.5832 94.1056 26.9043 92.4436 23.375 90.4655Z" fill="#F9F2F2"/>
</g>
</svg>
