<svg width="172" height="160" viewBox="0 0 172 160" fill="none" xmlns="http://www.w3.org/2000/svg">
<g opacity="0.86">
<path d="M13.5809 113.774C14.3274 117.643 15.0739 121.512 15.4043 125.42C15.9407 131.755 15.2974 138.181 13.5775 144.345C13.17 145.868 11.0382 145.924 10.6135 144.478C9.78554 141.54 8.97902 138.555 8.2197 135.59C7.46467 132.742 6.77829 129.868 6.29778 126.917C4.43156 115.992 5.24195 104.689 7.10757 93.6952C7.58362 90.8942 7.80229 87.4068 8.93464 84.7902C10.0372 89.5043 10.2947 94.5745 11.0283 99.3486C11.8349 104.213 12.6843 108.983 13.5809 113.774Z" fill="#F9F2F2"/>
<path d="M20.413 111.642C18.6154 102.57 18.1733 93.1461 20.2706 84.0223C20.8282 81.543 21.596 79.1022 22.3637 76.6615C23.1915 73.9634 24.0407 71.2181 24.9157 68.5415C25.4133 70.0771 25.3833 71.7714 25.4906 73.4143C25.7524 78.6003 27.2839 83.6232 28.4894 88.6118C30.9261 98.6577 32.239 109.047 32.2779 119.483C32.3123 122.288 32.2523 125.051 31.892 127.848C31.6476 130.014 31.3732 134.501 29.7904 136.229C27.5814 138.584 26.4832 132.733 26.0413 131.451C24.9774 128.405 23.935 125.313 23.0084 122.216C21.996 118.681 21.1251 115.211 20.413 111.642Z" fill="#F9F2F2"/>
<path d="M33.8367 162.15C40.2926 167.988 47.6148 172.796 55.2888 177.081C51.5826 172.835 47.8077 168.614 44.4833 164.029C42.4071 161.206 40.5111 158.238 38.3662 155.441C36.1228 152.486 33.5404 149.775 30.8037 147.279C29.075 145.696 27.1876 144.212 25.0599 143.131C23.5457 142.329 20.1012 140.763 18.4198 141.707C19.6081 145.606 22.5808 149.462 25.0645 152.641C27.604 156.072 30.5981 159.255 33.8367 162.15Z" fill="#F9F2F2"/>
<path d="M60.757 160.039C68.2894 163.007 76.3836 164.864 84.6323 164.628C80.2913 162.655 75.9288 160.729 71.5878 158.756C68.2377 157.234 64.8662 155.758 61.7348 153.879C58.9123 152.198 56.3342 150.229 53.6661 148.333C50.4018 145.996 47.1632 143.727 43.7658 141.556C40.746 139.557 37.5889 137.61 34.1101 136.371C33.0291 135.993 29.9149 134.578 28.7782 135.2C26.9338 136.126 29.3745 138.146 30.0995 138.931C35.3972 144.812 41.5699 149.895 48.4031 154.026C52.3624 156.338 56.4503 158.366 60.757 160.039Z" fill="#F9F2F2"/>
<path d="M57.8361 140.037C64.5535 143.546 71.451 146.909 78.7861 148.933C87.3394 151.284 96.2872 151.764 105.214 152.291C91.9547 146.891 80.2099 138.536 67.4443 132.05C63.0947 129.846 58.5907 127.855 53.735 127.015C51.0969 126.556 48.4031 126.47 45.675 126.71C43.1099 126.968 40.8837 127.607 43.1358 130.168C46.9835 134.479 52.7958 137.348 57.8361 140.037Z" fill="#F9F2F2"/>
<path d="M43.0365 68.751C45.1086 80.2253 47.1379 91.794 46.9709 103.56C46.8895 108.248 46.4821 112.902 46.0533 117.604C45.7103 121.49 45.3029 125.518 43.317 128.885C41.6869 124.956 41.2492 120.658 40.6057 116.437C39.1556 107.352 36.4401 98.5459 35.938 89.3793C35.6933 84.6566 36.0707 79.818 37.0099 75.121C37.8935 70.7972 39.1201 65.0922 41.698 61.4246C42.3843 63.6723 42.5989 66.3318 43.0365 68.751Z" fill="#F9F2F2"/>
<path d="M55.6083 82.434C56.4146 78.5305 57.4311 74.6657 58.4948 70.8223C60.2318 64.4952 62.1104 58.2326 64.1049 51.9656C64.2292 51.5667 64.8341 51.6138 64.8512 52.0771C64.7055 56.2808 65.4649 60.4973 66.014 64.6752C67.7989 79.0364 66.4009 93.8866 61.9574 107.922C60.9409 111.16 59.7142 114.36 57.8483 117.213C57.0377 118.496 56.0983 120.061 55.3133 118.281C54.7299 116.934 54.7212 114.824 54.5282 113.37C53.683 106.837 53.5284 100.162 54.0258 93.5566C54.3517 89.8333 54.8406 86.1272 55.6083 82.434Z" fill="#F9F2F2"/>
<path d="M89.0833 127.653C100.892 128.352 112.886 127.768 124.562 129.26C116.163 124.817 106.94 121.934 97.6234 119.636C85.5913 116.672 73.0617 114.678 60.6438 116.321C58.8894 116.548 54.2053 117.209 57.0921 119.375C59.1426 120.876 61.8021 121.914 64.1785 122.824C69.1457 124.797 74.4561 126.015 79.818 126.744C82.8249 127.143 85.9434 127.421 89.0833 127.653Z" fill="#F9F2F2"/>
<path d="M95.1815 115.11C108.629 117.465 122.24 119.836 135.996 119.257C131.488 117.151 127.027 115.066 122.497 113.007C119.64 111.652 116.715 110.322 113.75 109.203C105.682 106.162 96.9528 104.699 88.1937 104.931C83.7669 105.026 79.3574 105.584 74.9864 106.557C73.3993 106.918 70.9586 107.403 72.7217 109.286C74.0729 110.697 77.1056 111.164 78.9114 111.7C84.2304 113.15 89.6952 114.154 95.1815 115.11Z" fill="#F9F2F2"/>
<path d="M148.574 108.121C137.477 104.102 126.38 100.083 114.807 97.6129C108.986 96.3906 103.041 95.5672 97.0659 95.8119C94.0075 95.902 90.962 96.3396 87.9979 97.099C87.3545 97.262 84.5878 97.7124 84.6007 98.6862C84.6522 99.4497 87.775 99.8442 88.4784 100.05C100.982 103.228 113.696 105.819 126.595 107.127C133.951 107.851 141.248 108.207 148.574 108.121Z" fill="#F9F2F2"/>
<path d="M152.902 85.4383C142.509 84.1303 132.094 82.8695 121.568 82.9813C116.304 83.0372 110.964 83.5135 105.864 84.8391C103.269 85.5383 100.682 86.4692 98.2459 87.6961C97.7441 87.9234 95.3892 88.8457 95.6294 89.695C95.8396 90.3599 98.5891 90.0724 99.2626 90.0939C110.733 90.411 122.228 90.1704 133.66 88.8189C140.15 88.0681 146.58 86.9484 152.902 85.4383Z" fill="#F9F2F2"/>
<path d="M70.6043 102.174C70.2396 99.8445 69.8492 97.4467 69.4846 95.1175C69.0384 92.4666 68.6608 89.79 68.3991 87.1091C67.3092 73.9747 71.0664 60.8231 75.0253 48.1047C76.4281 53.4107 76.4025 58.9785 76.7672 64.439C77.205 71.8683 78.3119 79.2033 78.3335 86.6713C78.3551 91.6342 77.8705 96.7087 76.4723 101.539C76.0219 103.156 75.3486 106.892 73.3497 107.407C70.9819 107.982 70.8703 103.718 70.6043 102.174Z" fill="#F9F2F2"/>
<path d="M83.9597 95.8335C80.4933 76.1535 81.3763 55.5468 86.6089 35.8923C88.0976 44.1409 88.8742 52.5783 89.209 60.9857C89.5353 69.1614 89.4669 77.3286 88.3776 85.4872C88.0002 88.4469 87.4855 91.4581 86.8293 94.405C86.6706 95.13 86.3876 98.1326 85.7013 98.39C84.5131 98.8747 84.0798 96.5713 83.9597 95.8335Z" fill="#F9F2F2"/>
<path d="M95.4056 86.6882C97.8587 69.6418 104.129 52.9641 113.536 38.281C112.502 45.4401 110.864 52.5521 108.895 59.514C106.965 66.2657 104.709 72.9831 101.698 79.3573C100.579 81.6951 99.3647 83.99 98.0565 86.242C97.752 86.7868 96.7269 89.1675 96.1263 89.2361C95.0625 89.3219 95.337 87.3402 95.4056 86.6882Z" fill="#F9F2F2"/>
<path d="M111.942 75.3592C108.545 78.8252 104.761 81.888 101.145 85.0837C97.3021 88.4039 93.5275 91.6983 89.7056 94.9713C82.0834 101.47 74.4312 107.784 66.1483 113.357C50.2175 124.106 33.9993 134.612 17.3779 144.251C7.72672 149.827 -2.22043 154.928 -12.4207 159.458C-13.6989 160.015 -14.4411 158.141 -13.21 157.562C4.46671 149.484 21.264 139.584 37.671 129.164C54.0093 118.77 70.3262 108.424 85.1459 95.8593C89.3066 92.3418 93.4673 88.8244 97.628 85.3069C101.969 81.6435 106.254 77.7271 110.934 74.4455C111.586 73.8879 112.568 74.7329 111.942 75.3592Z" fill="#F9F2F2"/>
<path d="M134.149 39.3955C133.502 46.9579 129.47 53.9499 124.708 60.0411C122.517 62.8593 120.132 65.4759 117.82 68.1827C116.64 69.5253 115.461 70.8679 114.328 72.232C113.286 73.5232 112.261 75.2776 111 76.2985C109.73 75.2091 112.153 69.8772 112.634 68.4445C113.599 65.6949 114.753 63.0311 116.142 60.4745C118.918 55.2456 122.469 50.3126 126.578 46.0316C128.877 43.6037 131.417 41.3988 134.149 39.3955Z" fill="#F9F2F2"/>
<path d="M153.184 66.6631C145.917 64.613 137.99 66.0202 130.634 68.4268C127.288 69.525 123.951 70.8548 120.635 72.1374C118.988 72.7552 117.319 73.4201 115.625 74.0164C114.068 74.5612 112.039 74.8915 110.679 75.7537C111.271 77.3322 117.054 76.886 118.585 76.8988C121.463 76.9545 124.354 76.7313 127.241 76.3924C133.126 75.5944 138.887 73.9428 144.386 71.4891C147.444 70.1464 150.4 68.5291 153.184 66.6631Z" fill="#F9F2F2"/>
</g>
</svg>
