<svg width="251" height="161" viewBox="0 0 251 161" fill="none" xmlns="http://www.w3.org/2000/svg">
<g opacity="0.86">
<path d="M52.5017 24.1419C52.9579 19.4933 53.4142 14.8446 53.3751 10.196C53.3126 2.65928 51.8479 -4.85433 49.1411 -11.9409C48.493 -13.6935 45.9706 -13.5253 45.628 -11.7725C44.9734 -8.21357 44.3493 -4.60128 43.7785 -1.01948C43.2 2.42515 42.7054 5.89263 42.4623 9.42864C41.4591 22.5287 43.6566 35.7804 47.0657 48.5518C47.9351 51.8056 48.5761 55.8978 50.1999 58.8618C50.9836 53.1767 50.7309 47.1641 51.0726 41.4486C51.4905 35.6188 51.9694 29.8956 52.5017 24.1419Z" fill="#F9F2F2"/>
<path d="M60.7999 25.9079C59.6743 36.8132 60.1872 47.9849 63.6644 58.5235C64.5947 61.3886 65.7689 64.1851 66.9431 66.9816C68.2163 70.0753 69.5201 73.2224 70.8468 76.2856C71.2655 74.4184 71.0441 72.4219 70.9903 70.471C70.7299 64.3213 71.9861 58.2245 72.8612 52.2041C74.6342 40.0793 75.0432 27.6729 73.9432 15.3506C73.6758 12.0357 73.3017 8.78181 72.5695 5.52035C72.0431 2.99042 71.2266 -2.27524 69.1687 -4.14186C66.3028 -6.67892 65.6489 0.347402 65.2682 1.9097C64.3469 5.62113 63.456 9.38589 62.7024 13.143C61.8955 17.4259 61.2486 21.6174 60.7999 25.9079Z" fill="#F9F2F2"/>
<path d="M101.853 -11.7161C109.396 -16.5948 117.168 -21.3212 125.604 -24.516C135.441 -28.2293 145.95 -29.7785 156.428 -31.381C141.371 -23.5515 128.426 -12.3999 114.071 -3.34358C109.179 -0.263841 104.081 2.57972 98.4423 4.10501C95.3789 4.9363 92.2089 5.33322 88.9625 5.34914C85.9066 5.32692 83.2088 4.8169 85.5858 1.54717C89.654 -3.96337 96.1993 -7.98841 101.853 -11.7161Z" fill="#F9F2F2"/>
<path d="M92.2136 74.0493C93.3995 60.2786 94.5245 46.4013 93.0356 32.5321C92.4248 27.0073 91.4329 21.5588 90.4106 16.0569C89.579 11.5076 88.656 6.79823 85.9423 3.04185C84.4496 7.85838 84.405 12.9794 84.1088 18.0319C83.3948 28.9143 81.1565 39.6065 81.5703 50.481C81.8001 56.0821 82.7767 61.7516 84.4011 67.1924C85.9186 72.1988 87.9928 78.7978 91.4381 82.8436C92.0015 80.1153 91.9627 76.9528 92.2136 74.0493Z" fill="#F9F2F2"/>
<path d="M105.547 56.5176C106.927 61.0363 108.551 65.4864 110.229 69.906C112.974 77.1831 115.879 84.3688 118.921 91.5467C119.111 92.0039 119.82 91.8818 119.79 91.3332C119.156 86.3875 119.589 81.3274 119.779 76.3358C120.309 59.1894 117.028 41.8151 110.243 25.737C108.687 22.0261 106.888 18.3839 104.372 15.2218C103.275 13.797 101.994 12.0522 101.263 14.2394C100.722 15.8932 100.944 18.3851 100.876 20.1226C100.595 27.9262 101.146 35.821 102.458 43.5633C103.251 47.9221 104.235 52.2427 105.547 56.5176Z" fill="#F9F2F2"/>
<path d="M140.092 -0.528393C153.953 -2.64981 168.173 -3.27767 181.79 -6.32113C172.365 -0.154102 161.796 4.26044 151.052 7.99677C137.176 12.8159 122.606 16.5454 107.769 15.9693C105.673 15.8936 100.072 15.628 103.241 12.7544C105.496 10.7573 108.522 9.24019 111.227 7.90602C116.873 5.03187 123.007 3.01114 129.256 1.56192C132.761 0.761025 136.411 0.0896436 140.092 -0.528393Z" fill="#F9F2F2"/>
<path d="M148.669 13.6055C164.282 9.3499 180.087 5.05621 196.387 4.22978C191.297 7.2105 186.26 10.1607 181.14 13.0881C177.917 15.0015 174.61 16.8921 171.234 18.5389C162.045 23.0141 151.902 25.6987 141.538 26.3867C136.303 26.7612 131.037 26.587 125.771 25.9175C123.859 25.6664 120.925 25.3622 122.799 22.9461C124.239 21.1321 127.767 20.2474 129.839 19.4163C135.958 17.1212 142.298 15.3367 148.669 13.6055Z" fill="#F9F2F2"/>
<path d="M212.457 15.9928C199.8 21.9547 187.144 27.9167 173.755 32.1032C167.019 34.185 160.092 35.8097 153.013 36.1769C149.393 36.4063 145.751 36.2242 142.169 35.6534C141.391 35.5316 138.076 35.3037 137.985 34.153C137.962 33.2461 141.604 32.4376 142.412 32.1174C156.821 26.9933 171.543 22.5398 186.624 19.5799C195.227 17.9168 203.8 16.6957 212.457 15.9928Z" fill="#F9F2F2"/>
<path d="M220.059 42.2897C207.935 44.9747 195.78 47.6063 183.344 48.6301C177.126 49.1419 170.77 49.1661 164.605 48.1615C161.465 47.6211 158.31 46.8063 155.299 45.6258C154.682 45.4125 151.801 44.5825 151.992 43.5537C152.167 42.7458 155.444 42.7833 156.236 42.684C169.74 41.0504 183.334 40.0721 196.975 40.4122C204.718 40.5859 212.43 41.2015 220.059 42.2897Z" fill="#F9F2F2"/>
<path d="M121.08 31.5735C120.906 34.3627 120.708 37.2357 120.533 40.0249C120.298 43.2027 120.146 46.4034 120.132 49.5964C120.287 65.2186 126.166 80.329 132.235 94.906C133.308 88.4892 132.667 81.9204 132.498 75.4353C132.199 66.6183 132.7 57.8393 131.905 49.0224C131.386 43.1623 130.257 37.2261 128.076 31.6787C127.367 29.8194 126.162 25.4836 123.746 25.0954C120.888 24.6769 121.225 29.7217 121.08 31.5735Z" fill="#F9F2F2"/>
<path d="M137.54 37.5895C135.609 61.1986 138.914 85.4238 147.248 108.048C148.1 98.1482 148.09 88.1043 147.562 78.1443C147.049 68.4586 146.072 58.8264 143.891 49.3163C143.12 45.8643 142.182 42.3667 141.084 38.9605C140.817 38.1223 140.153 34.6093 139.315 34.3809C137.859 33.9392 137.601 36.7055 137.54 37.5895Z" fill="#F9F2F2"/>
<path d="M152.051 47.1276C156.818 66.9783 166.051 85.9745 178.765 102.272C176.759 93.9358 174.044 85.7214 170.956 77.7204C167.937 69.9632 164.537 62.2824 160.283 55.0894C158.705 52.453 157.02 49.8776 155.229 47.3632C154.81 46.7536 153.338 44.0563 152.622 44.0412C151.357 44.0567 151.898 46.3656 152.051 47.1276Z" fill="#F9F2F2"/>
<path d="M172.812 58.6837C168.422 54.9658 163.62 51.7661 159.001 48.3912C154.101 44.8943 149.284 41.4204 144.413 37.9769C134.703 31.1432 124.978 24.5306 114.59 18.863C94.6064 7.924 74.3105 -2.69488 53.6339 -12.2468C41.6303 -17.7692 29.3296 -22.6972 16.7928 -26.924C15.2229 -27.4419 14.5527 -25.1479 16.0694 -24.5996C37.8201 -17.0064 58.7331 -7.16492 79.2423 3.33199C99.6677 13.806 120.063 24.2268 138.934 37.4293C144.231 41.1242 149.528 44.8191 154.825 48.514C160.351 52.3612 165.839 56.5133 171.722 59.8728C172.553 60.4594 173.62 59.3542 172.812 58.6837Z" fill="#F9F2F2"/>
<path d="M202.976 98.6936C201.382 89.8388 195.855 82.0289 189.567 75.3621C186.67 72.2764 183.568 69.4498 180.542 66.5089C179.002 65.0537 177.463 63.5985 175.976 62.1128C174.604 60.7032 173.202 58.745 171.601 57.6785C170.222 59.1038 173.668 65.131 174.392 66.7693C175.833 69.9087 177.487 72.9261 179.408 75.791C183.258 81.6581 187.992 87.0906 193.312 91.6923C196.292 94.3056 199.531 96.6292 202.976 98.6936Z" fill="#F9F2F2"/>
<path d="M222.449 64.4186C214.098 67.6362 204.587 66.8457 195.64 64.8128C191.57 63.884 187.486 62.6808 183.431 61.5309C181.419 60.9826 179.377 60.381 177.311 59.8633C175.414 59.3912 172.983 59.224 171.283 58.3556C171.809 56.4275 178.682 56.3194 180.488 56.1361C183.88 55.7544 187.316 55.7003 190.761 55.7834C197.795 56.0792 204.776 57.3961 211.536 59.6885C215.293 60.9375 218.959 62.5218 222.449 64.4186Z" fill="#F9F2F2"/>
</g>
</svg>
