<svg width="21" height="18" viewBox="0 0 21 18" fill="none" xmlns="http://www.w3.org/2000/svg">
<path fill-rule="evenodd" clip-rule="evenodd" d="M10.3986 2.3192C12.1248 0.299103 15.3223 -0.524627 17.9116 1.24051C19.2848 2.18191 20.1479 3.77054 20.2067 5.43761C20.3342 9.24246 16.9701 12.2922 11.8208 16.96L11.7129 17.0581C10.9675 17.7445 9.81992 17.7445 9.0745 17.0679L8.97642 16.9796L8.91717 16.9258C3.80129 12.2786 0.45368 9.23765 0.590466 5.44742C0.649315 3.77054 1.51243 2.18191 2.88557 1.24051C5.47492 -0.534433 8.67237 0.299103 10.3986 2.3192ZM10.398 15.3347L10.492 15.2407C14.9656 11.1908 17.9167 8.51281 17.9167 5.79721C17.9167 3.91791 16.5069 2.50843 14.6273 2.50843C13.1799 2.50843 11.7702 3.43869 11.2815 4.72601H9.52401C9.0259 3.43869 7.61616 2.50843 6.16882 2.50843C4.28917 2.50843 2.87943 3.91791 2.87943 5.79721C2.87943 8.51281 5.83049 11.1908 10.3041 15.2407L10.398 15.3347Z" fill="url(#paint0_linear)"/>
<defs>
<linearGradient id="paint0_linear" x1="0.926468" y1="12.4316" x2="19.8544" y2="12.5016" gradientUnits="userSpaceOnUse">
<stop stop-color="#FE4C4C"/>
<stop offset="0.984375" stop-color="#FF7E21"/>
</linearGradient>
</defs>
</svg>
