<svg width="26" height="26" viewBox="0 0 26 26" fill="none" xmlns="http://www.w3.org/2000/svg">
<path fill-rule="evenodd" clip-rule="evenodd" d="M13.2588 25.6294C20.1623 25.6294 25.7588 19.9855 25.7588 13.0234C25.7588 6.06136 20.1623 0.41748 13.2588 0.41748C6.35523 0.41748 0.758789 6.06136 0.758789 13.0234C0.758789 19.9855 6.35523 25.6294 13.2588 25.6294Z" fill="#0971BD"/>
<path fill-rule="evenodd" clip-rule="evenodd" d="M13.4328 12.316C12.4563 12.316 7.42529 9.43883 7.42529 9.43883V8.98956C7.42529 8.43288 7.87329 7.98108 8.42629 7.98108H18.4393C18.9928 7.98108 19.4408 8.43288 19.4408 8.98956L19.4328 9.49379C19.4328 9.49379 14.4563 12.316 13.4328 12.316ZM13.4328 13.7026C14.5033 13.7026 19.4328 11.0065 19.4328 11.0065L19.4408 17.0573C19.4408 17.614 18.9928 18.0658 18.4393 18.0658H8.42629C7.87379 18.0658 7.42529 17.614 7.42529 17.0573L7.43329 11.0065C7.43279 11.0065 12.4563 13.7026 13.4328 13.7026Z" fill="white"/>
</svg>
