<svg width="8" height="14" viewBox="0 0 8 14" fill="none" xmlns="http://www.w3.org/2000/svg">
<path d="M7.30144 1.10506C6.95844 0.762061 6.40545 0.762061 6.06245 1.10506L0.245492 6.92202C-0.027506 7.19501 -0.027506 7.63601 0.245492 7.90901L6.06245 13.726C6.40545 14.069 6.95844 14.069 7.30144 13.726C7.64444 13.383 7.64444 12.83 7.30144 12.487L2.23348 7.41201L7.30844 2.33705C7.64444 2.00105 7.64444 1.44106 7.30144 1.10506Z" fill="white"/>
<path d="M7.30144 1.10506C6.95844 0.762061 6.40545 0.762061 6.06245 1.10506L0.245492 6.92202C-0.027506 7.19501 -0.027506 7.63601 0.245492 7.90901L6.06245 13.726C6.40545 14.069 6.95844 14.069 7.30144 13.726C7.64444 13.383 7.64444 12.83 7.30144 12.487L2.23348 7.41201L7.30844 2.33705C7.64444 2.00105 7.64444 1.44106 7.30144 1.10506Z" fill="#FE674C" fill-opacity="0.5"/>
</svg>
