<svg width="8" height="13" viewBox="0 0 8 13" fill="none" xmlns="http://www.w3.org/2000/svg">
<path d="M0.731149 11.9059C1.06295 12.2226 1.5979 12.2226 1.9297 11.9059L7.55678 6.53457C7.82087 6.28249 7.82087 5.87528 7.55678 5.62319L1.9297 0.251883C1.5979 -0.0648367 1.06295 -0.0648367 0.73115 0.251883C0.399348 0.568603 0.399348 1.07923 0.73115 1.39595L5.63369 6.08211L0.724378 10.7683C0.399348 11.0785 0.399348 11.5956 0.731149 11.9059Z" fill="white"/>
<path d="M0.731149 11.9059C1.06295 12.2226 1.5979 12.2226 1.9297 11.9059L7.55678 6.53457C7.82087 6.28249 7.82087 5.87528 7.55678 5.62319L1.9297 0.251883C1.5979 -0.0648367 1.06295 -0.0648367 0.73115 0.251883C0.399348 0.568603 0.399348 1.07923 0.73115 1.39595L5.63369 6.08211L0.724378 10.7683C0.399348 11.0785 0.399348 11.5956 0.731149 11.9059Z" fill="white"/>
</svg>
