<svg width="21" height="14" viewBox="0 0 21 14" fill="none" xmlns="http://www.w3.org/2000/svg">
<path d="M10.1401 0.854248C4.62014 0.854248 0.140137 3.09425 0.140137 5.85425C0.140137 8.09425 3.08014 9.98425 7.14014 10.6242V12.6442C7.14014 13.0942 7.68014 13.3142 7.99014 12.9942L10.7801 10.2042C10.9801 10.0042 10.9801 9.69425 10.7801 9.49425L7.99014 6.70425C7.68014 6.39425 7.14014 6.61425 7.14014 7.06425V8.58425C3.99014 8.02425 2.14014 6.68425 2.14014 5.85425C2.14014 4.79425 5.18014 2.85425 10.1401 2.85425C15.1001 2.85425 18.1401 4.79425 18.1401 5.85425C18.1401 6.51425 16.9401 7.53425 14.8201 8.19425C14.4101 8.32425 14.1401 8.70425 14.1401 9.13425C14.1401 9.80425 14.7901 10.2942 15.4201 10.0942C18.2501 9.21425 20.1401 7.64425 20.1401 5.85425C20.1401 3.09425 15.6601 0.854248 10.1401 0.854248Z" fill="url(#paint0_linear)"/>
<defs>
<linearGradient id="paint0_linear" x1="0.486697" y1="9.49312" x2="19.7772" y2="9.59548" gradientUnits="userSpaceOnUse">
<stop stop-color="#FE4C4C"/>
<stop offset="0.984375" stop-color="#FF7E21"/>
</linearGradient>
</defs>
</svg>
