<svg width="26" height="26" viewBox="0 0 26 26" fill="none" xmlns="http://www.w3.org/2000/svg">
<path fill-rule="evenodd" clip-rule="evenodd" d="M13.3857 0.483887C20.2893 0.483887 25.8857 6.08033 25.8857 12.9839C25.8857 19.8874 20.2893 25.4839 13.3857 25.4839C6.48218 25.4839 0.885742 19.8874 0.885742 12.9839C0.885742 6.08033 6.48218 0.483887 13.3857 0.483887Z" fill="#7F4DA0"/>
<path fill-rule="evenodd" clip-rule="evenodd" d="M16.716 11.3996C16.6552 10.9057 16.5034 10.5179 16.2338 10.1744C15.8837 9.73206 15.4363 9.46719 14.774 9.31006C14.3423 9.20534 14.1679 9.21736 14.0118 9.35996C13.8664 9.49356 13.838 9.76139 13.9491 9.93483C14.0273 10.0607 14.1174 10.1058 14.3682 10.155C14.7021 10.2165 14.9329 10.2962 15.1428 10.4162C15.5883 10.6735 15.7958 11.0761 15.818 11.7278C15.8284 12.0338 15.8548 12.1279 15.9617 12.2364C16.1598 12.4348 16.5124 12.3962 16.6619 12.1588C16.7168 12.0693 16.7252 12.0304 16.731 11.8226C16.7348 11.6939 16.7293 11.5025 16.716 11.3996Z" fill="white"/>
<path fill-rule="evenodd" clip-rule="evenodd" d="M18.461 11.9567C18.373 10.4435 17.7811 9.22603 16.7219 8.36946C16.1251 7.88815 15.4037 7.55719 14.6129 7.39623C14.3232 7.33867 13.7899 7.29201 13.6984 7.3187C13.6121 7.34341 13.49 7.4369 13.4355 7.52144C13.378 7.61312 13.365 7.81781 13.4141 7.93621C13.4934 8.13414 13.6408 8.20407 14.0537 8.24019C14.6902 8.29588 15.3467 8.5195 15.8427 8.85057C16.4091 9.22751 16.8592 9.74308 17.1505 10.3489C17.4021 10.8695 17.5569 11.6196 17.5526 12.2914C17.5511 12.5343 17.5887 12.6716 17.6864 12.7719C17.8339 12.9261 18.0488 12.9598 18.2386 12.8574C18.4488 12.7468 18.498 12.5527 18.461 11.9567Z" fill="white"/>
<path fill-rule="evenodd" clip-rule="evenodd" d="M20.392 17.7842C20.3624 17.6977 20.2933 17.5642 20.244 17.4876C19.9331 17.0182 18.263 15.7112 17.4291 15.2837C16.953 15.0391 16.6002 14.9576 16.3387 15.0342C16.0575 15.1133 15.9094 15.2442 15.4382 15.8298C15.2483 16.0645 15.0534 16.2844 15.0016 16.319C14.8733 16.4079 14.6217 16.4796 14.444 16.4796C14.032 16.4771 13.2845 16.2103 12.7097 15.8594C12.2632 15.5877 11.6909 15.1009 11.2517 14.6191C10.7336 14.0533 10.3809 13.5542 10.1021 12.9909C9.74189 12.267 9.65061 11.8247 9.80108 11.501C9.83809 11.4195 9.88744 11.333 9.90961 11.3058C9.93183 11.2811 10.1637 11.0909 10.4203 10.8833C10.9236 10.4831 11.005 10.3916 11.0987 10.1174C11.2171 9.76898 11.1851 9.4132 11.0025 9.05496C10.8619 8.78316 10.4943 8.19018 10.2279 7.80722C9.8751 7.30321 8.99684 6.22595 8.82165 6.08014C8.50588 5.8232 8.10132 5.7787 7.65475 5.95169C7.18359 6.13453 6.30037 6.8461 5.9229 7.34273C5.58245 7.7924 5.45174 8.11111 5.43199 8.53115C5.41473 8.87704 5.44432 9.02035 5.62689 9.46263C7.0553 12.9316 9.18677 15.7013 12.1152 17.9003C13.6447 19.0492 15.231 19.9238 16.8765 20.5218C17.8362 20.8701 18.2531 20.8874 18.744 20.6008C18.9513 20.4773 19.4644 19.951 19.7506 19.5681C20.2243 18.9306 20.3994 18.6366 20.4487 18.4018C20.4833 18.2413 20.4562 17.9621 20.392 17.7842Z" fill="white"/>
<path fill-rule="evenodd" clip-rule="evenodd" d="M20.2376 12.3042C20.206 11.4483 20.0619 10.7462 19.7614 9.9634C19.4647 9.19341 19.1645 8.69095 18.5974 8.01135C18.0613 7.37415 17.6448 7.01033 16.9844 6.60533C16.063 6.04107 14.9417 5.66766 13.685 5.51061C13.2564 5.45573 13.1595 5.45965 13.028 5.54738C12.7732 5.71357 12.7766 6.12809 13.0322 6.29179C13.1168 6.34386 13.1919 6.36283 13.5347 6.4077C14.0609 6.47855 14.3993 6.54532 14.8008 6.65487C16.3753 7.08527 17.5861 7.96504 18.3956 9.27101C19.073 10.3595 19.3542 11.4482 19.3142 12.8385C19.3003 13.3085 19.3104 13.3913 19.3823 13.5042C19.5199 13.7147 19.8827 13.7563 20.0689 13.5817C20.1847 13.4752 20.2066 13.3953 20.2294 12.993C20.2403 12.7831 20.2426 12.4733 20.2376 12.3042Z" fill="white"/>
</svg>
