<svg width="167" height="110" viewBox="0 0 167 110" fill="none" xmlns="http://www.w3.org/2000/svg">
<g opacity="0.52">
<path d="M-5.15359 72.0775C-3.02911 63.1717 0.527054 54.4692 6.18516 46.9867C5.21162 52.2901 4.17887 57.5826 3.20534 62.886C2.45402 66.9789 1.6435 71.0609 1.37647 75.183C1.1243 78.8908 1.30777 82.5594 1.36225 86.2638C1.44622 90.808 1.48155 95.2836 1.31809 99.8419C1.23927 103.939 1.02088 108.13 -0.0857137 112.157C-0.436941 113.404 -1.13534 117.208 -2.47833 117.856C-4.57847 118.96 -4.90154 115.385 -5.17419 114.203C-7.3047 105.469 -8.0965 96.4452 -7.5433 87.4297C-7.14501 82.2591 -6.39145 77.1536 -5.15359 72.0775Z" fill="#F9F2F2"/>
<path d="M12.0336 87.8052C13.1049 79.302 14.4341 70.727 17.3304 62.6183C20.7175 53.1697 26.1516 44.5735 31.5265 35.9664C27.9545 51.7571 28.2039 68.0705 25.9939 84.1111C25.236 89.5733 24.1715 95.0388 21.7769 100.081C20.478 102.822 18.7859 105.372 16.7596 107.741C14.8242 109.948 12.7473 111.593 11.7834 107.841C10.1982 101.472 11.2841 94.2224 12.0336 87.8052Z" fill="#F9F2F2"/>
<path d="M70.4085 147.919C60.8087 138.53 51.0904 129.118 39.7371 121.612C35.2033 118.634 30.4877 115.981 25.7129 113.317C21.7733 111.104 17.6561 108.859 13.1305 108.505C15.8115 112.572 19.6304 115.776 23.2399 119.12C30.9663 126.378 37.593 134.626 46.0217 141.059C50.3735 144.361 55.2456 147.162 60.3525 149.351C65.0661 151.348 71.3255 153.927 76.5279 153.929C74.8321 151.83 72.4321 149.9 70.4085 147.919Z" fill="#F9F2F2"/>
<path d="M65.6109 127.375C69.872 129.17 74.2346 130.746 78.6078 132.264C85.7977 134.775 93.0194 137.114 100.322 139.348C100.785 139.493 101.138 138.902 100.707 138.585C96.5936 135.982 93.0645 132.534 89.4338 129.305C76.8861 118.302 61.775 109.927 45.4368 104.901C41.6726 103.734 37.8069 102.786 33.8522 102.656C32.0927 102.571 29.9779 102.421 31.162 104.307C32.0648 105.724 34.0758 107.106 35.3381 108.232C41.0241 113.268 47.3002 117.757 53.9402 121.598C57.7127 123.72 61.5761 125.681 65.6109 127.375Z" fill="#F9F2F2"/>
<path d="M44.4487 66.9408C51.5581 55.5536 60.0145 44.8307 66.278 33.0499C64.9929 43.7186 61.6734 54.1331 57.7342 64.255C52.6421 77.3235 46.2959 90.2214 36.5474 100.647C35.1747 102.124 31.4585 106.03 31.2899 101.947C31.2057 99.071 31.9653 95.9331 32.6615 93.1411C34.0475 87.2579 36.3809 81.5487 39.2154 76.1102C40.8146 73.0668 42.6021 69.9984 44.4487 66.9408Z" fill="#F9F2F2"/>
<path d="M60.451 69.4608C67.0574 55.4785 73.7548 41.3342 83.3682 28.9765C82.4116 34.5213 81.4655 40.0086 80.4496 45.5426C79.8633 49.0698 79.2073 52.6439 78.3249 56.1168C75.917 65.5664 71.5656 74.5997 65.5754 82.5575C62.5697 86.5941 59.1327 90.3131 55.3235 93.7254C53.9339 94.96 51.8632 96.9039 51.225 94.0456C50.7663 91.8759 52.3169 88.764 52.9939 86.7431C55.1116 80.8751 57.7517 75.1625 60.451 69.4608Z" fill="#F9F2F2"/>
<path d="M102.292 24.5854C98.8241 37.4753 95.3561 50.3653 90.095 62.6877C87.4295 68.8723 84.3009 74.9122 80.1319 80.2845C78.0315 83.0572 75.6076 85.5916 72.9299 87.8412C72.3504 88.3307 70.0978 90.5986 69.1759 89.9527C68.4802 89.4079 70.1598 86.2601 70.4263 85.4748C75.6243 71.8298 81.5222 58.3729 88.7671 45.5804C92.9194 38.2983 97.3847 31.3119 102.292 24.5854Z" fill="#F9F2F2"/>
<path d="M126.821 35.3434C121.226 45.8169 115.572 56.2795 108.533 65.9515C105.013 70.7875 101.041 75.4213 96.4151 79.2797C94.0378 81.2268 91.4448 83.0152 88.6679 84.4718C88.1201 84.7884 85.6879 86.3679 85.0345 85.5925C84.5376 84.965 86.6231 82.6068 87.0462 81.9694C94.2972 71.1444 102.098 60.6588 110.918 50.9561C115.91 45.4368 121.214 40.2134 126.821 35.3434Z" fill="#F9F2F2"/>
<path d="M56.6251 100.639C58.6107 102.493 60.6448 104.416 62.6304 106.27C64.8697 108.409 67.1787 110.501 69.5682 112.489C81.4013 122.05 96.4431 127.135 111.204 131.752C107.057 126.998 101.72 123.397 96.7423 119.504C89.9313 114.261 83.6511 108.46 76.5292 103.577C71.801 100.326 66.6328 97.4704 61.0965 95.6199C59.2546 94.9839 55.241 93.1745 53.4326 94.6898C51.3239 96.5075 55.3247 99.3871 56.6251 100.639Z" fill="#F9F2F2"/>
<path d="M71.4799 92.4004C88.0027 108.424 108.275 121.024 130.503 128.977C123.601 122.228 116.05 116.015 108.237 110.231C100.639 104.606 92.7897 99.3512 84.2761 95.0473C81.1993 93.4695 77.9829 91.9852 74.7348 90.6739C73.9375 90.3488 70.8819 88.6557 70.1839 89.1235C68.9382 89.9078 70.854 91.8088 71.4799 92.4004Z" fill="#F9F2F2"/>
<path d="M87.7556 87.7616C105.66 96.59 125.727 101.644 145.953 102.497C138.431 98.792 130.556 95.6779 122.607 92.9674C114.884 90.3579 106.979 88.0726 98.905 86.7097C95.9338 86.2238 92.9414 85.8533 89.9278 85.598C89.2067 85.5252 86.2566 84.9241 85.7955 85.4354C85.0129 86.3643 87.0874 87.4006 87.7556 87.7616Z" fill="#F9F2F2"/>
<path d="M109.473 79.8306C103.924 80.7187 98.5053 82.2268 93.0701 83.4934C87.3663 84.8895 81.7323 86.2388 76.0877 87.6458C64.8578 90.4705 53.7843 93.4432 43.0046 97.4828C22.2405 105.231 1.52073 113.405 -18.6366 122.516C-30.3216 127.82 -41.7465 133.707 -52.793 140.201C-54.1677 141.021 -52.8653 142.929 -51.5011 142.166C-32.1408 131.061 -11.6175 121.958 9.14455 113.553C29.8369 105.196 50.47 96.8272 72.2362 91.2887C78.3376 89.7272 84.439 88.1658 90.5404 86.6043C96.8998 84.9711 103.464 83.5542 109.682 81.3587C110.644 81.1182 110.484 79.6586 109.473 79.8306Z" fill="#F9F2F2"/>
<path d="M158.467 82.6867C150.814 78.3621 141.477 77.542 132.521 77.9835C128.384 78.1775 124.313 78.6816 120.204 79.0595C118.145 79.2772 116.085 79.495 114.035 79.6551C112.115 79.7793 109.764 79.586 107.957 80.0887C108.162 81.9735 114.853 83.2018 116.539 83.6899C119.802 84.5869 123.107 85.2532 126.465 85.6313C133.29 86.4669 140.343 86.3911 147.14 85.3744C150.974 84.8269 154.753 83.9118 158.467 82.6867Z" fill="#F9F2F2"/>
<path d="M144.943 47.3106C142.117 55.3725 135.552 61.7946 128.407 67.0378C125.154 69.4201 121.686 71.6436 118.276 73.878C116.601 75.0006 114.867 76.1124 113.181 77.2927C111.635 78.3794 109.983 80.0426 108.264 80.74C107.145 79.1641 111.38 74.1018 112.376 72.6758C114.219 69.975 116.336 67.4438 118.561 64.992C123.199 60.0634 128.572 55.8058 134.538 52.3127C137.835 50.3557 141.327 48.6727 144.943 47.3106Z" fill="#F9F2F2"/>
</g>
</svg>
