<svg width="170" height="151" viewBox="0 0 170 151" fill="none" xmlns="http://www.w3.org/2000/svg">
<g opacity="0.52">
<path d="M213.81 119.946C210.991 108.008 206.343 96.3901 198.795 86.531C196.759 83.845 194.49 81.3212 192.222 78.7974C189.739 75.996 187.204 73.1494 184.677 70.3998C184.92 72.5269 185.888 74.5555 186.662 76.5974C189.197 83.0008 190.111 89.9055 191.399 96.5895C193.981 110.055 198.109 123.316 203.8 135.934C205.301 139.339 206.893 142.64 208.865 145.818C210.351 148.298 213.15 153.563 216.01 154.779C219.972 156.407 218.08 148.741 217.908 146.95C217.518 142.689 217.076 138.383 216.491 134.136C215.77 129.313 214.913 124.645 213.81 119.946Z" fill="#F9F2F2"/>
<path d="M191.726 200.543C184.266 208.267 175.517 214.96 165.431 219.21C169.586 214.442 173.793 209.719 177.947 204.95C181.154 201.27 184.412 197.636 187.158 193.646C189.641 190.065 191.67 186.271 193.848 182.516C196.502 177.899 199.164 173.38 202.071 168.892C204.617 164.819 207.357 160.733 210.874 157.324C211.971 156.274 214.952 152.853 216.666 152.979C219.402 153.083 217.566 156.864 217.123 158.21C213.962 168.221 209.307 177.75 203.33 186.492C199.822 191.46 196.004 196.156 191.726 200.543Z" fill="#F9F2F2"/>
<path d="M184.254 174.795C178.076 182.723 171.599 190.575 163.859 197.051C154.828 204.591 144.292 210.091 133.808 215.635C146.842 201.827 156.424 185.284 168.266 170.437C172.303 165.385 176.645 160.506 182.044 156.822C184.976 154.817 188.18 153.233 191.605 152.023C194.843 150.923 197.881 150.471 196.571 154.8C194.297 162.118 188.859 168.778 184.254 174.795Z" fill="#F9F2F2"/>
<path d="M162.917 80.6173C166.725 95.6061 170.637 110.685 177.308 124.795C179.984 130.409 183.035 135.802 186.137 141.241C188.688 145.743 191.394 150.381 195.643 153.353C195.45 147.714 193.615 142.286 192.071 136.838C188.826 125.075 187.261 112.953 182.827 101.612C180.526 95.7777 177.41 90.1451 173.694 84.9923C170.25 80.2593 165.632 74.0478 160.504 71.0385C160.912 74.1288 162.115 77.4567 162.917 80.6173Z" fill="#F9F2F2"/>
<path d="M155.271 104.043C152.152 99.775 148.8 95.6691 145.402 91.615C139.827 84.9334 134.116 78.4074 128.263 71.9398C127.893 71.5267 127.189 71.9162 127.423 72.4848C129.911 77.4785 131.312 82.9853 132.947 88.33C138.689 106.645 148.542 123.801 161.622 138.298C164.63 141.648 167.87 144.836 171.69 147.253C173.374 148.355 175.369 149.728 175.337 147.148C175.301 145.202 174.151 142.65 173.584 140.788C171.013 132.439 167.529 124.298 163.297 116.598C160.856 112.283 158.228 108.079 155.271 104.043Z" fill="#F9F2F2"/>
<path d="M139.727 177.029C125.858 184.365 111.062 190.255 97.7894 198.477C105.483 188.495 115.03 179.945 125.011 172.048C137.904 161.855 151.931 152.558 167.823 147.714C170.066 147.024 176.083 145.246 173.789 149.447C172.14 152.387 169.5 155.102 167.132 157.506C162.222 162.619 156.482 167.009 150.411 170.837C147.001 172.972 143.39 175.023 139.727 177.029Z" fill="#F9F2F2"/>
<path d="M125.469 165.244C110.532 175.479 95.4084 185.826 78.486 192.69C82.7695 187.669 87.0078 182.7 91.3432 177.725C94.0461 174.518 96.846 171.305 99.8081 168.324C107.875 160.217 117.607 153.652 128.306 149.116C133.701 146.796 139.33 145.044 145.141 143.816C147.255 143.379 150.468 142.622 149.375 145.864C148.52 148.31 145.117 150.542 143.232 152.182C137.609 156.856 131.565 161.073 125.469 165.244Z" fill="#F9F2F2"/>
<path d="M57.1846 186.165C68.3688 175.212 79.553 164.26 92.1633 154.915C98.5169 150.239 105.24 145.976 112.587 142.986C116.328 141.413 120.244 140.267 124.239 139.554C125.105 139.397 128.692 138.419 129.212 139.601C129.57 140.551 126.018 142.744 125.282 143.38C111.937 154.091 98.0158 164.208 83.1666 172.879C74.6859 177.799 66.0748 182.24 57.1846 186.165Z" fill="#F9F2F2"/>
<path d="M39.4854 161.168C51.311 153.875 63.1884 146.627 75.9551 140.974C82.3385 138.147 89.0462 135.786 95.9309 134.582C99.4477 133.999 103.081 133.7 106.697 133.841C107.427 133.84 110.777 133.658 110.954 134.815C111.066 135.733 107.589 136.898 106.788 137.294C93.1181 143.984 79.1105 150.014 64.5697 154.669C56.3236 157.331 47.947 159.515 39.4854 161.168Z" fill="#F9F2F2"/>
<path d="M148.023 136.115C147.183 133.103 146.335 129.994 145.495 126.982C144.576 123.537 143.56 120.099 142.402 116.719C136.495 100.267 124.729 86.4589 112.958 73.2846C114.182 80.4603 117.274 87.1665 119.836 93.9578C123.393 103.166 126.09 112.628 130.17 121.653C132.873 127.655 136.248 133.514 140.591 138.575C142.024 140.279 144.891 144.418 147.587 143.94C150.761 143.332 148.551 138.125 148.023 136.115Z" fill="#F9F2F2"/>
<path d="M128.415 135.807C121.778 110.147 109.381 85.7606 92.2587 64.9148C94.9973 75.6894 98.6992 86.3003 102.918 96.632C107.019 106.679 111.593 116.5 117.393 125.748C119.476 129.113 121.753 132.464 124.165 135.66C124.756 136.448 126.748 139.917 127.718 139.85C129.419 139.782 128.675 136.763 128.415 135.807Z" fill="#F9F2F2"/>
<path d="M109.574 131.061C97.24 111.835 80.5011 95.1527 61.0742 82.6023C66.2582 90.6751 72.1462 98.3584 78.3503 105.679C84.3922 112.767 90.8088 119.634 97.9479 125.672C100.585 127.878 103.312 129.981 106.129 131.98C106.796 132.47 109.342 134.78 110.105 134.532C111.436 134.051 110.015 131.81 109.574 131.061Z" fill="#F9F2F2"/>
<path d="M83.3851 126.478C89.3912 128.794 95.6416 130.41 101.763 132.28C108.228 134.174 114.595 136.075 121.007 137.924C133.781 141.577 146.489 144.99 159.55 147.162C184.689 151.377 210.041 155.14 235.403 157.635C250.118 159.059 264.928 159.746 279.731 159.605C281.58 159.575 281.445 156.905 279.641 156.883C253.864 156.852 228.146 154.138 202.614 150.583C177.178 147.022 151.795 143.505 126.999 136.488C120.043 134.531 113.087 132.573 106.131 130.615C98.8777 128.58 91.5522 126.209 84.0995 124.821C83.0059 124.507 82.2849 126.067 83.3851 126.478Z" fill="#F9F2F2"/>
<path d="M36.8052 95.2829C41.7449 104.055 50.4558 110.277 59.5517 115.011C63.7468 117.207 68.0641 119.054 72.3429 121.05C74.5048 122.022 76.6668 122.994 78.7836 124.018C80.7516 125.003 82.9536 126.557 85.0371 127.096C85.9706 125.083 80.1138 119.98 78.7463 118.515C76.0696 115.727 73.2123 113.146 70.1292 110.824C63.9045 106.039 56.9055 102.038 49.5918 99.1298C45.4819 97.4635 41.2046 96.1985 36.8052 95.2829Z" fill="#F9F2F2"/>
<path d="M28.8252 138.66C36.4685 132.19 46.8099 129.53 57.0123 128.39C61.6544 127.876 66.4135 127.646 71.1209 127.371C73.4486 127.211 75.8282 127.096 78.2011 126.884C80.38 126.685 83.0105 125.969 85.1258 126.262C85.2792 128.492 78.0547 131.133 76.2135 131.991C72.7701 133.64 69.1579 134.961 65.4871 136.139C57.945 138.412 50.0838 139.586 42.0973 139.648C37.6676 139.709 33.2112 139.382 28.8252 138.66Z" fill="#F9F2F2"/>
</g>
</svg>
