<svg width="92" height="75" viewBox="0 0 92 75" fill="none" xmlns="http://www.w3.org/2000/svg">
<g opacity="0.52">
<path d="M114.446 -6.14026C116.835 3.7196 118.17 13.9305 121.208 23.5573C116.178 17.1458 112.341 9.80151 108.981 2.28868C104.647 -7.41445 101.055 -17.6852 100.55 -28.4159C100.475 -29.9311 100.319 -33.985 102.586 -31.8786C104.166 -30.3768 105.447 -28.2904 106.576 -26.4233C108.998 -22.5317 110.835 -18.2355 112.268 -13.8213C113.062 -11.3444 113.773 -8.75495 114.446 -6.14026Z" fill="#F9F2F2"/>
<path d="M104.791 0.918146C108.827 11.9087 112.902 23.0342 114.508 34.7324C112.044 31.2484 109.605 27.8009 107.178 24.2916C105.599 22.087 104.031 19.8206 102.634 17.4896C98.8387 11.1433 96.2746 3.99902 95.1359 -3.42867C94.5412 -7.17908 94.3402 -10.9856 94.4962 -14.8229C94.5585 -16.2172 94.5958 -18.3509 96.4536 -17.1498C97.8505 -16.2244 98.707 -13.7362 99.4346 -12.2938C101.468 -8.02559 103.148 -3.56637 104.791 0.918146Z" fill="#F9F2F2"/>
<path d="M107.026 47.0427C101.944 38.2895 96.8616 29.5363 93.0136 20.1454C91.0952 15.419 89.4945 10.5269 88.7908 5.44672C88.4009 2.85181 88.3063 0.214835 88.4956 -2.40236C88.5351 -2.97021 88.4938 -5.37383 89.3176 -5.51129C89.9698 -5.58415 90.7785 -3.00877 91.0594 -2.44642C95.6466 7.62227 99.7698 17.9579 102.839 28.6445C104.571 34.7427 105.983 40.8464 107.026 47.0427Z" fill="#F9F2F2"/>
<path d="M88.543 54.1544C85.8557 45.5819 83.205 36.9842 81.6957 28.0833C80.9411 23.6328 80.5295 19.0532 80.8713 14.5469C81.0661 12.2502 81.4577 9.92545 82.1219 7.68232C82.2373 7.22413 82.657 5.09617 83.4104 5.16953C84.0035 5.24565 84.1798 7.60996 84.3004 8.17506C86.3155 17.8071 87.8638 27.5458 88.4646 37.3994C88.8197 42.991 88.8542 48.5882 88.543 54.1544Z" fill="#F9F2F2"/>
<path d="M90.1279 -17.855C88.1066 -17.808 86.0235 -17.7722 84.0022 -17.7251C81.697 -17.6978 79.3805 -17.6087 77.078 -17.4211C65.8271 -16.34 55.2999 -11.1655 45.1692 -5.88685C49.861 -5.51127 54.556 -6.38108 59.2201 -6.9051C65.5569 -7.66749 71.916 -7.85074 78.222 -8.97016C82.4138 -9.70802 86.6226 -10.89 90.486 -12.8059C91.7822 -13.4324 94.8328 -14.5698 94.9627 -16.3352C95.0872 -18.4211 91.4717 -17.8658 90.1279 -17.855Z" fill="#F9F2F2"/>
<path d="M86.8137 -5.6163C69.6764 -5.54373 52.4196 -1.65918 36.629 5.75119C43.8174 5.75096 51.0565 5.12103 58.2031 4.1228C65.1528 3.15261 72.0352 1.85066 78.7548 -0.311575C81.1952 -1.08098 83.6582 -1.97407 86.0453 -2.97682C86.6329 -3.22119 89.1239 -3.91748 89.2366 -4.53592C89.4647 -5.61254 87.4547 -5.62731 86.8137 -5.6163Z" fill="#F9F2F2"/>
<path d="M80.8377 5.43562C66.8249 10.1029 53.7048 17.9359 42.7458 28.1114C48.6304 26.1485 54.3831 23.6823 59.9587 20.9602C65.3629 18.3027 70.6884 15.3753 75.6093 11.863C77.4118 10.5621 79.1637 9.18802 80.865 7.74085C81.2784 7.40084 83.1314 6.17299 83.0979 5.65571C83.0083 4.74484 81.3776 5.27839 80.8377 5.43562Z" fill="#F9F2F2"/>
<path d="M73.7958 21.1169C76.2034 17.7218 78.2119 14.0623 80.3582 10.5238C82.5748 6.77436 84.7801 3.08681 86.9602 -0.637292C91.2837 -8.06021 95.447 -15.4804 98.8879 -23.3197C105.533 -38.4024 111.929 -53.6904 117.532 -69.1867C120.768 -78.1815 123.557 -87.3536 125.826 -96.6524C126.102 -97.8161 124.407 -98.1569 124.106 -97.0297C119.982 -80.8806 114.185 -65.196 107.891 -49.7618C101.608 -34.3894 95.3611 -19.0423 87.015 -4.62079C84.6802 -0.573453 82.3454 3.47389 80.0107 7.52123C77.5802 11.7428 74.9277 15.9559 72.8711 20.4054C72.4998 21.0406 73.3626 21.7409 73.7958 21.1169Z" fill="#F9F2F2"/>
<path d="M46.8261 45.34C53.1099 43.6414 58.3966 39.1735 62.812 34.2273C64.8566 31.9481 66.7016 29.5367 68.6338 27.1732C69.5872 25.9731 70.5407 24.773 71.5194 23.6095C72.4503 22.5332 73.7748 21.4007 74.4443 20.1809C73.3314 19.2753 69.2007 22.1328 68.0647 22.7565C65.8912 23.9899 63.8188 25.3694 61.8729 26.9318C57.8826 30.0705 54.2604 33.8194 51.2734 37.9396C49.5746 40.2498 48.1006 42.7288 46.8261 45.34Z" fill="#F9F2F2"/>
<path d="M72.7393 57.2493C69.902 51.4291 69.882 44.5246 70.7924 37.9495C71.2095 34.9585 71.8234 31.9394 72.4008 28.9457C72.6712 27.4614 72.9782 25.9519 73.2233 24.4311C73.4459 23.034 73.4156 21.2714 73.9362 19.9924C75.3586 20.2516 75.8628 25.1995 76.1069 26.49C76.5924 28.9106 76.8445 31.3846 76.9982 33.8726C77.2213 38.961 76.705 44.0745 75.4719 49.0893C74.8046 51.875 73.89 54.6156 72.7393 57.2493Z" fill="#F9F2F2"/>
</g>
</svg>
