<svg width="90" height="107" viewBox="0 0 90 107" fill="none" xmlns="http://www.w3.org/2000/svg">
<g opacity="0.86">
<path d="M1.71765 42.9645C1.96451 46.0836 2.37885 49.1932 2.83204 52.2907C3.5672 57.3884 4.4189 62.4498 5.36038 67.5258C5.41831 67.8487 5.89401 67.871 5.95262 67.5119C6.2496 64.2234 7.25279 61.0133 8.08851 57.8128C10.881 46.8013 11.2423 35.0981 9.15181 23.7322C8.6763 21.1104 8.0333 18.4982 6.85856 16.0942C6.35237 15.016 5.7736 13.7048 4.98833 15.0146C4.40239 16.0067 4.18959 17.6497 3.89721 18.7634C2.60096 23.7693 1.82879 28.9529 1.57116 34.1466C1.46142 37.0785 1.48033 40.0129 1.71765 42.9645Z" fill="#F9F2F2"/>
<path d="M32.2074 11.0129C41.4735 11.6217 50.7581 13.2475 59.9982 13.2252C53.0224 15.8662 45.5576 17.2106 38.0764 18.0914C28.4153 19.2249 18.4613 19.5547 8.94948 17.0622C7.6052 16.7138 4.02131 15.7418 6.4814 14.3365C8.22505 13.3674 10.3979 12.8186 12.3376 12.3424C16.3993 11.2907 20.6544 10.8605 24.9019 10.8163C27.283 10.7992 29.7391 10.8866 32.2074 11.0129Z" fill="#F9F2F2"/>
<path d="M35.7333 21.3778C46.4374 20.857 57.2702 20.3388 67.9283 22.1334C64.2112 23.3335 60.5329 24.5215 56.8037 25.6828C54.4462 26.4596 52.0377 27.2096 49.6197 27.7921C43.0382 29.3728 36.0963 29.6595 29.2966 28.6236C25.8578 28.1177 22.4777 27.2527 19.1683 26.0674C17.9673 25.6317 16.1136 25.0158 17.6707 23.7213C18.861 22.754 21.2687 22.6861 22.7277 22.4448C27.0122 21.8351 31.3667 21.587 35.7333 21.3778Z" fill="#F9F2F2"/>
<path d="M76.6365 32.0349C67.6007 34.0816 58.5649 36.1283 49.3094 36.9224C44.6563 37.3061 39.9452 37.3669 35.315 36.5928C32.9416 36.224 30.6122 35.5857 28.3777 34.7049C27.8925 34.5151 25.7815 33.894 25.8866 33.1369C26.0013 32.5472 28.4721 32.5448 29.0402 32.4532C39.0897 31.1987 49.2456 30.4225 59.4198 30.6633C65.2205 30.8172 70.9384 31.2525 76.6365 32.0349Z" fill="#F9F2F2"/>
<path d="M77.7957 50.1255C69.5726 50.1294 61.3374 50.0944 53.1494 48.9794C49.0554 48.4219 44.9423 47.5295 41.0993 45.999C39.1462 45.2009 37.2225 44.2233 35.4446 43.0298C35.0759 42.8037 33.3318 41.8554 33.6018 41.2173C33.8305 40.72 35.944 41.2124 36.4706 41.2614C45.4355 42.1345 54.3661 43.4444 63.1379 45.6133C68.1196 46.8319 73.0184 48.3319 77.7957 50.1255Z" fill="#F9F2F2"/>
<path d="M15.3259 29.0538C14.8145 30.8324 14.2762 32.6619 13.7647 34.4405C13.1584 36.4616 12.6029 38.5096 12.1373 40.5722C10.0058 50.696 11.648 61.3066 13.4896 71.5995C15.1004 67.6036 15.6241 63.2644 16.4414 59.0469C17.5079 53.303 19.0863 47.6979 19.8324 41.8833C20.3338 38.0198 20.4519 34.02 19.8345 30.1214C19.6416 28.8179 19.482 25.842 17.9753 25.2459C16.1872 24.5669 15.6839 27.877 15.3259 29.0538Z" fill="#F9F2F2"/>
<path d="M25.1107 35.2963C20.489 50.2864 19.1645 66.423 21.3209 82.2428C23.2859 75.9633 24.7147 69.4674 25.7965 62.9516C26.849 56.6155 27.5932 50.2474 27.5414 43.7864C27.5365 41.4442 27.4297 39.0485 27.2063 36.6891C27.1535 36.109 27.2263 33.7426 26.7168 33.4751C25.8387 32.9815 25.2763 34.7334 25.1107 35.2963Z" fill="#F9F2F2"/>
<path d="M33.1313 43.5373C33.3774 57.0542 36.6331 70.6566 42.5259 83.0118C42.42 77.3346 41.8383 71.6351 40.9847 66.0203C40.1407 60.573 39.0394 55.1206 37.3166 49.8617C36.6729 47.9315 35.9515 46.0255 35.1525 44.1437C34.9685 43.6896 34.4025 41.7352 33.9414 41.6231C33.1212 41.4524 33.1415 43.0228 33.1313 43.5373Z" fill="#F9F2F2"/>
<path d="M44.9042 53.9759C42.5966 50.9445 39.9489 48.1895 37.4446 45.3473C34.7753 42.3859 32.1569 39.4513 29.4997 36.5288C24.1974 30.7227 18.8537 25.0573 12.9464 19.9083C1.58774 9.97963 -10.0187 0.213379 -22.0238 -8.91737C-28.9965 -14.2034 -36.2462 -19.1474 -43.7487 -23.6718C-44.6899 -24.231 -45.451 -22.8434 -44.5486 -22.2722C-31.5692 -14.2545 -19.4526 -4.90275 -7.69083 4.81511C4.02002 14.5062 15.7188 24.1585 26.0349 35.3919C28.9322 38.5379 31.8294 41.6839 34.7267 44.83C37.75 48.1072 40.7052 51.5761 44.0298 54.5891C44.4831 55.0871 45.3308 54.5248 44.9042 53.9759Z" fill="#F9F2F2"/>
<path d="M58.6916 84.1567C58.9257 78.2032 56.468 72.3635 53.3544 67.1542C51.9224 64.7451 50.3204 62.4741 48.7839 60.1401C47.9962 58.9791 47.2086 57.8182 46.4598 56.6451C45.774 55.5377 45.1469 54.0711 44.2643 53.1527C43.169 53.8773 44.5359 58.2669 44.7701 59.4298C45.2533 61.6656 45.8919 63.8531 46.7247 65.9801C48.3756 70.3239 50.6602 74.513 53.4428 78.2487C54.9965 80.3643 56.759 82.3296 58.6916 84.1567Z" fill="#F9F2F2"/>
<path d="M76.179 64.7766C70.319 65.6639 64.2822 63.7938 58.7873 61.201C56.2886 60.0189 53.8191 58.6572 51.3618 57.3344C50.1392 56.6924 48.9045 56.0116 47.643 55.3817C46.4834 54.8053 44.9353 54.3499 43.9604 53.5455C44.5757 52.3738 49.0358 53.2861 50.2298 53.4256C52.4771 53.6633 54.7072 54.1194 56.9226 54.6653C61.4286 55.8615 65.7543 57.7105 69.7978 60.1587C72.0488 61.5031 74.1929 63.0514 76.179 64.7766Z" fill="#F9F2F2"/>
</g>
</svg>
