<svg width="78" height="126" viewBox="0 0 78 126" fill="none" xmlns="http://www.w3.org/2000/svg">
<path d="M-18.8841 69.0797C-19.6772 63.3514 -19.6115 57.4526 -17.9715 51.8333C-17.5335 50.3058 -16.9657 48.8101 -16.398 47.3144C-15.7834 45.6601 -15.1538 43.9772 -14.5105 42.3381C-14.2556 43.3147 -14.3357 44.3713 -14.3283 45.4007C-14.3529 48.6475 -13.5791 51.8385 -13.0075 54.9962C-11.8507 61.3555 -11.4078 67.8883 -11.762 74.4044C-11.8422 76.1568 -11.9798 77.879 -12.3061 79.6118C-12.5372 80.9551 -12.8712 83.746 -13.9219 84.7677C-15.3863 86.1577 -15.8597 82.4656 -16.089 81.649C-16.6427 79.7093 -17.1812 77.7409 -17.6474 75.7741C-18.1512 73.5311 -18.569 71.3333 -18.8841 69.0797Z" fill="#F9F2F2"/>
<path d="M-12.3364 101.095C-8.51813 104.973 -4.12169 108.24 0.513281 111.193C-1.64628 108.408 -3.84963 105.637 -5.7586 102.654C-6.95228 100.817 -8.02821 98.895 -9.26566 97.0714C-10.5589 95.1453 -12.0726 93.3594 -13.6905 91.7018C-14.7122 90.6511 -15.8366 89.6563 -17.1255 88.9044C-18.0416 88.3488 -20.135 87.2466 -21.2188 87.7748C-20.6185 90.2518 -18.9026 92.7667 -17.4675 94.8409C-16.0067 97.075 -14.2531 99.1703 -12.3364 101.095Z" fill="#F9F2F2"/>
<path d="M4.54461 100.753C9.13895 102.879 14.1243 104.332 19.282 104.484C16.6437 103.095 13.9904 101.734 11.3521 100.345C9.31607 99.2734 7.26493 98.2301 5.37836 96.9438C3.67742 95.7919 2.13952 94.4695 0.542748 93.1892C-1.4102 91.6116 -3.34957 90.0778 -5.39159 88.5998C-7.2042 87.2426 -9.10435 85.9125 -11.231 85.0126C-11.8921 84.7378 -13.7847 83.7413 -14.5168 84.0883C-15.7018 84.5999 -14.2514 85.9495 -13.8274 86.4658C-10.7336 90.3288 -7.06475 93.7255 -2.949 96.5517C-0.561341 98.1384 1.91691 99.5531 4.54461 100.753Z" fill="#F9F2F2"/>
<path d="M3.44632 88.1618C7.51232 90.5956 11.6961 92.9448 16.2014 94.4745C21.4554 96.2518 27.0236 96.876 32.5766 97.5289C24.4958 93.6772 17.4672 88.0355 9.73368 83.5243C7.09847 81.9904 4.35909 80.5847 1.35849 79.8839C-0.271621 79.5018 -1.95006 79.3506 -3.66174 79.4017C-5.27229 79.4694 -6.68514 79.7877 -5.3722 81.4678C-3.12661 84.2983 0.397576 86.3003 3.44632 88.1618Z" fill="#F9F2F2"/>
<path d="M-3.205 43.1261C-2.32757 50.3639 -1.48033 57.659 -2.0112 64.9977C-2.23199 67.9214 -2.65505 70.8118 -3.0932 73.731C-3.44826 76.1445 -3.84861 78.644 -5.21039 80.6739C-6.08548 78.1622 -6.20283 75.4633 -6.4515 72.8052C-7.02727 67.0814 -8.40304 61.4859 -8.3841 55.7456C-8.36556 52.7886 -7.95457 49.782 -7.19793 46.884C-6.48964 44.217 -5.51707 40.7002 -3.7749 38.5042C-3.42794 39.9322 -3.39044 41.6001 -3.205 43.1261Z" fill="#F9F2F2"/>
<path d="M4.14419 52.1232C4.78905 49.7158 5.56372 47.3401 6.36706 44.9795C7.68081 41.093 9.08059 37.2517 10.5528 33.412C10.6449 33.1675 11.0208 33.2188 11.0147 33.5086C10.7713 36.1274 11.0924 38.7871 11.2837 41.415C11.8771 50.4444 10.466 59.6636 7.18332 68.2638C6.43134 70.2485 5.54957 72.2016 4.28142 73.9146C3.72886 74.6858 3.08571 75.6291 2.66022 74.4894C2.34488 73.6275 2.41601 72.3098 2.34822 71.3951C2.0575 67.2864 2.20301 63.1145 2.75302 59.0089C3.09146 56.6966 3.53104 54.4008 4.14419 52.1232Z" fill="#F9F2F2"/>
<path d="M23.4015 81.5641C30.7476 82.4285 38.2554 82.499 45.4898 83.854C40.4081 80.7756 34.7557 78.642 29.0232 76.8691C21.6199 74.5828 13.8708 72.8836 6.0595 73.459C4.95611 73.5374 2.0082 73.78 3.73173 75.2368C4.95723 76.2483 6.57974 76.9926 8.03019 77.6464C11.0594 79.0582 14.3301 80.0111 17.6507 80.6606C19.5133 81.0186 21.4498 81.3057 23.4015 81.5641Z" fill="#F9F2F2"/>
<path d="M27.6636 73.9557C35.9727 75.9131 44.3828 77.8871 52.991 78.0242C50.2531 76.5461 47.5439 75.0831 44.791 73.6337C43.0568 72.684 41.2788 71.7479 39.4692 70.9416C34.5428 68.7508 29.1468 67.5213 23.6707 67.3485C20.904 67.2469 18.1311 67.4352 15.3673 67.8846C14.3636 68.052 12.8224 68.2661 13.8547 69.5055C14.647 70.4354 16.5231 70.8372 17.631 71.2373C20.8987 72.3351 24.2736 73.1598 27.6636 73.9557Z" fill="#F9F2F2"/>
<path d="M61.2454 71.5289C54.464 68.6178 47.6826 65.7067 40.5479 63.7449C36.9587 62.7708 33.2774 62.0413 29.5386 61.9773C27.6261 61.9227 25.7092 62.0855 23.8314 62.452C23.4239 62.5304 21.6805 62.7113 21.6532 63.3196C21.6577 63.7981 23.5927 64.1576 24.0243 64.3116C31.7144 66.7489 39.557 68.827 47.5613 70.1111C52.1271 70.8303 56.6689 71.317 61.2454 71.5289Z" fill="#F9F2F2"/>
<path d="M64.772 57.5266C58.3315 56.3332 51.8759 55.1686 45.301 54.8567C42.0135 54.7007 38.6626 54.8044 35.4308 55.4469C33.7855 55.7893 32.1372 56.2766 30.5718 56.9541C30.2503 57.0779 28.7469 57.5682 28.866 58.1071C28.9731 58.5297 30.6999 58.45 31.1195 58.4878C38.268 59.1016 45.4528 59.3683 52.6376 58.9392C56.7161 58.7058 60.7704 58.24 64.772 57.5266Z" fill="#F9F2F2"/>
<path d="M12.79 64.9891C12.6468 63.522 12.4901 62.011 12.3469 60.5439C12.1645 58.8729 12.0259 57.1884 11.9597 55.5054C11.7556 47.267 14.5778 39.1936 17.5102 31.3979C18.1935 34.7609 17.9757 38.2356 18.0054 41.6574C18.0092 46.3109 18.4342 50.9298 18.1769 55.5923C18.0105 58.6911 17.524 61.8412 16.476 64.8055C16.1362 65.7987 15.5805 68.1065 14.314 68.3553C12.8151 68.6283 12.9 65.9627 12.79 64.9891Z" fill="#F9F2F2"/>
<path d="M21.358 61.5157C19.9077 49.1051 21.2062 36.2738 25.1852 24.1946C25.8154 29.3976 25.9943 34.6926 25.8984 39.9529C25.8056 45.0683 25.4667 50.164 24.4909 55.2174C24.148 57.0513 23.7176 58.9123 23.2011 60.728C23.0758 61.1748 22.7902 63.0389 22.3525 63.1747C21.5932 63.4342 21.4062 61.9806 21.358 61.5157Z" fill="#F9F2F2"/>
<path d="M28.8332 56.2218C30.9826 45.6698 35.5017 35.4865 41.9059 26.6619C41.0011 31.0934 39.7205 35.4735 38.2392 39.748C36.7895 43.8926 35.1376 48.004 33.0269 51.8738C32.2433 53.2925 31.4024 54.6811 30.5041 56.0394C30.2942 56.3684 29.568 57.8174 29.1907 57.8384C28.5235 57.8534 28.7667 56.6263 28.8332 56.2218Z" fill="#F9F2F2"/>
<path d="M39.5659 49.7494C37.3196 51.7898 34.8469 53.5646 32.4739 55.4283C29.9544 57.3615 27.4787 59.2811 24.9743 61.1857C19.9806 64.966 14.9749 68.6301 9.60244 71.8082C-0.73187 77.9409 -11.2367 83.9106 -21.9619 89.3249C-28.1886 92.456 -34.5829 95.2792 -41.1145 97.7371C-41.9326 98.0388 -42.3279 96.8418 -41.5384 96.5249C-30.2112 92.1236 -19.3668 86.5524 -8.74723 80.6431C1.82855 74.7474 12.3892 68.8803 22.0958 61.5747C24.8206 59.5298 27.5454 57.485 30.2701 55.4401C33.1127 53.3107 35.9296 51.0214 38.9698 49.1426C39.397 48.8181 39.9795 49.3812 39.5659 49.7494Z" fill="#F9F2F2"/>
<path d="M54.7338 28.1053C54.0554 32.8025 51.285 37.0209 48.0921 40.6506C46.6217 42.3304 45.0381 43.8773 43.4968 45.4831C42.7118 46.2784 41.9268 47.0738 41.1704 47.8842C40.473 48.6524 39.7694 49.7104 38.9452 50.302C38.1921 49.5758 39.8982 46.3354 40.25 45.4585C40.9522 43.7771 41.769 42.1561 42.7292 40.6106C44.6511 37.4471 47.047 34.4966 49.7673 31.9732C51.2905 30.541 52.9556 29.2568 54.7338 28.1053Z" fill="#F9F2F2"/>
<path d="M65.6265 45.8167C61.1649 44.2734 56.1656 44.8644 51.4863 46.0999C49.3579 46.6641 47.2265 47.3732 45.1102 48.0537C44.0596 48.3795 42.9939 48.7341 41.9147 49.0449C40.9229 49.3285 39.6445 49.4611 38.7644 49.9501C39.0767 50.9569 42.7023 50.888 43.6578 50.9515C45.4524 51.0906 47.2652 51.0562 49.0796 50.9493C52.7822 50.6645 56.4381 49.8424 59.9598 48.5101C61.9176 47.7829 63.8211 46.8805 65.6265 45.8167Z" fill="#F9F2F2"/>
</svg>
