<svg width="37" height="37" viewBox="0 0 37 37" fill="none" xmlns="http://www.w3.org/2000/svg">
<path d="M10.4038 33.7841C9.58267 32.9629 8.76152 32.1418 7.93669 31.3169C6.63685 30.0171 5.34069 28.7209 4.04084 27.4211C3.74258 27.1228 3.44431 26.8246 3.14605 26.5263C3.14605 27.3953 3.14605 28.2606 3.14605 29.1297C3.9672 28.3085 4.78834 27.4874 5.61317 26.6625C6.91302 25.3627 8.20918 24.0665 9.50902 22.7667C9.80729 22.4684 10.1056 22.1702 10.4038 21.8719C10.7389 21.5368 10.9414 21.0434 10.9414 20.5684C10.9414 20.1154 10.7426 19.5778 10.4038 19.2648C10.054 18.9445 9.59372 18.7051 9.10029 18.7272C8.61055 18.7493 8.15026 18.915 7.79677 19.2648C6.97562 20.086 6.15447 20.9071 5.32964 21.732C4.02979 23.0318 2.73363 24.328 1.43379 25.6278C1.13552 25.9261 0.837258 26.2243 0.538993 26.5226C-0.164322 27.2259 -0.164322 28.4227 0.538993 29.126C1.36014 29.9471 2.18129 30.7683 3.00612 31.5931C4.30596 32.893 5.60213 34.1928 6.90197 35.4926C7.20024 35.7909 7.4985 36.0892 7.79677 36.3874C8.13185 36.7225 8.62528 36.925 9.10029 36.925C9.55321 36.925 10.0908 36.7262 10.4038 36.3874C10.7242 36.0376 10.9635 35.5773 10.9414 35.0839C10.9193 34.5978 10.7536 34.1376 10.4038 33.7841Z" fill="url(#paint0_linear)"/>
<path d="M1.84255 29.6682C2.0819 29.6682 2.32125 29.6682 2.5606 29.6682C3.21604 29.6682 3.87149 29.6682 4.52694 29.6682C5.49169 29.6682 6.45645 29.6682 7.42121 29.6682C8.60322 29.6682 9.78523 29.6682 10.9709 29.6682C12.2597 29.6682 13.5485 29.6682 14.841 29.6682C16.1445 29.6682 17.4444 29.6682 18.7479 29.6682C19.9631 29.6682 21.1745 29.6682 22.3897 29.6682C23.4207 29.6682 24.4517 29.6682 25.4828 29.6682C26.2192 29.6682 26.9594 29.6682 27.6958 29.6682C28.0457 29.6682 28.3992 29.6719 28.749 29.6682C28.7637 29.6682 28.7784 29.6682 28.7932 29.6682C29.2645 29.6682 29.7616 29.462 30.0967 29.1306C30.417 28.8102 30.6564 28.2873 30.6343 27.827C30.6122 27.352 30.4575 26.8586 30.0967 26.5235C29.7358 26.1921 29.2939 25.9859 28.7932 25.9859C28.5538 25.9859 28.3145 25.9859 28.0751 25.9859C27.4197 25.9859 26.7642 25.9859 26.1088 25.9859C25.144 25.9859 24.1793 25.9859 23.2145 25.9859C22.0325 25.9859 20.8505 25.9859 19.6648 25.9859C18.376 25.9859 17.0872 25.9859 15.7947 25.9859C14.4912 25.9859 13.1913 25.9859 11.8878 25.9859C10.6727 25.9859 9.46119 25.9859 8.24604 25.9859C7.215 25.9859 6.18396 25.9859 5.15292 25.9859C4.41647 25.9859 3.67633 25.9859 2.93987 25.9859C2.59006 25.9859 2.23656 25.9822 1.88674 25.9859C1.87201 25.9859 1.85728 25.9859 1.84255 25.9859C1.37122 25.9859 0.874081 26.1912 0.538993 26.5226C0.218635 26.843 -0.0206797 27.3667 0.001414 27.827C0.0235077 28.302 0.178163 28.7955 0.539027 29.1306C0.89989 29.462 1.34545 29.6682 1.84255 29.6682Z" fill="url(#paint1_linear)"/>
<path d="M28.727 17.6566C29.5481 16.8354 30.3693 16.0143 31.1941 15.1894C32.4939 13.8896 33.7901 12.5934 35.0899 11.2936C35.3882 10.9953 35.6865 10.6971 35.9847 10.3988C36.688 9.69548 36.688 8.49874 35.9847 7.79543C35.1636 6.97428 34.3424 6.15313 33.5176 5.3283C32.2178 4.02846 30.9216 2.73229 29.6217 1.43245C29.3235 1.13418 29.0252 0.835921 28.727 0.537657C28.3919 0.202571 27.8984 4.07422e-05 27.4234 4.0763e-05C26.9705 4.07828e-05 26.4329 0.198886 26.1199 0.537658C25.7995 0.887473 25.5602 1.34776 25.5823 1.84118C25.6044 2.33092 25.7701 2.79121 26.1199 3.14471C26.941 3.96586 27.7622 4.78701 28.587 5.61183C29.8869 6.91168 31.183 8.20784 32.4829 9.50769C32.7811 9.80595 33.0794 10.1042 33.3777 10.4025C33.3777 9.53346 33.3777 8.66813 33.3777 7.79911C32.5565 8.62026 31.7354 9.4414 30.9105 10.2662C29.6107 11.5661 28.3145 12.8622 27.0147 14.1621C26.7164 14.4604 26.4182 14.7586 26.1199 15.0569C25.7848 15.392 25.5823 15.8854 25.5823 16.3604C25.5823 16.8133 25.7811 17.3509 26.1199 17.6639C26.4697 17.9843 26.93 18.2236 27.4234 18.2015C27.9132 18.1758 28.3735 18.0101 28.727 17.6566Z" fill="url(#paint2_linear)"/>
<path d="M34.6812 7.25658C34.4419 7.25658 34.2025 7.25658 33.9632 7.25658C33.3077 7.25658 32.6523 7.25658 31.9968 7.25658C31.0321 7.25658 30.0673 7.25658 29.1025 7.25658C27.9205 7.25658 26.7385 7.25658 25.5528 7.25658C24.264 7.25658 22.9752 7.25658 21.6828 7.25658C20.3792 7.25658 19.0794 7.25658 17.7759 7.25658C16.5607 7.25658 15.3492 7.25658 14.1341 7.25658C13.103 7.25658 12.072 7.25658 11.041 7.25658C10.3045 7.25658 9.56438 7.25658 8.82792 7.25658C8.47811 7.25658 8.12461 7.2529 7.77479 7.25658C7.76006 7.25658 7.74533 7.25658 7.7306 7.25658C7.25927 7.25658 6.76216 7.46279 6.42708 7.7942C6.10672 8.11456 5.86737 8.63745 5.88946 9.09774C5.91156 9.57276 6.06621 10.0662 6.42708 10.4013C6.78794 10.7327 7.22981 10.9389 7.7306 10.9389C7.96995 10.9389 8.2093 10.9389 8.44865 10.9389C9.10409 10.9389 9.75954 10.9389 10.415 10.9389C11.3797 10.9389 12.3445 10.9389 13.3093 10.9389C14.4913 10.9389 15.6733 10.9389 16.859 10.9389C18.1478 10.9389 19.4366 10.9389 20.729 10.9389C22.0326 10.9389 23.3324 10.9389 24.6359 10.9389C25.8511 10.9389 27.0626 10.9389 28.2777 10.9389C29.3088 10.9389 30.3398 10.9389 31.3708 10.9389C32.1073 10.9389 32.8474 10.9389 33.5839 10.9389C33.9337 10.9389 34.2872 10.9426 34.637 10.9389C34.6517 10.9389 34.6665 10.9389 34.6812 10.9389C35.1525 10.9389 35.6496 10.7327 35.9847 10.4013C36.3051 10.0809 36.5444 9.55803 36.5223 9.09774C36.5002 8.62272 36.3456 8.12929 35.9847 7.7942C35.6239 7.46279 35.1783 7.25658 34.6812 7.25658Z" fill="url(#paint3_linear)"/>
<defs>
<linearGradient id="paint0_linear" x1="25.67" y1="36.2852" x2="25.7875" y2="0.669416" gradientUnits="userSpaceOnUse">
<stop stop-color="#FE4C4C"/>
<stop offset="0.984375" stop-color="#FF7E21"/>
</linearGradient>
<linearGradient id="paint1_linear" x1="25.67" y1="36.2852" x2="25.7875" y2="0.669416" gradientUnits="userSpaceOnUse">
<stop stop-color="#FE4C4C"/>
<stop offset="0.984375" stop-color="#FF7E21"/>
</linearGradient>
<linearGradient id="paint2_linear" x1="25.67" y1="36.2852" x2="25.7875" y2="0.669416" gradientUnits="userSpaceOnUse">
<stop stop-color="#FE4C4C"/>
<stop offset="0.984375" stop-color="#FF7E21"/>
</linearGradient>
<linearGradient id="paint3_linear" x1="25.67" y1="36.2852" x2="25.7875" y2="0.669416" gradientUnits="userSpaceOnUse">
<stop stop-color="#FE4C4C"/>
<stop offset="0.984375" stop-color="#FF7E21"/>
</linearGradient>
</defs>
</svg>
