<svg width="196" height="177" viewBox="0 0 196 177" fill="none" xmlns="http://www.w3.org/2000/svg">
<path d="M42.9837 85.6747C42.6459 82.1094 42.3082 78.5442 41.5976 75.0516C40.4462 69.3888 38.243 63.949 35.1676 59.0124C34.4231 57.7885 32.5494 58.2846 32.5485 59.6539C32.5773 62.4282 32.6369 65.2381 32.7321 68.0173C32.8016 70.6944 32.9374 73.3763 33.2726 76.073C34.4371 86.0787 38.0326 95.7295 42.4695 104.841C43.6005 107.163 44.6825 110.148 46.3388 112.141C46.0956 107.748 45.0244 103.26 44.4441 98.9085C43.9044 94.4599 43.4262 90.0827 42.9837 85.6747Z" fill="#F9F2F2"/>
<path d="M49.4886 85.7874C50.2395 94.1593 52.2624 102.492 56.4234 109.913C57.5433 111.933 58.8367 113.865 60.1301 115.798C61.5416 117.94 62.9839 120.117 64.4312 122.228C64.4727 120.761 64.0135 119.291 63.6872 117.831C62.5902 113.241 62.6422 108.469 62.4186 103.81C61.9764 94.4252 60.4662 85.0287 57.8329 75.9165C57.146 73.461 56.3877 71.0671 55.3587 68.7199C54.5919 66.8931 53.2059 63.05 51.3836 61.9468C48.8551 60.4574 49.3925 65.841 49.335 67.0725C49.1854 70.0006 49.0667 72.9643 49.05 75.9022C49.0703 79.2436 49.1977 82.4928 49.4886 85.7874Z" fill="#F9F2F2"/>
<path d="M48.2873 38.3061C52.4259 31.5646 57.5833 25.4996 63.1812 19.8011C61.034 24.4519 58.8204 29.0979 57.0928 33.9467C56.0034 36.939 55.1083 40.0124 53.9524 42.9997C52.7511 46.1507 51.1916 49.175 49.4427 52.0517C48.3395 53.874 47.0727 55.6507 45.4933 57.1372C44.3776 58.2237 41.7736 60.4695 40.0659 60.0761C40.1058 56.3718 41.713 52.2488 43.0668 48.8419C44.4047 45.2 46.2027 41.659 48.2873 38.3061Z" fill="#F9F2F2"/>
<path d="M72.3064 33.2666C78.1173 28.7529 84.7023 25.0645 91.9568 23.1623C88.675 25.9926 85.3624 28.7872 82.0806 31.6174C79.5479 33.8017 76.9844 35.9502 74.7334 38.3891C72.7014 40.5769 70.9561 42.9529 69.1136 45.2883C66.864 48.1614 64.6193 50.9681 62.2109 53.7293C60.088 56.2444 57.8321 58.7497 55.1148 60.7199C54.2685 61.3253 51.9141 63.3557 50.7638 63.1037C48.9183 62.767 50.5307 60.3812 50.9624 59.5113C54.0799 53.0284 58.1645 47.0177 63.0686 41.6687C65.9309 38.6405 68.9777 35.8263 72.3064 33.2666Z" fill="#F9F2F2"/>
<path d="M74.8695 51.4581C79.8315 46.6812 84.9879 41.9855 90.8679 38.3452C97.7271 34.1093 105.408 31.4037 113.059 28.6624C102.875 36.7608 94.7671 47.0499 85.2908 55.9687C82.0606 59.0032 78.641 61.8901 74.6209 63.8642C72.4373 64.9387 70.1098 65.7019 67.669 66.1895C65.366 66.6206 63.261 66.6321 64.5707 63.8231C66.8249 59.0799 71.1609 55.0918 74.8695 51.4581Z" fill="#F9F2F2"/>
<path d="M80.1827 117.414C79.0574 106.877 77.8706 96.2688 74.7179 86.0495C73.4487 81.9812 71.904 78.0262 70.3285 74.0355C69.036 70.7336 67.6513 67.3248 65.0587 64.8955C64.6411 68.739 65.3579 72.5994 65.8753 76.4452C66.9325 84.7395 66.8148 93.114 68.7196 101.237C69.7132 105.419 71.2789 109.542 73.2985 113.399C75.1741 116.944 77.702 121.606 80.8877 124.146C80.9119 122.011 80.4193 119.636 80.1827 117.414Z" fill="#F9F2F2"/>
<path d="M87.6492 102.267C89.35 105.465 91.2243 108.576 93.1343 111.656C96.2663 116.731 99.5054 121.713 102.847 126.669C103.057 126.985 103.572 126.789 103.469 126.381C102.268 122.752 101.852 118.88 101.263 115.096C99.1497 102.114 94.1352 89.5198 86.6727 78.4143C84.9584 75.8495 83.0707 73.3721 80.7143 71.361C79.6795 70.4496 78.4601 69.3241 78.2303 71.0773C78.0657 72.4011 78.5976 74.244 78.8008 75.5616C79.7333 81.4753 81.3042 87.336 83.4263 92.9703C84.6621 96.1343 86.0357 99.2418 87.6492 102.267Z" fill="#F9F2F2"/>
<path d="M105.289 54.274C115.409 50.6465 126.019 48.0904 135.821 43.8047C129.631 49.8268 122.324 54.6977 114.786 59.0838C105.05 64.7437 94.6313 69.6853 83.3807 71.4258C81.7925 71.6758 77.5383 72.2967 79.5026 69.6697C80.9072 67.8363 82.9614 66.2513 84.8017 64.8509C88.6297 61.8606 92.95 59.4411 97.4401 57.4349C99.9607 56.3185 102.609 55.2784 105.289 54.274Z" fill="#F9F2F2"/>
<path d="M113.814 63.654C124.941 58.1636 136.205 52.6166 148.351 49.6062C144.957 52.5952 141.599 55.5534 138.175 58.5068C136.029 60.419 133.818 62.3264 131.519 64.0603C125.259 68.7747 118.019 72.2811 110.321 74.3174C106.436 75.3664 102.447 76.0069 98.3861 76.2746C96.9097 76.366 94.6572 76.5669 95.7136 74.474C96.5314 72.8979 99.0569 71.7151 100.495 70.786C104.763 68.1622 109.273 65.8903 113.814 63.654Z" fill="#F9F2F2"/>
<path d="M162.166 56.1045C153.515 62.4458 144.863 68.787 135.401 73.8994C130.637 76.4531 125.662 78.6907 120.388 80.0044C117.697 80.7074 114.929 81.1041 112.15 81.1994C111.547 81.2217 109.019 81.5359 108.782 80.6833C108.631 80.0042 111.254 78.862 111.815 78.5027C121.908 72.5351 132.335 67.0264 143.251 62.5892C149.481 60.077 155.754 57.9019 162.166 56.1045Z" fill="#F9F2F2"/>
<path d="M171.742 74.7804C163.012 78.5775 154.25 82.3389 145.041 84.9316C140.436 86.228 135.657 87.1774 130.87 87.3247C128.428 87.3781 125.934 87.2273 123.496 86.7799C123 86.7099 120.71 86.5073 120.703 85.7052C120.716 85.0716 123.188 84.6196 123.769 84.4288C133.692 81.2208 143.78 78.4926 154.095 76.7498C159.948 75.746 165.842 75.0793 171.742 74.7804Z" fill="#F9F2F2"/>
<path d="M95.6824 81.2189C95.9597 83.3435 96.232 85.5346 96.5092 87.6592C96.7975 90.0853 97.1523 92.5163 97.6092 94.9214C100.015 106.655 106.654 117.165 113.357 127.246C113.224 122.26 111.779 117.411 110.701 112.555C109.185 105.963 108.275 99.2831 106.386 92.7642C105.136 88.4302 103.417 84.1283 100.963 80.273C100.157 78.9777 98.6144 75.8913 96.7395 75.9531C94.5275 76.0569 95.5198 79.8041 95.6824 81.2189Z" fill="#F9F2F2"/>
<path d="M108.952 83.3346C110.958 101.385 116.995 119.132 126.582 134.936C125.772 127.362 124.293 119.804 122.436 112.386C120.631 105.172 118.484 98.0666 115.449 91.2293C114.364 88.7444 113.145 86.2496 111.82 83.8471C111.496 83.2554 110.482 80.7089 109.817 80.6599C108.657 80.5407 108.868 82.6605 108.952 83.3346Z" fill="#F9F2F2"/>
<path d="M121.271 88.3862C127.767 102.627 137.498 115.57 149.455 125.972C146.724 119.992 143.477 114.208 139.981 108.639C136.572 103.244 132.887 97.9617 128.632 93.1718C127.058 91.419 125.413 89.7277 123.697 88.0979C123.292 87.7006 121.789 85.8862 121.248 85.9798C120.298 86.1768 121.044 87.8351 121.271 88.3862Z" fill="#F9F2F2"/>
<path d="M138.588 94.0409C134.739 91.8862 130.657 90.1818 126.687 88.3187C122.486 86.4052 118.352 84.4966 114.182 82.6187C105.873 78.8987 97.5856 75.3473 88.9374 72.6042C72.2957 67.3 55.4658 62.2824 38.5056 58.1237C28.663 55.7265 18.6838 53.8202 8.62978 52.4762C7.37241 52.3165 7.20421 54.1411 8.42591 54.3315C25.9074 56.8589 43.0878 61.2009 60.0604 66.0954C76.9665 70.985 93.8419 75.8389 109.978 83.0095C114.506 85.014 119.034 87.0185 123.562 89.023C128.284 91.1086 133.022 93.4292 137.942 95.0953C138.654 95.4151 139.294 94.427 138.588 94.0409Z" fill="#F9F2F2"/>
<path d="M167.15 119.731C164.652 113.301 159.349 108.233 153.64 104.138C151.008 102.24 148.259 100.567 145.551 98.7973C144.179 97.9278 142.807 97.0582 141.471 96.1579C140.232 95.2982 138.889 94.03 137.528 93.4619C136.699 94.7366 140.176 98.7676 140.961 99.8944C142.505 102.046 144.192 104.074 146.058 105.949C149.815 109.8 154.173 113.195 158.851 115.878C161.477 117.408 164.255 118.682 167.15 119.731Z" fill="#F9F2F2"/>
<path d="M176.783 91.0837C170.97 94.7289 163.696 95.5275 156.665 95.3087C153.467 95.2059 150.216 94.899 146.996 94.6277C145.402 94.5099 143.777 94.3564 142.147 94.2694C140.649 94.1922 138.795 94.4226 137.389 94.0181C137.502 92.4901 142.659 91.4015 143.991 90.999C146.487 90.2148 149.066 89.6705 151.67 89.2284C157.007 88.4203 162.454 88.3885 167.877 89.1232C170.887 89.5126 173.878 90.1677 176.783 91.0837Z" fill="#F9F2F2"/>
</svg>
