<svg width="236" height="173" viewBox="0 0 236 173" fill="none" xmlns="http://www.w3.org/2000/svg">
<g opacity="0.86">
<path d="M46.1219 130.855C46.7322 135.432 47.3425 140.009 47.4634 144.603C47.6604 152.05 46.4713 159.523 44.0405 166.617C43.4604 168.37 40.9628 168.291 40.5643 166.571C39.7954 163.078 39.0548 159.53 38.368 156.012C37.6783 152.629 37.0706 149.22 36.7091 145.735C35.2684 132.828 36.9844 119.662 39.9138 106.928C40.661 103.684 41.1538 99.619 42.6562 96.635C43.6255 102.224 43.5823 108.173 44.116 113.807C44.729 119.552 45.3986 125.19 46.1219 130.855Z" fill="#F9F2F2"/>
<path d="M54.2579 128.826C52.7716 118.091 52.8948 107.037 55.9682 96.507C56.7889 93.6446 57.8528 90.8417 58.9168 88.0388C60.0684 84.9388 61.2484 81.7851 62.4538 78.7135C62.9316 80.5436 62.7814 82.5236 62.7952 84.4527C62.7491 90.5369 64.1993 96.5167 65.2705 102.434C67.4382 114.351 68.2681 126.593 67.6044 138.804C67.454 142.088 67.1962 145.316 66.5847 148.563C66.1516 151.08 65.5257 156.31 63.5568 158.225C60.8127 160.829 59.9255 153.91 59.4958 152.38C58.4583 148.745 57.449 145.057 56.5755 141.371C55.6314 137.168 54.8484 133.049 54.2579 128.826Z" fill="#F9F2F2"/>
<path d="M66.5292 188.821C73.6844 196.089 81.9231 202.211 90.6088 207.745C86.5619 202.526 82.433 197.332 78.8556 191.742C76.6187 188.3 74.6025 184.699 72.2836 181.281C69.86 177.672 67.0234 174.325 63.9917 171.219C62.077 169.25 59.97 167.386 57.5546 165.977C55.8378 164.935 51.9149 162.87 49.8839 163.86C51.009 168.502 54.2244 173.214 56.9138 177.101C59.6512 181.288 62.9374 185.214 66.5292 188.821Z" fill="#F9F2F2"/>
<path d="M98.1641 188.181C106.774 192.165 116.116 194.887 125.781 195.172C120.837 192.569 115.865 190.019 110.921 187.416C107.106 185.408 103.262 183.452 99.7265 181.042C96.539 178.883 93.6571 176.405 90.6648 174.006C87.0051 171.05 83.3708 168.175 79.5441 165.406C76.1474 162.862 72.5866 160.37 68.6014 158.683C67.3625 158.168 63.8158 156.301 62.4439 156.951C60.2233 157.91 62.9412 160.439 63.7359 161.407C69.5334 168.646 76.4087 175.011 84.1214 180.307C88.5958 183.281 93.2399 185.932 98.1641 188.181Z" fill="#F9F2F2"/>
<path d="M96.1042 164.585C103.724 169.146 111.564 173.548 120.007 176.415C129.852 179.745 140.287 180.915 150.693 182.138C135.55 174.921 122.379 164.348 107.886 155.894C102.948 153.02 97.8147 150.386 92.1917 149.073C89.137 148.356 85.9916 148.073 82.784 148.169C79.7659 148.296 77.1183 148.892 79.5787 152.041C83.7869 157.345 90.391 161.097 96.1042 164.585Z" fill="#F9F2F2"/>
<path d="M83.6415 80.1901C85.2858 93.7533 86.8734 107.424 85.8786 121.176C85.4649 126.655 84.6721 132.072 83.851 137.542C83.1857 142.065 82.4354 146.749 79.8835 150.553C78.2436 145.846 78.0237 140.788 77.5577 135.807C76.4788 125.081 73.9006 114.595 73.9361 103.838C73.9709 98.2971 74.741 92.6628 76.1589 87.2321C77.4863 82.2342 79.3088 75.6439 82.5736 71.5289C83.2237 74.2048 83.294 77.3303 83.6415 80.1901Z" fill="#F9F2F2"/>
<path d="M97.4131 97.0501C98.6215 92.5388 100.073 88.0868 101.579 83.6632C104.041 76.38 106.664 69.1817 109.423 61.9862C109.595 61.528 110.299 61.6243 110.288 62.1673C109.832 67.0748 110.434 72.0588 110.792 76.9834C111.904 93.904 109.26 111.181 103.108 127.297C101.699 131.016 100.047 134.676 97.6702 137.886C96.6348 139.331 95.4295 141.099 94.6322 138.963C94.0413 137.348 94.1746 134.879 94.0475 133.165C93.5027 125.465 93.7754 117.647 94.8061 109.954C95.4403 105.62 96.2641 101.318 97.4131 97.0501Z" fill="#F9F2F2"/>
<path d="M133.5 152.221C147.266 153.841 161.335 153.973 174.892 156.512C165.369 150.743 154.777 146.745 144.034 143.423C130.161 139.138 115.64 135.954 101.002 137.033C98.9339 137.179 93.4097 137.634 96.6395 140.364C98.936 142.259 101.977 143.654 104.695 144.88C110.371 147.525 116.5 149.311 122.723 150.528C126.213 151.199 129.842 151.737 133.5 152.221Z" fill="#F9F2F2"/>
<path d="M141.487 137.963C157.058 141.631 172.818 145.33 188.949 145.587C183.819 142.817 178.742 140.076 173.583 137.36C170.333 135.58 167.001 133.826 163.61 132.315C154.378 128.209 144.266 125.905 134.004 125.581C128.82 125.391 123.624 125.744 118.444 126.586C116.563 126.9 113.675 127.301 115.61 129.624C117.094 131.366 120.61 132.119 122.686 132.869C128.81 134.926 135.134 136.472 141.487 137.963Z" fill="#F9F2F2"/>
<path d="M204.418 133.416C191.71 127.96 179.002 122.505 165.632 118.829C158.906 117.003 152.007 115.636 145.001 115.516C141.417 115.414 137.825 115.719 134.306 116.406C133.542 116.553 130.275 116.892 130.224 118.032C130.232 118.928 133.859 119.602 134.668 119.891C149.078 124.458 163.775 128.352 178.775 130.759C187.331 132.106 195.842 133.018 204.418 133.416Z" fill="#F9F2F2"/>
<path d="M211.027 107.176C198.958 104.94 186.861 102.757 174.54 102.173C168.379 101.88 162.1 102.075 156.043 103.279C152.96 103.92 149.871 104.834 146.938 106.103C146.335 106.335 143.518 107.254 143.741 108.264C143.942 109.056 147.178 108.906 147.964 108.977C161.36 110.127 174.824 110.627 188.288 109.823C195.931 109.386 203.529 108.513 211.027 107.176Z" fill="#F9F2F2"/>
<path d="M113.615 121.16C113.346 118.411 113.052 115.579 112.784 112.83C112.442 109.699 112.183 106.542 112.059 103.388C111.676 87.9499 116.965 72.8207 122.46 58.2119C123.74 64.5141 123.332 71.0254 123.388 77.4378C123.395 86.1583 124.191 94.8138 123.709 103.551C123.397 109.358 122.486 115.261 120.522 120.816C119.885 122.677 118.844 127.002 116.47 127.468C113.662 127.98 113.821 122.985 113.615 121.16Z" fill="#F9F2F2"/>
<path d="M129.671 114.651C126.953 91.3945 129.386 67.3493 136.843 44.7133C138.023 54.4636 138.359 64.3862 138.179 74.2437C138.005 83.8297 137.37 93.3788 135.541 102.849C134.899 106.285 134.092 109.773 133.124 113.175C132.89 114.013 132.354 117.506 131.534 117.76C130.111 118.247 129.761 115.523 129.671 114.651Z" fill="#F9F2F2"/>
<path d="M143.678 104.731C147.706 84.957 156.175 65.8739 168.176 49.337C166.48 57.6414 164.081 65.8496 161.305 73.8597C158.588 81.6265 155.493 89.3311 151.537 96.5829C150.069 99.2416 148.493 101.844 146.809 104.389C146.416 105.006 145.055 107.721 144.348 107.76C143.098 107.788 143.554 105.489 143.678 104.731Z" fill="#F9F2F2"/>
<path d="M163.793 92.6021C159.583 96.4257 154.95 99.7515 150.503 103.244C145.781 106.867 141.142 110.464 136.449 114.033C127.091 121.117 117.71 127.984 107.643 133.939C88.2766 145.432 68.591 156.619 48.4926 166.765C36.8239 172.632 24.8414 177.923 12.6015 182.529C11.0684 183.094 10.3276 180.851 11.807 180.257C33.0338 172.009 53.3557 161.569 73.2562 150.495C93.0747 139.447 112.865 128.452 131.055 114.762C136.161 110.93 141.267 107.098 146.373 103.266C151.7 99.2758 156.978 94.9856 162.676 91.4649C163.476 90.8569 164.568 91.9121 163.793 92.6021Z" fill="#F9F2F2"/>
<path d="M192.215 52.0417C190.944 60.844 185.753 68.7491 179.769 75.5509C177.014 78.6987 174.046 81.5976 171.158 84.6067C169.687 86.0972 168.216 87.5876 166.798 89.1064C165.491 90.5459 164.173 92.5285 162.628 93.6371C161.217 92.2764 164.414 86.2039 165.074 84.5606C166.389 81.4098 167.92 78.3721 169.719 75.4759C173.321 69.5478 177.811 64.0186 182.908 59.29C185.763 56.6061 188.883 54.1994 192.215 52.0417Z" fill="#F9F2F2"/>
<path d="M212.629 85.2321C204.268 82.3401 194.9 83.4476 186.131 85.7629C182.142 86.8202 178.148 88.149 174.182 89.4242C172.214 90.0348 170.217 90.6993 168.194 91.2817C166.336 91.8132 163.94 92.0617 162.291 92.9779C162.876 94.8647 169.67 94.7356 171.461 94.8546C174.824 95.1153 178.221 95.0508 181.621 94.8504C188.559 94.3168 195.41 92.7762 202.01 90.2796C205.679 88.9167 209.246 87.2258 212.629 85.2321Z" fill="#F9F2F2"/>
</g>
</svg>
