<svg width="103" height="96" viewBox="0 0 103 96" fill="none" xmlns="http://www.w3.org/2000/svg">
<path d="M101.349 -21.2457C94.0381 -24.7973 86.1258 -27.2752 77.9022 -27.5274C75.6703 -27.6065 73.4243 -27.4983 71.1782 -27.3901C68.7001 -27.2882 66.177 -27.1787 63.7065 -27.0319C64.9009 -26.2664 66.3478 -25.9139 67.7204 -25.4563C72.0704 -24.077 75.9986 -21.6548 79.9703 -19.5173C87.9664 -15.2052 96.5049 -11.7719 105.368 -9.41094C107.745 -8.75596 110.106 -8.19078 112.564 -7.87318C114.46 -7.59779 118.335 -6.83025 120.158 -7.7901C122.652 -9.1426 117.924 -11.3812 116.932 -12.0429C114.581 -13.6266 112.184 -15.2025 109.758 -16.681C106.979 -18.33 104.224 -19.8443 101.349 -21.2457Z" fill="#F9F2F2"/>
<path d="M59.8424 -11.5794C69.134 -7.25861 78.5154 -2.95321 88.5545 -0.470675C92.5581 0.505921 96.6052 1.19774 100.697 1.88186C104.077 2.45709 107.592 3.00922 110.897 2.07214C107.921 -0.189948 104.365 -1.52067 100.921 -3.00919C93.5213 -6.26831 86.6412 -10.5409 78.961 -13.0124C75.001 -14.2737 70.8038 -15.0322 66.6016 -15.2815C62.729 -15.4949 57.6058 -15.7247 53.9131 -14.3514C55.6707 -13.2666 57.8835 -12.491 59.8424 -11.5794Z" fill="#F9F2F2"/>
<path d="M68.6706 2.15627C65.1726 1.971 61.6605 1.97301 58.1561 2.01992C52.3903 2.08526 46.6477 2.28528 40.8755 2.58279C40.5086 2.59954 40.4138 3.12419 40.8038 3.24212C44.4097 4.0559 47.8246 5.6419 51.2536 7.04063C63.0633 11.7611 75.9986 13.8852 88.9206 13.2386C91.9003 13.0968 94.8941 12.7678 97.7351 11.818C99.0062 11.415 100.547 10.9657 99.2086 9.90135C98.1938 9.105 96.4017 8.62692 95.2087 8.13845C89.8439 5.9628 84.2047 4.34262 78.4785 3.29199C75.2408 2.73853 71.9813 2.32746 68.6706 2.15627Z" fill="#F9F2F2"/>
<path d="M99.6419 40.6997C97.6019 50.8939 94.4306 60.9587 93.0948 71.2169C91.1909 63.0862 90.7979 54.6036 90.9218 46.171C91.0863 35.282 92.1858 24.1863 96.3525 13.9968C96.9371 12.5562 98.5436 8.7218 99.741 11.659C100.56 13.7368 100.849 16.2291 101.092 18.452C101.661 23.1145 101.512 27.9004 100.936 32.6209C100.604 35.2659 100.145 37.979 99.6419 40.6997Z" fill="#F9F2F2"/>
<path d="M87.6196 43.0867C86.6215 55.0432 85.6017 67.1419 82.0408 78.7064C81.2561 74.4043 80.4792 70.1471 79.7394 65.8374C79.2245 63.1066 78.7468 60.3232 78.4563 57.5538C77.671 50.0168 78.3748 42.2703 80.5257 34.8763C81.5934 31.1344 83.0511 27.5104 84.8539 24.012C85.5142 22.7433 86.4707 20.7767 87.6782 22.6954C88.5764 24.1588 88.2973 26.841 88.3502 28.4957C88.3961 33.3405 88.0303 38.2098 87.6196 43.0867Z" fill="#F9F2F2"/>
<path d="M69.7695 86.9131C68.8284 76.5836 67.8873 66.254 68.3687 55.8652C68.628 50.6445 69.2542 45.407 70.795 40.3823C71.5538 37.8026 72.6051 35.3114 73.9117 32.9612C74.1938 32.4506 75.1939 30.1992 76.0187 30.4274C76.6563 30.6414 76.2951 33.384 76.3132 34.0279C76.2258 45.3658 75.5919 56.7514 73.8267 68.0076C72.8018 74.4226 71.4768 80.7044 69.7695 86.9131Z" fill="#F9F2F2"/>
<path d="M49.5215 85.5356C50.7279 76.4089 51.9792 67.2744 54.4222 58.3513C55.6437 53.8898 57.2398 49.4564 59.5042 45.4166C60.6775 43.3666 62.0457 41.3755 63.632 39.5781C63.9373 39.2022 65.2465 37.4061 65.9149 37.7998C66.4332 38.1268 65.5755 40.3999 65.4435 40.9772C63.1547 50.7981 60.386 60.5166 56.6873 69.9325C54.6015 75.2818 52.2154 80.4979 49.5215 85.5356Z" fill="#F9F2F2"/>
<path d="M82.1054 19.3074C80.2068 18.4778 78.2556 17.6111 76.3571 16.7816C74.2032 15.811 72.0121 14.8931 69.7915 14.0726C58.8697 10.2165 46.852 10.4768 35.1575 11.0051C39.3551 13.3811 44.0937 14.6013 48.6541 16.1293C54.8718 18.1586 60.8601 20.7356 67.2035 22.4198C71.4174 23.5451 75.8391 24.2651 80.2568 24.1538C81.7319 24.1317 85.058 24.3927 85.9415 22.8084C86.9583 20.9239 83.3588 19.8779 82.1054 19.3074Z" fill="#F9F2F2"/>
<path d="M73.7364 29.2476C57.7805 21.9112 40.0666 18.0655 22.192 18.1295C28.8718 21.2348 35.8708 23.777 42.9429 25.9369C49.8199 28.0378 56.7778 29.8014 63.956 30.6952C66.5562 31.0346 69.2307 31.2688 71.8821 31.3683C72.5337 31.3951 75.1492 31.8243 75.5211 31.2983C76.1982 30.3964 74.3368 29.5143 73.7364 29.2476Z" fill="#F9F2F2"/>
<path d="M63.4094 36.9357C48.3718 35.2187 32.7961 36.8292 18.2164 41.5501C24.5327 42.2683 30.9437 42.462 37.3009 42.3414C43.4707 42.2067 49.6841 41.7872 55.7742 40.6495C58.0112 40.2193 60.2327 39.6993 62.4389 39.0896C62.9699 38.9522 65.2223 38.6118 65.4146 38.1166C65.7248 37.2315 63.979 37.0228 63.4094 36.9357Z" fill="#F9F2F2"/>
<path d="M50.0911 48.4655C53.7952 46.3508 57.2426 43.818 60.7657 41.4571C64.4453 38.9306 68.0877 36.4568 71.7224 33.9381C78.9469 28.9083 86.0213 23.8119 92.6056 18.0139C105.297 6.8696 117.845 -4.57356 129.746 -16.5528C136.639 -23.5129 143.193 -30.8309 149.319 -38.4913C150.079 -39.4535 148.651 -40.5025 147.884 -39.5852C137.075 -26.3607 124.912 -14.2903 112.395 -2.6676C99.9151 8.90254 87.4803 20.465 73.4943 30.2602C69.5762 33.0124 65.6581 35.7646 61.74 38.5169C57.6577 41.3897 53.3727 44.1587 49.5393 47.4048C48.9199 47.8346 49.4191 48.8582 50.0911 48.4655Z" fill="#F9F2F2"/>
<path d="M14.5658 59.3227C21.1387 60.4591 27.9816 58.5914 34.2215 55.9028C37.1061 54.6682 39.8623 53.2246 42.6789 51.863C44.0833 51.1598 45.4877 50.4566 46.8999 49.7982C48.2299 49.2002 49.9499 48.7201 51.0991 47.8759C50.4562 46.5535 45.3832 47.4242 44.0582 47.513C41.5056 47.7201 38.9839 48.1067 36.5007 48.7178C31.4367 49.9105 26.4512 51.8292 21.8955 54.3674C19.3189 55.7802 16.8782 57.4469 14.5658 59.3227Z" fill="#F9F2F2"/>
<path d="M33.4995 81.5845C33.3776 74.9503 36.3419 68.5258 40.0285 62.8093C41.7083 60.2101 43.5831 57.67 45.413 55.1375C46.3055 53.8751 47.2429 52.605 48.1277 51.2978C48.9381 50.0957 49.6715 48.4447 50.7077 47.4811C51.9175 48.3365 50.2484 53.1521 49.9178 54.4567C49.3231 56.9158 48.4885 59.3236 47.5565 61.702C45.5655 66.5267 42.8765 71.0553 39.5641 75.1825C37.7406 77.4827 35.7067 79.6343 33.4995 81.5845Z" fill="#F9F2F2"/>
</svg>
