<svg width="325" height="215" viewBox="0 0 325 215" fill="none" xmlns="http://www.w3.org/2000/svg">
<g opacity="0.86">
<path d="M63.5133 181.323C64.3551 187.635 65.1968 193.948 65.3637 200.283C65.6353 210.556 63.9952 220.863 60.6426 230.647C59.8425 233.065 56.3977 232.956 55.8479 230.584C54.7875 225.765 53.766 220.873 52.8187 216.019C51.8674 211.353 51.0293 206.652 50.5307 201.846C48.5436 184.044 50.9104 165.883 54.9508 148.32C55.9814 143.846 56.661 138.24 58.7332 134.124C60.0702 141.833 60.0105 150.038 60.7467 157.809C61.5922 165.733 62.5157 173.508 63.5133 181.323Z" fill="#F9F2F2"/>
<path d="M74.7377 178.523C72.6877 163.718 72.8577 148.471 77.0966 133.947C78.2286 129.999 79.696 126.133 81.1635 122.267C82.7519 117.992 84.3794 113.642 86.042 109.406C86.7009 111.93 86.4938 114.661 86.5129 117.321C86.4493 125.713 88.4494 133.961 89.9269 142.123C92.9168 158.559 94.0613 175.444 93.146 192.286C92.9386 196.815 92.5829 201.267 91.7396 205.745C91.1422 209.218 90.279 216.431 87.5633 219.072C83.7785 222.664 82.5548 213.121 81.9621 211.011C80.5311 205.997 79.1391 200.91 77.9343 195.826C76.6321 190.029 75.5522 184.348 74.7377 178.523Z" fill="#F9F2F2"/>
<path d="M135.294 260.389C147.168 265.884 160.054 269.639 173.385 270.031C166.566 266.441 159.708 262.925 152.889 259.335C147.626 256.564 142.325 253.867 137.449 250.543C133.052 247.565 129.077 244.147 124.95 240.838C119.902 236.761 114.89 232.796 109.612 228.976C104.927 225.468 100.016 222.031 94.5191 219.705C92.8104 218.994 87.9185 216.419 86.0263 217.316C82.9636 218.638 86.7122 222.126 87.8083 223.461C95.8045 233.445 105.287 242.224 115.925 249.529C122.097 253.63 128.502 257.287 135.294 260.389Z" fill="#F9F2F2"/>
<path d="M132.455 227.844C142.964 234.135 153.778 240.207 165.422 244.16C179.002 248.754 193.394 250.368 207.747 252.055C186.86 242.1 168.694 227.518 148.705 215.858C141.894 211.893 134.814 208.26 127.058 206.449C122.845 205.461 118.507 205.07 114.083 205.202C109.92 205.377 106.268 206.2 109.662 210.543C115.466 217.858 124.575 223.033 132.455 227.844Z" fill="#F9F2F2"/>
<path d="M115.263 111.442C117.531 130.149 119.721 149.005 118.348 167.973C117.778 175.529 116.684 183 115.552 190.545C114.634 196.783 113.599 203.244 110.08 208.491C107.818 201.998 107.515 195.023 106.872 188.153C105.384 173.359 101.828 158.896 101.877 144.059C101.925 136.417 102.987 128.645 104.943 121.155C106.773 114.262 109.287 105.172 113.79 99.4962C114.687 103.187 114.784 107.498 115.263 111.442Z" fill="#F9F2F2"/>
<path d="M134.259 134.697C135.925 128.474 137.928 122.334 140.004 116.232C143.4 106.187 147.018 96.2588 150.823 86.3344C151.061 85.7024 152.032 85.8352 152.017 86.5842C151.387 93.3529 152.217 100.227 152.712 107.019C154.246 130.357 150.598 154.186 142.114 176.414C140.17 181.544 137.891 186.592 134.613 191.02C133.185 193.013 131.523 195.451 130.423 192.506C129.608 190.278 129.792 186.872 129.617 184.508C128.865 173.888 129.241 163.105 130.663 152.494C131.538 146.517 132.674 140.583 134.259 134.697Z" fill="#F9F2F2"/>
<path d="M184.032 210.791C203.02 213.026 222.425 213.208 241.123 216.71C227.989 208.753 213.379 203.239 198.562 198.656C179.427 192.747 159.399 188.355 139.209 189.843C136.357 190.045 128.738 190.672 133.193 194.437C136.36 197.052 140.554 198.976 144.303 200.666C152.132 204.314 160.586 206.777 169.168 208.456C173.983 209.381 178.988 210.123 184.032 210.791Z" fill="#F9F2F2"/>
<path d="M195.049 191.126C216.525 196.185 238.262 201.287 260.511 201.642C253.435 197.821 246.432 194.04 239.317 190.294C234.835 187.839 230.239 185.42 225.562 183.336C212.829 177.673 198.882 174.495 184.728 174.049C177.577 173.786 170.41 174.273 163.267 175.434C160.672 175.867 156.689 176.42 159.357 179.624C161.405 182.027 166.254 183.066 169.118 184.1C177.563 186.937 186.287 189.069 195.049 191.126Z" fill="#F9F2F2"/>
<path d="M281.846 184.854C264.318 177.33 246.791 169.805 228.35 164.735C219.073 162.217 209.558 160.332 199.895 160.166C194.952 160.025 189.997 160.446 185.144 161.393C184.09 161.596 179.584 162.063 179.514 163.636C179.525 164.872 184.526 165.802 185.642 166.2C205.518 172.499 225.789 177.87 246.477 181.189C258.278 183.048 270.017 184.306 281.846 184.854Z" fill="#F9F2F2"/>
<path d="M290.961 148.663C274.314 145.578 257.629 142.568 240.635 141.762C232.138 141.359 223.477 141.627 215.124 143.287C210.871 144.172 206.611 145.432 202.565 147.183C201.734 147.503 197.848 148.77 198.156 150.163C198.433 151.255 202.896 151.049 203.981 151.147C222.457 152.733 241.027 153.423 259.598 152.314C270.139 151.71 280.618 150.506 290.961 148.663Z" fill="#F9F2F2"/>
<path d="M156.605 167.951C156.234 164.158 155.829 160.253 155.459 156.461C154.988 152.142 154.629 147.788 154.458 143.438C153.931 122.145 161.225 101.278 168.805 81.1286C170.571 89.821 170.008 98.8017 170.084 107.646C170.094 119.674 171.193 131.612 170.528 143.663C170.098 151.672 168.84 159.814 166.132 167.476C165.253 170.043 163.817 176.008 160.544 176.651C156.669 177.357 156.889 170.467 156.605 167.951Z" fill="#F9F2F2"/>
<path d="M178.75 158.973C175.002 126.896 178.358 93.7313 188.642 62.5106C190.271 75.9587 190.733 89.6445 190.485 103.241C190.246 116.462 189.37 129.633 186.848 142.694C185.961 147.434 184.849 152.244 183.514 156.937C183.19 158.092 182.452 162.91 181.32 163.261C179.358 163.932 178.875 160.175 178.75 158.973Z" fill="#F9F2F2"/>
<path d="M198.071 145.29C203.627 118.017 215.307 91.6966 231.86 68.888C229.521 80.3419 226.211 91.663 222.382 102.711C218.636 113.423 214.366 124.05 208.911 134.052C206.885 137.719 204.712 141.308 202.39 144.819C201.847 145.669 199.97 149.414 198.995 149.469C197.271 149.508 197.899 146.336 198.071 145.29Z" fill="#F9F2F2"/>
<path d="M225.812 128.561C220.006 133.835 213.615 138.422 207.481 143.239C200.969 148.236 194.571 153.198 188.098 158.12C175.191 167.891 162.252 177.362 148.367 185.576C121.656 201.427 94.5043 216.857 66.7835 230.851C50.6894 238.943 34.1624 246.24 17.2805 252.593C15.1658 253.373 14.1442 250.279 16.1847 249.46C45.4618 238.084 73.4909 223.685 100.939 208.411C128.274 193.173 155.569 178.008 180.658 159.126C187.7 153.84 194.743 148.555 201.786 143.27C209.132 137.766 216.413 131.849 224.271 126.993C225.375 126.154 226.881 127.61 225.812 128.561Z" fill="#F9F2F2"/>
<path d="M265.016 72.6184C263.263 84.759 256.102 95.6622 247.85 105.044C244.049 109.385 239.956 113.384 235.972 117.534C233.943 119.59 231.914 121.645 229.959 123.74C228.157 125.726 226.338 128.46 224.208 129.989C222.261 128.112 226.671 119.737 227.581 117.47C229.395 113.125 231.506 108.935 233.988 104.94C238.956 96.7638 245.148 89.1376 252.179 82.6156C256.116 78.9138 260.42 75.5944 265.016 72.6184Z" fill="#F9F2F2"/>
<path d="M293.169 118.396C281.638 114.408 268.716 115.935 256.622 119.129C251.121 120.587 245.612 122.42 240.142 124.178C237.426 125.021 234.672 125.937 231.882 126.74C229.319 127.473 226.015 127.816 223.74 129.08C224.547 131.682 233.918 131.504 236.388 131.668C241.026 132.028 245.712 131.939 250.401 131.663C259.971 130.927 269.421 128.802 278.523 125.358C283.583 123.479 288.503 121.146 293.169 118.396Z" fill="#F9F2F2"/>
</g>
</svg>
