<svg width="41" height="41" viewBox="0 0 41 41" fill="none" xmlns="http://www.w3.org/2000/svg">
<path fill-rule="evenodd" clip-rule="evenodd" d="M0.265137 20.9922C0.265137 9.94649 9.21944 0.992188 20.2651 0.992188C31.3108 0.992188 40.2651 9.94649 40.2651 20.9922C40.2651 32.0379 31.3108 40.9922 20.2651 40.9922C9.21944 40.9922 0.265137 32.0379 0.265137 20.9922Z" fill="#4C6C91"/>
<path fill-rule="evenodd" clip-rule="evenodd" d="M21.3115 27.5554C21.3115 27.5554 21.6965 27.5134 21.8937 27.3055C22.0743 27.115 22.068 26.7555 22.068 26.7555C22.068 26.7555 22.044 25.0768 22.838 24.829C23.6206 24.5852 24.6254 26.4523 25.6918 27.1703C26.4973 27.7132 27.1087 27.5943 27.1087 27.5943L29.9583 27.5554C29.9583 27.5554 31.4483 27.4653 30.7419 26.3151C30.6835 26.2209 30.3297 25.464 28.6238 23.9092C26.8364 22.2818 27.0764 22.545 29.2279 19.7294C30.5384 18.0149 31.0622 16.9681 30.8984 16.5206C30.7429 16.0924 29.7788 16.2061 29.7788 16.2061L26.5714 16.2256C26.5714 16.2256 26.3335 16.1938 26.1571 16.2973C25.985 16.3987 25.8733 16.6353 25.8733 16.6353C25.8733 16.6353 25.3662 17.9616 24.6891 19.0903C23.2606 21.4706 22.6899 21.5966 22.4561 21.4491C21.9125 21.1039 22.0482 20.0643 22.0482 19.3259C22.0482 17.0183 22.405 16.0566 21.3543 15.8077C21.0058 15.7248 20.7491 15.6705 19.857 15.6613C18.7124 15.65 17.7441 15.6654 17.1952 15.9286C16.8301 16.1037 16.5483 16.495 16.7205 16.5175C16.9323 16.5451 17.4123 16.6445 17.6669 16.9845C17.9955 17.4239 17.9841 18.4092 17.9841 18.4092C17.9841 18.4092 18.1729 21.1254 17.5427 21.4624C17.1107 21.6939 16.5181 21.2217 15.2441 19.0616C14.5919 17.9555 14.0994 16.7326 14.0994 16.7326C14.0994 16.7326 14.0045 16.5042 13.8344 16.3813C13.6289 16.2328 13.3419 16.1867 13.3419 16.1867L10.2941 16.2061C10.2941 16.2061 9.83605 16.2184 9.66806 16.414C9.51885 16.5871 9.65658 16.9466 9.65658 16.9466C9.65658 16.9466 12.0429 22.4272 14.7453 25.1895C17.2234 27.7213 20.0365 27.5554 20.0365 27.5554H21.3115Z" fill="white"/>
</svg>
