<svg width="41" height="41" viewBox="0 0 41 41" fill="none" xmlns="http://www.w3.org/2000/svg">
<path fill-rule="evenodd" clip-rule="evenodd" d="M0.265137 20.9922C0.265137 9.94649 9.21944 0.992188 20.2651 0.992188C31.3108 0.992188 40.2651 9.94649 40.2651 20.9922C40.2651 32.0379 31.3108 40.9922 20.2651 40.9922C9.21944 40.9922 0.265137 32.0379 0.265137 20.9922Z" fill="#FF0000"/>
<path fill-rule="evenodd" clip-rule="evenodd" d="M30.4861 16.053C30.2408 15.1105 29.5179 14.3684 28.6 14.1165C26.9365 13.6587 20.2653 13.6587 20.2653 13.6587C20.2653 13.6587 13.5941 13.6587 11.9305 14.1165C11.0126 14.3684 10.2897 15.1105 10.0443 16.053C9.59863 17.7612 9.59863 21.3254 9.59863 21.3254C9.59863 21.3254 9.59863 24.8894 10.0443 26.5977C10.2897 27.5402 11.0126 28.2824 11.9305 28.5344C13.5941 28.992 20.2653 28.992 20.2653 28.992C20.2653 28.992 26.9365 28.992 28.6 28.5344C29.5179 28.2824 30.2408 27.5402 30.4861 26.5977C30.932 24.8894 30.932 21.3254 30.932 21.3254C30.932 21.3254 30.932 17.7612 30.4861 16.053Z" fill="white"/>
<path fill-rule="evenodd" clip-rule="evenodd" d="M18.2651 24.9923V18.3257L23.5985 21.6591L18.2651 24.9923Z" fill="#FF0000"/>
</svg>
