<svg width="25" height="31" viewBox="0 0 25 31" fill="none" xmlns="http://www.w3.org/2000/svg">
<path fill-rule="evenodd" clip-rule="evenodd" d="M21.7519 13.5729V21.2812L23.7407 23.27C24.7119 24.2412 24.0182 25.9062 22.6461 25.9062H2.34233C0.970244 25.9062 0.29191 24.2412 1.26316 23.27L3.25191 21.2812V13.5729C3.25191 8.82458 5.76483 4.87792 10.1894 3.82958V2.78125C10.1894 1.50167 11.2223 0.46875 12.5019 0.46875C13.7815 0.46875 14.8144 1.50167 14.8144 2.78125V3.82958C19.2236 4.87792 21.7519 8.84 21.7519 13.5729ZM15.5852 27.4479C15.5852 29.1438 14.1977 30.5312 12.5019 30.5312C10.7907 30.5312 9.41858 29.1438 9.41858 27.4479H15.5852Z" fill="url(#paint0_linear)"/>
<defs>
<linearGradient id="paint0_linear" x1="1.15886" y1="11.8435" x2="24.0211" y2="12.4159" gradientUnits="userSpaceOnUse">
<stop stop-color="#FF9900"/>
<stop offset="1" stop-color="#FFCC00"/>
</linearGradient>
</defs>
</svg>
