<svg width="20" height="19" viewBox="0 0 20 19" fill="none" xmlns="http://www.w3.org/2000/svg">
<path d="M2.53116 5.79888C2.93656 5.39348 3.34196 4.98808 3.74918 4.58086C4.39091 3.93913 5.03082 3.29922 5.67255 2.65749C5.8198 2.51024 5.96706 2.36298 6.11431 2.21573C5.68528 2.21573 5.25806 2.21573 4.82903 2.21573C5.23443 2.62113 5.63983 3.02653 6.04705 3.43375C6.68878 4.07548 7.32869 4.71539 7.97042 5.35712C8.11767 5.50437 8.26492 5.65162 8.41217 5.79888C8.57761 5.96431 8.82121 6.06429 9.05572 6.06429C9.27933 6.06429 9.54475 5.96613 9.69927 5.79888C9.85743 5.62617 9.9756 5.39893 9.96469 5.15533C9.95378 4.91354 9.87197 4.6863 9.69927 4.51178C9.29387 4.10638 8.88847 3.70098 8.48126 3.29377C7.83953 2.65204 7.19961 2.01212 6.55788 1.37039C6.41063 1.22314 6.26338 1.07589 6.11613 0.928636C5.7689 0.581412 5.17807 0.581412 4.83085 0.928636C4.42545 1.33404 4.02005 1.73943 3.61283 2.14665C2.9711 2.78838 2.32937 3.42829 1.68764 4.07002C1.54039 4.21727 1.39314 4.36453 1.24589 4.51178C1.08046 4.67721 0.980469 4.92081 0.980469 5.15533C0.980469 5.37893 1.07864 5.64435 1.24589 5.79888C1.41859 5.95704 1.64583 6.0752 1.88943 6.06429C2.1294 6.05339 2.35664 5.97158 2.53116 5.79888Z" fill="url(#paint0_linear)"/>
<path d="M4.56317 1.5722C4.56317 1.69037 4.56317 1.80853 4.56317 1.9267C4.56317 2.25029 4.56317 2.57388 4.56317 2.89747C4.56317 3.37377 4.56317 3.85007 4.56317 4.32637C4.56317 4.90992 4.56317 5.49348 4.56317 6.07885C4.56317 6.71513 4.56317 7.35141 4.56317 7.9895C4.56317 8.63305 4.56317 9.27478 4.56317 9.91833C4.56317 10.5182 4.56317 11.1163 4.56317 11.7163C4.56317 12.2253 4.56317 12.7343 4.56317 13.2433C4.56317 13.6069 4.56317 13.9723 4.56317 14.3359C4.56317 14.5086 4.56135 14.6831 4.56317 14.8558C4.56317 14.8631 4.56317 14.8704 4.56317 14.8776C4.56317 15.1103 4.66498 15.3558 4.82859 15.5212C4.98675 15.6794 5.2449 15.7975 5.47214 15.7866C5.70665 15.7757 5.95026 15.6993 6.11569 15.5212C6.2793 15.343 6.38111 15.1249 6.38111 14.8776C6.38111 14.7595 6.38111 14.6413 6.38111 14.5231C6.38111 14.1996 6.38111 13.876 6.38111 13.5524C6.38111 13.0761 6.38111 12.5998 6.38111 12.1235C6.38111 11.5399 6.38111 10.9564 6.38111 10.371C6.38111 9.73471 6.38111 9.09844 6.38111 8.46034C6.38111 7.8168 6.38111 7.17507 6.38111 6.53152C6.38111 5.9316 6.38111 5.3335 6.38111 4.73358C6.38111 4.22456 6.38111 3.71554 6.38111 3.20652C6.38111 2.84293 6.38111 2.47753 6.38111 2.11394C6.38111 1.94124 6.38293 1.76672 6.38111 1.59402C6.38111 1.58674 6.38111 1.57947 6.38111 1.5722C6.38111 1.33951 6.27974 1.09407 6.11613 0.928636C5.95797 0.770476 5.69938 0.652327 5.47214 0.663235C5.23763 0.674142 4.99402 0.750496 4.82859 0.928653C4.66498 1.10681 4.56317 1.32678 4.56317 1.5722Z" fill="url(#paint1_linear)"/>
<path d="M10.4933 14.845C10.8987 15.2504 11.3041 15.6558 11.7113 16.063C12.353 16.7047 12.9929 17.3446 13.6347 17.9863C13.7819 18.1336 13.9292 18.2809 14.0764 18.4281C14.4236 18.7753 15.0145 18.7753 15.3617 18.4281C15.7671 18.0227 16.1725 17.6173 16.5797 17.2101C17.2214 16.5684 17.8613 15.9284 18.5031 15.2867C18.6503 15.1395 18.7976 14.9922 18.9448 14.845C19.1103 14.6795 19.2103 14.4359 19.2103 14.2014C19.2103 13.9778 19.1121 13.7124 18.9448 13.5579C18.7721 13.3997 18.5449 13.2815 18.3013 13.2924C18.0595 13.3034 17.8323 13.3852 17.6577 13.5579C17.2523 13.9633 16.8469 14.3687 16.4397 14.7759C15.798 15.4176 15.1581 16.0575 14.5164 16.6992C14.3691 16.8465 14.2218 16.9938 14.0746 17.141C14.5036 17.141 14.9308 17.141 15.3599 17.141C14.9545 16.7356 14.5491 16.3302 14.1419 15.923C13.5001 15.2813 12.8602 14.6414 12.2185 13.9996C12.0712 13.8524 11.924 13.7051 11.7767 13.5579C11.6113 13.3924 11.3677 13.2924 11.1332 13.2924C10.9096 13.2924 10.6442 13.3906 10.4896 13.5579C10.3315 13.7306 10.2133 13.9578 10.2242 14.2014C10.2369 14.4432 10.3187 14.6704 10.4933 14.845Z" fill="url(#paint2_linear)"/>
<path d="M15.6277 17.7846C15.6277 17.6664 15.6277 17.5482 15.6277 17.4301C15.6277 17.1065 15.6277 16.7829 15.6277 16.4593C15.6277 15.983 15.6277 15.5067 15.6277 15.0304C15.6277 14.4468 15.6277 13.8633 15.6277 13.2779C15.6277 12.6416 15.6277 12.0054 15.6277 11.3673C15.6277 10.7237 15.6277 10.082 15.6277 9.43843C15.6277 8.83852 15.6277 8.24042 15.6277 7.6405C15.6277 7.13148 15.6277 6.62246 15.6277 6.11344C15.6277 5.74985 15.6277 5.38445 15.6277 5.02086C15.6277 4.84816 15.6295 4.67364 15.6277 4.50093C15.6277 4.49366 15.6277 4.48639 15.6277 4.47912C15.6277 4.24642 15.5259 4.001 15.3623 3.83557C15.2041 3.67741 14.946 3.55924 14.7187 3.57015C14.4842 3.58106 14.2406 3.65741 14.0752 3.83557C13.9116 4.01373 13.8098 4.23188 13.8098 4.47912C13.8098 4.59728 13.8098 4.71545 13.8098 4.83361C13.8098 5.1572 13.8098 5.4808 13.8098 5.80439C13.8098 6.28069 13.8098 6.75698 13.8098 7.23328C13.8098 7.81684 13.8098 8.40039 13.8098 8.98577C13.8098 9.62204 13.8098 10.2583 13.8098 10.8964C13.8098 11.54 13.8098 12.1817 13.8098 12.8252C13.8098 13.4252 13.8098 14.0233 13.8098 14.6232C13.8098 15.1322 13.8098 15.6412 13.8098 16.1502C13.8098 16.5138 13.8098 16.8792 13.8098 17.2428C13.8098 17.4155 13.808 17.59 13.8098 17.7627C13.8098 17.77 13.8098 17.7773 13.8098 17.7846C13.8098 18.0173 13.9116 18.2627 14.0752 18.4281C14.2334 18.5863 14.4915 18.7044 14.7187 18.6935C14.9533 18.6826 15.1969 18.6063 15.3623 18.4281C15.5259 18.2499 15.6277 18.03 15.6277 17.7846Z" fill="url(#paint3_linear)"/>
<defs>
<linearGradient id="paint0_linear" x1="18.7161" y1="7.6916" x2="1.21174" y2="7.79707" gradientUnits="userSpaceOnUse">
<stop offset="0.4375" stop-color="#12CAD6"/>
<stop offset="1" stop-color="#12B3D6"/>
</linearGradient>
<linearGradient id="paint1_linear" x1="18.7161" y1="7.6916" x2="1.21174" y2="7.79707" gradientUnits="userSpaceOnUse">
<stop offset="0.4375" stop-color="#12CAD6"/>
<stop offset="1" stop-color="#12B3D6"/>
</linearGradient>
<linearGradient id="paint2_linear" x1="18.7161" y1="7.6916" x2="1.21174" y2="7.79707" gradientUnits="userSpaceOnUse">
<stop offset="0.4375" stop-color="#12CAD6"/>
<stop offset="1" stop-color="#12B3D6"/>
</linearGradient>
<linearGradient id="paint3_linear" x1="18.7161" y1="7.6916" x2="1.21174" y2="7.79707" gradientUnits="userSpaceOnUse">
<stop offset="0.4375" stop-color="#12CAD6"/>
<stop offset="1" stop-color="#12B3D6"/>
</linearGradient>
</defs>
</svg>
