<svg width="25" height="31" viewBox="0 0 25 31" fill="none" xmlns="http://www.w3.org/2000/svg">
<path fill-rule="evenodd" clip-rule="evenodd" d="M16.1736 0.34747C17.5139 1.6282 18.7053 3.05785 19.7478 4.59174C22.473 8.62752 24.0814 13.4526 24.0814 18.65C24.0814 25.2323 18.75 30.5637 12.1677 30.5637C5.58531 30.5637 0.253906 25.2323 0.253906 18.65C0.253906 14.8673 1.26657 11.323 3.03874 8.285C3.27702 7.85313 3.53019 7.45104 3.79825 7.04895C4.15566 6.49794 4.97473 6.69154 5.13854 7.31701C5.2279 7.64464 5.28746 7.82335 5.43639 8.12119C6.25546 10.1018 8.13187 11.4868 10.4253 11.4868C13.4931 11.4868 15.5035 8.99983 15.5035 5.93204C15.5035 4.27901 15.2057 2.43238 14.9227 1.03251C14.7738 0.317686 15.6524 -0.158864 16.1736 0.34747ZM6.94085 21.4199C6.94085 24.0112 9.08532 26.0961 11.7361 26.0961C15.6826 26.0961 18.8844 22.8942 18.8695 18.9478C18.8695 17.3543 18.6908 15.7758 18.3483 14.2568C18.2291 13.7058 17.5441 13.5271 17.1271 13.9143C15.5634 15.3886 13.3147 16.3268 11.1255 16.7736C8.50452 17.3097 6.94085 19.0074 6.94085 21.4199Z" fill="url(#paint0_linear)"/>
<defs>
<linearGradient id="paint0_linear" x1="0.613305" y1="11.6495" x2="23.9051" y2="12.2364" gradientUnits="userSpaceOnUse">
<stop stop-color="#FF9900"/>
<stop offset="1" stop-color="#FFCC00"/>
</linearGradient>
</defs>
</svg>
