<svg width="33" height="28" viewBox="0 0 33 28" fill="none" xmlns="http://www.w3.org/2000/svg">
<path fill-rule="evenodd" clip-rule="evenodd" d="M16.597 3.78199C19.2932 0.69318 24.2873 -0.566335 28.3316 2.13263C30.4763 3.57207 31.8244 6.00114 31.9163 8.55016C32.1154 14.3679 26.8609 19.0311 18.8183 26.1684L18.6498 26.3183C17.4856 27.3679 15.6932 27.3679 14.5289 26.3333L14.3757 26.1984L14.2832 26.1161C6.29275 19.0103 1.06415 14.3606 1.2778 8.56515C1.36971 6.00114 2.7178 3.57207 4.8625 2.13263C8.90678 -0.581329 13.9009 0.69318 16.597 3.78199ZM16.5967 23.6832L16.7435 23.5395C23.7307 17.3471 28.3398 13.2523 28.3398 9.10004C28.3398 6.22652 26.138 4.07137 23.2022 4.07137C20.9417 4.07137 18.7398 5.49377 17.9765 7.46213H15.2315C14.4536 5.49377 12.2517 4.07137 9.99115 4.07137C7.05536 4.07137 4.85352 6.22652 4.85352 9.10004C4.85352 13.2523 9.46271 17.3471 16.4499 23.5395L16.5967 23.6832Z" fill="url(#paint0_linear)"/>
<path d="M28.3316 2.13263L28.6102 1.71746L28.6091 1.71673L28.3316 2.13263ZM16.597 3.78199L16.2204 4.11079L16.597 4.54233L16.9737 4.11079L16.597 3.78199ZM31.9163 8.55016L32.416 8.53305L32.416 8.53214L31.9163 8.55016ZM18.8183 26.1684L18.4865 25.7944L18.486 25.7948L18.8183 26.1684ZM18.6498 26.3183L18.3174 25.9448L18.315 25.947L18.6498 26.3183ZM14.5289 26.3333L14.8611 25.9596L14.8594 25.9581L14.5289 26.3333ZM14.3757 26.1984L14.0435 26.572L14.0452 26.5736L14.3757 26.1984ZM14.2832 26.1161L14.6155 25.7425L14.6155 25.7425L14.2832 26.1161ZM1.2778 8.56515L1.77746 8.58357L1.77747 8.58306L1.2778 8.56515ZM4.8625 2.13263L4.58389 1.71745L4.58386 1.71747L4.8625 2.13263ZM16.7435 23.5395L16.4118 23.1653L16.4026 23.1735L16.3937 23.1822L16.7435 23.5395ZM16.5967 23.6832L16.2469 24.0405L16.5967 24.3828L16.9464 24.0405L16.5967 23.6832ZM17.9765 7.46213V7.96213H18.3189L18.4427 7.64291L17.9765 7.46213ZM15.2315 7.46213L14.7665 7.64592L14.8915 7.96213H15.2315V7.46213ZM16.4499 23.5395L16.7996 23.1822L16.7908 23.1735L16.7815 23.1653L16.4499 23.5395ZM28.6091 1.71673C24.3271 -1.14086 19.058 0.202316 16.2204 3.45319L16.9737 4.11079C19.5284 1.18404 24.2475 0.00819075 28.054 2.54852L28.6091 1.71673ZM32.416 8.53214C32.3182 5.82238 30.8875 3.24589 28.6102 1.71747L28.0529 2.54779C30.0651 3.89825 31.3305 6.1799 31.4166 8.56818L32.416 8.53214ZM19.1502 26.5424C23.1607 22.9833 26.5194 20.0045 28.8439 17.1823C31.1752 14.3519 32.5215 11.6148 32.416 8.53305L31.4166 8.56726C31.5102 11.3033 30.3288 13.8067 28.072 16.5466C25.8084 19.2948 22.5185 22.2162 18.4865 25.7944L19.1502 26.5424ZM18.9822 26.6919L19.1507 26.5419L18.486 25.7948L18.3174 25.9448L18.9822 26.6919ZM14.1968 26.7071C15.5508 27.9103 17.6304 27.9105 18.9846 26.6897L18.315 25.947C17.3407 26.8253 15.8356 26.8255 14.8611 25.9596L14.1968 26.7071ZM14.0452 26.5736L14.1984 26.7085L14.8594 25.9581L14.7063 25.8232L14.0452 26.5736ZM13.951 26.4897L14.0435 26.572L14.708 25.8247L14.6155 25.7425L13.951 26.4897ZM0.778134 8.54673C0.66493 11.6175 2.001 14.346 4.31758 17.1666C6.62728 19.9787 9.96649 22.9464 13.951 26.4897L14.6155 25.7425C10.6095 22.18 7.33916 19.2699 5.09035 16.5319C2.84842 13.8022 1.67701 11.3082 1.77746 8.58357L0.778134 8.54673ZM4.58386 1.71747C2.30617 3.24617 0.875779 5.8229 0.778116 8.54724L1.77747 8.58306C1.86364 6.17937 3.12943 3.89798 5.14114 2.54779L4.58386 1.71747ZM16.9737 3.45319C14.1371 0.203483 8.86741 -1.15706 4.58389 1.71745L5.14111 2.54781C8.94614 -0.00559884 13.6646 1.18288 16.2204 4.11079L16.9737 3.45319ZM16.3937 23.1822L16.2469 23.3259L16.9464 24.0405L17.0932 23.8968L16.3937 23.1822ZM27.8398 9.10004C27.8398 10.9878 26.7912 12.9317 24.7854 15.2256C22.7854 17.513 19.9143 20.0612 16.4118 23.1653L17.0751 23.9137C20.5598 20.8254 23.4869 18.23 25.5383 15.8838C27.5839 13.5442 28.8398 11.3645 28.8398 9.10004H27.8398ZM23.2022 4.57137C25.872 4.57137 27.8398 6.51271 27.8398 9.10004H28.8398C28.8398 5.94032 26.404 3.57137 23.2022 3.57137V4.57137ZM18.4427 7.64291C19.1241 5.88578 21.1271 4.57137 23.2022 4.57137V3.57137C20.7562 3.57137 18.3555 5.10175 17.5103 7.28136L18.4427 7.64291ZM15.2315 7.96213H17.9765V6.96213H15.2315V7.96213ZM9.99115 4.57137C12.0655 4.57137 14.0707 5.88543 14.7665 7.64592L15.6965 7.27835C14.8364 5.10211 12.438 3.57137 9.99115 3.57137V4.57137ZM5.35352 9.10004C5.35352 6.51271 7.32134 4.57137 9.99115 4.57137V3.57137C6.78938 3.57137 4.35352 5.94032 4.35352 9.10004H5.35352ZM16.7815 23.1653C13.279 20.0612 10.4079 17.513 8.40792 15.2256C6.4022 12.9317 5.35352 10.9878 5.35352 9.10004H4.35352C4.35352 11.3645 5.60943 13.5442 7.6551 15.8838C9.70649 18.23 12.6336 20.8254 16.1183 23.9137L16.7815 23.1653ZM16.9464 23.3259L16.7996 23.1822L16.1001 23.8968L16.2469 24.0405L16.9464 23.3259Z" fill="white"/>
<defs>
<linearGradient id="paint0_linear" x1="31.0908" y1="10.9619" x2="1.66067" y2="11.165" gradientUnits="userSpaceOnUse">
<stop stop-color="#12CAD6"/>
<stop offset="1" stop-color="#2591F4"/>
</linearGradient>
</defs>
</svg>
