<svg width="36" height="36" viewBox="0 0 36 36" fill="none" xmlns="http://www.w3.org/2000/svg">
<path d="M2.42456 7.53859C3.60889 5.43311 5.25216 3.78719 7.36596 2.53106C9.48263 1.34146 11.7897 0.684082 14.2935 0.684082C16.7948 0.684082 19.0337 1.34018 21.1526 2.53105C23.2641 3.78582 24.9105 5.43221 26.1652 7.54373C27.3561 9.66256 28.0122 11.9015 28.0122 14.4028C28.0122 17.5724 27.0242 20.4032 25.1109 22.8444L24.4772 23.6528H25.5044H26.5981C26.8429 23.6528 27.1365 23.7778 27.4272 24.0054L34.2222 30.8004C34.4497 31.091 34.5747 31.3846 34.5747 31.6294C34.5747 31.963 34.4314 32.2492 34.2426 32.438L32.3286 34.352C32.0904 34.5902 31.8121 34.6841 31.52 34.6841C31.1336 34.6841 30.895 34.5765 30.7483 34.3932L30.731 34.3716L30.7115 34.352L23.8755 27.5161L23.8559 27.4965L23.8343 27.4792C23.6511 27.3326 23.5435 27.0939 23.5435 26.7075V25.6138V24.582L22.7336 25.2213C20.2272 27.2001 17.4661 28.1216 14.2935 28.1216C11.7789 28.1216 9.47568 27.5272 7.37099 26.2776L7.37106 26.2775L7.36085 26.2717C5.25317 25.0862 3.61013 23.4431 2.42456 21.3354L2.42468 21.3354L2.4187 21.3253C1.16904 19.2206 0.574707 16.9173 0.574707 14.4028C0.574707 11.8909 1.16781 9.65548 2.4187 7.54873L2.41881 7.5488L2.42456 7.53859ZM22.3101 19.1034L22.3149 19.0954L22.3195 19.0872C23.1087 17.6522 23.5435 16.1344 23.5435 14.4028C23.5435 12.7377 23.1076 11.2199 22.3195 9.78687L22.3149 9.77864L22.3101 9.77058C21.4476 8.33302 20.3633 7.24873 18.9257 6.38619L18.9176 6.38136L18.9094 6.37683C17.4763 5.58864 15.9586 5.15283 14.2935 5.15283C12.5619 5.15283 11.0441 5.58763 9.60914 6.37683L9.60091 6.38136L9.59285 6.38619C8.15898 7.24651 7.06964 8.33176 6.27199 9.77864C5.40271 11.2309 5.04346 12.7551 5.04346 14.4028C5.04346 16.1168 5.40177 17.6416 6.27199 19.0954C7.06774 20.5388 8.15748 21.6286 9.60091 22.4243C11.0547 23.2945 12.5795 23.6528 14.2935 23.6528C15.9412 23.6528 17.4654 23.2936 18.9177 22.4243C20.3645 21.6266 21.4498 20.5373 22.3101 19.1034Z" fill="url(#paint0_linear)" stroke="white"/>
<defs>
<linearGradient id="paint0_linear" x1="0.681188" y1="24.7832" x2="34.4402" y2="24.8933" gradientUnits="userSpaceOnUse">
<stop stop-color="#FE674C"/>
<stop offset="0.984375" stop-color="#FF6421"/>
</linearGradient>
</defs>
</svg>
