<svg width="19" height="12" viewBox="0 0 19 12" fill="none" xmlns="http://www.w3.org/2000/svg">
<path d="M18.9785 -0.265137H0.250977V11.9798H18.9785V-0.265137Z" fill="#E30A17"/>
<path d="M6.88394 8.91834C8.60776 8.91834 10.0052 7.54779 10.0052 5.85712C10.0052 4.16645 8.60776 2.7959 6.88394 2.7959C5.16013 2.7959 3.7627 4.16645 3.7627 5.85712C3.7627 7.54779 5.16013 8.91834 6.88394 8.91834Z" fill="white"/>
<path d="M7.6635 8.30616C9.04256 8.30616 10.1605 7.20972 10.1605 5.85718C10.1605 4.50465 9.04256 3.4082 7.6635 3.4082C6.28445 3.4082 5.1665 4.50465 5.1665 5.85718C5.1665 7.20972 6.28445 8.30616 7.6635 8.30616Z" fill="#E30A17"/>
<path d="M9.35498 5.85756L12.1782 6.75723L10.4333 4.40186V7.31326L12.1782 4.95788L9.35498 5.85756Z" fill="white"/>
</svg>
