<svg width="19" height="17" viewBox="0 0 19 17" fill="none" xmlns="http://www.w3.org/2000/svg">
<g id="icon/navigation/arrow_forward_ios_24px">
<g id="icon/navigation/arrow_forward_ios_24px_2">
<path d="M5.93204 14.7259C6.29137 15.0689 6.8707 15.0689 7.23003 14.7259L13.324 8.90898C13.61 8.63598 13.61 8.19498 13.324 7.92198L7.23003 2.10503C6.8707 1.76203 6.29137 1.76203 5.93204 2.10503C5.57271 2.44802 5.57271 3.00102 5.93204 3.34402L11.2413 8.41898L5.92471 13.4939C5.57271 13.8299 5.57271 14.3899 5.93204 14.7259Z" fill="white"/>
<path d="M5.93204 14.7259C6.29137 15.0689 6.8707 15.0689 7.23003 14.7259L13.324 8.90898C13.61 8.63598 13.61 8.19498 13.324 7.92198L7.23003 2.10503C6.8707 1.76203 6.29137 1.76203 5.93204 2.10503C5.57271 2.44802 5.57271 3.00102 5.93204 3.34402L11.2413 8.41898L5.92471 13.4939C5.57271 13.8299 5.57271 14.3899 5.93204 14.7259Z" fill="white"/>
</g>
</g>
</svg>
