<svg width="26" height="26" viewBox="0 0 26 26" fill="none" xmlns="http://www.w3.org/2000/svg">
<path fill-rule="evenodd" clip-rule="evenodd" d="M13.3857 25.4839C20.2893 25.4839 25.8857 19.8874 25.8857 12.9839C25.8857 6.08033 20.2893 0.483887 13.3857 0.483887C6.48218 0.483887 0.885742 6.08033 0.885742 12.9839C0.885742 19.8874 6.48218 25.4839 13.3857 25.4839Z" fill="url(#paint0_linear)"/>
<path fill-rule="evenodd" clip-rule="evenodd" d="M11.0939 18.713C10.689 18.713 10.7578 18.5601 10.6181 18.1745L9.42725 14.2553L18.5939 8.81714" fill="#C8DAEA"/>
<path fill-rule="evenodd" clip-rule="evenodd" d="M11.0942 18.7131C11.4067 18.7131 11.5448 18.5702 11.7192 18.4006L13.3859 16.78L11.3069 15.5264" fill="#A9C9DD"/>
<path fill-rule="evenodd" clip-rule="evenodd" d="M11.3066 15.5266L16.3441 19.2484C16.9189 19.5656 17.3338 19.4013 17.477 18.7147L19.5275 9.05188C19.7374 8.21019 19.2067 7.82844 18.6567 8.07811L6.61612 12.7209C5.79423 13.0506 5.79902 13.5091 6.4663 13.7134L9.5562 14.6778L16.7096 10.1648C17.0473 9.96002 17.3573 10.0701 17.1029 10.2959" fill="url(#paint1_linear)"/>
<defs>
<linearGradient id="paint0_linear" x1="10.262" y1="1.52639" x2="4.01199" y2="16.1089" gradientUnits="userSpaceOnUse">
<stop stop-color="#37AEE2"/>
<stop offset="1" stop-color="#1E96C8"/>
</linearGradient>
<linearGradient id="paint1_linear" x1="11.821" y1="13.7517" x2="13.1566" y2="18.072" gradientUnits="userSpaceOnUse">
<stop stop-color="#EFF7FC"/>
<stop offset="1" stop-color="white"/>
</linearGradient>
</defs>
</svg>
