<svg width="41" height="41" viewBox="0 0 41 41" fill="none" xmlns="http://www.w3.org/2000/svg">
<path fill-rule="evenodd" clip-rule="evenodd" d="M0.265137 20.4775C0.265137 9.43184 9.21944 0.477539 20.2651 0.477539C31.3108 0.477539 40.2651 9.43184 40.2651 20.4775C40.2651 31.5232 31.3108 40.4775 20.2651 40.4775C9.21944 40.4775 0.265137 31.5232 0.265137 20.4775Z" fill="#4C6C91"/>
<path fill-rule="evenodd" clip-rule="evenodd" d="M21.3115 27.0408C21.3115 27.0408 21.6965 26.9988 21.8937 26.7909C22.0743 26.6004 22.068 26.2409 22.068 26.2409C22.068 26.2409 22.044 24.5622 22.838 24.3143C23.6206 24.0706 24.6254 25.9377 25.6918 26.6557C26.4973 27.1985 27.1087 27.0797 27.1087 27.0797L29.9583 27.0408C29.9583 27.0408 31.4483 26.9506 30.7419 25.8005C30.6835 25.7062 30.3297 24.9493 28.6238 23.3946C26.8364 21.7671 27.0764 22.0303 29.2279 19.2148C30.5384 17.5002 31.0622 16.4535 30.8984 16.0059C30.7429 15.5778 29.7788 15.6915 29.7788 15.6915L26.5714 15.7109C26.5714 15.7109 26.3335 15.6792 26.1571 15.7826C25.985 15.884 25.8733 16.1206 25.8733 16.1206C25.8733 16.1206 25.3662 17.447 24.6891 18.5757C23.2606 20.9559 22.6899 21.0819 22.4561 20.9344C21.9125 20.5893 22.0482 19.5497 22.0482 18.8112C22.0482 16.5037 22.405 15.542 21.3543 15.2931C21.0058 15.2101 20.7491 15.1558 19.857 15.1466C18.7124 15.1353 17.7441 15.1507 17.1952 15.4139C16.8301 15.5891 16.5483 15.9803 16.7205 16.0028C16.9323 16.0305 17.4123 16.1298 17.6669 16.4699C17.9955 16.9093 17.9841 17.8946 17.9841 17.8946C17.9841 17.8946 18.1729 20.6108 17.5427 20.9477C17.1107 21.1792 16.5181 20.7071 15.2441 18.547C14.5919 17.4408 14.0994 16.2179 14.0994 16.2179C14.0994 16.2179 14.0045 15.9895 13.8344 15.8666C13.6289 15.7181 13.3419 15.672 13.3419 15.672L10.2941 15.6915C10.2941 15.6915 9.83605 15.7038 9.66806 15.8994C9.51885 16.0725 9.65658 16.432 9.65658 16.432C9.65658 16.432 12.0429 21.9125 14.7453 24.6748C17.2234 27.2067 20.0365 27.0408 20.0365 27.0408H21.3115Z" fill="white"/>
</svg>
