<svg width="26" height="26" viewBox="0 0 26 26" fill="none" xmlns="http://www.w3.org/2000/svg">
<path fill-rule="evenodd" clip-rule="evenodd" d="M13.3857 25.9802C20.2893 25.9802 25.8857 20.3838 25.8857 13.4802C25.8857 6.57666 20.2893 0.980225 13.3857 0.980225C6.48218 0.980225 0.885742 6.57666 0.885742 13.4802C0.885742 20.3838 6.48218 25.9802 13.3857 25.9802Z" fill="#25D366"/>
<path fill-rule="evenodd" clip-rule="evenodd" d="M13.7976 20.4346H13.7945C12.5505 20.4341 11.3282 20.122 10.2425 19.5299L6.30225 20.5635L7.35673 16.7118C6.70627 15.5846 6.36401 14.3059 6.36456 12.9959C6.36619 8.89769 9.70059 5.56348 13.7975 5.56348C15.7859 5.56433 17.6522 6.33841 19.0555 7.74338C20.4588 9.14828 21.2312 11.0157 21.2304 13.0018C21.2288 17.099 17.8957 20.4329 13.7976 20.4346ZM10.4251 18.1844L10.6507 18.3183C11.5992 18.8812 12.6865 19.179 13.7951 19.1794H13.7976C17.2027 19.1794 19.9741 16.408 19.9755 13.0015C19.9761 11.3507 19.3341 9.79855 18.1677 8.6308C17.0013 7.46304 15.4502 6.81962 13.8001 6.81905C10.3923 6.81905 7.6209 9.59023 7.61955 12.9965C7.61907 14.1638 7.94569 15.3007 8.56411 16.2843L8.711 16.518L8.08689 18.7978L10.4251 18.1844ZM17.5426 14.7693C17.4962 14.6918 17.3724 14.6454 17.1866 14.5524C17.0009 14.4594 16.0878 14.0102 15.9175 13.9481C15.7473 13.8862 15.6235 13.8552 15.4997 14.0411C15.3759 14.227 15.02 14.6454 14.9116 14.7693C14.8033 14.8932 14.6949 14.9088 14.5093 14.8158C14.3236 14.7228 13.7251 14.5267 13.0157 13.894C12.4636 13.4015 12.0909 12.7933 11.9825 12.6074C11.8742 12.4215 11.971 12.321 12.064 12.2284C12.1475 12.1451 12.2497 12.0114 12.3426 11.903C12.4354 11.7946 12.4664 11.7171 12.5283 11.5932C12.5902 11.4692 12.5592 11.3608 12.5128 11.2678C12.4664 11.1748 12.0949 10.2607 11.9402 9.88879C11.7894 9.52664 11.6363 9.5757 11.5223 9.56997C11.4141 9.56454 11.2902 9.5634 11.1664 9.5634C11.0425 9.5634 10.8413 9.60988 10.6711 9.79582C10.5009 9.98175 10.0211 10.4311 10.0211 11.3452C10.0211 12.2593 10.6866 13.1425 10.7794 13.2664C10.8723 13.3904 12.089 15.2663 13.9521 16.0708C14.3952 16.2621 14.7411 16.3764 15.0109 16.462C15.4558 16.6034 15.8607 16.5834 16.1806 16.5356C16.5375 16.4823 17.2795 16.0863 17.4343 15.6525C17.589 15.2186 17.589 14.8468 17.5426 14.7693Z" fill="#FDFDFD"/>
<g style="mix-blend-mode:screen" opacity="0.1">
<path fill-rule="evenodd" clip-rule="evenodd" d="M13.3857 25.9802C20.2893 25.9802 25.8857 20.3838 25.8857 13.4802C25.8857 6.57666 20.2893 0.980225 13.3857 0.980225C6.48218 0.980225 0.885742 6.57666 0.885742 13.4802C0.885742 20.3838 6.48218 25.9802 13.3857 25.9802Z" fill="white"/>
</g>
</svg>
