<svg width="41" height="41" viewBox="0 0 41 41" fill="none" xmlns="http://www.w3.org/2000/svg">
<path fill-rule="evenodd" clip-rule="evenodd" d="M0.265137 20.4775C0.265137 9.43184 9.21944 0.477539 20.2651 0.477539C31.3108 0.477539 40.2651 9.43184 40.2651 20.4775C40.2651 31.5232 31.3108 40.4775 20.2651 40.4775C9.21944 40.4775 0.265137 31.5232 0.265137 20.4775Z" fill="#FF0000"/>
<path fill-rule="evenodd" clip-rule="evenodd" d="M30.4861 15.5384C30.2408 14.5959 29.5179 13.8537 28.6 13.6018C26.9365 13.144 20.2653 13.144 20.2653 13.144C20.2653 13.144 13.5941 13.144 11.9305 13.6018C11.0126 13.8537 10.2897 14.5959 10.0443 15.5384C9.59863 17.2466 9.59863 20.8107 9.59863 20.8107C9.59863 20.8107 9.59863 24.3747 10.0443 26.083C10.2897 27.0255 11.0126 27.7677 11.9305 28.0197C13.5941 28.4774 20.2653 28.4774 20.2653 28.4774C20.2653 28.4774 26.9365 28.4774 28.6 28.0197C29.5179 27.7677 30.2408 27.0255 30.4861 26.083C30.932 24.3747 30.932 20.8107 30.932 20.8107C30.932 20.8107 30.932 17.2466 30.4861 15.5384Z" fill="white"/>
<path fill-rule="evenodd" clip-rule="evenodd" d="M18.2651 24.4777V17.811L23.5985 21.1445L18.2651 24.4777Z" fill="#FF0000"/>
</svg>
