<svg width="43" height="33" viewBox="0 0 43 33" fill="none" xmlns="http://www.w3.org/2000/svg">
<path fill-rule="evenodd" clip-rule="evenodd" d="M41.9548 4.55229C41.4457 2.72521 40.0881 1.39643 38.2215 0.898136C33.8093 -0.264548 9.88207 -0.264548 5.46995 0.898136C3.60328 1.39643 2.2457 2.72521 1.73661 4.55229C0.548733 8.87083 0.548733 24.1518 1.73661 28.3043C2.2457 30.1313 3.60328 31.4601 5.46995 31.9584C9.88207 33.1211 33.8093 33.1211 38.2215 31.9584C40.0881 31.4601 41.4457 30.1313 41.9548 28.3043C43.1427 23.9857 43.1427 8.70473 41.9548 4.55229ZM16.1609 21.8265V11.1962C16.1609 10.3657 17.0093 9.86742 17.6881 10.3657L27.0215 15.6808C27.7002 16.013 27.7002 17.0096 27.0215 17.5079L17.6881 22.823C17.0093 23.1552 16.1609 22.6569 16.1609 21.9926V21.8265Z" fill="url(#paint0_linear)"/>
<defs>
<linearGradient id="paint0_linear" x1="1.57348" y1="23.082" x2="42.0841" y2="23.2512" gradientUnits="userSpaceOnUse">
<stop stop-color="#FE4C4C"/>
<stop offset="0.984375" stop-color="#FF7E21"/>
</linearGradient>
</defs>
</svg>
