<svg width="106" height="148" viewBox="0 0 106 148" fill="none" xmlns="http://www.w3.org/2000/svg">
<g opacity="0.52">
<path d="M125.578 118.984C121.378 124.372 116.976 129.709 111.715 134.111C105.577 139.236 98.4156 142.974 91.2897 146.742C100.149 137.357 106.661 126.113 114.71 116.022C117.455 112.588 120.406 109.272 124.075 106.767C126.068 105.405 128.246 104.328 130.574 103.506C132.774 102.758 134.839 102.451 133.949 105.393C132.403 110.367 128.707 114.894 125.578 118.984Z" fill="#F9F2F2"/>
<path d="M111.075 54.9723C113.663 65.1599 116.322 75.4089 120.856 84.9991C122.675 88.815 124.748 92.4808 126.857 96.1774C128.591 99.2374 130.43 102.39 133.318 104.41C133.187 100.577 131.94 96.8876 130.89 93.1845C128.685 85.1894 127.621 76.9501 124.607 69.2424C123.043 65.2766 120.925 61.4482 118.399 57.9459C116.059 54.7289 112.92 50.507 109.435 48.4616C109.712 50.5621 110.53 52.824 111.075 54.9723Z" fill="#F9F2F2"/>
<path d="M105.878 70.8945C103.758 67.9935 101.479 65.2028 99.1703 62.4472C95.3807 57.9059 91.4991 53.4702 87.5208 49.0743C87.2696 48.7935 86.7911 49.0582 86.9501 49.4447C88.6407 52.8388 89.5935 56.5818 90.7044 60.2145C94.6072 72.663 101.304 84.3233 110.195 94.1769C112.239 96.4539 114.441 98.6207 117.038 100.264C118.182 101.013 119.538 101.946 119.517 100.192C119.492 98.8694 118.71 97.1349 118.325 95.8698C116.577 90.1945 114.21 84.6612 111.333 79.4278C109.674 76.4951 107.888 73.6374 105.878 70.8945Z" fill="#F9F2F2"/>
<path d="M95.3125 120.502C85.8859 125.488 75.8287 129.492 66.8077 135.08C72.0373 128.295 78.526 122.484 85.3102 117.116C94.0734 110.188 103.607 103.87 114.409 100.577C115.933 100.108 120.023 98.8992 118.464 101.755C117.343 103.753 115.549 105.598 113.939 107.233C110.601 110.708 106.7 113.691 102.574 116.293C100.256 117.744 97.8019 119.138 95.3125 120.502Z" fill="#F9F2F2"/>
<path d="M85.6222 112.492C75.47 119.449 65.1906 126.481 53.6887 131.147C56.6001 127.734 59.4809 124.357 62.4275 120.975C64.2647 118.795 66.1677 116.611 68.181 114.585C73.6638 109.075 80.2784 104.613 87.5508 101.53C91.2177 99.9529 95.0437 98.7625 98.9935 97.9279C100.43 97.6304 102.614 97.1159 101.871 99.3196C101.29 100.982 98.9766 102.499 97.6955 103.614C93.8737 106.791 89.7656 109.657 85.6222 112.492Z" fill="#F9F2F2"/>
<path d="M39.21 126.711C46.8117 119.267 54.4135 111.823 62.9845 105.471C67.303 102.293 71.8726 99.3958 76.866 97.3634C79.4087 96.2944 82.0707 95.5152 84.7861 95.0304C85.3749 94.9237 87.813 94.2593 88.1663 95.0629C88.4094 95.7086 85.995 97.1993 85.4948 97.6311C76.4246 104.911 66.9624 111.788 56.8696 117.681C51.1054 121.025 45.2525 124.044 39.21 126.711Z" fill="#F9F2F2"/>
<path d="M27.1797 109.722C35.2174 104.765 43.2903 99.8379 51.9677 95.9957C56.3064 94.0747 60.8655 92.4696 65.545 91.651C67.9353 91.2548 70.4051 91.0519 72.8624 91.1478C73.359 91.1468 75.6356 91.0233 75.7559 91.8099C75.832 92.4339 73.4689 93.2256 72.9244 93.4949C63.6331 98.0416 54.1124 102.141 44.2292 105.304C38.6244 107.113 32.931 108.598 27.1797 109.722Z" fill="#F9F2F2"/>
<path d="M100.952 92.6931C100.381 90.646 99.8047 88.533 99.2334 86.4859C98.6087 84.1444 97.9182 81.8075 97.131 79.5103C93.1165 68.3279 85.1191 58.9427 77.1183 49.9883C77.9504 54.8656 80.0522 59.4236 81.7937 64.0396C84.2111 70.2981 86.0442 76.7292 88.8174 82.8638C90.6544 86.9434 92.9484 90.9253 95.9005 94.3651C96.8744 95.5235 98.823 98.3369 100.655 98.0122C102.813 97.5989 101.311 94.0593 100.952 92.6931Z" fill="#F9F2F2"/>
<path d="M87.6243 92.4838C83.1132 75.0433 74.6877 58.4681 63.0496 44.2995C64.911 51.6228 67.4271 58.8349 70.2945 65.8572C73.0823 72.6863 76.1906 79.3609 80.1333 85.647C81.549 87.934 83.0966 90.2121 84.7363 92.3844C85.1374 92.9198 86.4917 95.2773 87.1509 95.232C88.3068 95.1856 87.8014 93.134 87.6243 92.4838Z" fill="#F9F2F2"/>
<path d="M74.8187 89.258C66.4356 76.1903 55.0584 64.8518 41.8542 56.3215C45.3777 61.8084 49.3796 67.0306 53.5965 72.0063C57.7031 76.8239 62.0644 81.4915 66.9168 85.5955C68.7088 87.095 70.5623 88.5241 72.4772 89.8826C72.9306 90.2158 74.6613 91.7857 75.1796 91.6176C76.0844 91.2904 75.1186 89.7672 74.8187 89.258Z" fill="#F9F2F2"/>
<path d="M57.018 86.1434C61.1002 87.7172 65.3485 88.816 69.5093 90.0864C73.903 91.3739 78.2309 92.6659 82.5894 93.9226C91.2712 96.4055 99.9087 98.7258 108.786 100.202C125.873 103.067 143.104 105.624 160.342 107.32C170.344 108.288 180.41 108.755 190.471 108.659C191.728 108.639 191.637 106.824 190.41 106.809C172.89 106.788 155.41 104.944 138.056 102.527C120.768 100.106 103.515 97.7161 86.6619 92.9471C81.934 91.6164 77.2061 90.2857 72.4783 88.9549C67.5481 87.5719 62.569 85.9604 57.5035 85.0172C56.7602 84.8033 56.2701 85.8637 57.018 86.1434Z" fill="#F9F2F2"/>
<path d="M25.3586 64.9403C28.716 70.9023 34.6367 75.1315 40.8191 78.3492C43.6704 79.8421 46.6048 81.0975 49.5131 82.454C50.9825 83.1146 52.452 83.7753 53.8908 84.4711C55.2284 85.1409 56.725 86.197 58.1411 86.5633C58.7756 85.195 54.7949 81.7265 53.8654 80.7307C52.0461 78.8356 50.104 77.0815 48.0085 75.5035C43.7776 72.251 39.0205 69.5313 34.0495 67.555C31.256 66.4224 28.3488 65.5626 25.3586 64.9403Z" fill="#F9F2F2"/>
<path d="M19.9336 94.4231C25.1286 90.0256 32.1576 88.2175 39.092 87.4426C42.2472 87.0932 45.4819 86.937 48.6814 86.7501C50.2635 86.6413 51.8809 86.5632 53.4937 86.4191C54.9747 86.2842 56.7626 85.7969 58.2004 85.9961C58.3046 87.5123 53.3943 89.3072 52.1428 89.89C49.8024 91.0113 47.3472 91.9087 44.8522 92.7095C39.726 94.2543 34.3828 95.0522 28.9545 95.0943C25.9437 95.1358 22.9147 94.9136 19.9336 94.4231Z" fill="#F9F2F2"/>
</g>
</svg>
