<svg width="92" height="135" viewBox="0 0 92 135" fill="none" xmlns="http://www.w3.org/2000/svg">
<g opacity="0.52">
<path d="M-23.8401 106.39C-18.1675 112.128 -11.5636 117.088 -3.90971 120.119C-1.83598 120.951 0.314702 121.617 2.46538 122.283C4.83242 123.033 7.24432 123.792 9.61937 124.499C8.75569 123.392 7.51373 122.577 6.37757 121.691C2.75272 118.948 -0.120363 115.395 -3.13131 112.088C-9.19007 105.421 -16.0583 99.3739 -23.5965 94.1969C-25.6108 92.7885 -27.6412 91.4674 -29.8463 90.3401C-31.537 89.4427 -34.9232 87.4212 -36.965 87.6786C-39.7729 88.0663 -36.0841 91.7239 -35.3758 92.6668C-33.7014 94.9159 -31.982 97.1734 -30.2018 99.3516C-28.1475 101.806 -26.0691 104.129 -23.8401 106.39Z" fill="#F9F2F2"/>
<path d="M18.5114 111.681C11.2363 104.565 3.87141 97.4328 -4.7325 91.744C-8.1683 89.4876 -11.742 87.4769 -15.3605 85.4579C-18.346 83.7809 -21.4662 82.0792 -24.8958 81.8109C-22.8641 84.8933 -19.97 87.3212 -17.2346 89.8555C-11.3793 95.3558 -6.35736 101.606 0.0301842 106.482C3.32812 108.984 7.02037 111.107 10.8906 112.765C14.4627 114.279 19.2063 116.234 23.1489 116.235C21.8637 114.644 20.0449 113.181 18.5114 111.681Z" fill="#F9F2F2"/>
<path d="M14.8759 96.1116C18.105 97.4721 21.4112 98.6661 24.7253 99.8163C30.1741 101.72 35.647 103.492 41.1807 105.185C41.5317 105.295 41.7994 104.847 41.4725 104.607C38.3556 102.634 35.6811 100.021 32.9297 97.5743C23.4206 89.2356 11.9688 82.8886 -0.412806 79.0804C-3.26543 78.1954 -6.19499 77.477 -9.19196 77.3785C-10.5254 77.3143 -12.128 77.2008 -11.2307 78.6299C-10.5465 79.7038 -9.02254 80.7513 -8.06587 81.6043C-3.75683 85.4208 0.999406 88.8228 6.03137 91.7334C8.8903 93.342 11.8182 94.8278 14.8759 96.1116Z" fill="#F9F2F2"/>
<path d="M-1.1617 50.3125C4.22604 41.6829 10.6346 33.5568 15.3813 24.6288C14.4074 32.7139 11.8917 40.6064 8.90651 48.2772C5.04754 58.1809 0.238205 67.9554 -7.14956 75.8566C-8.18984 76.9752 -11.0061 79.9354 -11.1339 76.8412C-11.1977 74.6619 -10.622 72.2839 -10.0945 70.168C-9.04411 65.7095 -7.27578 61.3829 -5.12764 57.2614C-3.91571 54.955 -2.56115 52.6297 -1.1617 50.3125Z" fill="#F9F2F2"/>
<path d="M10.9651 52.2223C15.9717 41.626 21.0472 30.9069 28.3326 21.5419C27.6076 25.7439 26.8906 29.9023 26.1208 34.0962C25.6765 36.7693 25.1793 39.4778 24.5106 42.1097C22.6858 49.2709 19.3882 56.1167 14.8486 62.1474C12.5708 65.2064 9.96608 68.0248 7.07933 70.6108C6.02625 71.5464 4.45705 73.0195 3.97334 70.8535C3.62579 69.2091 4.80086 66.8509 5.31393 65.3193C6.9188 60.8724 8.91952 56.5432 10.9651 52.2223Z" fill="#F9F2F2"/>
<path d="M42.6738 18.2141C40.0457 27.9826 37.4176 37.751 33.4305 47.0893C31.4105 51.7762 29.0395 56.3535 25.8801 60.4248C24.2884 62.526 22.4515 64.4467 20.4223 66.1515C19.9831 66.5225 18.276 68.2412 17.5773 67.7517C17.0501 67.3388 18.3229 64.9533 18.525 64.3582C22.4641 54.0176 26.9338 43.8195 32.4242 34.1249C35.571 28.6062 38.9549 23.3117 42.6738 18.2141Z" fill="#F9F2F2"/>
<path d="M61.2637 26.3669C57.0235 34.3041 52.7385 42.233 47.4039 49.5628C44.7365 53.2277 41.7262 56.7393 38.2208 59.6633C36.4192 61.1389 34.4542 62.4942 32.3497 63.5981C31.9346 63.838 30.0914 65.035 29.5962 64.4474C29.2197 63.9719 30.8001 62.1847 31.1207 61.7017C36.6158 53.4982 42.5275 45.5517 49.2116 38.1987C52.9945 34.0161 57.0145 30.0576 61.2637 26.3669Z" fill="#F9F2F2"/>
<path d="M8.06649 75.85C9.5712 77.2551 11.1128 78.7122 12.6175 80.1174C14.3145 81.7385 16.0644 83.3241 17.8752 84.8306C26.8427 92.0764 38.2419 95.9301 49.428 99.4285C46.2857 95.8261 42.2409 93.0967 38.4687 90.1463C33.307 86.1732 28.5477 81.7772 23.1505 78.077C19.5672 75.6129 15.6506 73.4489 11.455 72.0465C10.0592 71.5645 7.01753 70.1933 5.64709 71.3416C4.04905 72.7191 7.08098 74.9014 8.06649 75.85Z" fill="#F9F2F2"/>
<path d="M19.324 69.6066C31.8456 81.7496 47.209 91.2984 64.0538 97.3258C58.8234 92.2111 53.1009 87.5029 47.1797 83.1194C41.4219 78.8562 35.4733 74.8742 29.0215 71.6125C26.6898 70.4168 24.2523 69.292 21.7907 68.2982C21.1865 68.0519 18.8709 66.7688 18.3419 67.1233C17.3979 67.7177 18.8497 69.1583 19.324 69.6066Z" fill="#F9F2F2"/>
<path d="M31.658 66.0912C45.2268 72.7817 60.434 76.6119 75.7617 77.258C70.0615 74.4504 64.0935 72.0905 58.0693 70.0363C52.2167 68.0588 46.2262 66.3269 40.1073 65.294C37.8556 64.9258 35.5879 64.645 33.3042 64.4516C32.7577 64.3964 30.522 63.9409 30.1726 64.3283C29.5795 65.0323 31.1516 65.8176 31.658 66.0912Z" fill="#F9F2F2"/>
<path d="M48.1161 60.0808C43.9106 60.7539 39.8045 61.8967 35.6855 62.8566C31.363 63.9146 27.0933 64.9372 22.8157 66.0034C14.3052 68.1441 5.91338 70.3969 -2.25582 73.4583C-17.9916 79.3304 -33.6937 85.5247 -48.9696 92.4295C-57.8249 96.4487 -66.4831 100.911 -74.8545 105.831C-75.8963 106.453 -74.9093 107.899 -73.8755 107.321C-59.2035 98.9051 -43.6504 92.0061 -27.9161 85.637C-12.2348 79.3033 3.40165 72.9615 19.8968 68.7642C24.5207 67.5808 29.1445 66.3975 33.7684 65.2142C38.5878 63.9765 43.5626 62.9027 48.2746 61.2389C49.0039 61.0566 48.8822 59.9505 48.1161 60.0808Z" fill="#F9F2F2"/>
<path d="M85.2452 62.2453C79.4457 58.9679 72.37 58.3464 65.5827 58.681C62.4478 58.8281 59.3627 59.2101 56.2486 59.4964C54.6876 59.6615 53.1266 59.8265 51.5736 59.9478C50.1184 60.042 48.3362 59.8954 46.9675 60.2764C47.1228 61.7048 52.1935 62.6356 53.4707 63.0056C55.9436 63.6853 58.4484 64.1903 60.9934 64.4768C66.1651 65.1101 71.51 65.0526 76.6611 64.2821C79.5668 63.8672 82.4308 63.1737 85.2452 62.2453Z" fill="#F9F2F2"/>
<path d="M74.9971 35.4361C72.8551 41.5456 67.8797 46.4125 62.4654 50.386C60.0002 52.1914 57.3716 53.8765 54.7879 55.5698C53.5185 56.4205 52.2042 57.2631 50.9268 58.1575C49.7551 58.9811 48.5032 60.2415 47.2002 60.77C46.3526 59.5757 49.5616 55.7393 50.3166 54.6587C51.7128 52.6119 53.3173 50.6937 55.0036 48.8357C58.5188 45.1006 62.59 41.874 67.1114 39.2269C69.6102 37.7438 72.2564 36.4684 74.9971 35.4361Z" fill="#F9F2F2"/>
</g>
</svg>
