<svg width="219" height="348" viewBox="0 0 219 348" fill="none" xmlns="http://www.w3.org/2000/svg">
<path d="M-31.1425 178.473C-33.1924 163.667 -33.0225 148.421 -28.7836 133.897C-27.6516 129.949 -26.1842 126.083 -24.7167 122.217C-23.1283 117.941 -21.5008 113.591 -19.8382 109.355C-19.1793 111.879 -19.3864 114.61 -19.3673 117.271C-19.4309 125.662 -17.4307 133.91 -15.9533 142.072C-12.9634 158.508 -11.8188 175.393 -12.7342 192.235C-12.9416 196.765 -13.2973 201.216 -14.1406 205.695C-14.738 209.167 -15.6012 216.38 -18.3169 219.021C-22.1017 222.613 -23.3253 213.071 -23.918 210.96C-25.3491 205.947 -26.7411 200.859 -27.9459 195.776C-29.2481 189.978 -30.328 184.297 -31.1425 178.473Z" fill="#F9F2F2"/>
<path d="M-14.2188 261.222C-4.34993 271.246 7.01338 279.69 18.9932 287.323C13.4115 280.124 7.71658 272.96 2.78253 265.25C-0.302727 260.502 -3.08363 255.535 -6.28203 250.822C-9.62474 245.844 -13.5371 241.228 -17.7187 236.943C-20.3595 234.228 -23.2656 231.656 -26.597 229.713C-28.9649 228.277 -34.3756 225.428 -37.177 226.793C-35.6252 233.196 -31.1903 239.696 -27.481 245.057C-23.7053 250.831 -19.1728 256.247 -14.2188 261.222Z" fill="#F9F2F2"/>
<path d="M29.4135 260.339C41.2883 265.833 54.1738 269.588 67.5045 269.98C60.6855 266.39 53.8275 262.874 47.0086 259.284C41.7461 256.513 36.4446 253.817 31.5684 250.492C27.1721 247.515 23.1971 244.097 19.07 240.788C14.0223 236.71 9.00968 232.746 3.73175 228.925C-0.953225 225.418 -5.86448 221.98 -11.3611 219.654C-13.0698 218.943 -17.9616 216.368 -19.8539 217.265C-22.9166 218.587 -19.168 222.075 -18.0719 223.41C-10.0756 233.394 -0.592806 242.174 10.045 249.478C16.2163 253.58 22.6217 257.236 29.4135 260.339Z" fill="#F9F2F2"/>
<path d="M26.5743 227.793C37.0835 234.084 47.8971 240.156 59.542 244.11C73.1218 248.703 87.5135 250.317 101.866 252.004C80.98 242.049 62.8137 227.467 42.825 215.807C36.0139 211.842 28.9335 208.209 21.178 206.398C16.9647 205.41 12.6265 205.019 8.20237 205.151C4.03964 205.326 0.3879 206.149 3.78142 210.492C9.58552 217.808 18.6943 222.982 26.5743 227.793Z" fill="#F9F2F2"/>
<path d="M9.38248 111.391C11.6503 130.099 13.8402 148.954 12.4681 167.922C11.8974 175.479 10.8039 182.95 9.67145 190.495C8.75375 196.733 7.71897 203.193 4.19923 208.44C1.93741 201.948 1.6341 194.972 0.991373 188.102C-0.496794 173.308 -4.05269 158.845 -4.00374 144.008C-3.95582 136.366 -2.89354 128.594 -0.937898 121.104C0.892814 114.211 3.40656 105.121 7.90949 99.4454C8.80626 103.136 8.90319 107.447 9.38248 111.391Z" fill="#F9F2F2"/>
<path d="M28.3784 134.646C30.0452 128.423 32.0474 122.283 34.1238 116.182C37.5194 106.136 41.1374 96.208 44.9426 86.2836C45.1806 85.6516 46.1521 85.7844 46.1363 86.5335C45.5073 93.3021 46.3372 100.176 46.8317 106.969C48.3655 130.307 44.7182 154.135 36.2335 176.364C34.2899 181.494 32.0109 186.542 28.7331 190.969C27.3049 192.963 25.6426 195.401 24.5429 192.455C23.7278 190.227 23.9117 186.821 23.7365 184.457C22.985 173.838 23.3611 163.054 24.7827 152.443C25.6575 146.466 26.7936 140.533 28.3784 134.646Z" fill="#F9F2F2"/>
<path d="M78.1518 210.74C97.1392 212.975 116.544 213.157 135.243 216.659C122.108 208.703 107.499 203.188 92.6821 198.606C73.547 192.696 53.5183 188.304 33.3288 189.792C30.4769 189.994 22.8575 190.621 27.3123 194.387C30.4798 197.001 34.6734 198.925 38.4223 200.615C46.2517 204.264 54.7055 206.727 63.2882 208.405C68.1023 209.331 73.1075 210.073 78.1518 210.74Z" fill="#F9F2F2"/>
<path d="M89.1684 191.075C110.644 196.135 132.382 201.237 154.631 201.591C147.554 197.771 140.552 193.989 133.437 190.243C128.954 187.788 124.359 185.369 119.682 183.285C106.949 177.622 93.0019 174.445 78.848 173.998C71.6969 173.735 64.5301 174.222 57.3866 175.384C54.7922 175.816 50.8089 176.37 53.4769 179.573C55.5248 181.977 60.3739 183.015 63.2374 184.049C71.6833 186.887 80.4063 189.018 89.1684 191.075Z" fill="#F9F2F2"/>
<path d="M175.966 184.803C158.438 177.279 140.911 169.755 122.47 164.684C113.193 162.167 103.678 160.281 94.0142 160.116C89.0713 159.974 84.1165 160.395 79.2632 161.342C78.2098 161.545 73.7037 162.013 73.6332 163.585C73.6448 164.822 78.6461 165.751 79.7618 166.149C99.6381 172.448 119.909 177.82 140.597 181.139C152.398 182.997 164.137 184.255 175.966 184.803Z" fill="#F9F2F2"/>
<path d="M185.081 148.612C168.434 145.527 151.749 142.517 134.755 141.711C126.258 141.308 117.597 141.576 109.244 143.237C104.991 144.122 100.731 145.381 96.6848 147.132C95.8538 147.452 91.9679 148.719 92.2759 150.112C92.5528 151.205 97.0159 150.998 98.1005 151.096C116.577 152.683 135.147 153.372 153.717 152.263C164.259 151.66 174.738 150.456 185.081 148.612Z" fill="#F9F2F2"/>
<path d="M50.7244 167.9C50.3544 164.108 49.9492 160.202 49.5791 156.41C49.1077 152.091 48.7494 147.738 48.5784 143.388C48.0509 122.094 55.3454 101.227 62.9247 81.0778C64.6907 89.7702 64.1276 98.751 64.2044 107.595C64.2143 119.623 65.3128 131.561 64.6478 143.612C64.2175 151.622 62.9601 159.763 60.2515 167.425C59.3734 169.992 57.9368 175.957 54.6635 176.6C50.7894 177.306 51.0089 170.416 50.7244 167.9Z" fill="#F9F2F2"/>
<path d="M72.8696 158.922C69.1212 126.845 72.4772 93.6806 82.7617 62.4598C84.3905 75.9079 84.8528 89.5938 84.605 103.19C84.3651 116.411 83.4894 129.582 80.9672 142.643C80.0809 147.383 78.9684 152.193 77.6334 156.886C77.3095 158.041 76.5714 162.859 75.44 163.21C73.4775 163.881 72.9943 160.124 72.8696 158.922Z" fill="#F9F2F2"/>
<path d="M92.1907 145.24C97.7462 117.966 109.427 91.6458 125.979 68.8372C123.641 80.2911 120.331 91.6122 116.502 102.66C112.755 113.373 108.486 123.999 103.03 134.001C101.005 137.668 98.8314 141.257 96.5096 144.768C95.9672 145.619 94.0901 149.364 93.1147 149.418C91.3904 149.457 92.0189 146.285 92.1907 145.24Z" fill="#F9F2F2"/>
<path d="M119.931 128.511C114.126 133.784 107.735 138.371 101.601 143.189C95.089 148.185 88.6901 153.147 82.2171 158.069C69.3102 167.84 56.372 177.311 42.4861 185.525C15.7754 201.376 -11.3761 216.806 -39.0969 230.8C-55.191 238.893 -71.7181 246.19 -88.6 252.542C-90.7146 253.322 -91.7363 250.228 -89.6958 249.409C-60.4187 238.034 -32.3896 223.634 -4.94161 208.36C22.3932 193.122 49.689 177.958 74.7772 159.075C81.8198 153.79 88.8624 148.504 95.9051 143.219C103.252 137.715 110.533 131.798 118.391 126.942C119.495 126.104 121.001 127.559 119.931 128.511Z" fill="#F9F2F2"/>
<path d="M159.136 72.5676C157.382 84.7083 150.222 95.6114 141.969 104.993C138.169 109.334 134.076 113.333 130.092 117.483C128.063 119.539 126.034 121.595 124.079 123.689C122.276 125.675 120.458 128.409 118.328 129.938C116.381 128.062 120.791 119.686 121.7 117.42C123.515 113.074 125.626 108.884 128.108 104.889C133.076 96.713 139.268 89.0868 146.299 82.5648C150.236 78.8631 154.54 75.5437 159.136 72.5676Z" fill="#F9F2F2"/>
<path d="M187.289 118.346C175.757 114.357 162.836 115.884 150.742 119.078C145.24 120.536 139.732 122.369 134.262 124.128C131.546 124.97 128.792 125.886 126.002 126.69C123.439 127.423 120.134 127.765 117.86 129.029C118.667 131.631 128.038 131.453 130.508 131.618C135.146 131.977 139.832 131.888 144.521 131.612C154.091 130.876 163.54 128.751 172.643 125.307C177.703 123.428 182.623 121.095 187.289 118.346Z" fill="#F9F2F2"/>
</svg>
