<svg width="166" height="130" viewBox="0 0 166 130" fill="none" xmlns="http://www.w3.org/2000/svg">
<path d="M138.173 17.5362C136.798 14.0512 135.423 10.5661 134.43 6.97214C132.819 1.14534 132.295 -4.9722 132.824 -11.0337C132.938 -12.5281 134.92 -12.9535 135.57 -11.677C136.858 -9.07607 138.135 -6.4273 139.363 -3.79031C140.567 -1.2608 141.712 1.30479 142.678 3.97858C146.335 13.8617 147.556 24.5663 147.737 35.1671C147.783 37.868 148.189 41.1653 147.589 43.8089C145.733 39.5964 144.605 34.9034 143.084 30.5702C141.478 26.1657 139.849 21.8569 138.173 17.5362Z" fill="#F9F2F2"/>
<path d="M132.16 20.7245C135.428 28.888 137.491 37.6175 137.129 46.5111C137.042 48.9257 136.752 51.341 136.461 53.7563C136.16 56.4227 135.847 59.1369 135.498 61.7915C134.764 60.4435 134.496 58.8549 134.108 57.3384C132.955 52.5378 130.645 48.1119 128.645 43.661C124.609 34.6995 121.563 25.2205 119.699 15.4743C119.176 12.8587 118.749 10.2667 118.596 7.59C118.445 5.52285 117.916 1.2818 119.092 -0.610819C120.744 -3.19835 122.795 2.07709 123.432 3.19829C124.96 5.85812 126.475 8.5658 127.884 11.2978C129.448 14.4236 130.87 17.5141 132.16 20.7245Z" fill="#F9F2F2"/>
<path d="M85.9848 -17.4404C78.426 -18.8954 70.5366 -19.2138 62.8694 -17.549C67.2715 -16.4652 71.6855 -15.4292 76.0877 -14.3453C79.4851 -13.5089 82.8942 -12.7203 86.1494 -11.5128C89.0815 -10.4357 91.8354 -9.04715 94.6608 -7.74253C98.1206 -6.12943 101.544 -4.57596 105.099 -3.14248C108.271 -1.80325 111.563 -0.536147 115.031 0.0131991C116.107 0.17668 119.265 0.954221 120.218 0.173935C121.78 -1.01489 119.145 -2.47556 118.33 -3.0822C112.35 -7.65038 105.692 -11.3197 98.5826 -13.9835C94.4778 -15.4509 90.3024 -16.6312 85.9848 -17.4404Z" fill="#F9F2F2"/>
<path d="M92.2171 0.740239C85.3252 -1.36258 78.2906 -3.29755 71.0813 -3.90524C62.6766 -4.60426 54.2306 -3.48645 45.7963 -2.41648C59.1325 0.308708 71.5711 6.06095 84.6364 9.88668C89.0871 11.1855 93.6447 12.2568 98.3296 12.1923C100.875 12.1593 103.408 11.7678 105.915 11.0656C108.267 10.3759 110.236 9.38882 107.683 7.39001C103.332 4.03511 97.3981 2.37109 92.2171 0.740239Z" fill="#F9F2F2"/>
<path d="M118.525 64.7687C114.58 54.4085 110.658 43.9526 108.754 32.9278C108.009 28.5321 107.575 24.1114 107.153 19.6429C106.793 15.951 106.469 12.1156 107.735 8.6211C109.946 12.0076 111.108 15.9476 112.448 19.7793C115.394 28.0157 119.473 35.7699 121.547 44.2483C122.603 48.619 123.097 53.2068 123.042 57.7607C122.973 61.956 122.826 67.5023 121.059 71.381C120.024 69.4007 119.358 66.9529 118.525 64.7687Z" fill="#F9F2F2"/>
<path d="M104.384 54.1815C104.314 57.9705 104.041 61.7602 103.72 65.5382C103.204 71.7551 102.545 77.9366 101.778 84.1424C101.732 84.537 101.158 84.5988 101.061 84.1689C100.461 80.2149 99.0136 76.4074 97.769 72.5992C93.5868 59.4909 92.2933 45.3683 93.9886 31.474C94.3715 28.2696 94.9577 25.0643 96.202 22.0719C96.735 20.7314 97.3387 19.1037 98.384 20.6299C99.165 21.7864 99.5426 23.7571 99.9776 25.0822C101.911 31.0394 103.224 37.2497 103.916 43.51C104.263 47.0466 104.455 50.5956 104.384 54.1815Z" fill="#F9F2F2"/>
<path d="M65.1827 17.7848C54.0246 19.1992 42.9187 21.8444 31.746 22.4939C40.3729 25.1762 49.4961 26.2551 58.6054 26.7723C70.3685 27.4354 82.4268 27.1055 93.744 23.3958C95.3437 22.8761 99.6054 21.4386 96.5283 19.9198C94.3493 18.8758 91.6823 18.3714 89.3023 17.9377C84.3148 16.9635 79.1389 16.7549 74.0004 17.0123C71.1206 17.166 68.1575 17.4515 65.1827 17.7848Z" fill="#F9F2F2"/>
<path d="M61.6787 30.5742C48.6994 30.7281 35.5648 30.8946 22.8106 33.8445C27.3924 35.0233 31.9264 36.1904 36.52 37.3213C39.4271 38.0878 42.3938 38.8182 45.3597 39.3455C53.4324 40.7748 61.846 40.6132 69.991 38.863C74.1113 37.9997 78.1345 36.7065 82.0488 35.0312C83.4689 34.4165 85.6649 33.5362 83.6876 32.0851C82.1778 31.0029 79.2619 31.097 77.4804 30.9121C72.2558 30.4886 66.9731 30.5074 61.6787 30.5742Z" fill="#F9F2F2"/>
<path d="M13.0074 46.4529C24.0814 48.2659 35.1554 50.0788 46.4032 50.3613C52.057 50.4845 57.7571 50.2132 63.2982 48.9384C66.1406 48.3187 68.9101 47.3765 71.5471 46.148C72.1198 45.883 74.6265 44.9777 74.444 44.07C74.2622 43.3655 71.2748 43.5435 70.5813 43.4742C58.3397 42.6933 46.0046 42.4984 33.7217 43.5343C26.72 44.1449 19.8391 45.0898 13.0074 46.4529Z" fill="#F9F2F2"/>
<path d="M12.9304 68.4087C22.8723 67.8114 32.826 67.1663 42.6435 65.2189C47.5523 64.2452 52.4596 62.8651 56.9938 60.7334C59.2965 59.6256 61.5507 58.3028 63.6128 56.7297C64.042 56.4294 66.0812 55.1552 65.708 54.4036C65.3952 53.8191 62.876 54.5691 62.2429 54.667C51.4684 56.3787 40.7674 58.6161 30.3211 61.8805C24.3875 63.7184 18.5747 65.8906 12.9304 68.4087Z" fill="#F9F2F2"/>
<path d="M86.9131 38.36C87.6617 40.4728 88.4464 42.6453 89.1949 44.7581C90.076 47.1573 90.8974 49.5926 91.6114 52.0521C94.9294 64.1356 93.7207 77.0839 92.2478 89.6627C90.0079 84.9496 89.057 79.742 87.7602 74.7029C86.0504 67.8366 83.7318 61.1757 82.4041 54.2005C81.5151 49.5663 81.0795 44.7393 81.5406 39.9808C81.6783 38.3907 81.6534 34.7813 83.4313 33.9502C85.5434 32.9985 86.3942 36.9635 86.9131 38.36Z" fill="#F9F2F2"/>
<path d="M75.5409 46.624C82.2258 64.4086 85.0083 83.8206 83.5593 103.104C80.724 95.6564 78.5211 87.9074 76.7362 80.1092C75 72.5259 73.6341 64.8815 73.2237 57.0664C73.0582 54.2344 73.0119 51.3302 73.1092 48.4614C73.1306 47.7561 72.8694 44.9006 73.4657 44.5399C74.4912 43.8789 75.2994 45.9556 75.5409 46.624Z" fill="#F9F2F2"/>
<path d="M66.4471 57.1739C67.139 73.5337 64.1987 90.2172 57.9789 105.586C57.6914 98.7144 57.9773 91.7812 58.5983 84.9305C59.2199 78.283 60.1522 71.6105 61.8501 65.1265C62.487 62.7458 63.2196 60.3886 64.0479 58.055C64.2371 57.4926 64.7783 55.0883 65.3275 54.919C66.3066 54.6526 66.3971 56.5526 66.4471 57.1739Z" fill="#F9F2F2"/>
<path d="M52.9776 70.6559C55.5455 66.8221 58.5448 63.2975 61.3645 59.6779C64.3748 55.9023 67.3255 52.1627 70.3241 48.4349C76.3095 41.0272 82.3552 33.7866 89.1201 27.1291C102.126 14.294 115.443 1.63712 129.288 -10.2807C137.331 -17.1818 145.734 -23.6898 154.473 -29.709C155.57 -30.4539 156.592 -28.8321 155.543 -28.0754C140.438 -17.4319 126.474 -5.23883 112.965 7.37097C99.5165 19.9447 86.0795 32.4706 74.4298 46.8068C71.1573 50.8224 67.8849 54.838 64.6125 58.8536C61.1972 63.037 57.8784 67.4472 54.0796 71.3332C53.5679 71.9685 52.502 71.3508 52.9776 70.6559Z" fill="#F9F2F2"/>
<path d="M38.5183 108.153C37.7994 100.973 40.3432 93.7327 43.7262 87.2068C45.2811 84.1894 47.0517 81.3265 48.7384 78.3923C49.6057 76.931 50.4729 75.4698 51.2924 73.9968C52.0404 72.6077 52.6912 70.7886 53.691 69.6138C55.0683 70.4096 53.7371 75.8167 53.539 77.2397C53.1185 79.9782 52.5066 82.6695 51.6555 85.302C49.9775 90.6744 47.5221 95.9062 44.4315 100.626C42.708 103.298 40.721 105.803 38.5183 108.153Z" fill="#F9F2F2"/>
<path d="M15.9574 86.0034C23.107 86.6472 30.2685 83.9443 36.7219 80.4074C39.6563 78.7953 42.5421 76.9683 45.4162 75.1892C46.8473 74.3235 48.2902 73.41 49.7692 72.5561C51.129 71.7744 52.9672 71.1105 54.0869 70.0666C53.2574 68.6951 47.9319 70.1245 46.4986 70.3806C43.799 70.8325 41.1363 71.5472 38.4979 72.3693C33.1378 74.1454 28.0434 76.6974 23.334 79.9533C20.711 81.7435 18.2322 83.7722 15.9574 86.0034Z" fill="#F9F2F2"/>
</svg>
