<svg width="346" height="392" viewBox="0 0 346 392" fill="none" xmlns="http://www.w3.org/2000/svg">
<path d="M294.62 203.954C293.672 211.063 292.724 218.172 292.536 225.308C292.23 236.876 294.077 248.484 297.853 259.503C298.754 262.227 302.634 262.103 303.253 259.432C304.447 254.006 305.598 248.496 306.664 243.03C307.736 237.775 308.68 232.48 309.241 227.067C311.479 207.019 308.814 186.566 304.263 166.787C303.103 161.747 302.337 155.434 300.003 150.799C298.498 159.481 298.565 168.721 297.736 177.473C296.784 186.397 295.744 195.153 294.62 203.954Z" fill="#F9F2F2"/>
<path d="M281.979 200.802C284.288 184.127 284.096 166.957 279.322 150.6C278.048 146.153 276.395 141.8 274.742 137.446C272.953 132.63 271.12 127.732 269.248 122.96C268.506 125.803 268.739 128.879 268.718 131.875C268.789 141.326 266.537 150.615 264.873 159.807C261.506 178.318 260.217 197.334 261.247 216.301C261.481 221.402 261.882 226.415 262.831 231.459C263.504 235.369 264.476 243.493 267.535 246.467C271.797 250.513 273.175 239.766 273.843 237.389C275.454 231.743 277.022 226.013 278.379 220.288C279.845 213.759 281.062 207.361 281.979 200.802Z" fill="#F9F2F2"/>
<path d="M262.919 293.994C251.805 305.283 239.007 314.793 225.516 323.389C231.802 315.282 238.216 307.214 243.772 298.531C247.247 293.184 250.379 287.59 253.981 282.282C257.745 276.675 262.152 271.477 266.861 266.652C269.835 263.593 273.108 260.697 276.86 258.509C279.527 256.891 285.62 253.683 288.775 255.22C287.027 262.431 282.033 269.751 277.855 275.789C273.603 282.292 268.498 288.391 262.919 293.994Z" fill="#F9F2F2"/>
<path d="M213.78 293C200.407 299.188 185.895 303.417 170.882 303.858C178.561 299.815 186.285 295.855 193.965 291.812C199.891 288.691 205.862 285.654 211.353 281.91C216.305 278.557 220.781 274.708 225.429 270.981C231.114 266.389 236.759 261.924 242.703 257.622C247.979 253.671 253.511 249.8 259.701 247.18C261.625 246.38 267.134 243.479 269.266 244.49C272.715 245.979 268.493 249.907 267.259 251.41C258.253 262.655 247.574 272.542 235.593 280.769C228.643 285.388 221.429 289.506 213.78 293Z" fill="#F9F2F2"/>
<path d="M216.978 256.347C205.142 263.431 192.964 270.27 179.849 274.722C164.556 279.896 148.348 281.713 132.184 283.613C155.706 272.402 176.165 255.98 198.676 242.848C206.347 238.383 214.321 234.291 223.055 232.251C227.8 231.139 232.686 230.699 237.668 230.848C242.356 231.045 246.469 231.971 242.647 236.862C236.111 245.101 225.852 250.928 216.978 256.347Z" fill="#F9F2F2"/>
<path d="M236.34 125.254C233.785 146.322 231.319 167.557 232.865 188.919C233.507 197.43 234.739 205.844 236.014 214.341C237.048 221.366 238.213 228.642 242.177 234.551C244.724 227.239 245.066 219.383 245.79 211.646C247.466 194.985 251.47 178.697 251.415 161.988C251.361 153.38 250.165 144.628 247.962 136.193C245.901 128.43 243.07 118.193 237.998 111.801C236.988 115.957 236.879 120.812 236.34 125.254Z" fill="#F9F2F2"/>
<path d="M214.946 151.444C213.069 144.436 210.814 137.521 208.476 130.649C204.651 119.336 200.577 108.155 196.291 96.9777C196.023 96.266 194.929 96.4155 194.947 97.2591C195.655 104.882 194.721 112.624 194.164 120.273C192.437 146.557 196.544 173.393 206.1 198.427C208.288 204.204 210.855 209.889 214.547 214.875C216.155 217.12 218.027 219.866 219.266 216.549C220.184 214.04 219.977 210.204 220.174 207.541C221.02 195.582 220.597 183.438 218.996 171.487C218.01 164.756 216.731 158.073 214.946 151.444Z" fill="#F9F2F2"/>
<path d="M158.89 237.142C137.507 239.658 115.652 239.863 94.594 243.807C109.386 234.847 125.84 228.636 142.526 223.475C164.076 216.82 186.633 211.874 209.37 213.549C212.582 213.777 221.163 214.483 216.146 218.724C212.579 221.668 207.856 223.835 203.634 225.738C194.816 229.847 185.296 232.621 175.63 234.512C170.208 235.554 164.571 236.39 158.89 237.142Z" fill="#F9F2F2"/>
<path d="M146.484 214.995C122.297 220.693 97.8167 226.439 72.7595 226.838C80.7291 222.535 88.6151 218.277 96.6286 214.058C101.677 211.293 106.852 208.568 112.12 206.221C126.46 199.844 142.167 196.265 158.107 195.762C166.16 195.467 174.232 196.015 182.277 197.323C185.199 197.81 189.685 198.433 186.68 202.041C184.374 204.748 178.912 205.917 175.688 207.082C166.176 210.278 156.352 212.678 146.484 214.995Z" fill="#F9F2F2"/>
<path d="M48.7325 207.931C68.4722 199.457 88.2118 190.983 108.98 185.273C119.428 182.437 130.144 180.314 141.027 180.128C146.594 179.969 152.174 180.442 157.639 181.509C158.826 181.737 163.901 182.264 163.98 184.035C163.967 185.427 158.334 186.474 157.078 186.922C134.693 194.017 111.864 200.066 88.5651 203.804C75.2745 205.897 62.0541 207.314 48.7325 207.931Z" fill="#F9F2F2"/>
<path d="M38.467 167.172C57.2144 163.698 76.0057 160.308 95.1445 159.4C104.714 158.946 114.468 159.248 123.875 161.118C128.664 162.115 133.462 163.533 138.019 165.506C138.955 165.866 143.331 167.293 142.984 168.862C142.673 170.092 137.646 169.86 136.425 169.97C115.616 171.757 94.7026 172.533 73.7885 171.284C61.9166 170.604 50.115 169.249 38.467 167.172Z" fill="#F9F2F2"/>
<path d="M189.78 188.895C190.197 184.624 190.653 180.226 191.07 175.955C191.601 171.091 192.004 166.188 192.197 161.289C192.791 137.308 184.576 113.807 176.04 91.1151C174.051 100.905 174.685 111.019 174.599 120.979C174.588 134.525 173.35 147.97 174.099 161.542C174.584 170.562 176 179.731 179.05 188.36C180.039 191.251 181.657 197.969 185.344 198.693C189.707 199.488 189.46 191.729 189.78 188.895Z" fill="#F9F2F2"/>
<path d="M164.84 178.784C169.062 142.658 165.282 105.308 153.7 70.1473C151.865 85.2926 151.345 100.706 151.624 116.018C151.894 130.908 152.88 145.741 155.721 160.45C156.719 165.789 157.972 171.206 159.475 176.491C159.84 177.792 160.671 183.218 161.946 183.613C164.156 184.368 164.7 180.137 164.84 178.784Z" fill="#F9F2F2"/>
<path d="M143.08 163.374C136.824 132.659 123.669 103.016 105.027 77.3291C107.661 90.2286 111.389 102.979 115.701 115.421C119.92 127.485 124.729 139.453 130.873 150.718C133.154 154.847 135.601 158.889 138.216 162.843C138.827 163.801 140.941 168.018 142.04 168.08C143.982 168.123 143.274 164.551 143.08 163.374Z" fill="#F9F2F2"/>
<path d="M111.838 144.534C118.377 150.473 125.575 155.639 132.482 161.064C139.816 166.692 147.022 172.279 154.312 177.823C168.848 188.827 183.419 199.493 199.058 208.744C229.14 226.595 259.718 243.972 290.937 259.733C309.062 268.847 327.675 277.065 346.688 284.219C349.069 285.098 350.22 281.613 347.922 280.691C314.95 267.879 283.383 251.662 252.471 234.461C221.687 217.3 190.946 200.221 162.691 178.956C154.76 173.003 146.828 167.051 138.897 161.099C130.623 154.9 122.423 148.236 113.573 142.767C112.33 141.823 110.634 143.462 111.838 144.534Z" fill="#F9F2F2"/>
<path d="M67.6862 81.5306C69.661 95.2035 77.7252 107.483 87.0193 118.048C91.2995 122.938 95.9091 127.441 100.396 132.115C102.681 134.43 104.966 136.745 107.167 139.104C109.198 141.34 111.246 144.42 113.645 146.142C115.837 144.028 110.871 134.596 109.847 132.043C107.803 127.149 105.425 122.43 102.63 117.932C97.0356 108.723 90.0616 100.135 82.1431 92.7896C77.7092 88.6206 72.8625 84.8823 67.6862 81.5306Z" fill="#F9F2F2"/>
<path d="M35.9797 133.086C48.9668 128.594 63.519 130.314 77.1399 133.911C83.3353 135.553 89.5394 137.617 95.6997 139.598C98.7578 140.546 101.86 141.578 105.002 142.483C107.888 143.309 111.61 143.695 114.172 145.118C113.262 148.049 102.709 147.848 99.9276 148.033C94.7036 148.438 89.4268 148.338 84.1455 148.027C73.3677 147.198 62.7258 144.805 52.4748 140.927C46.7759 138.81 41.235 136.183 35.9797 133.086Z" fill="#F9F2F2"/>
</svg>
