<svg width="41" height="41" viewBox="0 0 41 41" fill="none" xmlns="http://www.w3.org/2000/svg">
<path fill-rule="evenodd" clip-rule="evenodd" d="M20.2539 40.748C31.2996 40.748 40.2539 31.7937 40.2539 20.748C40.2539 9.70235 31.2996 0.748047 20.2539 0.748047C9.20821 0.748047 0.253906 9.70235 0.253906 20.748C0.253906 31.7937 9.20821 40.748 20.2539 40.748Z" fill="#25D366"/>
<path fill-rule="evenodd" clip-rule="evenodd" d="M20.9114 31.8753H20.9065C18.9161 31.8746 16.9603 31.3752 15.2233 30.4278L8.91882 32.0815L10.606 25.9189C9.56527 24.1153 9.01764 22.0695 9.01853 19.9734C9.02114 13.4163 14.3562 8.08154 20.9113 8.08154C24.0927 8.08292 27.0787 9.32143 29.324 11.5694C31.5693 13.8172 32.8052 16.8052 32.8039 19.9828C32.8013 26.5384 27.4684 31.8726 20.9114 31.8753ZM15.5161 28.2742L15.877 28.4885C17.3947 29.3891 19.1344 29.8656 20.9081 29.8663H20.9121C26.3602 29.8663 30.7945 25.4319 30.7966 19.9816C30.7977 17.3403 29.7705 14.8569 27.9042 12.9885C26.038 11.1201 23.5562 10.0906 20.916 10.0897C15.4636 10.0897 11.0293 14.5236 11.0272 19.9736C11.0264 21.8413 11.549 23.6603 12.5385 25.234L12.7735 25.608L11.7749 29.2556L15.5161 28.2742ZM26.9059 22.8114C26.8316 22.6875 26.6336 22.6131 26.3364 22.4643C26.0392 22.3156 24.5783 21.5968 24.3058 21.4976C24.0335 21.3984 23.8353 21.3489 23.6373 21.6463C23.4392 21.9437 22.8697 22.6131 22.6964 22.8114C22.523 23.0097 22.3497 23.0346 22.0526 22.8858C21.7555 22.7371 20.798 22.4233 19.6629 21.4109C18.7795 20.6229 18.1832 19.6499 18.0098 19.3524C17.8365 19.0549 17.9914 18.8941 18.1401 18.7459C18.2738 18.6128 18.4373 18.3988 18.5859 18.2253C18.7344 18.0519 18.7839 17.9278 18.883 17.7296C18.982 17.5312 18.9325 17.3578 18.8582 17.209C18.7839 17.0603 18.1897 15.5976 17.942 15.0026C17.7008 14.4232 17.4559 14.5016 17.2735 14.4925C17.1003 14.4838 16.902 14.482 16.7039 14.482C16.5058 14.482 16.1839 14.5563 15.9115 14.8538C15.6391 15.1513 14.8715 15.8703 14.8715 17.3328C14.8715 18.7955 15.9363 20.2085 16.0849 20.4068C16.2334 20.6052 18.1802 23.6066 21.1612 24.8937C21.8701 25.1999 22.4236 25.3828 22.8552 25.5197C23.567 25.7459 24.2149 25.714 24.7268 25.6374C25.2978 25.5522 26.4849 24.9186 26.7326 24.2245C26.9801 23.5303 26.9801 22.9353 26.9059 22.8114Z" fill="#FDFDFD"/>
<g style="mix-blend-mode:screen" opacity="0.1">
<path fill-rule="evenodd" clip-rule="evenodd" d="M20.2539 40.748C31.2996 40.748 40.2539 31.7937 40.2539 20.748C40.2539 9.70235 31.2996 0.748047 20.2539 0.748047C9.20821 0.748047 0.253906 9.70235 0.253906 20.748C0.253906 31.7937 9.20821 40.748 20.2539 40.748Z" fill="white"/>
</g>
</svg>
