<svg width="42" height="69" viewBox="0 0 42 69" fill="none" xmlns="http://www.w3.org/2000/svg">
<g opacity="0.52">
<path d="M-6.7523 30.9898C-7.50578 33.9406 -7.8267 37.0416 -7.31918 40.107C-7.18527 40.9398 -6.98253 41.765 -6.77979 42.5902C-6.56245 43.502 -6.33904 44.4298 -6.10601 45.3357C-5.91582 44.841 -5.89359 44.2808 -5.82785 43.741C-5.64525 42.035 -5.05432 40.4147 -4.56967 38.7976C-3.59074 35.5413 -2.96948 32.1435 -2.7601 28.6981C-2.69607 27.7726 -2.66342 26.8589 -2.72741 25.9263C-2.76576 25.2049 -2.77008 23.7163 -3.25032 23.1058C-3.92166 22.2727 -4.38783 24.1773 -4.55517 24.5897C-4.9573 25.5687 -5.35337 26.5639 -5.712 27.5633C-6.10667 28.7051 -6.45427 29.8292 -6.7523 30.9898Z" fill="#F9F2F2"/>
<path d="M-1.45018 14.6477C0.751645 12.8818 3.2148 11.4776 5.78205 10.255C4.50113 11.5644 3.19845 12.8635 2.03483 14.2943C1.30891 15.1743 0.638607 16.1069 -0.109067 16.9767C-0.891701 17.8964 -1.77952 18.7268 -2.71333 19.4825C-3.30329 19.9619 -3.94282 20.4046 -4.65257 20.7082C-5.15831 20.9351 -6.30388 21.3657 -6.83089 21.0119C-6.37236 19.7541 -5.33646 18.5553 -4.47179 17.568C-3.58427 16.4985 -2.55413 15.5226 -1.45018 14.6477Z" fill="#F9F2F2"/>
<path d="M7.23332 16.0202C9.72987 15.2289 12.3875 14.8187 15.0557 15.1035C13.612 15.6462 12.1622 16.1727 10.7185 16.7154C9.60428 17.1342 8.48403 17.5369 7.43401 18.0788C6.48778 18.5633 5.61535 19.1488 4.7151 19.7079C3.61334 20.398 2.52121 21.0661 1.37952 21.6976C0.363366 22.2819 -0.69629 22.8458 -1.84683 23.1679C-2.20419 23.2655 -3.23991 23.6548 -3.59648 23.4209C-4.17663 23.0686 -3.34771 22.4627 -3.09802 22.2217C-1.27064 20.4126 0.825222 18.8889 3.11715 17.6962C4.44358 17.032 5.80637 16.4646 7.23332 16.0202Z" fill="#F9F2F2"/>
<path d="M5.90816 22.5514C8.15083 21.5612 10.4491 20.6237 12.8639 20.1391C15.6796 19.5774 18.5879 19.6433 21.4901 19.693C17.0922 21.1437 13.1292 23.6084 8.87073 25.4299C7.41985 26.0488 5.92297 26.5931 4.33382 26.7489C3.47041 26.8343 2.59598 26.7951 1.71657 26.6473C0.890305 26.498 0.181038 26.2311 0.959008 25.4419C2.28701 24.1149 4.22437 23.3131 5.90816 22.5514Z" fill="#F9F2F2"/>
<path d="M-0.230673 45.721C0.657065 41.9838 1.53268 38.2145 1.70043 34.3249C1.76246 32.7746 1.71822 31.2275 1.66792 29.6643C1.63004 28.3723 1.57399 27.032 0.994013 25.8703C0.391756 27.1269 0.168914 28.5352 -0.119181 29.9129C-0.760324 32.8766 -1.80621 35.7166 -2.14173 38.731C-2.31004 40.2844 -2.27901 41.8917 -2.06323 43.4663C-1.85849 44.9163 -1.56862 46.831 -0.802507 48.1067C-0.537733 47.3817 -0.418072 46.5089 -0.230673 45.721Z" fill="#F9F2F2"/>
<path d="M4.10104 41.5177C4.2887 42.8269 4.54518 44.1287 4.81736 45.4245C5.2609 47.5574 5.75151 49.6726 6.27957 51.7921C6.31235 51.927 6.50921 51.9266 6.5235 51.774C6.55555 50.3822 6.88109 49.0089 7.1378 47.643C7.98687 42.9454 7.81391 38.0064 6.6388 33.2602C6.3705 32.1653 6.03337 31.0778 5.48259 30.089C5.24411 29.6451 4.96927 29.1046 4.68135 29.6727C4.46692 30.1029 4.42433 30.7996 4.33436 31.2749C3.93733 33.411 3.76139 35.6112 3.798 37.805C3.8334 39.0427 3.92193 40.2788 4.10104 41.5177Z" fill="#F9F2F2"/>
<path d="M15.8013 27.4251C19.6407 27.4904 23.5156 27.9839 27.3269 27.7839C24.5218 29.0407 21.4793 29.7612 18.4172 30.2867C14.4628 30.9637 10.3655 31.308 6.37287 30.454C5.80871 30.3349 4.30347 29.9993 5.27969 29.3564C5.97236 28.912 6.85364 28.636 7.64076 28.3953C9.28741 27.8683 11.031 27.5992 12.7821 27.4929C13.7639 27.4366 14.7795 27.4228 15.8013 27.4251Z" fill="#F9F2F2"/>
<path d="M17.5394 31.7197C21.941 31.2794 26.3957 30.8375 30.8419 31.3738C29.3415 31.9562 27.8567 32.5327 26.3502 33.099C25.399 33.475 24.4261 33.8407 23.4446 34.136C20.7729 34.9379 17.917 35.202 15.0834 34.9058C13.6508 34.7635 12.2326 34.4688 10.8347 34.0376C10.3273 33.8788 9.5456 33.6575 10.1523 33.0799C10.6168 32.6478 11.6082 32.5694 12.2034 32.4377C13.9542 32.0923 15.7438 31.898 17.5394 31.7197Z" fill="#F9F2F2"/>
<path d="M34.707 35.3667C31.0357 36.4156 27.3644 37.4644 23.568 37.99C21.6589 38.2477 19.7171 38.3705 17.7857 38.1399C16.7964 38.0334 15.8179 37.8125 14.8718 37.4875C14.6664 37.4175 13.7785 37.1994 13.801 36.8782C13.8321 36.6273 14.8513 36.5753 15.0831 36.525C19.1945 35.789 23.3628 35.2524 27.5667 35.144C29.964 35.0891 32.3348 35.1546 34.707 35.3667Z" fill="#F9F2F2"/>
<path d="M35.6836 42.9658C32.2913 43.1371 28.893 43.2923 25.4845 42.9914C23.7802 42.841 22.0588 42.5498 20.4313 41.9841C19.6037 41.6881 18.7832 41.3159 18.0169 40.8497C17.8585 40.762 17.1129 40.3984 17.2068 40.1239C17.2874 39.9097 18.1729 40.0735 18.3915 40.0833C22.1139 40.2663 25.8341 40.634 29.5126 41.3669C31.6012 41.7776 33.6635 42.3086 35.6836 42.9658Z" fill="#F9F2F2"/>
<path d="M9.33122 35.3752C9.16915 36.1352 8.99744 36.9172 8.83537 37.6772C8.64082 38.5414 8.46803 39.4158 8.33268 40.2946C7.7319 44.6045 8.70131 49.0417 9.74421 53.3409C10.2988 51.6239 10.3955 49.7847 10.6166 47.9906C10.8985 45.5482 11.3955 43.1538 11.5433 40.6883C11.6438 39.0499 11.5825 37.3621 11.2205 35.732C11.1051 35.1867 10.9574 33.9361 10.3194 33.7159C9.56309 33.4667 9.44652 34.8719 9.33122 35.3752Z" fill="#F9F2F2"/>
<path d="M13.5395 37.8038C12.0453 44.2156 11.9429 51.0426 13.2678 57.6642C13.9056 54.9776 14.3163 52.2109 14.5833 49.443C14.8432 46.7513 14.975 44.0526 14.7759 41.3311C14.7094 40.3443 14.5994 39.337 14.4424 38.3474C14.4046 38.1041 14.3696 37.1054 14.152 37.0032C13.7762 36.8133 13.5924 37.5631 13.5395 37.8038Z" fill="#F9F2F2"/>
<path d="M17.076 41.1109C17.5494 46.8016 19.2668 52.4662 22.0377 57.5508C21.8378 55.1607 21.441 52.7711 20.9344 50.4227C20.4364 48.1448 19.832 45.87 18.9766 43.6895C18.658 42.8895 18.3079 42.1012 17.9265 41.3247C17.8381 41.1372 17.5508 40.3253 17.3576 40.2876C17.0145 40.2326 17.0661 40.8939 17.076 41.1109Z" fill="#F9F2F2"/>
<path d="M22.2204 45.2666C21.185 44.0368 20.0169 42.9306 18.9056 41.7846C17.7229 40.5918 16.562 39.4092 15.3854 38.2326C13.0382 35.8954 10.6779 33.6184 8.09921 31.5706C3.14013 27.6212 -1.91668 23.7454 -7.12048 20.1456C-10.1424 18.0621 -13.2692 16.1283 -16.4888 14.3766C-16.8925 14.1604 -17.1683 14.7608 -16.7803 14.9829C-11.2052 18.0936 -5.94932 21.7842 -0.829742 25.6364C4.26809 29.4785 9.35986 33.3043 13.9247 37.825C15.2065 39.0909 16.4883 40.3568 17.7701 41.6227C19.1075 42.9412 20.4221 44.342 21.8765 45.543C22.0772 45.7435 22.4115 45.4891 22.2204 45.2666Z" fill="#F9F2F2"/>
<path d="M28.7376 57.6999C28.6704 55.1864 27.4959 52.7764 26.068 50.6455C25.411 49.6599 24.6876 48.736 23.9895 47.7842C23.6327 47.3113 23.2758 46.8383 22.9346 46.3595C22.6212 45.907 22.3221 45.3019 21.9328 44.9331C21.5009 45.2611 22.1855 47.0826 22.3142 47.5677C22.575 48.4999 22.8986 49.4085 23.3007 50.2876C24.1013 52.0839 25.159 53.8019 26.4097 55.3187C27.1089 56.1781 27.8901 56.9699 28.7376 57.6999Z" fill="#F9F2F2"/>
<path d="M35.4199 49.1724C33.0269 49.6672 30.485 49.0037 28.1468 48.0245C27.0835 47.578 26.0272 47.0551 24.9771 46.5484C24.455 46.3031 23.9269 46.0417 23.3892 45.8023C22.895 45.5834 22.2438 45.4234 21.8195 45.1046C22.0411 44.5982 23.9062 44.8905 24.4026 44.9247C25.3362 44.9785 26.2687 45.1247 27.1977 45.309C29.0895 45.7201 30.9249 46.4099 32.6604 47.3581C33.626 47.8782 34.5531 48.4864 35.4199 49.1724Z" fill="#F9F2F2"/>
</g>
</svg>
