<svg width="141" height="68" viewBox="0 0 141 68" fill="none" xmlns="http://www.w3.org/2000/svg">
<g style="mix-blend-mode:screen" opacity="0.33">
<path d="M16.6918 82.7886C14.6756 76.8102 13.5461 70.4378 14.0518 64.027C15.4181 67.4827 16.7467 70.9532 18.1129 74.4088C19.1673 77.0757 20.1841 79.7574 21.5241 82.2679C22.7226 84.5304 24.1543 86.6137 25.5258 88.7643C27.2178 91.3962 28.8574 94.0055 30.4141 96.7343C31.8519 99.1627 33.2444 101.696 34.0733 104.452C34.3249 105.308 35.305 107.787 34.7766 108.647C33.9834 110.047 32.5063 108.068 31.9236 107.473C27.5533 103.121 23.8382 98.118 20.89 92.6384C19.2451 89.4667 17.8256 86.2058 16.6918 82.7886Z" fill="white"/>
<path d="M32.1453 85.8442C29.6766 80.479 27.3286 74.9793 26.0392 69.1913C24.5437 62.4425 24.5192 55.4595 24.4571 48.4914C28.1426 59.0217 34.1874 68.4889 38.7368 78.6777C40.283 82.1491 41.6562 85.7323 42.121 89.5443C42.3752 91.6155 42.3368 93.7154 42.0433 95.8294C41.7428 97.8158 41.1584 99.5235 39.2532 97.6708C36.0483 94.5078 34.0417 89.872 32.1453 85.8442Z" fill="white"/>
<path d="M43.0025 62.0067C42.9195 52.7884 43.8419 43.4766 43.136 34.3308C46.2668 41.0412 48.1501 48.3316 49.5758 55.6727C51.4129 65.1531 52.476 74.9829 50.7124 84.5838C50.467 85.9404 49.7699 89.5603 48.1967 87.2289C47.1083 85.5744 46.4042 83.464 45.7892 81.5789C44.4475 77.6358 43.7067 73.4551 43.3485 69.2535C43.1554 66.8976 43.0602 64.4596 43.0025 62.0067Z" fill="white"/>
<path d="M53.0015 57.7494C51.6938 47.1911 50.379 36.5053 51.3669 25.8212C52.8301 29.4122 54.2784 32.9657 55.704 36.5716C56.6475 38.848 57.5682 41.1768 58.3238 43.5275C60.3758 49.926 61.1733 56.7771 60.651 63.5854C60.4047 67.0271 59.7985 70.4373 58.87 73.8013C58.5276 75.0225 58.055 76.9032 56.6582 75.4575C55.6126 74.3507 55.3671 71.9721 55.0203 70.5457C54.0996 66.3493 53.5318 62.0567 53.0015 57.7494Z" fill="white"/>
<path d="M60.5273 16.4666C63.2222 25.2603 65.9171 34.0541 67.3882 43.158C68.1124 47.7361 68.5212 52.3955 68.0976 57.0365C67.9081 59.4134 67.4486 61.7667 66.742 64.044C66.59 64.5384 66.1314 66.6742 65.374 66.6261C64.7818 66.5563 64.5966 64.1104 64.4638 63.5548C62.4782 53.6988 60.9582 43.7022 60.4436 33.6121C60.1667 27.8582 60.1745 22.1654 60.5273 16.4666Z" fill="white"/>
<path d="M78.3496 13.9805C78.962 22.1209 79.5369 30.2761 79.039 38.4645C78.7901 42.5587 78.211 46.6966 76.9802 50.6144C76.3347 52.6069 75.5092 54.5837 74.4592 56.4321C74.2627 56.8139 73.453 58.6107 72.8013 58.3906C72.292 58.201 72.6231 56.0722 72.6327 55.5473C72.8335 46.6076 73.4694 37.6697 74.9674 28.8252C75.8051 23.8033 76.9275 18.8425 78.3496 13.9805Z" fill="white"/>
<path d="M62.1117 77.3844C63.9103 77.7591 65.7613 78.1566 67.5599 78.5313C69.6057 78.982 71.6742 79.3803 73.7506 79.6887C83.9306 81.0496 94.3134 78.6385 104.367 76.0537C100.292 74.7548 95.9573 74.5574 91.7216 74.0604C85.9563 73.4298 80.2906 72.282 74.479 71.9737C70.6172 71.7632 66.6487 71.9423 62.8349 72.8421C61.5587 73.1295 58.6245 73.5077 58.1458 75.0434C57.606 76.8638 60.9202 77.1171 62.1117 77.3844Z" fill="white"/>
<path d="M67.5685 67.2357C82.7504 70.7017 98.8233 70.8187 114.325 67.5131C107.963 66.0326 101.426 65.0988 94.8958 64.5101C88.5453 63.9371 82.186 63.6716 75.7936 64.201C73.4752 64.3792 71.1115 64.6623 68.7923 65.058C68.2218 65.1532 65.8738 65.2563 65.6467 65.7804C65.223 66.6863 66.9989 67.1134 67.5685 67.2357Z" fill="white"/>
<path d="M75.1318 58.6855C88.495 57.4415 101.72 53.2118 113.515 46.4637C107.903 46.9888 102.304 47.9864 96.8083 49.2469C91.478 50.4856 86.1618 51.9794 81.0831 54.0741C79.2199 54.8542 77.3863 55.7094 75.5825 56.6397C75.1466 56.8555 73.2537 57.5604 73.1768 58.0252C73.0685 58.8498 74.6217 58.7135 75.1318 58.6855Z" fill="white"/>
<path d="M84.5939 46.2576C81.7637 48.7664 79.2323 51.5914 76.6038 54.281C73.8697 57.1427 71.1583 59.952 68.4618 62.7988C63.1062 68.4777 57.893 74.1871 53.2328 80.4162C44.2443 92.3958 35.4349 104.609 27.2841 117.169C22.5671 124.463 18.2092 132.006 14.2854 139.768C13.8014 140.741 15.2314 141.392 15.7302 140.457C22.7069 127.014 31.0682 114.327 39.8182 101.964C48.5456 89.6529 57.2353 77.3571 67.5926 66.313C70.4927 63.212 73.3928 60.111 76.2929 57.0099C79.3135 53.7744 82.5289 50.5921 85.2657 47.0779C85.7251 46.5922 85.1058 45.7946 84.5939 46.2576Z" fill="white"/>
<path d="M113.453 30.3744C107.542 30.5832 101.942 33.4485 97.0157 36.9164C94.7367 38.5123 92.6071 40.2664 90.4102 41.9602C89.3191 42.8258 88.2281 43.6915 87.1222 44.5196C86.0766 45.2805 84.6711 46.0099 83.8273 46.9516C84.6257 47.9823 88.8702 46.3042 90.004 45.9863C92.1817 45.3425 94.3 44.5484 96.344 43.5665C100.522 41.6107 104.5 39.039 107.992 36.0078C109.972 34.3132 111.787 32.4229 113.453 30.3744Z" fill="white"/>
<path d="M92.9727 14.4961C94.2847 20.2317 92.8801 26.3464 90.72 31.978C89.7346 34.5392 88.5694 37.0846 87.4417 39.6153C86.8966 40.8731 86.314 42.1459 85.7837 43.4413C85.299 44.6319 84.9627 46.1982 84.2385 47.2228C83.033 46.7005 83.606 42.2175 83.6558 41.0252C83.7248 38.7828 84.0113 36.5413 84.3878 34.3077C85.2386 29.7584 86.7489 25.3392 88.8732 21.155C90.0376 18.8271 91.4117 16.5899 92.9727 14.4961Z" fill="white"/>
</g>
</svg>
