<svg width="88" height="80" viewBox="0 0 88 80" fill="none" xmlns="http://www.w3.org/2000/svg">
<g style="mix-blend-mode:screen" opacity="0.33">
<path d="M92.8144 64.1622C92.515 66.4074 92.2156 68.6526 92.1562 70.9061C92.0596 74.5598 92.643 78.2258 93.8354 81.7058C94.12 82.5661 95.3453 82.527 95.5408 81.6833C95.918 79.9696 96.2813 78.2294 96.6183 76.5032C96.9566 74.8435 97.2547 73.1714 97.4321 71.4618C98.1388 65.13 97.297 58.6707 95.8599 52.4239C95.4934 50.8323 95.2516 48.8383 94.5146 47.3745C94.039 50.1165 94.0603 53.0347 93.7984 55.7989C93.4977 58.6172 93.1692 61.3827 92.8144 64.1622Z" fill="white"/>
<path d="M88.8207 63.1665C89.5498 57.9004 89.4894 52.4775 87.9816 47.3116C87.579 45.9074 87.0571 44.5324 86.5351 43.1573C85.9702 41.6366 85.3913 40.0894 84.8 38.5826C84.5656 39.4804 84.6393 40.4517 84.6325 41.3981C84.6551 44.3829 83.9437 47.3164 83.4182 50.2194C82.3547 56.0656 81.9476 62.0713 82.2732 68.0616C82.347 69.6726 82.4735 71.2559 82.7734 72.8488C82.9859 74.0838 83.2929 76.6495 84.2589 77.5887C85.605 78.8665 86.0403 75.4724 86.2511 74.7216C86.7601 72.9385 87.2552 71.1289 87.6837 69.3208C88.1469 67.2587 88.531 65.2383 88.8207 63.1665Z" fill="white"/>
<path d="M82.8033 92.5989C79.2931 96.1642 75.2514 99.1676 70.9904 101.882C72.9757 99.3219 75.0013 96.774 76.7562 94.0318C77.8536 92.3429 78.8427 90.5763 79.9803 88.8999C81.1692 87.1291 82.5608 85.4873 84.0481 83.9635C84.9874 82.9976 86.021 82.083 87.206 81.3918C88.0482 80.881 89.9727 79.8678 90.969 80.3533C90.4171 82.6305 88.8397 84.9425 87.5203 86.8493C86.1774 88.9031 84.5653 90.8294 82.8033 92.5989Z" fill="white"/>
<path d="M67.2818 92.2847C63.0581 94.239 58.475 95.5746 53.7335 95.714C56.1589 94.4371 58.5982 93.1865 61.0235 91.9095C62.8953 90.924 64.7809 89.9649 66.5153 88.7824C68.079 87.7234 69.4928 86.5077 70.9607 85.3308C72.7561 83.8804 74.539 82.4703 76.4163 81.1116C78.0826 79.8639 79.8295 78.6411 81.7845 77.8138C82.3923 77.5612 84.1322 76.6451 84.8052 76.9642C85.8946 77.4344 84.5613 78.6751 84.1714 79.1498C81.3273 82.7011 77.9544 85.8237 74.1708 88.4219C71.9758 89.8806 69.6975 91.1812 67.2818 92.2847Z" fill="white"/>
<path d="M68.2926 80.7089C64.5546 82.9463 60.7084 85.106 56.5666 86.5123C51.7365 88.1462 46.6177 88.72 41.5127 89.3202C48.9415 85.7793 55.4029 80.5928 62.5125 76.4456C64.9351 75.0354 67.4534 73.7432 70.2119 73.0989C71.7105 72.7476 73.2535 72.6086 74.8271 72.6556C76.3077 72.7178 77.6066 73.0104 76.3996 74.555C74.3351 77.1571 71.0953 78.9976 68.2926 80.7089Z" fill="white"/>
<path d="M74.4092 39.3069C73.6026 45.9607 72.8237 52.6671 73.3117 59.4137C73.5147 62.1015 73.9036 64.7587 74.3064 67.4423C74.6328 69.6611 75.0009 71.959 76.2528 73.8251C77.0573 71.516 77.1651 69.0349 77.3937 66.5913C77.9231 61.3293 79.1878 56.1852 79.1704 50.9081C79.1534 48.1898 78.7755 45.4257 78.0799 42.7615C77.4288 40.3097 76.5347 37.0767 74.9331 35.0579C74.6141 36.3706 74.5797 37.904 74.4092 39.3069Z" fill="white"/>
<path d="M67.6515 47.5783C67.0586 45.3651 66.3465 43.1811 65.6079 41.0109C64.4002 37.438 63.1133 33.9067 61.7599 30.3767C61.6752 30.152 61.3297 30.1992 61.3353 30.4656C61.5591 32.8731 61.2638 35.3181 61.088 37.734C60.5424 46.0349 61.8397 54.5103 64.8575 62.4165C65.5488 64.2411 66.3595 66.0366 67.5253 67.6114C68.0333 68.3204 68.6245 69.1876 69.0157 68.1399C69.3056 67.3475 69.2402 66.1361 69.3025 65.2952C69.5698 61.518 69.436 57.6827 68.9304 53.9084C68.6192 51.7826 68.2151 49.6721 67.6515 47.5783Z" fill="white"/>
<path d="M49.9482 74.6435C43.1948 75.4382 36.2927 75.503 29.642 76.7487C34.3138 73.9187 39.5101 71.9572 44.7801 70.3274C51.5861 68.2255 58.7099 66.6634 65.8909 67.1925C66.9053 67.2645 69.6153 67.4875 68.0309 68.8268C66.9043 69.7566 65.4127 70.441 64.0792 71.042C61.2945 72.3398 58.2876 73.2158 55.2349 73.813C53.5227 74.1421 51.7424 74.406 49.9482 74.6435Z" fill="white"/>
<path d="M46.0302 67.6492C38.3916 69.4486 30.66 71.2634 22.7464 71.3894C25.2634 70.0305 27.754 68.6856 30.2848 67.3531C31.879 66.4801 33.5135 65.6195 35.1772 64.8783C39.7061 62.8642 44.6667 61.7339 49.701 61.575C52.2445 61.4817 54.7935 61.6548 57.3343 62.0679C58.2571 62.2218 59.6739 62.4186 58.725 63.558C57.9966 64.4129 56.2718 64.7822 55.2534 65.1501C52.2493 66.1593 49.1467 66.9174 46.0302 67.6492Z" fill="white"/>
<path d="M15.1562 65.418C21.3905 62.7417 27.6247 60.0655 34.1837 58.262C37.4833 57.3665 40.8676 56.6958 44.3048 56.637C46.0629 56.5868 47.8252 56.7364 49.5514 57.0734C49.9261 57.1455 51.5288 57.3118 51.5539 57.871C51.5498 58.3109 49.7709 58.6414 49.3741 58.783C42.3045 61.0236 35.0946 62.934 27.7363 64.1146C23.5388 64.7757 19.3635 65.2231 15.1562 65.418Z" fill="white"/>
<path d="M11.916 52.5457C17.8368 51.4486 23.7716 50.3779 29.816 50.0911C32.8382 49.9478 35.9188 50.0431 38.8897 50.6338C40.4023 50.9486 41.9176 51.3965 43.3567 52.0194C43.6523 52.1331 45.0344 52.5839 44.9249 53.0793C44.8264 53.4678 43.239 53.3945 42.8532 53.4293C36.2815 53.9936 29.6764 54.2388 23.0713 53.8442C19.3219 53.6297 15.5947 53.2015 11.916 52.5457Z" fill="white"/>
<path d="M59.7036 59.406C59.8353 58.0572 59.9794 56.6682 60.111 55.3194C60.2787 53.7833 60.4061 52.2347 60.467 50.6875C60.6546 43.1138 58.06 35.6918 55.3643 28.5251C54.7361 31.6168 54.9364 34.8111 54.9091 37.9568C54.9055 42.2349 54.5148 46.481 54.7514 50.7674C54.9044 53.6161 55.3516 56.5121 56.315 59.2372C56.6274 60.1502 57.1383 62.2718 58.3026 62.5006C59.6805 62.7516 59.6025 60.301 59.7036 59.406Z" fill="white"/>
<path d="M51.8276 56.2128C53.1609 44.8036 51.9672 33.0075 48.3092 21.9029C47.7299 26.6861 47.5655 31.5539 47.6536 36.3898C47.7389 41.0924 48.0504 45.777 48.9475 50.4226C49.2627 52.1086 49.6584 53.8194 50.1332 55.4887C50.2485 55.8994 50.511 57.6131 50.9134 57.7379C51.6114 57.9765 51.7833 56.6402 51.8276 56.2128Z" fill="white"/>
<path d="M44.9541 51.346C42.9781 41.6454 38.8236 32.2837 32.9361 24.1711C33.7679 28.2451 34.9452 32.2718 36.307 36.2013C37.6397 40.0115 39.1583 43.7912 41.0987 47.3488C41.8191 48.6531 42.5922 49.9296 43.418 51.1783C43.6109 51.4808 44.2785 52.8128 44.6254 52.8322C45.2388 52.846 45.0152 51.7179 44.9541 51.346Z" fill="white"/>
<path d="M35.0871 45.396C37.1522 47.2718 39.4253 48.9033 41.6069 50.6167C43.9231 52.3939 46.1991 54.1587 48.5014 55.9095C53.0921 59.3848 57.694 62.7533 62.633 65.675C72.1334 71.3129 81.7907 76.8009 91.6505 81.7783C97.3748 84.6568 103.253 87.2522 109.258 89.5118C110.01 89.7892 110.373 88.6887 109.648 88.3974C99.2342 84.3512 89.2648 79.2296 79.5021 73.797C69.7796 68.377 60.071 62.9833 51.1476 56.2671C48.6427 54.3873 46.1378 52.5074 43.6328 50.6275C41.0197 48.67 38.4301 46.5653 35.6351 44.8381C35.2424 44.5399 34.7068 45.0575 35.0871 45.396Z" fill="white"/>
<path d="M21.143 25.4979C21.7667 29.8161 24.3135 33.6942 27.2488 37.031C28.6006 38.5752 30.0564 39.9973 31.4734 41.4735C32.1951 42.2047 32.9167 42.9359 33.612 43.6809C34.2532 44.3872 34.9 45.3598 35.6577 45.9036C36.3501 45.2361 34.7816 42.2571 34.4582 41.4509C33.8127 39.9052 33.0618 38.415 32.1791 36.9942C30.4122 34.086 28.2096 31.3735 25.7088 29.0538C24.3085 27.7371 22.7778 26.5565 21.143 25.4979Z" fill="white"/>
<path d="M11.1289 41.7805C15.2305 40.3618 19.8264 40.9051 24.1282 42.0409C26.0848 42.5596 28.0442 43.2115 29.9898 43.837C30.9556 44.1366 31.9353 44.4626 32.9275 44.7483C33.8392 45.009 35.0145 45.131 35.8236 45.5804C35.5365 46.506 32.2034 46.4427 31.3251 46.5011C29.6752 46.629 28.0086 46.5973 26.3407 46.499C22.9368 46.2372 19.5759 45.4815 16.3384 44.2567C14.5386 43.5881 12.7886 42.7586 11.1289 41.7805Z" fill="white"/>
</g>
</svg>
