<svg width="181" height="66" viewBox="0 0 181 66" fill="none" xmlns="http://www.w3.org/2000/svg">
<g filter="url(#filter0_d)">
<path d="M50.6871 18.7721C50.3871 19.3721 48.2871 21.3971 44.3871 24.8471C39.5371 29.1971 35.4371 32.0471 32.0871 33.3971C28.5871 39.1971 24.2871 44.7471 19.1871 50.0471C12.9871 56.4971 8.01211 59.7221 4.26211 59.7221C1.91211 59.7221 0.762107 58.8221 0.812107 57.0221C0.812107 53.5721 4.53711 48.9221 11.9871 43.0721C16.9371 39.2221 23.1121 35.5721 30.5121 32.1221C31.4621 30.9221 31.9371 29.5971 31.9371 28.1471C31.9371 27.5971 31.7621 27.1721 31.4121 26.8721C26.6621 30.7221 22.6871 32.6471 19.4871 32.6471C17.4871 32.6471 16.4871 31.9221 16.4871 30.4721C16.4871 29.5221 17.0621 28.4971 18.2121 27.3971C19.4121 26.2471 20.8621 25.3471 22.5621 24.6971C24.4621 23.9971 26.3371 23.6471 28.1871 23.6471C29.6371 23.6471 30.9371 23.8471 32.0871 24.2471C34.4871 22.0971 36.7871 18.9221 38.9871 14.7221C40.3371 12.1721 41.0121 10.0971 41.0121 8.49707C41.0121 6.59707 40.0621 5.54707 38.1621 5.34707C36.3621 5.19707 33.0371 6.97207 28.1871 10.6721C26.1371 12.2221 23.0121 15.0721 18.8121 19.2221C18.1121 19.9221 17.4871 20.0471 16.9371 19.5971C16.4371 19.2971 16.5371 18.7971 17.2371 18.0971C18.5371 16.7471 21.8121 13.7971 27.0621 9.24707C33.4621 4.19707 38.4121 1.67207 41.9121 1.67207C44.7121 1.67207 46.1121 2.87207 46.1121 5.27207C46.1121 7.77207 44.4621 11.3721 41.1621 16.0721C38.4121 20.0221 35.7871 23.0971 33.2871 25.2971C33.8371 25.6971 34.1121 26.5221 34.1121 27.7721C34.1121 28.9221 33.8621 29.8971 33.3621 30.6971C36.1621 29.2471 39.6371 26.6471 43.7871 22.8971C47.1871 19.7971 49.0121 18.0721 49.2621 17.7221C49.7121 17.1721 50.1871 17.0721 50.6871 17.4221C51.1371 17.7721 51.1371 18.2221 50.6871 18.7721ZM30.2121 26.0471C29.4621 25.6971 28.5871 25.5221 27.5871 25.5221C26.2871 25.5221 24.8621 25.7971 23.3121 26.3471C20.9621 27.2471 19.9621 28.3221 20.3121 29.5721C20.4621 30.1221 20.9371 30.3971 21.7371 30.3971C23.8371 30.3971 26.6621 28.9471 30.2121 26.0471ZM28.8621 34.9721C24.4621 37.3221 19.8621 40.5721 15.0621 44.7221C12.6621 46.7721 10.5121 48.9721 8.61211 51.3221C6.56211 53.7721 5.53711 55.4721 5.53711 56.4221C5.53711 56.9221 5.86211 57.1721 6.51211 57.1721C8.46211 57.1721 12.1621 54.4471 17.6121 48.9971C22.7121 43.9471 26.4621 39.2721 28.8621 34.9721ZM84.0523 18.6221C85.1023 18.4221 82.5523 20.6721 76.4023 25.3721C72.5023 28.3721 67.8273 30.8471 62.3773 32.7971C58.6773 38.5971 55.3273 43.4471 52.3273 47.3471C49.3273 51.2471 46.1023 54.2471 42.6523 56.3471C39.7523 58.0971 37.2023 58.9721 35.0023 58.9721C32.7523 58.9721 31.6273 57.9221 31.6273 55.8221C31.6273 54.1221 32.3523 52.0721 33.8023 49.6721C35.2023 47.3221 37.1523 45.0221 39.6523 42.7721C44.3523 38.6721 50.7523 35.1471 58.8523 32.1971C60.4023 29.1971 61.6273 26.6721 62.5273 24.6221C58.2273 29.3221 54.5523 31.5971 51.5023 31.4471C48.4023 31.2971 46.8523 29.3971 46.8523 25.7471C46.8523 22.3471 48.4523 18.6221 51.6523 14.5721C54.8523 10.5221 58.6523 7.17207 63.0523 4.52207C67.1023 2.17207 70.5273 0.997068 73.3273 0.997068C74.5273 0.997068 75.4773 1.27207 76.1773 1.82207C76.8773 2.37207 77.1523 3.22207 77.0023 4.37207C78.1523 3.22207 78.8523 2.54707 79.1023 2.34707C79.3523 2.14707 79.7023 2.02207 80.1523 1.97207C80.6523 1.87207 81.0523 1.87207 81.3523 1.97207C81.6523 2.02207 81.7273 2.17207 81.5773 2.42207C80.8773 3.42207 75.0273 12.6721 64.0273 30.1721C69.1273 28.0221 73.0023 25.9221 75.6523 23.8721C80.3523 20.2721 82.6773 18.1721 82.6273 17.5721C82.9273 17.2721 83.4023 17.6221 84.0523 18.6221ZM74.3773 7.52207C74.9773 6.77207 75.2773 5.89707 75.2773 4.89707C75.2773 3.39707 74.5523 2.64707 73.1023 2.64707C71.5523 2.64707 69.5773 3.42207 67.1773 4.97207C64.5773 6.62207 62.0773 8.82207 59.6773 11.5721C54.2773 17.6721 51.5773 22.7221 51.5773 26.7221C51.5773 28.4221 52.1523 29.2721 53.3023 29.2721C54.6023 29.2721 56.6523 27.9221 59.4523 25.2221C61.8023 22.9721 63.9273 20.5721 65.8273 18.0221C68.2273 14.8221 71.0773 11.3221 74.3773 7.52207ZM57.7273 34.4471C51.3773 36.8971 46.2023 39.8471 42.2023 43.2971C40.2523 45.0471 38.6023 46.9721 37.2523 49.0721C35.9023 51.2221 35.2273 52.9971 35.2273 54.3971C35.2273 55.8471 35.8523 56.5721 37.1023 56.5721C38.5523 56.5721 40.4773 55.7221 42.8773 54.0221C45.5273 52.0721 47.9523 49.6471 50.1523 46.7471C52.4023 43.8471 54.9273 39.7471 57.7273 34.4471ZM114.855 16.9721C115.355 17.3721 115.23 18.0221 114.48 18.9221C114.08 19.6221 111.48 21.8721 106.68 25.6721C100.38 30.1221 94.7047 32.3471 89.6547 32.3471C87.7547 32.3471 86.1547 31.9471 84.8547 31.1471C82.8047 29.8471 81.7797 27.8471 81.7797 25.1471C81.7797 20.6971 84.1547 16.0221 88.9047 11.1221C91.8047 8.17207 95.0297 5.74707 98.5797 3.84707C102.13 1.94707 105.105 0.997068 107.505 0.997068C109.755 0.997068 110.88 1.67207 110.88 3.02207C110.88 4.37207 109.73 6.32207 107.43 8.87207C105.38 11.0721 103.23 12.9721 100.98 14.5721C97.1297 17.3221 93.0547 19.1471 88.7547 20.0471C88.2547 21.5971 88.0047 22.9721 88.0047 24.1721C88.0047 26.0721 88.6297 27.4721 89.8797 28.3721C90.9797 29.1221 92.2797 29.4971 93.7797 29.4971C97.0797 29.4971 101.005 27.8721 105.555 24.6221C109.505 21.3721 111.98 19.0971 112.98 17.7971C113.83 16.8971 114.455 16.6221 114.855 16.9721ZM107.805 2.64707C106.455 2.64707 104.505 3.39707 101.955 4.89707C99.2547 6.49707 96.7547 8.47207 94.4547 10.8221C92.5047 12.8221 90.8797 15.2471 89.5797 18.0971C92.9797 17.1971 96.4047 15.5471 99.8547 13.1471C102.055 11.5971 104.13 9.82207 106.08 7.82207C108.08 5.82207 109.08 4.37207 109.08 3.47207C109.08 2.92207 108.655 2.64707 107.805 2.64707ZM143.623 16.5221C144.123 16.8721 144.098 17.3971 143.548 18.0971C143.198 19.1471 140.123 21.7471 134.323 25.8971C128.773 29.8971 124.048 31.8971 120.148 31.8971C119.448 31.8971 118.723 31.8221 117.973 31.6721C113.323 30.9721 110.998 28.4971 110.998 24.2471C110.998 21.3971 112.173 18.1721 114.523 14.5721C116.923 10.9221 120.073 7.82207 123.973 5.27207C127.623 2.82207 130.773 1.59707 133.423 1.59707C136.073 1.59707 137.398 2.82207 137.398 5.27207C137.398 7.02207 136.623 9.02207 135.073 11.2721C134.923 11.5221 134.648 11.6471 134.248 11.6471C133.798 11.5971 133.248 11.3721 132.598 10.9721C131.948 10.5721 131.548 10.2471 131.398 9.99707C131.298 9.64707 131.448 9.34707 131.848 9.09707C132.298 8.84707 132.848 8.29707 133.498 7.44707C134.248 6.39707 134.623 5.52207 134.623 4.82207C134.623 3.82207 133.998 3.32207 132.748 3.32207C131.198 3.32207 129.398 4.12207 127.348 5.72207C124.948 7.47207 122.698 9.94707 120.598 13.1471C118.098 16.9471 116.848 20.4471 116.848 23.6471C116.848 27.6471 118.473 29.6471 121.723 29.6471C125.023 29.6471 129.123 27.7971 134.023 24.0971C138.723 20.4971 141.398 18.1221 142.048 16.9721C142.598 16.3221 143.123 16.1721 143.623 16.5221ZM161.255 24.2471C162.305 24.1971 163.555 23.9221 165.005 23.4221C166.505 22.9221 167.98 22.1471 169.43 21.0971C170.93 19.9971 172.03 18.5471 172.73 16.7471C172.83 16.4971 172.93 16.3721 173.03 16.3721H173.405C173.655 16.3721 173.83 16.5221 173.93 16.8221C174.08 17.0721 174.105 17.2471 174.005 17.3471C173.805 17.7971 173.405 18.5721 172.805 19.6721C172.255 20.7221 171.33 21.7471 170.03 22.7471C169.53 23.1471 168.78 23.5721 167.78 24.0221C166.83 24.4221 165.78 24.7971 164.63 25.1471C163.48 25.4471 162.28 25.6721 161.03 25.8221C160.23 25.8721 159.48 25.8721 158.78 25.8221C158.03 26.4221 157.255 26.9721 156.455 27.4721C155.155 28.2721 153.855 28.9721 152.555 29.5721C151.255 30.1221 150.005 30.5471 148.805 30.8471C147.655 31.1471 146.63 31.2971 145.73 31.2971C144.53 31.4971 143.53 31.4471 142.73 31.1471C141.98 30.7971 141.38 30.2971 140.93 29.6471C140.53 28.9971 140.28 28.2221 140.18 27.3221C140.13 26.3721 140.18 25.3721 140.33 24.3221C140.58 23.2221 141.205 21.7971 142.205 20.0471C143.255 18.2971 144.855 16.0971 147.005 13.4471C147.755 12.5471 148.605 11.5221 149.555 10.3721C150.555 9.22207 151.68 7.97207 152.93 6.62207C155.23 4.22207 156.73 2.77207 157.43 2.27207C157.63 2.17207 157.955 2.07207 158.405 1.97207C158.905 1.92207 159.305 1.92207 159.605 1.97207C159.905 2.07207 159.98 2.22207 159.83 2.42207C158.98 3.57207 157.855 5.14707 156.455 7.14707C155.105 9.14707 153.405 11.5721 151.355 14.4221C150.655 15.5221 150.055 16.4971 149.555 17.3471C149.055 18.1471 148.605 18.8971 148.205 19.5971C148.055 19.8471 147.705 20.4471 147.155 21.3971C146.655 22.2971 146.205 23.2721 145.805 24.3221C145.455 25.3221 145.28 26.2471 145.28 27.0971C145.33 27.8971 145.805 28.3221 146.705 28.3721C147.355 28.4221 148.055 28.3471 148.805 28.1471C149.555 27.8971 150.28 27.5721 150.98 27.1721C151.73 26.7721 152.43 26.3221 153.08 25.8221C153.73 25.2721 154.305 24.6971 154.805 24.0971C153.505 22.9471 152.755 21.7471 152.555 20.4971C152.355 19.2471 152.48 18.0471 152.93 16.8971C153.43 15.7471 154.18 14.6971 155.18 13.7471C156.18 12.7971 157.255 12.0471 158.405 11.4971C159.605 10.9471 160.78 10.6471 161.93 10.5971C163.13 10.5471 164.13 10.8471 164.93 11.4971C165.58 12.0471 165.98 12.7721 166.13 13.6721C166.28 14.5721 166.155 15.6221 165.755 16.8221C165.405 17.9721 164.755 19.2221 163.805 20.5721C163.005 21.7721 161.955 22.9971 160.655 24.2471H161.255ZM156.68 22.6721C156.78 22.7221 157.08 22.5221 157.58 22.0721C158.08 21.5721 158.63 20.9721 159.23 20.2721C159.88 19.5721 160.505 18.7971 161.105 17.9471C161.755 17.0971 162.255 16.2971 162.605 15.5471C163.005 14.7971 163.18 14.1471 163.13 13.5971C163.13 12.9971 162.805 12.6221 162.155 12.4721C161.355 12.2221 160.33 12.3971 159.08 12.9971C157.83 13.5471 156.78 14.4721 155.93 15.7721C154.93 17.0721 154.505 18.4221 154.655 19.8221C154.805 21.2221 155.48 22.1721 156.68 22.6721Z" fill="white"/>
</g>
<defs>
<filter id="filter0_d" x="0.810547" y="0.99707" width="179.255" height="64.725" filterUnits="userSpaceOnUse" color-interpolation-filters="sRGB">
<feFlood flood-opacity="0" result="BackgroundImageFix"/>
<feColorMatrix in="SourceAlpha" type="matrix" values="0 0 0 0 0 0 0 0 0 0 0 0 0 0 0 0 0 0 127 0"/>
<feOffset dx="4" dy="4"/>
<feGaussianBlur stdDeviation="1"/>
<feColorMatrix type="matrix" values="0 0 0 0 0 0 0 0 0 0 0 0 0 0 0 0 0 0 0.18 0"/>
<feBlend mode="normal" in2="BackgroundImageFix" result="effect1_dropShadow"/>
<feBlend mode="normal" in="SourceGraphic" in2="effect1_dropShadow" result="shape"/>
</filter>
</defs>
</svg>
