<svg width="21" height="19" viewBox="0 0 21 19" fill="none" xmlns="http://www.w3.org/2000/svg">
<path fill-rule="evenodd" clip-rule="evenodd" d="M18.502 2.03784H15.332L14.092 0.687842C13.722 0.277842 13.182 0.0378418 12.622 0.0378418H8.38195C7.82195 0.0378418 7.28195 0.277842 6.90195 0.687842L5.67195 2.03784H2.50195C1.40195 2.03784 0.501953 2.93784 0.501953 4.03784V16.0378C0.501953 17.1378 1.40195 18.0378 2.50195 18.0378H18.502C19.602 18.0378 20.502 17.1378 20.502 16.0378V4.03784C20.502 2.93784 19.602 2.03784 18.502 2.03784ZM10.502 7.03784C8.8451 7.03784 7.50195 8.38099 7.50195 10.0378C7.50195 11.6947 8.8451 13.0378 10.502 13.0378C12.1588 13.0378 13.502 11.6947 13.502 10.0378C13.502 8.38099 12.1588 7.03784 10.502 7.03784ZM5.50195 10.0378C5.50195 12.7978 7.74195 15.0378 10.502 15.0378C13.262 15.0378 15.502 12.7978 15.502 10.0378C15.502 7.27784 13.262 5.03784 10.502 5.03784C7.74195 5.03784 5.50195 7.27784 5.50195 10.0378Z" fill="#BDBDBD"/>
</svg>
