<svg width="215" height="249" viewBox="0 0 215 249" fill="none" xmlns="http://www.w3.org/2000/svg">
<path d="M181.462 96.8339C179.378 92.2262 177.293 87.6185 175.717 82.8387C173.161 75.0895 172.05 66.8764 172.361 58.6693C172.417 56.647 175.061 55.9425 176.022 57.6205C177.931 61.0419 179.827 64.5286 181.657 68.0026C183.448 71.3333 185.161 74.7166 186.639 78.2575C192.223 91.3403 194.577 105.692 195.523 119.972C195.762 123.61 196.528 128.029 195.894 131.632C193.114 126.076 191.282 119.823 188.944 114.082C186.489 108.25 184.008 102.548 181.462 96.8339Z" fill="#F9F2F2"/>
<path d="M173.567 101.53C178.513 112.32 181.872 123.953 181.971 135.967C182.013 139.228 181.782 142.504 181.55 145.779C181.32 149.394 181.078 153.074 180.782 156.676C179.704 154.907 179.237 152.783 178.614 150.764C176.742 144.368 173.335 138.554 170.344 132.685C164.31 120.87 159.577 108.292 156.421 95.2755C155.542 91.7838 154.795 88.3174 154.411 84.7188C154.071 81.9418 153.078 76.259 154.539 73.6296C156.595 70.0319 159.708 77.0087 160.642 78.4781C162.877 81.9632 165.099 85.5135 167.178 89.1036C169.495 93.2144 171.616 97.287 173.567 101.53Z" fill="#F9F2F2"/>
<path d="M141.768 42.4756C131.97 37.1107 121.397 33.2889 110.541 30.2251C116.432 34.4225 122.402 38.5672 127.917 43.3013C131.35 46.2064 134.601 49.3471 138.111 52.1996C141.792 55.2209 145.823 57.8359 149.983 60.1373C152.612 61.5983 155.41 62.8889 158.388 63.6046C160.517 64.1549 165.284 65.0835 167.102 63.4046C164.457 58.891 159.598 54.9625 155.55 51.7344C151.358 48.2069 146.673 45.1255 141.768 42.4756Z" fill="#F9F2F2"/>
<path d="M108.79 53.1285C98.503 51.6665 87.8454 51.7588 77.6185 54.5101C83.6252 55.6804 89.6446 56.7853 95.6513 57.9555C100.287 58.8586 104.935 59.6965 109.404 61.1092C113.428 62.3676 117.233 64.0576 121.128 65.6297C125.899 67.5757 130.618 69.4438 135.505 71.1414C139.871 72.7373 144.392 74.228 149.104 74.7394C150.565 74.8887 154.875 75.7282 156.108 74.6132C158.135 72.9072 154.486 71.112 153.348 70.348C144.983 64.5845 135.763 60.0777 126.003 56.9563C120.372 55.2493 114.665 53.9341 108.79 53.1285Z" fill="#F9F2F2"/>
<path d="M118.395 77.2274C108.964 74.8479 99.3519 72.7042 89.5922 72.3615C78.2147 71.9747 66.9016 74.0401 55.6013 76.0402C73.7613 78.8327 90.9114 85.7656 108.779 90.0598C114.865 91.5166 121.081 92.6597 127.393 92.263C130.822 92.0502 134.211 91.355 137.545 90.2425C140.67 89.1572 143.259 87.6963 139.685 85.1702C133.598 80.9348 125.487 79.0836 118.395 77.2274Z" fill="#F9F2F2"/>
<path d="M158.096 161.812C152.092 148.105 146.113 134.267 142.817 119.529C141.523 113.652 140.645 107.721 139.78 101.725C139.051 96.771 138.36 91.6215 139.837 86.8265C143.042 91.2459 144.868 96.4811 146.928 101.559C151.444 112.468 157.457 122.653 160.814 133.946C162.525 139.769 163.495 145.922 163.722 152.065C163.906 157.726 164.074 165.213 161.948 170.559C160.422 167.957 159.362 164.701 158.096 161.812Z" fill="#F9F2F2"/>
<path d="M138.331 148.473C138.487 153.586 138.369 158.714 138.186 163.828C137.902 172.244 137.422 180.621 136.798 189.039C136.762 189.574 135.993 189.695 135.833 189.122C134.763 183.831 132.56 178.793 130.63 173.741C124.125 156.345 121.447 137.39 122.814 118.546C123.119 114.2 123.697 109.84 125.177 105.724C125.807 103.881 126.513 101.647 128.023 103.635C129.153 105.143 129.792 107.775 130.466 109.533C133.467 117.436 135.648 125.722 136.994 134.117C137.696 138.862 138.189 143.634 138.331 148.473Z" fill="#F9F2F2"/>
<path d="M83.0735 101.994C68.1237 104.639 53.3256 108.939 38.3053 110.553C50.1135 113.599 62.4848 114.451 74.8001 114.546C90.703 114.662 106.938 113.42 121.951 107.671C124.073 106.865 129.724 104.645 125.475 102.8C122.468 101.537 118.839 101.033 115.602 100.606C108.813 99.6221 101.821 99.6831 94.9106 100.37C91.0381 100.767 87.0622 101.348 83.0735 101.994Z" fill="#F9F2F2"/>
<path d="M79.1949 119.468C61.7064 120.534 44.0093 121.627 27.0091 126.447C33.2642 127.733 39.4541 129.007 45.7219 130.228C49.6919 131.069 53.7399 131.858 57.7735 132.373C68.7516 133.766 80.0842 132.992 90.9496 130.094C96.4476 128.658 101.786 126.648 106.953 124.131C108.827 123.208 111.729 121.876 108.967 120.05C106.86 118.691 102.935 119.011 100.521 118.879C93.4495 118.654 86.3286 119.028 79.1949 119.468Z" fill="#F9F2F2"/>
<path d="M14.6255 144.094C29.6753 145.806 44.7252 147.518 59.9082 147.155C67.5387 146.948 75.2057 146.205 82.592 144.12C86.3831 143.097 90.0547 141.643 93.5287 139.813C94.2833 139.418 97.603 138.031 97.2969 136.82C97.0052 135.882 92.9895 136.319 92.0499 136.272C75.4942 136.028 58.851 136.581 42.3596 138.789C32.9603 140.076 23.7458 141.804 14.6255 144.094Z" fill="#F9F2F2"/>
<path d="M15.9736 173.7C29.3379 172.237 42.7148 170.71 55.8221 167.435C62.3758 165.798 68.9006 163.613 74.8726 160.439C77.904 158.793 80.8557 156.861 83.5318 154.604C84.0906 154.171 86.7556 152.318 86.2028 151.329C85.7424 150.562 82.3956 151.74 81.5485 151.913C67.1354 154.934 52.8562 158.657 38.9883 163.749C31.1101 166.619 23.4168 169.932 15.9736 173.7Z" fill="#F9F2F2"/>
<path d="M113.731 128.297C114.88 131.096 116.082 133.973 117.23 136.772C118.577 139.949 119.845 143.178 120.97 146.447C126.243 162.518 125.469 180.055 124.315 197.111C120.983 190.905 119.357 183.947 117.276 177.239C114.517 168.095 110.95 159.268 108.699 149.952C107.194 143.763 106.288 137.284 106.595 130.838C106.676 128.685 106.403 123.82 108.745 122.582C111.53 121.159 112.939 126.449 113.731 128.297Z" fill="#F9F2F2"/>
<path d="M98.9443 140.19C109.133 163.725 114.167 189.713 113.488 215.807C109.174 205.953 105.691 195.652 102.769 185.256C99.9273 175.147 97.5804 164.931 96.5105 154.422C96.1002 150.615 95.8458 146.702 95.7874 142.828C95.7696 141.876 95.2287 138.043 96.0088 137.517C97.3477 136.558 98.5746 139.305 98.9443 140.19Z" fill="#F9F2F2"/>
<path d="M87.3817 155.015C89.396 177.026 86.5348 199.713 79.1651 220.844C78.3233 211.599 78.2505 202.233 78.6347 192.956C79.0334 183.952 79.8492 174.895 81.7097 166.041C82.411 162.789 83.2429 159.563 84.2053 156.362C84.4233 155.591 84.994 152.314 85.7232 152.049C87.0256 151.625 87.2732 154.181 87.3817 155.015Z" fill="#F9F2F2"/>
<path d="M70.1141 174.082C73.3228 168.744 77.1334 163.794 80.6957 158.727C84.5046 153.438 88.2356 148.201 92.0318 142.977C99.6116 132.595 107.284 122.433 115.964 113.01C132.65 94.8461 149.767 76.9017 167.646 59.9188C178.034 50.083 188.932 40.7534 200.317 32.0606C201.746 30.9838 203.231 33.1028 201.866 34.1923C182.205 49.5404 164.185 66.9023 146.806 84.7958C129.506 102.637 112.218 120.413 97.4595 140.511C93.313 146.141 89.1666 151.771 85.0201 157.401C80.6922 163.267 76.5093 169.432 71.6446 174.923C70.9968 175.813 69.5189 175.051 70.1141 174.082Z" fill="#F9F2F2"/>
<path d="M53.098 225.592C51.6541 215.959 54.6051 206.029 58.7346 197.008C60.6315 192.837 62.8294 188.86 64.9094 184.792C65.9821 182.765 67.0548 180.738 68.0621 178.698C68.9788 176.775 69.736 174.28 71.0062 172.63C72.9157 173.612 71.4784 180.99 71.3054 182.921C70.9195 186.641 70.2725 190.31 69.299 193.915C67.3919 201.269 64.4274 208.485 60.5727 215.053C58.4257 218.769 55.9123 222.277 53.098 225.592Z" fill="#F9F2F2"/>
<path d="M21.2173 197.221C30.8989 197.616 40.3754 193.499 48.8421 188.303C52.6917 185.936 56.4616 183.282 60.2188 180.693C62.0911 179.432 63.9761 178.105 65.9136 176.856C67.6951 175.712 70.1295 174.695 71.5702 173.214C70.3611 171.42 63.2757 173.699 61.3603 174.139C57.7506 174.927 54.208 176.066 50.7051 177.349C43.5961 180.098 36.8965 183.875 30.7625 188.576C27.3445 191.163 24.1368 194.062 21.2173 197.221Z" fill="#F9F2F2"/>
</svg>
