<svg width="313" height="255" viewBox="0 0 313 255" fill="none" xmlns="http://www.w3.org/2000/svg">
<path d="M101.676 222.427C95.8048 218.532 89.9332 214.637 83.7116 211.403C73.6249 206.158 62.5778 202.797 51.2215 201.393C48.4279 201.018 46.8687 204.498 48.9621 206.193C53.2414 209.582 57.6134 212.968 61.9824 216.26C66.1633 219.467 70.4339 222.577 74.9736 225.401C91.7196 236 110.931 242.441 130.358 246.928C135.309 248.07 141.214 250.109 146.312 250.041C139.291 244.977 131.101 241.063 123.726 236.567C116.254 231.888 108.967 227.204 101.676 222.427Z" fill="#F9F2F2"/>
<path d="M109.897 212.617C123.632 221.827 138.881 229.042 155.381 231.86C159.857 232.646 164.413 233.058 168.969 233.471C173.992 233.962 179.107 234.45 184.127 234.848C181.935 232.97 179.118 231.853 176.48 230.545C168.102 226.544 160.866 220.56 153.463 215.138C138.561 204.203 122.319 194.886 105.122 187.64C100.516 185.653 95.9161 183.85 91.0526 182.52C87.3094 181.433 79.7159 178.798 75.7737 180.22C70.367 182.245 79.2669 188.084 81.0795 189.696C85.3734 193.548 89.76 197.397 94.2334 201.057C99.3697 205.16 104.497 208.986 109.897 212.617Z" fill="#F9F2F2"/>
<path d="M35.7798 155.705C30.5883 141.033 27.6922 125.64 25.9017 110.026C30.3592 119.065 34.727 128.2 40.0065 136.842C43.2356 142.211 46.8294 147.382 49.9689 152.847C53.3023 158.583 55.999 164.71 58.2355 170.945C59.6579 174.887 60.8083 179.023 61.1279 183.278C61.4095 186.329 61.6228 193.091 58.9081 195.217C53.2911 190.572 48.9729 183.013 45.4367 176.726C41.5212 170.174 38.3292 163.042 35.7798 155.705Z" fill="#F9F2F2"/>
<path d="M57.7911 112.73C58.0765 98.2563 60.5821 83.62 66.6485 70.1695C66.9172 78.6914 67.0933 87.2163 67.362 95.7382C67.5694 102.315 67.6842 108.895 68.6297 115.355C69.4621 121.171 70.9371 126.78 72.2297 132.488C73.8412 139.484 75.3571 146.39 76.6009 153.491C77.8214 159.85 78.8625 166.401 78.5141 172.995C78.3931 175.039 78.5858 181.152 76.7771 182.6C73.9786 185.006 72.3242 179.588 71.5276 177.851C65.4683 165.061 61.3279 151.376 59.2136 137.256C58.1229 129.131 57.5879 120.989 57.7911 112.73Z" fill="#F9F2F2"/>
<path d="M88.7892 131.316C87.6217 117.816 86.8189 104.118 88.5258 90.6198C90.5332 74.8865 95.8986 59.7891 101.171 44.6946C100.959 70.2925 106.665 95.4257 108.583 120.956C109.228 129.652 109.413 138.455 107.459 147.047C106.401 151.716 104.688 156.221 102.414 160.558C100.224 164.614 97.6371 167.848 94.9608 162.369C90.4945 153.052 89.7589 141.485 88.7892 131.316Z" fill="#F9F2F2"/>
<path d="M196.253 204.795C178.743 193.478 161.047 182.168 141.515 174.346C133.721 171.254 125.76 168.723 117.706 166.196C111.056 164.087 104.129 161.988 97.205 162.948C102.568 168.342 109.36 172.022 115.882 175.989C129.878 184.634 142.542 195.176 157.325 202.313C164.95 205.967 173.195 208.674 181.593 210.357C189.337 211.874 199.597 213.776 207.423 212.046C204.186 209.366 199.945 207.182 196.253 204.795Z" fill="#F9F2F2"/>
<path d="M182.323 174.636C189.32 175.991 196.398 176.974 203.472 177.863C215.11 179.351 226.738 180.56 238.453 181.582C239.197 181.651 239.536 180.62 238.783 180.273C231.745 177.621 225.309 173.466 218.792 169.684C196.319 156.855 170.85 148.943 144.629 146.617C138.584 146.066 132.459 145.888 126.467 147.004C123.793 147.459 120.562 147.932 122.96 150.453C124.781 152.342 128.258 153.809 130.525 155.128C140.725 161.019 151.634 165.868 162.878 169.593C169.247 171.617 175.699 173.361 182.323 174.636Z" fill="#F9F2F2"/>
<path d="M130.734 88.2693C137.707 68.2996 146.924 48.9082 152.497 28.6119C154.05 45.531 152.46 62.7347 149.842 79.6926C146.453 101.589 141.122 123.64 129.864 143.003C128.281 145.741 123.967 153.017 122.379 146.762C121.313 142.345 121.43 137.242 121.565 132.694C121.727 123.139 123.371 113.536 125.858 104.186C127.269 98.9488 128.955 93.6105 130.734 88.2693Z" fill="#F9F2F2"/>
<path d="M155.63 86.8349C160.999 63.0215 166.452 38.9273 176.875 16.6236C177.248 25.5131 177.618 34.31 177.899 43.2025C178.169 48.85 178.351 54.593 178.158 60.2551C177.624 75.6638 174.03 91.0762 167.62 105.372C164.417 112.613 160.462 119.506 155.847 126.049C154.16 128.421 151.68 132.115 149.786 127.91C148.387 124.708 149.703 119.382 150.061 116.033C151.329 106.257 153.433 96.5473 155.63 86.8349Z" fill="#F9F2F2"/>
<path d="M203.907 3.53198C202.903 24.6115 201.899 45.6911 198.011 66.4906C196.023 76.9382 193.29 87.3165 188.774 97.0093C186.521 101.995 183.702 106.72 180.41 111.089C179.698 112.038 177.05 116.294 175.452 115.603C174.228 114.992 175.725 109.567 175.87 108.265C179.23 85.4418 183.704 62.6766 190.423 40.4896C194.289 27.8502 198.723 15.5639 203.907 3.53198Z" fill="#F9F2F2"/>
<path d="M244.324 11.9933C239.33 30.0461 234.243 48.1018 226.814 65.3969C223.1 74.0445 218.639 82.5301 212.941 90.0348C210.001 93.8364 206.685 97.4644 202.983 100.641C202.263 101.313 199.12 104.564 197.884 103.583C196.931 102.779 199.298 98.4391 199.726 97.313C207.096 78.1653 215.405 59.3589 225.502 41.4233C231.207 31.2294 237.48 21.3886 244.324 11.9933Z" fill="#F9F2F2"/>
<path d="M160.066 136.301C163.659 138.506 167.347 140.801 170.94 143.005C175.008 145.566 179.165 148.031 183.41 150.308C204.336 161.146 228.626 163.996 252.34 166.215C244.549 160.249 235.342 156.459 226.582 152.099C214.622 146.264 203.279 139.389 190.969 134.214C182.793 130.763 174.085 128.071 165.152 127.054C162.173 126.685 155.544 125.225 153.319 128.169C150.74 131.681 157.7 134.8 160.066 136.301Z" fill="#F9F2F2"/>
<path d="M179.721 118.62C209.814 137.885 244.43 150.609 280.468 155.499C267.879 147.366 254.489 140.278 240.845 133.939C227.576 127.774 214.051 122.267 199.837 118.45C194.692 117.036 189.369 115.813 184.054 114.868C182.748 114.631 177.598 113.031 176.701 113.987C175.083 115.614 178.586 117.914 179.721 118.62Z" fill="#F9F2F2"/>
<path d="M202.689 106.028C232.509 113.711 264.349 114.839 295.054 109.42C282.528 106.199 269.663 104.009 256.819 102.467C244.348 101.005 231.71 100.106 219.118 100.688C214.489 100.927 209.866 101.351 205.25 101.96C204.141 102.088 199.507 102.141 198.98 103.085C198.106 104.782 201.566 105.692 202.689 106.028Z" fill="#F9F2F2"/>
<path d="M232.765 86.5354C224.707 89.7566 217.049 93.8924 209.287 97.6607C201.162 101.718 193.128 105.681 185.096 109.736C169.125 117.842 153.438 126.126 138.542 135.96C109.838 154.854 81.3392 174.389 53.993 195.187C38.1479 207.277 22.8849 220.183 8.38919 233.899C6.58917 235.625 9.17197 238.14 10.9749 236.507C36.4706 212.893 64.3696 191.985 92.8566 172.079C121.254 152.268 149.558 132.46 180.493 116.649C189.161 112.204 197.829 107.758 206.498 103.312C215.531 98.6691 224.943 94.2926 233.579 88.8278C234.948 88.1356 234.23 85.9329 232.765 86.5354Z" fill="#F9F2F2"/>
<path d="M307.402 74.6313C294.476 70.4956 280.163 72.3378 266.833 76.0033C260.674 77.6811 254.714 79.8162 248.656 81.769C245.629 82.7917 242.601 83.8143 239.571 84.7444C236.723 85.576 233.122 86.0604 230.569 87.439C231.493 90.2843 241.96 89.9542 244.655 90.1474C249.857 90.4469 255.047 90.376 260.223 89.8419C270.762 88.8605 281.348 86.3941 291.241 82.5587C296.83 80.4353 302.216 77.762 307.402 74.6313Z" fill="#F9F2F2"/>
<path d="M275.499 24.4545C273.882 37.8574 266.104 49.9711 257.07 60.4554C252.955 65.2212 248.464 69.8135 244.065 74.4029C241.912 76.6961 239.666 78.9922 237.516 81.3781C235.546 83.5728 233.604 86.6939 231.245 88.3445C229.048 86.2812 233.764 77.0458 234.796 74.5097C236.685 69.7213 239.043 65.1036 241.589 60.5727C246.956 51.4094 253.646 43.0389 261.48 35.6523C265.801 31.529 270.504 27.7645 275.499 24.4545Z" fill="#F9F2F2"/>
</svg>
