<svg width="288" height="308" viewBox="0 0 288 308" fill="none" xmlns="http://www.w3.org/2000/svg">
<path d="M231.521 160.061C230.775 165.654 230.029 171.246 229.881 176.859C229.641 185.96 231.094 195.092 234.064 203.76C234.773 205.903 237.825 205.805 238.312 203.704C239.251 199.435 240.156 195.101 240.996 190.801C241.838 186.667 242.581 182.502 243.023 178.243C244.783 162.472 242.686 146.383 239.107 130.822C238.194 126.858 237.592 121.891 235.756 118.245C234.571 125.075 234.624 132.344 233.972 139.229C233.223 146.249 232.405 153.138 231.521 160.061Z" fill="#F9F2F2"/>
<path d="M221.577 157.581C223.393 144.464 223.242 130.956 219.487 118.089C218.484 114.591 217.184 111.166 215.884 107.741C214.476 103.953 213.035 100.099 211.562 96.3456C210.978 98.582 211.161 101.001 211.144 103.359C211.201 110.793 209.429 118.1 208.12 125.331C205.471 139.893 204.457 154.853 205.268 169.774C205.452 173.787 205.767 177.73 206.514 181.698C207.043 184.774 207.808 191.165 210.214 193.505C213.567 196.687 214.651 188.233 215.176 186.363C216.444 181.921 217.677 177.414 218.745 172.91C219.898 167.774 220.855 162.741 221.577 157.581Z" fill="#F9F2F2"/>
<path d="M206.583 230.893C197.84 239.774 187.772 247.255 177.159 254.017C182.104 247.639 187.149 241.293 191.521 234.462C194.254 230.255 196.718 225.855 199.552 221.679C202.513 217.269 205.979 213.179 209.684 209.384C212.023 206.978 214.598 204.699 217.55 202.978C219.647 201.705 224.441 199.182 226.923 200.391C225.548 206.063 221.619 211.822 218.333 216.572C214.988 221.687 210.972 226.485 206.583 230.893Z" fill="#F9F2F2"/>
<path d="M167.927 230.111C157.406 234.979 145.99 238.305 134.18 238.653C140.221 235.472 146.297 232.357 152.338 229.176C157 226.721 161.697 224.332 166.017 221.387C169.912 218.749 173.434 215.721 177.09 212.789C181.562 209.177 186.003 205.664 190.679 202.28C194.83 199.172 199.181 196.126 204.051 194.066C205.565 193.436 209.899 191.155 211.575 191.949C214.289 193.121 210.967 196.211 209.996 197.393C202.912 206.239 194.511 214.017 185.086 220.489C179.619 224.122 173.944 227.362 167.927 230.111Z" fill="#F9F2F2"/>
<path d="M170.442 201.277C161.131 206.85 151.551 212.23 141.234 215.733C129.203 219.802 116.453 221.232 103.737 222.727C122.241 213.907 138.336 200.988 156.045 190.658C162.079 187.145 168.352 183.926 175.223 182.322C178.956 181.447 182.799 181.101 186.719 181.218C190.407 181.373 193.642 182.101 190.635 185.949C185.493 192.43 177.423 197.015 170.442 201.277Z" fill="#F9F2F2"/>
<path d="M185.674 98.1503C183.664 114.724 181.724 131.429 182.94 148.234C183.445 154.929 184.414 161.547 185.418 168.232C186.231 173.759 187.147 179.482 190.266 184.131C192.27 178.379 192.538 172.199 193.108 166.112C194.426 153.005 197.576 140.192 197.533 127.047C197.491 120.276 196.55 113.391 194.817 106.755C193.195 100.648 190.968 92.5952 186.979 87.5667C186.184 90.8366 186.098 94.6559 185.674 98.1503Z" fill="#F9F2F2"/>
<path d="M168.844 118.753C167.367 113.24 165.593 107.8 163.754 102.394C160.745 93.4946 157.54 84.6986 154.169 75.906C153.958 75.3461 153.097 75.4638 153.111 76.1274C153.669 82.1241 152.933 88.2144 152.495 94.232C151.136 114.908 154.368 136.019 161.885 155.713C163.607 160.258 165.626 164.73 168.53 168.652C169.795 170.418 171.268 172.579 172.242 169.969C172.964 167.995 172.801 164.978 172.956 162.883C173.622 153.475 173.289 143.921 172.03 134.52C171.255 129.225 170.248 123.968 168.844 118.753Z" fill="#F9F2F2"/>
<path d="M124.747 186.169C107.925 188.148 90.7327 188.31 74.1668 191.412C85.8034 184.363 98.7468 179.478 111.874 175.418C128.826 170.182 146.571 166.291 164.458 167.609C166.984 167.789 173.735 168.344 169.788 171.68C166.982 173.996 163.267 175.701 159.945 177.198C153.009 180.431 145.519 182.613 137.915 184.1C133.65 184.92 129.216 185.577 124.747 186.169Z" fill="#F9F2F2"/>
<path d="M114.987 168.747C95.9602 173.229 76.7019 177.749 56.9902 178.063C63.2596 174.678 69.4633 171.328 75.7673 168.009C79.7383 165.835 83.8096 163.691 87.9536 161.845C99.2345 156.828 111.591 154.013 124.13 153.617C130.466 153.384 136.815 153.816 143.144 154.845C145.443 155.228 148.972 155.718 146.608 158.556C144.794 160.686 140.497 161.606 137.961 162.522C130.478 165.036 122.75 166.924 114.987 168.747Z" fill="#F9F2F2"/>
<path d="M38.0884 163.19C53.6169 156.523 69.1455 149.857 85.4831 145.365C93.7021 143.135 102.132 141.464 110.693 141.317C115.073 141.192 119.462 141.565 123.762 142.404C124.695 142.584 128.688 142.998 128.75 144.391C128.74 145.487 124.309 146.31 123.32 146.663C105.711 152.244 87.7522 157.002 69.4234 159.943C58.9681 161.59 48.5681 162.704 38.0884 163.19Z" fill="#F9F2F2"/>
<path d="M30.0132 131.126C44.7612 128.393 59.5437 125.726 74.5996 125.012C82.1275 124.655 89.8007 124.892 97.2011 126.363C100.969 127.147 104.743 128.263 108.328 129.815C109.064 130.098 112.507 131.221 112.234 132.455C111.988 133.423 108.034 133.24 107.073 133.327C90.7043 134.732 74.252 135.343 57.7995 134.36C48.4603 133.826 39.1763 132.759 30.0132 131.126Z" fill="#F9F2F2"/>
<path d="M149.046 148.214C149.374 144.855 149.733 141.395 150.061 138.035C150.479 134.209 150.796 130.351 150.948 126.498C151.415 107.633 144.952 89.1453 138.237 71.2941C136.673 78.9951 137.172 86.9517 137.104 94.7873C137.095 105.443 136.122 116.02 136.711 126.697C137.092 133.793 138.206 141.006 140.606 147.794C141.384 150.068 142.656 155.353 145.556 155.923C148.989 156.548 148.794 150.444 149.046 148.214Z" fill="#F9F2F2"/>
<path d="M129.427 140.26C132.748 111.842 129.775 82.4594 120.663 54.7993C119.22 66.7136 118.811 78.8387 119.03 90.8841C119.243 102.598 120.019 114.266 122.253 125.838C123.038 130.037 124.024 134.299 125.207 138.457C125.494 139.48 126.148 143.748 127.15 144.059C128.889 144.654 129.317 141.325 129.427 140.26Z" fill="#F9F2F2"/>
<path d="M112.309 128.138C107.387 103.975 97.0387 80.6565 82.3739 60.4491C84.4457 70.5968 87.3782 80.6267 90.7703 90.4147C94.0898 99.9055 97.8724 109.32 102.706 118.182C104.5 121.43 106.426 124.61 108.483 127.72C108.963 128.474 110.626 131.792 111.49 131.84C113.018 131.874 112.461 129.064 112.309 128.138Z" fill="#F9F2F2"/>
<path d="M87.7321 113.317C92.8758 117.989 98.538 122.053 103.972 126.321C109.741 130.748 115.41 135.144 121.145 139.505C132.58 148.161 144.043 156.552 156.345 163.829C180.009 177.872 204.064 191.542 228.624 203.94C242.882 211.11 257.524 217.575 272.481 223.203C274.354 223.894 275.26 221.153 273.452 220.428C247.514 210.349 222.681 197.592 198.364 184.06C174.146 170.56 149.964 157.125 127.737 140.396C121.497 135.713 115.258 131.031 109.018 126.348C102.509 121.472 96.0589 116.23 89.0971 111.927C88.1189 111.184 86.7849 112.474 87.7321 113.317Z" fill="#F9F2F2"/>
<path d="M52.9994 63.7541C54.5529 74.5101 60.8967 84.1698 68.2082 92.4813C71.5753 96.3278 75.2015 99.87 78.731 103.547C80.5286 105.368 82.3262 107.19 84.0581 109.045C85.6552 110.805 87.2662 113.227 89.1536 114.582C90.8781 112.919 86.9713 105.499 86.1657 103.491C84.5579 99.6406 82.6875 95.9287 80.4887 92.3897C76.0877 85.1457 70.6014 78.3893 64.3722 72.6111C60.8842 69.3315 57.0714 66.3907 52.9994 63.7541Z" fill="#F9F2F2"/>
<path d="M28.0566 104.312C38.2732 100.778 49.7209 102.131 60.4361 104.96C65.3098 106.252 70.1904 107.876 75.0365 109.434C77.4422 110.18 79.8826 110.992 82.354 111.704C84.6249 112.353 87.5525 112.657 89.5677 113.777C88.8526 116.082 80.5504 115.924 78.3625 116.07C74.2529 116.388 70.1018 116.309 65.9472 116.065C57.4686 115.413 49.097 113.53 41.0328 110.479C36.5496 108.814 32.1908 106.748 28.0566 104.312Z" fill="#F9F2F2"/>
</svg>
