<svg width="21" height="21" viewBox="0 0 21 21" fill="none" xmlns="http://www.w3.org/2000/svg">
<path opacity="0.2" d="M5.11701 11.4187C5.11701 10.4863 5.87287 9.73047 6.80528 9.73047H7.12807C8.23874 9.73047 9.13912 8.83009 9.13912 7.71942V4.9774C9.13912 2.5851 7.19978 0.645752 4.80748 0.645752C2.41517 0.645752 0.47583 2.58509 0.47583 4.9774V9.73037C0.47583 9.73042 0.475877 9.73047 0.475935 9.73047C0.475993 9.73047 0.476039 9.73052 0.476039 9.73058V11.4187C0.476039 14.847 1.41663 17.3926 3.27185 18.9854C3.97963 19.593 4.79116 20.0354 5.69889 20.3101C6.98519 20.6992 8.10022 19.5563 8.10022 18.2124C8.10022 16.8686 6.74852 15.991 5.93077 14.9246C5.45794 14.3079 5.11701 13.2463 5.11701 11.4187ZM17.2676 14.9246C18.0853 15.991 19.437 16.8686 19.437 18.2124C19.437 19.5563 18.322 20.6992 17.0357 20.31C16.128 20.0354 15.3165 19.593 14.6088 18.9854C12.7535 17.3926 11.8129 14.8469 11.8129 11.4187V9.73047V4.97724C11.8129 2.58503 13.7521 0.645752 16.1443 0.645752C18.5366 0.645752 20.4758 2.58502 20.4758 4.97724V7.71942C20.4758 8.83009 19.5754 9.73047 18.4648 9.73047H18.142C17.2096 9.73047 16.4537 10.4863 16.4537 11.4187C16.4538 13.2464 16.7947 14.3079 17.2676 14.9246Z" fill="url(#paint0_linear)"/>
<defs>
<linearGradient id="paint0_linear" x1="19.9336" y1="12.8494" x2="0.729549" y2="12.735" gradientUnits="userSpaceOnUse">
<stop offset="0.4375" stop-color="#12CAD6"/>
<stop offset="1" stop-color="#12B3D6"/>
</linearGradient>
</defs>
</svg>
