<svg width="140" height="198" viewBox="0 0 140 198" fill="none" xmlns="http://www.w3.org/2000/svg">
<path d="M-8.68819 103.253C-8.21018 106.837 -7.73217 110.422 -7.63743 114.02C-7.48319 119.853 -8.41451 125.706 -10.3183 131.262C-10.7727 132.635 -12.7289 132.573 -13.041 131.226C-13.6432 128.49 -14.2233 125.712 -14.7612 122.956C-15.3014 120.306 -15.7773 117.636 -16.0605 114.907C-17.1889 104.798 -15.8449 94.4853 -13.5505 84.5119C-12.9653 81.9709 -12.5793 78.7874 -11.4026 76.4504C-10.6434 80.8281 -10.6773 85.4871 -10.2592 89.9002C-9.7791 94.3998 -9.25469 98.8151 -8.68819 103.253Z" fill="white"/>
<path d="M-2.31524 101.663C-3.47933 93.2555 -3.38282 84.5977 -0.975708 76.3501C-0.332917 74.1082 0.500396 71.9129 1.3337 69.7176C2.23572 67.2896 3.1599 64.8196 4.10401 62.4138C4.4782 63.8472 4.36056 65.398 4.37142 66.9089C4.33529 71.6742 5.47111 76.3577 6.31008 80.9924C8.00794 90.3262 8.65789 99.9145 8.1381 109.478C8.02032 112.05 7.81835 114.578 7.33945 117.121C7.00021 119.093 6.51002 123.189 4.96789 124.689C2.81865 126.729 2.1238 121.31 1.78723 120.111C0.974591 117.264 0.184112 114.375 -0.500031 111.489C-1.2395 108.196 -1.8527 104.971 -2.31524 101.663Z" fill="white"/>
<path d="M7.29613 148.653C12.9003 154.345 19.353 159.14 26.1559 163.474C22.9863 159.387 19.7524 155.319 16.9505 150.941C15.1985 148.244 13.6193 145.424 11.8031 142.747C9.90492 139.92 7.68324 137.299 5.30868 134.866C3.80908 133.324 2.15882 131.864 0.267024 130.76C-1.07761 129.945 -4.15013 128.327 -5.7409 129.102C-4.8597 132.738 -2.34132 136.429 -0.234913 139.473C1.90912 142.753 4.48298 145.828 7.29613 148.653Z" fill="white"/>
<path d="M32.0728 148.151C38.816 151.272 46.1332 153.404 53.7032 153.626C49.831 151.588 45.9366 149.591 42.0644 147.552C39.076 145.979 36.0655 144.448 33.2965 142.56C30.8 140.869 28.5428 138.928 26.1992 137.049C23.3328 134.734 20.4863 132.482 17.4892 130.313C14.8288 128.321 12.0399 126.369 8.91856 125.048C7.94827 124.645 5.17038 123.182 4.09584 123.691C2.35664 124.442 4.48535 126.423 5.10777 127.181C9.64852 132.851 15.0334 137.836 21.0742 141.984C24.5787 144.313 28.2161 146.39 32.0728 148.151Z" fill="white"/>
<path d="M30.4596 129.67C36.4273 133.242 42.5679 136.69 49.1806 138.936C56.892 141.544 65.0645 142.46 73.2148 143.419C61.3544 137.765 51.0384 129.485 39.6877 122.864C35.8199 120.612 31.7993 118.549 27.3952 117.521C25.0026 116.96 22.5392 116.738 20.0269 116.813C17.663 116.912 15.5894 117.379 17.5164 119.845C20.8123 124 25.9848 126.938 30.4596 129.67Z" fill="white"/>
<path d="M20.6969 63.5703C21.9847 74.1933 23.2282 84.9005 22.449 95.6717C22.125 99.9628 21.504 104.205 20.861 108.49C20.3398 112.032 19.7522 115.701 17.7535 118.68C16.4691 114.994 16.2969 111.032 15.9319 107.131C15.0868 98.7301 13.0676 90.5173 13.0954 82.0921C13.1226 77.7522 13.7258 73.3392 14.8363 69.0858C15.8759 65.1713 17.3034 60.0096 19.8604 56.7866C20.3696 58.8824 20.4247 61.3304 20.6969 63.5703Z" fill="white"/>
<path d="M31.4832 76.7756C32.4297 73.2421 33.5667 69.7553 34.7458 66.2905C36.674 60.5862 38.7285 54.9483 40.8893 49.3126C41.0245 48.9537 41.5762 49.0291 41.5672 49.4545C41.21 53.2982 41.6813 57.2018 41.9621 61.0588C42.8331 74.3115 40.7619 87.8428 35.9438 100.465C34.8401 103.379 33.5459 106.245 31.6846 108.759C30.8736 109.891 29.9297 111.276 29.3052 109.603C28.8423 108.338 28.9467 106.404 28.8472 105.061C28.4205 99.031 28.6341 92.9077 29.4414 86.8819C29.9381 83.488 30.5833 80.1185 31.4832 76.7756Z" fill="white"/>
<path d="M59.7493 119.987C70.5314 121.255 81.5508 121.359 92.169 123.348C84.7104 118.829 76.4141 115.698 68.0004 113.096C57.1344 109.74 45.7609 107.246 34.296 108.091C32.6766 108.206 28.3498 108.562 30.8795 110.7C32.6782 112.184 35.0596 113.277 37.1885 114.237C41.6345 116.309 46.435 117.707 51.3088 118.66C54.0425 119.186 56.8848 119.607 59.7493 119.987Z" fill="white"/>
<path d="M66.0042 108.819C78.1995 111.692 90.5433 114.59 103.178 114.791C99.1593 112.621 95.183 110.474 91.1424 108.347C88.5971 106.953 85.9876 105.579 83.3315 104.396C76.1009 101.18 68.1811 99.3755 60.1436 99.1218C56.0828 98.9728 52.0131 99.2491 47.9566 99.9087C46.4833 100.154 44.2214 100.469 45.7364 102.288C46.8993 103.653 49.653 104.242 51.279 104.83C56.0751 106.441 61.0286 107.651 66.0042 108.819Z" fill="white"/>
<path d="M115.293 105.258C105.34 100.985 95.3866 96.7124 84.9148 93.833C79.6468 92.4033 74.2436 91.3325 68.7561 91.2387C65.9492 91.1585 63.1356 91.3974 60.3795 91.9353C59.7814 92.0504 57.2225 92.3159 57.1825 93.2087C57.1891 93.911 60.0291 94.4387 60.6627 94.6647C71.9497 98.242 83.4604 101.292 95.2084 103.177C101.91 104.232 108.576 104.947 115.293 105.258Z" fill="white"/>
<path d="M120.471 84.7061C111.018 82.9545 101.543 81.2451 91.8926 80.7873C87.0675 80.5584 82.1493 80.7106 77.406 81.6537C74.9911 82.1562 72.5718 82.8714 70.2743 83.8658C69.8024 84.0474 67.5957 84.7671 67.7706 85.558C67.9278 86.1784 70.4623 86.0613 71.0781 86.1168C81.5701 87.0178 92.1154 87.4092 102.661 86.7793C108.647 86.4368 114.598 85.7531 120.471 84.7061Z" fill="white"/>
<path d="M44.1746 95.6591C43.9644 93.5057 43.7344 91.2881 43.5242 89.1347C43.2565 86.6822 43.053 84.2098 42.9559 81.7396C42.6564 69.6479 46.7987 57.7983 51.1026 46.3564C52.1055 51.2924 51.7857 56.3922 51.8293 61.4146C51.835 68.2446 52.4587 75.0238 52.0811 81.8672C51.8368 86.4153 51.1228 91.0388 49.5847 95.3896C49.086 96.8473 48.2702 100.235 46.4114 100.6C44.2115 101 44.3361 97.0881 44.1746 95.6591Z" fill="white"/>
<path d="M56.7486 90.561C54.6201 72.3457 56.5258 53.5129 62.3659 35.7839C63.2909 43.4205 63.5534 51.1921 63.4127 58.9128C63.2765 66.4208 62.7792 73.8999 61.3469 81.3168C60.8436 84.0085 60.2119 86.74 59.4538 89.405C59.2698 90.0607 58.8507 92.7967 58.2082 92.996C57.0938 93.3769 56.8194 91.2434 56.7486 90.561Z" fill="white"/>
<path d="M67.7209 82.7913C70.8756 67.3039 77.5085 52.3575 86.9081 39.4054C85.5801 45.9097 83.7005 52.3385 81.5263 58.6122C79.3986 64.6954 76.9741 70.7298 73.8762 76.4096C72.7261 78.4919 71.4918 80.5299 70.1734 82.5236C69.8653 83.0065 68.7994 85.1331 68.2456 85.1641C67.2664 85.1861 67.6233 83.385 67.7209 82.7913Z" fill="white"/>
<path d="M83.474 73.2917C80.1771 76.2864 76.5479 78.8912 73.0649 81.6267C69.3669 84.4641 65.7333 87.2816 62.0575 90.0769C54.7282 95.6254 47.3811 101.003 39.4958 105.668C24.3279 114.669 8.90968 123.431 -6.83189 131.378C-15.9711 135.973 -25.3561 140.117 -34.9427 143.724C-36.1435 144.167 -36.7237 142.41 -35.5649 141.945C-18.9396 135.485 -3.02303 127.308 12.5636 118.635C28.0859 109.982 43.5861 101.371 57.8327 90.6479C61.8319 87.6466 65.8311 84.6453 69.8304 81.644C74.0024 78.5187 78.1368 75.1585 82.5991 72.401C83.2261 71.9248 84.0811 72.7512 83.474 73.2917Z" fill="white"/>
<path d="M105.736 41.5238C104.74 48.418 100.674 54.6095 95.9879 59.9369C93.8298 62.4023 91.5055 64.6727 89.2432 67.0296C88.091 68.1969 86.9389 69.3643 85.8288 70.5538C84.8051 71.6813 83.7725 73.2341 82.5628 74.1024C81.4574 73.0366 83.9615 68.2805 84.4779 66.9935C85.5084 64.5257 86.7073 62.1465 88.1166 59.8781C90.9375 55.235 94.454 50.9044 98.4466 47.2009C100.682 45.0988 103.126 43.2138 105.736 41.5238Z" fill="white"/>
<path d="M121.723 67.5193C115.174 65.2542 107.837 66.1216 100.969 67.935C97.8449 68.7631 94.7166 69.8039 91.6105 70.8026C90.0685 71.2809 88.5043 71.8013 86.9202 72.2574C85.4647 72.6737 83.5882 72.8684 82.2965 73.586C82.7549 75.0638 88.0763 74.9626 89.4786 75.0559C92.1127 75.2601 94.7734 75.2095 97.4363 75.0526C102.871 74.6346 108.237 73.428 113.405 71.4726C116.279 70.4052 119.073 69.0808 121.723 67.5193Z" fill="white"/>
</svg>
