<svg width="81" height="80" viewBox="0 0 81 80" fill="none" xmlns="http://www.w3.org/2000/svg">
<g filter="url(#filter0_d)">
<path fill-rule="evenodd" clip-rule="evenodd" d="M36.4531 16C47.4988 16 56.4531 24.9543 56.4531 36C56.4531 47.0457 47.4988 56 36.4531 56C25.4074 56 16.4531 47.0457 16.4531 36C16.4531 24.9543 25.4074 16 36.4531 16Z" fill="#7F4DA0"/>
<path fill-rule="evenodd" clip-rule="evenodd" d="M41.7819 33.4654C41.6846 32.6751 41.4417 32.0546 41.0103 31.505C40.4502 30.7973 39.7344 30.3735 38.6747 30.1221C37.9841 29.9545 37.705 29.9737 37.4552 30.2019C37.2226 30.4157 37.1772 30.8442 37.355 31.1217C37.48 31.3231 37.6242 31.3953 38.0254 31.474C38.5597 31.5723 38.9289 31.6999 39.2648 31.8919C39.9776 32.3036 40.3096 32.9477 40.3452 33.9905C40.3618 34.4801 40.4041 34.6306 40.5751 34.8043C40.892 35.1217 41.4561 35.06 41.6954 34.6801C41.7832 34.5369 41.7966 34.4746 41.8059 34.1421C41.812 33.9363 41.8031 33.6299 41.7819 33.4654Z" fill="white"/>
<path fill-rule="evenodd" clip-rule="evenodd" d="M44.5716 34.3563C44.4308 31.9352 43.4838 29.9873 41.789 28.6168C40.8341 27.8467 39.6798 27.3171 38.4146 27.0596C37.9512 26.9675 37.0978 26.8929 36.9515 26.9356C36.8133 26.9751 36.6179 27.1247 36.5308 27.2599C36.4388 27.4066 36.418 27.7341 36.4966 27.9236C36.6234 28.2403 36.8593 28.3521 37.5199 28.4099C38.5383 28.499 39.5887 28.8568 40.3824 29.3865C41.2885 29.9897 42.0088 30.8146 42.4748 31.7839C42.8774 32.6168 43.125 33.817 43.1181 34.8919C43.1158 35.2806 43.1758 35.5001 43.3322 35.6606C43.5682 35.9074 43.9121 35.9614 44.2157 35.7975C44.5521 35.6205 44.6308 35.31 44.5716 34.3563Z" fill="white"/>
<path fill-rule="evenodd" clip-rule="evenodd" d="M47.6635 43.6805C47.6162 43.5421 47.5057 43.3286 47.4267 43.2061C46.9294 42.455 44.2571 40.3637 42.9229 39.6798C42.1611 39.2885 41.5967 39.158 41.1783 39.2805C40.7283 39.4071 40.4914 39.6165 39.7375 40.5535C39.4336 40.929 39.1217 41.2809 39.0388 41.3362C38.8336 41.4785 38.431 41.5932 38.1468 41.5932C37.4876 41.5892 36.2916 41.1623 35.3719 40.6009C34.6574 40.1661 33.7417 39.3873 33.039 38.6164C32.2101 37.7111 31.6457 36.9126 31.1996 36.0112C30.6234 34.853 30.4773 34.1453 30.7181 33.6274C30.7773 33.497 30.8562 33.3586 30.8917 33.3151C30.9273 33.2756 31.2983 32.9712 31.7088 32.6391C32.5141 31.9987 32.6443 31.8525 32.7943 31.4136C32.9838 30.8562 32.9325 30.287 32.6404 29.7138C32.4154 29.2789 31.8272 28.3301 31.4009 27.7174C30.8365 26.911 29.4313 25.1874 29.151 24.9541C28.6457 24.543 27.9984 24.4718 27.2839 24.7485C26.5301 25.0411 25.1169 26.1796 24.513 26.9742C23.9683 27.6937 23.7591 28.2036 23.7275 28.8757C23.6999 29.4291 23.7472 29.6584 24.0393 30.366C26.3248 35.9163 29.7352 40.3479 34.4206 43.8663C36.8679 45.7045 39.4059 47.104 42.0387 48.0607C43.5742 48.618 44.2413 48.6457 45.0268 48.1872C45.3583 47.9895 46.1794 47.1474 46.6372 46.5347C47.3951 45.5147 47.6754 45.0443 47.7543 44.6688C47.8096 44.4118 47.7662 43.9651 47.6635 43.6805Z" fill="white"/>
<path fill-rule="evenodd" clip-rule="evenodd" d="M47.4154 34.9127C47.3648 33.5432 47.1342 32.4199 46.6534 31.1674C46.1787 29.9354 45.6983 29.1315 44.791 28.0441C43.9332 27.0246 43.2669 26.4425 42.2102 25.7945C40.736 24.8917 38.9418 24.2942 36.9311 24.043C36.2454 23.9551 36.0903 23.9614 35.8799 24.1018C35.4723 24.3677 35.4777 25.0309 35.8867 25.2928C36.022 25.3762 36.1422 25.4065 36.6906 25.4783C37.5326 25.5917 38.074 25.6985 38.7165 25.8738C41.2356 26.5624 43.1729 27.97 44.4681 30.0596C45.5519 31.8012 46.0018 33.543 45.9379 35.7676C45.9157 36.5196 45.9318 36.652 46.0468 36.8327C46.267 37.1695 46.8476 37.2361 47.1454 36.9566C47.3307 36.7863 47.3657 36.6584 47.4022 36.0148C47.4197 35.679 47.4234 35.1833 47.4154 34.9127Z" fill="white"/>
</g>
<defs>
<filter id="filter0_d" x="0.453125" y="0" width="80" height="80" filterUnits="userSpaceOnUse" color-interpolation-filters="sRGB">
<feFlood flood-opacity="0" result="BackgroundImageFix"/>
<feColorMatrix in="SourceAlpha" type="matrix" values="0 0 0 0 0 0 0 0 0 0 0 0 0 0 0 0 0 0 127 0"/>
<feOffset dx="4" dy="4"/>
<feGaussianBlur stdDeviation="10"/>
<feColorMatrix type="matrix" values="0 0 0 0 0 0 0 0 0 0 0 0 0 0 0 0 0 0 0.21 0"/>
<feBlend mode="normal" in2="BackgroundImageFix" result="effect1_dropShadow"/>
<feBlend mode="normal" in="SourceGraphic" in2="effect1_dropShadow" result="shape"/>
</filter>
</defs>
</svg>
