<svg width="81" height="80" viewBox="0 0 81 80" fill="none" xmlns="http://www.w3.org/2000/svg">
<g filter="url(#filter0_d)">
<path fill-rule="evenodd" clip-rule="evenodd" d="M36.4531 56C47.4988 56 56.4531 47.0457 56.4531 36C56.4531 24.9543 47.4988 16 36.4531 16C25.4074 16 16.4531 24.9543 16.4531 36C16.4531 47.0457 25.4074 56 36.4531 56Z" fill="#25D366"/>
<path fill-rule="evenodd" clip-rule="evenodd" d="M37.1098 47.127H37.1048C35.1144 47.1263 33.1587 46.6269 31.4216 45.6795L25.1172 47.3333L26.8044 41.1706C25.7636 39.367 25.216 37.3212 25.2169 35.2251C25.2195 28.668 30.5545 23.3333 37.1096 23.3333C40.2911 23.3346 43.277 24.5731 45.5224 26.8211C47.7677 29.0689 49.0036 32.0569 49.0023 35.2345C48.9997 41.7901 43.6668 47.1243 37.1098 47.127ZM31.713 43.5266L32.0739 43.7408C33.5916 44.6414 35.3313 45.118 37.105 45.1186H37.109C42.5571 45.1186 46.9914 40.6843 46.9935 35.2339C46.9946 32.5927 45.9674 30.1093 44.1012 28.2408C42.2349 26.3724 39.7531 25.343 37.1129 25.3421C31.6605 25.3421 27.2262 29.7759 27.2241 35.2259C27.2233 37.0937 27.7459 38.9126 28.7354 40.4864L28.9704 40.8604L27.9718 44.508L31.713 43.5266ZM43.1022 38.0627C43.0279 37.9387 42.8299 37.8644 42.5327 37.7156C42.2355 37.5668 40.7746 36.8481 40.5022 36.7488C40.2298 36.6497 40.0316 36.6001 39.8336 36.8975C39.6355 37.195 39.066 37.8644 38.8927 38.0627C38.7193 38.261 38.546 38.2858 38.2489 38.1371C37.9518 37.9883 36.9943 37.6746 35.8592 36.6622C34.9759 35.8742 34.3795 34.9011 34.2061 34.6036C34.0328 34.3061 34.1877 34.1454 34.3364 33.9972C34.4701 33.864 34.6336 33.65 34.7822 33.4766C34.9307 33.3031 34.9803 33.1791 35.0793 32.9809C35.1784 32.7825 35.1289 32.609 35.0545 32.4603C34.9803 32.3115 34.386 30.8488 34.1384 30.2538C33.8971 29.6744 33.6522 29.7529 33.4698 29.7437C33.2966 29.735 33.0983 29.7332 32.9002 29.7332C32.7022 29.7332 32.3802 29.8076 32.1078 30.1051C31.8355 30.4026 31.0678 31.1215 31.0678 32.5841C31.0678 34.0467 32.1326 35.4597 32.2812 35.658C32.4297 35.8564 34.3765 38.8578 37.3575 40.145C38.0664 40.4512 38.6199 40.634 39.0515 40.7709C39.7633 40.9972 40.4112 40.9652 40.9231 40.8887C41.4941 40.8034 42.6812 40.1699 42.929 39.4758C43.1764 38.7816 43.1765 38.1866 43.1022 38.0627Z" fill="#FDFDFD"/>
</g>
<defs>
<filter id="filter0_d" x="0.453125" y="0" width="80" height="80" filterUnits="userSpaceOnUse" color-interpolation-filters="sRGB">
<feFlood flood-opacity="0" result="BackgroundImageFix"/>
<feColorMatrix in="SourceAlpha" type="matrix" values="0 0 0 0 0 0 0 0 0 0 0 0 0 0 0 0 0 0 127 0"/>
<feOffset dx="4" dy="4"/>
<feGaussianBlur stdDeviation="10"/>
<feColorMatrix type="matrix" values="0 0 0 0 0 0 0 0 0 0 0 0 0 0 0 0 0 0 0.21 0"/>
<feBlend mode="normal" in2="BackgroundImageFix" result="effect1_dropShadow"/>
<feBlend mode="normal" in="SourceGraphic" in2="effect1_dropShadow" result="shape"/>
</filter>
</defs>
</svg>
