<svg width="43" height="61" viewBox="0 0 43 61" fill="none" xmlns="http://www.w3.org/2000/svg">
<path d="M21.0626 2.03255V2.90166C19.2731 3.35844 17.9746 4.68799 17.9746 6.25446C17.9746 8.19672 19.9721 9.7778 22.4266 9.7778C23.3609 9.7778 24.1506 10.2754 24.1506 10.865C24.1506 11.4545 23.3609 11.9521 22.4266 11.9521C21.5605 11.9521 20.9324 11.5392 20.7585 11.1317C20.4898 10.502 19.7007 10.1871 18.9983 10.4264C18.2945 10.6658 17.9412 11.3692 18.2092 11.9984C18.6682 13.0752 19.743 13.8846 21.0633 14.219V15.0869C21.0633 15.7593 21.6744 16.305 22.4273 16.305C23.1802 16.305 23.7912 15.7593 23.7912 15.0869V14.2178C25.5807 13.761 26.8792 12.4314 26.8792 10.8656C26.8792 8.92331 24.8817 7.34222 22.4273 7.34222C21.4929 7.34222 20.7032 6.84463 20.7032 6.25507C20.7032 5.66551 21.4929 5.16792 22.4273 5.16792C23.3609 5.16792 23.9992 5.63324 24.1247 6.07114C24.3123 6.72221 25.0515 7.11627 25.786 6.94756C26.5151 6.78007 26.9549 6.11621 26.7674 5.46453C26.4093 4.22085 25.2588 3.27439 23.7912 2.9047V2.03255C23.7912 1.36016 23.1802 0.814453 22.4273 0.814453C21.6744 0.814453 21.0626 1.36016 21.0626 2.03255Z" fill="url(#paint0_linear)"/>
<path d="M30.7573 35.9385C37.4947 35.9385 42.9766 31.0436 42.9766 25.026V17.4745C42.9766 16.8109 42.3717 16.2714 41.6294 16.2714H33.1737C28.1406 16.2714 23.554 19.1054 21.7588 23.3243L21.5786 23.7473L21.3985 23.3243C19.6033 19.1054 15.0159 16.2714 9.9836 16.2714H1.52784C0.784758 16.2714 0.180664 16.8115 0.180664 17.4745V25.026C0.180664 31.0429 5.66177 35.9385 12.4 35.9385H20.2315V38.7677L20.0567 38.7823C15.5097 39.1602 11.3152 41.2336 8.55024 44.4712L8.492 44.5385H3.50939C3.11184 44.5385 2.7368 44.6945 2.47979 44.9656C2.22278 45.2375 2.11407 45.5939 2.18163 45.9441L4.69118 59.0909C4.80221 59.6713 5.3605 60.0922 6.01894 60.0922H37.1375C37.796 60.0922 38.355 59.6713 38.4661 59.0909L40.9756 45.9441C41.0424 45.5939 40.9337 45.2375 40.6775 44.9656C40.4205 44.6945 40.0454 44.5385 39.6479 44.5385H34.666L34.6078 44.4712C31.8405 41.2336 27.6467 39.1595 23.1013 38.7823L22.9266 38.7677V35.9385H30.7573ZM23.6487 27.1839C23.6487 22.4942 27.9216 18.6783 33.1729 18.6783H40.2815V25.0266C40.2815 29.7163 36.0085 33.5323 30.7573 33.5323H25.5542L34.1256 25.8775C34.3803 25.65 34.5201 25.3477 34.5201 25.0266C34.5201 24.7056 34.3795 24.4033 34.1256 24.1758C33.617 23.7209 32.7287 23.7209 32.2201 24.1758L23.6487 31.8306V27.1839ZM19.5078 31.8306L10.9363 24.1758C10.4277 23.7209 9.53946 23.7209 9.03087 24.1758C8.77619 24.4033 8.63643 24.7056 8.63643 25.0266C8.63643 25.3477 8.77697 25.65 9.03087 25.8775L17.6023 33.5323H12.3992C7.14793 33.5323 2.87502 29.7163 2.87502 25.0266V18.6783H9.98283C15.2341 18.6783 19.507 22.4942 19.507 27.1839V31.8306H19.5078ZM38.0507 46.9454L36 57.6853H7.15647L5.10581 46.9454H38.0507ZM30.7161 44.2389L31.0912 44.5385H12.0653L12.4404 44.2389C14.9569 42.2266 18.2025 41.1185 21.5786 41.1185C24.9539 41.1185 28.1996 42.2266 30.7161 44.2389Z" fill="url(#paint1_linear)"/>
<defs>
<linearGradient id="paint0_linear" x1="26.6378" y1="6.85292" x2="18.0874" y2="6.88221" gradientUnits="userSpaceOnUse">
<stop offset="0.4375" stop-color="#12CAD6"/>
<stop offset="1" stop-color="#12B3D6"/>
</linearGradient>
<linearGradient id="paint1_linear" x1="41.8164" y1="33.3535" x2="0.723503" y2="33.5927" gradientUnits="userSpaceOnUse">
<stop offset="0.4375" stop-color="#12CAD6"/>
<stop offset="1" stop-color="#12B3D6"/>
</linearGradient>
</defs>
</svg>
