<svg width="33" height="42" viewBox="0 0 33 42" fill="none" xmlns="http://www.w3.org/2000/svg">
<path d="M25.9059 29.9395H7.56701C6.30097 29.9395 5.27464 30.9397 5.27464 32.1736C5.27464 33.4074 6.30097 34.4076 7.56701 34.4076H25.9059C27.172 34.4076 28.1983 33.4074 28.1983 32.1736C28.1983 30.9397 27.172 29.9395 25.9059 29.9395Z" fill="url(#paint0_linear)"/>
<path d="M29.3675 12.0667C30.0093 12.0667 30.4907 12.4241 30.4907 12.7369V38.2056C30.4907 38.5184 30.0093 38.8759 29.3675 38.8759H2.98231V12.0667H29.3675ZM29.3675 9.83259H0.689941V41.11H29.3675C30.2139 41.1592 31.0463 40.8824 31.6852 40.3391C32.3242 39.7958 32.7184 39.0296 32.7831 38.2056V12.7369C32.7184 11.9129 32.3242 11.1467 31.6852 10.6034C31.0463 10.0601 30.2139 9.7833 29.3675 9.83259Z" fill="url(#paint1_linear)"/>
<path d="M25.906 4.00158V9.83257H7.93382L25.906 4.00158ZM28.1983 0.896179L0.689941 9.83259V12.0667H28.1983V0.896179Z" fill="url(#paint2_linear)"/>
<path d="M16.398 25.1288C13.9173 25.1288 11.908 23.1932 11.908 20.8044C11.908 18.4182 13.9173 16.481 16.398 16.481C17.6343 16.481 18.7538 16.9625 19.5636 17.7424C18.5589 16.3573 16.8929 15.4521 15.0086 15.4521C11.9397 15.4521 9.4506 17.8483 9.4506 20.8044C9.4506 23.7625 11.9397 26.1575 15.0086 26.1575C16.8929 26.1575 18.5589 25.251 19.5636 23.8685C18.7538 24.6454 17.6343 25.1288 16.398 25.1288Z" fill="url(#paint3_linear)"/>
<path d="M21.7777 18.5099L22.814 19.9505L24.5584 19.4453L23.4554 20.8415L24.4917 22.2848L22.774 21.7036L21.6711 23.0997L21.7111 21.3456L19.9934 20.7644L21.7377 20.264L21.7777 18.5099Z" fill="url(#paint4_linear)"/>
<defs>
<linearGradient id="paint0_linear" x1="31.913" y1="16.5744" x2="1.09668" y2="16.7209" gradientUnits="userSpaceOnUse">
<stop offset="0.4375" stop-color="#12CAD6"/>
<stop offset="1" stop-color="#12B3D6"/>
</linearGradient>
<linearGradient id="paint1_linear" x1="31.913" y1="16.5744" x2="1.09668" y2="16.7209" gradientUnits="userSpaceOnUse">
<stop offset="0.4375" stop-color="#12CAD6"/>
<stop offset="1" stop-color="#12B3D6"/>
</linearGradient>
<linearGradient id="paint2_linear" x1="31.913" y1="16.5744" x2="1.09668" y2="16.7209" gradientUnits="userSpaceOnUse">
<stop offset="0.4375" stop-color="#12CAD6"/>
<stop offset="1" stop-color="#12B3D6"/>
</linearGradient>
<linearGradient id="paint3_linear" x1="31.913" y1="16.5744" x2="1.09668" y2="16.7209" gradientUnits="userSpaceOnUse">
<stop offset="0.4375" stop-color="#12CAD6"/>
<stop offset="1" stop-color="#12B3D6"/>
</linearGradient>
<linearGradient id="paint4_linear" x1="31.913" y1="16.5744" x2="1.09668" y2="16.7209" gradientUnits="userSpaceOnUse">
<stop offset="0.4375" stop-color="#12CAD6"/>
<stop offset="1" stop-color="#12B3D6"/>
</linearGradient>
</defs>
</svg>
