<svg width="194" height="232" viewBox="0 0 194 232" fill="none" xmlns="http://www.w3.org/2000/svg">
<g opacity="0.52">
<path d="M-1.93957 81.9224C-0.716774 77.0324 0.506022 72.1425 1.20801 67.1625C2.347 59.0885 2.00805 50.7841 0.294946 42.7103C-0.106322 40.7175 -2.7852 40.4382 -3.42555 42.251C-4.68271 45.9391 -5.91636 49.6898 -7.08904 53.4176C-8.24783 56.9972 -9.32212 60.6166 -10.143 64.355C-13.2917 78.1864 -13.0996 92.7628 -11.5568 107.046C-11.1628 110.685 -11.143 115.179 -9.90959 118.646C-8.17682 112.707 -7.48144 106.228 -6.20852 100.176C-4.83723 94.0159 -3.41888 87.9806 -1.93957 81.9224Z" fill="#F9F2F2"/>
<path d="M6.50411 85.3232C3.57749 96.7844 2.33096 108.829 4.30226 120.736C4.82239 123.97 5.60987 127.175 6.39735 130.381C7.24154 133.922 8.10927 137.526 9.01441 141.045C9.75313 139.123 9.83948 136.947 10.0948 134.85C10.8041 128.224 13.0993 121.931 14.9818 115.65C18.7841 103.002 21.1972 89.8041 22.0104 76.4219C22.2591 72.827 22.386 69.278 22.1374 65.6557C21.9884 62.8534 21.9717 57.0717 20.1064 54.7003C17.4988 51.4645 15.6881 58.862 15.0381 60.464C13.4762 64.2667 11.9378 68.1319 10.5448 72.014C9.01183 76.4489 7.66171 80.815 6.50411 85.3232Z" fill="#F9F2F2"/>
<path d="M27.0954 21.8469C35.6476 14.9879 45.2149 9.53381 55.1865 4.78519C50.2112 9.8709 45.1514 14.9169 40.6317 20.4745C37.8121 23.8924 35.2086 27.5149 32.3045 30.8932C29.2646 34.4653 25.8162 37.6909 22.1891 40.6263C19.8976 42.488 17.4136 44.2078 14.6568 45.3869C12.6925 46.2683 8.24288 47.9408 6.19588 46.5666C7.97691 41.6812 12.0005 37.0246 15.359 33.1898C18.8063 29.0357 22.8075 25.2451 27.0954 21.8469Z" fill="#F9F2F2"/>
<path d="M60.8211 27.1774C70.5181 24.104 80.8409 22.5104 91.2046 23.6167C85.5969 25.7246 79.9657 27.7699 74.358 29.8777C70.0303 31.5045 65.6791 33.0686 61.6006 35.1733C57.9253 37.055 54.5367 39.3292 51.04 41.501C46.7606 44.1815 42.5186 46.7764 38.0841 49.2293C34.1372 51.4989 30.0213 53.6891 25.5524 54.9402C24.1644 55.319 20.1415 56.8312 18.7565 55.9227C16.5031 54.5546 19.7228 52.201 20.6926 51.2648C27.7905 44.238 35.9311 38.3197 44.8333 33.6872C49.9854 31.1075 55.2786 28.9035 60.8211 27.1774Z" fill="#F9F2F2"/>
<path d="M55.6791 52.5461C64.3899 48.7001 73.3169 45.0587 82.6964 43.1766C93.6329 40.9949 104.929 41.2506 116.202 41.4436C99.1197 47.0785 83.7268 56.6518 67.1861 63.7267C61.5507 66.1309 55.7366 68.2449 49.5641 68.8501C46.2105 69.1818 42.814 69.0293 39.3983 68.4554C36.1889 67.8754 33.434 66.8387 36.4558 63.7735C41.614 58.6191 49.139 55.5047 55.6791 52.5461Z" fill="#F9F2F2"/>
<path d="M31.8376 142.54C35.2857 128.024 38.6867 113.383 39.3383 98.2756C39.5792 92.2541 39.4074 86.2449 39.212 80.1731C39.0649 75.155 38.8472 69.9491 36.5944 65.4366C34.2552 70.3175 33.3896 75.7877 32.2706 81.1388C29.7803 92.6505 25.718 103.681 24.4147 115.39C23.761 121.423 23.8815 127.666 24.7196 133.782C25.5149 139.414 26.6408 146.851 29.6165 151.807C30.6449 148.99 31.1097 145.6 31.8376 142.54Z" fill="#F9F2F2"/>
<path d="M48.6567 126.215C49.3856 131.3 50.3818 136.356 51.439 141.389C53.1618 149.674 55.0674 157.89 57.1184 166.122C57.2458 166.646 58.0104 166.644 58.0659 166.052C58.1904 160.646 59.4548 155.311 60.4519 150.006C63.7499 131.76 63.0781 112.576 58.5137 94.1411C57.4716 89.8882 56.1621 85.6643 54.0229 81.8238C53.0965 80.0997 52.029 78 50.9107 80.2068C50.0778 81.8775 49.9124 84.5836 49.5629 86.4299C48.0208 94.7269 47.3374 103.273 47.4797 111.794C47.6171 116.601 47.961 121.403 48.6567 126.215Z" fill="#F9F2F2"/>
<path d="M94.0988 71.4757C109.012 71.7296 124.063 73.6464 138.866 72.8694C127.971 77.751 116.153 80.5496 104.26 82.5908C88.9 85.2203 72.9853 86.5578 57.4775 83.2406C55.2863 82.7781 49.4397 81.4744 53.2315 78.9772C55.9219 77.2513 59.3449 76.179 62.4022 75.2442C68.798 73.1973 75.5704 72.1522 82.3718 71.7394C86.1853 71.5207 90.1303 71.4669 94.0988 71.4757Z" fill="#F9F2F2"/>
<path d="M100.857 88.1577C117.953 86.4475 135.256 84.7311 152.526 86.8142C146.698 89.0764 140.931 91.3156 135.079 93.5151C131.385 94.9754 127.606 96.3959 123.793 97.5431C113.416 100.658 102.323 101.683 91.317 100.533C85.7529 99.9804 80.2442 98.8355 74.8147 97.1607C72.8437 96.5439 69.8075 95.6843 72.1642 93.4408C73.9681 91.7624 77.819 91.4581 80.131 90.9464C86.9311 89.605 93.8821 88.8501 100.857 88.1577Z" fill="#F9F2F2"/>
<path d="M167.537 102.323C153.277 106.396 139.017 110.47 124.271 112.512C116.856 113.513 109.314 113.99 101.812 113.094C97.9695 112.68 94.1687 111.823 90.4941 110.56C89.6963 110.288 86.2473 109.441 86.3349 108.193C86.4556 107.219 90.4145 107.017 91.3149 106.821C107.284 103.963 123.474 101.879 139.803 101.457C149.114 101.244 158.323 101.499 167.537 102.323Z" fill="#F9F2F2"/>
<path d="M171.329 131.839C158.153 132.504 144.954 133.107 131.714 131.938C125.094 131.354 118.408 130.223 112.087 128.026C108.872 126.876 105.685 125.43 102.709 123.619C102.094 123.279 99.1977 121.867 99.5623 120.801C99.8755 119.968 103.315 120.605 104.164 120.643C118.622 121.353 133.072 122.782 147.36 125.629C155.473 127.224 163.483 129.286 171.329 131.839Z" fill="#F9F2F2"/>
<path d="M68.9758 102.356C68.3463 105.308 67.6794 108.346 67.0499 111.298C66.2942 114.655 65.623 118.051 65.0973 121.464C62.7638 138.205 66.5291 155.439 70.5799 172.138C72.734 165.469 73.1095 158.325 73.9685 151.357C75.0634 141.87 76.9936 132.57 77.5678 122.993C77.9584 116.63 77.7202 110.074 76.3142 103.742C75.8659 101.624 75.2921 96.7666 72.8142 95.9117C69.8764 94.9437 69.4237 100.402 68.9758 102.356Z" fill="#F9F2F2"/>
<path d="M85.3225 111.788C79.5187 136.693 79.1209 163.21 84.2668 188.93C86.7444 178.494 88.3397 167.748 89.3768 156.997C90.3861 146.542 90.8981 136.06 90.1247 125.489C89.8665 121.656 89.4393 117.744 88.8293 113.9C88.6827 112.955 88.5464 109.076 87.7015 108.679C86.2417 107.942 85.5277 110.854 85.3225 111.788Z" fill="#F9F2F2"/>
<path d="M99.0543 124.634C100.893 146.737 107.564 168.74 118.326 188.489C117.55 179.206 116.009 169.924 114.041 160.803C112.107 151.955 109.759 143.119 106.437 134.65C105.199 131.542 103.839 128.48 102.358 125.465C102.014 124.736 100.899 121.583 100.148 121.436C98.8154 121.222 99.0157 123.791 99.0543 124.634Z" fill="#F9F2F2"/>
<path d="M119.035 140.776C115.014 135.999 110.477 131.702 106.16 127.251C101.566 122.618 97.0573 118.025 92.4871 113.455C83.3704 104.377 74.2024 95.5323 64.1865 87.5784C44.9247 72.2385 25.2833 57.1842 5.07091 43.202C-6.66678 35.1092 -18.8118 27.5983 -31.3172 20.7944C-32.885 19.9547 -33.9563 22.2867 -32.4494 23.1494C-10.7946 35.2317 9.61985 49.5667 29.5051 64.5293C49.3058 79.4522 69.0831 94.3126 86.8138 111.872C91.7924 116.788 96.7711 121.705 101.75 126.622C106.944 131.744 112.05 137.185 117.7 141.849C118.479 142.628 119.777 141.64 119.035 140.776Z" fill="#F9F2F2"/>
<path d="M144.353 189.068C144.092 179.305 139.53 169.944 133.984 161.668C131.432 157.84 128.622 154.251 125.911 150.554C124.525 148.717 123.138 146.88 121.813 145.02C120.596 143.263 119.434 140.912 117.922 139.48C116.244 140.754 118.904 147.829 119.403 149.713C120.417 153.334 121.674 156.863 123.235 160.278C126.345 167.255 130.453 173.928 135.311 179.819C138.027 183.157 141.061 186.233 144.353 189.068Z" fill="#F9F2F2"/>
<path d="M170.304 155.946C161.009 157.868 151.136 155.291 142.054 151.488C137.924 149.753 133.821 147.722 129.742 145.754C127.714 144.802 125.663 143.786 123.575 142.856C121.655 142.006 119.126 141.385 117.478 140.146C118.338 138.179 125.582 139.315 127.511 139.447C131.137 139.656 134.759 140.224 138.367 140.94C145.715 142.537 152.844 145.216 159.585 148.899C163.336 150.919 166.937 153.281 170.304 155.946Z" fill="#F9F2F2"/>
</g>
</svg>
