<svg width="224" height="202" viewBox="0 0 224 202" fill="none" xmlns="http://www.w3.org/2000/svg">
<g opacity="0.86">
<path d="M164.315 64.7716C162.831 61.5125 161.346 58.2535 160.221 54.8716C158.396 49.3887 157.594 43.5746 157.799 37.7621C157.835 36.3299 159.706 35.826 160.39 37.0125C161.748 39.4318 163.097 41.8974 164.4 44.3541C165.674 46.7095 166.893 49.1021 167.947 51.6069C171.925 60.8612 173.62 71.0197 174.316 81.1304C174.492 83.7066 175.043 86.8342 174.6 89.3873C172.621 85.4576 171.312 81.0332 169.646 76.9718C167.897 72.8463 166.129 68.8134 164.315 64.7716Z" fill="#F9F2F2"/>
<path d="M158.733 68.112C162.255 75.7438 164.655 83.9754 164.748 92.4832C164.784 94.7925 164.626 97.1125 164.468 99.4326C164.312 101.993 164.147 104.599 163.945 107.151C163.178 105.9 162.843 104.397 162.398 102.968C161.061 98.4423 158.637 94.3313 156.508 90.181C152.213 81.8253 148.838 72.9268 146.578 63.7149C145.95 61.2438 145.414 58.7905 145.136 56.2428C144.89 54.2769 144.175 50.2544 145.205 48.3897C146.655 45.8381 148.872 50.7729 149.536 51.8118C151.126 54.2755 152.706 56.7856 154.185 59.3241C155.833 62.2308 157.343 65.1109 158.733 68.112Z" fill="#F9F2F2"/>
<path d="M136.106 26.3518C129.157 22.5709 121.663 19.8842 113.97 17.7349C118.149 20.6963 122.384 23.6203 126.299 26.9624C128.735 29.0132 131.043 31.2313 133.535 33.2448C136.147 35.3774 139.006 37.2217 141.956 38.8437C143.821 39.8734 145.805 40.7821 147.915 41.2833C149.424 41.6691 152.801 42.3177 154.085 41.1254C152.204 37.9341 148.756 35.1611 145.884 32.8827C142.908 30.3925 139.584 28.2192 136.106 26.3518Z" fill="#F9F2F2"/>
<path d="M112.771 33.9574C105.483 32.9413 97.936 33.0266 90.6989 34.9941C94.9548 35.8116 99.2195 36.5828 103.475 37.4003C106.76 38.0312 110.053 38.6158 113.22 39.6079C116.072 40.4915 118.77 41.6811 121.531 42.7872C124.914 44.1564 128.259 45.4704 131.723 46.6635C134.817 47.7854 138.022 48.8327 141.359 49.186C142.395 49.2889 145.448 49.8754 146.32 49.0835C147.752 47.8716 145.165 46.6072 144.357 46.0683C138.422 42.0024 131.885 38.8281 124.967 36.6359C120.976 35.4377 116.932 34.5169 112.771 33.9574Z" fill="#F9F2F2"/>
<path d="M119.616 51.0053C112.933 49.3379 106.122 47.8378 99.2102 47.6134C91.1524 47.3607 83.1448 48.8445 75.1461 50.282C88.0115 52.2256 100.169 57.1031 112.831 60.1106C117.143 61.1309 121.547 61.9288 126.016 61.636C128.445 61.4789 130.843 60.9803 133.202 60.1862C135.413 59.4118 137.244 58.3724 134.708 56.5903C130.389 53.6023 124.642 52.3065 119.616 51.0053Z" fill="#F9F2F2"/>
<path d="M147.893 110.83C143.615 101.134 139.356 91.3465 136.994 80.916C136.066 76.7565 135.434 72.5579 134.81 68.313C134.285 64.8064 133.786 61.1611 134.822 57.7627C137.1 60.8863 138.403 64.5902 139.872 68.182C143.09 75.8992 147.367 83.1002 149.765 91.0916C150.988 95.2119 151.687 99.567 151.859 103.917C152 107.925 152.133 113.227 150.637 117.017C149.552 115.178 148.795 112.874 147.893 110.83Z" fill="#F9F2F2"/>
<path d="M133.867 101.421C133.987 105.042 133.913 108.673 133.793 112.295C133.607 118.255 133.283 124.189 132.858 130.151C132.833 130.53 132.288 130.617 132.174 130.212C131.407 126.467 129.837 122.903 128.461 119.329C123.822 107.022 121.89 93.6044 122.823 80.2571C123.03 77.1791 123.432 74.0905 124.472 71.1724C124.915 69.8665 125.411 68.2829 126.484 69.6882C127.287 70.7537 127.744 72.6164 128.225 73.8599C130.365 79.4513 131.924 85.315 132.893 91.2571C133.4 94.616 133.758 97.9945 133.867 101.421Z" fill="#F9F2F2"/>
<path d="M94.6511 68.6101C84.0691 70.5107 73.5978 73.5838 62.9641 74.755C71.3319 76.89 80.0943 77.4698 88.8156 77.5142C100.078 77.5669 111.572 76.657 122.193 72.5573C123.695 71.9823 127.692 70.3998 124.68 69.1017C122.548 68.2126 119.977 67.8626 117.684 67.566C112.874 66.8821 107.923 66.9383 103.031 67.4376C100.289 67.7264 97.4745 68.1451 94.6511 68.6101Z" fill="#F9F2F2"/>
<path d="M91.9362 80.9917C79.5535 81.779 67.0232 82.5859 54.9934 86.0312C59.4254 86.9305 63.8112 87.8209 68.2522 88.6739C71.0651 89.2622 73.9332 89.8131 76.7906 90.1701C84.5674 91.1362 92.5912 90.5669 100.28 88.4943C104.171 87.4669 107.948 86.0339 111.602 84.2415C112.927 83.5847 114.98 82.636 113.021 81.3483C111.526 80.3897 108.747 80.6233 107.037 80.5347C102.029 80.3882 96.9871 80.6668 91.9362 80.9917Z" fill="#F9F2F2"/>
<path d="M46.2578 98.5511C56.9187 99.7355 67.5796 100.92 78.3309 100.635C83.7341 100.473 89.1621 99.9331 94.3889 98.4428C97.0717 97.711 99.669 96.6749 102.126 95.3721C102.659 95.0909 105.008 94.1029 104.789 93.2454C104.58 92.5818 101.737 92.8992 101.072 92.8673C89.3474 92.7257 77.5624 93.1482 65.888 94.7431C59.2342 95.6714 52.7122 96.9129 46.2578 98.5511Z" fill="#F9F2F2"/>
<path d="M47.2676 119.515C56.7288 118.454 66.199 117.347 75.4749 115.004C80.1128 113.832 84.7294 112.272 88.9526 110.014C91.0962 108.843 93.1828 107.469 95.0737 105.865C95.4686 105.557 97.3524 104.24 96.9591 103.541C96.6316 102.999 94.2637 103.839 93.6642 103.964C83.4631 106.129 73.3581 108.793 63.547 112.425C57.9733 114.472 52.5315 116.832 47.2676 119.515Z" fill="#F9F2F2"/>
<path d="M116.41 87.1796C117.229 89.1596 118.085 91.1947 118.904 93.1748C119.864 95.4216 120.768 97.7058 121.571 100.019C125.334 111.39 124.819 123.81 124.034 135.891C121.663 131.502 120.498 126.578 119.012 121.831C117.041 115.361 114.499 109.117 112.887 102.524C111.81 98.1437 111.156 93.5572 111.361 88.9919C111.415 87.4671 111.213 84.0227 112.869 83.1417C114.838 82.129 115.846 85.872 116.41 87.1796Z" fill="#F9F2F2"/>
<path d="M105.961 95.6291C113.22 112.277 116.834 130.67 116.402 149.15C113.328 142.18 110.843 134.892 108.755 127.536C106.723 120.382 105.042 113.152 104.265 105.712C103.967 103.016 103.779 100.246 103.731 97.503C103.716 96.8287 103.326 94.1156 103.878 93.7419C104.824 93.0602 105.698 95.0029 105.961 95.6291Z" fill="#F9F2F2"/>
<path d="M97.8024 106.149C99.27 121.732 97.2862 137.804 92.1068 152.782C91.4934 146.237 91.4243 139.604 91.6791 133.033C91.9446 126.657 92.5054 120.241 93.8063 113.968C94.2969 111.664 94.8799 109.377 95.5555 107.109C95.7084 106.563 96.1064 104.241 96.6223 104.052C97.5439 103.749 97.7239 105.559 97.8024 106.149Z" fill="#F9F2F2"/>
<path d="M85.6087 119.684C87.871 115.898 90.5603 112.385 93.0734 108.79C95.7609 105.038 98.3932 101.322 101.072 97.6157C106.42 90.2489 111.834 83.0386 117.964 76.3495C129.746 63.4553 141.834 50.7158 154.463 38.6558C161.801 31.671 169.501 25.0438 177.547 18.8667C178.557 18.1014 179.613 19.5992 178.649 20.3734C164.754 31.279 152.025 43.6077 139.752 56.3116C127.534 68.9782 115.325 81.5986 104.911 95.8589C101.985 99.8537 99.0591 103.848 96.1333 107.843C93.0794 112.005 90.1288 116.379 86.6941 120.276C86.237 120.908 85.189 120.371 85.6087 119.684Z" fill="#F9F2F2"/>
<path d="M73.656 156.193C72.6155 149.374 74.6867 142.337 77.5942 135.94C78.9297 132.983 80.4787 130.163 81.9441 127.278C82.6999 125.841 83.4557 124.403 84.1653 122.956C84.8108 121.593 85.3424 119.825 86.2388 118.654C87.5929 119.346 86.5888 124.573 86.4699 125.941C86.2036 128.576 85.7523 131.175 85.0697 133.73C83.7329 138.942 81.6471 144.057 78.9296 148.716C77.4161 151.351 75.6428 153.84 73.656 156.193Z" fill="#F9F2F2"/>
<path d="M51.0234 136.161C57.8803 136.423 64.5835 133.489 70.5695 129.795C73.2912 128.111 75.9559 126.225 78.6118 124.384C79.9353 123.487 81.2676 122.544 82.6374 121.656C83.8968 120.843 85.6189 120.118 86.6363 119.066C85.7767 117.798 80.7635 119.425 79.4078 119.741C76.8531 120.305 74.3465 121.119 71.8683 122.034C66.8391 123.994 62.1019 126.681 57.7668 130.022C55.3511 131.86 53.085 133.919 51.0234 136.161Z" fill="#F9F2F2"/>
</g>
</svg>
