<svg width="25" height="25" viewBox="0 0 25 25" fill="none" xmlns="http://www.w3.org/2000/svg">
<g id="icon/action/home_24px">
<path id="icon/action/home_24px_2" d="M10.2447 19.3944V14.3944H14.2447V19.3944C14.2447 19.9444 14.6947 20.3944 15.2447 20.3944H18.2447C18.7947 20.3944 19.2447 19.9444 19.2447 19.3944V12.3944H20.9447C21.4047 12.3944 21.6247 11.8244 21.2747 11.5244L12.9147 3.99438C12.5347 3.65438 11.9547 3.65438 11.5747 3.99438L3.21473 11.5244C2.87473 11.8244 3.08473 12.3944 3.54473 12.3944H5.24473V19.3944C5.24473 19.9444 5.69473 20.3944 6.24473 20.3944H9.24473C9.79473 20.3944 10.2447 19.9444 10.2447 19.3944Z" fill="url(#paint0_linear)"/>
</g>
<defs>
<linearGradient id="paint0_linear" x1="20.9482" y1="10.2318" x2="3.28044" y2="10.3481" gradientUnits="userSpaceOnUse">
<stop offset="0.4375" stop-color="#12CAD6"/>
<stop offset="1" stop-color="#12B3D6"/>
</linearGradient>
</defs>
</svg>
