<svg width="65" height="56" viewBox="0 0 65 56" fill="none" xmlns="http://www.w3.org/2000/svg">
<g opacity="0.52">
<path d="M26.3865 45.005C29.1896 46.325 32.2171 47.2331 35.3529 47.2913C36.204 47.3111 37.0597 47.2595 37.9153 47.2079C38.8595 47.1577 39.8207 47.1043 40.7617 47.0369C40.3029 46.7506 39.7497 46.623 39.2244 46.4548C37.5599 45.9492 36.0514 45.044 34.5276 44.2475C31.4598 42.6407 28.1893 41.3714 24.8001 40.5123C23.891 40.2736 22.9882 40.0691 22.0499 39.9593C21.3259 39.8631 19.8452 39.5884 19.1549 39.9627C18.2103 40.4897 20.023 41.3213 20.4041 41.5689C21.3077 42.1617 22.2285 42.7514 23.16 43.3038C24.2268 43.9195 25.2842 44.484 26.3865 45.005Z" fill="white"/>
<path d="M11.0582 36.5455C9.6842 33.9735 8.7151 31.2034 7.94464 28.3615C9.02438 29.9106 10.0902 31.4799 11.3111 32.9324C12.0601 33.8362 12.8712 34.6933 13.6063 35.6173C14.385 36.5862 15.0568 37.6455 15.6463 38.7375C16.0205 39.4278 16.3499 40.1617 16.5287 40.941C16.6666 41.4982 16.8961 42.7448 16.453 43.2148C15.2819 42.5124 14.2696 41.2333 13.4379 40.1682C12.5284 39.0644 11.7367 37.833 11.0582 36.5455Z" fill="white"/>
<path d="M13.9275 27.966C13.5736 25.2769 13.6265 22.4952 14.3722 19.8331C14.6615 21.4041 14.9337 22.9784 15.223 24.5494C15.4462 25.7619 15.6524 26.9775 16.0091 28.1477C16.3267 29.2016 16.7576 30.1993 17.1575 31.2203C17.6526 32.471 18.1275 33.7077 18.5574 34.9881C18.9622 36.1318 19.3392 37.316 19.46 38.5473C19.495 38.9293 19.7025 40.0563 19.4081 40.3754C18.9573 40.8998 18.4986 39.9426 18.3022 39.6432C16.8204 37.4443 15.6688 35.0256 14.8803 32.4694C14.4499 30.9949 14.122 29.5016 13.9275 27.966Z" fill="white"/>
<path d="M20.1918 30.5379C19.5961 28.0698 19.0624 25.555 18.9993 23.0065C18.929 20.0356 19.4986 17.0881 20.0511 14.1438C20.7311 18.8916 22.4946 23.387 23.5673 28.0625C23.9312 29.6552 24.2128 31.2806 24.0923 32.9272C24.0275 33.8219 23.8369 34.7045 23.5375 35.5717C23.2458 36.3847 22.8575 37.0565 22.2077 36.1167C21.1185 34.5164 20.6572 32.3943 20.1918 30.5379Z" fill="white"/>
<path d="M42.1641 41.1291C38.6024 39.5249 35.0065 37.927 31.1684 37.027C29.6378 36.6733 28.0919 36.4282 26.529 36.1863C25.2379 35.9826 23.8956 35.7884 22.64 36.1608C23.785 37.0094 25.1466 37.5002 26.4664 38.0517C29.3019 39.2599 31.9442 40.8568 34.8831 41.7634C36.3984 42.226 38.0018 42.4957 39.6047 42.5714C41.0818 42.6349 43.0358 42.6988 44.437 42.1583C43.7621 41.7529 42.915 41.4675 42.1641 41.1291Z" fill="white"/>
<path d="M38.7344 35.934C40.0686 35.9885 41.4073 35.9715 42.7429 35.9375C44.9404 35.886 47.1285 35.7833 49.3274 35.6432C49.4671 35.6351 49.5008 35.4347 49.3516 35.3916C47.9734 35.098 46.6644 34.5092 45.3509 33.9918C40.8275 32.247 35.887 31.497 30.9644 31.803C29.8292 31.8708 28.6896 32.01 27.611 32.3852C27.1284 32.5447 26.5433 32.723 27.0582 33.1226C27.4487 33.4214 28.134 33.5954 28.591 33.7761C30.646 34.5807 32.803 35.1722 34.9906 35.5463C36.2273 35.7424 37.4716 35.884 38.7344 35.934Z" fill="white"/>
<path d="M26.752 21.385C27.4826 17.4897 28.6451 13.6386 29.1069 9.72223C29.8702 12.8127 30.0591 16.0443 30.0507 19.2592C30.0382 23.4106 29.6703 27.6452 28.129 31.5484C27.9128 32.1002 27.3182 33.5692 26.8482 32.4552C26.5265 31.6669 26.4048 30.7182 26.302 29.872C26.0635 28.0974 26.0982 26.2724 26.2961 24.4704C26.4103 23.4606 26.5727 22.4244 26.752 21.385Z" fill="white"/>
<path d="M31.3232 20.4196C31.6485 15.8575 31.9814 11.2409 33.2855 6.81638C33.6044 8.45263 33.9202 10.0718 34.222 11.7112C34.4309 12.7497 34.6258 13.8085 34.7493 14.8628C35.0834 17.7321 34.8509 20.6882 34.0651 23.5165C33.6754 24.9478 33.1364 26.3359 32.4654 27.6777C32.2195 28.1644 31.864 28.9184 31.3949 28.1926C31.0458 27.639 31.1398 26.6153 31.112 25.9848C31.0721 24.1383 31.1891 22.2805 31.3232 20.4196Z" fill="white"/>
<path d="M37.9248 3.63135C38.3312 7.56441 38.7375 11.4975 38.6019 15.4597C38.5272 17.4509 38.3127 19.4502 37.7485 21.3727C37.4712 22.3595 37.0819 23.314 36.5947 24.2158C36.4895 24.4118 36.1187 25.2745 35.8033 25.1914C35.5592 25.1127 35.6843 24.0657 35.6744 23.8203C35.6554 19.4981 35.8445 15.1552 36.4655 10.8565C36.8266 8.40644 37.3027 6.00585 37.9248 3.63135Z" fill="white"/>
<path d="M45.6504 4.06299C45.2326 7.5475 44.7978 11.0351 43.9077 14.4477C43.4627 16.154 42.8747 17.8513 42.0302 19.4016C41.5924 20.1884 41.0801 20.9537 40.4837 21.6462C40.3691 21.7908 39.8783 22.4815 39.6217 22.3345C39.4226 22.2123 39.7391 21.3419 39.7867 21.1212C40.6139 17.3671 41.6244 13.6499 42.9909 10.0437C43.7613 7.99496 44.6467 5.99572 45.6504 4.06299Z" fill="white"/>
<path d="M33.5356 29.4584C34.2631 29.7658 35.0108 30.0872 35.7384 30.3947C36.5639 30.7547 37.4033 31.0945 38.2535 31.397C42.4345 32.8165 47.0142 32.6618 51.4694 32.4065C49.8585 31.5202 48.0466 31.0769 46.3012 30.5155C43.9218 29.7707 41.6273 28.816 39.2015 28.2033C37.5901 27.7938 35.9013 27.5397 34.2179 27.6025C33.6557 27.6177 32.3866 27.5336 32.0572 28.1416C31.6783 28.8646 33.0552 29.2467 33.5356 29.4584Z" fill="white"/>
<path d="M36.6803 25.6305C42.7963 28.3534 49.5662 29.7376 56.3793 29.6308C53.8188 28.4779 51.1392 27.5412 48.4335 26.7505C45.8024 25.9814 43.1421 25.3412 40.4018 25.0336C39.4091 24.9162 38.3885 24.8393 37.3774 24.8136C37.1289 24.8064 36.1299 24.6549 35.9906 24.8571C35.7367 25.204 36.4503 25.5316 36.6803 25.6305Z" fill="white"/>
<path d="M40.5807 22.6524C46.3207 23.2375 52.2504 22.5518 57.7861 20.685C55.3752 20.4404 52.9305 20.3961 50.5079 20.4714C48.1567 20.5512 45.7902 20.7398 43.474 21.2015C42.6233 21.3758 41.7789 21.5843 40.9408 21.8269C40.739 21.8817 39.882 22.0218 39.811 22.2115C39.6968 22.5503 40.3632 22.6218 40.5807 22.6524Z" fill="white"/>
<path d="M45.6038 18.1963C44.2017 19.0195 42.8993 20.0008 41.5672 20.917C40.1763 21.897 38.7993 22.8568 37.4254 23.8337C34.6948 25.7842 32.0217 27.7595 29.5386 29.9999C24.7523 34.3065 20.0221 38.7262 15.5409 43.3473C12.9455 46.0322 10.4808 48.8519 8.18107 51.8001C7.89612 52.1704 8.44524 52.5637 8.73333 52.2105C12.7926 47.1197 17.3731 42.4627 22.0907 37.9746C26.7944 33.5067 31.481 29.042 36.767 25.2438C38.2478 24.1766 39.7286 23.1094 41.2094 22.0423C42.7522 20.9284 44.3728 19.8531 45.819 18.5981C46.0532 18.4314 45.8582 18.0436 45.6038 18.1963Z" fill="white"/>
<path d="M59.0954 13.8936C56.5847 13.4908 53.985 14.2343 51.6189 15.2879C50.525 15.7718 49.481 16.3348 48.4137 16.8668C47.8816 17.1413 47.3495 17.4158 46.8143 17.6733C46.31 17.9074 45.6566 18.0983 45.2225 18.4254C45.4737 18.9265 47.4033 18.5712 47.908 18.5313C48.88 18.4406 49.8395 18.2816 50.7832 18.0372C52.708 17.5592 54.5995 16.8048 56.3244 15.8163C57.3 15.2659 58.2227 14.6193 59.0954 13.8936Z" fill="white"/>
<path d="M51.7754 5.49524C51.8525 8.02349 50.7522 10.486 49.3733 12.6821C48.7449 13.6806 48.042 14.6575 47.3562 15.6312C47.0218 16.1165 46.6703 16.605 46.3391 17.1074C46.0357 17.5693 45.7638 18.202 45.3732 18.5741C44.9082 18.2536 45.5222 16.4103 45.6422 15.9115C45.8575 14.9714 46.1645 14.0497 46.5088 13.1389C47.2455 11.2906 48.2496 9.55201 49.4932 7.96353C50.1777 7.07829 50.9431 6.24879 51.7754 5.49524Z" fill="white"/>
</g>
</svg>
