<svg width="101" height="100" viewBox="0 0 101 100" fill="none" xmlns="http://www.w3.org/2000/svg">
<g opacity="0.52">
<path d="M103.766 3.25893C98.7659 -1.95886 92.933 -6.46691 86.1537 -9.21523C84.317 -9.96999 82.4108 -10.5729 80.5046 -11.1758C78.4068 -11.8557 76.2691 -12.5431 74.1638 -13.1832C74.9235 -12.1762 76.0212 -11.4358 77.0245 -10.6305C80.226 -8.13793 82.754 -4.90585 85.4061 -1.89778C90.7427 4.1656 96.8029 9.66362 103.464 14.3675C105.244 15.6472 107.039 16.8474 108.99 17.8707C110.486 18.6855 113.481 20.5215 115.297 20.2836C117.794 19.9257 114.542 16.5997 113.92 15.7419C112.447 13.6956 110.936 11.6419 109.369 9.66043C107.561 7.42786 105.731 5.31473 103.766 3.25893Z" fill="white"/>
<path d="M66.172 -1.49144C72.5862 4.97903 79.0801 11.4644 86.6849 16.6327C89.7218 18.6826 92.8829 20.5085 96.0839 22.3418C98.7248 23.8647 101.485 25.4098 104.531 25.6485C102.747 22.8437 100.192 20.6366 97.7797 18.3324C92.6156 13.3312 88.1973 7.64523 82.5561 3.21415C79.6433 0.940221 76.3776 -0.987595 72.9506 -2.49234C69.7873 -3.86544 65.5863 -5.63822 62.0834 -5.63277C63.2141 -4.18579 64.8199 -2.85613 66.172 -1.49144Z" fill="white"/>
<path d="M69.2926 12.6855C66.433 11.4514 63.5039 10.3692 60.5673 9.32676C55.7394 7.60179 50.8892 5.99625 45.9843 4.46291C45.6732 4.36366 45.4323 4.77188 45.721 4.99056C48.4766 6.78198 50.8347 9.15838 53.2622 11.383C61.6527 18.9638 71.7832 24.7271 82.7577 28.1759C85.286 28.9774 87.8839 29.627 90.546 29.7118C91.7302 29.768 93.1534 29.8688 92.3661 28.5683C91.7657 27.5911 90.419 26.6394 89.5749 25.8639C85.773 22.3941 81.5709 19.3027 77.1203 16.6594C74.5914 15.1987 72.0004 13.85 69.2926 12.6855Z" fill="white"/>
<path d="M83.2224 54.3824C78.3752 62.2532 72.6246 69.6669 68.3449 77.8083C69.2666 70.441 71.5568 63.2466 74.2626 56.2534C77.7604 47.2245 82.1016 38.3118 88.7207 31.1013C89.6528 30.0805 92.1757 27.379 92.2676 30.1977C92.3091 32.183 91.781 34.3503 91.2975 36.2788C90.3332 40.3423 88.7319 44.287 86.7945 48.0453C85.7016 50.1485 84.4819 52.2692 83.2224 54.3824Z" fill="white"/>
<path d="M72.4614 52.6629C67.9392 62.3246 63.3549 72.0984 56.8166 80.6423C57.49 76.8129 58.1561 73.0233 58.8693 69.2013C59.2827 66.7654 59.7434 64.297 60.3559 61.8982C62.0271 55.3711 65.0048 49.129 69.0802 43.6274C71.1254 40.8367 73.4593 38.2648 76.0422 35.9041C76.9844 35.05 78.3889 33.7053 78.8035 35.6779C79.1009 37.1753 78.0404 39.3257 77.5738 40.7218C76.1169 44.7758 74.3091 48.7231 72.4614 52.6629Z" fill="white"/>
<path d="M44.0527 83.699C46.4559 74.7954 48.8591 65.8917 52.4668 57.3777C54.2942 53.1045 56.4327 48.9305 59.2682 45.2162C60.6971 43.2993 62.3426 41.5465 64.1574 39.99C64.5502 39.6513 66.0789 38.0827 66.6963 38.5275C67.1619 38.9028 66.0143 41.0781 65.8307 41.6206C62.2586 51.0477 58.2163 60.3458 53.2704 69.1869C50.436 74.2198 47.3925 79.0488 44.0527 83.699Z" fill="white"/>
<path d="M27.5938 76.3019C31.4164 69.0639 35.2789 61.8334 40.0699 55.1469C42.4653 51.8037 45.1644 48.5995 48.2994 45.9299C49.9104 44.5826 51.6658 43.3446 53.5432 42.3354C53.9138 42.1162 55.5598 41.0226 55.9956 41.5571C56.3269 41.9898 54.9102 43.6205 54.622 44.0611C49.6824 51.5438 44.3745 58.793 38.3844 65.5029C34.9942 69.3196 31.3948 72.9326 27.5938 76.3019Z" fill="white"/>
<path d="M75.203 31.1339C73.8759 29.8563 72.5164 28.5314 71.1893 27.2538C69.6928 25.7797 68.1491 24.3381 66.5507 22.9686C58.6337 16.3825 48.5325 12.8906 38.6182 9.72201C41.385 12.9987 44.9597 15.4785 48.2907 18.1601C52.849 21.7711 57.047 25.768 61.8166 29.1301C64.983 31.369 68.4478 33.3339 72.1658 34.6046C73.4026 35.0414 76.0955 36.2855 77.3212 35.2371C78.7506 33.9795 76.072 31.9965 75.203 31.1339Z" fill="white"/>
<path d="M65.1566 36.8388C54.1161 25.7971 40.5324 17.1234 25.6081 11.6603C30.2195 16.3112 35.271 20.591 40.5014 24.5746C45.5874 28.4489 50.8449 32.0668 56.5545 35.0275C58.6179 36.1129 60.7757 37.1336 62.9559 38.0348C63.491 38.2583 65.5395 39.4234 66.0119 39.0995C66.8548 38.5565 65.5749 37.2464 65.1566 36.8388Z" fill="white"/>
<path d="M54.1717 40.0615C42.1626 33.9888 28.678 30.5247 15.0639 29.9616C20.109 32.5098 25.395 34.6499 30.733 36.5113C35.9193 38.3031 41.2297 39.8709 46.659 40.8018C48.6571 41.1335 50.67 41.3855 52.6977 41.5579C53.1829 41.6073 55.1661 42.0186 55.4792 41.665C56.0111 41.0227 54.6198 40.3099 54.1717 40.0615Z" fill="white"/>
<path d="M39.5079 45.5652C43.2492 44.945 46.9054 43.897 50.5718 43.0157C54.4197 42.0447 58.2204 41.106 62.0284 40.1275C69.6048 38.1632 77.0766 36.0969 84.3562 33.2943C98.3783 27.9186 112.373 22.2493 125.993 15.9335C133.889 12.2572 141.613 8.17806 149.085 3.68113C150.015 3.11311 149.148 1.79777 148.226 2.32598C135.131 10.0171 121.264 16.3281 107.24 22.1567C93.2632 27.9528 79.3262 33.7564 64.6411 37.6076C60.5246 38.6933 56.4081 39.779 52.2916 40.8647C48.001 42.0004 43.5734 42.9868 39.3752 44.5105C38.726 44.6777 38.8264 45.6852 39.5079 45.5652Z" fill="white"/>
<path d="M6.5371 43.6569C11.6671 46.633 17.9494 47.1874 23.9823 46.8713C26.7685 46.7321 29.5124 46.379 32.2811 46.1129C33.6692 45.96 35.0573 45.8071 36.438 45.6939C37.7316 45.6058 39.314 45.7363 40.5328 45.387C40.4048 44.0859 35.906 43.2463 34.7737 42.9114C32.5814 42.2963 30.3594 41.8404 28.1002 41.5836C23.5096 41.0153 18.7603 41.0765 14.1782 41.787C11.5937 42.1698 9.04415 42.8064 6.5371 43.6569Z" fill="white"/>
<path d="M15.4521 68.0607C17.3979 62.4912 21.8524 58.049 26.6907 54.4201C28.8936 52.7713 31.2408 51.2318 33.5482 49.6849C34.682 48.9077 35.8557 48.138 36.9969 47.321C38.0437 46.5688 39.1647 45.4184 40.3261 44.9348C41.0709 46.0213 38.1929 49.5217 37.5146 50.5075C36.2598 52.3745 34.8208 54.1246 33.3096 55.8202C30.1604 59.2287 26.5206 62.1749 22.4849 64.5941C20.2544 65.9494 17.8944 67.1157 15.4521 68.0607Z" fill="white"/>
</g>
</svg>
