<svg width="20" height="19" viewBox="0 0 20 19" fill="none" xmlns="http://www.w3.org/2000/svg">
<path fill-rule="evenodd" clip-rule="evenodd" d="M3.28565 4.60763L1.8213 6.04382C1.50824 6.35087 0.962891 6.13297 0.962891 5.68725V1.43811C0.962891 1.16078 1.18507 0.942871 1.46784 0.942871H5.8003C6.25475 0.942871 6.47693 1.47773 6.16386 1.78478L4.69951 3.22097L6.90109 5.36039C7.29495 5.74668 7.29495 6.38059 6.90109 6.76687C6.50723 7.15316 5.86089 7.15316 5.46703 6.76687L3.28565 4.60763ZM15.4045 3.22097L13.9402 1.78478C13.6271 1.47773 13.8493 0.942871 14.3038 0.942871H18.6362C18.919 0.942871 19.1412 1.16078 19.1412 1.43811V5.68725C19.1412 6.13297 18.5958 6.35087 18.2828 6.04382L16.8184 4.60763L14.637 6.76687C14.2432 7.15316 13.5968 7.15316 13.203 6.76687C12.8091 6.38059 12.8091 5.74668 13.203 5.36039L15.4045 3.22097ZM6.16386 17.9295L4.69951 16.4933L6.90109 14.3539C7.29495 13.9676 7.29495 13.3337 6.90109 12.9474C6.50723 12.5611 5.86089 12.5611 5.46703 12.9474L3.28565 15.1066L1.8213 13.6705C1.50824 13.3634 0.962891 13.5813 0.962891 14.027V18.2762C0.962891 18.5535 1.18507 18.7714 1.46784 18.7714H5.8003C6.25475 18.7714 6.47693 18.2365 6.16386 17.9295ZM16.8184 15.1066L18.2828 13.6705C18.5958 13.3634 19.1412 13.5813 19.1412 14.027V18.2762C19.1412 18.5535 18.919 18.7714 18.6362 18.7714H14.3038C13.8493 18.7714 13.6271 18.2365 13.9402 17.9295L15.4045 16.4933L13.203 14.3539C12.8091 13.9676 12.8091 13.3337 13.203 12.9474C13.5968 12.5611 14.2432 12.5611 14.637 12.9474L16.8184 15.1066Z" fill="url(#paint0_linear)"/>
<defs>
<linearGradient id="paint0_linear" x1="1.27788" y1="13.4733" x2="18.8116" y2="13.5316" gradientUnits="userSpaceOnUse">
<stop stop-color="#FE4C4C"/>
<stop offset="0.984375" stop-color="#FF7E21"/>
</linearGradient>
</defs>
</svg>
