<svg width="62" height="35" viewBox="0 0 62 35" fill="none" xmlns="http://www.w3.org/2000/svg">
<g opacity="0.52">
<path d="M11.0753 -3.88531C11.3901 -5.14426 11.705 -6.4032 11.8857 -7.68533C12.1789 -9.76403 12.0917 -11.9021 11.6506 -13.9807C11.5473 -14.4938 10.8576 -14.5657 10.6928 -14.099C10.3691 -13.1494 10.0515 -12.1838 9.74956 -11.2241C9.45123 -10.3024 9.17464 -9.37062 8.96331 -8.40813C8.15264 -4.84715 8.20211 -1.09438 8.5993 2.58288C8.70074 3.51978 8.70584 4.67687 9.02339 5.56933C9.46951 4.04027 9.64854 2.37245 9.97626 0.8143C10.3293 -0.771763 10.6945 -2.32559 11.0753 -3.88531Z" fill="#F9F2F2"/>
<path d="M13.2477 -3.01015C12.4942 -0.0593743 12.1733 3.04156 12.6808 6.10704C12.8147 6.93976 13.0175 7.76499 13.2202 8.59023C13.4376 9.50197 13.661 10.4298 13.894 11.3357C14.0842 10.841 14.1064 10.2808 14.1721 9.74096C14.3548 8.03499 14.9457 6.41471 15.4303 4.79757C16.4093 1.54129 17.0305 -1.85651 17.2399 -5.30185C17.3039 -6.22737 17.3366 -7.14109 17.2726 -8.07368C17.2342 -8.79514 17.2299 -10.2837 16.7497 -10.8942C16.0783 -11.7273 15.6122 -9.82274 15.4448 -9.4103C15.0427 -8.43128 14.6466 -7.43614 14.288 -6.43668C13.8933 -5.29489 13.5457 -4.1708 13.2477 -3.01015Z" fill="#F9F2F2"/>
<path d="M19.7693 11.721C20.6571 7.98384 21.5327 4.21448 21.7004 0.324864C21.7625 -1.2254 21.7182 -2.77251 21.6679 -4.33573C21.63 -5.62768 21.574 -6.96798 20.994 -8.12974C20.3918 -6.87313 20.1689 -5.46479 19.8808 -4.08711C19.2397 -1.12336 18.1938 1.71656 17.8583 4.731C17.69 6.28442 17.721 7.89168 17.9368 9.4663C18.1415 10.9163 18.4314 12.831 19.1975 14.1067C19.4623 13.3817 19.5819 12.5089 19.7693 11.721Z" fill="#F9F2F2"/>
<path d="M24.101 7.5177C24.2887 8.82693 24.5452 10.1287 24.8174 11.4245C25.2609 13.5574 25.7515 15.6726 26.2796 17.7921C26.3123 17.927 26.5092 17.9266 26.5235 17.774C26.5555 16.3822 26.8811 15.0089 27.1378 13.643C27.9869 8.94536 27.8139 4.00642 26.6388 -0.739797C26.3705 -1.83474 26.0334 -2.92222 25.4826 -3.91098C25.2441 -4.35485 24.9693 -4.89543 24.6813 -4.32729C24.4669 -3.89714 24.4243 -3.20045 24.3344 -2.7251C23.9373 -0.588995 23.7614 1.61118 23.798 3.80505C23.8334 5.04273 23.9219 6.27884 24.101 7.5177Z" fill="#F9F2F2"/>
<path d="M35.8013 -6.57494C39.6407 -6.50959 43.5156 -6.01609 47.3269 -6.21613C44.5218 -4.95934 41.4793 -4.23881 38.4172 -3.71329C34.4628 -3.03633 30.3655 -2.69198 26.3729 -3.54601C25.8087 -3.66509 24.3035 -4.00074 25.2797 -4.64364C25.9724 -5.08798 26.8536 -5.36405 27.6408 -5.60473C29.2874 -6.13171 31.031 -6.40077 32.7821 -6.50707C33.7639 -6.56337 34.7795 -6.57722 35.8013 -6.57494Z" fill="#F9F2F2"/>
<path d="M37.5394 -2.28027C41.941 -2.72058 46.3957 -3.16247 50.8419 -2.62615C49.3415 -2.04375 47.8567 -1.46725 46.3502 -0.900969C45.399 -0.525025 44.4261 -0.159301 43.4446 0.136046C40.7729 0.937929 37.917 1.20198 35.0834 0.905757C33.6508 0.763547 32.2326 0.468785 30.8347 0.0375947C30.3273 -0.121204 29.5456 -0.342492 30.1523 -0.920104C30.6168 -1.35223 31.6082 -1.43055 32.2034 -1.56231C33.9542 -1.90765 35.7438 -2.10202 37.5394 -2.28027Z" fill="#F9F2F2"/>
<path d="M54.707 1.3667C51.0357 2.41557 47.3644 3.46444 43.568 3.99002C41.6589 4.2477 39.7171 4.37053 37.7857 4.13989C36.7964 4.03343 35.8179 3.81255 34.8718 3.48747C34.6664 3.41751 33.7785 3.19937 33.801 2.87815C33.8321 2.62731 34.8513 2.57533 35.0831 2.52498C39.1945 1.78904 43.3628 1.25242 47.5667 1.14396C49.964 1.08911 52.3348 1.15458 54.707 1.3667Z" fill="#F9F2F2"/>
<path d="M55.6836 8.96582C52.2913 9.13712 48.893 9.29231 45.4845 8.99142C43.7802 8.84097 42.0588 8.54977 40.4313 7.98414C39.6037 7.68815 38.7832 7.31589 38.0169 6.84965C37.8585 6.76199 37.1129 6.39837 37.2068 6.12393C37.2874 5.90965 38.1729 6.07353 38.3915 6.08334C42.1139 6.26626 45.8341 6.63396 49.5126 7.36692C51.6012 7.77761 53.6635 8.30861 55.6836 8.96582Z" fill="#F9F2F2"/>
<path d="M29.3312 1.37518C29.1691 2.13518 28.9974 2.9172 28.8354 3.67721C28.6408 4.54141 28.468 5.41582 28.3327 6.29456C27.7319 10.6045 28.7013 15.0417 29.7442 19.3409C30.2988 17.6239 30.3955 15.7847 30.6166 13.9906C30.8985 11.5482 31.3955 9.15382 31.5433 6.68826C31.6438 5.04992 31.5825 3.36206 31.2205 1.73202C31.1051 1.18671 30.9574 -0.063944 30.3194 -0.284066C29.5631 -0.533273 29.4465 0.871915 29.3312 1.37518Z" fill="#F9F2F2"/>
<path d="M33.5395 3.80375C32.0453 10.2156 31.9429 17.0426 33.2678 23.6642C33.9056 20.9776 34.3163 18.2109 34.5833 15.443C34.8432 12.7513 34.975 10.0526 34.7759 7.33114C34.7094 6.3443 34.5994 5.33702 34.4424 4.34743C34.4046 4.10406 34.3696 3.10542 34.152 3.00322C33.7762 2.81335 33.5924 3.56313 33.5395 3.80375Z" fill="#F9F2F2"/>
<path d="M37.076 7.11091C37.5494 12.8016 39.2668 18.4662 42.0377 23.5508C41.8378 21.1607 41.441 18.7711 40.9344 16.4227C40.4364 14.1448 39.832 11.87 38.9766 9.68953C38.658 8.88946 38.3079 8.1012 37.9265 7.32472C37.8381 7.13719 37.5508 6.32532 37.3576 6.28759C37.0145 6.23258 37.0661 6.89388 37.076 7.11091Z" fill="#F9F2F2"/>
<path d="M42.2204 11.2666C41.185 10.0368 40.0169 8.93056 38.9056 7.78457C37.7229 6.59179 36.562 5.40924 35.3854 4.23259C33.0382 1.8954 30.6779 -0.381629 28.0992 -2.42943C23.1401 -6.37878 18.0833 -10.2546 12.8795 -13.8544C9.85758 -15.9379 6.73076 -17.8717 3.51118 -19.6234C3.10752 -19.8396 2.83173 -19.2392 3.21969 -19.0171C8.79484 -15.9064 14.0507 -12.2158 19.1703 -8.36355C24.2681 -4.52155 29.3599 -0.695661 33.9247 3.82499C35.2065 5.09089 36.4883 6.35678 37.7701 7.62267C39.1075 8.94124 40.4221 10.342 41.8765 11.543C42.0772 11.7435 42.4115 11.4891 42.2204 11.2666Z" fill="#F9F2F2"/>
<path d="M48.7376 23.6999C48.6704 21.1864 47.4959 18.7764 46.068 16.6455C45.411 15.6599 44.6876 14.736 43.9895 13.7842C43.6327 13.3113 43.2758 12.8383 42.9346 12.3595C42.6212 11.907 42.3221 11.3019 41.9328 10.9331C41.5009 11.2611 42.1855 13.0826 42.3142 13.5677C42.575 14.4999 42.8986 15.4085 43.3007 16.2876C44.1013 18.0839 45.159 19.8019 46.4097 21.3187C47.1089 22.1781 47.8901 22.9699 48.7376 23.6999Z" fill="#F9F2F2"/>
<path d="M55.4199 15.1724C53.0269 15.6672 50.485 15.0037 48.1468 14.0245C47.0835 13.578 46.0272 13.0551 44.9771 12.5484C44.455 12.3031 43.9269 12.0417 43.3892 11.8023C42.895 11.5834 42.2438 11.4234 41.8195 11.1046C42.0411 10.5982 43.9062 10.8905 44.4026 10.9247C45.3362 10.9785 46.2687 11.1247 47.1977 11.309C49.0895 11.7201 50.9249 12.4099 52.6604 13.3581C53.626 13.8782 54.5531 14.4864 55.4199 15.1724Z" fill="#F9F2F2"/>
</g>
</svg>
