<svg width="177" height="68" viewBox="0 0 177 68" fill="none" xmlns="http://www.w3.org/2000/svg">
<g style="mix-blend-mode:screen" opacity="0.33">
<path d="M21.3826 -22.7899C18.3087 -14.6993 16.5017 -6.17823 15.3066 2.47944C17.9004 -2.48887 20.4455 -7.51144 23.4912 -12.2486C25.3552 -15.1922 27.4193 -18.0216 29.2346 -21.0194C31.1612 -24.166 32.7388 -27.538 34.062 -30.9756C34.9032 -33.1492 35.5957 -35.434 35.8278 -37.7956C36.0234 -39.4883 36.2284 -43.2449 34.7463 -44.4613C31.5641 -41.951 29.0667 -37.8033 27.0203 -34.3536C24.7596 -30.7607 22.8938 -26.8366 21.3826 -22.7899Z" fill="white"/>
<path d="M33.0711 1.38579C33.0447 9.43625 34.2505 17.6056 37.4512 25.1612C37.7096 20.4267 37.9165 15.6894 38.1749 10.955C38.3743 7.30122 38.5222 3.64464 39.1305 0.0648023C39.6677 -3.15761 40.5594 -6.25744 41.3511 -9.41435C42.3365 -13.2833 43.2676 -17.1036 44.0499 -21.0352C44.8098 -24.5552 45.4723 -28.1837 45.3629 -31.8543C45.3218 -32.9921 45.5072 -36.3885 44.5201 -37.2166C42.995 -38.5902 42.0059 -35.5989 41.5408 -34.6436C38.0085 -27.6103 35.5316 -20.0549 34.1756 -12.2318C33.4653 -7.72851 33.0637 -3.20832 33.0711 1.38579Z" fill="white"/>
<path d="M50.54 -8.55762C49.7183 -1.06671 49.0968 6.53835 49.8732 14.0649C50.788 22.8377 53.5779 31.2999 56.3164 39.7593C56.5254 25.5251 60.0196 11.6249 61.4123 -2.54472C61.8821 -7.37087 62.0975 -12.2625 61.1208 -17.0644C60.5922 -19.674 59.6978 -22.2003 58.489 -24.6405C57.3232 -26.9236 55.9263 -28.7547 54.3683 -25.7429C51.7661 -20.6202 51.2092 -14.1987 50.54 -8.55762Z" fill="white"/>
<path d="M73.3098 15.9157C76.9314 27.1073 81.8078 38.006 84.6462 49.3613C85.7263 39.9748 85.0622 30.3898 83.8237 20.9284C82.2194 8.71134 79.5372 -3.61611 73.5259 -14.5252C72.681 -16.0681 70.3756 -20.1683 69.4127 -16.711C68.7633 -14.269 68.7632 -11.4302 68.78 -8.90012C68.748 -3.58554 69.5395 1.77396 70.8024 7.00436C71.52 9.93395 72.3892 12.9234 73.3098 15.9157Z" fill="white"/>
<path d="M87.127 17.0204C89.8073 30.3284 92.5306 43.7937 98.0404 56.3271C98.3614 51.3896 98.6797 46.5035 98.9493 41.5632C99.1721 38.4269 99.3462 35.2363 99.3117 32.0859C99.2118 23.5124 97.4109 14.8977 94.0297 6.86771C92.3418 2.80127 90.2311 -1.08181 87.7489 -4.77869C86.8413 -6.11859 85.5099 -8.20422 84.403 -5.89035C83.5842 -4.12852 84.2475 -1.15029 84.4037 0.71637C84.9837 6.16757 86.0296 11.5926 87.127 17.0204Z" fill="white"/>
<path d="M112.91 63.9602C112.621 52.2279 112.333 40.4956 110.437 28.8821C109.465 23.0482 108.079 17.2433 105.692 11.7967C104.503 8.99622 102.997 6.33327 101.222 3.86213C100.838 3.32505 99.4206 0.92503 98.5233 1.28898C97.8347 1.6127 98.5981 4.64801 98.6617 5.37409C100.238 18.1057 102.434 30.8196 105.886 43.2406C107.874 50.3171 110.182 57.2046 112.91 63.9602Z" fill="white"/>
<path d="M135.484 59.7739C132.939 49.6734 130.342 39.57 126.433 29.8595C124.478 25.0043 122.106 20.2296 119.035 15.9844C117.449 13.8332 115.652 11.7738 113.634 9.96039C113.242 9.57769 111.537 7.7297 110.837 8.25927C110.297 8.69434 111.557 11.1374 111.781 11.769C115.633 22.5086 120.012 33.0706 125.397 43.1712C128.438 48.9116 131.8 54.463 135.484 59.7739Z" fill="white"/>
<path d="M100.932 -0.33527C117.909 -10.6608 137.317 -17.2922 157.415 -19.5503C150.313 -15.1894 142.778 -11.4198 135.111 -8.07036C127.655 -4.81259 120.065 -1.92348 112.114 0.0168631C109.236 0.737242 106.26 1.34908 103.293 1.80653C102.564 1.9216 99.6805 2.7449 99.194 2.2022C98.3154 1.2768 100.292 0.0427197 100.932 -0.33527Z" fill="white"/>
<path d="M113.54 6.96241C130.217 3.07239 147.933 2.8521 164.935 6.25747C157.93 7.88813 150.75 8.94148 143.589 9.6346C136.637 10.2875 129.599 10.626 122.606 10.1411C120.035 9.94924 117.471 9.65443 114.912 9.2567C114.297 9.17153 111.721 9.08257 111.44 8.55111C110.976 7.59671 112.911 7.13455 113.54 6.96241Z" fill="white"/>
<path d="M130.012 18.1828C125.574 16.2889 121.369 13.8916 117.101 11.6973C112.636 9.33744 108.22 7.03184 103.807 4.67477C95.0312 -0.0365529 86.4157 -4.84237 78.2597 -10.5006C62.5427 -21.3716 46.9484 -32.5972 32.0108 -44.5096C23.3561 -51.4337 15.0355 -58.8042 7.15181 -66.6154C6.17313 -67.5978 7.64123 -68.9629 8.62271 -68.0319C22.4954 -54.5776 37.7389 -42.5969 53.3221 -31.1654C68.8566 -19.7883 84.3396 -8.41387 101.336 0.772043C106.098 3.35461 110.861 5.93719 115.623 8.51976C120.586 11.2165 125.763 13.7701 130.494 16.9187C131.247 17.3211 130.819 18.5365 130.012 18.1828Z" fill="white"/>
<path d="M171.352 25.7486C164.112 27.8827 156.178 26.6754 148.814 24.467C145.411 23.4555 142.125 22.1923 138.782 21.0291C137.112 20.4218 135.442 19.8145 133.769 19.2587C132.196 18.76 130.2 18.4446 128.799 17.6455C129.349 16.0754 135.164 16.3928 136.665 16.3199C139.561 16.2198 142.445 16.3256 145.316 16.6888C151.163 17.3692 157.016 18.8758 162.468 21.1346C165.548 22.3866 168.508 23.9418 171.352 25.7486Z" fill="white"/>
<path d="M152.975 53.2329C152.247 45.7607 148.078 38.9265 143.189 32.982C140.962 30.2798 138.524 27.6692 136.137 25.0614C134.97 23.759 133.75 22.4537 132.586 21.0997C131.518 19.8543 130.479 18.0943 129.188 17.1464C127.94 18.2655 130.444 23.4603 130.985 24.8835C131.974 27.5698 133.226 30.1673 134.584 32.7189C137.451 37.8819 141.063 42.6212 145.324 46.8281C147.673 49.1757 150.24 51.3288 152.975 53.2329Z" fill="white"/>
</g>
</svg>
