<svg width="138" height="132" viewBox="0 0 138 132" fill="none" xmlns="http://www.w3.org/2000/svg">
<g style="mix-blend-mode:screen" opacity="0.33">
<path d="M156.624 25.1954C157.208 34.3734 156.41 43.7205 153.148 52.4393C152.274 54.8102 151.197 57.1155 150.121 59.4209C148.952 61.972 147.755 64.5669 146.542 67.0907C146.253 65.5119 146.504 63.8457 146.614 62.2122C147.035 57.0661 146.183 51.9144 145.648 46.8392C144.561 36.6178 144.627 26.2053 145.956 15.9131C146.289 13.1433 146.71 10.4282 147.431 7.71863C147.956 5.6154 148.814 1.22865 150.6 -0.268098C153.086 -2.30018 153.403 3.61083 153.67 4.93289C154.32 8.07418 154.943 11.2592 155.45 14.4332C155.986 18.0498 156.39 21.5844 156.624 25.1954Z" fill="white"/>
<path d="M123.183 -27.792C116.146 -31.704 108.411 -34.5944 100.249 -35.4417C104.27 -32.9285 108.318 -30.4589 112.338 -27.9457C115.441 -26.0061 118.572 -24.1102 121.412 -21.8483C123.974 -19.8214 126.258 -17.5432 128.639 -15.325C131.551 -12.5933 134.446 -9.93263 137.511 -7.34842C140.226 -4.98275 143.083 -2.64985 146.349 -0.972489C147.366 -0.458897 150.25 1.34409 151.452 0.879808C153.391 0.207983 151.25 -2.10301 150.638 -2.97167C146.186 -9.46203 140.767 -15.2805 134.572 -20.2468C130.973 -23.0441 127.209 -25.5792 123.183 -27.792Z" fill="white"/>
<path d="M123.452 -7.6934C117.29 -12.0314 110.932 -16.2493 103.966 -19.2053C95.8431 -22.642 87.086 -24.287 78.3562 -25.9756C90.7185 -18.9166 101.201 -9.14255 112.935 -1.07836C116.934 1.66434 121.113 4.21585 125.79 5.68024C128.33 6.47801 130.974 6.91522 133.694 7.03558C136.257 7.11769 138.535 6.77914 136.65 3.96009C133.422 -0.792947 128.068 -4.3825 123.452 -7.6934Z" fill="white"/>
<path d="M128.702 64.5103C128.162 52.9287 127.677 41.2596 129.382 29.6836C130.076 25.0728 131.087 20.5386 132.125 15.9607C132.972 12.1748 133.901 8.25792 136.3 5.19878C137.392 9.28519 137.261 13.5791 137.342 17.8239C137.582 26.969 139.106 36.0049 138.401 45.1063C138.023 49.7935 137.018 54.5135 135.477 59.0204C134.04 63.1667 132.084 68.6296 129.062 71.9073C128.68 69.6018 128.817 66.9523 128.702 64.5103Z" fill="white"/>
<path d="M118.103 49.3805C116.797 53.1226 115.289 56.7991 113.737 60.4483C111.197 66.4575 108.525 72.3847 105.738 78.301C105.564 78.6779 104.974 78.5522 105.017 78.0933C105.711 73.9688 105.515 69.7131 105.521 65.5229C105.642 51.1334 108.964 36.6784 115.182 23.4255C116.608 20.3663 118.236 17.3727 120.449 14.8052C121.416 13.6471 122.547 12.2268 123.088 14.0843C123.486 15.4883 123.219 17.5697 123.218 19.0283C123.196 25.5785 122.475 32.1778 121.119 38.624C120.311 42.2514 119.343 45.8406 118.103 49.3805Z" fill="white"/>
<path d="M91.0241 0.420344C79.4754 -1.81479 67.577 -2.80983 56.2633 -5.80977C63.9604 -0.32986 72.6736 3.71881 81.5563 7.2048C93.0283 11.7016 105.118 15.308 117.573 15.3143C119.333 15.3199 124.036 15.2819 121.474 12.7688C119.65 11.0205 117.164 9.6491 114.941 8.44162C110.303 5.84639 105.228 3.95039 100.038 2.52967C97.1262 1.7428 94.0888 1.05972 91.0241 0.420344Z" fill="white"/>
<path d="M83.383 11.9854C70.436 7.90365 57.3304 3.78367 43.6948 2.5536C47.8629 5.21983 51.9873 7.85874 56.1828 10.4813C58.8213 12.1914 61.5308 13.8851 64.306 15.3767C71.8611 19.4307 80.2739 22.0153 88.9382 22.9336C93.3141 23.4201 97.7337 23.4477 102.17 23.0601C103.781 22.9127 106.251 22.7545 104.759 20.6675C103.612 19.0995 100.684 18.2417 98.9742 17.4767C93.921 15.3513 88.6657 13.6465 83.383 11.9854Z" fill="white"/>
<path d="M29.8281 11.8862C40.2403 17.3008 50.6525 22.7153 61.7367 26.6658C67.3143 28.6328 73.0667 30.223 78.9886 30.7642C82.0151 31.0758 85.0744 31.0432 88.0955 30.6828C88.7511 30.6064 91.5372 30.5246 91.652 29.5632C91.7012 28.8038 88.6747 28.006 88.0083 27.7109C76.0992 22.941 63.906 18.7227 51.3631 15.7445C44.2067 14.0669 37.0611 12.7608 29.8281 11.8862Z" fill="white"/>
<path d="M22.5879 33.6741C32.6615 36.3243 42.7625 38.9308 53.1531 40.1989C58.3484 40.833 63.6748 41.0628 68.8756 40.4239C71.5252 40.0745 74.1967 39.4956 76.7589 38.6053C77.2834 38.4469 79.7254 37.8461 79.5998 36.9775C79.4796 36.2946 76.7317 36.2179 76.0707 36.1086C64.8061 34.2942 53.4431 33.026 41.9981 32.8613C35.5025 32.7517 29.0179 33.0135 22.5879 33.6741Z" fill="white"/>
<path d="M105.9 27.9555C105.954 30.2992 106.025 32.7138 106.08 35.0575C106.173 37.7289 106.194 40.4167 106.101 43.0936C105.456 56.1829 100.03 68.6547 94.4625 80.6729C93.7745 75.259 94.5287 69.7742 94.8842 64.344C95.4255 56.9635 95.2949 49.5884 96.2514 42.2243C96.8799 37.3295 98.022 32.391 100.033 27.8131C100.688 26.2781 101.841 22.6835 103.879 22.4378C106.288 22.1812 105.84 26.3986 105.9 27.9555Z" fill="white"/>
<path d="M91.911 32.457C92.751 52.3096 89.1824 72.5062 81.451 91.1947C81.0637 82.869 81.4029 74.4505 82.1737 66.1195C82.9227 58.0178 84.0595 49.9764 86.2015 42.077C86.9611 39.2089 87.8627 36.3081 88.8954 33.4893C89.1467 32.7955 89.8189 29.8728 90.5291 29.709C91.7637 29.3867 91.8892 31.714 91.911 32.457Z" fill="white"/>
<path d="M79.429 39.9714C74.7789 56.453 66.414 72.0713 55.2194 85.3129C57.1756 78.3914 59.7218 71.5955 62.5739 64.9909C65.3605 58.5885 68.4639 52.2625 72.2665 46.3736C73.6761 44.2158 75.1732 42.1126 76.7576 40.0641C77.1291 39.567 78.4513 37.3546 79.0522 37.3655C80.112 37.4202 79.582 39.3377 79.429 39.9714Z" fill="white"/>
<path d="M61.6486 48.9746C65.4511 46.0029 69.5813 43.4793 73.564 40.8027C77.7871 38.0332 81.9392 35.2801 86.135 32.5543C94.4992 27.1465 102.869 21.9244 111.763 17.5163C128.874 9.00604 146.236 0.774401 163.882 -6.55035C174.125 -10.7835 184.598 -14.5086 195.246 -17.6382C196.579 -18.0206 197.065 -16.0757 195.775 -15.666C177.294 -10.0185 159.44 -2.45884 141.903 5.66353C124.437 13.7695 106.999 21.8318 90.7458 32.276C86.184 35.1984 81.6221 38.1208 77.0603 41.0433C72.3018 44.0858 67.5652 47.3852 62.5226 50.0071C61.807 50.4714 60.9493 49.5099 61.6486 48.9746Z" fill="white"/>
<path d="M35.0546 81.5159C36.683 74.1464 41.5728 67.7823 47.0635 62.4016C49.5931 59.9106 52.2865 57.6436 54.9198 55.2783C56.2583 54.1093 57.5968 52.9403 58.8917 51.744C60.0881 50.6078 61.3283 49.0127 62.7051 48.1714C63.814 49.4116 60.7271 54.35 60.066 55.6993C58.7547 58.2832 57.2686 60.7579 55.5639 63.0959C52.1438 67.8868 47.9971 72.2843 43.386 75.966C40.8019 78.0582 38.0102 79.8991 35.0546 81.5159Z" fill="white"/>
<path d="M19.8672 52.1482C26.7613 55.1205 34.7592 54.7714 42.3256 53.3625C45.7673 52.718 49.231 51.8442 52.6672 51.014C54.3717 50.6208 56.1035 50.1839 57.8517 49.818C59.4579 49.4848 61.5011 49.4249 62.9543 48.753C62.5774 47.1195 56.8194 46.8023 55.3116 46.5892C52.4818 46.1574 49.6028 45.9988 46.7129 45.9549C40.8074 45.9709 34.9127 46.8446 29.1709 48.5432C25.9805 49.4662 22.8556 50.6734 19.8672 52.1482Z" fill="white"/>
</g>
</svg>
