<svg width="118" height="125" viewBox="0 0 118 125" fill="none" xmlns="http://www.w3.org/2000/svg">
<g opacity="0.52">
<path d="M115.906 69.9768C116.093 72.6926 116.279 75.4084 116.75 78.0764C117.514 82.4021 119.081 86.5791 121.32 90.3908C121.862 91.3355 123.296 90.9954 123.323 89.9549C123.356 87.8463 123.366 85.7099 123.349 83.5962C123.348 81.5606 123.298 79.5199 123.097 77.4642C122.409 69.8382 119.867 62.4339 116.675 55.4227C115.861 53.6365 115.098 51.3465 113.878 49.7996C113.976 53.1427 114.702 56.574 115.057 59.892C115.38 63.283 115.657 66.6186 115.906 69.9768Z" fill="#F9F2F2"/>
<path d="M110.966 69.7622C110.56 63.3859 109.187 57.0145 106.172 51.2932C105.36 49.7362 104.416 48.2423 103.471 46.7483C102.44 45.0932 101.387 43.4103 100.329 41.7777C100.269 42.8913 100.589 44.0174 100.808 45.1335C101.551 48.6429 101.418 52.2682 101.496 55.8128C101.647 62.9526 102.609 70.1226 104.431 77.0985C104.905 78.9779 105.434 80.812 106.169 82.6158C106.716 84.0191 107.693 86.9667 109.056 87.8409C110.948 89.0224 110.646 84.921 110.714 83.9863C110.885 81.7643 111.034 79.5145 111.105 77.2824C111.155 74.7429 111.122 72.2715 110.966 69.7622Z" fill="#F9F2F2"/>
<path d="M110.943 105.866C107.666 110.907 103.627 115.414 99.2613 119.634C100.984 116.142 102.758 112.656 104.166 109.005C105.053 106.753 105.794 104.435 106.731 102.188C107.706 99.8172 108.95 97.5498 110.336 95.3983C111.21 94.0353 112.208 92.7102 113.437 91.6118C114.306 90.8081 116.329 89.1529 117.619 89.4854C117.516 92.2995 116.214 95.4008 115.118 97.9629C114.029 100.704 112.593 103.359 110.943 105.866Z" fill="#F9F2F2"/>
<path d="M92.5918 109.221C88.0873 112.537 83.0109 115.21 77.4608 116.512C80.0104 114.426 82.5826 112.368 85.1321 110.282C87.0997 108.672 89.0899 107.09 90.8484 105.281C92.4356 103.659 93.8086 101.888 95.2547 100.149C97.0207 98.0103 98.7817 95.9218 100.666 93.8711C102.329 92.0018 104.092 90.1425 106.196 88.6989C106.851 88.2555 108.68 86.759 109.549 86.9732C110.945 87.2654 109.673 89.0465 109.328 89.6991C106.831 94.5639 103.609 99.0508 99.7768 103.019C97.5422 105.263 95.1716 107.342 92.5918 109.221Z" fill="#F9F2F2"/>
<path d="M91.0029 95.3473C87.1383 98.8794 83.1276 102.346 78.5878 104.996C73.2922 108.08 67.402 109.985 61.5346 111.917C69.4326 105.964 75.7963 98.305 83.1729 91.7145C85.6871 89.4723 88.3425 87.3459 91.4362 85.925C93.1166 85.1516 94.9002 84.6175 96.7645 84.295C98.523 84.0128 100.123 84.0456 99.0722 86.1543C97.2659 89.7141 93.8926 92.6592 91.0029 95.3473Z" fill="#F9F2F2"/>
<path d="M88.2655 45.1259C88.9131 53.155 89.6059 61.2395 91.8003 69.067C92.6846 72.1834 93.7805 75.2191 94.8991 78.2826C95.8161 80.817 96.8012 83.4346 98.7234 85.3316C99.1164 82.4193 98.6478 79.4717 98.3304 76.5392C97.6904 70.2157 97.9449 63.8545 96.6575 57.6444C95.9848 54.4474 94.8763 51.2831 93.4176 48.3128C92.0622 45.5819 90.2331 41.9894 87.8624 39.9966C87.802 41.619 88.1295 43.4329 88.2655 45.1259Z" fill="#F9F2F2"/>
<path d="M82.2936 56.487C81.0642 54.0231 79.7012 51.6222 78.3105 49.244C76.0305 45.3265 73.6674 41.477 71.2262 37.6451C71.0725 37.4007 70.6769 37.5393 70.7475 37.8517C71.589 40.633 71.8283 43.5831 72.2012 46.4703C73.5516 56.3762 77.114 66.0453 82.5658 74.6311C83.8179 76.6138 85.2035 78.5335 86.9545 80.1081C87.7229 80.8211 88.6273 81.7003 88.8364 80.3726C88.9876 79.3699 88.6197 77.9591 88.4912 76.9539C87.8992 72.4418 86.8209 67.9574 85.3193 63.6343C84.4426 61.2057 83.4601 58.8174 82.2936 56.487Z" fill="#F9F2F2"/>
<path d="M67.9445 92.6094C60.1825 95.1665 52.0703 96.8999 44.5375 99.9634C49.3595 95.5092 55.0078 91.9519 60.8223 88.7675C68.3324 84.6584 76.3463 81.1087 84.9296 80.0077C86.1414 79.8489 89.3863 79.461 87.842 81.4185C86.7385 82.7839 85.1463 83.9479 83.7204 84.9758C80.7526 87.1726 77.4221 88.9261 73.9707 90.3621C72.0333 91.1607 70.0002 91.8989 67.9445 92.6094Z" fill="#F9F2F2"/>
<path d="M61.649 85.3131C53.0859 89.266 44.417 93.2591 35.1283 95.3074C37.766 93.103 40.376 90.9212 43.0364 88.7445C44.7041 87.3337 46.4223 85.9279 48.2034 84.6557C53.0531 81.1966 58.6233 78.6747 64.5135 77.279C67.4862 76.5585 70.5296 76.1503 73.6208 76.0269C74.7444 75.9866 76.46 75.8782 75.6161 77.4477C74.9636 78.6293 73.0212 79.4783 71.9102 80.156C68.6149 82.0657 65.1433 83.7033 61.649 85.3131Z" fill="#F9F2F2"/>
<path d="M24.7617 90.0986C31.4606 85.4505 38.1594 80.8023 45.4503 77.1039C49.1209 75.2572 52.9452 73.6549 56.9786 72.7605C59.0369 72.2793 61.1481 72.0324 63.2618 72.0148C63.7203 72.0097 65.6476 71.8208 65.8114 72.4733C65.9121 72.9923 63.8967 73.8085 63.4634 74.0705C55.6762 78.4063 47.6446 82.3869 39.2629 85.5436C34.4787 87.3299 29.6693 88.8591 24.7617 90.0986Z" fill="#F9F2F2"/>
<path d="M17.8516 75.7185C24.5605 73.0052 31.2921 70.3195 38.3411 68.5308C41.8656 67.6364 45.5161 67.0091 49.1565 66.9914C51.0133 66.999 52.9053 67.1627 54.7494 67.5507C55.1248 67.6137 56.8606 67.8127 56.8505 68.4224C56.8279 68.9035 54.9409 69.1983 54.495 69.3318C46.8917 71.5741 39.1725 73.4485 31.2997 74.5696C26.8329 75.2171 22.341 75.6076 17.8516 75.7185Z" fill="#F9F2F2"/>
<path d="M75.7728 72.3242C75.604 70.7043 75.4402 69.034 75.2714 67.414C75.1001 65.5649 74.8784 63.7106 74.5786 61.8741C72.9813 52.9103 68.1442 44.7931 63.2491 37.0009C63.2516 40.7925 64.2544 44.5059 64.9774 48.2169C66.0003 53.2555 66.5596 58.3496 67.8672 63.3403C68.7313 66.6583 69.9532 69.9611 71.7419 72.9389C72.3289 73.9391 73.4399 76.3148 74.8659 76.3047C76.5488 76.2694 75.8686 73.4024 75.7728 72.3242Z" fill="#F9F2F2"/>
<path d="M65.7318 70.4554C64.5627 56.7 60.3252 43.0957 53.3516 30.8972C53.8177 36.6689 54.7927 42.4407 56.0575 48.1142C57.2869 53.6315 58.7784 59.0732 60.9501 64.3285C61.726 66.2381 62.6028 68.1578 63.5626 70.0095C63.7969 70.4655 64.5175 72.4205 65.0213 72.4709C65.9006 72.5842 65.7822 70.9694 65.7318 70.4554Z" fill="#F9F2F2"/>
<path d="M56.4698 66.3741C51.8141 55.4251 44.6743 45.3983 35.7936 37.2585C37.7512 41.8562 40.1042 46.3154 42.6513 50.6158C45.1354 54.7828 47.831 58.8691 50.9701 62.5926C52.1315 63.9556 53.3484 65.2731 54.6206 66.5454C54.9204 66.8553 56.0264 68.2636 56.4396 68.2031C57.1652 68.0721 56.6311 66.7973 56.4698 66.3741Z" fill="#F9F2F2"/>
<path d="M43.423 61.7363C46.3051 63.4494 49.3736 64.8249 52.354 66.3189C55.5082 67.8556 58.612 69.3874 61.7435 70.8964C67.9839 73.8868 74.2116 76.7487 80.7291 79.0035C93.2703 83.3618 105.96 87.506 118.766 91.0002C126.198 93.0157 133.743 94.6607 141.357 95.88C142.309 96.0262 142.473 94.643 141.548 94.4743C128.314 92.2095 115.345 88.5716 102.544 84.5181C89.7936 80.4697 77.066 76.4489 64.9456 70.6823C61.5445 69.0699 58.1434 67.4576 54.7423 65.8452C51.1951 64.1674 47.6403 62.3107 43.9344 60.9477C43.4003 60.6908 42.8939 61.4289 43.423 61.7363Z" fill="#F9F2F2"/>
<path d="M22.2243 41.6516C23.9954 46.5869 27.9256 50.5422 32.1832 53.7669C34.1458 55.2609 36.2015 56.586 38.2246 57.9842C39.2499 58.672 40.2753 59.3597 41.2729 60.0702C42.1975 60.7479 43.1927 61.738 44.2155 62.1965C44.8705 61.2442 42.3084 58.1127 41.734 57.241C40.6028 55.5757 39.3607 54.0012 37.9802 52.54C35.2013 49.5395 31.9564 46.8741 28.4546 44.7427C26.4895 43.5284 24.4035 42.5056 22.2243 41.6516Z" fill="#F9F2F2"/>
<path d="M14.3438 63.2302C18.8332 60.5748 24.3757 60.1113 29.7141 60.4161C32.1427 60.5571 34.6066 60.8544 37.0478 61.124C38.2571 61.2449 39.489 61.3935 40.726 61.4918C41.8622 61.5799 43.2756 61.4414 44.3362 61.7764C44.2203 62.9353 40.2801 63.6609 39.2598 63.9405C37.3476 64.4872 35.3775 64.85 33.3898 65.1347C29.3186 65.6436 25.1793 65.5605 21.0729 64.8955C18.7929 64.5402 16.533 63.9835 14.3438 63.2302Z" fill="#F9F2F2"/>
</g>
</svg>
