<svg width="99" height="57" viewBox="0 0 99 57" fill="none" xmlns="http://www.w3.org/2000/svg">
<g opacity="0.52">
<path d="M36.7905 67.9192C41.1236 70.466 45.8799 72.3804 50.9369 72.938C52.3089 73.0958 53.6988 73.1389 55.0886 73.1821C56.6212 73.2404 58.1819 73.2963 59.712 73.3266C59.0132 72.7963 58.1384 72.5083 57.3147 72.1591C54.7006 71.0961 52.3975 69.4109 50.0537 67.8991C45.3354 64.8499 40.2398 62.3159 34.8919 60.4272C33.4586 59.9072 32.0305 59.4434 30.5309 59.1274C29.3757 58.8649 27.0244 58.2023 25.8539 58.7049C24.25 59.4166 27.0554 61.0278 27.6344 61.4842C29.0066 62.5754 30.4068 63.6641 31.8299 64.6941C33.4622 65.8465 35.0868 66.9147 36.7905 67.9192Z" fill="#F9F2F2"/>
<path d="M13.2767 51.9881C11.4373 47.6303 10.2813 43.0122 9.45677 38.3073C10.972 40.9694 12.4617 43.6621 14.2192 46.189C15.2956 47.7597 16.4792 49.264 17.5301 50.8653C18.6448 52.5457 19.5734 54.3561 20.3642 56.2074C20.8668 57.3778 21.2903 58.612 21.464 59.8972C21.6044 60.8178 21.7909 62.8655 21.0056 63.5593C19.2177 62.2514 17.7714 60.0356 16.5853 58.192C15.2793 56.2746 14.1823 54.1683 13.2767 51.9881Z" fill="#F9F2F2"/>
<path d="M19.1825 38.5524C19.0083 34.156 19.5048 29.6702 21.103 25.4801C21.3381 28.0608 21.5451 30.644 21.7801 33.2247C21.9615 35.2163 22.1149 37.2105 22.5181 39.1536C22.8755 40.903 23.424 42.5783 23.919 44.2868C24.534 46.3804 25.1183 48.4484 25.6236 50.5802C26.1085 52.4877 26.5423 54.4563 26.5554 56.4632C26.5555 57.0855 26.7242 58.9368 26.2015 59.4087C25.3958 60.1892 24.7962 58.575 24.5232 58.0625C22.4544 54.2912 20.9517 50.2138 20.0559 45.968C19.5786 43.5225 19.2696 41.0617 19.1825 38.5524Z" fill="#F9F2F2"/>
<path d="M28.9204 43.634C28.323 39.559 27.8326 35.4177 28.1073 31.2915C28.4329 26.4819 29.7888 21.8047 31.1166 17.1301C31.5132 24.9003 33.6974 32.4228 34.7392 40.1342C35.0916 42.7608 35.3062 45.4282 34.8681 48.0702C34.6312 49.506 34.1928 50.9035 33.581 52.2603C32.9896 53.5304 32.263 54.5582 31.3523 52.9441C29.8294 50.1979 29.3978 46.7017 28.9204 43.634Z" fill="#F9F2F2"/>
<path d="M62.849 63.9908C57.3326 60.873 51.76 57.7602 45.6929 55.739C43.2727 54.9412 40.8117 54.3169 38.3226 53.6951C36.2671 53.1752 34.1275 52.663 32.0441 53.079C33.7683 54.619 35.8952 55.6132 37.9457 56.6992C42.3477 59.0701 46.3799 62.0403 50.9935 63.9393C53.3729 64.9105 55.9231 65.5833 58.5014 65.9424C60.8782 66.2633 64.0251 66.6555 66.3686 65.9895C65.3382 65.2349 64.012 64.6486 62.849 63.9908Z" fill="#F9F2F2"/>
<path d="M58.0801 55.0918C60.2273 55.377 62.3924 55.5475 64.555 55.6899C68.1125 55.9316 71.6623 56.0891 75.235 56.1879C75.462 56.1955 75.5461 55.8768 75.3114 55.785C73.1284 55.107 71.1009 53.9624 69.0555 52.9325C62.0063 49.4451 54.1363 47.5032 46.139 47.27C44.2953 47.2117 42.4337 47.2681 40.6359 47.7147C39.8327 47.901 38.8611 48.1026 39.6339 48.8242C40.2205 49.3647 41.3019 49.747 42.0134 50.1065C45.2141 51.71 48.6111 52.9844 52.0896 53.9121C54.0584 54.4116 56.0476 54.8243 58.0801 55.0918Z" fill="#F9F2F2"/>
<path d="M40.8707 29.8177C42.6266 23.6333 45.0737 17.5839 46.3987 11.3257C47.1748 16.4309 47.0023 21.6791 46.5136 26.8713C45.8798 33.5757 44.6594 40.3618 41.5926 46.4393C41.1618 47.2988 39.9841 49.5839 39.3896 47.7147C38.9864 46.3938 38.93 44.8434 38.889 43.4612C38.7661 40.5592 39.092 37.6163 39.678 34.7345C40.0118 33.1202 40.4272 31.4702 40.8707 29.8177Z" fill="#F9F2F2"/>
<path d="M48.398 28.9334C49.5979 21.6117 50.8181 14.2034 53.5787 7.24872C53.852 9.93906 54.1228 12.6014 54.3681 15.2942C54.552 17.0028 54.7104 18.742 54.754 20.4633C54.8696 25.1479 54.0569 29.8887 52.3695 34.3415C51.5283 36.596 50.4526 38.7587 49.1702 40.8271C48.7011 41.5769 48.0153 42.7424 47.3648 41.5006C46.8827 40.5546 47.1859 38.9148 47.2341 37.8922C47.4427 34.9034 47.9064 31.9197 48.398 28.9334Z" fill="#F9F2F2"/>
<path d="M61.5449 2.79004C61.62 9.20361 61.695 15.6172 60.8903 21.9978C60.4752 25.2033 59.8331 28.4013 58.6376 31.4234C58.0437 32.9766 57.2738 34.4609 56.3534 35.8458C56.1546 36.1467 55.428 37.4856 54.9307 37.3047C54.5482 37.1415 54.9049 35.4686 54.9252 35.0708C55.5335 28.0858 56.481 21.0983 58.1195 14.2458C59.0649 10.3414 60.1889 6.53387 61.5449 2.79004Z" fill="#F9F2F2"/>
<path d="M73.959 4.62817C72.769 10.1953 71.551 15.765 69.6087 21.1461C68.6376 23.8367 67.437 26.4916 65.8435 28.8711C65.02 30.0775 64.0792 31.238 63.0135 32.2684C62.8069 32.4852 61.912 33.5284 61.5193 33.253C61.2158 33.0261 61.8556 31.6668 61.9652 31.3174C63.8564 25.3752 66.0383 19.5198 68.7787 13.8962C70.3261 10.7007 72.052 7.60196 73.959 4.62817Z" fill="#F9F2F2"/>
<path d="M50.6353 43.8614C51.7651 44.4656 52.9255 45.0953 54.0553 45.6995C55.3356 46.4031 56.6414 47.0761 57.9701 47.6905C64.5142 50.6016 71.9352 51.0287 79.17 51.2749C76.6986 49.6049 73.8372 48.6211 71.1007 47.4562C67.367 45.9012 63.8016 44.0198 59.9736 42.6715C57.431 41.7717 54.7405 41.1117 52.0118 40.9642C51.1014 40.9057 49.0638 40.5822 48.4417 41.5157C47.7228 42.6277 49.8905 43.4484 50.6353 43.8614Z" fill="#F9F2F2"/>
<path d="M56.2804 38.1429C65.7576 43.4455 76.4891 46.6824 87.5109 47.5169C83.5451 45.276 79.3549 43.3667 75.101 41.6895C70.9644 40.0581 66.7615 38.6307 62.3802 37.7287C60.794 37.3924 59.1568 37.1173 57.5272 36.9263C57.1268 36.8779 55.5355 36.4854 55.2805 36.7915C54.819 37.3144 55.9233 37.9492 56.2804 38.1429Z" fill="#F9F2F2"/>
<path d="M63.0214 33.9092C72.2073 35.703 81.8876 35.4718 91.1059 33.2745C87.2474 32.5229 83.3049 32.0901 79.3802 31.8536C75.5702 31.6349 71.7195 31.5897 67.9097 31.9932C66.5097 32.149 65.1148 32.361 63.725 32.629C63.391 32.6877 61.9859 32.7874 61.8431 33.0832C61.6086 33.6137 62.6746 33.8277 63.0214 33.9092Z" fill="#F9F2F2"/>
<path d="M71.7957 27.4534C69.4089 28.5758 67.1599 29.9686 64.8727 31.2517C62.4809 32.6292 60.1146 33.9761 57.7509 35.351C53.0515 38.0983 48.4413 40.894 44.099 44.1462C35.7305 50.3955 27.4361 56.836 19.514 63.6385C14.9244 67.592 10.5261 71.7826 6.3753 76.2053C5.86026 76.7613 6.68919 77.4778 7.20677 76.9498C14.5167 69.3262 22.6045 62.4802 30.8888 55.9275C39.1475 49.4054 47.3782 42.8859 56.4787 37.5316C59.0286 36.0266 61.5785 34.5215 64.1284 33.0165C66.7853 31.4452 69.5622 29.9478 72.0839 28.1342C72.4868 27.8995 72.2291 27.2442 71.7957 27.4534Z" fill="#F9F2F2"/>
<path d="M94.2264 22.4971C90.2302 21.4752 85.9206 22.292 81.9426 23.6442C80.1041 24.2642 78.3344 25.0194 76.5316 25.721C75.6315 26.0858 74.7313 26.4506 73.8286 26.7874C72.9795 27.091 71.8957 27.3028 71.1461 27.7671C71.4777 28.6137 74.6475 28.325 75.4686 28.335C77.0523 28.3322 78.6257 28.2172 80.1863 27.9619C83.3662 27.4743 86.5334 26.5353 89.4658 25.1934C91.1232 24.4485 92.7093 23.5404 94.2264 22.4971Z" fill="#F9F2F2"/>
<path d="M83.6426 7.84839C83.3934 11.9439 81.2519 15.7593 78.6998 19.103C77.5372 20.6231 76.2573 22.0972 75.0054 23.5689C74.3935 24.3034 73.7536 25.0405 73.1442 25.8031C72.5859 26.5045 72.0531 27.4864 71.3672 28.0297C70.6632 27.4433 71.9276 24.5563 72.1952 23.7683C72.682 22.2815 73.3142 20.838 74.0051 19.4174C75.4683 16.5406 77.3473 13.8805 79.591 11.4983C80.8276 10.1695 82.1866 8.94265 83.6426 7.84839Z" fill="#F9F2F2"/>
</g>
</svg>
