<svg width="9" height="14" viewBox="0 0 9 14" fill="none" xmlns="http://www.w3.org/2000/svg">
<path d="M8.12078 0.97896C7.77778 0.635962 7.22478 0.635962 6.88179 0.97896L1.06483 6.79592C0.79183 7.06892 0.79183 7.50991 1.06483 7.78291L6.88179 13.5999C7.22478 13.9429 7.77778 13.9429 8.12078 13.5999C8.46377 13.2569 8.46377 12.7039 8.12078 12.3609L3.05281 7.28591L8.12778 2.21095C8.46377 1.87495 8.46377 1.31496 8.12078 0.97896Z" fill="white"/>
<path d="M8.12078 0.97896C7.77778 0.635962 7.22478 0.635962 6.88179 0.97896L1.06483 6.79592C0.79183 7.06892 0.79183 7.50991 1.06483 7.78291L6.88179 13.5999C7.22478 13.9429 7.77778 13.9429 8.12078 13.5999C8.46377 13.2569 8.46377 12.7039 8.12078 12.3609L3.05281 7.28591L8.12778 2.21095C8.46377 1.87495 8.46377 1.31496 8.12078 0.97896Z" fill="#FE674C" fill-opacity="0.5"/>
</svg>
