<svg width="9" height="14" viewBox="0 0 9 14" fill="none" xmlns="http://www.w3.org/2000/svg">
<path d="M0.751867 13.5998C1.1112 13.9428 1.69053 13.9428 2.04986 13.5998L8.14381 7.78288C8.42981 7.50988 8.42981 7.06888 8.14381 6.79589L2.04986 0.978928C1.69053 0.63593 1.1112 0.63593 0.751867 0.978928C0.392536 1.32193 0.392536 1.87492 0.751867 2.21792L6.06116 7.29288L0.744534 12.3678C0.392536 12.7038 0.392536 13.2638 0.751867 13.5998Z" fill="white"/>
<path d="M0.751867 13.5998C1.1112 13.9428 1.69053 13.9428 2.04986 13.5998L8.14381 7.78288C8.42981 7.50988 8.42981 7.06888 8.14381 6.79589L2.04986 0.978928C1.69053 0.63593 1.1112 0.63593 0.751867 0.978928C0.392536 1.32193 0.392536 1.87492 0.751867 2.21792L6.06116 7.29288L0.744534 12.3678C0.392536 12.7038 0.392536 13.2638 0.751867 13.5998Z" fill="white"/>
</svg>
