<svg width="80" height="81" viewBox="0 0 80 81" fill="none" xmlns="http://www.w3.org/2000/svg">
<g filter="url(#filter0_d)">
<path fill-rule="evenodd" clip-rule="evenodd" d="M16 36.0554C16 25.0097 24.9543 16.0554 36 16.0554C47.0457 16.0554 56 25.0097 56 36.0554C56 47.1011 47.0457 56.0554 36 56.0554C24.9543 56.0554 16 47.1011 16 36.0554Z" fill="#F68634"/>
<path fill-rule="evenodd" clip-rule="evenodd" d="M38.2016 31.2168C38.2016 30.0384 37.2086 29.0802 35.9878 29.0802C34.768 29.0802 33.7741 30.0384 33.7741 31.2168C33.7741 32.3942 34.768 33.3531 35.9878 33.3531C37.2086 33.3531 38.2016 32.3942 38.2016 31.2168ZM41.3338 31.2167C41.3338 34.062 38.9364 36.3765 35.9872 36.3765C33.0386 36.3765 30.6406 34.062 30.6406 31.2167C30.6406 28.3705 33.0386 26.0554 35.9872 26.0554C38.9364 26.0554 41.3338 28.3705 41.3338 31.2167ZM41.268 39.348C40.3012 39.9341 39.2516 40.3498 38.1633 40.5891L41.1522 43.4745C41.7645 44.0643 41.7645 45.0222 41.1522 45.6127C40.5405 46.2031 39.5491 46.2031 38.9381 45.6127L35.9995 42.7773L33.0633 45.6127C32.7572 45.9076 32.356 46.0552 31.9549 46.0552C31.5543 46.0552 31.1538 45.9076 30.8477 45.6127C30.236 45.0222 30.236 44.065 30.847 43.4745L33.8362 40.5891C32.7479 40.3498 31.6983 39.9335 30.7315 39.348C29.9999 38.9027 29.7801 37.9698 30.2411 37.263C30.7008 36.5552 31.6676 36.3421 32.4005 36.7874C34.5893 38.1165 37.409 38.1168 39.599 36.7874C40.332 36.3421 41.2984 36.5552 41.7591 37.263C42.22 37.9692 41.9996 38.9027 41.268 39.348Z" fill="white"/>
</g>
<defs>
<filter id="filter0_d" x="0" y="0.0554199" width="80" height="80" filterUnits="userSpaceOnUse" color-interpolation-filters="sRGB">
<feFlood flood-opacity="0" result="BackgroundImageFix"/>
<feColorMatrix in="SourceAlpha" type="matrix" values="0 0 0 0 0 0 0 0 0 0 0 0 0 0 0 0 0 0 127 0"/>
<feOffset dx="4" dy="4"/>
<feGaussianBlur stdDeviation="10"/>
<feColorMatrix type="matrix" values="0 0 0 0 0 0 0 0 0 0 0 0 0 0 0 0 0 0 0.21 0"/>
<feBlend mode="normal" in2="BackgroundImageFix" result="effect1_dropShadow"/>
<feBlend mode="normal" in="SourceGraphic" in2="effect1_dropShadow" result="shape"/>
</filter>
</defs>
</svg>
