<svg width="216" height="260" viewBox="0 0 216 260" fill="none" xmlns="http://www.w3.org/2000/svg">
<path d="M219.846 41.9584C225.211 46.3225 230.576 50.6866 236.346 54.4391C245.7 60.5242 256.172 64.8595 267.133 67.3126C269.826 67.9456 271.681 64.6945 269.797 62.8386C265.94 59.1206 261.991 55.3967 258.037 51.7635C254.258 48.2331 250.382 44.7875 246.216 41.5962C230.866 29.647 212.712 21.5245 194.16 15.2902C189.433 13.703 183.858 11.1484 178.871 10.7292C185.248 16.3449 192.876 20.949 199.652 26.044C206.506 31.3265 213.179 36.5971 219.846 41.9584Z" fill="#F9F2F2"/>
<path d="M210.876 50.7606C198.335 40.4547 184.126 31.9535 168.275 27.629C163.978 26.4347 159.566 25.5975 155.154 24.7604C150.294 23.8025 145.343 22.8388 140.478 21.9717C142.44 24.0152 145.085 25.3744 147.537 26.9031C155.341 31.6099 161.84 38.1453 168.556 44.148C182.072 56.2501 197.052 66.8987 213.161 75.616C217.472 77.9963 221.794 80.195 226.419 81.9578C229.972 83.3767 237.139 86.6741 241.126 85.6601C246.601 84.197 238.462 77.6449 236.845 75.8976C233.017 71.7258 229.098 67.548 225.077 63.5458C220.45 59.048 215.805 54.8225 210.876 50.7606Z" fill="#F9F2F2"/>
<path d="M223.752 132.196C223.607 145.496 223.086 158.954 220.133 171.978C216.673 187.157 209.993 201.395 203.404 215.639C206.05 190.652 202.87 165.555 203.428 140.431C203.626 131.875 204.284 123.257 207.012 115.05C208.491 110.589 210.593 106.351 213.227 102.331C215.753 98.5774 218.589 95.6644 220.681 101.272C224.157 110.799 223.774 122.169 223.752 132.196Z" fill="#F9F2F2"/>
<path d="M125.772 50.1755C141.8 62.8987 158.01 75.6338 176.347 85.1358C183.666 88.899 191.202 92.1296 198.829 95.3662C205.125 98.0594 211.692 100.77 218.548 100.492C213.823 94.7116 207.538 90.4693 201.544 85.9727C188.695 76.1935 177.327 64.6886 163.566 56.308C156.464 52.0121 148.668 48.582 140.624 46.1385C133.203 43.9183 123.362 41.083 115.551 42.0278C118.458 44.9539 122.393 47.4919 125.772 50.1755Z" fill="#F9F2F2"/>
<path d="M136.507 80.968C129.801 78.9771 122.98 77.3433 116.153 75.8003C104.926 73.2386 93.6817 70.9491 82.3342 68.8353C81.614 68.6968 81.1852 69.6713 81.8875 70.0822C88.5102 73.3439 94.402 78.0161 100.408 82.3312C121.14 97.0046 145.268 107.161 170.662 111.931C176.515 113.045 182.482 113.802 188.441 113.283C191.098 113.093 194.298 112.939 192.196 110.248C190.597 108.228 187.34 106.464 185.251 104.959C175.848 98.2329 165.653 92.4572 155.023 87.7469C148.994 85.1624 142.857 82.8442 136.507 80.968Z" fill="#F9F2F2"/>
<path d="M178.676 170.255C169.961 189.1 159.11 207.165 151.732 226.462C151.827 209.786 155.019 193.131 159.192 176.813C164.589 155.745 171.898 134.711 184.74 116.868C186.547 114.343 191.455 107.646 192.41 113.908C193.032 118.325 192.431 123.299 191.866 127.729C190.797 137.049 188.276 146.273 184.956 155.17C183.078 160.152 180.923 165.207 178.676 170.255Z" fill="#F9F2F2"/>
<path d="M154.218 169.284C146.704 192.036 139.082 215.055 126.775 235.851C127.257 227.131 127.734 218.502 128.307 209.788C128.58 204.245 128.951 198.617 129.678 193.104C131.667 178.102 136.647 163.388 144.271 150.032C148.089 143.264 152.61 136.906 157.742 130.954C159.616 128.798 162.39 125.425 163.84 129.714C164.902 132.975 163.109 138.053 162.441 141.291C160.27 150.72 157.29 160.005 154.218 169.284Z" fill="#F9F2F2"/>
<path d="M99.1211 246.062C102.11 225.565 105.099 205.068 110.879 185.119C113.817 175.102 117.475 165.223 122.81 156.184C125.486 151.529 128.689 147.181 132.323 143.227C133.109 142.367 136.1 138.461 137.596 139.289C138.734 140.002 136.754 145.159 136.489 146.418C131.032 168.394 124.492 190.208 115.815 211.242C110.834 223.222 105.332 234.802 99.1211 246.062Z" fill="#F9F2F2"/>
<path d="M60.4414 233.948C67.04 216.787 73.7293 199.633 82.6341 183.444C87.0865 175.35 92.2532 167.485 98.5341 160.697C101.768 157.263 105.354 154.035 109.272 151.284C110.04 150.696 113.42 147.819 114.535 148.895C115.389 149.772 112.663 153.786 112.138 154.846C103.113 172.849 93.2053 190.43 81.6323 206.99C75.0874 216.405 68.0218 225.421 60.4414 233.948Z" fill="#F9F2F2"/>
<path d="M154.603 120.532C151.303 118.036 147.918 115.443 144.618 112.947C140.888 110.058 137.061 107.254 133.132 104.625C113.721 92.0441 90.263 86.9457 67.3077 82.5186C74.3508 89.0898 82.9836 93.6688 91.1267 98.7625C102.254 105.602 112.681 113.399 124.214 119.627C131.872 123.778 140.123 127.238 148.753 129.081C151.628 129.726 157.965 131.784 160.419 129.12C163.273 125.934 156.77 122.225 154.603 120.532Z" fill="#F9F2F2"/>
<path d="M133.711 135.936C106.148 114.25 73.5433 98.5217 38.8034 90.311C50.3265 99.4559 62.7323 107.656 75.4581 115.148C87.8328 122.435 100.522 129.104 114.044 134.187C118.935 136.058 124.019 137.76 129.121 139.19C130.374 139.546 135.253 141.599 136.221 140.751C137.956 139.315 134.753 136.734 133.711 135.936Z" fill="#F9F2F2"/>
<path d="M110.073 146.048C81.6728 135.702 50.676 131.567 20.1629 133.935C32.0933 138.275 44.4524 141.641 56.8533 144.371C68.8971 146.987 81.1582 149.069 93.5149 149.7C98.0594 149.908 102.616 149.934 107.184 149.778C108.279 149.759 112.812 150.149 113.416 149.277C114.431 147.703 111.139 146.483 110.073 146.048Z" fill="#F9F2F2"/>
<path d="M78.8354 162.226C87.0142 159.846 94.8897 156.535 102.832 153.594C111.155 150.404 119.382 147.298 127.615 144.102C143.989 137.704 160.103 131.106 175.592 122.917C205.434 107.195 235.136 90.8246 263.832 73.1122C280.463 62.8108 296.603 51.6566 312.071 39.6377C313.994 38.1233 311.711 35.4205 309.794 36.8442C282.637 57.484 253.39 75.2513 223.664 91.9845C194.035 108.633 164.497 125.287 132.77 137.786C123.879 141.304 114.987 144.821 106.095 148.339C96.828 152.014 87.216 155.393 78.2585 159.908C76.8551 160.454 77.3472 162.675 78.8354 162.226Z" fill="#F9F2F2"/>
<path d="M4.78833 166.744C17.0221 172.016 31.181 171.58 44.5516 169.269C50.7288 168.217 56.7542 166.698 62.8585 165.368C65.9136 164.657 68.9687 163.947 72.0179 163.327C74.8795 162.786 78.4434 162.655 81.0686 161.552C80.4368 158.684 70.1797 158.009 67.5653 157.564C62.512 156.776 57.4349 156.351 52.3279 156.379C41.9383 156.334 31.3624 157.735 21.3323 160.54C15.6699 162.082 10.1533 164.18 4.78833 166.744Z" fill="#F9F2F2"/>
<path d="M31.1719 218.805C34.0286 205.866 42.7806 194.773 52.6052 185.391C57.0791 181.127 61.9042 177.069 66.6386 173.004C68.9603 170.969 71.3729 168.94 73.7006 166.814C75.8349 164.858 78.0289 161.994 80.4904 160.606C82.4408 162.831 76.9541 171.404 75.7036 173.783C73.4022 178.281 70.6588 182.567 67.7399 186.751C61.6238 195.192 54.2906 202.732 45.9338 209.202C41.3201 212.818 36.3672 216.048 31.1719 218.805Z" fill="#F9F2F2"/>
</svg>
