<svg width="80" height="80" viewBox="0 0 80 80" fill="none" xmlns="http://www.w3.org/2000/svg">
<g filter="url(#filter0_d)">
<path fill-rule="evenodd" clip-rule="evenodd" d="M36 56C47.0457 56 56 47.0457 56 36C56 24.9543 47.0457 16 36 16C24.9543 16 16 24.9543 16 36C16 47.0457 24.9543 56 36 56Z" fill="url(#paint0_linear)"/>
<path fill-rule="evenodd" clip-rule="evenodd" d="M32.3346 45.1665C31.6867 45.1665 31.7968 44.9218 31.5733 44.3049L29.668 38.0341L44.3346 29.3332" fill="#C8DAEA"/>
<path fill-rule="evenodd" clip-rule="evenodd" d="M32.3359 45.1667C32.8359 45.1667 33.0569 44.938 33.3359 44.6667L36.0026 42.0737L32.6763 40.0678" fill="#A9C9DD"/>
<path fill-rule="evenodd" clip-rule="evenodd" d="M32.6765 40.0684L40.7365 46.0233C41.6562 46.5308 42.32 46.268 42.5491 45.1694L45.83 29.7089C46.1659 28.3622 45.3166 27.7514 44.4367 28.1508L25.1717 35.5793C23.8567 36.1068 23.8644 36.8404 24.932 37.1673L29.8759 38.7104L41.3214 31.4895C41.8617 31.1619 42.3576 31.338 41.9506 31.6993" fill="url(#paint1_linear)"/>
</g>
<defs>
<filter id="filter0_d" x="0" y="0" width="80" height="80" filterUnits="userSpaceOnUse" color-interpolation-filters="sRGB">
<feFlood flood-opacity="0" result="BackgroundImageFix"/>
<feColorMatrix in="SourceAlpha" type="matrix" values="0 0 0 0 0 0 0 0 0 0 0 0 0 0 0 0 0 0 127 0"/>
<feOffset dx="4" dy="4"/>
<feGaussianBlur stdDeviation="10"/>
<feColorMatrix type="matrix" values="0 0 0 0 0 0 0 0 0 0 0 0 0 0 0 0 0 0 0.21 0"/>
<feBlend mode="normal" in2="BackgroundImageFix" result="effect1_dropShadow"/>
<feBlend mode="normal" in="SourceGraphic" in2="effect1_dropShadow" result="shape"/>
</filter>
<linearGradient id="paint0_linear" x1="31.002" y1="17.668" x2="21.002" y2="41" gradientUnits="userSpaceOnUse">
<stop stop-color="#37AEE2"/>
<stop offset="1" stop-color="#1E96C8"/>
</linearGradient>
<linearGradient id="paint1_linear" x1="33.4995" y1="37.2286" x2="35.6364" y2="44.1411" gradientUnits="userSpaceOnUse">
<stop stop-color="#EFF7FC"/>
<stop offset="1" stop-color="white"/>
</linearGradient>
</defs>
</svg>
