<svg width="80" height="80" viewBox="0 0 80 80" fill="none" xmlns="http://www.w3.org/2000/svg">
<g filter="url(#filter0_d)">
<path fill-rule="evenodd" clip-rule="evenodd" d="M36 16C47.0457 16 56 24.9543 56 36C56 47.0457 47.0457 56 36 56C24.9543 56 16 47.0457 16 36C16 24.9543 24.9543 16 36 16Z" fill="#7F4DA0"/>
<path fill-rule="evenodd" clip-rule="evenodd" d="M41.3268 33.4653C41.2295 32.6751 40.9866 32.0546 40.5552 31.5049C39.9951 30.7972 39.2793 30.3734 38.2196 30.122C37.529 29.9545 37.25 29.9737 37.0002 30.2018C36.7675 30.4156 36.7221 30.8441 36.8999 31.1216C37.0249 31.3231 37.1692 31.3952 37.5704 31.474C38.1046 31.5723 38.4738 31.6998 38.8097 31.8919C39.5226 32.3035 39.8545 32.9476 39.8901 33.9904C39.9067 34.48 39.949 34.6305 40.12 34.8042C40.437 35.1216 41.001 35.0599 41.2403 34.68C41.3281 34.5369 41.3415 34.4745 41.3508 34.1421C41.3569 33.9362 41.3481 33.6299 41.3268 33.4653Z" fill="white"/>
<path fill-rule="evenodd" clip-rule="evenodd" d="M44.1204 34.3564C43.9796 31.9353 43.0326 29.9873 41.3378 28.6168C40.3829 27.8467 39.2287 27.3172 37.9634 27.0597C37.5 26.9676 36.6467 26.8929 36.5003 26.9356C36.3621 26.9752 36.1668 27.1247 36.0797 27.26C35.9876 27.4067 35.9668 27.7342 36.0454 27.9236C36.1722 28.2403 36.4081 28.3522 37.0687 28.41C38.0871 28.4991 39.1375 28.8569 39.9312 29.3866C40.8373 29.9897 41.5576 30.8146 42.0236 31.784C42.4262 32.6168 42.6738 33.8171 42.6669 34.8919C42.6646 35.2807 42.7247 35.5002 42.881 35.6607C43.117 35.9075 43.4609 35.9614 43.7645 35.7975C44.1009 35.6206 44.1796 35.31 44.1204 34.3564Z" fill="white"/>
<path fill-rule="evenodd" clip-rule="evenodd" d="M47.2124 43.6804C47.165 43.542 47.0545 43.3285 46.9756 43.2059C46.4782 42.4549 43.8059 40.3636 42.4718 39.6797C41.71 39.2883 41.1455 39.1579 40.7271 39.2804C40.2771 39.407 40.0402 39.6164 39.2863 40.5533C38.9824 40.9289 38.6706 41.2808 38.5877 41.3361C38.3824 41.4784 37.9798 41.5931 37.6956 41.5931C37.0364 41.5891 35.8404 41.1621 34.9207 40.6008C34.2062 40.166 33.2905 39.3872 32.5879 38.6163C31.7589 37.711 31.1945 36.9125 30.7484 36.0111C30.1722 34.8528 30.0261 34.1452 30.2669 33.6273C30.3261 33.4968 30.4051 33.3585 30.4405 33.315C30.4761 33.2755 30.8472 32.9711 31.2576 32.639C32.0629 31.9986 32.1931 31.8523 32.3431 31.4135C32.5326 30.8561 32.4813 30.2868 32.1892 29.7136C31.9642 29.2788 31.3761 28.33 30.9498 27.7173C30.3853 26.9108 28.9801 25.1872 28.6998 24.9539C28.1946 24.5428 27.5473 24.4716 26.8328 24.7484C26.0789 25.041 24.6657 26.1795 24.0618 26.9741C23.5171 27.6936 23.3079 28.2035 23.2763 28.8755C23.2487 29.429 23.2961 29.6583 23.5882 30.3659C25.8736 35.9162 29.284 40.3478 33.9694 43.8662C36.4167 45.7044 38.9548 47.1038 41.5876 48.0606C43.123 48.6179 43.7901 48.6456 44.5756 48.1871C44.9072 47.9894 45.7282 47.1473 46.1861 46.5346C46.944 45.5146 47.2242 45.0442 47.3032 44.6687C47.3584 44.4117 47.315 43.965 47.2124 43.6804Z" fill="white"/>
<path fill-rule="evenodd" clip-rule="evenodd" d="M46.9622 34.9127C46.9117 33.5431 46.6811 32.4198 46.2003 31.1673C45.7256 29.9353 45.2452 29.1314 44.3379 28.044C43.4801 27.0245 42.8138 26.4424 41.7571 25.7944C40.2828 24.8916 38.4887 24.2941 36.478 24.0429C35.7923 23.9551 35.6372 23.9613 35.4268 24.1017C35.0192 24.3676 35.0246 25.0308 35.4335 25.2927C35.5689 25.3761 35.689 25.4064 36.2375 25.4782C37.0795 25.5916 37.6209 25.6984 38.2633 25.8737C40.7825 26.5623 42.7198 27.9699 44.0149 30.0595C45.0988 31.8012 45.5487 33.5429 45.4848 35.7675C45.4626 36.5196 45.4787 36.6519 45.5937 36.8326C45.8139 37.1694 46.3944 37.236 46.6923 36.9565C46.8776 36.7862 46.9125 36.6583 46.949 36.0147C46.9665 35.6789 46.9703 35.1832 46.9622 34.9127Z" fill="white"/>
</g>
<defs>
<filter id="filter0_d" x="0" y="0" width="80" height="80" filterUnits="userSpaceOnUse" color-interpolation-filters="sRGB">
<feFlood flood-opacity="0" result="BackgroundImageFix"/>
<feColorMatrix in="SourceAlpha" type="matrix" values="0 0 0 0 0 0 0 0 0 0 0 0 0 0 0 0 0 0 127 0"/>
<feOffset dx="4" dy="4"/>
<feGaussianBlur stdDeviation="10"/>
<feColorMatrix type="matrix" values="0 0 0 0 0 0 0 0 0 0 0 0 0 0 0 0 0 0 0.21 0"/>
<feBlend mode="normal" in2="BackgroundImageFix" result="effect1_dropShadow"/>
<feBlend mode="normal" in="SourceGraphic" in2="effect1_dropShadow" result="shape"/>
</filter>
</defs>
</svg>
