<svg width="80" height="80" viewBox="0 0 80 80" fill="none" xmlns="http://www.w3.org/2000/svg">
<g filter="url(#filter0_d)">
<path fill-rule="evenodd" clip-rule="evenodd" d="M16 36C16 24.9543 24.9543 16 36 16C47.0457 16 56 24.9543 56 36C56 47.0457 47.0457 56 36 56C24.9543 56 16 47.0457 16 36Z" fill="#4C6C91"/>
<path fill-rule="evenodd" clip-rule="evenodd" d="M37.0449 42.5634C37.0449 42.5634 37.4299 42.5214 37.6271 42.3135C37.8077 42.123 37.8014 41.7635 37.8014 41.7635C37.8014 41.7635 37.7774 40.0848 38.5714 39.8369C39.354 39.5932 40.3588 41.4603 41.4252 42.1783C42.2307 42.7211 42.8421 42.6023 42.8421 42.6023L45.6917 42.5634C45.6917 42.5634 47.1817 42.4733 46.4753 41.3231C46.4169 41.2288 46.0631 40.4719 44.3572 38.9172C42.5698 37.2897 42.8098 37.5529 44.9613 34.7374C46.2718 33.0229 46.7956 31.9761 46.6318 31.5285C46.4763 31.1004 45.5122 31.2141 45.5122 31.2141L42.3048 31.2336C42.3048 31.2336 42.0669 31.2018 41.8905 31.3053C41.7184 31.4067 41.6067 31.6432 41.6067 31.6432C41.6067 31.6432 41.0996 32.9696 40.4224 34.0983C38.994 36.4785 38.4233 36.6045 38.1895 36.457C37.6459 36.1119 37.7816 35.0723 37.7816 34.3338C37.7816 32.0263 38.1384 31.0646 37.0877 30.8157C36.7392 30.7327 36.4825 30.6784 35.5904 30.6692C34.4458 30.658 33.4775 30.6733 32.9286 30.9365C32.5635 31.1117 32.2817 31.5029 32.4539 31.5255C32.6657 31.5531 33.1457 31.6525 33.4003 31.9925C33.7289 32.4319 33.7175 33.4172 33.7175 33.4172C33.7175 33.4172 33.9063 36.1334 33.2761 36.4704C32.8441 36.7018 32.2515 36.2297 30.9775 34.0696C30.3253 32.9635 29.8328 31.7405 29.8328 31.7405C29.8328 31.7405 29.7379 31.5121 29.5678 31.3892C29.3623 31.2407 29.0753 31.1946 29.0753 31.1946L26.0275 31.2141C26.0275 31.2141 25.5694 31.2264 25.4015 31.422C25.2523 31.5951 25.39 31.9546 25.39 31.9546C25.39 31.9546 27.7763 37.4352 30.4787 40.1975C32.9568 42.7293 35.7699 42.5634 35.7699 42.5634H37.0449Z" fill="white"/>
</g>
<defs>
<filter id="filter0_d" x="0" y="0" width="80" height="80" filterUnits="userSpaceOnUse" color-interpolation-filters="sRGB">
<feFlood flood-opacity="0" result="BackgroundImageFix"/>
<feColorMatrix in="SourceAlpha" type="matrix" values="0 0 0 0 0 0 0 0 0 0 0 0 0 0 0 0 0 0 127 0"/>
<feOffset dx="4" dy="4"/>
<feGaussianBlur stdDeviation="10"/>
<feColorMatrix type="matrix" values="0 0 0 0 0 0 0 0 0 0 0 0 0 0 0 0 0 0 0.21 0"/>
<feBlend mode="normal" in2="BackgroundImageFix" result="effect1_dropShadow"/>
<feBlend mode="normal" in="SourceGraphic" in2="effect1_dropShadow" result="shape"/>
</filter>
</defs>
</svg>
