<svg width="73" height="109" viewBox="0 0 73 109" fill="none" xmlns="http://www.w3.org/2000/svg">
<g style="mix-blend-mode:screen" opacity="0.33">
<path d="M-8.57816 56.5831C-8.31745 58.5382 -8.05674 60.4932 -8.00507 62.4555C-7.92095 65.6369 -8.42889 68.8292 -9.46724 71.8594C-9.71505 72.6085 -10.782 72.5745 -10.9522 71.8399C-11.2807 70.3476 -11.597 68.8323 -11.8904 67.3292C-12.185 65.884 -12.4446 64.428 -12.599 62.9394C-13.2145 57.4259 -12.4814 51.8014 -11.2301 46.3619C-10.9109 44.976 -10.7004 43.2397 -10.0586 41.9651C-9.64452 44.3527 -9.66301 46.8937 -9.43499 49.3007C-9.17315 51.7547 -8.88713 54.1629 -8.57816 56.5831Z" fill="white"/>
<path d="M-5.10138 55.7163C-5.73628 51.1307 -5.68365 46.4088 -4.3708 41.9105C-4.02022 40.6877 -3.56572 39.4904 -3.11124 38.2931C-2.61927 36.9688 -2.11522 35.6217 -1.6003 34.3096C-1.39621 35.0913 -1.46038 35.9371 -1.45445 36.7612C-1.47416 39.3602 -0.854678 41.9146 -0.397102 44.4424C0.52892 49.5331 0.8834 54.7626 0.599908 59.9787C0.535666 61.3815 0.425514 62.7602 0.164323 64.1473C-0.0206997 65.2226 -0.288053 67.4567 -1.12914 68.2746C-2.30134 69.3872 -2.68031 66.4317 -2.86388 65.778C-3.3071 64.2253 -3.73823 62.6496 -4.11136 61.0752C-4.51467 59.2796 -4.84911 57.5203 -5.10138 55.7163Z" fill="white"/>
<path d="M0.138914 81.3447C3.19543 84.4492 6.7148 87.0645 10.4251 89.4284C8.69637 87.1989 6.93259 84.9802 5.40445 82.5924C4.44891 81.1218 3.58762 79.5835 2.59704 78.1237C1.56176 76.5818 0.350048 75.1522 -0.945045 73.8253C-1.76293 72.9843 -2.66299 72.1879 -3.69478 71.586C-4.42815 71.1412 -6.10392 70.259 -6.97153 70.6817C-6.49092 72.6646 -5.11739 74.6778 -3.96854 76.3382C-2.79918 78.1266 -1.39539 79.8039 0.138914 81.3447Z" fill="white"/>
<path d="M13.6531 81.0712C17.3309 82.773 21.3217 83.936 25.4504 84.0574C23.3385 82.9455 21.2145 81.8565 19.1026 80.7446C17.4727 79.8864 15.8308 79.0513 14.3206 78.0216C12.9589 77.0995 11.7279 76.0408 10.4496 75.016C8.88629 73.7531 7.33382 72.5253 5.69917 71.3421C4.24818 70.2557 2.7271 69.191 1.02472 68.4706C0.495525 68.2506 -1.01955 67.4529 -1.60561 67.7307C-2.55417 68.1402 -1.39317 69.2206 -1.0537 69.6339C1.42285 72.7262 4.3598 75.4453 7.65448 77.7077C9.56581 78.9779 11.5496 80.1103 13.6531 81.0712Z" fill="white"/>
<path d="M12.7724 70.9916C16.0273 72.9398 19.3764 74.8204 22.983 76.0449C27.1888 77.4677 31.6461 77.9674 36.0913 78.49C29.6226 75.4067 23.9962 70.8905 17.8055 67.2793C15.696 66.0513 13.5031 64.9261 11.1011 64.3651C9.79622 64.0592 8.45262 63.9382 7.08242 63.9791C5.79316 64.0333 4.66217 64.2881 5.71319 65.633C7.5108 67.8988 10.3319 69.5014 12.7724 70.9916Z" fill="white"/>
<path d="M7.44839 34.9404C8.15078 40.7343 8.829 46.574 8.40404 52.4486C8.22729 54.7891 7.88864 57.1029 7.53789 59.4397C7.25367 61.3717 6.93319 63.3726 5.84308 64.9976C5.14256 62.9869 5.04862 60.8264 4.84956 58.6986C4.38866 54.1167 3.28735 49.6374 3.30251 45.0423C3.31735 42.6753 3.64635 40.2684 4.25204 37.9486C4.81903 35.8136 5.59757 32.9984 6.99219 31.2406C7.26993 32.3837 7.29995 33.7188 7.44839 34.9404Z" fill="white"/>
<path d="M13.3326 42.1424C13.8488 40.2153 14.4689 38.3135 15.112 36.4239C16.1637 33.3127 17.2842 30.2377 18.4627 27.164C18.5365 26.9683 18.8373 27.0094 18.8325 27.2414C18.6376 29.3378 18.8947 31.4668 19.0478 33.5705C19.5229 40.7985 18.3933 48.1786 15.7654 55.063C15.1635 56.6518 14.4576 58.2152 13.4425 59.5865C13.0001 60.2039 12.4853 60.959 12.1447 60.0467C11.8923 59.3567 11.9492 58.3019 11.8949 57.5697C11.6622 54.2807 11.7787 50.941 12.219 47.6545C12.4899 45.8034 12.8418 43.9657 13.3326 42.1424Z" fill="white"/>
<path d="M28.7475 65.7099C34.6282 66.4018 40.6382 66.4583 46.4293 67.543C42.3614 65.0787 37.8366 63.3707 33.2477 61.9515C27.3213 60.1213 21.1182 58.7611 14.8652 59.2218C13.982 59.2845 11.6222 59.4787 13.0019 60.6449C13.9829 61.4546 15.2817 62.0504 16.4428 62.5738C18.8676 63.7039 21.4859 64.4667 24.1441 64.9866C25.635 65.2732 27.1852 65.503 28.7475 65.7099Z" fill="white"/>
<path d="M32.1594 59.6194C38.8108 61.1863 45.5431 62.7666 52.434 62.8763C50.2423 61.6931 48.0736 60.5219 45.8698 59.3616C44.4816 58.6014 43.0584 57.8521 41.6097 57.2067C37.6661 55.4529 33.3466 54.4687 28.963 54.3303C26.7482 54.249 24.5286 54.3998 22.3161 54.7595C21.5126 54.8935 20.2789 55.0649 21.1053 56.057C21.7395 56.8014 23.2413 57.123 24.1282 57.4434C26.744 58.3222 29.4456 58.9823 32.1594 59.6194Z" fill="white"/>
<path d="M59.041 57.677C53.6125 55.3466 48.184 53.0163 42.4727 51.4459C39.5995 50.6661 36.6525 50.0821 33.6596 50.0309C32.1287 49.9872 30.5942 50.1175 29.091 50.4109C28.7648 50.4737 27.3692 50.6184 27.3474 51.1054C27.3509 51.4884 28.8999 51.7762 29.2455 51.8995C35.4014 53.8506 41.6794 55.5141 48.0868 56.542C51.7418 57.1177 55.3775 57.5073 59.041 57.677Z" fill="white"/>
<path d="M61.8652 46.468C56.7096 45.5127 51.5419 44.5804 46.2786 44.3307C43.647 44.2059 40.9646 44.2889 38.3776 44.8032C37.0605 45.0773 35.741 45.4674 34.4879 46.0098C34.2305 46.1088 33.027 46.5013 33.1224 46.9327C33.2082 47.271 34.5904 47.2072 34.9263 47.2374C40.6487 47.7288 46.4001 47.9423 52.1516 47.5988C55.4165 47.412 58.662 47.0391 61.8652 46.468Z" fill="white"/>
<path d="M20.2527 52.4418C20.138 51.2673 20.0125 50.0578 19.8979 48.8833C19.7519 47.5457 19.641 46.1972 19.588 44.85C19.4246 38.2551 21.6838 31.7923 24.0312 25.5519C24.5782 28.244 24.4038 31.0255 24.4276 33.7646C24.4306 37.4898 24.7709 41.1872 24.5649 44.9196C24.4316 47.4002 24.0422 49.9218 23.2033 52.2948C22.9313 53.0898 22.4864 54.9372 21.4726 55.1364C20.2728 55.3549 20.3407 53.2211 20.2527 52.4418Z" fill="white"/>
<path d="M27.1107 49.6612C25.9497 39.7265 26.9891 29.455 30.1744 19.7855C30.6788 23.9505 30.822 28.1892 30.7453 32.4001C30.671 36.495 30.3997 40.5741 29.6186 44.6194C29.3441 46.0874 28.9995 47.5772 28.5861 49.0307C28.4857 49.3883 28.2572 50.8805 27.9067 50.9892C27.2989 51.1969 27.1493 50.0333 27.1107 49.6612Z" fill="white"/>
<path d="M33.0965 45.4235C34.8171 36.9767 38.4347 28.8249 43.5613 21.7607C42.837 25.3082 41.8119 28.8145 40.626 32.2362C39.4656 35.554 38.1433 38.8451 36.4536 41.943C35.8264 43.0787 35.1532 44.1902 34.4341 45.2775C34.2661 45.5409 33.6847 46.7008 33.3827 46.7177C32.8486 46.7297 33.0433 45.7474 33.0965 45.4235Z" fill="white"/>
<path d="M41.6875 40.2424C39.8894 41.8758 37.91 43.2964 36.0104 44.7884C33.9935 46.3359 32.0117 47.8726 30.0069 49.3971C26.0095 52.4233 22.0024 55.3565 17.7017 57.9005C9.42905 62.8098 1.01989 67.5886 -7.56562 71.9227C-12.5502 74.4291 -17.6688 76.6891 -22.8974 78.6566C-23.5523 78.8982 -23.8687 77.94 -23.2367 77.6863C-14.1692 74.1631 -5.48826 69.7033 3.01273 64.9729C11.4787 60.2533 19.9325 55.5567 27.7027 49.7085C29.8839 48.0716 32.0651 46.4347 34.2463 44.7978C36.5217 43.0932 38.7766 41.2606 41.2103 39.7566C41.5523 39.4969 42.0187 39.9476 41.6875 40.2424Z" fill="white"/>
<path d="M53.8307 22.9161C53.2877 26.6762 51.07 30.0531 48.514 32.9586C47.337 34.3033 46.0693 35.5416 44.8355 36.827C44.2071 37.4637 43.5787 38.1004 42.9732 38.7492C42.4149 39.3641 41.8517 40.211 41.1919 40.6846C40.5891 40.1033 41.9548 37.5093 42.2364 36.8073C42.7985 35.4614 43.4523 34.1638 44.221 32.9266C45.7595 30.3943 47.6774 28.0323 49.855 26.0124C51.0744 24.8659 52.4073 23.8378 53.8307 22.9161Z" fill="white"/>
<path d="M62.5488 37.0942C58.9773 35.8589 54.9754 36.3319 51.2296 37.321C49.5258 37.7726 47.8196 38.3403 46.1255 38.885C45.2845 39.1458 44.4314 39.4297 43.5675 39.6784C42.7736 39.9055 41.7501 40.0117 41.0457 40.4031C41.2957 41.209 44.198 41.1539 44.9628 41.2047C46.3995 41.3161 47.8506 41.2885 49.303 41.2029C52.2669 40.975 55.1935 40.3169 58.0126 39.2504C59.5798 38.6682 61.1036 37.9459 62.5488 37.0942Z" fill="white"/>
</g>
</svg>
