<svg width="101" height="164" viewBox="0 0 101 164" fill="none" xmlns="http://www.w3.org/2000/svg">
<g opacity="0.52">
<path d="M-16.9426 71.5764C-18.7844 78.7895 -19.5689 86.3696 -18.3283 93.863C-18.0009 95.8985 -17.5054 97.9158 -17.0098 99.933C-16.4785 102.162 -15.9324 104.43 -15.3627 106.644C-14.8978 105.435 -14.8435 104.065 -14.6828 102.746C-14.2364 98.5758 -12.7919 94.6151 -11.6072 90.6621C-9.21429 82.7022 -7.69564 74.3964 -7.18383 65.9745C-7.0273 63.7121 -6.94748 61.4785 -7.1039 59.1989C-7.19767 57.4353 -7.20821 53.7967 -8.38213 52.3042C-10.0232 50.2678 -11.1627 54.9234 -11.5718 55.9316C-12.5548 58.3247 -13.523 60.7573 -14.3996 63.2004C-15.3644 65.9915 -16.214 68.7393 -16.9426 71.5764Z" fill="#F9F2F2"/>
<path d="M-3.98389 31.6284C1.39838 27.3117 7.41945 23.8792 13.695 20.8907C10.5638 24.0914 7.37948 27.267 4.53506 30.7646C2.76058 32.9157 1.12206 35.1955 -0.705593 37.3215C-2.61871 39.5697 -4.78894 41.5996 -7.07159 43.447C-8.51373 44.6187 -10.077 45.701 -11.812 46.4431C-13.0482 46.9977 -15.8485 48.0503 -17.1368 47.1854C-16.0159 44.1109 -13.4837 41.1803 -11.3701 38.7669C-9.20057 36.1526 -6.68243 33.767 -3.98389 31.6284Z" fill="#F9F2F2"/>
<path d="M17.2412 34.983C23.3438 33.0488 29.8404 32.0459 36.3627 32.7421C32.8335 34.0687 29.2896 35.3559 25.7604 36.6825C23.0369 37.7062 20.2985 38.6906 17.7317 40.0152C15.4187 41.1994 13.2861 42.6306 11.0855 43.9974C8.39229 45.6844 5.72262 47.3174 2.93181 48.8612C0.447873 50.2895 -2.1424 51.6679 -4.95485 52.4553C-5.8284 52.6937 -8.36017 53.6454 -9.2318 53.0736C-10.6499 52.2126 -8.62368 50.7314 -8.01332 50.1422C-3.54637 45.7199 1.57686 41.9953 7.17937 39.0799C10.4218 37.4564 13.753 36.0693 17.2412 34.983Z" fill="#F9F2F2"/>
<path d="M14.0053 50.9485C19.4874 48.5281 25.1055 46.2364 31.0084 45.0519C37.8911 43.6789 45.0003 43.8398 52.0945 43.9613C41.3442 47.5076 31.6568 53.5324 21.2471 57.9849C17.7005 59.498 14.0415 60.8284 10.1569 61.2093C8.04632 61.418 5.90881 61.3221 3.75914 60.9609C1.73937 60.5958 0.00560154 59.9434 1.90731 58.0144C5.15355 54.7705 9.88934 52.8105 14.0053 50.9485Z" fill="#F9F2F2"/>
<path d="M-0.998621 107.585C1.17141 98.45 3.31182 89.2359 3.72187 79.728C3.87351 75.9384 3.76536 72.1566 3.6424 68.3353C3.54981 65.1773 3.41279 61.9009 1.99506 59.0611C0.522877 62.1328 -0.0218499 65.5754 -0.726087 68.9431C-2.29333 76.1878 -4.84994 83.1299 -5.67012 90.4986C-6.08154 94.2958 -6.00568 98.2247 -5.47823 102.074C-4.97774 105.618 -4.26916 110.299 -2.39644 113.417C-1.74922 111.645 -1.45671 109.511 -0.998621 107.585Z" fill="#F9F2F2"/>
<path d="M9.58556 97.311C10.0443 100.511 10.6712 103.693 11.3366 106.861C12.4208 112.075 13.6201 117.245 14.9109 122.426C14.991 122.756 15.4722 122.755 15.5072 122.382C15.5855 118.98 16.3812 115.623 17.0088 112.284C19.0843 100.801 18.6615 88.7279 15.789 77.126C15.1331 74.4494 14.309 71.7911 12.9627 69.3741C12.3797 68.2891 11.7079 66.9677 11.0041 68.3565C10.4799 69.408 10.3758 71.111 10.1559 72.273C9.18537 77.4946 8.7553 82.8728 8.8448 88.2356C8.93132 91.2611 9.14773 94.2827 9.58556 97.311Z" fill="#F9F2F2"/>
<path d="M38.1843 62.8618C47.5696 63.0215 57.0418 64.2279 66.3583 63.7389C59.5013 66.8111 52.064 68.5724 44.5789 69.857C34.9125 71.5118 24.8968 72.3535 15.1371 70.2659C13.758 69.9748 10.0785 69.1543 12.4648 67.5828C14.158 66.4966 16.3123 65.8218 18.2364 65.2334C22.2615 63.9453 26.5237 63.2875 30.804 63.0277C33.204 62.8901 35.6868 62.8562 38.1843 62.8618Z" fill="#F9F2F2"/>
<path d="M42.4379 73.3604C53.1973 72.2841 64.0866 71.2039 74.9553 72.5149C71.2875 73.9386 67.6581 75.3478 63.9755 76.732C61.6504 77.651 59.272 78.545 56.8728 79.267C50.3421 81.2271 43.361 81.8726 36.4342 81.1485C32.9324 80.8009 29.4656 80.0803 26.0486 79.0263C24.8082 78.6381 22.8974 78.0972 24.3806 76.6853C25.5158 75.629 27.9393 75.4375 29.3943 75.1154C33.674 74.2713 38.0485 73.7961 42.4379 73.3604Z" fill="#F9F2F2"/>
<path d="M84.4023 82.2749C75.428 84.8388 66.4536 87.4027 57.1735 88.6875C52.5069 89.3174 47.7601 89.6176 43.0388 89.0538C40.6206 88.7936 38.2287 88.2537 35.9161 87.459C35.414 87.288 33.2434 86.7548 33.2985 85.9696C33.3745 85.3564 35.866 85.2293 36.4327 85.1063C46.4826 83.3073 56.672 81.9955 66.9482 81.7304C72.8082 81.5964 78.6036 81.7564 84.4023 82.2749Z" fill="#F9F2F2"/>
<path d="M86.7891 100.851C78.4969 101.269 70.1898 101.649 61.8578 100.913C57.6918 100.546 53.484 99.8337 49.5056 98.451C47.4824 97.7275 45.4767 96.8175 43.6036 95.6778C43.2165 95.4635 41.3939 94.5747 41.6233 93.9038C41.8205 93.38 43.9849 93.7806 44.5193 93.8046C53.6186 94.2517 62.7125 95.1506 71.7042 96.9423C76.8099 97.9462 81.8509 99.2442 86.7891 100.851Z" fill="#F9F2F2"/>
<path d="M22.3736 82.2962C21.9774 84.154 21.5577 86.0656 21.1615 87.9234C20.686 90.0359 20.2636 92.1734 19.9327 94.3214C18.4641 104.857 20.8338 115.703 23.3831 126.213C24.7388 122.015 24.9751 117.519 25.5157 113.134C26.2048 107.164 27.4195 101.311 27.7809 95.2838C28.0267 91.2789 27.8768 87.153 26.992 83.1685C26.7098 81.8355 26.3487 78.7783 24.7892 78.2402C22.9404 77.6311 22.6554 81.066 22.3736 82.2962Z" fill="#F9F2F2"/>
<path d="M32.6616 88.2322C29.009 103.906 28.7587 120.594 31.9972 136.78C33.5565 130.213 34.5604 123.45 35.2131 116.684C35.8483 110.104 36.1705 103.507 35.6838 96.8547C35.5213 94.4424 35.2525 91.9802 34.8686 89.5612C34.7763 88.9663 34.6905 86.5251 34.1588 86.2753C33.2401 85.8112 32.7907 87.644 32.6616 88.2322Z" fill="#F9F2F2"/>
<path d="M41.3028 96.3164C42.4601 110.227 46.658 124.074 53.4315 136.503C52.9428 130.661 51.973 124.819 50.7346 119.079C49.5171 113.51 48.0398 107.95 45.9487 102.62C45.1698 100.664 44.3142 98.7371 43.3818 96.8391C43.1657 96.3806 42.4635 94.3961 41.991 94.3038C41.1524 94.1694 41.2785 95.7859 41.3028 96.3164Z" fill="#F9F2F2"/>
<path d="M53.8785 106.475C51.3476 103.469 48.4923 100.765 45.7756 97.9634C42.8847 95.0477 40.0469 92.157 37.1707 89.2808C31.4332 83.5676 25.6634 78.0015 19.36 72.9958C7.23776 63.3418 -5.12337 53.8675 -17.8438 45.0679C-25.2308 39.9748 -32.8742 35.2479 -40.7443 30.966C-41.731 30.4375 -42.4052 31.9051 -41.4569 32.448C-27.8286 40.0519 -14.981 49.0735 -2.46641 58.4901C9.995 67.8817 22.4416 77.2339 33.6002 88.2844C36.7335 91.3788 39.8668 94.4732 43.0001 97.5677C46.2693 100.791 49.4827 104.215 53.038 107.151C53.5287 107.641 54.3456 107.019 53.8785 106.475Z" fill="#F9F2F2"/>
<path d="M69.8118 136.867C69.6475 130.723 66.7763 124.832 63.2861 119.623C61.68 117.214 59.9117 114.956 58.2053 112.629C57.3329 111.473 56.4605 110.317 55.6265 109.146C54.8605 108.04 54.1294 106.561 53.1777 105.66C52.1218 106.461 53.7955 110.914 54.1099 112.1C54.7475 114.378 55.5386 116.599 56.5215 118.748C58.4785 123.139 61.0641 127.339 64.1214 131.047C65.8304 133.147 67.74 135.083 69.8118 136.867Z" fill="#F9F2F2"/>
<path d="M86.1436 116.022C80.2938 117.232 74.0803 115.61 68.3648 113.216C65.7654 112.125 63.1836 110.847 60.6165 109.608C59.3404 109.009 58.0495 108.37 56.735 107.784C55.5269 107.249 53.9352 106.858 52.8979 106.079C53.4396 104.841 57.9987 105.556 59.2121 105.639C61.4944 105.771 63.7739 106.128 66.0447 106.578C70.6692 107.583 75.1557 109.27 79.398 111.588C81.7585 112.859 84.0247 114.345 86.1436 116.022Z" fill="#F9F2F2"/>
</g>
</svg>
