<svg width="80" height="156" viewBox="0 0 80 156" fill="none" xmlns="http://www.w3.org/2000/svg">
<g opacity="0.52">
<path d="M89.1592 139.118C82.3592 142.395 75.0903 144.603 67.6568 146.289C71.7797 143.664 75.9535 141.076 79.8417 138.075C82.2599 136.235 84.5639 134.229 87.0328 132.427C89.6227 130.518 92.4347 128.894 95.3227 127.487C97.1484 126.594 99.0819 125.821 101.117 125.442C102.573 125.146 105.822 124.686 106.99 125.883C105.047 128.836 101.63 131.317 98.7852 133.353C95.8325 135.587 92.5624 137.502 89.1592 139.118Z" fill="#F9F2F2"/>
<path d="M67.2779 130.772C60.2846 131.397 53.0957 130.961 46.2908 128.746C50.3853 128.167 54.4862 127.632 58.5808 127.053C61.7407 126.606 64.9069 126.204 67.972 125.408C70.7319 124.699 73.3586 123.692 76.0425 122.768C79.3306 121.622 82.5804 120.527 85.9382 119.553C88.9399 118.629 92.0432 117.782 95.2409 117.602C96.2326 117.553 99.17 117.137 99.9635 117.933C101.271 119.155 98.7461 120.239 97.9508 120.714C92.1038 124.31 85.7242 127.028 79.028 128.792C75.1681 129.747 71.2704 130.434 67.2779 130.772Z" fill="#F9F2F2"/>
<path d="M74.6047 114.845C68.1571 116.12 61.5954 117.23 54.9972 117.119C47.3058 116.98 39.7438 115.19 32.188 113.444C44.541 112.196 56.3576 108.119 68.5658 105.848C72.7243 105.079 76.9586 104.525 81.2043 105.014C83.5114 105.278 85.7736 105.866 87.9845 106.734C90.0556 107.576 91.7513 108.653 89.2509 110.232C84.9944 112.877 79.4563 113.841 74.6047 114.845Z" fill="#F9F2F2"/>
<path d="M90.5581 67.4655C90.8426 64.0206 90.9429 60.5563 90.9987 57.0983C91.1021 51.4091 91.072 45.7389 90.9466 40.0367C90.9407 39.6743 90.426 39.5655 90.2983 39.9467C89.3907 43.4798 87.7268 46.802 86.2473 50.1436C81.2473 61.655 78.7756 74.3522 79.0372 87.117C79.0902 90.0602 79.3276 93.0228 80.1817 95.8528C80.5422 97.1183 80.9405 98.6508 82.0294 97.362C82.8444 96.3842 83.3682 94.6305 83.8847 93.4679C86.1869 88.2396 87.9492 82.7244 89.1523 77.1067C89.7924 73.9293 90.2928 70.7262 90.5581 67.4655Z" fill="#F9F2F2"/>
<path d="M51.6383 96.8926C41.6424 94.5836 31.807 91.1625 21.7274 89.5463C29.8028 87.905 38.1812 87.7643 46.4954 88.132C57.2313 88.6113 68.1438 90.0189 78.0732 94.4255C79.4771 95.0441 83.2125 96.7403 80.2805 97.8359C78.2071 98.583 75.7404 98.7957 73.5407 98.9705C68.9251 99.3963 64.2088 99.1099 59.5694 98.404C56.97 97.9999 54.3073 97.4685 51.6383 96.8926Z" fill="#F9F2F2"/>
<path d="M49.6336 84.9651C37.8691 83.6326 25.9648 82.2744 14.6616 78.4253C18.9279 77.7766 23.1497 77.1342 27.4223 76.53C30.1309 76.1016 32.8903 75.7114 35.6303 75.5055C43.0876 74.9503 50.708 75.8701 57.9387 78.2069C61.5986 79.3691 65.1307 80.9124 68.5289 82.7925C69.7612 83.4808 71.6731 84.4815 69.7454 85.6166C68.2758 86.46 65.6383 86.1066 64.0046 86.1106C59.2244 86.0149 54.4321 85.5122 49.6336 84.9651Z" fill="#F9F2F2"/>
<path d="M6.92383 66.0828C17.14 65.4552 27.3562 64.8277 37.5895 65.605C42.7316 66.0128 47.8794 66.7829 52.7908 68.449C55.3133 69.2726 57.74 70.3821 60.0202 71.7393C60.5156 72.0324 62.7072 73.0844 62.4581 73.8914C62.2284 74.514 59.5337 74.0779 58.8981 74.077C47.7171 73.6607 36.5051 72.704 25.4537 70.6351C19.1558 69.4374 12.9982 67.9476 6.92383 66.0828Z" fill="#F9F2F2"/>
<path d="M8.87109 46.1501C17.8384 47.6059 26.812 49.1061 35.5424 51.7756C39.9076 53.1103 44.2342 54.8137 48.1529 57.1649C50.1409 58.3819 52.065 59.7894 53.7917 61.4065C54.1536 61.7185 55.8871 63.0622 55.4794 63.7101C55.1417 64.2118 52.9245 63.2996 52.359 63.1526C42.7385 60.609 33.233 57.5951 24.0531 53.6727C18.8373 51.4595 13.7618 48.9541 8.87109 46.1501Z" fill="#F9F2F2"/>
<path d="M73.2484 80.2191C74.1219 78.3706 75.0336 76.4712 75.9071 74.6226C76.9271 72.5263 77.8964 70.3918 78.7703 68.2254C82.8919 57.5646 82.985 45.703 82.8043 34.1526C80.3385 38.2237 78.997 42.8623 77.357 47.316C75.1744 53.39 72.4581 59.2216 70.6122 65.4296C69.3795 69.5534 68.5406 73.8939 68.5217 78.2546C68.5006 79.7102 68.1463 82.9835 69.6833 83.901C71.5126 84.9588 72.6491 81.4388 73.2484 80.2191Z" fill="#F9F2F2"/>
<path d="M63.6877 71.6746C71.3887 56.1496 75.6978 38.789 76.155 21.156C72.8975 27.6544 70.1862 34.484 67.8498 41.3969C65.5773 48.1191 63.6352 54.9308 62.5445 61.9853C62.134 64.5401 61.8252 67.1714 61.6499 69.7837C61.6044 70.4257 61.105 72.9931 61.613 73.3752C62.4829 74.0694 63.4072 72.259 63.6877 71.6746Z" fill="#F9F2F2"/>
<path d="M56.4053 61.264C58.5367 46.4812 57.4016 31.0708 53.1695 16.5523C52.2771 22.7616 51.8995 29.0797 51.8334 35.3537C51.7866 41.4434 52.0194 47.5843 52.9644 53.6246C53.3236 55.8436 53.7718 58.0501 54.309 60.2439C54.429 60.7717 54.6992 63.0033 55.182 63.2074C56.0461 63.5392 56.3028 61.8232 56.4053 61.264Z" fill="#F9F2F2"/>
<path d="M45.4203 47.7911C47.3984 51.5063 49.7963 54.9805 52.0225 58.5243C54.4074 62.2274 56.7415 65.8922 59.1201 69.5507C63.8709 76.8232 68.692 83.9496 74.2193 90.613C84.8423 103.456 95.7642 116.166 107.234 128.254C113.898 135.256 120.926 141.934 128.304 148.199C129.231 148.976 130.307 147.598 129.424 146.815C116.695 135.768 105.143 123.42 94.0429 110.735C82.9937 98.0882 71.9508 85.4862 62.6963 71.4056C60.0956 67.4607 57.4949 63.5158 54.8943 59.5709C52.1794 55.4606 49.5729 51.1534 46.4826 47.2777C46.0767 46.6542 45.0526 47.1168 45.4203 47.7911Z" fill="#F9F2F2"/>
<path d="M35.7447 12.4339C34.4325 18.8841 36.0756 25.6882 38.5459 31.9213C39.6796 34.8025 41.0233 37.5633 42.2843 40.3811C42.9371 41.7869 43.5899 43.1926 44.1981 44.6047C44.7493 45.934 45.1727 47.6446 45.972 48.8027C47.2951 48.207 46.5839 43.1778 46.5349 41.8683C46.405 39.3444 46.0971 36.8458 45.5666 34.3786C44.5376 29.349 42.7902 24.3755 40.4192 19.808C39.1007 17.2253 37.5277 14.7693 35.7447 12.4339Z" fill="#F9F2F2"/>
<path d="M13.2354 30.4617C19.7827 30.5345 26.0333 33.6455 31.5647 37.4483C34.0795 39.1809 36.5305 41.1041 38.9752 42.9829C40.1944 43.9 41.4199 44.8616 42.6836 45.7724C43.8457 46.6068 45.4528 47.3782 46.3731 48.4284C45.4942 49.5968 40.7927 47.8102 39.5155 47.4461C37.1072 46.7879 34.7565 45.8946 32.4377 44.906C27.7367 42.8016 23.3481 40.0175 19.3736 36.6301C17.1577 34.7644 15.0947 32.6955 13.2354 30.4617Z" fill="#F9F2F2"/>
</g>
</svg>
