<svg width="20" height="20" viewBox="0 0 20 20" fill="none" xmlns="http://www.w3.org/2000/svg">
<path d="M2.00851 5.97579C2.44449 5.55327 2.88047 5.13074 3.31841 4.70632C4.00856 4.03747 4.69675 3.37052 5.38689 2.70168C5.54525 2.5482 5.70361 2.39473 5.86198 2.24126C5.40058 2.24126 4.94113 2.24126 4.47973 2.24126C4.91572 2.66378 5.3517 3.08631 5.78964 3.51073C6.47978 4.17958 7.16797 4.84653 7.85812 5.51537C8.01648 5.66884 8.17484 5.82232 8.3332 5.97579C8.51111 6.14821 8.77309 6.25243 9.0253 6.25243C9.26577 6.25243 9.55122 6.15011 9.7174 5.97579C9.88749 5.79579 10.0146 5.55895 10.0028 5.30505C9.99111 5.05305 9.90313 4.81621 9.7174 4.63432C9.28142 4.21179 8.84543 3.78926 8.40749 3.36484C7.71735 2.69599 7.02916 2.02905 6.33902 1.3602C6.18065 1.20673 6.02229 1.05325 5.86393 0.899779C5.49051 0.537884 4.85511 0.537884 4.48169 0.899779C4.0457 1.32231 3.60972 1.74483 3.17178 2.16926C2.48164 2.8381 1.79149 3.50505 1.10135 4.17389C0.942986 4.32737 0.784624 4.48084 0.626262 4.63432C0.44835 4.80674 0.34082 5.06063 0.34082 5.30505C0.34082 5.53811 0.446395 5.81474 0.626262 5.97579C0.811995 6.14064 1.05638 6.26379 1.31836 6.25243C1.57643 6.24106 1.82082 6.15579 2.00851 5.97579Z" fill="url(#paint0_linear)"/>
<path d="M4.19381 1.57054C4.19381 1.69369 4.19381 1.81685 4.19381 1.94001C4.19381 2.27727 4.19381 2.61454 4.19381 2.9518C4.19381 3.44822 4.19381 3.94465 4.19381 4.44107C4.19381 5.04928 4.19381 5.65749 4.19381 6.2676C4.19381 6.93076 4.19381 7.59392 4.19381 8.25897C4.19381 8.92971 4.19381 9.59856 4.19381 10.2693C4.19381 10.8946 4.19381 11.5179 4.19381 12.1432C4.19381 12.6737 4.19381 13.2042 4.19381 13.7348C4.19381 14.1137 4.19381 14.4946 4.19381 14.8735C4.19381 15.0535 4.19186 15.2354 4.19381 15.4154C4.19381 15.423 4.19381 15.4306 4.19381 15.4381C4.19381 15.6807 4.3033 15.9365 4.47926 16.1089C4.64935 16.2737 4.92697 16.3969 5.17136 16.3855C5.42356 16.3742 5.68555 16.2946 5.86346 16.1089C6.03942 15.9232 6.1489 15.6958 6.1489 15.4381C6.1489 15.315 6.1489 15.1918 6.1489 15.0687C6.1489 14.7314 6.1489 14.3941 6.1489 14.0569C6.1489 13.5605 6.1489 13.064 6.1489 12.5676C6.1489 11.9594 6.1489 11.3512 6.1489 10.7411C6.1489 10.0779 6.1489 9.41477 6.1489 8.74971C6.1489 8.07897 6.1489 7.41013 6.1489 6.73939C6.1489 6.11413 6.1489 5.49076 6.1489 4.86549C6.1489 4.33496 6.1489 3.80444 6.1489 3.27391C6.1489 2.89496 6.1489 2.51412 6.1489 2.13517C6.1489 1.95517 6.15086 1.77327 6.1489 1.59327C6.1489 1.58569 6.1489 1.57811 6.1489 1.57054C6.1489 1.32801 6.03989 1.0722 5.86393 0.899779C5.69384 0.734937 5.41574 0.611796 5.17136 0.623164C4.91915 0.634533 4.65717 0.714112 4.47926 0.899797C4.3033 1.08548 4.19381 1.31474 4.19381 1.57054Z" fill="url(#paint1_linear)"/>
<path d="M10.5713 15.4041C11.0073 15.8266 11.4433 16.2491 11.8812 16.6736C12.5714 17.3424 13.2595 18.0094 13.9497 18.6782C14.108 18.8317 14.2664 18.9851 14.4248 19.1386C14.7982 19.5005 15.4336 19.5005 15.807 19.1386C16.243 18.7161 16.679 18.2936 17.1169 17.8691C17.8071 17.2003 18.4953 16.5334 19.1854 15.8645C19.3438 15.711 19.5021 15.5576 19.6605 15.4041C19.8384 15.2317 19.9459 14.9778 19.9459 14.7333C19.9459 14.5003 19.8403 14.2237 19.6605 14.0626C19.4747 13.8978 19.2304 13.7746 18.9684 13.786C18.7084 13.7973 18.464 13.8826 18.2763 14.0626C17.8403 14.4851 17.4043 14.9077 16.9664 15.3321C16.2762 16.0009 15.588 16.6679 14.8979 17.3367C14.7395 17.4902 14.5812 17.6437 14.4228 17.7971C14.8842 17.7971 15.3437 17.7971 15.8051 17.7971C15.3691 17.3746 14.9331 16.9521 14.4952 16.5277C13.805 15.8588 13.1168 15.1919 12.4267 14.523C12.2683 14.3696 12.11 14.2161 11.9516 14.0626C11.7737 13.8902 11.5117 13.786 11.2595 13.786C11.019 13.786 10.7336 13.8883 10.5674 14.0626C10.3973 14.2426 10.2702 14.4795 10.2819 14.7333C10.2956 14.9853 10.3836 15.2222 10.5713 15.4041Z" fill="url(#paint2_linear)"/>
<path d="M16.0931 18.4679C16.0931 18.3447 16.0931 18.2216 16.0931 18.0984C16.0931 17.7611 16.0931 17.4239 16.0931 17.0866C16.0931 16.5902 16.0931 16.0938 16.0931 15.5974C16.0931 14.9891 16.0931 14.3809 16.0931 13.7708C16.0931 13.1077 16.0931 12.4445 16.0931 11.7794C16.0931 11.1087 16.0931 10.4399 16.0931 9.76913C16.0931 9.14386 16.0931 8.52049 16.0931 7.89523C16.0931 7.3647 16.0931 6.83417 16.0931 6.30364C16.0931 5.9247 16.0931 5.54385 16.0931 5.1649C16.0931 4.9849 16.0951 4.80301 16.0931 4.62301C16.0931 4.61543 16.0931 4.60785 16.0931 4.60027C16.0931 4.35774 15.9836 4.10195 15.8077 3.92953C15.6376 3.76469 15.3599 3.64153 15.1156 3.6529C14.8634 3.66427 14.6014 3.74385 14.4235 3.92953C14.2475 4.11522 14.138 4.34259 14.138 4.60027C14.138 4.72343 14.138 4.84659 14.138 4.96975C14.138 5.30701 14.138 5.64427 14.138 5.98154C14.138 6.47796 14.138 6.97438 14.138 7.47081C14.138 8.07902 14.138 8.68723 14.138 9.29734C14.138 9.9605 14.138 10.6237 14.138 11.2887C14.138 11.9594 14.138 12.6283 14.138 13.299C14.138 13.9243 14.138 14.5477 14.138 15.1729C14.138 15.7035 14.138 16.234 14.138 16.7645C14.138 17.1435 14.138 17.5243 14.138 17.9033C14.138 18.0833 14.1361 18.2651 14.138 18.4451C14.138 18.4527 14.138 18.4603 14.138 18.4679C14.138 18.7104 14.2475 18.9662 14.4235 19.1386C14.5935 19.3035 14.8712 19.4266 15.1156 19.4153C15.3678 19.4039 15.6298 19.3243 15.8077 19.1386C15.9836 18.9529 16.0931 18.7237 16.0931 18.4679Z" fill="url(#paint3_linear)"/>
<defs>
<linearGradient id="paint0_linear" x1="19.4144" y1="7.94848" x2="0.589588" y2="8.06553" gradientUnits="userSpaceOnUse">
<stop offset="0.4375" stop-color="#12CAD6"/>
<stop offset="1" stop-color="#12B3D6"/>
</linearGradient>
<linearGradient id="paint1_linear" x1="19.4144" y1="7.94848" x2="0.589588" y2="8.06553" gradientUnits="userSpaceOnUse">
<stop offset="0.4375" stop-color="#12CAD6"/>
<stop offset="1" stop-color="#12B3D6"/>
</linearGradient>
<linearGradient id="paint2_linear" x1="19.4144" y1="7.94848" x2="0.589588" y2="8.06553" gradientUnits="userSpaceOnUse">
<stop offset="0.4375" stop-color="#12CAD6"/>
<stop offset="1" stop-color="#12B3D6"/>
</linearGradient>
<linearGradient id="paint3_linear" x1="19.4144" y1="7.94848" x2="0.589588" y2="8.06553" gradientUnits="userSpaceOnUse">
<stop offset="0.4375" stop-color="#12CAD6"/>
<stop offset="1" stop-color="#12B3D6"/>
</linearGradient>
</defs>
</svg>
