<svg width="193" height="117" viewBox="0 0 193 117" fill="none" xmlns="http://www.w3.org/2000/svg">
<path d="M38.737 12.2467C39.0997 8.55142 39.4624 4.85614 39.4314 1.16095C39.3816 -4.8301 38.2173 -10.8028 36.0657 -16.436C35.5505 -17.8291 33.5454 -17.6954 33.2731 -16.3021C32.7527 -13.4731 32.2566 -10.6016 31.8028 -7.75439C31.343 -5.01622 30.9499 -2.25988 30.7566 0.550935C29.9592 10.9643 31.706 21.4983 34.4159 31.6504C35.107 34.2369 35.6165 37.4898 36.9073 39.8459C37.5303 35.3268 37.3294 30.5473 37.6011 26.004C37.9333 21.3698 38.3139 16.8203 38.737 12.2467Z" fill="#F9F2F2"/>
<path d="M45.333 13.6505C44.4383 22.3192 44.846 31.1997 47.6101 39.577C48.3496 41.8545 49.2829 44.0775 50.2163 46.3005C51.2284 48.7597 52.2648 51.2613 53.3194 53.6963C53.6522 52.2121 53.4762 50.625 53.4335 49.0742C53.2265 44.1857 54.225 39.3393 54.9207 34.5536C56.3301 24.9155 56.6551 15.0535 55.7808 5.25838C55.5682 2.62332 55.2708 0.0367447 54.6888 -2.55583C54.2704 -4.5669 53.6213 -8.75263 51.9854 -10.2364C49.7073 -12.2532 49.1875 -6.66786 48.8849 -5.42597C48.1525 -2.47571 47.4444 0.516937 46.8453 3.50351C46.2039 6.90807 45.6897 10.2399 45.333 13.6505Z" fill="#F9F2F2"/>
<path d="M77.9648 -16.2572C83.9612 -20.1354 90.1392 -23.8925 96.8446 -26.432C104.664 -29.3838 113.018 -30.6152 121.347 -31.8891C109.378 -25.6653 99.0879 -16.8008 87.6767 -9.60183C83.7882 -7.15371 79.7361 -4.89334 75.2536 -3.68086C72.8186 -3.02006 70.2986 -2.70454 67.718 -2.69189C65.2889 -2.70955 63.1444 -3.11497 65.0339 -5.71412C68.2678 -10.0945 73.4706 -13.2941 77.9648 -16.2572Z" fill="#F9F2F2"/>
<path d="M70.3048 51.9186C71.2475 40.9721 72.1418 29.9409 70.9582 18.9161C70.4727 14.5244 69.6843 10.1933 68.8716 5.81979C68.2106 2.20348 67.4768 -1.54002 65.3197 -4.52602C64.1332 -0.697307 64.0977 3.37348 63.8622 7.38978C63.2946 16.0403 61.5154 24.5396 61.8444 33.1839C62.027 37.6363 62.8034 42.143 64.0946 46.468C65.3009 50.4476 66.9496 55.6932 69.6884 58.9093C70.1362 56.7406 70.1054 54.2266 70.3048 51.9186Z" fill="#F9F2F2"/>
<path d="M80.9029 37.9825C82.0001 41.5745 83.2912 45.1119 84.6246 48.6251C86.8066 54.4098 89.1158 60.1217 91.534 65.8276C91.6855 66.191 92.2488 66.0939 92.2245 65.6578C91.7209 61.7264 92.0653 57.7041 92.216 53.7362C92.6372 40.1063 90.0295 26.2953 84.6354 13.5147C83.399 10.5648 81.9688 7.66956 79.9693 5.15603C79.0967 4.02343 78.0787 2.63642 77.4976 4.3751C77.0677 5.68971 77.2438 7.67055 77.1896 9.05171C76.9667 15.2548 77.4042 21.5305 78.4474 27.6849C79.0781 31.1498 79.8603 34.5844 80.9029 37.9825Z" fill="#F9F2F2"/>
<path d="M108.364 -7.36404C119.383 -9.05038 130.686 -9.54947 141.511 -11.9688C134.018 -7.06651 125.617 -3.55734 117.076 -0.587284C106.046 3.24349 94.4645 6.20812 82.67 5.7502C81.0042 5.68997 76.5517 5.47887 79.0712 3.19459C80.864 1.6071 83.2686 0.40112 85.4189 -0.659425C89.9072 -2.94412 94.7833 -4.55042 99.7504 -5.70242C102.537 -6.33906 105.438 -6.87275 108.364 -7.36404Z" fill="#F9F2F2"/>
<path d="M115.182 3.87115C127.594 0.488366 140.157 -2.92474 153.114 -3.58168C149.068 -1.21227 145.064 1.13289 140.994 3.4599C138.432 4.98092 135.803 6.48377 133.12 7.7928C125.815 11.3502 117.753 13.4842 109.514 14.0311C105.353 14.3288 101.167 14.1903 96.9807 13.6581C95.4602 13.4586 93.1279 13.2167 94.6177 11.2961C95.7623 9.85416 98.5669 9.15088 100.214 8.49025C105.078 6.66586 110.118 5.24731 115.182 3.87115Z" fill="#F9F2F2"/>
<path d="M165.887 5.76886C155.826 10.5081 145.765 15.2473 135.122 18.5752C129.768 20.2301 124.261 21.5215 118.634 21.8135C115.757 21.9958 112.861 21.851 110.014 21.3973C109.396 21.3005 106.761 21.1193 106.688 20.2046C106.669 19.4837 109.565 18.841 110.207 18.5865C121.661 14.5133 133.364 10.9732 145.352 8.62027C152.191 7.29826 159.005 6.3276 165.887 5.76886Z" fill="#F9F2F2"/>
<path d="M171.93 26.6725C162.292 28.8069 152.631 30.8988 142.745 31.7126C137.802 32.1195 132.75 32.1387 127.849 31.3401C125.353 30.9105 122.845 30.2629 120.452 29.3245C119.961 29.1549 117.671 28.4951 117.823 27.6773C117.962 27.0352 120.567 27.0649 121.197 26.986C131.93 25.6874 142.737 24.9098 153.581 25.1801C159.735 25.3182 165.866 25.8076 171.93 26.6725Z" fill="#F9F2F2"/>
<path d="M93.2511 18.1541C93.1122 20.3713 92.9552 22.6551 92.8163 24.8722C92.6291 27.3983 92.5085 29.9426 92.4969 32.4808C92.6206 44.899 97.2936 56.9105 102.118 68.4978C102.971 63.3971 102.461 58.1754 102.327 53.0204C102.089 46.0117 102.487 39.0331 101.856 32.0245C101.443 27.3662 100.545 22.6474 98.8121 18.2378C98.2484 16.7598 97.2906 13.3132 95.3702 13.0046C93.0985 12.6719 93.3659 16.6821 93.2511 18.1541Z" fill="#F9F2F2"/>
<path d="M106.334 22.9363C104.8 41.7034 107.427 60.9603 114.052 78.9442C114.728 71.0751 114.721 63.0911 114.301 55.1738C113.894 47.4745 113.117 39.8177 111.382 32.2581C110.77 29.5141 110.024 26.7337 109.151 24.0261C108.939 23.3598 108.412 20.5673 107.745 20.3857C106.588 20.0346 106.383 22.2336 106.334 22.9363Z" fill="#F9F2F2"/>
<path d="M117.868 30.5183C121.657 46.2978 128.996 61.3981 139.103 74.3534C137.509 67.7266 135.351 61.1969 132.896 54.8368C130.496 48.6706 127.793 42.565 124.412 36.8472C123.157 34.7515 121.818 32.7043 120.394 30.7055C120.061 30.221 118.891 28.0768 118.322 28.0648C117.316 28.0771 117.747 29.9125 117.868 30.5183Z" fill="#F9F2F2"/>
<path d="M134.373 39.7043C130.884 36.7489 127.067 34.2055 123.395 31.5227C119.499 28.743 115.67 25.9815 111.799 23.2442C104.08 17.8121 96.3496 12.5556 88.0921 8.05039C72.2069 -0.645151 56.0735 -9.08622 39.6374 -16.6791C30.0956 -21.069 20.3177 -24.9863 10.352 -28.3462C9.10408 -28.7579 8.57138 -26.9344 9.77696 -26.4985C27.0669 -20.4626 43.6908 -12.6395 59.9939 -4.29539C76.2302 4.03056 92.4424 12.3141 107.443 22.809C111.654 25.7461 115.865 28.6832 120.076 31.6203C124.468 34.6785 128.83 37.979 133.507 40.6495C134.168 41.1158 135.016 40.2373 134.373 39.7043Z" fill="#F9F2F2"/>
<path d="M158.349 71.5087C157.082 64.4699 152.689 58.2617 147.69 52.9622C145.388 50.5093 142.922 48.2624 140.516 45.9247C139.292 44.7679 138.069 43.6111 136.887 42.4301C135.796 41.3097 134.681 39.7531 133.409 38.9053C132.313 40.0383 135.052 44.8294 135.628 46.1316C136.773 48.6272 138.088 51.0258 139.615 53.3031C142.675 57.9669 146.438 62.2853 150.667 65.9432C153.036 68.0205 155.611 69.8676 158.349 71.5087Z" fill="#F9F2F2"/>
<path d="M173.828 44.2631C167.189 46.8208 159.629 46.1924 152.517 44.5765C149.282 43.8381 146.035 42.8816 142.812 41.9676C141.213 41.5318 139.589 41.0536 137.948 40.642C136.439 40.2667 134.507 40.1339 133.156 39.4436C133.573 37.9109 139.037 37.8249 140.473 37.6792C143.169 37.3758 145.901 37.3328 148.639 37.3989C154.23 37.634 159.779 38.6808 165.153 40.503C168.139 41.4959 171.053 42.7553 173.828 44.2631Z" fill="#F9F2F2"/>
</svg>
