<svg width="228" height="269" viewBox="0 0 228 269" fill="none" xmlns="http://www.w3.org/2000/svg">
<g opacity="0.86">
<path d="M230.74 173.038C229.991 178.88 229.241 184.722 229.089 190.632C228.841 200.214 230.284 209.958 233.242 219.33C233.948 221.645 236.995 221.777 237.483 219.598C238.425 215.167 239.332 210.665 240.173 206.193C241.018 201.897 241.763 197.561 242.208 193.103C243.978 176.601 241.898 159.467 238.338 142.778C237.43 138.526 236.833 133.24 235.003 129.253C233.815 136.366 233.861 144.038 233.204 151.251C232.451 158.599 231.628 165.803 230.74 173.038Z" fill="#F9F2F2"/>
<path d="M220.807 169.656C222.631 155.958 222.492 141.698 218.754 127.835C217.756 124.068 216.461 120.355 215.165 116.642C213.764 112.538 212.327 108.362 210.86 104.29C210.275 106.604 210.457 109.17 210.438 111.655C210.488 119.502 208.713 127.074 207.4 134.601C204.743 149.759 203.718 165.461 204.515 181.264C204.695 185.511 205.007 189.695 205.749 193.938C206.275 197.224 207.033 204.024 209.433 206.677C212.778 210.293 213.867 201.457 214.393 199.525C215.663 194.937 216.898 190.277 217.967 185.609C219.123 180.279 220.082 175.044 220.807 169.656Z" fill="#F9F2F2"/>
<path d="M205.782 245.839C197.046 254.535 186.989 261.652 176.388 267.97C181.33 261.622 186.372 255.315 190.742 248.446C193.475 244.218 195.938 239.766 198.77 235.579C201.731 231.154 205.194 227.106 208.896 223.387C211.234 221.029 213.806 218.824 216.754 217.235C218.849 216.054 223.637 213.76 226.114 215.227C224.737 221.104 220.809 226.877 217.524 231.635C214.181 236.774 210.168 241.527 205.782 245.839Z" fill="#F9F2F2"/>
<path d="M167.191 242.042C156.684 246.368 145.285 249 133.494 248.458C139.528 245.567 145.596 242.748 151.63 239.857C156.286 237.626 160.977 235.467 165.293 232.692C169.183 230.209 172.702 227.286 176.355 224.474C180.822 221.007 185.259 217.644 189.93 214.433C194.076 211.474 198.422 208.595 203.286 206.796C204.798 206.249 209.126 204.175 210.799 205.142C213.507 206.586 210.189 209.591 209.219 210.763C202.139 219.55 193.745 227.109 184.33 233.211C178.869 236.624 173.201 239.605 167.191 242.042Z" fill="#F9F2F2"/>
<path d="M169.734 211.821C160.434 216.984 150.865 221.922 140.562 224.824C128.548 228.192 115.818 228.719 103.122 229.319C121.603 221.437 137.681 209.047 155.369 199.511C161.396 196.27 167.662 193.357 174.523 192.192C178.25 191.556 182.087 191.487 186 191.911C189.682 192.358 192.911 193.376 189.906 197.203C184.767 203.645 176.707 207.861 169.734 211.821Z" fill="#F9F2F2"/>
<path d="M185.026 104.205C183.006 121.534 181.055 139.006 182.255 156.827C182.754 163.928 183.716 170.985 184.712 178.113C185.519 184.006 186.429 190.114 189.538 195.257C191.544 189.344 191.817 182.845 192.391 176.468C193.718 162.743 196.874 149.469 196.841 135.6C196.805 128.454 195.871 121.119 194.147 113.985C192.533 107.418 190.316 98.752 186.338 93.1408C185.542 96.529 185.453 100.551 185.026 104.205Z" fill="#F9F2F2"/>
<path d="M168.205 124.643C166.735 118.714 164.969 112.839 163.137 106.996C160.141 97.3761 156.948 87.8509 153.59 78.3166C153.38 77.7098 152.521 77.7677 152.534 78.4688C153.085 84.8375 152.346 91.2055 151.904 97.5197C150.53 119.226 153.738 141.744 161.226 163.097C162.941 168.023 164.953 172.896 167.849 177.257C169.111 179.218 170.579 181.609 171.554 178.931C172.277 176.905 172.117 173.709 172.273 171.512C172.946 161.638 172.621 151.535 171.372 141.521C170.602 135.876 169.602 130.253 168.205 124.643Z" fill="#F9F2F2"/>
<path d="M124.123 192.369C107.327 193.164 90.164 192.012 73.623 194.012C85.2461 187.47 98.1721 183.311 111.28 180.038C128.209 175.819 145.927 173.079 163.783 175.844C166.306 176.227 173.044 177.332 169.102 180.548C166.298 182.776 162.587 184.288 159.27 185.612C152.343 188.489 144.864 190.215 137.271 191.199C133.013 191.736 128.585 192.088 124.123 192.369Z" fill="#F9F2F2"/>
<path d="M114.394 173.241C95.3956 176.506 76.1656 179.794 56.4865 178.609C62.7483 175.521 68.9445 172.464 75.2407 169.448C79.207 167.459 83.2733 165.511 87.4119 163.882C98.6782 159.457 111.016 157.437 123.535 157.984C129.86 158.226 136.199 159.169 142.516 160.741C144.811 161.322 148.333 162.11 145.971 164.922C144.158 167.029 139.868 167.669 137.335 168.441C129.863 170.517 122.146 171.915 114.394 173.241Z" fill="#F9F2F2"/>
<path d="M37.6328 161.466C53.1411 155.628 68.6493 149.79 84.9635 146.307C93.1706 144.586 101.588 143.472 110.135 143.976C114.507 144.181 118.889 144.911 123.181 146.127C124.113 146.388 128.098 147.132 128.159 148.606C128.148 149.761 123.724 150.289 122.737 150.585C105.152 155.119 87.2191 158.758 68.9184 160.45C58.4791 161.384 48.0954 161.76 37.6328 161.466Z" fill="#F9F2F2"/>
<path d="M29.5898 127.021C44.3155 125.272 59.0757 123.595 74.1071 123.999C81.6228 124.202 89.283 125.042 96.6697 127.163C100.43 128.28 104.198 129.747 107.775 131.659C108.51 132.015 111.946 133.464 111.672 134.745C111.427 135.747 107.479 135.25 106.52 135.267C90.1768 135.492 73.7514 134.871 57.3271 132.569C48.0039 131.288 38.7363 129.448 29.5898 127.021Z" fill="#F9F2F2"/>
<path d="M148.416 154.199C148.747 150.681 149.108 147.058 149.438 143.54C149.858 139.535 150.178 135.491 150.333 131.437C150.815 111.573 144.379 91.5738 137.69 72.2265C136.122 80.2299 136.613 88.6615 136.538 96.9219C136.521 108.162 135.54 119.244 136.119 130.552C136.494 138.067 137.6 145.762 139.99 153.107C140.765 155.566 142.031 161.238 144.926 162.062C148.352 162.986 148.163 156.532 148.416 154.199Z" fill="#F9F2F2"/>
<path d="M128.838 144.301C132.177 114.578 129.233 83.3544 120.16 53.4757C118.709 65.933 118.29 78.692 118.499 91.4154C118.702 103.788 119.466 116.157 121.688 128.535C122.468 133.026 123.448 137.597 124.626 142.074C124.911 143.175 125.56 147.728 126.561 148.133C128.296 148.894 128.726 145.416 128.838 144.301Z" fill="#F9F2F2"/>
<path d="M111.75 130.196C106.857 104.329 96.5453 78.9347 81.9218 56.4909C83.9817 67.3547 86.9009 78.1606 90.2791 88.7466C93.5851 99.0134 97.3536 109.236 102.171 118.955C103.96 122.52 105.88 126.022 107.931 129.461C108.41 130.293 110.067 133.921 110.93 134.038C112.455 134.192 111.901 131.185 111.75 130.196Z" fill="#F9F2F2"/>
<path d="M87.2331 112.674C92.3644 117.999 98.0137 122.721 103.435 127.641C109.191 132.754 114.847 137.827 120.569 142.868C131.977 152.879 143.414 162.611 155.689 171.234C179.303 187.868 203.306 204.137 227.814 219.104C242.043 227.764 256.655 235.709 271.582 242.796C273.452 243.669 274.358 240.847 272.554 239.943C246.667 227.317 221.887 211.95 197.621 195.806C173.455 179.703 149.324 163.671 127.148 144.315C120.923 138.896 114.698 133.476 108.473 128.057C101.979 122.413 95.5436 116.387 88.597 111.313C87.621 110.454 86.2882 111.712 87.2331 112.674Z" fill="#F9F2F2"/>
<path d="M52.6024 57.7196C54.1442 69.1854 60.4694 79.863 67.7617 89.1928C71.1199 93.5093 74.7372 97.5247 78.2577 101.675C80.0508 103.734 81.8438 105.794 83.5713 107.885C85.1643 109.863 86.7706 112.543 88.6537 114.117C90.3767 112.495 86.4826 104.367 85.68 102.187C84.0782 98.0021 82.214 93.9426 80.0218 90.0403C75.6342 82.0605 70.1628 74.5114 63.9488 67.9372C60.4694 64.2094 56.6654 60.814 52.6024 57.7196Z" fill="#F9F2F2"/>
<path d="M27.668 98.5862C37.8705 95.6439 49.298 97.9515 59.9929 101.76C64.8574 103.498 69.7285 105.586 74.5652 107.602C76.9664 108.574 79.4019 109.618 81.8686 110.559C84.1352 111.419 87.0577 111.964 89.0686 113.3C88.3527 115.677 80.0645 114.872 77.8801 114.858C73.7771 114.878 69.633 114.475 65.4855 113.898C57.0216 112.558 48.6655 109.928 40.6173 106.09C36.143 103.989 31.7932 101.474 27.668 98.5862Z" fill="#F9F2F2"/>
</g>
</svg>
