<svg width="253" height="146" viewBox="0 0 253 146" fill="none" xmlns="http://www.w3.org/2000/svg">
<path d="M197.214 124.25C197.732 128.954 198.25 133.658 199.247 138.302C200.862 145.831 203.829 153.169 207.908 159.93C208.897 161.604 211.301 161.132 211.271 159.338C211.17 155.7 211.028 152.012 210.841 148.362C210.69 144.847 210.453 141.32 209.958 137.754C208.226 124.533 203.367 111.545 197.435 99.1836C195.923 96.0343 194.459 92.0192 192.277 89.2506C192.692 95.0305 194.177 101.013 195.026 106.77C195.824 112.651 196.542 118.432 197.214 124.25Z" fill="#F9F2F2"/>
<path d="M188.819 123.484C187.658 112.442 184.857 101.331 179.32 91.2112C177.829 88.458 176.117 85.8028 174.405 83.1476C172.535 80.2071 170.625 77.217 168.71 74.3134C168.69 76.2311 169.316 78.2011 169.771 80.1456C171.291 86.2643 171.335 92.5127 171.73 98.639C172.517 110.978 174.681 123.434 178.287 135.625C179.23 138.908 180.263 142.117 181.644 145.29C182.675 147.757 184.551 152.924 186.926 154.543C190.221 156.735 189.403 149.63 189.449 148.021C189.574 144.199 189.659 140.326 189.613 136.478C189.509 132.098 189.27 127.828 188.819 123.484Z" fill="#F9F2F2"/>
<path d="M156.891 166.055C150.603 171.843 144.062 177.506 136.564 181.718C127.817 186.616 117.975 189.432 108.173 192.297C121.118 182.653 131.335 169.941 143.349 159.154C147.444 155.485 151.787 152.027 156.925 149.823C159.716 148.622 162.699 147.843 165.835 147.436C168.795 147.09 171.509 147.275 169.885 150.832C167.088 156.833 161.589 161.646 156.891 166.055Z" fill="#F9F2F2"/>
<path d="M148.518 79.1247C150.212 93.039 151.988 107.053 156.289 120.743C158.019 126.195 160.103 131.524 162.226 136.903C163.969 141.353 165.833 145.951 169.232 149.381C169.682 144.384 168.669 139.257 167.913 134.169C166.358 123.2 166.317 112.237 163.673 101.412C162.295 95.8383 160.181 90.2861 157.488 85.0407C154.987 80.2169 151.62 73.8674 147.454 70.2364C147.472 73.0328 148.162 76.1908 148.518 79.1247Z" fill="#F9F2F2"/>
<path d="M139.239 98.2621C136.972 93.9094 134.484 89.6547 131.95 85.437C127.794 78.4901 123.502 71.6541 119.08 64.8422C118.801 64.408 118.141 64.6155 118.284 65.1605C119.917 70.0301 120.542 75.1427 121.388 80.1574C124.413 97.3686 131.17 114.349 141.049 129.61C143.319 133.134 145.81 136.56 148.895 139.419C150.25 140.711 151.849 142.302 152.104 140.027C152.286 138.307 151.558 135.842 151.265 134.096C149.926 126.259 147.765 118.43 144.899 110.845C143.232 106.582 141.39 102.379 139.239 98.2621Z" fill="#F9F2F2"/>
<path d="M117.6 159.475C104.633 163.267 91.0121 165.608 78.4718 170.292C86.3139 162.989 95.6234 157.301 105.242 152.27C117.667 145.779 130.986 140.294 145.453 139.082C147.496 138.906 152.967 138.496 150.495 141.752C148.726 144.021 146.113 145.903 143.773 147.563C138.906 151.117 133.391 153.877 127.647 156.079C124.423 157.302 121.032 158.414 117.6 159.475Z" fill="#F9F2F2"/>
<path d="M106.392 146.374C92.1709 152.511 77.7737 158.709 62.1816 161.499C66.4887 157.905 70.7505 154.348 75.0981 150.803C77.8202 148.501 80.628 146.212 83.5525 144.159C91.5156 138.576 100.77 134.669 110.65 132.733C115.635 131.727 120.763 131.267 125.994 131.302C127.895 131.323 130.795 131.274 129.481 133.916C128.463 135.903 125.234 137.213 123.401 138.294C117.957 141.326 112.195 143.875 106.392 146.374Z" fill="#F9F2F2"/>
<path d="M44.2188 151.671C55.2278 144.183 66.2369 136.696 78.3201 130.896C84.4046 128.003 90.7678 125.544 97.5379 124.324C100.991 123.658 104.551 123.401 108.133 123.541C108.909 123.569 112.162 123.397 112.488 124.537C112.697 125.441 109.342 126.689 108.627 127.106C95.7499 133.966 82.4322 140.194 68.4597 144.971C60.4833 147.671 52.4451 149.925 44.2188 151.671Z" fill="#F9F2F2"/>
<path d="M31.4375 126.288C42.6075 122.142 53.818 118.046 65.6331 115.524C71.5407 114.263 77.6817 113.473 83.8509 113.735C86.9986 113.897 90.2177 114.332 93.3724 115.15C94.0133 115.289 96.9703 115.772 96.9985 116.823C96.9959 117.652 93.8194 118.01 93.0735 118.204C80.3525 121.465 67.4078 124.081 54.1467 125.385C46.6236 126.144 39.0388 126.457 31.4375 126.288Z" fill="#F9F2F2"/>
<path d="M129.365 125.08C128.959 122.27 128.557 119.373 128.151 116.562C127.723 113.356 127.209 110.137 126.565 106.942C123.191 91.3376 114.389 76.9345 105.513 63.088C105.799 69.6344 107.774 76.1263 109.276 82.5914C111.384 91.3728 112.711 100.213 115.298 108.934C117.009 114.732 119.326 120.533 122.579 125.818C123.648 127.592 125.708 131.783 128.124 131.88C130.974 131.954 129.608 126.949 129.365 125.08Z" fill="#F9F2F2"/>
<path d="M112.206 121.046C109.202 97.2035 101.008 73.3751 88.2817 51.7541C89.5006 61.7566 91.5822 71.7999 94.1475 81.6969C96.6415 91.3214 99.5739 100.836 103.645 110.084C105.103 113.443 106.731 116.828 108.496 120.102C108.927 120.909 110.294 124.342 111.151 124.469C112.65 124.735 112.329 121.938 112.206 121.046Z" fill="#F9F2F2"/>
<path d="M96.1998 113.257C87.4947 93.9794 74.6476 76.0945 58.99 61.3276C62.6497 69.4229 66.9695 77.3107 71.6063 84.9401C76.1265 92.3339 80.9994 99.6055 86.5968 106.286C88.6667 108.733 90.8272 111.105 93.0782 113.404C93.6094 113.963 95.5887 116.484 96.2845 116.412C97.5046 116.244 96.5046 114.001 96.1998 113.257Z" fill="#F9F2F2"/>
<path d="M73.7455 104.202C78.758 107.391 84.0614 110.012 89.2241 112.831C94.6847 115.737 100.059 118.631 105.48 121.488C116.279 127.152 127.048 132.594 138.263 137.01C159.844 145.542 181.661 153.716 203.626 160.778C216.373 164.854 229.285 168.301 242.28 171.017C243.905 171.346 244.08 168.971 242.5 168.606C219.9 163.632 197.647 156.31 175.649 148.283C153.736 140.27 131.864 132.305 110.891 121.376C105.006 118.319 99.1218 115.262 93.2371 112.205C87.0999 109.023 80.9366 105.532 74.5538 102.881C73.6294 102.395 72.8259 103.629 73.7455 104.202Z" fill="#F9F2F2"/>
<path d="M36.3229 67.823C39.6917 76.4862 46.6472 83.6307 54.1036 89.5402C57.5412 92.2771 61.1242 94.7302 64.6571 97.3067C66.4462 98.5765 68.2353 99.8463 69.9791 101.153C71.5967 102.397 73.357 104.187 75.1248 105.06C76.1643 103.469 71.5887 97.8565 70.5503 96.3054C68.5092 93.3394 66.2869 90.5211 63.8382 87.8875C58.9052 82.4839 53.207 77.6213 47.1129 73.6603C43.6919 71.406 40.0801 69.4725 36.3229 67.823Z" fill="#F9F2F2"/>
<path d="M24.5664 104.445C31.9786 100.221 41.3387 99.8658 50.41 100.821C54.537 101.259 58.7354 101.971 62.8933 102.632C64.952 102.938 67.0512 103.294 69.1552 103.563C71.0876 103.806 73.4729 103.68 75.2956 104.344C75.1853 106.335 68.5605 107.272 66.8519 107.673C63.6514 108.463 60.339 108.931 56.991 109.263C50.1281 109.815 43.1059 109.339 36.096 107.861C32.205 107.064 28.3332 105.921 24.5664 104.445Z" fill="#F9F2F2"/>
</svg>
