<svg width="195" height="107" viewBox="0 0 195 107" fill="none" xmlns="http://www.w3.org/2000/svg">
<path d="M36.5809 113.774C37.3274 117.643 38.0739 121.512 38.4043 125.42C38.9407 131.756 38.2974 138.181 36.5775 144.345C36.17 145.868 34.0382 145.924 33.6135 144.478C32.7855 141.54 31.979 138.555 31.2197 135.591C30.4647 132.742 29.7783 129.868 29.2978 126.917C27.4316 115.992 28.242 104.689 30.1076 93.6953C30.5836 90.8942 30.8023 87.4069 31.9346 84.7903C33.0372 89.5044 33.2947 94.5745 34.0283 99.3487C34.8349 104.213 35.6843 108.983 36.5809 113.774Z" fill="#F9F2F2"/>
<path d="M43.413 111.642C41.6154 102.57 41.1733 93.1461 43.2706 84.0224C43.8282 81.543 44.596 79.1023 45.3637 76.6616C46.1915 73.9635 47.0407 71.2182 47.9157 68.5415C48.4133 70.0771 48.3833 71.7715 48.4906 73.4143C48.7524 78.6003 50.2839 83.6232 51.4894 88.6119C53.9261 98.6577 55.239 109.047 55.2779 119.483C55.3123 122.288 55.2523 125.051 54.892 127.848C54.6476 130.014 54.3732 134.501 52.7904 136.229C50.5814 138.584 49.4832 132.733 49.0413 131.451C47.9774 128.405 46.935 125.313 46.0084 122.216C44.996 118.681 44.1251 115.211 43.413 111.642Z" fill="#F9F2F2"/>
<path d="M66.0365 68.7511C68.1086 80.2254 70.1379 91.794 69.9709 103.56C69.8895 108.248 69.4821 112.903 69.0533 117.604C68.7103 121.49 68.3029 125.518 66.317 128.885C64.6869 124.956 64.2492 120.658 63.6057 116.437C62.1556 107.352 59.4401 98.5459 58.938 89.3794C58.6933 84.6567 59.0707 79.8181 60.0099 75.1211C60.8935 70.7973 62.1201 65.0923 64.698 61.4247C65.3843 63.6724 65.5989 66.3318 66.0365 68.7511Z" fill="#F9F2F2"/>
<path d="M78.6083 82.434C79.4146 78.5306 80.4311 74.6657 81.4948 70.8223C83.2318 64.4953 85.1104 58.2326 87.1049 51.9656C87.2292 51.5667 87.8341 51.6139 87.8512 52.0771C87.7055 56.2808 88.4649 60.4974 89.014 64.6753C90.7989 79.0364 89.4009 93.8866 84.9574 107.922C83.9409 111.16 82.7142 114.36 80.8483 117.213C80.0377 118.496 79.0983 120.061 78.3133 118.281C77.7299 116.934 77.7212 114.824 77.5282 113.37C76.683 106.837 76.5284 100.162 77.0258 93.5567C77.3517 89.8334 77.8406 86.1273 78.6083 82.434Z" fill="#F9F2F2"/>
<path d="M112.083 127.653C123.892 128.352 135.886 127.768 147.562 129.26C139.163 124.817 129.94 121.934 120.623 119.636C108.591 116.672 96.0617 114.678 83.6438 116.321C81.8894 116.548 77.2053 117.209 80.0921 119.375C82.1426 120.876 84.8021 121.914 87.1785 122.824C92.1457 124.797 97.4561 126.015 102.818 126.744C105.825 127.143 108.943 127.421 112.083 127.653Z" fill="#F9F2F2"/>
<path d="M118.182 115.11C131.629 117.465 145.24 119.836 158.996 119.257C154.488 117.151 150.027 115.066 145.497 113.007C142.64 111.652 139.715 110.322 136.75 109.203C128.682 106.162 119.953 104.699 111.194 104.931C106.767 105.026 102.357 105.584 97.9864 106.557C96.3993 106.918 93.9586 107.403 95.7217 109.286C97.0729 110.697 100.106 111.164 101.911 111.7C107.23 113.15 112.695 114.154 118.182 115.11Z" fill="#F9F2F2"/>
<path d="M171.574 108.121C160.477 104.102 149.38 100.083 137.807 97.6131C131.986 96.3907 126.041 95.5673 120.066 95.812C117.007 95.9021 113.962 96.3398 110.998 97.0991C110.355 97.2621 107.588 97.7126 107.601 98.6863C107.652 99.4498 110.775 99.8443 111.478 100.05C123.982 103.228 136.696 105.819 149.595 107.127C156.951 107.852 164.248 108.207 171.574 108.121Z" fill="#F9F2F2"/>
<path d="M175.902 85.4384C165.509 84.1304 155.094 82.8695 144.568 82.9814C139.304 83.0373 133.964 83.5135 128.864 84.8391C126.269 85.5384 123.682 86.4693 121.246 87.6961C120.744 87.9235 118.389 88.8458 118.629 89.6951C118.84 90.36 121.589 90.0725 122.263 90.0939C133.733 90.411 145.228 90.1705 156.66 88.819C163.15 88.0682 169.58 86.9484 175.902 85.4384Z" fill="#F9F2F2"/>
<path d="M93.6043 102.174C93.2396 99.8445 92.8492 97.4467 92.4846 95.1176C92.0384 92.4667 91.6608 89.7901 91.3991 87.1091C90.3092 73.9748 94.0664 60.8232 98.0253 48.1048C99.4281 53.4108 99.4025 58.9785 99.7672 64.439C100.205 71.8684 101.312 79.2034 101.334 86.6713C101.355 91.6343 100.871 96.7087 99.4723 101.539C99.0219 103.156 98.3486 106.892 96.3497 107.407C93.9819 107.982 93.8703 103.718 93.6043 102.174Z" fill="#F9F2F2"/>
<path d="M106.96 95.8336C103.493 76.1536 104.376 55.5469 109.609 35.8924C111.098 44.141 111.874 52.5784 112.209 60.9857C112.535 69.1615 112.467 77.3286 111.378 85.4872C111 88.447 110.486 91.4582 109.829 94.4051C109.671 95.13 109.388 98.1327 108.701 98.39C107.513 98.8748 107.08 96.5714 106.96 95.8336Z" fill="#F9F2F2"/>
<path d="M118.406 86.6883C120.859 69.6418 127.129 52.9642 136.536 38.281C135.502 45.4402 133.864 52.5522 131.895 59.5141C129.965 66.2658 127.709 72.9831 124.698 79.3574C123.579 81.6952 122.365 83.9901 121.057 86.2421C120.752 86.7869 119.727 89.1675 119.126 89.2362C118.063 89.322 118.337 87.3403 118.406 86.6883Z" fill="#F9F2F2"/>
<path d="M134.942 75.3592C131.545 78.8252 127.761 81.888 124.145 85.0838C120.302 88.4039 116.527 91.6984 112.706 94.9713C105.083 101.47 97.4312 107.784 89.1483 113.357C73.2175 124.107 56.9993 134.612 40.3779 144.251C30.7267 149.827 20.7796 154.928 10.5793 159.458C9.30107 160.016 8.55895 158.141 9.79001 157.562C27.4667 149.484 44.264 139.584 60.671 129.164C77.0093 118.77 93.3262 108.424 108.146 95.8594C112.307 92.3419 116.467 88.8244 120.628 85.3069C124.969 81.6436 129.254 77.7272 133.934 74.4456C134.586 73.888 135.568 74.733 134.942 75.3592Z" fill="#F9F2F2"/>
<path d="M157.149 39.3955C156.502 46.9579 152.47 53.9499 147.708 60.0411C145.517 62.8593 143.132 65.4759 140.82 68.1827C139.64 69.5253 138.461 70.8679 137.328 72.232C136.286 73.5232 135.261 75.2776 134 76.2985C132.73 75.2091 135.153 69.8772 135.634 68.4445C136.599 65.6949 137.753 63.0311 139.142 60.4745C141.918 55.2456 145.469 50.3126 149.578 46.0316C151.877 43.6037 154.417 41.3988 157.149 39.3955Z" fill="#F9F2F2"/>
<path d="M176.184 66.6632C168.917 64.613 160.99 66.0202 153.634 68.4268C150.288 69.525 146.951 70.8548 143.635 72.1375C141.988 72.7552 140.319 73.4201 138.625 74.0164C137.068 74.5612 135.039 74.8916 133.679 75.7538C134.271 77.3323 140.054 76.886 141.585 76.8989C144.463 76.9545 147.354 76.7314 150.241 76.3925C156.126 75.5945 161.887 73.9428 167.386 71.4891C170.444 70.1464 173.4 68.5292 176.184 66.6632Z" fill="#F9F2F2"/>
</svg>
