<svg width="103" height="161" viewBox="0 0 103 161" fill="none" xmlns="http://www.w3.org/2000/svg">
<path d="M114.358 80.1675C114.213 77.2598 114.068 74.3521 114.212 71.4537C114.444 66.7546 115.491 62.096 117.25 57.727C117.673 56.6461 119.136 56.7981 119.29 57.8976C119.578 60.1294 119.848 62.3939 120.087 64.6384C120.334 66.7975 120.531 68.9692 120.581 71.179C120.824 79.3676 119.202 87.5911 116.886 95.4924C116.296 97.5054 115.817 100.046 114.795 101.864C114.487 98.3035 114.79 94.5585 114.74 90.9876C114.648 87.344 114.518 83.7657 114.358 80.1675Z" fill="#F9F2F2"/>
<path d="M109.481 81.1136C109.852 87.9358 109.264 94.8935 106.967 101.401C106.351 103.17 105.595 104.893 104.84 106.615C104.018 108.52 103.178 110.459 102.327 112.344C102.132 111.172 102.312 109.931 102.394 108.715C102.705 104.885 102.133 101.059 101.78 97.288C101.064 89.6932 101.148 81.9483 102.108 74.284C102.35 72.2216 102.652 70.1993 103.163 68.1789C103.535 66.6109 104.147 63.3422 105.392 62.2166C107.126 60.6878 107.324 65.0821 107.504 66.0635C107.944 68.3954 108.365 70.7599 108.705 73.1172C109.064 75.8033 109.331 78.4294 109.481 81.1136Z" fill="#F9F2F2"/>
<path d="M105.078 42.8234C101.215 37.9538 96.6625 33.7614 91.8197 29.9213C93.9528 33.3739 96.1352 36.8139 97.9751 40.4807C99.1281 42.7405 100.144 45.091 101.346 47.338C102.601 49.7105 104.111 51.9342 105.746 54.0145C106.779 55.3328 107.929 56.5931 109.282 57.5791C110.242 58.3049 112.449 59.7659 113.688 59.2254C113.244 56.2557 111.576 53.156 110.178 50.598C108.766 47.8492 107.019 45.2419 105.078 42.8234Z" fill="#F9F2F2"/>
<path d="M86.4706 41.9358C81.6001 39.0752 76.2404 36.9792 70.5772 36.4059C73.3593 38.2472 76.1605 40.0557 78.9426 41.897C81.0896 43.318 83.2558 44.7063 85.2195 46.3688C86.9908 47.8586 88.5676 49.5371 90.213 51.1703C92.2243 53.1818 94.2245 55.1406 96.3426 57.0413C98.2187 58.7819 100.194 60.4972 102.455 61.722C103.159 62.0969 105.155 63.4178 105.991 63.0641C107.34 62.5509 105.862 60.847 105.44 60.2052C102.373 55.4089 98.6327 51.119 94.3502 47.4684C91.8613 45.4129 89.2576 43.5536 86.4706 41.9358Z" fill="#F9F2F2"/>
<path d="M86.5735 56.8825C82.3115 53.6989 77.9125 50.6061 73.0878 48.456C67.4608 45.9564 61.3872 44.794 55.3328 43.5988C63.8893 48.763 71.1311 55.9596 79.2478 61.8758C82.0138 63.8879 84.9057 65.7565 88.1468 66.8131C89.9075 67.3888 91.7415 67.6956 93.6299 67.7661C95.4084 67.8094 96.9912 67.5417 95.6932 65.4581C93.4695 61.9454 89.766 59.3129 86.5735 56.8825Z" fill="#F9F2F2"/>
<path d="M89.9575 110.55C89.6253 101.94 89.3313 93.2644 90.5579 84.6427C91.0568 81.2085 91.7753 77.829 92.5131 74.4169C93.1151 71.5952 93.7744 68.6754 95.4509 66.3834C96.1942 69.4152 96.0871 72.6098 96.1282 75.7663C96.2609 82.5665 97.2853 89.2766 96.7621 96.0508C96.4829 99.5396 95.7674 103.057 94.681 106.42C93.668 109.514 92.2898 113.591 90.1802 116.05C89.9233 114.338 90.028 112.366 89.9575 110.55Z" fill="#F9F2F2"/>
<path d="M82.6541 99.3677C81.7337 102.16 80.6732 104.905 79.5824 107.63C77.7963 112.117 75.9196 116.544 73.9632 120.964C73.8404 121.245 73.4313 121.156 73.4633 120.814C73.9604 117.742 73.8398 114.578 73.8592 111.462C73.9964 100.758 76.3563 89.9839 80.7219 80.0835C81.7232 77.7982 82.8647 75.5603 84.4103 73.6353C85.0859 72.7672 85.8763 71.7029 86.2449 73.0807C86.5165 74.1222 86.3229 75.6721 86.3175 76.757C86.2778 81.629 85.7525 86.5423 84.7879 91.3463C84.213 94.0499 83.5283 96.7261 82.6541 99.3677Z" fill="#F9F2F2"/>
<path d="M64.0341 63.1452C56.0246 61.5632 47.7677 60.906 39.9242 58.7535C45.2477 62.7757 51.282 65.7263 57.4359 68.2572C65.3839 71.5219 73.7637 74.12 82.4111 74.0379C83.6324 74.0298 86.8981 73.9689 85.1286 72.1175C83.8684 70.8299 82.1478 69.8272 80.6087 68.9446C77.3984 67.0466 73.882 65.6718 70.2842 64.6513C68.2656 64.0863 66.1594 63.5994 64.0341 63.1452Z" fill="#F9F2F2"/>
<path d="M58.6811 71.7996C49.7076 68.8539 40.6242 65.8809 31.1622 65.061C34.0461 67.015 36.8997 68.949 39.8027 70.8704C41.6282 72.1239 43.5031 73.3648 45.4243 74.4548C50.6545 77.4175 56.4856 79.2812 62.4975 79.9039C65.5336 80.2353 68.6018 80.2251 71.683 79.9059C72.8024 79.785 74.5173 79.6501 73.4897 78.1083C72.6991 76.9501 70.6694 76.3324 69.4851 75.7754C65.9848 74.2297 62.3425 72.9983 58.6811 71.7996Z" fill="#F9F2F2"/>
<path d="M21.5078 72.0968C28.7165 76.0515 35.9253 80.0061 43.606 82.8672C47.471 84.2914 51.4588 85.434 55.5681 85.7953C57.6681 86.006 59.7922 85.9604 61.8909 85.6714C62.3463 85.6099 64.2809 85.5297 64.3642 84.8138C64.4011 84.2487 62.3029 83.6764 61.8413 83.4616C53.591 79.9967 45.1413 76.9442 36.4444 74.8165C31.4821 73.6186 26.5261 72.6969 21.5078 72.0968Z" fill="#F9F2F2"/>
<path d="M16.3984 88.355C23.3823 90.256 30.3854 92.1243 37.5944 92.9951C41.1989 93.4305 44.896 93.5643 48.509 93.053C50.3498 92.7746 52.2066 92.3254 53.9887 91.6454C54.3534 91.5239 56.051 91.0601 55.967 90.4149C55.8862 89.9078 53.9787 89.8699 53.5202 89.7933C45.7064 88.5222 37.8222 87.6581 29.877 87.6153C25.3679 87.579 20.8649 87.8189 16.3984 88.355Z" fill="#F9F2F2"/>
<path d="M74.266 83.5209C74.2952 85.2636 74.3355 87.0591 74.3647 88.8018C74.4192 90.7881 74.4243 92.7871 74.3498 94.7787C73.8534 104.519 70.0407 113.833 66.131 122.81C65.6733 118.788 66.2172 114.704 66.484 110.662C66.887 105.169 66.8236 99.6846 67.5148 94.2007C67.9692 90.5557 68.7803 86.8747 70.1932 83.4558C70.654 82.3095 71.4677 79.6279 72.8833 79.431C74.5569 79.2233 74.2301 82.3633 74.266 83.5209Z" fill="#F9F2F2"/>
<path d="M64.531 86.9656C65.0409 101.726 62.4889 116.772 57.0524 130.726C56.8142 124.536 57.0807 118.272 57.6466 112.071C58.1965 106.04 59.0154 100.051 60.5316 94.1604C61.0695 92.0219 61.7062 89.8581 62.4335 87.7544C62.6106 87.2366 63.088 85.0581 63.5817 84.9313C64.44 84.683 64.5186 86.4131 64.531 86.9656Z" fill="#F9F2F2"/>
<path d="M55.8399 92.643C52.5507 104.934 46.6857 116.608 38.865 126.535C40.2486 121.374 42.0414 116.301 44.0459 111.369C46.0041 106.588 48.182 101.861 50.8437 97.4546C51.8303 95.8399 52.8774 94.2652 53.9849 92.7305C54.2447 92.3582 55.1708 90.7034 55.5879 90.7074C56.3235 90.7407 55.9485 92.1706 55.8399 92.643Z" fill="#F9F2F2"/>
<path d="M43.4614 99.462C46.1122 97.2253 48.989 95.3195 51.7639 93.301C54.706 91.2117 57.5987 89.1351 60.5217 87.0786C66.3486 82.9981 72.1785 79.0558 78.3696 75.7153C90.2802 69.2664 102.364 63.0231 114.642 57.4522C121.769 54.2324 129.054 51.3889 136.458 48.987C137.384 48.6933 137.715 50.1365 136.818 50.4502C123.966 54.7793 111.543 60.5263 99.3383 66.6896C87.1827 72.8402 75.0462 78.9582 63.7238 86.8395C60.546 89.0448 57.3681 91.2502 54.1903 93.4556C50.8755 95.7517 47.5749 98.2386 44.0644 100.224C43.5658 100.574 42.9739 99.865 43.4614 99.462Z" fill="#F9F2F2"/>
<path d="M24.8756 123.851C26.0334 118.358 29.4516 113.591 33.2834 109.551C35.0488 107.68 36.927 105.975 38.764 104.198C39.6975 103.319 40.6311 102.44 41.5345 101.541C42.3693 100.688 43.2362 99.4929 44.1951 98.8576C44.9604 99.7723 42.7991 103.467 42.3351 104.475C41.4152 106.406 40.3744 108.257 39.1823 110.008C36.7902 113.595 33.8951 116.894 30.6803 119.665C28.8785 121.239 26.9335 122.628 24.8756 123.851Z" fill="#F9F2F2"/>
<path d="M14.4336 102.111C19.2089 104.274 24.7628 103.959 30.021 102.858C32.4128 102.355 34.8207 101.681 37.2094 101.039C38.3942 100.735 39.5981 100.398 40.8132 100.114C41.9295 99.8547 43.3482 99.7959 44.3595 99.286C44.1039 98.0737 40.1076 97.8779 39.0616 97.7298C37.0986 97.4284 35.1004 97.3305 33.0942 97.318C28.9942 97.371 24.8986 98.0619 20.9061 99.3653C18.6877 100.074 16.5137 100.994 14.4336 102.111Z" fill="#F9F2F2"/>
</svg>
