<svg width="204" height="201" viewBox="0 0 204 201" fill="none" xmlns="http://www.w3.org/2000/svg">
<g opacity="0.86">
<path d="M205.19 60.6659C204.902 55.9387 204.614 51.2115 204.829 46.503C205.175 38.869 206.941 31.311 209.95 24.2324C210.672 22.481 213.221 22.7461 213.503 24.5349C214.032 28.1655 214.529 31.8489 214.973 35.4995C215.43 39.0113 215.801 42.5432 215.914 46.1351C216.439 59.4458 213.715 72.7902 209.782 85.6024C208.779 88.8666 207.975 92.9887 206.219 95.931C205.638 90.1413 206.12 84.0588 205.988 78.2549C205.784 72.3323 205.513 66.5156 205.19 60.6659Z" fill="#F9F2F2"/>
<path d="M196.713 62.1435C197.444 73.2352 196.505 84.5353 192.586 95.0826C191.536 97.9506 190.241 100.74 188.946 103.529C187.54 106.616 186.101 109.756 184.642 112.81C184.288 110.902 184.587 108.888 184.715 106.913C185.209 100.692 184.166 94.4673 183.505 88.3344C182.164 75.9829 182.215 63.3972 183.792 50.9534C184.187 47.6047 184.689 44.3218 185.553 41.0448C186.181 38.5012 187.206 33.1966 189.361 31.3826C192.36 28.9196 192.759 36.0633 193.086 37.6605C193.88 41.4556 194.642 45.3035 195.264 49.1385C195.921 53.5084 196.419 57.7795 196.713 62.1435Z" fill="#F9F2F2"/>
<path d="M188.572 -0.138175C181.786 -8.09976 173.807 -14.9692 165.328 -21.2696C169.085 -15.6323 172.927 -10.0149 176.176 -4.03302C178.211 -0.34637 180.009 3.48608 182.13 7.15274C184.344 11.0239 187 14.6563 189.873 18.0572C191.687 20.2124 193.706 22.2747 196.073 23.8939C197.753 25.0853 201.615 27.4869 203.765 26.6237C202.956 21.792 200.013 16.7339 197.547 12.5596C195.055 8.07499 191.981 3.81617 188.572 -0.138175Z" fill="#F9F2F2"/>
<path d="M156.16 -1.81025C147.645 -6.51926 138.287 -9.99161 128.42 -10.9933C133.286 -7.96659 138.186 -4.99282 143.052 -1.96614C146.808 0.369669 150.597 2.65259 154.036 5.37868C157.139 7.82158 159.905 10.569 162.79 13.2435C166.317 16.5372 169.823 19.7452 173.535 22.8603C176.823 25.7122 180.282 28.5241 184.235 30.5425C185.465 31.1604 188.956 33.3318 190.408 32.7673C192.75 31.9499 190.155 29.1625 189.414 28.1143C184.015 20.2817 177.449 13.2639 169.948 7.27819C165.589 3.90703 161.032 0.853243 156.16 -1.81025Z" fill="#F9F2F2"/>
<path d="M156.53 22.4823C149.07 17.2559 141.373 12.1753 132.946 8.62168C123.118 4.49005 112.528 2.52593 101.972 0.508914C116.934 9.00707 129.631 20.792 143.836 30.5068C148.677 33.8109 153.736 36.8834 159.392 38.6405C162.464 39.5977 165.661 40.1189 168.95 40.2569C172.047 40.3491 174.8 39.9336 172.514 36.5315C168.599 30.7954 162.118 26.4715 156.53 22.4823Z" fill="#F9F2F2"/>
<path d="M163.083 109.742C162.398 95.7448 161.779 81.6418 163.808 67.6453C164.635 62.0704 165.844 56.5871 167.086 51.0509C168.1 46.4727 169.212 41.7358 172.102 38.0316C173.434 42.9678 173.287 48.1582 173.397 53.2886C173.712 64.3416 175.579 75.2591 174.751 86.2617C174.308 91.9282 173.106 97.636 171.256 103.088C169.53 108.103 167.181 114.712 163.538 118.682C163.07 115.896 163.228 112.693 163.083 109.742Z" fill="#F9F2F2"/>
<path d="M150.227 91.4787C148.659 96.0053 146.846 100.453 144.98 104.868C141.926 112.138 138.713 119.31 135.361 126.469C135.151 126.925 134.437 126.774 134.489 126.22C135.317 121.232 135.067 116.089 135.063 111.024C135.17 93.6316 139.146 76.1509 146.625 60.1151C148.34 56.4135 150.3 52.7907 152.967 49.6813C154.133 48.2789 155.496 46.559 156.154 48.8026C156.64 50.4986 156.322 53.0151 156.326 54.7781C156.317 62.6953 155.463 70.6738 153.843 78.4691C152.875 82.8557 151.716 87.1965 150.227 91.4787Z" fill="#F9F2F2"/>
<path d="M117.362 32.3814C103.397 29.7116 89.0127 28.5417 75.3296 24.9468C84.648 31.5491 95.1908 36.4188 105.937 40.6078C119.815 46.0115 134.438 50.3372 149.493 50.3105C151.619 50.3124 157.304 50.2536 154.201 47.223C151.99 45.1149 148.982 43.4641 146.292 42.0108C140.679 38.8867 134.539 36.609 128.263 34.9061C124.741 33.963 121.068 33.1458 117.362 32.3814Z" fill="#F9F2F2"/>
<path d="M108.147 46.3801C92.487 41.4822 76.6351 36.5385 60.1505 35.0893C65.1958 38.3005 70.1882 41.4787 75.2664 44.637C78.4603 46.6967 81.7399 48.7365 85.0983 50.5317C94.2413 55.411 104.417 58.5118 114.892 59.5979C120.182 60.1739 125.524 60.1951 130.885 59.7144C132.833 59.5318 135.817 59.3337 134.008 56.8153C132.618 54.9233 129.076 53.8944 127.007 52.9746C120.894 50.4195 114.537 48.3734 108.147 46.3801Z" fill="#F9F2F2"/>
<path d="M43.4297 46.4045C56.0297 52.9204 68.6297 59.4362 82.038 64.1806C88.785 66.5428 95.7423 68.4489 102.902 69.0868C106.561 69.4551 110.258 69.4073 113.909 68.9634C114.701 68.8692 118.068 68.7627 118.204 67.6003C118.262 66.6823 114.602 65.7263 113.795 65.3716C99.3876 59.6389 84.6382 54.5739 69.4695 51.0087C60.8149 49.0007 52.1745 47.4417 43.4297 46.4045Z" fill="#F9F2F2"/>
<path d="M34.7344 72.7635C46.9176 75.9391 59.1337 79.0618 71.6962 80.5659C77.9775 81.318 84.4161 81.5811 90.7006 80.7946C93.9021 80.3649 97.1295 79.6578 100.224 78.5747C100.857 78.3818 103.807 77.6489 103.653 76.5994C103.506 75.7743 100.185 75.6892 99.3853 75.5589C85.7649 73.3968 72.027 71.8953 58.1931 71.7278C50.3417 71.6131 42.5045 71.9474 34.7344 72.7635Z" fill="#F9F2F2"/>
<path d="M135.429 65.6213C135.501 68.4539 135.593 71.3722 135.666 74.2048C135.785 77.4335 135.819 80.6822 135.714 83.9179C134.969 99.7407 128.446 114.83 121.749 129.372C120.903 122.83 121.8 116.198 122.214 109.634C122.848 100.712 122.67 91.7979 123.806 82.8944C124.552 76.9763 125.919 71.0041 128.337 65.4653C129.125 63.608 130.509 59.2601 132.971 58.9575C135.882 58.6407 135.352 63.7395 135.429 65.6213Z" fill="#F9F2F2"/>
<path d="M118.519 71.0992C119.589 95.0926 115.331 119.514 106.038 142.124C105.547 132.062 105.934 121.885 106.843 111.814C107.726 102.019 109.078 92.2963 111.645 82.7425C112.555 79.2738 113.637 75.7652 114.877 72.3552C115.179 71.5159 115.983 67.9815 116.841 67.7815C118.333 67.3886 118.491 70.2012 118.519 71.0992Z" fill="#F9F2F2"/>
<path d="M103.46 80.2187C97.8846 100.153 87.817 119.053 74.3226 135.089C76.668 126.718 79.7269 118.497 83.1561 110.506C86.5066 102.76 90.2402 95.105 94.8202 87.9767C96.518 85.3647 98.3217 82.8185 100.231 80.3381C100.679 79.7362 102.271 77.0584 102.997 77.07C104.278 77.1332 103.643 79.4523 103.46 80.2187Z" fill="#F9F2F2"/>
<path d="M81.9885 91.1479C86.5763 87.5456 91.5615 84.4839 96.368 81.2378C101.465 77.8787 106.476 74.5396 111.54 71.2335C121.635 64.674 131.737 58.339 142.475 52.9866C163.133 42.6531 184.096 32.6558 205.404 23.7539C217.774 18.6091 230.422 14.0777 243.283 10.2657C244.893 9.7999 245.486 12.1493 243.929 12.648C221.605 19.525 200.047 28.7115 178.872 38.5772C157.784 48.4229 136.728 58.2158 117.112 70.8844C111.606 74.4292 106.1 77.9741 100.595 81.519C94.8515 85.2096 89.1354 89.2106 83.0478 92.3935C82.184 92.9567 81.1447 91.7969 81.9885 91.1479Z" fill="#F9F2F2"/>
<path d="M49.9281 130.554C51.8762 121.642 57.7689 113.936 64.3907 107.418C67.4412 104.4 70.6905 101.652 73.8669 98.7863C75.4815 97.3696 77.0962 95.953 78.6579 94.5034C80.1009 93.1268 81.5956 91.1954 83.2573 90.1748C84.6011 91.6707 80.8835 97.6482 80.0881 99.2809C78.5103 102.408 76.7209 105.403 74.667 108.234C70.5462 114.034 65.5462 119.36 59.983 123.823C56.8654 126.359 53.4961 128.592 49.9281 130.554Z" fill="#F9F2F2"/>
<path d="M31.4844 95.0953C39.8254 98.669 49.4915 98.225 58.633 96.5012C62.7912 95.7128 66.9753 94.647 71.1264 93.6342C73.1855 93.1542 75.2776 92.6213 77.3896 92.1742C79.33 91.7671 81.7994 91.689 83.554 90.873C83.094 88.8997 76.1335 88.5321 74.3105 88.2786C70.8889 87.7645 67.4087 87.5807 63.9155 87.5356C56.7776 87.5712 49.6552 88.6435 42.7198 90.7124C38.8661 91.8369 35.0923 93.3045 31.4844 95.0953Z" fill="#F9F2F2"/>
</g>
</svg>
