<svg width="200" height="121" viewBox="0 0 200 121" fill="none" xmlns="http://www.w3.org/2000/svg">
<g opacity="0.86">
<path d="M41.737 12.2467C42.0997 8.55148 42.4624 4.8562 42.4314 1.16101C42.3816 -4.83004 41.2173 -10.8027 39.0657 -16.4359C38.5505 -17.8291 36.5454 -17.6954 36.2731 -16.3021C35.7527 -13.473 35.2566 -10.6015 34.8028 -7.75433C34.343 -5.01616 33.9499 -2.25982 33.7566 0.550996C32.9592 10.9643 34.706 21.4983 37.4159 31.6505C38.107 34.237 38.6165 37.4898 39.9073 39.846C40.5303 35.3268 40.3294 30.5474 40.6011 26.004C40.9333 21.3698 41.3139 16.8204 41.737 12.2467Z" fill="#F9F2F2"/>
<path d="M48.333 13.6505C47.4383 22.3193 47.846 31.1998 50.6101 39.577C51.3496 41.8546 52.2829 44.0775 53.2163 46.3005C54.2284 48.7597 55.2648 51.2614 56.3194 53.6963C56.6522 52.2121 56.4762 50.625 56.4335 49.0743C56.2265 44.1858 57.225 39.3394 57.9207 34.5537C59.3301 24.9156 59.6551 15.0536 58.7808 5.25844C58.5682 2.62338 58.2708 0.0368057 57.6888 -2.55577C57.2704 -4.56684 56.6213 -8.75257 54.9854 -10.2364C52.7073 -12.2531 52.1875 -6.6678 51.8849 -5.42591C51.1525 -2.47565 50.4444 0.516998 49.8453 3.50357C49.2039 6.90813 48.6897 10.24 48.333 13.6505Z" fill="#F9F2F2"/>
<path d="M80.9648 -16.2572C86.9612 -20.1353 93.1392 -23.8924 99.8446 -26.432C107.664 -29.3837 116.018 -30.6152 124.347 -31.889C112.378 -25.6653 102.088 -16.8007 90.6767 -9.60177C86.7882 -7.15365 82.7361 -4.89327 78.2536 -3.6808C75.8186 -3.02 73.2986 -2.70448 70.718 -2.69183C68.2889 -2.70949 66.1444 -3.11491 68.0339 -5.71406C71.2678 -10.0944 76.4706 -13.294 80.9648 -16.2572Z" fill="#F9F2F2"/>
<path d="M73.3048 51.9187C74.2475 40.9722 75.1418 29.9409 73.9582 18.9162C73.4727 14.5244 72.6843 10.1933 71.8716 5.81986C71.2106 2.20355 70.4768 -1.53996 68.3197 -4.52596C67.1332 -0.697246 67.0977 3.37354 66.8622 7.38984C66.2946 16.0404 64.5154 24.5397 64.8444 33.184C65.027 37.6363 65.8034 42.1431 67.0946 46.468C68.3009 50.4477 69.9496 55.6933 72.6884 58.9094C73.1362 56.7406 73.1054 54.2267 73.3048 51.9187Z" fill="#F9F2F2"/>
<path d="M83.9029 37.9826C85.0001 41.5746 86.2912 45.112 87.6246 48.6252C89.8066 54.4098 92.1158 60.1218 94.534 65.8276C94.6855 66.191 95.2488 66.094 95.2245 65.6578C94.7209 61.7265 95.0653 57.7041 95.216 53.7363C95.6372 40.1064 93.0295 26.2954 87.6354 13.5147C86.399 10.5649 84.9688 7.66962 82.9693 5.1561C82.0967 4.02349 81.0787 2.63649 80.4976 4.37517C80.0677 5.68978 80.2438 7.67061 80.1896 9.05178C79.9667 15.2549 80.4042 21.5306 81.4474 27.685C82.0781 31.1499 82.8603 34.5844 83.9029 37.9826Z" fill="#F9F2F2"/>
<path d="M111.364 -7.36391C122.383 -9.05026 133.686 -9.54935 144.511 -11.9686C137.018 -7.06639 128.617 -3.55722 120.076 -0.587162C109.046 3.24361 97.4645 6.20824 85.67 5.75032C84.0042 5.69009 79.5517 5.479 82.0712 3.19472C83.864 1.60722 86.2686 0.401242 88.4189 -0.659303C92.9072 -2.94399 97.7833 -4.5503 102.75 -5.7023C105.537 -6.33894 108.438 -6.87263 111.364 -7.36391Z" fill="#F9F2F2"/>
<path d="M118.182 3.87121C130.594 0.488427 143.157 -2.92468 156.114 -3.58162C152.068 -1.21221 148.064 1.13295 143.994 3.45996C141.432 4.98098 138.803 6.48384 136.12 7.79286C128.815 11.3503 120.753 13.4842 112.514 14.0312C108.353 14.3289 104.167 14.1904 99.9807 13.6582C98.4602 13.4586 96.1279 13.2168 97.6177 11.2962C98.7623 9.85422 101.567 9.15094 103.214 8.49031C108.078 6.66593 113.118 5.24737 118.182 3.87121Z" fill="#F9F2F2"/>
<path d="M168.887 5.76892C158.826 10.5081 148.765 15.2474 138.122 18.5753C132.768 20.2301 127.261 21.5216 121.634 21.8135C118.757 21.9959 115.861 21.8511 113.014 21.3973C112.396 21.3005 109.761 21.1194 109.688 20.2047C109.669 19.4838 112.565 18.8411 113.207 18.5865C124.661 14.5134 136.364 10.9732 148.352 8.62033C155.191 7.29832 162.005 6.32767 168.887 5.76892Z" fill="#F9F2F2"/>
<path d="M174.93 26.6726C165.292 28.8069 155.631 30.8989 145.745 31.7127C140.802 32.1195 135.75 32.1388 130.849 31.3402C128.353 30.9106 125.845 30.263 123.452 29.3245C122.961 29.155 120.671 28.4952 120.823 27.6774C120.962 27.0352 123.567 27.065 124.197 26.9861C134.93 25.6875 145.737 24.9099 156.581 25.1802C162.735 25.3182 168.866 25.8076 174.93 26.6726Z" fill="#F9F2F2"/>
<path d="M96.2511 18.1542C96.1122 20.3713 95.9552 22.6551 95.8163 24.8723C95.6291 27.3984 95.5085 29.9426 95.4969 32.4808C95.6206 44.8991 100.294 56.9105 105.118 68.4979C105.971 63.3971 105.461 58.1755 105.327 53.0204C105.089 46.0117 105.487 39.0332 104.856 32.0245C104.443 27.3663 103.545 22.6475 101.812 18.2378C101.248 16.7599 100.291 13.3132 98.3702 13.0047C96.0985 12.672 96.3659 16.6821 96.2511 18.1542Z" fill="#F9F2F2"/>
<path d="M109.334 22.9364C107.8 41.7035 110.427 60.9604 117.052 78.9443C117.728 71.0752 117.721 63.0911 117.301 55.1738C116.894 47.4746 116.117 39.8178 114.382 32.2581C113.77 29.5141 113.024 26.7338 112.151 24.0262C111.939 23.3599 111.412 20.5674 110.745 20.3858C109.588 20.0347 109.383 22.2337 109.334 22.9364Z" fill="#F9F2F2"/>
<path d="M120.868 30.5183C124.657 46.2979 131.996 61.3982 142.103 74.3535C140.509 67.7267 138.351 61.1969 135.896 54.8369C133.496 48.6706 130.793 42.565 127.412 36.8473C126.157 34.7516 124.818 32.7043 123.394 30.7056C123.061 30.2211 121.891 28.0769 121.322 28.0649C120.316 28.0772 120.747 29.9126 120.868 30.5183Z" fill="#F9F2F2"/>
<path d="M137.373 39.7044C133.884 36.749 130.067 34.2055 126.395 31.5227C122.499 28.7431 118.67 25.9816 114.799 23.2443C107.08 17.8121 99.3496 12.5557 91.0921 8.05045C75.2069 -0.64509 59.0735 -9.08616 42.6374 -16.6791C33.0956 -21.0689 23.3177 -24.9862 13.352 -28.3462C12.1041 -28.7578 11.5714 -26.9343 12.777 -26.4984C30.0669 -20.4625 46.6908 -12.6394 62.9939 -4.29533C79.2302 4.03062 95.4424 12.3142 110.443 22.809C114.654 25.7461 118.865 28.6832 123.076 31.6203C127.468 34.6786 131.83 37.9791 136.507 40.6496C137.168 41.1159 138.016 40.2373 137.373 39.7044Z" fill="#F9F2F2"/>
<path d="M161.349 71.5087C160.082 64.4699 155.689 58.2617 150.69 52.9623C148.388 50.5094 145.922 48.2625 143.516 45.9247C142.292 44.768 141.069 43.6112 139.887 42.4302C138.796 41.3097 137.681 39.7531 136.409 38.9053C135.313 40.0384 138.052 44.8294 138.628 46.1317C139.773 48.6272 141.088 51.0258 142.615 53.3032C145.675 57.967 149.438 62.2853 153.667 65.9433C156.036 68.0206 158.611 69.8677 161.349 71.5087Z" fill="#F9F2F2"/>
<path d="M176.828 44.2631C170.189 46.8209 162.629 46.1924 155.517 44.5765C152.282 43.8381 149.035 42.8817 145.812 41.9677C144.213 41.5318 142.589 41.0536 140.948 40.6421C139.439 40.2668 137.507 40.1339 136.156 39.4436C136.573 37.9109 142.037 37.825 143.473 37.6793C146.169 37.3759 148.901 37.3329 151.639 37.399C157.23 37.634 162.779 38.6809 168.153 40.5031C171.139 41.4959 174.053 42.7553 176.828 44.2631Z" fill="#F9F2F2"/>
</g>
</svg>
