<svg width="214" height="310" viewBox="0 0 214 310" fill="none" xmlns="http://www.w3.org/2000/svg">
<path d="M-24.9709 167.867C-25.4655 162.298 -25.9601 156.729 -27.0372 151.27C-28.7827 142.42 -32.1722 133.908 -36.9278 126.173C-38.0789 124.255 -41.0083 125.013 -41.0224 127.15C-41.0029 131.481 -40.9357 135.869 -40.8125 140.208C-40.7287 144.388 -40.5412 148.576 -40.0428 152.789C-38.3167 168.419 -32.7924 183.518 -25.9497 197.783C-24.2053 201.417 -22.5437 206.088 -19.9763 209.214C-20.3156 202.353 -21.9466 195.338 -22.8126 188.539C-23.6143 181.59 -24.3206 174.752 -24.9709 167.867Z" fill="#F9F2F2"/>
<path d="M-14.8179 168.103C-13.7226 181.179 -10.6411 194.205 -4.21358 205.829C-2.4838 208.993 -0.482443 212.021 1.51891 215.05C3.70278 218.406 5.93436 221.818 8.1742 225.127C8.25252 222.838 7.5492 220.539 7.05322 218.256C5.38276 211.081 5.50773 203.631 5.20148 196.356C4.59726 181.702 2.3261 167.02 -1.70107 152.77C-2.75094 148.931 -3.91275 145.187 -5.4975 141.513C-6.67779 138.654 -8.80622 132.642 -11.6408 130.903C-15.5743 128.555 -14.7848 136.964 -14.886 138.886C-15.1463 143.456 -15.3589 148.081 -15.4119 152.667C-15.4108 157.884 -15.2419 162.957 -14.8179 168.103Z" fill="#F9F2F2"/>
<path d="M-16.2574 93.9684C-9.73479 83.4823 -1.62798 74.0616 7.16315 65.2172C3.76853 72.4579 0.270229 79.6903 -2.47124 87.2439C-4.19944 91.9051 -5.6249 96.6947 -7.45676 101.348C-9.36114 106.255 -11.8233 110.962 -14.5799 115.437C-16.3188 118.272 -18.3128 121.034 -20.792 123.34C-22.5436 125.026 -26.6294 128.508 -29.2917 127.878C-29.1954 122.095 -26.6486 115.674 -24.5038 110.368C-22.3818 104.695 -19.5425 99.1834 -16.2574 93.9684Z" fill="#F9F2F2"/>
<path d="M21.2837 86.3229C30.3966 79.3299 40.7101 73.6324 52.0526 70.7296C46.9034 75.1177 41.7065 79.4499 36.5573 83.8381C32.5834 87.2246 28.5619 90.5551 25.0256 94.3417C21.8334 97.7385 19.087 101.432 16.1892 105.06C12.651 109.525 9.121 113.886 5.336 118.174C1.99876 122.081 -1.54581 125.971 -5.80585 129.022C-7.13258 129.959 -10.8266 133.107 -12.6201 132.703C-15.4979 132.161 -12.9589 128.451 -12.277 127.097C-7.35081 117.005 -0.919208 107.66 6.78561 99.3545C11.2817 94.6534 16.0639 90.2881 21.2837 86.3229Z" fill="#F9F2F2"/>
<path d="M25.1198 114.744C32.9098 107.333 41.0025 100.05 50.2151 94.4209C60.9619 87.8713 72.9779 83.7181 84.9463 79.5089C68.974 92.0577 56.2222 108.046 41.3469 121.882C36.2765 126.589 30.9117 131.064 24.6178 134.109C21.1992 135.767 17.5587 136.937 13.744 137.675C10.1448 138.327 6.85866 138.326 8.92901 133.953C12.4915 126.569 19.297 120.383 25.1198 114.744Z" fill="#F9F2F2"/>
<path d="M32.8093 217.756C31.1494 201.296 29.3941 184.724 24.5663 168.742C22.6223 162.38 20.2471 156.191 17.8243 149.947C15.837 144.781 13.7066 139.446 9.68156 135.63C8.99443 141.626 10.0779 147.66 10.8504 153.668C12.4246 166.626 12.1639 179.698 15.0629 192.396C16.5756 198.933 18.982 205.385 22.0994 211.424C24.9949 216.976 28.8983 224.277 33.8481 228.271C33.9055 224.937 33.1583 221.226 32.8093 217.756Z" fill="#F9F2F2"/>
<path d="M44.6012 194.18C47.227 199.189 50.1244 204.063 53.0778 208.889C57.9206 216.839 62.9312 224.646 68.1016 232.414C68.4272 232.909 69.2336 232.608 69.0759 231.97C67.2337 226.293 66.6208 220.246 65.7364 214.333C62.556 194.048 54.8435 174.341 43.2958 156.936C40.6432 152.916 37.7191 149.031 34.059 145.87C32.4519 144.438 30.5586 142.67 30.1839 145.404C29.9148 147.469 30.7281 150.351 31.0333 152.41C32.4347 161.65 34.8333 170.814 38.0943 179.629C39.9944 184.58 42.1102 189.443 44.6012 194.18Z" fill="#F9F2F2"/>
<path d="M72.5807 119.419C88.4134 113.849 104.999 109.956 120.34 103.356C110.622 112.7 99.171 120.237 87.3628 127.015C72.1113 135.761 55.8021 143.38 38.223 145.993C35.7413 146.369 29.0945 147.299 32.185 143.216C34.3945 140.367 37.616 137.912 40.5016 135.742C46.505 131.109 53.2715 127.372 60.2994 124.281C64.2445 122.562 68.3888 120.962 72.5807 119.419Z" fill="#F9F2F2"/>
<path d="M85.8041 134.141C103.224 125.672 120.86 117.116 139.849 112.528C134.523 117.163 129.254 121.75 123.881 126.329C120.514 129.295 117.044 132.252 113.439 134.938C103.624 142.24 92.29 147.647 80.253 150.755C74.1786 152.357 67.9464 153.32 61.6042 153.701C59.2987 153.83 55.7804 154.123 57.4487 150.866C58.7399 148.413 62.6933 146.589 64.9467 145.152C71.6344 141.095 78.6954 137.59 85.8041 134.141Z" fill="#F9F2F2"/>
<path d="M161.354 122.799C147.79 132.619 134.226 142.439 119.408 150.333C111.947 154.276 104.16 157.723 95.9149 159.725C91.7084 160.798 87.3835 161.392 83.0441 161.515C82.1029 161.544 78.1533 162.012 77.7902 160.679C77.5619 159.617 81.6667 157.858 82.5457 157.302C98.357 148.079 114.685 139.575 131.765 132.749C141.515 128.884 151.328 125.546 161.354 122.799Z" fill="#F9F2F2"/>
<path d="M176.131 152.042C162.467 157.89 148.755 163.681 134.355 167.644C127.155 169.625 119.685 171.064 112.21 171.25C108.398 171.311 104.506 171.052 100.703 170.331C99.93 170.218 96.3577 169.88 96.3533 168.628C96.38 167.639 100.242 166.956 101.153 166.664C116.672 161.747 132.445 157.58 148.565 154.954C157.71 153.441 166.917 152.454 176.131 152.042Z" fill="#F9F2F2"/>
<path d="M57.3373 161.394C57.7506 164.714 58.1556 168.137 58.5688 171.456C58.9967 175.246 59.5282 179.044 60.2194 182.803C63.868 201.143 74.1342 217.611 84.506 233.41C84.3448 225.624 82.1331 218.041 80.4957 210.451C78.1881 200.147 76.8301 189.71 73.9399 179.516C72.029 172.739 69.3842 166.007 65.5888 159.966C64.3423 157.937 61.9633 153.104 59.0358 153.184C55.5817 153.326 57.0964 159.184 57.3373 161.394Z" fill="#F9F2F2"/>
<path d="M78.0346 164.819C81.001 193.016 90.2618 220.775 105.083 245.536C103.888 233.704 101.649 221.893 98.8183 210.295C96.0668 199.017 92.7805 187.905 88.1051 177.203C86.4332 173.314 84.554 169.408 82.5069 165.645C82.007 164.719 80.4471 160.734 79.4104 160.651C77.6004 160.455 77.91 163.766 78.0346 164.819Z" fill="#F9F2F2"/>
<path d="M97.2177 172.818C107.228 195.108 122.301 215.403 140.871 231.751C136.662 222.391 131.647 213.332 126.24 204.606C120.968 196.153 115.265 187.873 108.666 180.356C106.225 177.606 103.672 174.95 101.008 172.39C100.379 171.766 98.0503 168.92 97.2045 169.061C95.72 169.36 96.8692 171.956 97.2177 172.818Z" fill="#F9F2F2"/>
<path d="M124.199 181.804C118.211 178.405 111.854 175.707 105.672 172.762C99.1325 169.737 92.6964 166.719 86.2043 163.749C73.2677 157.866 60.3623 152.246 46.887 147.884C20.9565 139.451 -5.27044 131.464 -31.7086 124.816C-47.0518 120.983 -62.6126 117.916 -78.2956 115.725C-80.257 115.465 -80.5363 118.311 -78.6309 118.62C-51.3639 122.726 -24.5837 129.662 1.86709 137.458C28.2142 145.247 54.5136 152.979 79.6382 164.321C86.6881 167.492 93.738 170.662 100.788 173.833C108.14 177.132 115.516 180.799 123.182 183.445C124.289 183.95 125.298 182.414 124.199 181.804Z" fill="#F9F2F2"/>
<path d="M168.552 222.172C164.712 212.111 156.48 204.151 147.605 197.705C143.513 194.718 139.238 192.081 135.026 189.294C132.892 187.924 130.759 186.554 128.681 185.136C126.755 183.782 124.67 181.79 122.551 180.891C121.246 182.873 126.635 189.198 127.851 190.964C130.242 194.337 132.857 197.519 135.752 200.462C141.581 206.509 148.354 211.849 155.632 216.081C159.717 218.493 164.042 220.508 168.552 222.172Z" fill="#F9F2F2"/>
<path d="M183.85 177.54C174.741 183.177 163.379 184.357 152.405 183.951C147.412 183.761 142.341 183.252 137.317 182.799C134.829 182.601 132.294 182.346 129.75 182.196C127.413 182.061 124.517 182.404 122.325 181.76C122.515 179.375 130.576 177.723 132.66 177.107C136.563 175.906 140.594 175.08 144.663 174.413C153.002 173.201 161.505 173.201 169.964 174.398C174.66 175.034 179.323 176.084 183.85 177.54Z" fill="#F9F2F2"/>
</svg>
