<svg width="250" height="360" viewBox="0 0 250 360" fill="none" xmlns="http://www.w3.org/2000/svg">
<path d="M23.003 63.0657C15.6458 65.2466 8.2887 67.4274 0.777781 68.8091C-11.3995 71.0507 -23.9752 71.0231 -36.2482 68.8592C-39.2768 68.3584 -39.7894 64.2372 -37.0684 63.1398C-31.5307 60.9777 -25.8976 58.8481 -20.2971 56.8141C-14.9202 54.8104 -9.48037 52.9349 -3.85186 51.4437C16.9685 45.7539 39.0284 45.1802 60.69 46.7101C66.2091 47.1013 73.0095 46.8635 78.2956 48.5617C69.3683 51.5929 59.5906 53.0539 50.4769 55.3816C41.2024 57.8676 32.119 60.4189 23.003 63.0657Z" fill="#F9F2F2"/>
<path d="M28.4319 75.9013C45.6738 70.6962 63.8548 68.0515 81.9356 70.3853C86.8467 70.9955 91.7228 72.0204 96.5988 73.0454C101.985 74.1378 107.467 75.2629 112.821 76.4509C109.939 77.7067 106.649 77.97 103.486 78.4897C93.4842 79.981 84.0398 83.9021 74.5999 87.185C55.5921 93.8135 35.7059 98.3291 15.4865 100.385C10.056 100.983 4.69067 101.391 -0.798113 101.224C-5.04283 101.161 -13.7908 101.48 -17.4416 98.7407C-22.4249 94.9062 -11.2937 91.6676 -8.89182 90.5679C-3.19113 87.9282 2.6051 85.3211 8.43161 82.9376C15.0898 80.3048 21.6502 77.9586 28.4319 75.9013Z" fill="#F9F2F2"/>
<path d="M-19.5023 153.817C-25.028 167.502 -30.2367 181.509 -32.7687 196.109C-35.7013 213.132 -34.9343 230.565 -34.2628 247.966C-26.3123 221.244 -12.3465 196.896 -2.19911 170.924C1.24857 162.076 4.2513 152.969 4.95924 143.398C5.34814 138.198 5.00318 132.961 4.01988 127.719C3.03427 122.797 1.37307 118.603 -3.16271 123.454C-10.7876 131.729 -15.2463 143.539 -19.5023 153.817Z" fill="#F9F2F2"/>
<path d="M115.853 111.619C94.008 117.812 71.9716 123.939 49.1359 125.848C40.0338 126.58 30.9363 126.673 21.7433 126.734C14.1461 126.807 6.26241 126.781 -0.640586 123.571C6.66523 119.666 14.9123 118.003 22.9707 115.955C40.3035 111.42 56.8559 104.487 74.5266 101.774C83.6333 100.404 93.0826 100.218 102.364 101.147C110.912 102.039 122.202 103.334 129.799 107.634C125.573 109.391 120.459 110.311 115.853 111.619Z" fill="#F9F2F2"/>
<path d="M91.7174 138.572C99.4357 139.394 107.119 140.631 114.77 141.963C127.362 144.13 139.856 146.582 152.381 149.259C153.178 149.424 153.201 150.605 152.306 150.727C144.131 151.242 136.103 153.513 128.11 155.37C100.615 161.554 71.5685 161.662 43.5234 155.713C37.0538 154.357 30.6191 152.587 24.7365 149.512C22.0969 148.184 18.8842 146.661 22.1853 144.801C24.6851 143.415 28.7737 142.998 31.5553 142.348C44.0564 139.47 56.9629 137.904 69.8601 137.615C77.1381 137.54 84.4138 137.785 91.7174 138.572Z" fill="#F9F2F2"/>
<path d="M10.43 212.031C11.316 235.051 14.7227 258.185 14.0454 281.097C21.0643 263.976 24.9008 245.555 27.5887 227.062C31.0499 203.18 32.5379 178.518 26.9971 154.762C26.2235 151.405 24.0543 142.452 20.4038 148.458C17.8832 152.717 16.3761 158.068 15.0646 162.846C12.1831 172.848 10.8298 183.371 10.4341 193.901C10.2316 199.805 10.283 205.902 10.43 212.031Z" fill="#F9F2F2"/>
<path d="M35.8951 221.473C33.883 247.983 31.8686 274.812 35.6016 301.363C38.828 292.226 42.0217 283.184 45.1525 274.014C47.2375 268.22 49.2595 262.298 50.8668 256.341C55.2298 240.126 56.4081 222.931 54.2969 205.999C53.2739 197.437 51.3563 188.996 48.6396 180.71C47.6401 177.702 46.2375 173.064 42.9224 176.838C40.4437 179.725 40.1131 185.691 39.4166 189.293C37.6161 199.877 36.7078 210.658 35.8951 221.473Z" fill="#F9F2F2"/>
<path d="M59.5703 323.626C65.2541 301.356 70.9379 279.086 73.5302 256.188C74.7949 244.674 75.2628 232.995 73.6549 221.461C72.8999 215.551 71.474 209.731 69.44 204.13C69.002 202.914 67.604 197.638 65.7193 197.847C64.2492 198.092 64.077 204.219 63.8115 205.622C60.0241 230.459 57.4156 255.592 57.3278 280.839C57.319 295.234 58.0136 309.443 59.5703 323.626Z" fill="#F9F2F2"/>
<path d="M104.355 327.719C104.919 307.327 105.386 286.903 103.172 266.523C102.066 256.333 100.129 246.073 96.5925 236.439C94.7449 231.542 92.45 226.706 89.6099 222.217C89.0741 221.287 86.8398 216.898 85.2393 217.525C83.9906 218.058 85.0694 223.333 85.1556 224.642C86.7172 246.933 89.3644 269.167 94.1526 291.066C96.8391 303.502 100.229 315.752 104.355 327.719Z" fill="#F9F2F2"/>
<path d="M56.3048 171.382C60.7498 170.234 65.323 169.022 69.768 167.873C74.8211 166.506 79.9371 165.266 85.0834 164.25C110.333 159.646 136.535 164.433 161.936 169.693C151.918 173.418 141.122 174.425 130.608 176.168C116.292 178.426 102.286 181.963 87.8167 183.421C78.2021 184.405 68.2752 184.428 58.6488 182.635C55.4292 182.069 48.0603 181.473 46.6833 177.696C45.12 173.216 53.3624 172.191 56.3048 171.382Z" fill="#F9F2F2"/>
<path d="M71.1272 196.068C108.612 185.616 148.717 183.417 187.803 189.83C172.099 194.28 155.893 197.386 139.662 199.63C123.879 201.814 108.037 203.23 92.0178 202.667C86.2098 202.497 80.2761 202.071 74.4402 201.358C73.0051 201.188 67.1319 201.21 66.5028 199.928C65.3379 197.717 69.72 196.441 71.1272 196.068Z" fill="#F9F2F2"/>
<path d="M91.0223 216.511C124.526 218.032 158.039 227.021 188.281 242.466C174.21 241.821 160.115 239.995 146.248 237.5C132.797 235.041 119.35 231.942 106.424 227.316C101.681 225.59 97.0028 223.673 92.39 221.564C91.2763 221.078 86.4678 219.542 86.2208 218.392C85.8527 216.346 89.7456 216.502 91.0223 216.511Z" fill="#F9F2F2"/>
<path d="M116.118 246.413C108.756 240.486 102.102 233.735 95.2226 227.333C88.0585 220.514 80.9574 213.824 73.8889 207.037C59.8474 193.498 46.1576 179.865 33.7865 164.869C9.92947 136.032 -13.5082 106.593 -35.3431 76.207C-47.9822 58.5599 -59.7548 40.2488 -70.4696 21.3389C-71.793 18.9673 -68.3008 17.1734 -66.9448 19.4494C-47.9358 52.1765 -25.5605 82.8533 -2.25324 112.675C20.9911 142.369 44.1399 172.03 71.3027 198.369C78.9094 205.765 86.5161 213.162 94.1228 220.558C102.046 228.276 110.45 235.838 117.698 244.286C118.902 245.443 117.451 247.508 116.118 246.413Z" fill="#F9F2F2"/>
<path d="M190.032 282.632C175.252 282.812 160.936 276.324 148.227 268.252C142.349 264.539 136.826 260.413 131.141 256.446C128.315 254.414 125.489 252.383 122.63 250.447C119.93 248.672 116.335 247.018 114.117 244.768C115.988 242.1 126.782 245.785 129.65 246.444C135.162 247.793 140.543 249.524 145.762 251.732C156.423 256.119 166.657 262.066 175.734 269.218C180.876 273.214 185.631 277.717 190.032 282.632Z" fill="#F9F2F2"/>
<path d="M140.797 324.697C143.392 310.225 139.161 295.128 133.101 281.327C130.337 275.051 127.127 268.836 124.012 262.653C122.502 259.578 120.897 256.47 119.42 253.299C118.068 250.385 117.043 246.515 115.114 244.043C112.167 245.49 114.129 256.612 114.395 259.582C114.833 265.171 115.814 270.732 117.018 276.263C119.682 287.518 123.976 298.369 129.775 308.562C132.957 314.234 136.652 319.655 140.797 324.697Z" fill="#F9F2F2"/>
</svg>
