<svg width="178" height="134" viewBox="0 0 178 134" fill="none" xmlns="http://www.w3.org/2000/svg">
<path d="M148.752 12.6742C147.27 8.91909 145.789 5.16396 144.719 1.29145C142.984 -4.9869 142.419 -11.5785 142.988 -18.1098C143.111 -19.72 145.247 -20.1784 145.948 -18.8029C147.336 -16.0004 148.711 -13.1464 150.035 -10.305C151.332 -7.5795 152.565 -4.81509 153.606 -1.9341C157.546 8.71495 158.862 20.2491 159.058 31.6713C159.107 34.5816 159.544 38.1344 158.898 40.9828C156.898 36.444 155.683 31.3872 154.043 26.7183C152.314 21.9724 150.558 17.3297 148.752 12.6742Z" fill="#F9F2F2"/>
<path d="M142.272 16.11C145.794 24.9061 148.016 34.3121 147.626 43.8948C147.532 46.4965 147.219 49.0991 146.907 51.7016C146.582 54.5746 146.245 57.4991 145.869 60.3594C145.078 58.907 144.789 57.1952 144.371 55.5612C143.129 50.3886 140.639 45.6197 138.484 40.8239C134.135 31.1679 130.854 20.9543 128.846 10.4529C128.282 7.63461 127.821 4.8417 127.656 1.95757C127.494 -0.26977 126.924 -4.83948 128.191 -6.87877C129.971 -9.66681 132.181 -3.98256 132.868 -2.77447C134.514 0.0914845 136.147 3.00899 137.664 5.95267C139.35 9.32073 140.882 12.6507 142.272 16.11Z" fill="#F9F2F2"/>
<path d="M99.2342 -5.42318C91.8082 -7.68896 84.2284 -9.77388 76.4605 -10.4287C67.4045 -11.1819 58.3039 -9.97742 49.216 -8.82454C63.5857 -5.88816 76.9883 0.309849 91.066 4.43206C95.8617 5.83152 100.772 6.98589 105.82 6.91633C108.563 6.88077 111.292 6.45891 113.994 5.70232C116.528 4.9592 118.649 3.89561 115.898 1.74191C111.211 -1.87298 104.817 -3.66595 99.2342 -5.42318Z" fill="#F9F2F2"/>
<path d="M127.582 63.5669C123.331 52.4039 119.105 41.1377 117.054 29.2585C116.251 24.5222 115.783 19.7589 115.328 14.9441C114.941 10.9661 114.591 6.83348 115.956 3.06818C118.338 6.71707 119.59 10.9624 121.034 15.0911C124.208 23.9657 128.603 32.3208 130.838 41.4563C131.976 46.1657 132.508 51.109 132.449 56.0158C132.375 60.5363 132.216 66.5124 130.312 70.6917C129.197 68.5579 128.479 65.9204 127.582 63.5669Z" fill="#F9F2F2"/>
<path d="M112.344 52.1597C112.268 56.2424 111.974 60.3258 111.628 64.3966C111.072 71.0952 110.362 77.7558 109.536 84.4425C109.486 84.8676 108.868 84.9342 108.763 84.471C108.117 80.2106 106.557 76.1081 105.216 72.0047C100.71 57.8806 99.3159 42.6636 101.143 27.6926C101.555 24.2398 102.187 20.7862 103.527 17.5618C104.102 16.1174 104.752 14.3636 105.879 16.008C106.72 17.2542 107.127 19.3777 107.596 20.8055C109.679 27.2242 111.094 33.9158 111.839 40.6613C112.213 44.4719 112.42 48.296 112.344 52.1597Z" fill="#F9F2F2"/>
<path d="M70.1022 12.9422C58.0794 14.4662 46.1129 17.3164 34.0743 18.0162C43.3698 20.9063 53.2 22.0689 63.0152 22.6262C75.6898 23.3407 88.6826 22.9852 100.877 18.988C102.601 18.4281 107.193 16.8791 103.877 15.2426C101.529 14.1177 98.6554 13.5742 96.0909 13.1069C90.717 12.0572 85.1399 11.8324 79.6033 12.1098C76.5002 12.2754 73.3076 12.583 70.1022 12.9422Z" fill="#F9F2F2"/>
<path d="M66.3266 26.7226C52.3415 26.8885 38.189 27.0679 24.4465 30.2464C29.3834 31.5166 34.2687 32.7741 39.2183 33.9927C42.3506 34.8186 45.5472 35.6056 48.7431 36.1737C57.4413 37.7137 66.5069 37.5397 75.2831 35.6538C79.7228 34.7236 84.0577 33.3302 88.2753 31.525C89.8055 30.8628 92.1717 29.9142 90.0412 28.3507C88.4144 27.1846 85.2724 27.286 83.3529 27.0868C77.7235 26.6304 72.0314 26.6507 66.3266 26.7226Z" fill="#F9F2F2"/>
<path d="M13.8867 43.8319C25.8189 45.7854 37.7511 47.7388 49.8705 48.0432C55.9624 48.176 62.1042 47.8836 68.0748 46.5101C71.1374 45.8423 74.1215 44.8272 76.9629 43.5034C77.58 43.2179 80.2809 42.2424 80.0843 41.2643C79.8884 40.5052 76.6695 40.697 75.9223 40.6224C62.7321 39.781 49.441 39.5709 36.2062 40.6871C28.662 41.3451 21.2478 42.3632 13.8867 43.8319Z" fill="#F9F2F2"/>
<path d="M13.8008 67.4895C24.5131 66.8459 35.2382 66.1508 45.8165 64.0525C51.1057 63.0033 56.3933 61.5163 61.2788 59.2194C63.76 58.0258 66.1889 56.6005 68.4108 54.9055C68.8733 54.5819 71.0705 53.2089 70.6684 52.3991C70.3313 51.7692 67.6169 52.5774 66.9347 52.6828C55.3252 54.5273 43.795 56.9381 32.5391 60.4554C26.1458 62.4358 19.8825 64.7762 13.8008 67.4895Z" fill="#F9F2F2"/>
<path d="M93.5194 35.112C94.326 37.3886 95.1715 39.7294 95.978 42.0059C96.9274 44.591 97.8125 47.215 98.5818 49.8652C102.157 62.8851 100.855 76.8368 99.2675 90.3904C96.854 85.3121 95.8295 79.7009 94.4321 74.2713C92.5898 66.8729 90.0916 59.6958 88.661 52.1801C87.703 47.1868 87.2337 41.9857 87.7305 36.8584C87.8789 35.145 87.8521 31.2559 89.7678 30.3605C92.0435 29.335 92.9603 33.6072 93.5194 35.112Z" fill="#F9F2F2"/>
<path d="M81.2628 44.016C88.4658 63.1788 91.464 84.0951 89.9027 104.873C86.8476 96.8481 84.474 88.4987 82.5508 80.0961C80.68 71.9251 79.2082 63.6883 78.766 55.2676C78.5877 52.2161 78.5379 49.0869 78.6428 45.9957C78.6658 45.2359 78.3844 42.159 79.0269 41.7703C80.1319 41.0581 81.0027 43.2958 81.2628 44.016Z" fill="#F9F2F2"/>
<path d="M71.4658 55.3838C72.2113 73.0114 69.0432 90.9877 62.3413 107.547C62.0315 100.143 62.3397 92.673 63.0087 85.2914C63.6785 78.1287 64.6831 70.9391 66.5125 63.9526C67.1988 61.3874 67.9882 58.8476 68.8807 56.3331C69.0845 55.7271 69.6677 53.1365 70.2594 52.9541C71.3144 52.667 71.4119 54.7143 71.4658 55.3838Z" fill="#F9F2F2"/>
<path d="M56.9512 69.9108C59.7181 65.7799 62.9498 61.9822 65.988 58.0821C69.2317 54.0139 72.411 49.9845 75.642 45.9679C82.0912 37.9861 88.6054 30.1844 95.8946 23.0109C109.908 9.18121 124.257 -4.45655 139.176 -17.2979C147.842 -24.7338 156.896 -31.7462 166.312 -38.2318C167.494 -39.0345 168.595 -37.287 167.465 -36.4716C151.189 -25.0034 136.143 -11.8654 121.588 1.72163C107.097 15.2698 92.6183 28.7663 80.0658 44.2135C76.5398 48.5403 73.0137 52.8671 69.4877 57.1939C65.8078 61.7015 62.2318 66.4535 58.1386 70.6406C57.5873 71.3251 56.4387 70.6596 56.9512 69.9108Z" fill="#F9F2F2"/>
<path d="M41.3745 110.314C40.5999 102.577 43.3408 94.7757 46.986 87.7441C48.6614 84.4928 50.5692 81.4081 52.3866 78.2464C53.3211 76.672 54.2556 75.0975 55.1385 73.5103C55.9445 72.0136 56.6458 70.0536 57.723 68.7877C59.2071 69.6452 57.7727 75.4713 57.5592 77.0045C57.1062 79.9552 56.4469 82.8552 55.5298 85.6917C53.7218 91.4804 51.0761 97.1177 47.746 102.204C45.8889 105.082 43.7479 107.781 41.3745 110.314Z" fill="#F9F2F2"/>
<path d="M17.0625 86.4473C24.7661 87.1409 32.4826 84.2286 39.4361 80.4176C42.5979 78.6806 45.7074 76.712 48.8042 74.795C50.3462 73.8622 51.901 72.8779 53.4946 71.9579C54.9597 71.1156 56.9404 70.4002 58.1469 69.2755C57.253 67.7977 51.5149 69.3378 49.9705 69.6138C47.0617 70.1007 44.1927 70.8707 41.3498 71.7566C35.5743 73.6703 30.0851 76.4201 25.0108 79.9283C22.1845 81.8572 19.5136 84.0432 17.0625 86.4473Z" fill="#F9F2F2"/>
</svg>
