<svg width="272" height="279" viewBox="0 0 272 279" fill="none" xmlns="http://www.w3.org/2000/svg">
<g opacity="0.86">
<path d="M-5.95378 164.701C-6.55714 171.178 -7.16049 177.656 -8.44124 184.003C-10.5166 194.294 -14.5035 204.183 -20.0762 213.159C-21.4253 215.385 -24.8304 214.489 -24.8361 212.002C-24.7918 206.962 -24.6916 201.857 -24.5266 196.808C-24.4082 191.944 -24.1691 187.071 -23.568 182.172C-21.4813 163.991 -14.9773 146.449 -6.94326 129.883C-4.89518 125.663 -2.93818 120.235 0.065076 116.611C-0.364089 124.592 -2.29717 132.748 -3.33883 140.655C-4.30649 148.738 -5.16258 156.691 -5.95378 164.701Z" fill="#F9F2F2"/>
<path d="M5.86177 164.476C7.20168 149.265 10.8527 134.122 18.3904 120.628C20.4191 116.955 22.7632 113.441 25.1073 109.926C27.6654 106.031 30.2793 102.072 32.9023 98.2329C32.982 100.897 32.1521 103.569 31.5635 106.223C29.5838 114.564 29.692 123.234 29.2992 131.698C28.5229 148.748 25.8066 165.823 21.049 182.384C19.8081 186.847 18.4374 191.198 16.5749 195.465C15.1871 198.786 12.6802 205.771 9.373 207.781C4.78385 210.494 5.74467 200.712 5.63651 198.475C5.35642 193.156 5.13212 187.772 5.09339 182.435C5.12069 176.365 5.34266 170.462 5.86177 164.476Z" fill="#F9F2F2"/>
<path d="M3.81643 250.739C11.3543 262.974 20.741 273.977 30.9269 284.313C27.0128 275.87 22.978 267.437 19.8256 258.633C17.8378 253.2 16.2029 247.619 14.0945 242.196C11.9029 236.475 9.06124 230.985 5.87579 225.764C3.86638 222.457 1.55983 219.233 -1.31367 216.537C-3.34356 214.566 -8.08074 210.494 -11.1819 211.214C-11.0988 217.943 -8.1672 225.428 -5.69783 231.614C-3.25693 238.226 0.0196158 244.654 3.81643 250.739Z" fill="#F9F2F2"/>
<path d="M47.4638 259.824C58.0334 268.007 70.0066 274.688 83.1912 278.123C77.2211 272.991 71.1952 267.924 65.225 262.792C60.6176 258.831 55.9545 254.935 51.8582 250.511C48.1605 246.542 44.983 242.231 41.6291 237.994C37.534 232.781 33.448 227.688 29.0649 222.679C25.2009 218.116 21.0956 213.571 16.1535 210C14.6142 208.902 10.3313 205.221 8.24225 205.682C4.8906 206.299 7.82672 210.628 8.61341 212.207C14.2955 223.976 21.7332 234.883 30.6577 244.586C35.8662 250.08 41.4094 255.183 47.4638 259.824Z" fill="#F9F2F2"/>
<path d="M52.0675 226.768C61.0956 235.431 70.4766 243.947 81.1691 250.543C93.6421 258.219 107.604 263.112 121.511 268.07C102.987 253.387 88.2275 234.719 70.9865 218.543C65.1097 213.04 58.8891 207.805 51.5801 204.231C47.6103 202.285 43.3797 200.905 38.9443 200.026C34.7593 199.25 30.9352 199.235 33.3225 204.334C37.4313 212.945 45.3198 220.177 52.0675 226.768Z" fill="#F9F2F2"/>
<path d="M61.5353 106.934C59.5214 126.08 57.396 145.355 51.698 163.93C49.4041 171.324 46.6091 178.513 43.7585 185.768C41.4201 191.77 38.9143 197.966 34.2114 202.387C33.4417 195.406 34.7327 188.391 35.6617 181.403C37.5583 166.332 37.3203 151.118 40.7572 136.356C42.5503 128.757 45.3828 121.261 49.0406 114.249C52.4378 107.803 57.0166 99.3261 62.7966 94.7028C62.8467 98.5827 61.9587 102.897 61.5353 106.934Z" fill="#F9F2F2"/>
<path d="M75.1388 134.428C78.2194 128.613 81.6154 122.956 85.0764 117.354C90.7516 108.127 96.6215 99.067 102.677 90.0537C103.058 89.4788 103.995 89.8329 103.809 90.5752C101.636 97.1714 100.893 104.206 99.8343 111.082C96.0319 134.671 86.9584 157.566 73.4335 177.762C70.3267 182.427 66.9045 186.933 62.6296 190.593C60.7522 192.252 58.5402 194.3 58.1178 191.116C57.815 188.711 58.7758 185.362 59.1413 182.968C60.8182 172.222 63.6552 161.57 67.494 151.328C69.73 145.577 72.2164 139.928 75.1388 134.428Z" fill="#F9F2F2"/>
<path d="M107.319 221.566C125.715 228.127 144.997 232.74 162.816 240.497C151.554 229.575 138.266 220.747 124.559 212.801C106.854 202.547 87.9137 193.6 67.4702 190.47C64.5842 190.02 56.854 188.905 60.43 193.671C62.987 196.998 66.7234 199.871 70.0705 202.41C77.0334 207.832 84.8889 212.215 93.0517 215.846C97.634 217.867 102.449 219.749 107.319 221.566Z" fill="#F9F2F2"/>
<path d="M122.783 204.5C143.013 214.442 163.493 224.487 185.566 229.921C179.392 224.5 173.283 219.136 167.054 213.781C163.151 210.313 159.128 206.854 154.946 203.711C143.56 195.165 130.398 188.815 116.407 185.138C109.346 183.244 102.098 182.092 94.72 181.617C92.0378 181.455 87.945 181.097 89.8702 184.896C91.3604 187.757 95.9519 189.898 98.5669 191.582C106.329 196.336 114.528 200.451 122.783 204.5Z" fill="#F9F2F2"/>
<path d="M210.643 218.076C194.908 206.581 179.173 195.086 161.968 185.826C153.306 181.2 144.262 177.15 134.677 174.778C129.787 173.509 124.758 172.796 119.708 172.631C118.613 172.593 114.02 172.029 113.59 173.579C113.319 174.813 118.087 176.88 119.107 177.531C137.461 188.343 156.418 198.321 176.261 206.35C187.587 210.896 198.989 214.829 210.643 218.076Z" fill="#F9F2F2"/>
<path d="M227.988 184.12C212.117 177.248 196.19 170.44 179.452 165.756C171.083 163.414 162.398 161.703 153.701 161.449C149.264 161.359 144.734 161.641 140.306 162.46C139.405 162.589 135.246 162.964 135.235 164.421C135.261 165.572 139.752 166.386 140.81 166.731C158.846 172.53 177.18 177.457 195.924 180.594C206.559 182.4 217.268 183.595 227.988 184.12Z" fill="#F9F2F2"/>
<path d="M89.7949 172.644C90.2924 168.783 90.7807 164.802 91.2782 160.941C91.7951 156.533 92.4326 152.116 93.2557 147.746C97.5932 126.422 109.622 107.309 121.771 88.9766C121.544 98.0354 118.932 106.849 116.989 115.674C114.252 127.653 112.62 139.791 109.206 151.639C106.948 159.516 103.837 167.336 99.3899 174.347C97.9292 176.702 95.1366 182.314 91.7303 182.207C87.7115 182.025 89.5034 175.214 89.7949 172.644Z" fill="#F9F2F2"/>
<path d="M113.896 168.762C117.488 135.965 128.404 103.707 145.774 74.9678C144.325 88.7308 141.66 102.464 138.309 115.946C135.05 129.056 131.171 141.971 125.676 154.401C123.711 158.918 121.505 163.454 119.104 167.822C118.518 168.898 116.683 173.527 115.476 173.618C113.368 173.838 113.745 169.987 113.896 168.762Z" fill="#F9F2F2"/>
<path d="M136.258 159.549C148.018 133.66 165.66 110.119 187.351 91.1873C182.407 102.059 176.525 112.576 170.19 122.702C164.013 132.514 157.334 142.12 149.618 150.834C146.764 154.023 143.78 157.1 140.666 160.066C139.932 160.789 137.208 164.089 136.224 163.921C134.498 163.566 135.848 160.551 136.258 159.549Z" fill="#F9F2F2"/>
<path d="M167.706 149.227C160.72 153.152 153.308 156.26 146.101 159.657C138.475 163.145 130.971 166.624 123.401 170.047C108.318 176.829 93.2716 183.305 77.5687 188.313C47.3516 197.997 16.7918 207.161 -14.0071 214.765C-31.881 219.148 -50.0042 222.64 -68.2652 225.11C-70.5489 225.404 -70.8598 222.09 -68.6409 221.74C-36.8902 217.099 -5.69175 209.161 25.1276 200.221C55.8263 191.289 86.4693 182.423 115.763 169.35C123.983 165.695 132.202 162.041 140.422 158.386C148.995 154.584 157.596 150.354 166.529 147.313C167.82 146.73 168.987 148.523 167.706 149.227Z" fill="#F9F2F2"/>
<path d="M219.513 102.474C214.995 114.163 205.375 123.384 195.015 130.841C190.239 134.296 185.25 137.343 180.335 140.566C177.845 142.15 175.356 143.733 172.931 145.373C170.682 146.938 168.247 149.246 165.777 150.282C164.267 147.968 170.571 140.635 171.994 138.586C174.793 134.673 177.852 130.984 181.236 127.573C188.049 120.565 195.957 114.386 204.448 109.497C209.213 106.71 214.257 104.388 219.513 102.474Z" fill="#F9F2F2"/>
<path d="M237.098 154.487C226.526 147.882 213.31 146.452 200.538 146.87C194.727 147.066 188.823 147.633 182.975 148.135C180.079 148.353 177.127 148.637 174.165 148.8C171.446 148.944 168.077 148.531 165.523 149.27C165.733 152.046 175.105 154.008 177.526 154.736C182.063 156.153 186.749 157.134 191.482 157.93C201.179 159.383 211.073 159.425 220.923 158.075C226.392 157.359 231.823 156.16 237.098 154.487Z" fill="#F9F2F2"/>
</g>
</svg>
