<svg width="236" height="358" viewBox="0 0 236 358" fill="none" xmlns="http://www.w3.org/2000/svg">
<g opacity="0.86">
<path d="M273.398 229.185C280.642 212.205 285.383 193.982 285.041 175.299C284.972 170.227 284.477 165.144 283.981 160.062C283.475 154.451 282.946 148.74 282.338 143.152C280.734 145.947 280.096 149.268 279.21 152.433C276.565 162.454 271.507 171.634 267.1 180.881C258.208 199.499 251.369 219.249 246.998 239.616C245.777 245.081 244.757 250.501 244.31 256.112C243.896 260.443 242.586 269.319 244.966 273.347C248.311 278.855 252.864 267.88 254.255 265.557C257.586 260.046 260.894 254.435 263.978 248.768C267.41 242.281 270.538 235.862 273.398 229.185Z" fill="#F9F2F2"/>
<path d="M226.402 322.309C211.391 331.054 195.112 337.432 178.361 342.643C187.347 335.875 196.456 329.185 204.836 321.597C210.052 316.939 214.977 311.922 220.316 307.342C225.914 302.493 232.073 298.261 238.445 294.511C242.473 292.131 246.77 290.009 251.37 288.774C254.657 287.83 262.029 286.19 264.925 288.725C260.999 295.851 253.607 302.16 247.448 307.345C241.076 313.002 233.919 317.987 226.402 322.309Z" fill="#F9F2F2"/>
<path d="M174.687 307.107C158.754 309.804 142.181 310.101 126.168 306.246C135.458 304.178 144.771 302.212 154.061 300.145C161.231 298.549 168.423 297.055 175.312 294.674C181.516 292.551 187.361 289.767 193.353 287.162C200.69 283.94 207.949 280.841 215.477 278C222.198 275.338 229.165 272.834 236.469 271.844C238.736 271.552 245.401 270.069 247.365 271.751C250.586 274.32 244.988 277.262 243.249 278.496C230.482 287.802 216.335 295.189 201.289 300.445C192.605 303.331 183.787 305.612 174.687 307.107Z" fill="#F9F2F2"/>
<path d="M188.629 269.246C174.066 273.334 159.21 277.064 144.051 278C126.379 279.071 108.706 276.327 91.0545 273.684C119.172 268.593 145.549 257.106 173.15 249.692C182.552 247.176 192.168 245.143 201.997 245.499C207.338 245.688 212.635 246.629 217.864 248.221C222.768 249.779 226.853 251.943 221.401 256.018C212.112 262.854 199.58 266.067 188.629 269.246Z" fill="#F9F2F2"/>
<path d="M246.859 136.105C238.09 157.663 229.367 179.422 224.852 202.471C223.081 211.661 221.962 220.919 220.865 230.277C219.936 238.009 219.074 246.043 221.567 253.437C226.368 246.433 228.991 238.219 231.985 230.24C238.555 213.093 247.482 197.011 252.235 179.315C254.656 170.191 255.91 160.586 256.008 151.026C256.061 142.218 256.013 130.57 252.487 122.347C250.222 126.454 248.709 131.56 246.859 136.105Z" fill="#F9F2F2"/>
<path d="M216.68 157.658C216.711 149.702 216.316 141.736 215.82 133.791C215.031 120.719 213.938 107.715 212.622 94.6543C212.543 93.8239 211.342 93.6672 211.118 94.5649C209.673 102.835 206.455 110.758 203.663 118.692C194.268 146.006 190.888 175.585 193.792 204.825C194.445 211.569 195.524 218.323 197.994 224.662C199.05 227.501 200.24 230.945 202.506 227.792C204.199 225.401 205.085 221.283 206.06 218.522C210.399 206.111 213.447 193.139 215.194 180.032C216.089 172.626 216.659 165.187 216.68 157.658Z" fill="#F9F2F2"/>
<path d="M132.692 232.199C109.34 228.705 86.1564 222.63 62.7381 220.741C80.9704 215.518 100.169 213.683 119.311 213.027C144.03 212.189 169.322 213.45 192.899 221.769C196.232 222.935 205.109 226.152 198.579 229.195C193.957 231.284 188.336 232.217 183.32 233.015C172.807 234.824 161.934 235.018 151.162 234.236C145.125 233.778 138.92 233.039 132.692 232.199Z" fill="#F9F2F2"/>
<path d="M125.943 205.193C98.7096 204.259 71.1511 203.29 44.5223 196.498C54.1939 194.24 63.7646 192.004 73.4587 189.847C79.596 188.375 85.8568 186.982 92.1065 186.015C109.116 183.396 126.767 184.132 143.779 188.188C152.386 190.194 160.768 193.098 168.905 196.799C171.856 198.156 176.423 200.107 172.205 203.059C168.986 205.259 162.87 204.924 159.123 205.228C148.138 205.871 137.051 205.583 125.943 205.193Z" fill="#F9F2F2"/>
<path d="M24.5391 169.574C47.8661 166.29 71.1931 163.007 94.8128 162.944C106.684 162.952 118.635 163.79 130.204 166.727C136.14 168.161 141.909 170.269 147.385 172.972C148.575 173.555 153.793 175.573 153.367 177.469C152.952 178.939 146.691 178.425 145.232 178.538C119.503 179.6 93.6058 179.428 67.8757 176.675C53.2097 175.064 38.8128 172.756 24.5391 169.574Z" fill="#F9F2F2"/>
<path d="M25.4102 123.489C46.2476 125.211 67.1076 127.034 87.6204 131.584C97.8769 133.859 108.111 136.986 117.527 141.674C122.307 144.107 126.976 146.99 131.23 150.388C132.116 151.039 136.336 153.809 135.518 155.369C134.833 156.581 129.582 154.888 128.258 154.653C105.725 150.553 83.3718 145.353 61.6014 138.01C49.2349 133.873 37.1375 129.04 25.4102 123.489Z" fill="#F9F2F2"/>
<path d="M179.272 190.041C180.942 185.642 182.691 181.12 184.362 176.721C186.324 171.727 188.163 166.654 189.777 161.526C197.31 136.322 195.383 109.09 192.885 82.6207C187.962 92.4066 185.721 103.291 182.761 113.806C178.85 128.136 173.67 142.007 170.554 156.583C168.47 166.267 167.329 176.378 168.072 186.386C168.286 189.73 168.064 197.304 171.756 199.132C176.144 201.229 178.117 192.948 179.272 190.041Z" fill="#F9F2F2"/>
<path d="M155.786 172.16C170.654 135.15 177.408 94.5398 175.275 53.9998C168.974 69.4975 163.985 85.6568 159.872 101.939C155.871 117.773 152.644 133.752 151.414 150.135C150.934 156.071 150.7 162.164 150.769 168.189C150.78 169.671 150.098 175.651 151.332 176.437C153.453 177.872 155.247 173.552 155.786 172.16Z" fill="#F9F2F2"/>
<path d="M137.199 149.59C139.422 115.287 134.037 80.1343 121.707 47.5865C120.78 61.9942 121.054 76.5587 122.034 90.9658C123.025 104.947 124.668 118.995 127.926 132.683C129.15 137.709 130.577 142.691 132.205 147.628C132.576 148.817 133.598 153.889 134.743 154.27C136.785 154.875 137.065 150.892 137.199 149.59Z" fill="#F9F2F2"/>
<path d="M109.56 120.658C114.769 128.826 120.897 136.364 126.645 144.094C132.785 152.16 138.801 160.147 144.919 168.112C157.132 183.941 169.479 199.422 183.363 213.713C210.054 241.264 237.407 268.455 265.904 294.12C282.459 308.982 299.788 323.037 317.846 336.082C320.113 337.697 322.334 334.341 320.168 332.703C288.968 309.654 260.235 283.406 232.478 256.304C204.845 229.281 177.234 202.36 153.459 171.723C146.78 163.141 140.101 154.559 133.423 145.977C126.452 137.036 119.694 127.624 111.905 119.289C110.861 117.931 108.594 119.178 109.56 120.658Z" fill="#F9F2F2"/>
<path d="M80.983 41.2806C79.1359 56.317 84.1336 71.6319 90.9262 85.4875C94.0475 91.8937 97.6287 97.9855 101.03 104.223C102.782 107.331 104.533 110.439 106.183 113.569C107.688 116.519 108.968 120.368 111.011 122.881C113.939 121.275 111.4 109.864 111.051 106.868C110.298 101.101 109.14 95.4238 107.478 89.8588C104.21 78.5044 99.3029 67.4084 93.0388 57.3565C89.5475 51.6685 85.4952 46.3174 80.983 41.2806Z" fill="#F9F2F2"/>
<path d="M32.5898 86.7054C47.6254 85.6911 62.5283 91.7011 75.9057 99.4284C81.9884 102.95 87.959 106.92 93.9071 110.79C96.87 112.674 99.8553 114.659 102.919 116.521C105.736 118.226 109.563 119.706 111.864 121.949C110.058 124.789 98.9484 121.538 95.9523 120.933C90.3079 119.857 84.7531 118.232 79.2544 116.382C68.0886 112.402 57.517 106.806 47.7866 99.7507C42.3658 95.8699 37.2591 91.4953 32.5898 86.7054Z" fill="#F9F2F2"/>
</g>
</svg>
