<svg width="35" height="35" viewBox="0 0 35 35" fill="none" xmlns="http://www.w3.org/2000/svg">
<path d="M2.34985 7.35451C3.53418 5.24902 5.17745 3.60311 7.29126 2.34698C9.40792 1.15738 11.715 0.5 14.2188 0.5C16.7201 0.5 18.959 1.15609 21.0779 2.34697C23.1894 3.60174 24.8358 5.24813 26.0905 7.35965C27.2814 9.47848 27.9375 11.7174 27.9375 14.2188C27.9375 17.3883 26.9495 20.2191 25.0362 22.6603L24.4025 23.4688H25.4297H26.5234C26.7682 23.4688 27.0618 23.5938 27.3525 23.8213L34.1475 30.6163C34.375 30.9069 34.5 31.2005 34.5 31.4453C34.5 31.7789 34.3567 32.0651 34.1679 32.2539L32.2539 34.1679C32.0157 34.4061 31.7374 34.5 31.4453 34.5C31.0589 34.5 30.8203 34.3924 30.6736 34.2091L30.6563 34.1875L30.6368 34.1679L23.8008 27.332L23.7812 27.3124L23.7596 27.2951C23.5763 27.1485 23.4688 26.9098 23.4688 26.5234V25.4297V24.3979L22.6589 25.0372C20.1525 27.016 17.3914 27.9375 14.2188 27.9375C11.7042 27.9375 9.40097 27.3432 7.29629 26.0935L7.29636 26.0934L7.28615 26.0877C5.17846 24.9021 3.53542 23.259 2.34985 21.1514L2.34997 21.1513L2.34399 21.1412C1.09433 19.0365 0.5 16.7333 0.5 14.2188C0.5 11.7068 1.09311 9.4714 2.34399 7.36464L2.34411 7.36471L2.34985 7.35451ZM22.2354 18.9194L22.2402 18.9113L22.2447 18.9031C23.034 17.4681 23.4688 15.9503 23.4688 14.2188C23.4688 12.5536 23.0329 11.0359 22.2447 9.60279L22.2402 9.59456L22.2354 9.5865C21.3729 8.14894 20.2886 7.06465 18.851 6.20211L18.8429 6.19728L18.8347 6.19275C17.4016 5.40456 15.8839 4.96875 14.2188 4.96875C12.4872 4.96875 10.9694 5.40354 9.53443 6.19275L9.5262 6.19728L9.51814 6.20211C8.08428 7.06243 6.99493 8.14768 6.19728 9.59456C5.328 11.0468 4.96875 12.571 4.96875 14.2188C4.96875 15.9327 5.32707 17.4575 6.19729 18.9113C6.99303 20.3547 8.08277 21.4445 9.52621 22.2402C10.98 23.1104 12.5048 23.4688 14.2188 23.4688C15.8665 23.4688 17.3907 23.1095 18.8429 22.2402C20.2898 21.4426 21.3751 20.3532 22.2354 18.9194Z" fill="url(#paint0_linear)" stroke="white"/>
<defs>
<linearGradient id="paint0_linear" x1="34.0512" y1="13.6436" x2="0.444008" y2="13.8439" gradientUnits="userSpaceOnUse">
<stop offset="0.4375" stop-color="#12CAD6"/>
<stop offset="1" stop-color="#12B3D6"/>
</linearGradient>
</defs>
</svg>
