<svg width="80" height="80" viewBox="0 0 80 80" fill="none" xmlns="http://www.w3.org/2000/svg">
<g filter="url(#filter0_d)">
<path fill-rule="evenodd" clip-rule="evenodd" d="M36 56C47.0457 56 56 47.0457 56 36C56 24.9543 47.0457 16 36 16C24.9543 16 16 24.9543 16 36C16 47.0457 24.9543 56 36 56Z" fill="#25D366"/>
<path fill-rule="evenodd" clip-rule="evenodd" d="M36.6566 47.1271H36.6517C34.6613 47.1264 32.7056 46.627 30.9685 45.6796L24.6641 47.3333L26.3512 41.1707C25.3105 39.3671 24.7629 37.3212 24.7638 35.2252C24.7664 28.6681 30.1014 23.3333 36.6565 23.3333C39.8379 23.3347 42.8239 24.5732 45.0692 26.8212C47.3146 29.069 48.5504 32.057 48.5492 35.2346C48.5466 41.7902 43.2136 47.1244 36.6566 47.1271ZM31.2584 43.5267L31.6194 43.7409C33.137 44.6415 34.8767 45.118 36.6504 45.1187H36.6544C42.1026 45.1187 46.5368 40.6844 46.539 35.234C46.54 32.5928 45.5128 30.1093 43.6466 28.2409C41.7804 26.3725 39.2985 25.343 36.6583 25.3421C31.206 25.3421 26.7717 29.776 26.7695 35.226C26.7688 37.0937 27.2914 38.9127 28.2808 40.4865L28.5159 40.8605L27.5173 44.5081L31.2584 43.5267ZM42.6477 38.0628C42.5734 37.9388 42.3753 37.8645 42.0782 37.7157C41.781 37.5669 40.3201 36.8482 40.0476 36.7489C39.7753 36.6498 39.5771 36.6002 39.3791 36.8976C39.181 37.1951 38.6115 37.8645 38.4382 38.0628C38.2648 38.261 38.0915 38.2859 37.7944 38.1372C37.4973 37.9884 36.5398 37.6747 35.4047 36.6623C34.5213 35.8743 33.925 34.9012 33.7516 34.6037C33.5783 34.3062 33.7331 34.1455 33.8819 33.9973C34.0156 33.8641 34.1791 33.6501 34.3276 33.4767C34.4762 33.3032 34.5257 33.1792 34.6248 32.981C34.7238 32.7826 34.6743 32.6091 34.6 32.4604C34.5257 32.3116 33.9315 30.8489 33.6838 30.2539C33.4426 29.6745 33.1976 29.753 33.0152 29.7438C32.8421 29.7351 32.6438 29.7333 32.4457 29.7333C32.2476 29.7333 31.9257 29.8077 31.6533 30.1052C31.3809 30.4027 30.6133 31.1216 30.6133 32.5842C30.6133 34.0468 31.6781 35.4598 31.8266 35.6581C31.9752 35.8565 33.922 38.8579 36.9029 40.1451C37.6119 40.4513 38.1654 40.6341 38.597 40.771C39.3088 40.9973 39.9567 40.9653 40.4686 40.8888C41.0396 40.8035 42.2267 40.17 42.4744 39.4759C42.7219 38.7817 42.7219 38.1867 42.6477 38.0628Z" fill="#FDFDFD"/>
</g>
<defs>
<filter id="filter0_d" x="0" y="0" width="80" height="80" filterUnits="userSpaceOnUse" color-interpolation-filters="sRGB">
<feFlood flood-opacity="0" result="BackgroundImageFix"/>
<feColorMatrix in="SourceAlpha" type="matrix" values="0 0 0 0 0 0 0 0 0 0 0 0 0 0 0 0 0 0 127 0"/>
<feOffset dx="4" dy="4"/>
<feGaussianBlur stdDeviation="10"/>
<feColorMatrix type="matrix" values="0 0 0 0 0 0 0 0 0 0 0 0 0 0 0 0 0 0 0.21 0"/>
<feBlend mode="normal" in2="BackgroundImageFix" result="effect1_dropShadow"/>
<feBlend mode="normal" in="SourceGraphic" in2="effect1_dropShadow" result="shape"/>
</filter>
</defs>
</svg>
