<svg width="75" height="51" viewBox="0 0 75 51" fill="none" xmlns="http://www.w3.org/2000/svg">
<g opacity="0.86">
<path d="M-4.46846 54.5784C-5.52408 50.2047 -6.46979 45.7482 -6.5817 41.232C-6.70629 35.9672 -5.69686 30.7439 -4.7177 25.5262C-3.5127 33.9399 -0.387633 41.9062 1.5134 50.1917C2.15822 53.0141 2.6573 55.8946 2.44363 58.8125C2.32883 60.398 1.99103 61.9621 1.46053 63.499C0.943566 64.9396 0.25541 66.1301 -0.895996 64.4648C-2.82615 61.6288 -3.6437 57.8683 -4.46846 54.5784Z" fill="#F9F2F2"/>
<path d="M7.15699 38.3585C8.45166 31.4557 10.5116 24.631 11.3301 17.6908C12.6826 23.1675 13.0174 28.8942 13.0026 34.5914C12.9805 41.9482 12.3285 49.4523 9.59715 56.3693C9.21402 57.3472 8.16021 59.9504 7.32737 57.9761C6.75729 56.5793 6.54162 54.8981 6.35938 53.3986C5.93677 50.2537 5.99836 47.0196 6.34903 43.8263C6.55145 42.0368 6.83909 40.2004 7.15699 38.3585Z" fill="#F9F2F2"/>
<path d="M15.2583 36.6476C15.8348 28.5629 16.4247 20.3819 18.7357 12.5411C19.3008 15.4407 19.8604 18.3101 20.3954 21.2152C20.7655 23.0557 21.111 24.9319 21.3298 26.8002C21.9219 31.8851 21.5097 37.1235 20.1173 42.1357C19.4266 44.6721 18.4716 47.132 17.2824 49.5098C16.8467 50.3723 16.2167 51.7085 15.3854 50.4223C14.7667 49.4411 14.9333 47.627 14.884 46.5097C14.8134 43.2375 15.0207 39.9453 15.2583 36.6476Z" fill="#F9F2F2"/>
<path d="M26.9575 6.89697C27.6777 13.8668 28.3978 20.8367 28.1575 27.8582C28.025 31.3869 27.6448 34.9299 26.6451 38.3366C26.1536 40.0854 25.4638 41.7768 24.6004 43.3751C24.4141 43.7223 23.7569 45.2512 23.1979 45.1039C22.7655 44.9645 22.987 43.109 22.9695 42.6741C22.9359 35.0147 23.271 27.3187 24.3715 19.7007C25.0113 15.359 25.855 11.1049 26.9575 6.89697Z" fill="#F9F2F2"/>
<path d="M40.6465 7.66211C39.9061 13.8371 39.1355 20.0176 37.5582 26.0651C36.7696 29.0888 35.7277 32.0966 34.2311 34.8439C33.4553 36.2383 32.5474 37.5944 31.4905 38.8215C31.2874 39.0779 30.4176 40.3019 29.9629 40.0414C29.6102 39.8248 30.1709 38.2823 30.2554 37.8913C31.7213 31.2386 33.512 24.6512 35.9335 18.2605C37.2988 14.63 38.8679 11.0871 40.6465 7.66211Z" fill="#F9F2F2"/>
<path d="M19.1777 52.6655C20.467 53.2103 21.7921 53.7798 23.0813 54.3247C24.5442 54.9627 26.0318 55.5648 27.5384 56.1009C34.9476 58.6165 43.0634 58.3424 50.9586 57.8899C48.1038 56.3192 44.8929 55.5338 41.7999 54.5388C37.5832 53.2189 33.5171 51.5271 29.2184 50.4413C26.3627 49.7156 23.37 49.2654 20.3868 49.3766C19.3906 49.4036 17.1417 49.2545 16.5578 50.3319C15.8864 51.6132 18.3264 52.2903 19.1777 52.6655Z" fill="#F9F2F2"/>
<path d="M24.7497 45.882C35.5878 50.7073 47.5848 53.1603 59.6585 52.971C55.121 50.9279 50.3724 49.2679 45.5776 47.8667C40.915 46.5038 36.2006 45.3693 31.3444 44.8242C29.5853 44.6162 27.7768 44.4799 25.9849 44.4343C25.5445 44.4216 23.7743 44.153 23.5273 44.5114C23.0774 45.1261 24.3419 45.7068 24.7497 45.882Z" fill="#F9F2F2"/>
<path d="M31.6627 40.6045C41.8346 41.6414 52.3427 40.4263 62.1526 37.1182C57.8802 36.6846 53.5479 36.6062 49.2547 36.7396C45.0881 36.881 40.8944 37.2152 36.7899 38.0335C35.2824 38.3424 33.786 38.7117 32.3007 39.1417C31.9431 39.2388 30.4244 39.4871 30.2986 39.8232C30.0963 40.4236 31.2773 40.5503 31.6627 40.6045Z" fill="#F9F2F2"/>
<path d="M40.5648 32.7075C38.08 34.1662 35.772 35.9053 33.4114 37.5289C30.9465 39.2655 28.5063 40.9664 26.0717 42.6975C21.2327 46.1541 16.4956 49.6545 12.0954 53.6248C3.61344 61.2565 -4.76895 69.0888 -12.7102 77.278C-17.3096 82.0359 -21.6773 87.0327 -25.7527 92.2573C-26.2577 92.9135 -25.2846 93.6104 -24.774 92.9845C-17.5805 83.9631 -9.46328 75.7102 -1.10317 67.7568C7.23224 59.8393 15.5374 51.9273 24.9048 45.1964C27.529 43.3052 30.1532 41.4141 32.7773 39.5229C35.5114 37.549 38.3833 35.6435 40.9462 33.4195C41.3611 33.1241 41.0155 32.4368 40.5648 32.7075Z" fill="#F9F2F2"/>
<path d="M64.4731 25.0829C60.0239 24.369 55.4168 25.6866 51.2238 27.5537C49.2854 28.4112 47.4353 29.4089 45.5439 30.3516C44.601 30.8381 43.658 31.3246 42.7095 31.7809C41.8159 32.1957 40.658 32.5341 39.8887 33.1138C40.3338 34.0017 43.7534 33.3721 44.6477 33.3013C46.3703 33.1406 48.0705 32.8588 49.7429 32.4257C53.1538 31.5787 56.5059 30.2419 59.5625 28.4901C61.2914 27.5147 62.9265 26.3689 64.4731 25.0829Z" fill="#F9F2F2"/>
<path d="M51.502 10.1997C51.6386 14.6801 49.6887 19.044 47.2451 22.9356C46.1317 24.7051 44.886 26.4362 43.6706 28.1619C43.078 29.0219 42.4552 29.8875 41.8682 30.7778C41.3306 31.5964 40.8487 32.7176 40.1566 33.377C39.3324 32.8091 40.4205 29.5425 40.6332 28.6585C41.0148 26.9926 41.5589 25.3593 42.169 23.7451C43.4745 20.4698 45.2539 17.3888 47.4576 14.5738C48.6706 13.0051 50.027 11.5351 51.502 10.1997Z" fill="#F9F2F2"/>
</g>
</svg>
