<svg width="206" height="135" viewBox="0 0 206 135" fill="none" xmlns="http://www.w3.org/2000/svg">
<g opacity="0.86">
<path d="M104.534 -20.8201C108.258 -20.4957 111.981 -20.1713 115.7 -20.2432C121.73 -20.3591 127.728 -21.5966 133.375 -23.8242C134.771 -24.3581 134.615 -26.3747 133.209 -26.6335C130.356 -27.1262 127.46 -27.594 124.59 -28.0194C121.828 -28.4521 119.05 -28.8175 116.219 -28.9811C105.729 -29.6693 95.1453 -27.7953 84.9568 -24.9561C82.361 -24.2321 79.0925 -23.6835 76.7352 -22.3584C81.2907 -21.781 86.0991 -22.0358 90.675 -21.8123C95.3431 -21.5289 99.9263 -21.1957 104.534 -20.8201Z" fill="#F9F2F2"/>
<path d="M103.194 -14.1647C94.4592 -14.9699 85.5253 -14.4619 77.1239 -11.5878C74.8397 -10.8184 72.6125 -9.85453 70.3853 -8.89066C67.9212 -7.84488 65.4147 -6.77424 62.9754 -5.68606C64.4729 -5.36734 66.0684 -5.56194 67.6288 -5.622C72.5469 -5.88406 77.4358 -4.93232 82.2604 -4.28476C91.9768 -2.9721 101.907 -2.75334 111.756 -3.74106C114.406 -3.98398 117.006 -4.31172 119.609 -4.9261C121.629 -5.36933 125.834 -6.06862 127.31 -7.73148C129.315 -10.0466 123.687 -10.5084 122.434 -10.7993C119.457 -11.504 116.437 -12.1839 113.424 -12.754C109.99 -13.3622 106.631 -13.8431 103.194 -14.1647Z" fill="#F9F2F2"/>
<path d="M152.16 -6.45903C158.301 -0.941703 163.556 5.49408 168.351 12.313C163.982 9.23346 159.629 6.08659 154.977 3.40041C152.111 1.7188 149.124 0.221473 146.275 -1.52741C143.267 -3.35379 140.456 -5.52385 137.832 -7.86063C136.17 -9.33611 134.584 -10.971 133.356 -12.8721C132.45 -14.2218 130.635 -17.3177 131.361 -18.9966C135.156 -18.2583 139.085 -15.8323 142.328 -13.8012C145.814 -11.7424 149.111 -9.23013 152.16 -6.45903Z" fill="#F9F2F2"/>
<path d="M152.811 19.145C156.351 25.9596 158.897 33.4134 159.484 41.2183C157.196 37.3167 154.951 33.3903 152.664 29.4887C150.899 26.4776 149.176 23.4418 147.096 20.6721C145.233 18.1744 143.122 15.9355 141.072 13.6046C138.546 10.7545 136.088 7.92192 133.707 4.92996C131.525 2.27726 129.378 -0.509975 127.867 -3.67017C127.405 -4.65289 125.764 -7.45185 126.239 -8.58525C126.932 -10.4162 129.077 -8.31196 129.889 -7.7051C135.957 -3.28458 141.358 2.03977 145.925 8.08074C148.495 11.5889 150.81 15.2463 152.811 19.145Z" fill="#F9F2F2"/>
<path d="M133.655 18.3522C137.625 24.3449 141.474 30.522 144.104 37.2431C147.161 45.0814 148.492 53.4756 149.866 61.845C143.47 49.8667 134.435 39.6069 127.063 28.2005C124.557 24.3136 122.237 20.2599 120.967 15.7616C120.276 13.3179 119.93 10.785 119.889 8.18776C119.88 5.74259 120.265 3.57966 122.902 5.45286C127.346 8.65967 130.624 13.8613 133.655 18.3522Z" fill="#F9F2F2"/>
<path d="M64.9515 11.3905C75.9796 12.219 87.0926 12.9978 98.1762 11.6854C102.591 11.1484 106.942 10.3072 111.335 9.44122C114.967 8.73612 118.727 7.95643 121.709 5.75239C117.842 4.60023 113.745 4.60925 109.7 4.41645C100.986 3.94023 92.4122 2.24289 83.7153 2.66898C79.2359 2.90177 74.7083 3.7327 70.3694 5.07985C66.3771 6.33777 61.1154 8.05496 57.9085 10.8469C60.0963 11.2738 62.6263 11.2152 64.9515 11.3905Z" fill="#F9F2F2"/>
<path d="M79.094 21.9043C75.4906 23.0481 71.9444 24.3864 68.4229 25.7672C62.6246 28.027 56.9008 30.414 51.1844 32.9107C50.8203 33.0672 50.9241 33.6331 51.3629 33.6038C55.3143 33.0537 59.3667 33.3562 63.362 33.4642C77.0853 33.7383 90.9577 30.9618 103.762 25.3921C106.718 24.1153 109.616 22.6439 112.124 20.6037C113.254 19.713 114.639 18.6731 112.883 18.1073C111.555 17.6891 109.563 17.8881 108.172 17.8487C101.926 17.6926 95.6147 18.2019 89.4316 19.3196C85.9511 19.9925 82.5028 20.8175 79.094 21.9043Z" fill="#F9F2F2"/>
<path d="M125.039 49.0473C126.857 60.1192 127.484 71.4909 130.038 82.3595C125.022 74.8722 121.397 66.4547 118.314 57.891C114.337 46.831 111.226 35.2064 111.557 23.3301C111.599 21.6527 111.763 17.1689 114.09 19.6797C115.707 21.4667 116.947 23.8738 118.038 26.0264C120.387 30.5188 122.058 35.409 123.272 40.3958C123.943 43.1934 124.512 46.1079 125.039 49.0473Z" fill="#F9F2F2"/>
<path d="M113.805 56.0326C117.347 68.4878 120.92 81.0951 121.724 94.1296C119.294 90.0832 116.89 86.0793 114.503 82.008C112.944 79.446 111.402 76.8166 110.055 74.1303C106.394 66.8169 104.158 58.7255 103.517 50.4395C103.171 46.2541 103.265 42.0394 103.754 37.8203C103.939 36.2876 104.156 33.9375 106.106 35.4159C107.57 36.5521 108.308 39.3672 108.992 41.0183C110.881 45.8938 112.364 50.9508 113.805 56.0326Z" fill="#F9F2F2"/>
<path d="M112.452 107.087C107.571 97.0124 102.691 86.9381 99.2242 76.2626C97.4997 70.8913 96.1393 65.3634 95.7836 59.7024C95.5684 56.8083 95.6823 53.8922 96.1077 51.0215C96.1983 50.3985 96.3517 47.7442 97.2716 47.6608C97.9969 47.6344 98.6757 50.5417 98.939 51.1851C103.165 62.6692 106.856 74.4093 109.356 86.4492C110.762 93.3181 111.814 100.167 112.452 107.087Z" fill="#F9F2F2"/>
<path d="M91.4785 113.4C89.2243 103.723 87.0126 94.0217 86.0848 84.0802C85.6209 79.1095 85.546 74.0247 86.296 69.0831C86.7009 66.5663 87.3252 64.0348 88.2434 61.6159C88.4087 61.1201 89.0476 58.808 89.8724 58.9513C90.5203 59.0843 90.519 61.7064 90.6053 62.3396C92.0303 73.1293 92.9318 83.9979 92.779 94.9149C92.7077 101.111 92.2825 107.287 91.4785 113.4Z" fill="#F9F2F2"/>
<path d="M99.1883 34.1144C96.9552 33.999 94.6548 33.8661 92.4217 33.7507C89.8771 33.5899 87.3149 33.4965 84.7601 33.5128C72.2623 33.7738 60.2239 38.6093 48.6141 43.5925C53.7575 44.395 59.0075 43.8243 64.1947 43.6325C71.2465 43.3161 78.2749 43.6404 85.3222 42.9278C90.0063 42.461 94.746 41.5057 99.1653 39.7125C100.647 39.1289 104.105 38.127 104.395 36.1907C104.705 33.9005 100.671 34.2137 99.1883 34.1144Z" fill="#F9F2F2"/>
<path d="M94.5182 47.3381C75.612 45.9996 56.2585 48.8554 38.2302 55.7211C46.158 56.3158 54.194 56.2203 62.1583 55.7109C69.9033 55.2161 77.6014 54.3499 85.1912 52.5214C87.9464 51.8749 90.7366 51.0938 93.4523 50.1854C94.1206 49.9646 96.9255 49.4028 97.1009 48.7301C97.4416 47.5616 95.226 47.379 94.5182 47.3381Z" fill="#F9F2F2"/>
<path d="M87.0142 59.0322C71.1735 63.0197 56.0555 70.5726 43.1269 80.8878C49.7793 79.21 56.3279 76.9662 62.7024 74.4256C68.8824 71.9421 74.9981 69.1543 80.7159 65.6881C82.8115 64.4025 84.8573 63.0321 86.8535 61.5768C87.3375 61.2361 89.4828 60.0353 89.4886 59.462C89.4651 58.45 87.6225 58.9035 87.0142 59.0322Z" fill="#F9F2F2"/>
<path d="M77.9496 75.7439C80.8859 72.1988 83.404 68.3291 86.0639 64.6042C88.8188 60.6525 91.5562 56.7682 94.2688 52.8414C99.6515 45.0128 104.857 37.1739 109.301 28.813C117.879 12.7288 126.197 -3.60249 133.659 -20.2292C137.973 -29.8814 141.808 -39.7661 145.08 -49.8336C145.481 -51.0942 143.64 -51.6103 143.214 -50.3921C137.329 -32.9232 129.638 -16.1049 121.418 0.396045C113.217 16.8297 105.057 33.2385 94.659 48.4527C91.749 52.7231 88.8391 56.9936 85.9291 61.264C82.8993 65.7187 79.6252 70.1457 76.9887 74.8826C76.5266 75.5524 77.4202 76.3962 77.9496 75.7439Z" fill="#F9F2F2"/>
<path d="M46.2017 100.226C53.2724 98.8732 59.4728 94.3832 64.7518 89.2937C67.1954 86.9493 69.4298 84.4426 71.7564 81.9958C72.9072 80.7512 74.0581 79.5066 75.2338 78.3045C76.3495 77.1944 77.904 76.0551 78.7434 74.7652C77.5909 73.6743 72.7988 76.4839 71.4943 77.0777C68.9951 78.258 66.5954 79.608 64.3199 81.17C59.6594 84.3013 55.3543 88.136 51.719 92.4328C49.6542 94.8401 47.8234 97.4521 46.2017 100.226Z" fill="#F9F2F2"/>
<path d="M73.7935 115.506C71.1461 108.852 71.6955 101.235 73.2438 94.0593C73.9514 90.7951 74.8783 87.5163 75.7629 84.2624C76.184 82.6479 76.6475 81.0085 77.0437 79.3515C77.4048 77.8291 77.5173 75.8826 78.1972 74.5152C79.7445 74.9188 79.8911 80.4175 80.0535 81.8609C80.3886 84.5707 80.4618 87.32 80.4254 90.0767C80.2503 95.707 79.2577 101.304 77.4826 106.732C76.5161 109.749 75.2806 112.696 73.7935 115.506Z" fill="#F9F2F2"/>
</g>
</svg>
