<svg width="112" height="157" viewBox="0 0 112 157" fill="none" xmlns="http://www.w3.org/2000/svg">
<g opacity="0.86">
<path d="M-0.394541 132.212C-3.77154 130.642 -7.14854 129.073 -10.6561 127.876C-16.3428 125.934 -22.3821 125.054 -28.4277 125.221C-29.9172 125.246 -30.4562 127.188 -29.2278 127.908C-26.723 129.34 -24.17 130.762 -21.6258 132.137C-19.1869 133.481 -16.7087 134.768 -14.1125 135.883C-4.52153 140.094 6.02805 141.937 16.5359 142.742C19.2132 142.946 22.461 143.543 25.1194 143.104C21.049 141.014 16.4588 139.618 12.2489 137.853C7.97318 136.001 3.79375 134.13 -0.394541 132.212Z" fill="#F9F2F2"/>
<path d="M3.12363 126.434C11.0312 130.158 19.5714 132.72 28.4174 132.884C30.8184 132.94 33.232 132.794 35.6457 132.649C38.3092 132.507 41.0208 132.356 43.6753 132.166C42.3811 131.359 40.8206 130.999 39.3387 130.524C34.6433 129.098 30.3879 126.544 26.0893 124.298C17.4352 119.765 8.20919 116.184 -1.35154 113.761C-3.91602 113.087 -6.46277 112.51 -9.10968 112.201C-11.1519 111.929 -15.3289 111.155 -17.2761 112.21C-19.941 113.697 -14.8273 116.043 -13.7523 116.741C-11.2032 118.414 -8.60579 120.077 -5.978 121.635C-2.96864 123.372 0.0141048 124.965 3.12363 126.434Z" fill="#F9F2F2"/>
<path d="M47.6295 115.501C37.5821 110.976 27.4384 106.468 16.6113 103.929C12.2936 102.931 7.93281 102.24 3.52383 101.558C-0.118201 100.983 -3.90475 100.435 -7.44677 101.486C-4.21689 103.879 -0.375896 105.264 3.34718 106.82C11.346 110.228 18.7997 114.733 27.0902 117.29C31.3647 118.595 35.8878 119.356 40.4096 119.57C44.5765 119.749 50.0884 119.929 54.0412 118.404C52.1372 117.261 49.7477 116.456 47.6295 115.501Z" fill="#F9F2F2"/>
<path d="M37.9582 100.845C41.722 100.999 45.4984 100.951 49.266 100.855C55.465 100.71 61.6374 100.42 67.8403 100.025C68.2345 100.002 68.3297 99.4371 67.9088 99.3153C64.0209 98.4872 60.3282 96.8262 56.6229 95.3668C43.8627 90.4446 29.9259 88.3289 16.0395 89.1923C12.8373 89.3835 9.6224 89.7762 6.57985 90.8345C5.21831 91.2844 3.56773 91.7875 5.02041 92.9146C6.12197 93.7577 8.05515 94.2485 9.34436 94.7582C15.1413 97.0278 21.2261 98.6966 27.3971 99.7519C30.8858 100.305 34.396 100.704 37.9582 100.845Z" fill="#F9F2F2"/>
<path d="M4.15357 59.8034C6.21448 48.8152 9.49363 37.9513 10.7965 26.9035C12.9496 35.6216 13.4825 44.7376 13.4589 53.8067C13.4237 65.5176 12.3858 77.463 8.03793 88.4738C7.42804 90.0305 5.75054 94.1744 4.42479 91.0317C3.51731 88.8081 3.17399 86.132 2.88389 83.7449C2.21116 78.7387 2.3092 73.5906 2.86741 68.5072C3.18964 65.6588 3.64752 62.7355 4.15357 59.8034Z" fill="#F9F2F2"/>
<path d="M17.05 57.0806C17.9676 44.2111 18.9068 31.1881 22.5854 18.7067C23.4851 23.3225 24.3759 27.8901 25.2274 32.5147C25.8166 35.4444 26.3665 38.4311 26.7149 41.4051C27.6574 49.4994 27.0013 57.8382 24.7847 65.8169C23.6853 69.8544 22.165 73.7702 20.272 77.5553C19.5785 78.9282 18.5756 81.0553 17.2523 79.0079C16.2674 77.446 16.5326 74.5582 16.4541 72.7796C16.3417 67.5707 16.6718 62.3301 17.05 57.0806Z" fill="#F9F2F2"/>
<path d="M35.6733 9.72217C36.8197 20.8171 37.966 31.912 37.5835 43.0892C37.3726 48.7064 36.7674 54.3463 35.176 59.7693C34.3936 62.5531 33.2956 65.2456 31.9212 67.7897C31.6245 68.3424 30.5785 70.7763 29.6886 70.5417C29.0002 70.3198 29.3529 67.3661 29.3251 66.674C29.2716 54.4813 29.805 42.2304 31.5567 30.1038C32.5752 23.1924 33.9183 16.4205 35.6733 9.72217Z" fill="#F9F2F2"/>
<path d="M57.4639 10.9395C56.2854 20.769 55.0587 30.6075 52.5479 40.2341C51.2924 45.0475 49.6339 49.8354 47.2515 54.2087C46.0166 56.4283 44.5713 58.5871 42.8889 60.5405C42.5656 60.9487 41.1811 62.897 40.4573 62.4824C39.8957 62.1375 40.7884 59.6821 40.9228 59.0597C43.2563 48.4696 46.1069 37.9834 49.9615 27.8105C52.1348 22.0313 54.6327 16.3916 57.4639 10.9395Z" fill="#F9F2F2"/>
<path d="M23.2884 82.5784C25.3408 83.4457 27.4501 84.3523 29.5024 85.2196C31.8311 86.2352 34.1991 87.1937 36.5975 88.0471C48.3918 92.0515 61.3108 91.6152 73.8788 90.8949C69.3343 88.3946 64.2231 87.1443 59.2995 85.5605C52.5873 83.4594 46.1146 80.7663 39.2718 79.0378C34.7259 77.8826 29.962 77.166 25.2132 77.343C23.6273 77.386 20.0474 77.1487 19.118 78.8638C18.0492 80.9034 21.9333 81.9813 23.2884 82.5784Z" fill="#F9F2F2"/>
<path d="M32.1586 71.78C49.4112 79.4611 68.5086 83.366 87.7281 83.0646C80.5051 79.8124 72.9461 77.1699 65.3135 74.9393C57.8913 72.7697 50.3868 70.9639 42.6565 70.0961C39.8561 69.765 36.9772 69.548 34.1249 69.4755C33.4239 69.4552 30.6059 69.0278 30.2128 69.5982C29.4965 70.5768 31.5095 71.5011 32.1586 71.78Z" fill="#F9F2F2"/>
<path d="M43.1626 63.3787C59.3547 65.0293 76.082 63.0949 91.6979 57.829C84.8968 57.1388 78.0006 57.014 71.1664 57.2264C64.5338 57.4515 57.8581 57.9834 51.3243 59.286C48.9246 59.7777 46.5425 60.3657 44.1782 61.05C43.609 61.2046 41.1915 61.6 40.9911 62.1349C40.6691 63.0907 42.549 63.2925 43.1626 63.3787Z" fill="#F9F2F2"/>
<path d="M57.3339 50.8085C53.3785 53.1306 49.7045 55.899 45.9468 58.4835C42.0231 61.248 38.1387 63.9554 34.2631 66.7111C26.5601 72.2135 19.0194 77.7856 12.0149 84.1058C-1.487 96.2542 -14.8305 108.722 -27.4717 121.758C-34.7933 129.332 -41.746 137.286 -48.2334 145.603C-49.0372 146.647 -47.4882 147.757 -46.6755 146.76C-35.2245 132.4 -22.3031 119.262 -8.99513 106.602C4.27358 93.9982 17.4941 81.4035 32.4056 70.6889C36.5829 67.6785 40.7602 64.6681 44.9375 61.6577C49.2897 58.5154 53.8613 55.4822 57.941 51.9419C58.6015 51.4716 58.0514 50.3776 57.3339 50.8085Z" fill="#F9F2F2"/>
<path d="M95.3922 38.671C88.3097 37.5345 80.9759 39.6319 74.3013 42.6041C71.2156 43.9692 68.2706 45.5573 65.2597 47.058C63.7587 47.8325 62.2577 48.6069 60.7478 49.3332C59.3254 49.9935 57.4822 50.5321 56.2575 51.4549C56.966 52.8685 62.4096 51.8662 63.8332 51.7535C66.5752 51.4976 69.2818 51.0491 71.944 50.3597C77.3736 49.0113 82.7095 46.8833 87.5752 44.0948C90.3275 42.5421 92.9302 40.7181 95.3922 38.671Z" fill="#F9F2F2"/>
<path d="M74.7437 14.9795C74.9611 22.1115 71.8572 29.0582 67.9674 35.2531C66.195 38.0698 64.2121 40.8256 62.2773 43.5725C61.3341 44.9415 60.3426 46.3194 59.4082 47.7366C58.5524 49.0398 57.7853 50.8246 56.6836 51.8742C55.3716 50.9702 57.1037 45.7703 57.4423 44.3631C58.0497 41.7112 58.9158 39.1112 59.887 36.5417C61.9652 31.3279 64.7977 26.4234 68.3057 21.9424C70.2366 19.4452 72.3957 17.1052 74.7437 14.9795Z" fill="#F9F2F2"/>
</g>
</svg>
