<svg width="24" height="20" viewBox="0 0 24 20" fill="none" xmlns="http://www.w3.org/2000/svg">
<path fill-rule="evenodd" clip-rule="evenodd" d="M0.0605469 1.96452C0.0605469 0.903153 0.917313 0.0463867 1.97868 0.0463867C3.04005 0.0463867 3.89681 0.903153 3.89681 1.96452C3.89681 3.02589 3.04005 3.88265 1.97868 3.88265C0.917313 3.88265 0.0605469 3.02589 0.0605469 1.96452ZM0.0605469 9.63711C0.0605469 8.57574 0.917313 7.71898 1.97868 7.71898C3.04005 7.71898 3.89681 8.57574 3.89681 9.63711C3.89681 10.6985 3.04005 11.5552 1.97868 11.5552C0.917313 11.5552 0.0605469 10.6985 0.0605469 9.63711ZM1.97868 15.3915C0.917313 15.3915 0.0605469 16.2611 0.0605469 17.3096C0.0605469 18.3582 0.930101 19.2278 1.97868 19.2278C3.02726 19.2278 3.89681 18.3582 3.89681 17.3096C3.89681 16.2611 3.04005 15.3915 1.97868 15.3915ZM22.4388 18.5884H7.09371C6.39039 18.5884 5.81495 18.013 5.81495 17.3096C5.81495 16.6063 6.39039 16.0309 7.09371 16.0309H22.4388C23.1421 16.0309 23.7175 16.6063 23.7175 17.3096C23.7175 18.013 23.1421 18.5884 22.4388 18.5884ZM7.09371 10.9159H22.4388C23.1421 10.9159 23.7175 10.3404 23.7175 9.63711C23.7175 8.9338 23.1421 8.35836 22.4388 8.35836H7.09371C6.39039 8.35836 5.81495 8.9338 5.81495 9.63711C5.81495 10.3404 6.39039 10.9159 7.09371 10.9159ZM7.09371 3.24333C6.39039 3.24333 5.81495 2.66789 5.81495 1.96458C5.81495 1.26126 6.39039 0.68582 7.09371 0.68582H22.4388C23.1421 0.68582 23.7175 1.26126 23.7175 1.96458C23.7175 2.66789 23.1421 3.24333 22.4388 3.24333H7.09371Z" fill="#828282"/>
</svg>
