<svg width="84" height="198" viewBox="0 0 84 198" fill="none" xmlns="http://www.w3.org/2000/svg">
<path d="M109.661 129.496C103.68 133.076 97.5269 136.531 90.9005 138.781C83.173 141.395 74.9834 142.313 66.8161 143.273C78.7013 137.608 89.0387 129.311 100.413 122.675C104.289 120.419 108.318 118.352 112.731 117.321C115.129 116.759 117.598 116.537 120.115 116.612C122.484 116.712 124.562 117.18 122.631 119.651C119.328 123.814 114.145 126.758 109.661 129.496Z" fill="#F9F2F2"/>
<path d="M108.634 76.491C107.686 72.9502 106.546 69.4561 105.365 65.9841C103.432 60.2678 101.374 54.6182 99.2082 48.9707C99.0727 48.6111 98.52 48.6867 98.5289 49.1129C98.8869 52.9646 98.4146 56.8764 98.1332 60.7415C97.2604 74.0218 99.3359 87.5814 104.164 100.23C105.27 103.15 106.567 106.022 108.432 108.542C109.245 109.676 110.191 111.063 110.817 109.387C111.28 108.119 111.176 106.181 111.275 104.836C111.703 98.793 111.489 92.6568 110.68 86.6185C110.182 83.2175 109.536 79.8409 108.634 76.491Z" fill="#F9F2F2"/>
<path d="M80.3107 119.792C69.506 121.064 58.4636 121.167 47.8234 123.16C55.2975 118.633 63.6111 115.494 72.0423 112.887C82.9311 109.524 94.3283 107.025 105.817 107.871C107.44 107.987 111.776 108.343 109.241 110.486C107.438 111.974 105.052 113.069 102.919 114.03C98.4633 116.107 93.6527 117.508 88.7688 118.463C86.0294 118.99 83.1812 119.412 80.3107 119.792Z" fill="#F9F2F2"/>
<path d="M74.0423 108.602C61.8215 111.481 49.4519 114.384 36.7911 114.586C40.8179 112.412 44.8026 110.26 48.8516 108.128C51.4022 106.732 54.0172 105.355 56.6788 104.169C63.9245 100.947 71.8608 99.1384 79.9151 98.8841C83.9843 98.7348 88.0626 99.0117 92.1275 99.6727C93.6039 99.9189 95.8706 100.234 94.3523 102.057C93.187 103.424 90.4276 104.015 88.7982 104.604C83.9921 106.219 79.0283 107.431 74.0423 108.602Z" fill="#F9F2F2"/>
<path d="M24.6504 105.033C34.6243 100.751 44.5983 96.4694 55.0919 93.5841C60.371 92.1514 65.7854 91.0784 71.2844 90.9843C74.0972 90.904 76.9167 91.1434 79.6784 91.6824C80.2779 91.7978 82.842 92.0638 82.8821 92.9585C82.8756 93.6622 80.0296 94.191 79.3947 94.4175C68.0842 98.0023 56.5494 101.059 44.7768 102.947C38.0614 104.005 31.3815 104.721 24.6504 105.033Z" fill="#F9F2F2"/>
<path d="M19.4639 84.4382C28.9365 82.683 38.4313 80.97 48.1016 80.5113C52.9368 80.282 57.8653 80.4344 62.6185 81.3795C65.0384 81.8831 67.4628 82.5998 69.7651 83.5962C70.238 83.7782 72.4492 84.4994 72.2739 85.292C72.1164 85.9136 69.5767 85.7963 68.9595 85.8519C58.4456 86.7548 47.8784 87.147 37.3109 86.5158C31.3124 86.1726 25.3493 85.4875 19.4639 84.4382Z" fill="#F9F2F2"/>
<path d="M95.9185 95.4141C96.1291 93.2562 96.3597 91.034 96.5702 88.8761C96.8385 86.4185 97.0424 83.9409 97.1397 81.4655C97.4399 69.3486 93.289 57.4743 88.976 46.0085C87.9711 50.9548 88.2915 56.0653 88.2478 61.0981C88.2421 67.9424 87.6171 74.7358 87.9955 81.5934C88.2403 86.1511 88.9558 90.7842 90.4972 95.1441C90.9969 96.6048 91.8143 99.9991 93.677 100.365C95.8815 100.767 95.7567 96.8461 95.9185 95.4141Z" fill="#F9F2F2"/>
<path d="M83.3175 90.3055C85.4505 72.0521 83.5408 53.18 77.6885 35.414C76.7616 43.0665 76.4985 50.8544 76.6395 58.5912C76.776 66.1148 77.2744 73.6096 78.7096 81.042C79.2139 83.7393 79.847 86.4765 80.6067 89.147C80.791 89.8041 81.211 92.5458 81.8548 92.7455C82.9716 93.1272 83.2465 90.9893 83.3175 90.3055Z" fill="#F9F2F2"/>
<path d="M72.3219 82.5192C69.1606 66.9995 62.5139 52.0219 53.0947 39.0428C54.4254 45.5606 56.3089 52.0029 58.4877 58.2896C60.6198 64.3855 63.0494 70.4325 66.1538 76.1242C67.3063 78.2109 68.5431 80.2531 69.8643 82.251C70.173 82.7349 71.2411 84.8659 71.7961 84.8969C72.7774 84.919 72.4197 83.1142 72.3219 82.5192Z" fill="#F9F2F2"/>
<path d="M56.5366 72.9997C59.8404 76.0007 63.4772 78.611 66.9675 81.3522C70.6731 84.1955 74.3144 87.0189 77.9978 89.82C85.3424 95.3801 92.7048 100.769 100.607 105.443C115.806 114.463 131.257 123.244 147.031 131.207C156.189 135.812 165.594 139.964 175.2 143.579C176.404 144.023 176.985 142.263 175.824 141.797C159.164 135.323 143.214 127.129 127.595 118.438C112.04 109.766 96.5078 101.137 82.2315 90.3922C78.2239 87.3846 74.2163 84.377 70.2087 81.3695C66.028 78.2376 61.8849 74.8705 57.4134 72.1072C56.785 71.63 55.9282 72.4581 56.5366 72.9997Z" fill="#F9F2F2"/>
<path d="M34.2276 41.1657C35.2253 48.0743 39.3 54.2787 43.9961 59.6171C46.1588 62.0877 48.4879 64.3629 50.7549 66.7247C51.9095 67.8945 53.0641 69.0643 54.1765 70.2563C55.2023 71.3861 56.237 72.9422 57.4493 73.8123C58.5569 72.7443 56.0476 67.9782 55.5302 66.6885C54.4975 64.2155 53.2961 61.8314 51.8838 59.5583C49.0571 54.9055 45.5333 50.5659 41.5323 46.8546C39.2919 44.7481 36.843 42.8592 34.2276 41.1657Z" fill="#F9F2F2"/>
<path d="M18.207 67.2155C24.7691 64.9457 32.1219 65.8149 39.0043 67.6321C42.1346 68.4619 45.2695 69.5049 48.3821 70.5057C49.9273 70.985 51.4947 71.5065 53.0821 71.9636C54.5407 72.3807 56.4211 72.5758 57.7155 73.2949C57.2561 74.7757 51.9236 74.6744 50.5184 74.7678C47.8788 74.9724 45.2125 74.9218 42.544 74.7645C37.0983 74.3457 31.7212 73.1366 26.5416 71.1771C23.662 70.1074 20.8624 68.7802 18.207 67.2155Z" fill="#F9F2F2"/>
</svg>
