<svg width="366" height="204" viewBox="0 0 366 204" fill="none" xmlns="http://www.w3.org/2000/svg">
<path d="M82.9649 47.2659C81.7049 40.7776 80.4448 34.2893 78.5132 28.0014C75.3824 17.8063 70.3596 8.20934 63.825 -0.306607C62.2378 -2.42132 58.8853 -1.17384 59.1291 1.34153C59.6797 6.43227 60.2932 11.583 60.9668 16.6709C61.5745 21.5758 62.3051 26.4778 63.4045 31.3711C67.3384 49.541 75.674 66.6232 85.4584 82.5643C87.9524 86.6253 90.4755 91.9154 93.8754 95.2786C92.6405 87.2525 89.8679 79.2012 88.0214 71.3124C86.232 63.2379 84.5684 55.2833 82.9649 47.2659Z" fill="#F9F2F2"/>
<path d="M94.9324 46.3068C97.8134 61.55 103.024 76.4923 111.998 89.378C114.418 92.8873 117.14 96.205 119.863 99.5228C122.84 103.203 125.88 106.944 128.917 110.562C128.73 107.861 127.623 105.243 126.761 102.619C123.923 94.3847 123.162 85.6095 121.916 77.0917C119.42 59.9331 114.961 42.944 108.489 26.6787C106.787 22.2915 104.964 18.0302 102.653 13.9034C100.917 10.6853 97.6817 3.87475 94.1366 2.17521C89.2249 -0.106982 91.1778 9.68544 91.293 11.9579C91.5436 17.3632 91.8571 22.8284 92.3535 28.2279C92.9902 34.362 93.807 40.3073 94.9324 46.3068Z" fill="#F9F2F2"/>
<path d="M84.2087 -40.6954C90.6014 -53.8209 98.9867 -65.8866 108.247 -77.358C105.137 -68.4299 101.905 -59.4989 99.6011 -50.2824C98.1367 -44.5907 97.0439 -38.7848 95.4566 -33.0901C93.8151 -27.0868 91.4932 -21.2518 88.7968 -15.654C87.0973 -12.1089 85.089 -8.61798 82.4545 -5.60422C80.6002 -3.40827 76.2197 1.18396 73.0124 0.767748C72.4211 -6.04378 74.6337 -13.9053 76.5094 -20.4062C78.3135 -27.3357 80.981 -34.1627 84.2087 -40.6954Z" fill="#F9F2F2"/>
<path d="M127.424 -54.2596C137.288 -63.5931 148.722 -71.5493 161.706 -76.3447C156.186 -70.5572 150.602 -64.8298 145.082 -59.0423C140.821 -54.5758 136.498 -50.1694 132.801 -45.2858C129.461 -40.9026 126.681 -36.2252 123.716 -31.6049C120.099 -25.9238 116.479 -20.3657 112.551 -14.8618C109.102 -9.86108 105.408 -4.8546 100.77 -0.748207C99.3241 0.515745 95.3637 4.66763 93.2055 4.41113C89.7552 4.12363 92.289 -0.54799 92.9259 -2.22328C97.4893 -14.6907 103.914 -26.4641 111.962 -37.169C116.677 -43.2449 121.769 -48.9608 127.424 -54.2596Z" fill="#F9F2F2"/>
<path d="M135.396 -21.3045C143.654 -30.9691 152.283 -40.5194 162.431 -48.2608C174.27 -57.272 187.894 -63.6197 201.456 -70.0275C184.202 -53.3251 171.155 -32.9711 155.348 -14.8886C149.959 -8.73523 144.195 -2.81903 137.165 1.52831C133.347 3.89361 129.209 5.71304 124.813 7.04663C120.66 8.25151 116.795 8.6502 118.697 3.2556C121.987 -5.86122 129.236 -13.9647 135.396 -21.3045Z" fill="#F9F2F2"/>
<path d="M156.988 98.8924C153.031 79.7392 148.948 60.466 141.324 42.2602C138.263 35.0151 134.716 28.0274 131.106 20.9797C128.14 15.1466 124.985 9.13344 119.787 5.13627C119.709 12.271 121.718 19.2336 123.359 26.2048C126.788 41.2506 128.074 56.6544 133.03 71.2337C135.606 78.7363 139.221 86.0298 143.623 92.7514C147.704 98.9271 153.184 107.038 159.491 111.132C159.152 107.204 157.822 102.931 156.988 98.8924Z" fill="#F9F2F2"/>
<path d="M167.983 69.7324C171.681 75.3022 175.682 80.6805 179.743 85.9958C186.406 94.7547 193.25 103.325 200.276 111.829C200.719 112.372 201.631 111.92 201.368 111.188C198.51 104.738 197.052 97.7009 195.292 90.8555C189.081 67.3896 177.611 45.1547 161.911 26.0943C158.302 21.6906 154.39 17.4786 149.701 14.2073C147.637 12.7188 145.195 10.8702 145.088 14.1318C145.023 16.5929 146.33 19.8826 146.94 22.2663C149.713 32.9617 153.65 43.4452 158.559 53.4138C161.397 59.004 164.477 64.4655 167.983 69.7324Z" fill="#F9F2F2"/>
<path d="M191.776 -21.59C209.716 -30.0688 228.745 -36.6671 245.981 -46.2976C235.692 -34.1255 223.144 -23.8678 210.084 -14.4588C193.215 -2.31584 174.965 8.62994 154.611 13.8452C151.739 14.5894 144.036 16.493 147.173 11.3152C149.424 7.69561 152.913 4.41573 156.042 1.51329C162.537 -4.66615 170.039 -9.88549 177.927 -14.3761C182.356 -16.8788 187.035 -19.2644 191.776 -21.59Z" fill="#F9F2F2"/>
<path d="M209.119 -5.88868C228.572 -17.9697 248.269 -30.1794 270.039 -37.8878C264.341 -31.7887 258.704 -25.7525 252.943 -19.7133C249.346 -15.816 245.625 -11.9157 241.713 -8.3184C231.06 1.46417 218.392 9.20364 204.615 14.3251C197.667 16.9488 190.456 18.8408 183.045 20.0611C180.349 20.4937 176.248 21.2669 177.813 17.233C179.032 14.1912 183.459 11.5656 185.934 9.60095C193.304 4.01577 201.18 -0.966463 209.119 -5.88868Z" fill="#F9F2F2"/>
<path d="M296.58 -28.4301C281.826 -15.2302 267.072 -2.03029 250.609 9.05778C242.315 14.6033 233.579 19.6058 224.127 22.965C219.311 24.7389 214.298 25.9641 209.21 26.6376C208.106 26.7867 203.519 27.8173 202.93 26.294C202.532 25.0735 207.145 22.505 208.11 21.7443C225.58 8.97225 243.744 -3.01684 262.998 -13.1254C273.992 -18.8577 285.124 -23.9782 296.58 -28.4301Z" fill="#F9F2F2"/>
<path d="M317.518 4.15778C302.163 12.6986 286.744 21.1793 270.293 27.5938C262.067 30.8011 253.459 33.4024 244.692 34.5317C240.216 35.0679 235.608 35.2381 231.049 34.8538C230.125 34.8141 225.883 34.8528 225.726 33.3807C225.637 32.2145 230.095 30.9409 231.13 30.4861C248.781 22.8134 266.822 15.9925 285.457 10.9408C296.027 8.04713 306.734 5.76517 317.518 4.15778Z" fill="#F9F2F2"/>
<path d="M178.966 29.6271C179.856 33.48 180.75 37.4558 181.64 41.3087C182.605 45.7133 183.693 50.1149 184.963 54.4508C191.488 75.5726 205.567 93.6875 219.688 111.002C218.55 101.867 215.025 93.2182 212.175 84.4923C208.206 72.6568 205.338 60.5493 200.697 48.9141C197.624 41.1773 193.694 33.5838 188.495 26.9425C186.782 24.7078 183.396 19.315 179.963 19.765C175.918 20.3524 178.413 27.0575 178.966 29.6271Z" fill="#F9F2F2"/>
<path d="M203.721 31.1331C210.644 63.9287 224.916 95.444 245.361 122.755C242.515 108.987 238.442 95.3707 233.701 82.0776C229.092 69.1504 223.873 56.4835 217.072 44.4688C214.632 40.0991 211.946 35.7352 209.081 31.56C208.38 30.5311 206.06 26.0356 204.831 26.0646C202.679 26.0539 203.446 29.9097 203.721 31.1331Z" fill="#F9F2F2"/>
<path d="M227.254 38.2024C241.741 63.1947 261.938 85.2235 285.766 102.186C279.677 91.6917 272.676 81.6495 265.255 72.0476C258.025 62.7487 250.31 53.7072 241.635 45.6723C238.429 42.7349 235.104 39.9233 231.658 37.2376C230.844 36.5804 227.758 33.5172 226.781 33.7863C225.072 34.3185 226.739 37.2307 227.254 38.2024Z" fill="#F9F2F2"/>
<path d="M260.078 45.4829C252.622 42.2154 244.817 39.817 237.19 37.107C229.131 34.3457 221.195 31.5815 213.199 28.8802C197.269 23.5376 181.409 18.5008 165.031 15.0136C133.511 8.25578 101.697 2.05837 69.7981 -2.53827C51.2886 -5.17585 32.6165 -6.88723 13.9076 -7.5524C11.5693 -7.62018 11.5877 -4.23861 13.8659 -4.10792C46.4301 -2.60152 78.7668 2.29225 110.821 8.23803C142.752 14.1867 174.62 20.0754 205.547 30.3522C214.223 33.2219 222.9 36.0916 231.576 38.9613C240.624 41.9452 249.744 45.3579 259.081 47.5356C260.444 47.9953 261.444 46.0655 260.078 45.4829Z" fill="#F9F2F2"/>
<path d="M317.15 87.5483C311.409 76.185 300.759 67.8277 289.537 61.3286C284.362 58.3148 279.013 55.7355 273.721 52.9703C271.045 51.6192 268.369 50.2681 265.753 48.8541C263.323 47.4972 260.629 45.4086 258.028 44.6091C256.734 47.0993 263.842 53.8799 265.487 55.8088C268.709 59.4837 272.172 62.9069 275.935 66.0156C283.527 72.4159 292.141 77.8697 301.215 81.9598C306.313 84.2991 311.644 86.141 317.15 87.5483Z" fill="#F9F2F2"/>
<path d="M329.703 33.2015C319.678 40.94 306.461 43.7117 293.507 44.5709C287.613 44.956 281.587 44.9753 275.625 45.0545C272.675 45.1242 269.662 45.1338 266.652 45.2664C263.888 45.3931 260.524 46.1489 257.868 45.6582C257.801 42.8312 267.079 39.9066 269.454 38.9282C273.898 37.04 278.537 35.5777 283.241 34.2983C292.899 31.8566 302.898 30.8212 312.991 31.1978C318.591 31.3731 324.203 32.04 329.703 33.2015Z" fill="#F9F2F2"/>
</svg>
