<svg width="224" height="194" viewBox="0 0 224 194" fill="none" xmlns="http://www.w3.org/2000/svg">
<g opacity="0.86">
<path d="M56.9837 85.6747C56.6459 82.1094 56.3082 78.5442 55.5976 75.0516C54.4462 69.3888 52.243 63.949 49.1676 59.0124C48.4231 57.7885 46.5494 58.2846 46.5485 59.6539C46.5773 62.4282 46.6369 65.2381 46.7321 68.0173C46.8016 70.6944 46.9374 73.3763 47.2726 76.073C48.4371 86.0787 52.0326 95.7295 56.4695 104.841C57.6005 107.163 58.6825 110.148 60.3388 112.141C60.0956 107.748 59.0244 103.26 58.4441 98.9085C57.9044 94.4599 57.4262 90.0827 56.9837 85.6747Z" fill="#F9F2F2"/>
<path d="M63.4886 85.7874C64.2395 94.1593 66.2624 102.492 70.4234 109.913C71.5433 111.933 72.8367 113.865 74.1301 115.798C75.5416 117.94 76.9839 120.117 78.4312 122.228C78.4727 120.761 78.0135 119.291 77.6872 117.831C76.5902 113.241 76.6422 108.469 76.4186 103.81C75.9764 94.4252 74.4662 85.0287 71.8329 75.9165C71.146 73.461 70.3877 71.0671 69.3587 68.7199C68.5919 66.8931 67.2059 63.05 65.3836 61.9468C62.8551 60.4574 63.3925 65.841 63.335 67.0725C63.1854 70.0006 63.0667 72.9643 63.05 75.9022C63.0703 79.2436 63.1977 82.4928 63.4886 85.7874Z" fill="#F9F2F2"/>
<path d="M62.2873 38.3061C66.4259 31.5646 71.5833 25.4996 77.1812 19.8011C75.034 24.4519 72.8204 29.0979 71.0928 33.9467C70.0034 36.939 69.1083 40.0124 67.9524 42.9997C66.7511 46.1507 65.1916 49.175 63.4427 52.0517C62.3395 53.874 61.0727 55.6507 59.4933 57.1372C58.3776 58.2237 55.7736 60.4695 54.0659 60.0761C54.1058 56.3718 55.713 52.2488 57.0668 48.8419C58.4047 45.2 60.2027 41.659 62.2873 38.3061Z" fill="#F9F2F2"/>
<path d="M86.3064 33.2666C92.1173 28.7529 98.7023 25.0645 105.957 23.1623C102.675 25.9926 99.3624 28.7872 96.0806 31.6174C93.5479 33.8017 90.9844 35.9502 88.7334 38.3891C86.7014 40.5769 84.9561 42.9529 83.1136 45.2883C80.864 48.1614 78.6193 50.9681 76.2109 53.7293C74.088 56.2444 71.8321 58.7497 69.1148 60.7199C68.2685 61.3253 65.9141 63.3557 64.7638 63.1037C62.9183 62.767 64.5307 60.3812 64.9624 59.5113C68.0799 53.0284 72.1645 47.0177 77.0686 41.6687C79.9309 38.6405 82.9777 35.8263 86.3064 33.2666Z" fill="#F9F2F2"/>
<path d="M88.8695 51.4581C93.8315 46.6812 98.9879 41.9855 104.868 38.3452C111.727 34.1093 119.408 31.4037 127.059 28.6624C116.875 36.7608 108.767 47.0499 99.2908 55.9687C96.0606 59.0032 92.641 61.8901 88.6209 63.8642C86.4373 64.9387 84.1098 65.7019 81.669 66.1895C79.366 66.6206 77.261 66.6321 78.5707 63.8231C80.8249 59.0799 85.1609 55.0918 88.8695 51.4581Z" fill="#F9F2F2"/>
<path d="M94.1827 117.414C93.0574 106.877 91.8706 96.2688 88.7179 86.0495C87.4487 81.9812 85.904 78.0262 84.3285 74.0355C83.036 70.7336 81.6513 67.3248 79.0587 64.8955C78.6411 68.739 79.3579 72.5994 79.8753 76.4452C80.9325 84.7395 80.8148 93.114 82.7196 101.237C83.7132 105.419 85.2789 109.542 87.2985 113.399C89.1741 116.944 91.702 121.606 94.8877 124.146C94.9119 122.011 94.4193 119.636 94.1827 117.414Z" fill="#F9F2F2"/>
<path d="M101.649 102.267C103.35 105.465 105.224 108.576 107.134 111.656C110.266 116.731 113.505 121.713 116.847 126.669C117.057 126.985 117.572 126.789 117.469 126.381C116.268 122.752 115.852 118.88 115.263 115.096C113.15 102.114 108.135 89.5198 100.673 78.4143C98.9584 75.8495 97.0707 73.3721 94.7143 71.361C93.6795 70.4496 92.4601 69.3241 92.2303 71.0773C92.0657 72.4011 92.5976 74.244 92.8008 75.5616C93.7333 81.4753 95.3042 87.336 97.4263 92.9703C98.6621 96.1343 100.036 99.2418 101.649 102.267Z" fill="#F9F2F2"/>
<path d="M119.289 54.274C129.409 50.6465 140.019 48.0904 149.821 43.8047C143.631 49.8268 136.324 54.6977 128.786 59.0838C119.05 64.7437 108.631 69.6853 97.3807 71.4258C95.7925 71.6758 91.5383 72.2967 93.5026 69.6697C94.9072 67.8363 96.9614 66.2513 98.8017 64.8509C102.63 61.8606 106.95 59.4411 111.44 57.4349C113.961 56.3185 116.609 55.2784 119.289 54.274Z" fill="#F9F2F2"/>
<path d="M127.814 63.654C138.941 58.1636 150.205 52.6166 162.351 49.6062C158.957 52.5952 155.599 55.5534 152.175 58.5068C150.029 60.419 147.818 62.3264 145.519 64.0603C139.259 68.7747 132.019 72.2811 124.321 74.3174C120.436 75.3664 116.447 76.0069 112.386 76.2746C110.91 76.366 108.657 76.5669 109.714 74.474C110.531 72.8979 113.057 71.7151 114.495 70.786C118.763 68.1622 123.273 65.8903 127.814 63.654Z" fill="#F9F2F2"/>
<path d="M176.166 56.1045C167.515 62.4458 158.863 68.787 149.401 73.8994C144.637 76.4531 139.662 78.6907 134.388 80.0044C131.697 80.7074 128.929 81.1041 126.15 81.1994C125.547 81.2217 123.019 81.5359 122.782 80.6833C122.631 80.0042 125.254 78.862 125.815 78.5027C135.908 72.5351 146.335 67.0264 157.251 62.5892C163.481 60.077 169.754 57.9019 176.166 56.1045Z" fill="#F9F2F2"/>
<path d="M185.742 74.7804C177.012 78.5775 168.25 82.3389 159.041 84.9316C154.436 86.228 149.657 87.1774 144.87 87.3247C142.428 87.3781 139.934 87.2273 137.496 86.7799C137 86.7099 134.71 86.5073 134.703 85.7052C134.716 85.0716 137.188 84.6196 137.769 84.4288C147.692 81.2208 157.78 78.4926 168.095 76.7498C173.948 75.746 179.842 75.0793 185.742 74.7804Z" fill="#F9F2F2"/>
<path d="M109.682 81.2189C109.96 83.3435 110.232 85.5346 110.509 87.6592C110.798 90.0853 111.152 92.5163 111.609 94.9214C114.015 106.655 120.654 117.165 127.357 127.246C127.224 122.26 125.779 117.411 124.701 112.555C123.185 105.963 122.275 99.2831 120.386 92.7642C119.136 88.4302 117.417 84.1283 114.963 80.273C114.157 78.9777 112.614 75.8913 110.739 75.9531C108.527 76.0569 109.52 79.8041 109.682 81.2189Z" fill="#F9F2F2"/>
<path d="M122.952 83.3346C124.958 101.385 130.995 119.132 140.582 134.936C139.772 127.362 138.293 119.804 136.436 112.386C134.631 105.172 132.484 98.0666 129.449 91.2293C128.364 88.7444 127.145 86.2496 125.82 83.8471C125.496 83.2554 124.482 80.7089 123.817 80.6599C122.657 80.5407 122.868 82.6605 122.952 83.3346Z" fill="#F9F2F2"/>
<path d="M135.271 88.3862C141.767 102.627 151.498 115.57 163.455 125.972C160.724 119.992 157.477 114.208 153.981 108.639C150.572 103.244 146.887 97.9617 142.632 93.1718C141.058 91.419 139.413 89.7277 137.697 88.0979C137.292 87.7006 135.789 85.8862 135.248 85.9798C134.298 86.1768 135.044 87.8351 135.271 88.3862Z" fill="#F9F2F2"/>
<path d="M152.588 94.0409C148.739 91.8862 144.657 90.1818 140.687 88.3187C136.486 86.4052 132.352 84.4966 128.182 82.6187C119.873 78.8987 111.586 75.3473 102.937 72.6042C86.2957 67.3 69.4658 62.2824 52.5056 58.1237C42.663 55.7265 32.6838 53.8202 22.6298 52.4762C21.3724 52.3165 21.2042 54.1411 22.4259 54.3315C39.9074 56.8589 57.0878 61.2009 74.0604 66.0954C90.9665 70.985 107.842 75.8389 123.978 83.0095C128.506 85.014 133.034 87.0185 137.562 89.023C142.284 91.1086 147.022 93.4292 151.942 95.0953C152.654 95.4151 153.294 94.427 152.588 94.0409Z" fill="#F9F2F2"/>
<path d="M181.15 119.731C178.652 113.301 173.349 108.233 167.64 104.138C165.008 102.24 162.259 100.567 159.551 98.7973C158.179 97.9278 156.807 97.0582 155.471 96.1579C154.232 95.2982 152.889 94.03 151.528 93.4619C150.699 94.7366 154.176 98.7676 154.961 99.8944C156.505 102.046 158.192 104.074 160.058 105.949C163.815 109.8 168.173 113.195 172.851 115.878C175.477 117.408 178.255 118.682 181.15 119.731Z" fill="#F9F2F2"/>
<path d="M190.783 91.0837C184.97 94.7289 177.696 95.5275 170.665 95.3087C167.467 95.2059 164.216 94.899 160.996 94.6277C159.402 94.5099 157.777 94.3564 156.147 94.2694C154.649 94.1922 152.795 94.4226 151.389 94.0181C151.502 92.4901 156.659 91.4015 157.991 90.999C160.487 90.2148 163.066 89.6705 165.67 89.2284C171.007 88.4203 176.454 88.3885 181.877 89.1232C184.887 89.5126 187.878 90.1677 190.783 91.0837Z" fill="#F9F2F2"/>
</g>
</svg>
