<svg width="184" height="288" viewBox="0 0 184 288" fill="none" xmlns="http://www.w3.org/2000/svg">
<g opacity="0.86">
<path d="M-25.3731 114.248C-23.1404 108.944 -20.9076 103.641 -19.2578 98.1563C-16.5819 89.265 -15.5645 79.8894 -16.1643 70.5631C-16.2876 68.2644 -19.3171 67.5421 -20.3596 69.4797C-22.4282 73.4287 -24.4804 77.4516 -26.4588 81.4581C-28.396 85.3004 -30.243 89.2001 -31.819 93.2723C-37.7784 108.321 -40.0269 124.716 -40.6745 140.988C-40.8385 145.134 -41.5771 150.183 -40.7476 154.263C-37.7515 147.859 -35.8554 140.692 -33.3683 134.091C-30.7497 127.384 -28.0984 120.824 -25.3731 114.248Z" fill="#F9F2F2"/>
<path d="M-16.251 119.354C-21.5538 131.775 -25.0257 145.108 -24.7786 158.778C-24.7291 162.488 -24.3677 166.207 -24.0062 169.926C-23.6365 174.031 -23.2504 178.21 -22.8069 182.299C-21.633 180.254 -21.1652 177.824 -20.5168 175.509C-18.5797 168.177 -14.8775 161.462 -11.6514 154.697C-5.14189 141.076 -0.134789 126.627 3.06614 111.726C3.96076 107.728 4.70762 103.762 5.03576 99.6572C5.33934 96.4882 6.2995 89.9943 4.55885 87.047C2.11209 83.0162 -1.22059 91.0456 -2.2385 92.745C-4.67657 96.7762 -7.09821 100.881 -9.35565 105.027C-11.8676 109.773 -14.1578 114.469 -16.251 119.354Z" fill="#F9F2F2"/>
<path d="M18.1505 51.2267C29.1348 44.8306 41.0469 40.1667 53.3039 36.3567C46.7281 41.3076 40.0621 46.201 33.9297 51.7512C30.1124 55.1584 26.5085 58.8284 22.6009 62.1783C18.5044 65.7251 13.9974 68.8205 9.33441 71.5628C6.38721 73.3035 3.24296 74.8553 -0.122999 75.7586C-2.52842 76.4483 -7.92217 77.6473 -10.0404 75.792C-7.16729 70.5786 -1.75733 65.9644 2.74961 62.1712C7.41252 58.0332 12.6501 54.3878 18.1505 51.2267Z" fill="#F9F2F2"/>
<path d="M55.981 62.3564C67.6388 60.3854 79.7646 60.1712 91.4801 62.9947C84.6825 64.5057 77.8685 65.9428 71.0709 67.4538C65.8249 68.6199 60.5625 69.7121 55.5218 71.4529C50.9819 73.0048 46.7047 75.0411 42.3208 76.946C36.9517 79.3025 31.6401 81.5687 26.1315 83.6461C21.214 85.5921 16.1158 87.4232 10.7713 88.146C9.11291 88.3596 4.23637 89.4436 2.79959 88.2122C0.443274 86.3323 4.53981 84.1811 5.81227 83.2779C15.1546 76.4715 25.5068 71.0688 36.5159 67.226C42.8701 65.1157 49.3229 63.4487 55.981 62.3564Z" fill="#F9F2F2"/>
<path d="M45.7776 90.056C56.4337 87.067 67.3033 84.3407 78.3947 83.6586C91.325 82.878 104.256 84.8886 117.17 86.8253C96.5961 90.5456 77.2954 98.9453 57.0997 104.365C50.22 106.204 43.1843 107.691 35.9926 107.428C32.0847 107.289 28.2097 106.6 24.3838 105.434C20.7961 104.293 17.8076 102.709 21.7974 99.7285C28.5948 94.7284 37.765 92.3798 45.7776 90.056Z" fill="#F9F2F2"/>
<path d="M3.14967 187.46C9.56877 171.689 15.955 155.769 19.2626 138.906C20.5593 132.182 21.3799 125.409 22.184 118.562C22.8651 112.906 23.4969 107.027 21.674 101.617C18.1605 106.74 16.2398 112.75 14.0481 118.587C9.23796 131.132 2.70368 142.897 -0.776492 155.844C-2.5494 162.519 -3.46848 169.547 -3.54195 176.541C-3.58262 182.986 -3.54928 191.508 -0.971052 197.525C0.687145 194.52 1.79525 190.785 3.14967 187.46Z" fill="#F9F2F2"/>
<path d="M25.2333 171.696C25.209 177.517 25.4967 183.346 25.8583 189.158C26.4336 198.723 27.2305 208.238 28.1916 217.794C28.2491 218.401 29.1275 218.516 29.2917 217.86C30.3504 211.809 32.7063 206.013 34.7501 200.208C41.6287 180.225 44.1068 158.584 41.9874 137.189C41.511 132.255 40.7225 127.313 38.9161 122.675C38.1443 120.598 37.2739 118.077 35.6156 120.384C34.3761 122.133 33.7277 125.146 33.0135 127.166C29.8369 136.246 27.6044 145.737 26.3242 155.326C25.6678 160.744 25.2494 166.187 25.2333 171.696Z" fill="#F9F2F2"/>
<path d="M86.698 117.172C103.783 119.732 120.744 124.181 137.878 125.567C124.538 129.385 110.491 130.725 96.4849 131.202C78.3988 131.81 59.8939 130.884 42.6448 124.793C40.2064 123.939 33.7124 121.583 38.4903 119.358C41.8727 117.831 45.9857 117.149 49.6554 116.566C57.3479 115.244 65.3032 115.104 73.1846 115.678C77.6015 116.015 82.1415 116.556 86.698 117.172Z" fill="#F9F2F2"/>
<path d="M91.6336 136.932C111.559 137.621 131.722 138.334 151.204 143.308C144.127 144.958 137.125 146.592 130.031 148.169C125.541 149.245 120.96 150.263 116.387 150.969C103.941 152.883 91.027 152.342 78.5808 149.371C72.2838 147.902 66.151 145.776 60.1987 143.067C58.0395 142.074 54.698 140.645 57.7848 138.486C60.1409 136.877 64.6152 137.123 67.3573 136.901C75.3946 136.432 83.5059 136.645 91.6336 136.932Z" fill="#F9F2F2"/>
<path d="M165.816 163.01C148.748 165.408 131.68 167.806 114.399 167.848C105.713 167.841 96.9695 167.225 88.5051 165.075C84.162 164.024 79.9421 162.481 75.9356 160.503C75.0654 160.076 71.2477 158.598 71.5596 157.211C71.8633 156.135 76.4444 156.513 77.5117 156.431C96.3366 155.658 115.285 155.788 134.11 157.807C144.84 158.988 155.373 160.679 165.816 163.01Z" fill="#F9F2F2"/>
<path d="M165.17 196.727C149.924 195.464 134.662 194.126 119.655 190.794C112.151 189.128 104.663 186.838 97.7751 183.407C94.2776 181.625 90.8622 179.516 87.7506 177.028C87.102 176.552 84.015 174.524 84.6142 173.383C85.115 172.497 88.9572 173.736 89.926 173.908C106.411 176.912 122.765 180.721 138.693 186.097C147.74 189.126 156.59 192.664 165.17 196.727Z" fill="#F9F2F2"/>
<path d="M52.6097 148.009C51.3866 151.227 50.1061 154.536 48.883 157.754C47.4465 161.407 46.1003 165.118 44.9184 168.87C39.4025 187.31 40.8075 207.235 42.6313 226.602C46.2349 219.442 47.8764 211.479 50.0433 203.786C52.9079 193.302 56.7002 183.155 58.9819 172.49C60.5085 165.405 61.3455 158.008 60.8032 150.685C60.6471 148.238 60.8109 142.697 58.1098 141.359C54.8997 139.823 53.4551 145.882 52.6097 148.009Z" fill="#F9F2F2"/>
<path d="M69.7877 161.095C58.9032 188.171 53.9545 217.883 55.5079 247.545C60.1211 236.207 63.7737 224.385 66.786 212.472C69.7162 200.888 72.0799 189.197 72.9823 177.211C73.3351 172.868 73.5072 168.41 73.4577 164.001C73.4494 162.917 73.9499 158.542 73.0468 157.967C71.4951 156.916 70.1818 160.077 69.7877 161.095Z" fill="#F9F2F2"/>
<path d="M83.384 177.611C81.7518 202.709 85.6858 228.43 94.7016 252.246C95.3823 241.704 95.1847 231.048 94.4698 220.507C93.7467 210.278 92.5475 199.999 90.166 189.983C89.271 186.305 88.2281 182.66 87.0375 179.048C86.7665 178.178 86.0192 174.467 85.1818 174.188C83.6876 173.745 83.4825 176.659 83.384 177.611Z" fill="#F9F2F2"/>
<path d="M103.598 198.783C99.7879 192.806 95.3051 187.29 91.1013 181.633C86.6102 175.731 82.2095 169.886 77.7348 164.057C68.8019 152.474 59.7704 141.145 49.6143 130.686C30.0903 110.524 10.0819 90.6247 -10.7639 71.842C-22.874 60.9648 -35.5505 50.6787 -48.7606 41.1315C-50.419 39.9494 -52.0444 42.4042 -50.4598 43.6028C-27.6356 60.4725 -6.61749 79.6821 13.6865 99.5157C33.9001 119.292 54.0973 138.994 71.487 161.414C76.3722 167.694 81.2574 173.974 86.1426 180.255C91.2412 186.797 96.1839 193.685 101.882 199.785C102.645 200.778 104.304 199.867 103.598 198.783Z" fill="#F9F2F2"/>
<path d="M124.493 256.866C125.847 245.865 122.193 234.659 117.226 224.52C114.943 219.833 112.324 215.375 109.836 210.81C108.555 208.536 107.275 206.262 106.068 203.972C104.967 201.813 104.031 198.997 102.537 197.158C100.394 198.332 102.25 206.681 102.505 208.873C103.055 213.093 103.901 217.247 105.116 221.319C107.506 229.627 111.094 237.747 115.675 245.102C118.229 249.264 121.193 253.18 124.493 256.866Z" fill="#F9F2F2"/>
<path d="M159.908 223.638C148.907 224.378 138.004 219.978 128.218 214.322C123.768 211.745 119.4 208.839 115.049 206.007C112.881 204.627 110.698 203.174 108.456 201.812C106.396 200.564 103.596 199.48 101.913 197.839C103.234 195.761 111.362 198.142 113.554 198.585C117.684 199.373 121.748 200.563 125.771 201.917C133.94 204.831 141.673 208.928 148.792 214.091C152.757 216.931 156.493 220.133 159.908 223.638Z" fill="#F9F2F2"/>
</g>
</svg>
