<svg width="251" height="137" viewBox="0 0 251 137" fill="none" xmlns="http://www.w3.org/2000/svg">
<g opacity="0.86">
<path d="M53.7351 119.896C53.4623 124.505 53.1895 129.114 52.4331 133.646C51.2076 140.995 48.6166 148.105 44.8789 154.605C43.9754 156.216 41.5387 155.662 41.475 153.898C41.3858 150.322 41.3345 146.699 41.3307 143.114C41.2981 139.661 41.351 136.2 41.6599 132.71C42.7045 119.765 46.8975 107.166 52.1992 95.2235C53.5508 92.181 54.8089 88.2847 56.8522 85.6417C56.739 91.3134 55.5633 97.1447 55.0138 102.778C54.5211 108.534 54.1044 114.196 53.7351 119.896Z" fill="#F9F2F2"/>
<path d="M62.1104 119.454C62.6964 108.632 64.9233 97.8043 69.9465 88.0524C71.2974 85.3988 72.8759 82.8499 74.4543 80.301C76.1755 77.4772 77.9347 74.6061 79.7032 71.8203C79.8235 73.708 79.2989 75.6231 78.945 77.5195C77.7406 83.4835 78.025 89.63 77.9492 95.6432C77.8069 107.755 76.2893 119.931 73.3115 131.792C72.5382 134.987 71.6702 138.106 70.4514 141.177C69.5466 143.566 67.9358 148.581 65.6382 150.085C62.4481 152.12 62.8953 145.158 62.765 143.574C62.4389 139.808 62.1509 135.995 61.9956 132.21C61.8695 127.904 61.8856 123.712 62.1104 119.454Z" fill="#F9F2F2"/>
<path d="M100.221 77.3062C99.2511 90.9342 98.2053 104.657 94.6087 117.968C93.1587 123.268 91.3485 128.434 89.5003 133.648C87.9855 137.961 86.3567 142.416 83.1268 145.664C82.4137 140.731 83.1613 135.724 83.6528 130.746C84.637 120.011 84.1038 109.226 86.188 98.6723C87.2777 93.2392 89.1072 87.8548 91.5338 82.7937C93.7889 78.1403 96.8336 72.0179 100.823 68.6001C100.951 71.3509 100.425 74.4326 100.221 77.3062Z" fill="#F9F2F2"/>
<path d="M110.529 96.4813C112.575 92.2827 114.848 88.1889 117.169 84.133C120.973 77.4523 124.92 70.8855 128.999 64.3474C129.256 63.9305 129.929 64.1592 129.814 64.6902C128.431 69.4209 128.073 74.4283 127.486 79.331C125.355 96.1535 119.467 112.61 110.358 127.259C108.266 130.642 105.947 133.92 103.002 136.618C101.71 137.84 100.19 139.346 99.8145 137.097C99.5421 135.399 100.143 133 100.345 131.293C101.277 123.631 103.034 116.008 105.512 108.652C106.96 104.519 108.588 100.452 110.529 96.4813Z" fill="#F9F2F2"/>
<path d="M135.445 157.517C148.65 161.729 162.437 164.54 175.262 169.615C167.012 162.138 157.376 156.195 147.463 150.887C134.66 144.038 121.011 138.145 106.436 136.415C104.378 136.165 98.868 135.559 101.519 138.854C103.412 141.153 106.131 143.101 108.566 144.822C113.634 148.5 119.311 151.421 125.188 153.801C128.487 155.125 131.947 156.344 135.445 157.517Z" fill="#F9F2F2"/>
<path d="M146.003 145.042C160.589 151.609 175.356 158.243 191.143 161.568C186.634 157.872 182.173 154.213 177.626 150.564C174.774 148.198 171.838 145.841 168.797 143.711C160.516 137.922 151.028 133.734 141.016 131.461C135.962 130.287 130.794 129.643 125.549 129.483C123.643 129.433 120.732 129.276 122.188 131.925C123.314 133.918 126.622 135.327 128.517 136.459C134.136 139.645 140.05 142.367 146.003 145.042Z" fill="#F9F2F2"/>
<path d="M208.646 152.566C197.211 144.79 185.775 137.014 173.35 130.857C167.095 127.784 160.583 125.128 153.728 123.675C150.229 122.892 146.644 122.507 143.059 122.511C142.281 122.51 139.01 122.22 138.742 123.329C138.58 124.211 142.011 125.563 142.75 126.001C156.027 133.23 169.713 139.853 183.979 145.073C192.122 148.026 200.303 150.543 208.646 152.566Z" fill="#F9F2F2"/>
<path d="M220.133 128.066C208.711 123.572 197.251 119.124 185.267 116.203C179.274 114.743 173.073 113.737 166.898 113.765C163.749 113.808 160.543 114.116 157.422 114.803C156.786 114.916 153.845 115.281 153.872 116.315C153.918 117.131 157.123 117.601 157.882 117.82C170.813 121.502 183.935 124.557 197.306 126.333C204.892 127.359 212.517 127.95 220.133 128.066Z" fill="#F9F2F2"/>
<path d="M121.841 123.236C122.101 120.486 122.352 117.651 122.613 114.9C122.874 111.761 123.22 108.613 123.699 105.493C126.265 90.2648 134.339 76.4203 142.517 63.126C142.573 69.5567 140.932 75.871 139.765 82.1765C138.11 90.7386 137.243 99.3873 135.105 107.873C133.693 113.514 131.673 119.135 128.687 124.214C127.708 125.92 125.861 129.967 123.443 129.973C120.588 129.94 121.696 125.067 121.841 123.236Z" fill="#F9F2F2"/>
<path d="M138.843 119.905C140.605 96.5568 147.575 73.4155 159.207 52.6147C158.509 62.4114 156.948 72.2161 154.893 81.8589C152.896 91.2362 150.454 100.489 146.855 109.437C145.569 112.689 144.113 115.959 142.515 119.115C142.124 119.892 140.934 123.219 140.08 123.312C138.59 123.519 138.765 120.778 138.843 119.905Z" fill="#F9F2F2"/>
<path d="M154.484 112.835C162.206 94.1911 174.155 77.0708 189.087 63.1232C185.84 70.9525 181.92 78.5531 177.669 85.8877C173.523 92.9947 169.016 99.9684 163.752 106.334C161.804 108.664 159.761 110.918 157.623 113.096C157.12 113.627 155.267 116.033 154.565 115.937C153.332 115.726 154.218 113.556 154.484 112.835Z" fill="#F9F2F2"/>
<path d="M176.539 104.761C171.678 107.712 166.496 110.094 161.465 112.676C156.14 115.333 150.9 117.98 145.613 120.59C135.077 125.761 124.56 130.715 113.542 134.643C92.3413 142.236 70.885 149.468 49.2218 155.599C36.649 159.136 23.878 162.047 10.9848 164.236C9.372 164.5 9.07217 162.156 10.6376 161.855C33.0469 157.802 54.9855 151.425 76.6313 144.345C98.1916 137.275 119.714 130.252 140.179 120.278C145.921 117.489 151.664 114.7 157.407 111.911C163.396 109.008 169.395 105.802 175.659 103.431C176.561 102.987 177.431 104.231 176.539 104.761Z" fill="#F9F2F2"/>
<path d="M212.171 70.3582C209.246 78.757 202.643 85.5283 195.474 91.0656C192.169 93.6308 188.703 95.9112 185.295 98.315C183.567 99.4979 181.839 100.681 180.158 101.902C178.601 103.066 176.929 104.761 175.201 105.555C174.075 103.95 178.37 98.5982 179.331 97.1106C181.223 94.2682 183.304 91.5778 185.622 89.0774C190.287 83.944 195.748 79.3714 201.653 75.7006C204.967 73.6096 208.488 71.8415 212.171 70.3582Z" fill="#F9F2F2"/>
<path d="M225.885 106.829C218.228 102.398 208.82 101.7 199.771 102.302C195.654 102.58 191.48 103.124 187.344 103.62C185.295 103.845 183.208 104.116 181.111 104.303C179.186 104.471 176.786 104.258 174.993 104.843C175.208 106.807 181.902 107.975 183.637 108.433C186.889 109.329 190.236 109.913 193.612 110.364C200.525 111.162 207.544 110.955 214.499 109.761C218.36 109.122 222.184 108.142 225.885 106.829Z" fill="#F9F2F2"/>
</g>
</svg>
