<svg width="41" height="41" viewBox="0 0 41 41" fill="none" xmlns="http://www.w3.org/2000/svg">
<path fill-rule="evenodd" clip-rule="evenodd" d="M9.72591 11.2741L7.30924 13.6908C6.79258 14.2074 5.89258 13.8408 5.89258 13.0908V5.94076C5.89258 5.47409 6.25924 5.10742 6.72591 5.10742H13.8759C14.6259 5.10742 14.9926 6.00742 14.4759 6.52409L12.0592 8.94075L15.6926 12.5408C16.3426 13.1908 16.3426 14.2574 15.6926 14.9074C15.0426 15.5574 13.9759 15.5574 13.3259 14.9074L9.72591 11.2741ZM29.7263 8.94075L27.3096 6.52409C26.793 6.00742 27.1596 5.10742 27.9096 5.10742H35.0596C35.5263 5.10742 35.893 5.47409 35.893 5.94076V13.0908C35.893 13.8408 34.993 14.2074 34.4763 13.6908L32.0596 11.2741L28.4596 14.9074C27.8096 15.5574 26.743 15.5574 26.093 14.9074C25.443 14.2574 25.443 13.1908 26.093 12.5408L29.7263 8.94075ZM14.4759 33.6907L12.0592 31.274L15.6926 27.674C16.3426 27.024 16.3426 25.9574 15.6926 25.3074C15.0426 24.6574 13.9759 24.6574 13.3259 25.3074L9.72591 28.9407L7.30924 26.524C6.79258 26.0074 5.89258 26.374 5.89258 27.124V34.274C5.89258 34.7407 6.25924 35.1074 6.72591 35.1074H13.8759C14.6259 35.1074 14.9926 34.2074 14.4759 33.6907ZM32.0596 28.9407L34.4763 26.524C34.993 26.0074 35.893 26.374 35.893 27.124V34.274C35.893 34.7407 35.5263 35.1074 35.0596 35.1074H27.9096C27.1596 35.1074 26.793 34.2074 27.3096 33.6907L29.7263 31.274L26.093 27.674C25.443 27.024 25.443 25.9574 26.093 25.3074C26.743 24.6574 27.8096 24.6574 28.4596 25.3074L32.0596 28.9407Z" fill="white"/>
</svg>
