<svg width="111" height="108" viewBox="0 0 111 108" fill="none" xmlns="http://www.w3.org/2000/svg">
<g opacity="0.52">
<path d="M3.83524 25.8042C4.50059 23.1434 5.16594 20.4827 5.54791 17.773C6.16766 13.3797 5.98323 8.86106 5.05109 4.46794C4.83275 3.38358 3.37511 3.23164 3.02668 4.218C2.34263 6.22478 1.67137 8.26563 1.03329 10.294C0.402764 12.2418 -0.181786 14.2112 -0.628426 16.2454C-2.34174 23.7713 -2.2372 31.7027 -1.39774 39.4744C-1.18336 41.4545 -1.17259 43.9 -0.501443 45.7862C0.4414 42.5546 0.819774 39.0297 1.5124 35.7366C2.25855 32.3845 3.03031 29.1006 3.83524 25.8042Z" fill="white"/>
<path d="M8.43004 27.6546C6.8376 33.8909 6.15934 40.4446 7.23197 46.9234C7.51498 48.6833 7.94347 50.4274 8.37195 52.1715C8.8313 54.0985 9.30345 56.0594 9.79596 57.9739C10.1979 56.9285 10.2449 55.7444 10.3838 54.6035C10.7698 50.9981 12.0187 47.5736 13.0429 44.1559C15.1119 37.2739 16.4249 30.0927 16.8674 22.8112C17.0027 20.8551 17.0717 18.924 16.9365 16.953C16.8554 15.4282 16.8463 12.2823 15.8313 10.9919C14.4125 9.23127 13.4273 13.2564 13.0736 14.1281C12.2237 16.1972 11.3866 18.3004 10.6287 20.4127C9.79456 22.8259 9.05993 25.2016 8.43004 27.6546Z" fill="white"/>
<path d="M35.1868 9.81986C39.9266 7.72716 44.7839 5.7458 49.8876 4.72167C55.8384 3.5346 61.9849 3.6737 68.1185 3.77874C58.8239 6.84484 50.4482 12.0539 41.4481 15.9035C38.3817 17.2117 35.2181 18.3619 31.8595 18.6913C30.0347 18.8717 28.1866 18.7888 26.328 18.4765C24.5817 18.1609 23.0827 17.5968 24.7269 15.929C27.5336 13.1243 31.6282 11.4297 35.1868 9.81986Z" fill="white"/>
<path d="M22.2163 58.7876C24.0925 50.8893 25.9431 42.9229 26.2976 34.7024C26.4287 31.4259 26.3352 28.1562 26.2289 24.8524C26.1488 22.1219 26.0304 19.2892 24.8046 16.8339C23.5318 19.4897 23.0608 22.4662 22.4519 25.3778C21.0969 31.6416 18.8865 37.6437 18.1773 44.0146C17.8216 47.2976 17.8872 50.6945 18.3432 54.0224C18.776 57.0869 19.3886 61.1335 21.0077 63.8298C21.5673 62.2975 21.8202 60.4528 22.2163 58.7876Z" fill="white"/>
<path d="M31.367 49.9045C31.7636 52.6715 32.3056 55.4227 32.8809 58.1615C33.8183 62.6693 34.8552 67.1396 35.9712 71.6192C36.0405 71.9042 36.4565 71.9033 36.4867 71.5809C36.5545 68.6394 37.2425 65.7368 37.785 62.8501C39.5795 52.9218 39.214 42.4836 36.7304 32.4526C36.1634 30.1385 35.4509 27.8402 34.2868 25.7504C33.7828 24.8124 33.2019 23.6699 32.5934 24.8706C32.1402 25.7797 32.0502 27.2521 31.8601 28.2568C31.021 32.7713 30.6491 37.4213 30.7265 42.058C30.8013 44.6738 30.9884 47.2863 31.367 49.9045Z" fill="white"/>
<path d="M56.0927 20.1199C64.2071 20.258 72.3967 21.301 80.4518 20.8782C74.5232 23.5344 68.093 25.0572 61.6214 26.1679C53.2639 27.5986 44.6043 28.3264 36.1662 26.5214C34.9739 26.2697 31.7926 25.5604 33.8558 24.2016C35.3197 23.2625 37.1823 22.6791 38.8458 22.1704C42.3259 21.0566 46.011 20.488 49.7117 20.2633C51.7867 20.1443 53.9333 20.1151 56.0927 20.1199Z" fill="white"/>
<path d="M59.7699 29.1969C69.0724 28.2664 78.4872 27.3324 87.8843 28.4659C84.7131 29.6968 81.5752 30.9152 78.3912 32.112C76.3809 32.9066 74.3246 33.6795 72.2502 34.3037C66.6038 35.9985 60.568 36.5565 54.5791 35.9305C51.5515 35.6299 48.5541 35.007 45.5998 34.0956C44.5273 33.76 42.8753 33.2923 44.1576 32.0716C45.1391 31.1583 47.2345 30.9928 48.4925 30.7143C52.1926 29.9844 55.9749 29.5737 59.7699 29.1969Z" fill="white"/>
<path d="M96.0537 36.9044C88.2945 39.1212 80.5353 41.3379 72.5118 42.4487C68.4771 42.9933 64.373 43.2529 60.291 42.7655C58.2003 42.5404 56.1322 42.0736 54.1328 41.3866C53.6986 41.2387 51.822 40.7777 51.8696 40.0988C51.9353 39.5687 54.0895 39.4588 54.5794 39.3524C63.2685 37.797 72.0782 36.6629 80.963 36.4337C86.0295 36.3178 91.0401 36.4561 96.0537 36.9044Z" fill="white"/>
<path d="M98.1162 52.9648C90.9468 53.3269 83.7646 53.6549 76.5608 53.0189C72.9589 52.701 69.3208 52.0855 65.8811 50.8901C64.1319 50.2645 62.3978 49.4778 60.7783 48.4924C60.4437 48.3071 58.8678 47.5386 59.0662 46.9586C59.2366 46.5058 61.108 46.8521 61.57 46.8728C69.4372 47.2594 77.2997 48.0365 85.074 49.5856C89.4883 50.4536 93.8467 51.5759 98.1162 52.9648Z" fill="white"/>
<path d="M42.4253 36.9228C42.0827 38.5291 41.7199 40.1819 41.3773 41.7881C40.9662 43.6145 40.601 45.4626 40.3149 47.3198C39.0452 56.4287 41.094 65.8065 43.2981 74.8927C44.4702 71.2639 44.6745 67.3767 45.1419 63.5851C45.7377 58.4232 46.788 53.3627 47.1004 48.1518C47.3129 44.6893 47.1833 41.122 46.4183 37.677C46.1743 36.5245 45.8621 33.8813 44.5138 33.4161C42.9153 32.8894 42.669 35.8592 42.4253 36.9228Z" fill="white"/>
<path d="M51.318 42.0549C48.1601 55.6062 47.9436 70.0347 50.7436 84.0292C52.0917 78.3513 52.9598 72.5038 53.5241 66.654C54.0733 60.9653 54.3519 55.2617 53.931 49.5099C53.7906 47.4243 53.5581 45.2954 53.2262 43.204C53.1464 42.6896 53.0722 40.579 52.6125 40.363C51.8182 39.9617 51.4297 41.5464 51.318 42.0549Z" fill="white"/>
<path d="M58.7911 49.0445C59.7916 61.0715 63.4212 73.0434 69.2774 83.7895C68.855 78.7383 68.0164 73.6879 66.9457 68.7247C65.8931 63.9103 64.6158 59.1026 62.8079 54.4943C62.1345 52.8034 61.3947 51.1375 60.5886 49.4964C60.4017 49.1001 59.7946 47.3842 59.3861 47.3045C58.6611 47.1882 58.7701 48.5858 58.7911 49.0445Z" fill="white"/>
<path d="M69.6632 57.8277C67.4749 55.2287 65.0063 52.8907 62.6575 50.4686C60.158 47.9478 57.7044 45.4485 55.2177 42.9617C50.2571 38.0221 45.2686 33.2097 39.8187 28.8818C29.3379 20.535 18.6505 12.3436 7.65247 4.73553C1.26572 0.33205 -5.3427 -3.75483 -12.1472 -7.45695C-13.0003 -7.9139 -13.5832 -6.645 -12.7632 -6.17559C-0.980359 0.398707 10.1277 8.19869 20.9477 16.3402C31.7218 24.4602 42.483 32.546 52.1307 42.1002C54.8397 44.7757 57.5487 47.4511 60.2578 50.1265C63.0843 52.9132 65.8626 55.8737 68.9365 58.4119C69.3607 58.8357 70.0671 58.298 69.6632 57.8277Z" fill="white"/>
<path d="M83.4381 84.1047C83.2961 78.7925 80.8137 73.699 77.796 69.1956C76.4074 67.1125 74.8786 65.1599 73.4032 63.1483C72.649 62.1487 71.8947 61.1492 71.1736 60.1372C70.5113 59.1808 69.8792 57.902 69.0564 57.1227C68.1435 57.8157 69.5905 61.6654 69.8624 62.6907C70.4137 64.6609 71.0976 66.5811 71.9474 68.439C73.6394 72.2355 75.8749 75.8665 78.5182 79.0721C79.9959 80.8884 81.6469 82.5618 83.4381 84.1047Z" fill="white"/>
<path d="M97.5586 66.0823C92.501 67.128 87.1288 65.7258 82.1872 63.6563C79.9398 62.7126 77.7075 61.6076 75.4881 60.5367C74.3848 60.0183 73.2686 59.4658 72.1321 58.9598C71.0876 58.4971 69.7114 58.159 68.8146 57.4852C69.2829 56.4149 73.2247 57.0328 74.2738 57.105C76.247 57.2187 78.2179 57.5276 80.1813 57.9172C84.1795 58.786 88.0586 60.244 91.7264 62.2479C93.7673 63.3471 95.7266 64.6324 97.5586 66.0823Z" fill="white"/>
</g>
</svg>
