<svg width="163" height="166" viewBox="0 0 163 166" fill="none" xmlns="http://www.w3.org/2000/svg">
<path d="M159.638 85.2H156.342C154.556 85.2 153.101 83.7532 153.101 81.9776C153.101 80.2149 154.54 78.7745 156.31 78.7552C155.58 65.3241 150.249 52.6858 141.298 43.1635C131.614 32.8711 118.764 27.1997 105.113 27.1964C91.4621 27.1997 78.6117 32.8711 68.9278 43.1635C59.9763 52.6858 54.645 65.3274 53.9158 78.7552H123.933C125.722 78.7552 127.174 80.202 127.174 81.9776C127.174 83.7532 125.722 85.2 123.933 85.2H50.5873C49.7349 85.2 48.902 84.8552 48.296 84.2559C47.6931 83.6565 47.3496 82.8251 47.3496 81.9776C47.3496 73.7411 48.8664 65.7463 51.8578 58.2155C53.3 54.5935 55.0825 51.0971 57.1599 47.8264C59.2179 44.5846 61.5838 41.5362 64.1895 38.7617C66.7953 35.9904 69.6667 33.4673 72.7262 31.2696C75.8148 29.0493 79.1206 27.1417 82.5495 25.5981C86.0464 24.0256 89.7022 22.8172 93.4228 22.0051C97.2407 21.1737 101.172 20.7516 105.1 20.7516H105.126C109.054 20.7516 112.985 21.1737 116.803 22.0051C120.523 22.8172 124.179 24.0256 127.676 25.5981C131.105 27.1417 134.411 29.0493 137.5 31.2696C140.559 33.4673 143.431 35.9872 146.036 38.7617C148.642 41.5362 151.005 44.5846 153.066 47.8264C155.143 51.0971 156.926 54.5935 158.365 58.2155C161.359 65.7463 162.876 73.7411 162.876 81.9776C162.876 82.8251 162.533 83.6565 161.93 84.2559C161.323 84.8552 160.491 85.2 159.638 85.2ZM140.137 85.2C138.352 85.2 136.896 83.7532 136.896 81.9776C136.896 80.202 138.352 78.7552 140.137 78.7552C141.927 78.7552 143.378 80.202 143.378 81.9776C143.378 83.7532 141.927 85.2 140.137 85.2Z" fill="#13A6D9"/>
<path d="M138.666 85.2H71.5593C70.7069 85.2 69.8708 84.8552 69.268 84.2559C68.6651 83.6565 68.3184 82.8251 68.3184 81.9776C68.3216 69.9612 70.3796 58.3444 74.2687 48.3806C76.1809 43.4987 78.4852 39.1226 81.1104 35.3749C83.8101 31.5241 86.8436 28.3501 90.1331 25.9365C92.395 24.2769 94.7936 22.9912 97.2564 22.1211C99.82 21.2124 102.458 20.7516 105.093 20.7516H105.122C108.697 20.7516 112.233 21.5862 115.626 23.2361C118.845 24.7957 121.891 27.0611 124.688 29.9709C125.268 30.5735 125.589 31.3598 125.589 32.1944C125.592 33.0838 125.239 33.912 124.59 34.5274C123.984 35.1075 123.191 35.4265 122.351 35.4265C121.457 35.4265 120.627 35.072 120.011 34.434C115.364 29.6358 110.353 27.1997 105.113 27.1964C101.295 27.2029 97.5448 28.5241 93.9704 31.1278C90.3924 33.7412 87.0121 37.6983 84.1957 42.5706C78.6148 52.196 75.2961 65.047 74.8521 78.7552H135.373C135.179 72.8259 134.449 67.0385 133.205 61.5475C133.017 60.7096 133.166 59.846 133.63 59.1177C134.09 58.3895 134.813 57.8868 135.656 57.6967C136.605 57.484 137.62 57.716 138.378 58.3121C138.958 58.7697 139.366 59.4142 139.532 60.1328C141.107 67.0965 141.908 74.4468 141.908 81.9776C141.908 82.8251 141.561 83.6565 140.958 84.2559C140.355 84.8552 139.519 85.2 138.666 85.2ZM131.244 48.8092C129.987 48.8092 128.83 48.0745 128.302 46.9402C128.302 46.9402 128.302 46.9402 128.298 46.937C127.939 46.1572 127.9 45.2839 128.198 44.4783C128.496 43.6695 129.092 43.025 129.877 42.6608C130.308 42.4643 130.768 42.3611 131.238 42.3611C132.495 42.3611 133.652 43.0959 134.18 44.2302C134.547 45.01 134.582 45.8865 134.284 46.6921C133.986 47.5009 133.39 48.1454 132.605 48.5095C132.175 48.7061 131.714 48.8092 131.244 48.8092Z" fill="#13A6D9"/>
<path d="M117.693 85.2H92.53C91.6744 85.2 90.8415 84.8552 90.2387 84.2559C89.6329 83.6565 89.2891 82.8251 89.2891 81.9776C89.2891 71.7045 89.8724 61.5861 90.9808 52.7083C92.086 43.8789 93.616 36.6736 95.5311 31.2921C97.0417 27.1545 98.4807 24.6185 100.344 22.8139C101.735 21.4831 103.426 20.7516 105.102 20.7516H105.118C106.797 20.7516 108.489 21.4831 109.879 22.8139C110.981 23.8644 111.94 25.2146 112.896 27.0675C114.54 30.29 115.94 34.6112 117.178 40.2827C119.599 51.458 120.931 66.2651 120.934 81.9776C120.934 82.8251 120.587 83.6565 119.984 84.2559C119.382 84.8552 118.549 85.2 117.693 85.2ZM95.7872 78.7552H114.436C114.231 61.367 112.274 45.1228 109.195 35.2944C108.242 32.2041 107.105 29.639 106.068 28.2502C105.692 27.7281 105.329 27.3866 105.112 27.2415C105.047 27.2867 104.94 27.364 104.807 27.4897C104.299 27.9601 103.66 28.8946 103.102 29.9967C101.764 32.5843 100.445 36.7187 99.3817 41.6425C97.2326 51.5354 95.956 64.7151 95.7872 78.7552Z" fill="#13A6D9"/>
<path d="M105.683 165.761C103.897 165.761 102.445 164.314 102.445 162.538V133.536C102.445 131.761 103.897 130.314 105.683 130.314C107.472 130.314 108.924 131.761 108.924 133.536V162.538C108.924 164.314 107.472 165.761 105.683 165.761Z" fill="#13A6D9"/>
<path d="M105.686 139.981C103.897 139.981 102.441 138.534 102.441 136.759V81.9776C102.441 80.2021 103.897 78.7552 105.686 78.7552C107.472 78.7552 108.923 80.2021 108.923 81.9776V136.759C108.923 138.534 107.471 139.981 105.686 139.981Z" fill="#13A6D9"/>
<path d="M105.686 27.1965C103.897 27.1965 102.445 25.7496 102.445 23.9741V17.5292C102.445 15.7537 103.897 14.3068 105.686 14.3068C107.472 14.3068 108.924 15.7537 108.924 17.5292V23.9741C108.924 25.7496 107.472 27.1965 105.686 27.1965Z" fill="#13A6D9"/>
<path d="M28.0226 165.761H14.0653C12.8371 165.761 11.6856 165.105 11.061 164.05C10.4364 162.996 10.419 161.677 11.0157 160.605L28.4623 129.381C29.0764 128.281 30.2453 127.597 31.512 127.597H99.149L122.992 97.6878C123.648 96.8656 124.67 96.3729 125.727 96.3729H139.681C140.986 96.3729 142.169 97.0842 142.773 98.2322C143.376 99.3774 143.292 100.751 142.553 101.816L111.149 146.918C110.496 147.855 109.422 148.414 108.28 148.414H67.9161C65.99 148.414 64.4268 146.856 64.4268 144.944C64.4268 143.033 65.99 141.475 67.9161 141.475H106.449L133.023 103.312H127.413L103.57 133.221C102.904 134.057 101.906 134.536 100.834 134.536H33.5672L19.9972 158.822H25.9849L32.4436 147.428C33.0612 146.339 34.2267 145.662 35.4863 145.662C36.083 145.662 36.6727 145.818 37.1961 146.11C38.0091 146.564 38.5953 147.307 38.843 148.199C39.0943 149.094 38.9791 150.027 38.522 150.835L31.0653 163.995C30.4477 165.084 29.2823 165.761 28.0226 165.761ZM50.4695 148.414C48.5434 148.414 46.9801 146.856 46.9801 144.945C46.9801 143.033 48.5434 141.475 50.4695 141.475C52.3921 141.475 53.9588 143.033 53.9588 144.945C53.9588 146.856 52.3921 148.414 50.4695 148.414Z" fill="#12CAD6"/>
<path d="M121.893 165.761C120.759 165.761 119.696 165.161 119.112 164.198L109.389 148.085C108.469 146.562 108.968 144.576 110.501 143.661C111.004 143.362 111.581 143.204 112.164 143.204C113.318 143.204 114.355 143.787 114.948 144.767L124.671 160.879C125.588 162.403 125.092 164.388 123.559 165.3C123.053 165.603 122.48 165.761 121.893 165.761Z" fill="#12CAD6"/>
<path d="M39.2729 25.4211C39.6971 25.4214 40.1042 25.2575 40.4053 24.9652L43.6901 21.7581C43.8516 21.6153 43.9818 21.442 44.0728 21.2485C44.1637 21.0551 44.2136 20.8456 44.2194 20.6327C44.2251 20.4198 44.1866 20.208 44.1061 20.0101C44.0257 19.8122 43.905 19.6324 43.7515 19.4815C43.5979 19.3307 43.4146 19.2119 43.2127 19.1325C43.0108 19.0531 42.7945 19.0147 42.577 19.0195C42.3595 19.0244 42.1452 19.0724 41.9472 19.1608C41.7492 19.2492 41.5717 19.376 41.4253 19.5335L38.1646 22.7328C37.9386 22.9522 37.7842 23.2324 37.7212 23.5378C37.6582 23.8433 37.6894 24.1601 37.8107 24.4482C37.9321 24.7363 38.1381 24.9825 38.4028 25.1558C38.6674 25.329 38.9786 25.4213 39.297 25.4211H39.2729Z" fill="#FE674C"/>
<path d="M26.9629 21.1305C27.3889 21.1305 27.7975 20.9649 28.0987 20.67C28.3999 20.3752 28.5691 19.9753 28.5691 19.5584L28.5209 14.9129C28.5209 14.4959 28.3517 14.096 28.0505 13.8012C27.7493 13.5064 27.3407 13.3408 26.9148 13.3408V13.3408C26.4888 13.3408 26.0802 13.5064 25.779 13.8012C25.4778 14.096 25.3086 14.4959 25.3086 14.9129L25.3648 19.5584C25.3648 19.974 25.5329 20.3727 25.8324 20.6673C26.1319 20.9619 26.5384 21.1284 26.9629 21.1305Z" fill="#FE674C"/>
<path d="M44.1094 35.285C44.1092 35.6952 44.2729 36.0892 44.5655 36.383C44.8581 36.6767 45.2564 36.8469 45.6754 36.8571L50.3814 36.975H50.4216C50.8476 36.975 51.2561 36.8094 51.5573 36.5145C51.8585 36.2197 52.0277 35.8198 52.0277 35.4029C52.0277 34.9859 51.8585 34.586 51.5573 34.2912C51.2561 33.9963 50.8476 33.8307 50.4216 33.8307L45.7155 33.7128C45.2896 33.7128 44.881 33.8784 44.5798 34.1733C44.2786 34.4681 44.1094 34.868 44.1094 35.285Z" fill="#FE674C"/>
<path d="M32.5292 21.7999C32.9243 21.955 33.3662 21.9502 33.7577 21.7866C34.1493 21.623 34.4584 21.314 34.6173 20.9274L36.3681 16.675C36.4472 16.4835 36.4869 16.2787 36.4852 16.0722C36.4834 15.8656 36.44 15.6615 36.3576 15.4713C36.2752 15.2812 36.1553 15.1088 36.0049 14.964C35.8544 14.8192 35.6763 14.7048 35.4806 14.6274C35.285 14.55 35.0757 14.5111 34.8647 14.5128C34.6536 14.5146 34.445 14.557 34.2508 14.6376C34.0565 14.7183 33.8804 14.8356 33.7324 14.9829C33.5845 15.1302 33.4676 15.3045 33.3885 15.496L31.6377 19.7484C31.558 19.9403 31.5179 20.1458 31.5196 20.3529C31.5213 20.5601 31.5648 20.7649 31.6476 20.9556C31.7305 21.1462 31.851 21.319 32.0023 21.4639C32.1536 21.6088 32.3327 21.723 32.5292 21.7999Z" fill="#FE674C"/>
<path d="M42.5327 29.3311C42.6885 29.7186 42.995 30.0298 43.385 30.1963C43.7749 30.3628 44.2164 30.3711 44.6126 30.2193L48.9412 28.553C49.3084 28.3812 49.5953 28.0795 49.7439 27.7087C49.8925 27.3379 49.8918 26.9257 49.7419 26.5554C49.592 26.1851 49.3041 25.8843 48.9363 25.7138C48.5686 25.5433 48.1484 25.5158 47.7607 25.6368L43.4321 27.3032C43.0396 27.4572 42.7251 27.7566 42.5567 28.1363C42.3883 28.5159 42.3796 28.9453 42.5327 29.3311Z" fill="#FE674C"/>
<path d="M49.2209 44.8176C49.6105 44.9767 50.0485 44.9792 50.44 44.8246C50.8315 44.67 51.1451 44.3708 51.313 43.9916C51.4808 43.6125 51.4894 43.1839 51.3368 42.7986C51.1843 42.4133 50.8829 42.1022 50.4978 41.9328L46.1209 40.0698C45.7313 39.9107 45.2933 39.9082 44.9018 40.0628C44.5103 40.2174 44.1967 40.5166 44.0289 40.8958C43.861 41.275 43.8525 41.7036 44.005 42.0889C44.1576 42.4742 44.459 42.7852 44.844 42.9547L49.2209 44.8176Z" fill="#FE674C"/>
<path d="M40.4525 57.8018C40.7315 58.1119 41.124 58.3021 41.5452 58.3312C41.9663 58.3602 42.3822 58.2258 42.7028 57.957C43.0235 57.6882 43.2232 57.3067 43.2586 56.8949C43.2941 56.4831 43.1625 56.0743 42.8923 55.7567L39.7927 52.2043C39.5138 51.8941 39.1213 51.7039 38.7001 51.6749C38.279 51.6458 37.8631 51.7802 37.5424 52.049C37.2218 52.3178 37.0221 52.6994 36.9867 53.1111C36.9512 53.5229 37.0828 53.9318 37.353 54.2493L40.4525 57.8018Z" fill="#FE674C"/>
<path d="M45.1203 51.3521C45.4697 51.584 45.8984 51.6719 46.3135 51.5968C46.7287 51.5217 47.0969 51.2897 47.3386 50.9509C47.5803 50.6121 47.676 50.1938 47.605 49.7864C47.534 49.3791 47.302 49.0155 46.9592 48.7743L43.0497 46.0946C42.7002 45.8627 42.2716 45.7748 41.8564 45.8499C41.4413 45.925 41.073 46.157 40.8313 46.4958C40.5896 46.8346 40.4939 47.2529 40.5649 47.6603C40.636 48.0676 40.868 48.4312 41.2108 48.6724L45.1203 51.3521Z" fill="#FE674C"/>
<path d="M18.2647 21.7722C18.3501 21.9611 18.4727 22.1317 18.6255 22.2742C18.7783 22.4167 18.9582 22.5284 19.1551 22.6029C19.352 22.6773 19.5619 22.7131 19.7729 22.7081C19.984 22.7032 20.1919 22.6576 20.3849 22.574C20.5779 22.4904 20.7522 22.3704 20.8978 22.2208C21.0434 22.0713 21.1575 21.8951 21.2336 21.7024C21.3097 21.5097 21.3462 21.3043 21.3411 21.0977C21.3361 20.8912 21.2895 20.6877 21.2041 20.4988L19.2605 16.1991C19.1751 16.0102 19.0525 15.8396 18.8997 15.6971C18.7469 15.5545 18.567 15.4429 18.3701 15.3684C18.1732 15.294 17.9633 15.2582 17.7523 15.2631C17.5412 15.2681 17.3333 15.3137 17.1403 15.3973C16.9473 15.4809 16.773 15.6009 16.6274 15.7505C16.4818 15.9 16.3677 16.0761 16.2916 16.2688C16.2155 16.4615 16.179 16.667 16.1841 16.8735C16.1891 17.0801 16.2357 17.2836 16.3211 17.4725L18.2647 21.7722Z" fill="#FE674C"/>
<path d="M11.1674 27.2726C11.3013 27.4323 11.466 27.5646 11.6522 27.662C11.8383 27.7594 12.0422 27.8199 12.2523 27.8401C12.4623 27.8604 12.6744 27.8399 12.8763 27.78C13.0783 27.72 13.2662 27.6217 13.4294 27.4906C13.5925 27.3596 13.7277 27.1983 13.8272 27.0162C13.9267 26.834 13.9885 26.6344 14.0092 26.4288C14.0299 26.2232 14.009 26.0156 13.9478 25.8179C13.8865 25.6202 13.786 25.4363 13.6521 25.2766L10.6054 21.6415C10.4715 21.4818 10.3068 21.3495 10.1206 21.2521C9.93449 21.1548 9.73058 21.0942 9.52054 21.074C9.31049 21.0537 9.09843 21.0742 8.89646 21.1341C8.69448 21.1941 8.50656 21.2924 8.34341 21.4235C8.18026 21.5545 8.04508 21.7158 7.94559 21.898C7.84609 22.0802 7.78424 22.2797 7.76355 22.4853C7.74287 22.6909 7.76376 22.8985 7.82502 23.0962C7.88629 23.2939 7.98674 23.4778 8.12064 23.6375L11.1674 27.2726Z" fill="#FE674C"/>
<path d="M14.2479 51.9033C14.2482 52.3185 14.0807 52.717 13.7821 53.0117L10.5054 56.2269C10.3596 56.385 10.1825 56.5124 9.98482 56.6015C9.78717 56.6905 9.57309 56.7393 9.35559 56.745C9.13808 56.7506 8.92168 56.7129 8.71951 56.6342C8.51734 56.5554 8.33362 56.4373 8.17949 56.287C8.02536 56.1367 7.90405 55.9572 7.82291 55.7596C7.74176 55.562 7.70248 55.3503 7.70745 55.1374C7.71242 54.9245 7.76153 54.7148 7.8518 54.521C7.94208 54.3272 8.07163 54.1534 8.23261 54.0101L11.5012 50.8185C11.7254 50.5972 12.0117 50.4462 12.3238 50.3845C12.6358 50.3229 12.9595 50.3533 13.2539 50.4721C13.5482 50.5909 13.7998 50.7926 13.9768 51.0516C14.1538 51.3106 14.2481 51.6153 14.2479 51.9269V51.9033Z" fill="#FE674C"/>
<path d="M8.59349 39.358C8.59349 39.775 8.42427 40.1749 8.12305 40.4698C7.82182 40.7646 7.41328 40.9303 6.98729 40.9303L2.24097 40.8831C1.81498 40.8831 1.40643 40.7175 1.10521 40.4226C0.80399 40.1277 0.634766 39.7278 0.634766 39.3108V39.3108C0.634766 38.8938 0.80399 38.4939 1.10521 38.1991C1.40643 37.9042 1.81498 37.7386 2.24097 37.7386L6.98729 37.7936C7.41189 37.7936 7.81922 37.9581 8.12022 38.2513C8.42121 38.5445 8.59137 38.9424 8.59349 39.358Z" fill="#FE674C"/>
<path d="M25.5965 55.6447C26.0157 55.6446 26.4183 55.8048 26.7184 56.0912C27.0185 56.3776 27.1923 56.7674 27.2028 57.1775L27.3233 61.784V61.8233C27.3233 62.2403 27.154 62.6402 26.8528 62.935C26.5516 63.2298 26.143 63.3955 25.717 63.3955C25.291 63.3955 24.8824 63.2298 24.5812 62.935C24.2799 62.6402 24.1107 62.2403 24.1107 61.8233L23.9902 57.2169C23.9902 56.7999 24.1595 56.4 24.4607 56.1052C24.7619 55.8103 25.1705 55.6447 25.5965 55.6447Z" fill="#FE674C"/>
<path d="M10.0371 45.5518C10.1956 45.9386 10.1907 46.3711 10.0236 46.7543C9.85642 47.1375 9.54068 47.4401 9.14572 47.5956L4.801 49.3092C4.60537 49.3866 4.39607 49.4255 4.18506 49.4238C3.97405 49.422 3.76545 49.3796 3.57119 49.299C3.37692 49.2183 3.20079 49.101 3.05285 48.9537C2.90491 48.8064 2.78805 48.6321 2.70895 48.4406C2.62986 48.2491 2.59007 48.0442 2.59185 47.8377C2.59364 47.6312 2.63698 47.427 2.71938 47.2368C2.80179 47.0467 2.92165 46.8743 3.07212 46.7295C3.22259 46.5847 3.40073 46.4703 3.59637 46.3929L7.94108 44.6793C8.13718 44.6013 8.34709 44.562 8.55876 44.5636C8.77042 44.5653 8.97967 44.6079 9.17446 44.689C9.36925 44.7701 9.54574 44.888 9.69379 45.0361C9.84184 45.1842 9.95853 45.3595 10.0371 45.5518Z" fill="#FE674C"/>
<path d="M19.2567 54.3481C19.6526 54.5006 19.9705 54.8006 20.1407 55.1823C20.3108 55.564 20.3193 55.9962 20.1642 56.3841L18.4617 60.6211C18.2862 60.9806 17.9779 61.2614 17.5991 61.4069C17.2202 61.5524 16.7991 61.5517 16.4208 61.4049C16.0424 61.2582 15.7351 60.9764 15.5609 60.6164C15.3867 60.2564 15.3585 59.8451 15.4822 59.4656L17.1847 55.2285C17.3422 54.8443 17.648 54.5364 18.0359 54.3715C18.4238 54.2067 18.8625 54.1983 19.2567 54.3481Z" fill="#FE674C"/>
<path d="M35.8418 59.6536C36.0043 60.0349 36.0068 60.4636 35.8489 60.8468C35.691 61.23 35.3852 61.5369 34.9978 61.7012C34.6104 61.8655 34.1725 61.8738 33.7789 61.7245C33.3852 61.5752 33.0675 61.2802 32.8943 60.9034L30.991 56.6196C30.8284 56.2382 30.8259 55.8095 30.9838 55.4263C31.1417 55.0431 31.4475 54.7362 31.8349 54.5719C32.2223 54.4077 32.6602 54.3993 33.0538 54.5486C33.4475 54.6979 33.7653 54.9929 33.9384 55.3698L35.8418 59.6536Z" fill="#FE674C"/>
<path d="M8.99423 30.8449C9.18723 30.9285 9.36151 31.0485 9.50712 31.1981C9.65273 31.3476 9.76683 31.5238 9.84289 31.7165C9.91896 31.9092 9.9555 32.1147 9.95043 32.3212C9.94537 32.5278 9.8988 32.7313 9.81337 32.9202C9.72795 33.1091 9.60535 33.2797 9.45257 33.4223C9.29979 33.5648 9.11983 33.6765 8.92296 33.751C8.72609 33.8254 8.51616 33.8612 8.30517 33.8562C8.09417 33.8513 7.88624 33.8057 7.69325 33.7221L3.30042 31.8197C3.10742 31.736 2.93314 31.616 2.78753 31.4665C2.64191 31.3169 2.52782 31.1408 2.45175 30.948C2.37569 30.7553 2.33915 30.5498 2.34421 30.3433C2.34928 30.1368 2.39585 29.9332 2.48128 29.7443C2.5667 29.5554 2.6893 29.3848 2.84208 29.2422C2.99486 29.0997 3.17482 28.988 3.37169 28.9136C3.56856 28.8391 3.77849 28.8033 3.98948 28.8083C4.20048 28.8132 4.40841 28.8588 4.6014 28.9425L8.99423 30.8449Z" fill="#FE674C"/>
<path d="M39.693 38.0913C39.693 45.3637 33.7976 51.2591 26.5252 51.2591C19.2528 51.2591 13.3574 45.3637 13.3574 38.0913C13.3574 30.819 19.2528 24.9236 26.5252 24.9236C33.7976 24.9236 39.693 30.819 39.693 38.0913Z" stroke="#FE674C" stroke-width="3"/>
<path d="M34.3339 40.4457C34.3627 40.4526 34.3916 40.4586 34.4205 40.4636C34.6931 40.5109 34.9719 40.4668 35.2014 40.3403C35.4309 40.2137 35.5944 40.0138 35.6592 39.7805C36.5756 36.4791 34.6328 32.0323 30.6612 31.0216C30.5212 30.986 30.3758 30.9747 30.2332 30.9884C30.0905 31.0021 29.9535 31.0405 29.8298 31.1013C29.5801 31.2243 29.4001 31.4314 29.3294 31.6771C29.2588 31.9228 29.3033 32.1871 29.4531 32.4116C29.603 32.6362 29.8459 32.8028 30.1284 32.8746C32.5636 33.4945 34.2455 36.654 33.5241 39.2529C33.4557 39.4993 33.5026 39.7634 33.6544 39.987C33.8063 40.2107 34.0507 40.3757 34.3339 40.4457Z" fill="#FE674C"/>
<path d="M83.8556 10.4051C83.5411 8.89634 82.7983 7.50495 81.7123 6.39078C80.6263 5.27661 79.2413 4.48484 77.7163 4.10642C77.351 3.10934 76.7307 2.22052 75.9146 1.52476C75.0986 0.829007 74.114 0.349522 73.0548 0.132053C71.9956 -0.0854168 70.8972 -0.0336161 69.8643 0.282513C68.8314 0.598641 67.8985 1.16855 67.1545 1.93788H66.8163C64.5278 1.94225 62.3344 2.83399 60.7162 4.41786C59.098 6.00173 58.1869 8.14866 58.1825 10.3886C58.1789 10.7456 58.2015 11.1024 58.2501 11.4563C57.8108 11.8541 57.4607 12.3368 57.222 12.874C56.9832 13.4111 56.8611 13.9909 56.8633 14.5767C56.8655 15.7087 57.326 16.7938 58.1438 17.5942C58.9616 18.3947 60.0702 18.8454 61.2267 18.8476C62.0377 18.8493 62.8324 18.6254 63.5184 18.202C64.592 18.6381 65.7445 18.8578 66.9069 18.8478C68.0693 18.8379 69.2177 18.5985 70.2833 18.144C71.7557 19.3907 73.6276 20.0931 75.574 20.1294C77.5205 20.1657 79.4184 19.5335 80.9382 18.3427C81.5641 18.6739 82.2645 18.8474 82.9761 18.8476C84.05 18.8423 85.0842 18.4495 85.8807 17.7445C86.6772 17.0395 87.1802 16.0717 87.2932 15.0264C87.4063 13.9812 87.1216 12.9318 86.4936 12.0791C85.8655 11.2265 84.9383 10.6304 83.8894 10.4051H83.8556ZM82.4856 16.199C82.4697 16.061 82.4255 15.9277 82.3558 15.8068C82.286 15.6859 82.1922 15.5801 82.0797 15.4954C81.8529 15.325 81.5664 15.2494 81.2828 15.2851C80.9992 15.3208 80.7415 15.4648 80.5661 15.6858C80.5396 15.7277 80.5084 15.7666 80.4731 15.8017C80.2201 16.1045 79.9368 16.3817 79.6274 16.6294C78.5286 17.5171 77.1454 17.9977 75.7207 17.9868C74.4711 17.9881 73.2505 17.6187 72.2198 16.9273C72.3857 16.7304 72.4728 16.4811 72.4647 16.2259C72.4566 15.9708 72.3539 15.7272 72.1758 15.5407C71.9977 15.3543 71.7563 15.2376 71.4968 15.2125C71.2373 15.1874 70.9773 15.2556 70.7653 15.4044C70.6469 15.4954 70.5201 15.5782 70.3763 15.6692C70.029 15.8956 69.6576 16.0843 69.2686 16.2321C67.8901 16.7782 66.362 16.8454 64.939 16.4224C64.9371 16.2622 64.898 16.1044 64.8248 15.961C64.7516 15.8177 64.646 15.6924 64.5162 15.5948C64.3968 15.5116 64.2617 15.4527 64.1187 15.4214C63.9758 15.3901 63.8279 15.3871 63.6837 15.4125C63.5395 15.438 63.402 15.4913 63.2792 15.5695C63.1564 15.6477 63.0509 15.7492 62.9687 15.8679C62.7289 16.1542 62.4212 16.3787 62.0723 16.5218H61.9962C61.7552 16.6086 61.5005 16.6534 61.2436 16.6542C60.6538 16.6542 60.0881 16.4249 59.671 16.0166C59.254 15.6084 59.0196 15.0547 59.0196 14.4774C59.0286 14.0657 59.161 13.6656 59.4002 13.3269C59.6302 12.9978 59.9535 12.7417 60.3304 12.5902C60.5956 12.4698 60.8836 12.4049 61.176 12.3999C61.4433 12.3766 61.692 12.2562 61.8731 12.0624C62.0543 11.8686 62.1547 11.6155 62.1547 11.3528C62.1547 11.0902 62.0543 10.8371 61.8731 10.6433C61.692 10.4495 61.4433 10.3291 61.176 10.3058C60.8721 10.307 60.569 10.3375 60.2712 10.3969C60.2714 8.88321 60.822 7.41905 61.8245 6.26649C62.8269 5.11393 64.2157 4.34821 65.7423 4.10642C65.4966 4.78127 65.3707 5.49232 65.3703 6.20875C65.3941 6.47037 65.517 6.7138 65.715 6.8911C65.913 7.0684 66.1716 7.16673 66.44 7.16673C66.7083 7.16673 66.9669 7.0684 67.1649 6.8911C67.3629 6.7138 67.4859 6.47037 67.5097 6.20875C67.5089 5.59951 67.6474 4.99781 67.9152 4.44782C68.183 3.89784 68.5732 3.41352 69.0572 3.03043L69.1756 2.94766C69.9023 2.40095 70.7959 2.10942 71.7124 2.11997C72.4088 2.12349 73.0936 2.29533 73.7058 2.62022C74.318 2.94511 74.8387 3.41298 75.2218 3.98227C75.0278 4.0984 74.8765 4.27178 74.7896 4.47746C74.7028 4.68313 74.6849 4.91048 74.7385 5.12676C74.7921 5.34303 74.9144 5.53708 75.0879 5.68095C75.2613 5.82482 75.477 5.91109 75.7038 5.92734C75.8924 5.91476 76.0817 5.91476 76.2703 5.92734C76.7007 5.96769 77.1257 6.05089 77.5388 6.17565C78.8022 6.55649 79.9065 7.32582 80.6879 8.36949C81.4694 9.41315 81.8863 10.6756 81.8768 11.9695C81.8762 12.1938 81.9494 12.4123 82.0857 12.5926C82.2219 12.7729 82.414 12.9054 82.6333 12.9705C82.8526 13.0355 83.0875 13.0296 83.3031 12.9537C83.5187 12.8777 83.7035 12.7358 83.8302 12.5489C84.2791 12.7595 84.6428 13.1116 84.863 13.5485C85.0833 13.9855 85.1474 14.4822 85.0451 14.9591C84.9428 15.4359 84.68 15.8654 84.2987 16.1787C83.9175 16.4921 83.4398 16.6712 82.9423 16.6873C82.7716 16.6847 82.6016 16.6653 82.4349 16.6294C82.4796 16.4989 82.4969 16.361 82.4856 16.2238V16.199Z" fill="#13A6D9"/>
<path d="M34.6041 89.841C34.2051 87.9264 33.2624 86.1607 31.8844 84.7469C30.5063 83.333 28.7488 82.3283 26.8136 81.8481C26.3499 80.5828 25.5628 79.4549 24.5272 78.572C23.4917 77.6891 22.2423 77.0807 20.8982 76.8047C19.5542 76.5288 18.1603 76.5945 16.8495 76.9956C15.5388 77.3968 14.3549 78.12 13.4109 79.0963H12.9817C10.0777 79.1018 7.29426 80.2334 5.24082 82.2433C3.18739 84.2532 2.03127 86.9776 2.02559 89.82C2.021 90.2731 2.04969 90.7259 2.11144 91.1749C1.55395 91.6797 1.10966 92.2923 0.806725 92.9739C0.503787 93.6555 0.348804 94.3913 0.3516 95.1346C0.354436 96.5711 0.938713 97.948 1.9765 98.9638C3.01428 99.9796 4.42101 100.551 5.88866 100.554C6.91773 100.556 7.92625 100.272 8.79669 99.735C10.1591 100.288 11.6216 100.567 13.0966 100.555C14.5717 100.542 16.029 100.238 17.3813 99.6615C19.2496 101.243 21.6251 102.135 24.0951 102.181C26.565 102.227 28.9734 101.425 30.902 99.9136C31.6964 100.334 32.5851 100.554 33.4881 100.554C34.8508 100.548 36.1632 100.049 37.174 99.1545C38.1847 98.2599 38.8229 97.0318 38.9664 95.7053C39.1099 94.3789 38.7486 93.0472 37.9517 91.9653C37.1547 90.8833 35.9781 90.1269 34.647 89.841H34.6041ZM32.8657 97.1932C32.8454 97.0182 32.7894 96.849 32.7009 96.6956C32.6124 96.5422 32.4933 96.4079 32.3506 96.3005C32.0628 96.0842 31.6992 95.9883 31.3393 96.0336C30.9795 96.0788 30.6525 96.2616 30.4298 96.542C30.3963 96.5953 30.3567 96.6446 30.3118 96.6891C29.9908 97.0733 29.6313 97.4252 29.2387 97.7394C27.8443 98.8659 26.0891 99.4757 24.2811 99.4619C22.6955 99.4636 21.1466 98.9949 19.8386 98.1175C20.0492 97.8676 20.1596 97.5512 20.1493 97.2274C20.1391 96.9037 20.0088 96.5946 19.7828 96.358C19.5568 96.1213 19.2505 95.9733 18.9211 95.9414C18.5918 95.9096 18.2619 95.9961 17.9929 96.1849C17.8427 96.3005 17.6817 96.4055 17.4993 96.521C17.0586 96.8083 16.5872 97.0477 16.0936 97.2353C14.3443 97.9283 12.4052 98.0136 10.5994 97.4768C10.597 97.2734 10.5475 97.0732 10.4545 96.8913C10.3616 96.7094 10.2277 96.5505 10.0629 96.4265C9.91145 96.321 9.73998 96.2462 9.55857 96.2065C9.37715 96.1668 9.18946 96.163 9.00651 96.1952C8.82357 96.2275 8.64906 96.2953 8.49325 96.3945C8.33744 96.4938 8.20346 96.6225 8.09919 96.7731C7.79491 97.1364 7.40439 97.4213 6.96173 97.6029H6.86515C6.55928 97.7131 6.23605 97.7699 5.91012 97.7709C5.16163 97.7709 4.4438 97.4799 3.91453 96.9619C3.38527 96.4438 3.08794 95.7412 3.08794 95.0086C3.09934 94.4862 3.26725 93.9785 3.57082 93.5486C3.86273 93.131 4.27302 92.8061 4.7512 92.6139C5.08777 92.461 5.45329 92.3787 5.82427 92.3723C6.16346 92.3427 6.47905 92.19 6.70892 91.9441C6.93878 91.6982 7.06627 91.3769 7.06627 91.0436C7.06627 90.7103 6.93878 90.3891 6.70892 90.1432C6.47905 89.8973 6.16346 89.7445 5.82427 89.715C5.4386 89.7165 5.05401 89.7552 4.67609 89.8305C4.67637 87.9097 5.3751 86.0517 6.64719 84.5892C7.91927 83.1266 9.68167 82.1549 11.6189 81.8481C11.307 82.7045 11.1473 83.6068 11.1467 84.5159C11.1769 84.8479 11.333 85.1568 11.5842 85.3818C11.8354 85.6068 12.1636 85.7316 12.5042 85.7316C12.8447 85.7316 13.1729 85.6068 13.4241 85.3818C13.6753 85.1568 13.8314 84.8479 13.8616 84.5159C13.8605 83.7428 14.0364 82.9792 14.3762 82.2813C14.716 81.5834 15.2111 80.9688 15.8253 80.4827L15.9755 80.3777C16.8978 79.6839 18.0317 79.3139 19.1948 79.3273C20.0785 79.3318 20.9474 79.5499 21.7243 79.9621C22.5012 80.3744 23.162 80.9681 23.648 81.6905C23.4019 81.8379 23.2099 82.0579 23.0997 82.3189C22.9895 82.5799 22.9667 82.8684 23.0347 83.1429C23.1028 83.4173 23.258 83.6636 23.4781 83.8461C23.6983 84.0287 23.9719 84.1382 24.2597 84.1588C24.499 84.1428 24.7393 84.1428 24.9786 84.1588C25.5247 84.21 26.064 84.3156 26.5882 84.4739C28.1915 84.9572 29.5928 85.9334 30.5845 87.2578C31.5761 88.5822 32.1051 90.1842 32.0931 91.8261C32.0923 92.1107 32.1852 92.388 32.3582 92.6168C32.5311 92.8456 32.7748 93.0138 33.0531 93.0963C33.3313 93.1789 33.6294 93.1714 33.903 93.075C34.1766 92.9787 34.4112 92.7985 34.5719 92.5613C35.1415 92.8287 35.603 93.2754 35.8825 93.8299C36.1621 94.3844 36.2434 95.0147 36.1136 95.6198C35.9837 96.225 35.6502 96.77 35.1665 97.1676C34.6827 97.5652 34.0766 97.7924 33.4452 97.8129C33.2286 97.8097 33.0129 97.7851 32.8013 97.7394C32.8581 97.5739 32.88 97.3988 32.8657 97.2248V97.1932Z" fill="#13A6D9"/>
</svg>
