<svg width="148" height="167" viewBox="0 0 148 167" fill="none" xmlns="http://www.w3.org/2000/svg">
<path d="M74.0266 19.3295V8.29753C74.0266 6.76655 72.7855 5.52545 71.2545 5.52545C69.7235 5.52545 68.4824 6.76655 68.4824 8.29753V19.3295C68.4824 20.8604 69.7235 22.1016 71.2545 22.1016C72.7855 22.1016 74.0266 20.8604 74.0266 19.3295Z" fill="#13A6D9"/>
<path d="M96.203 107.745C94.5582 107.745 92.9503 108.231 91.5827 109.141C90.2151 110.052 89.1492 111.346 88.5198 112.861C87.8903 114.375 87.7256 116.042 88.0465 117.65C88.3674 119.257 89.1594 120.734 90.3225 121.893C91.4855 123.052 92.9674 123.842 94.5805 124.161C96.1937 124.481 97.8658 124.317 99.3854 123.69C100.905 123.062 102.204 122 103.118 120.637C104.031 119.274 104.519 117.672 104.519 116.033C104.519 113.834 103.643 111.726 102.083 110.172C100.524 108.618 98.4086 107.745 96.203 107.745ZM96.203 118.795C95.6547 118.795 95.1187 118.633 94.6629 118.33C94.207 118.026 93.8517 117.595 93.6419 117.09C93.4321 116.585 93.3772 116.03 93.4841 115.494C93.5911 114.958 93.8551 114.465 94.2428 114.079C94.6305 113.693 95.1244 113.43 95.6622 113.323C96.1999 113.216 96.7573 113.271 97.2638 113.48C97.7703 113.689 98.2033 114.043 98.5079 114.498C98.8125 114.952 98.975 115.486 98.975 116.033C98.975 116.765 98.683 117.468 98.1631 117.986C97.6433 118.504 96.9382 118.795 96.203 118.795Z" fill="#FE674C"/>
<path d="M79.5703 8.28813C79.5703 9.81392 80.8166 11.0508 82.3424 11.0508C83.8682 11.0508 85.1145 9.81392 85.1145 8.28813C85.1145 6.76235 83.8682 5.52545 82.3424 5.52545C80.8166 5.52545 79.5703 6.76235 79.5703 8.28813Z" fill="#13A6D9"/>
<path d="M57.3945 2.76268C57.3945 4.28847 58.6408 5.52537 60.1666 5.52537C61.6924 5.52537 62.9387 4.28847 62.9387 2.76268C62.9387 1.2369 61.6924 0 60.1666 0C58.6408 0 57.3945 1.2369 57.3945 2.76268Z" fill="#13A6D9"/>
<path d="M85.1152 55.2536C85.1152 56.7794 86.3615 58.0163 87.8873 58.0163C89.4131 58.0163 90.6594 56.7794 90.6594 55.2536C90.6594 53.7278 89.4131 52.4909 87.8873 52.4909C86.3615 52.4909 85.1152 53.7278 85.1152 55.2536Z" fill="#13A6D9"/>
<path d="M51.8496 55.2536C51.8496 56.7794 53.0959 58.0163 54.6217 58.0163C56.1475 58.0163 57.3938 56.7794 57.3938 55.2536C57.3938 53.7278 56.1475 52.4909 54.6217 52.4909C53.0959 52.4909 51.8496 53.7278 51.8496 55.2536Z" fill="#13A6D9"/>
<path d="M75.9559 51.1588L76.419 49.0658M75.9559 51.1588C75.9307 51.2964 75.86 51.4115 75.7438 51.5047M75.9559 51.1588L76.2 51.2128L76.2009 51.2088M75.9559 51.1588L76.2018 51.2039C76.2015 51.2055 76.2012 51.2072 76.2009 51.2088M76.419 49.0658L77.9244 56.0366M76.419 49.0658C76.4578 48.8795 76.419 48.7111 76.3036 48.5615L76.419 49.0658ZM75.7438 51.5047C75.6285 51.5984 75.4999 51.645 75.3581 51.645H68.1639C68.2009 51.7294 68.2391 51.8127 68.2786 51.895M75.7438 51.5047L75.9003 51.6997C75.9004 51.6996 75.9006 51.6994 75.9008 51.6993M75.7438 51.5047L75.9014 51.6988C75.9012 51.6989 75.901 51.6991 75.9008 51.6993M68.2786 51.895H68.0023C68.6214 53.235 69.546 54.3072 70.7761 55.1114M68.2786 51.895C68.8776 53.1441 69.7549 54.1451 70.9129 54.9022M68.2786 51.895H75.3581C75.5596 51.895 75.7431 51.8271 75.9008 51.6993M70.7761 55.1114C72.0815 55.9648 73.5512 56.3914 75.1848 56.3914C75.4165 56.3914 75.6478 56.382 75.8796 56.3636M70.7761 55.1114L70.9129 54.9022C70.9129 54.9022 70.9129 54.9022 70.9129 54.9022M70.7761 55.1114L70.9129 54.9022M75.8796 56.3636C76.1113 56.3448 76.3264 56.3226 76.5257 56.2982M75.8796 56.3636L75.8598 56.1143C75.8598 56.1143 75.8597 56.1144 75.8597 56.1144M75.8796 56.3636L75.8594 56.1144C75.8595 56.1144 75.8596 56.1144 75.8597 56.1144M76.5257 56.2982C76.7246 56.2733 76.9152 56.2451 77.0946 56.2139M76.5257 56.2982L76.4947 56.0501M76.5257 56.2982L76.4953 56.05C76.4951 56.0501 76.4949 56.0501 76.4947 56.0501M77.0946 56.2139C77.275 56.1826 77.4323 56.1517 77.5673 56.1205C77.7024 56.0894 77.8213 56.0612 77.9244 56.0366M77.0946 56.2139L77.0519 55.9676L77.0518 55.9676M77.0946 56.2139L77.0518 55.9676M77.9244 56.0366L77.8663 55.7934C77.8662 55.7934 77.866 55.7935 77.8659 55.7935L77.8657 55.7935L77.9244 56.0366ZM77.0518 55.9676C76.8767 55.998 76.69 56.0257 76.4947 56.0501M77.0518 55.9676L61.8585 46.6241C61.8626 46.5397 61.8672 46.4564 61.8725 46.3741H60.8302C60.6503 46.3741 60.5023 46.3182 60.3864 46.206M76.4947 56.0501C76.2991 56.0741 76.0877 56.0959 75.8597 56.1144M75.8597 56.1144C75.6343 56.1322 75.4097 56.1414 75.1848 56.1414C73.5973 56.1414 72.1756 55.7277 70.9129 54.9022M75.9008 51.6993C76.0587 51.5724 76.1634 51.4073 76.2009 51.2088M76.2009 51.2088L76.6631 49.1198L76.6631 49.1198L76.6637 49.1168C76.7174 48.8592 76.6616 48.6164 76.5015 48.4088L76.5018 48.4085L76.4932 48.3985C76.3183 48.195 76.0885 48.087 75.8211 48.087H67.2054M67.2054 48.087C67.1824 47.489 67.1808 47.0024 67.1997 46.6248H76.381C76.5925 46.6248 76.7911 46.5754 76.9506 46.4499C77.111 46.3237 77.2024 46.1438 77.2432 45.94L77.7057 43.8123C77.7622 43.5552 77.6918 43.3164 77.5201 43.1147C77.3531 42.9016 77.1177 42.7983 76.8445 42.7983H68.2158C68.8334 41.615 69.7074 40.6742 70.8405 39.9719L70.8406 39.9719C72.0844 39.2006 73.4917 38.8133 75.0692 38.8133H75.1263L75.1547 38.7996C75.1723 38.7984 75.2005 38.7979 75.2419 38.7992C75.3269 38.802 75.4486 38.8121 75.6099 38.8304L75.61 38.8305C75.7749 38.8491 75.9064 38.8627 76.0034 38.8708C76.0517 38.8748 76.0935 38.8777 76.1275 38.879C76.1526 38.8801 76.1884 38.8811 76.2218 38.8775C76.2245 38.8776 76.2301 38.8777 76.2394 38.8783C76.2599 38.8795 76.2893 38.8821 76.329 38.8865C76.4081 38.8954 76.5188 38.9104 76.6622 38.9318L76.9877 38.9809L77.0691 38.9932L77.0895 38.9962L77.0911 38.9965L77.4233 39.0608C77.4234 39.0608 77.4235 39.0608 77.4235 39.0608C77.5201 39.0796 77.5886 39.0939 77.6335 39.105L77.6347 39.1052L77.7057 39.1223C77.9313 39.1882 78.1539 39.1672 78.3572 39.0515L78.3579 39.0511C78.5589 38.9358 78.6907 38.7581 78.7458 38.5328L79.5744 35.5658L79.5745 35.5658L79.5768 35.5562C79.6288 35.3369 79.603 35.1228 79.4939 34.9279L79.4849 34.9117L79.4735 34.897C79.3338 34.7165 79.1617 34.5827 78.9532 34.5279L78.9532 34.5278L78.9484 34.5267C77.7445 34.2352 76.4765 34.0898 75.1465 34.0898C72.2155 34.0898 69.5895 34.902 67.2754 36.5272L67.2754 36.5272C65.0113 38.1175 63.4315 40.2099 62.5412 42.7981H60.8302C60.5935 42.7981 60.3807 42.8738 60.2126 43.0366L60.2124 43.0367C60.0442 43.1999 59.9629 43.41 59.9629 43.646V45.7764C59.9629 46.0121 60.0438 46.2224 60.2125 46.3856C60.2126 46.3856 60.2126 46.3857 60.2127 46.3857L60.3864 46.206M67.2054 48.087C67.2083 48.1646 67.2117 48.2442 67.2154 48.3256L66.9657 48.337V48.087H67.2054ZM60.3864 46.206C60.2707 46.0941 60.2129 45.9508 60.2129 45.7764V43.646C60.2129 43.4715 60.2709 43.3282 60.3864 43.2162V46.206ZM78.163 55.7101L78.0816 55.7414L78.726 60.2029L78.7983 60.4422C78.7985 60.4422 78.7987 60.4421 78.7989 60.4421C78.9186 60.4059 79.0135 60.3799 79.0878 60.3637L79.0892 60.3633C79.171 60.345 79.2467 60.3222 79.313 60.2939L79.3813 60.2806L79.3992 60.2771L79.4164 60.271C79.6141 60.2015 79.7699 60.0723 79.8764 59.8916C79.9881 59.7036 80.0154 59.4959 79.9623 59.2855L79.2879 56.3194C79.2879 56.3191 79.2878 56.3188 79.2877 56.3185C79.2341 56.0753 79.0938 55.8846 78.8766 55.7626L78.8767 55.7625L78.87 55.759C78.6436 55.6407 78.4028 55.6207 78.1654 55.7092L78.163 55.7101ZM79.0345 60.1194C79.1182 60.1006 79.1857 60.0784 79.2368 60.054L79.0345 60.1194ZM75.1409 38.8012C75.1409 38.8011 75.1417 38.801 75.1435 38.8007L75.1409 38.8012Z" fill="#FE674C" stroke="#FE674C" stroke-width="0.5"/>
<mask id="path-8-outside-1" maskUnits="userSpaceOnUse" x="0.951172" y="10.0506" width="147" height="157" fill="black">
<rect fill="white" x="0.951172" y="10.0506" width="147" height="157"/>
<path fill-rule="evenodd" clip-rule="evenodd" d="M143.664 99.1213C145.223 100.676 146.099 102.784 146.099 104.982V127.083C146.099 129.281 145.223 131.389 143.664 132.944C142.104 134.498 139.989 135.371 137.783 135.371V162.998C137.783 163.731 137.491 164.434 136.971 164.952C136.451 165.47 135.746 165.761 135.011 165.761H13.0395C10.0987 165.761 7.27833 164.597 5.19887 162.524C3.1194 160.452 1.95117 157.641 1.95117 154.71V60.7789C1.95117 57.848 3.1194 55.0372 5.19887 52.9648C7.27833 50.8924 10.0987 49.7281 13.0395 49.7281H38.4761C39.3844 44.4038 41.5798 39.38 44.8728 35.0907C48.1657 30.8015 52.4571 27.3759 57.3762 25.1099H57.3928V11.0506H62.9369V26.936C62.9369 27.4914 62.769 28.0339 62.455 28.4927C62.141 28.9515 61.6955 29.3053 61.1767 29.5081C60.674 29.7051 60.1787 29.9142 59.6908 30.1352C54.8748 32.3509 50.7948 35.8928 47.9318 40.3432C45.0689 44.7936 43.5424 49.967 43.5324 55.2535C43.5268 59.0589 44.3209 62.8233 45.8637 66.3042H60.7552V66.3446H83.195V66.3042H96.6427C98.1423 62.8966 98.9349 59.2218 98.9726 55.501C99.0103 51.7801 98.2924 48.0901 96.8622 44.653C95.4319 41.2158 93.3188 38.1025 90.65 35.5002C87.9812 32.898 84.8118 30.8607 81.3325 29.5108C80.8127 29.3084 80.3663 28.9543 80.0518 28.4949C79.7372 28.0355 79.5691 27.4922 79.5694 26.936V16.5759H85.1136V25.1071C90.0589 27.3412 94.3744 30.7573 97.6772 35.0522C100.98 39.3472 103.168 44.3883 104.047 49.7281H121.151C121.886 49.7281 122.591 50.0192 123.111 50.5373C123.631 51.0554 123.923 51.7581 123.923 52.4908V66.3042H135.011C135.746 66.3042 136.451 66.5953 136.971 67.1134C137.491 67.6315 137.783 68.3342 137.783 69.0669V96.6937C139.989 96.6937 142.104 97.567 143.664 99.1213ZM118.379 55.2535H104.518C104.515 59.021 103.858 62.7595 102.578 66.3042H118.379V55.2535ZM37.9882 55.2535H13.0395C11.5691 55.2535 10.1589 55.8356 9.11918 56.8718C8.07945 57.9081 7.49533 59.3134 7.49533 60.7789C7.49533 62.2443 8.07945 63.6497 9.11918 64.6859C10.1589 65.7221 11.5691 66.3042 13.0395 66.3042H39.9287C38.6481 62.7595 37.9916 59.021 37.9882 55.2535ZM7.49533 70.2935V154.71C7.49533 156.176 8.07945 157.581 9.11918 158.617C10.1589 159.653 11.5691 160.235 13.0395 160.235V71.8296C11.0872 71.8181 9.1734 71.2879 7.49533 70.2935ZM18.5837 160.235H132.239V135.371H96.2019C91.0555 135.371 86.1199 133.334 82.4808 129.707C78.8418 126.08 76.7973 121.161 76.7973 116.033C76.7973 110.904 78.8418 105.985 82.4808 102.358C86.1199 98.7312 91.0555 96.6937 96.2019 96.6937H132.239V71.8296H18.5837V160.235ZM139.743 129.037C140.263 128.519 140.555 127.816 140.555 127.083V104.982C140.555 104.249 140.263 103.546 139.743 103.028C139.223 102.51 138.518 102.219 137.783 102.219H96.2019C92.5259 102.219 89.0005 103.674 86.4011 106.265C83.8018 108.855 82.3415 112.369 82.3415 116.033C82.3415 119.696 83.8018 123.21 86.4011 125.8C89.0005 128.391 92.5259 129.846 96.2019 129.846H137.783C138.518 129.846 139.223 129.555 139.743 129.037Z"/>
</mask>
<path fill-rule="evenodd" clip-rule="evenodd" d="M143.664 99.1213C145.223 100.676 146.099 102.784 146.099 104.982V127.083C146.099 129.281 145.223 131.389 143.664 132.944C142.104 134.498 139.989 135.371 137.783 135.371V162.998C137.783 163.731 137.491 164.434 136.971 164.952C136.451 165.47 135.746 165.761 135.011 165.761H13.0395C10.0987 165.761 7.27833 164.597 5.19887 162.524C3.1194 160.452 1.95117 157.641 1.95117 154.71V60.7789C1.95117 57.848 3.1194 55.0372 5.19887 52.9648C7.27833 50.8924 10.0987 49.7281 13.0395 49.7281H38.4761C39.3844 44.4038 41.5798 39.38 44.8728 35.0907C48.1657 30.8015 52.4571 27.3759 57.3762 25.1099H57.3928V11.0506H62.9369V26.936C62.9369 27.4914 62.769 28.0339 62.455 28.4927C62.141 28.9515 61.6955 29.3053 61.1767 29.5081C60.674 29.7051 60.1787 29.9142 59.6908 30.1352C54.8748 32.3509 50.7948 35.8928 47.9318 40.3432C45.0689 44.7936 43.5424 49.967 43.5324 55.2535C43.5268 59.0589 44.3209 62.8233 45.8637 66.3042H60.7552V66.3446H83.195V66.3042H96.6427C98.1423 62.8966 98.9349 59.2218 98.9726 55.501C99.0103 51.7801 98.2924 48.0901 96.8622 44.653C95.4319 41.2158 93.3188 38.1025 90.65 35.5002C87.9812 32.898 84.8118 30.8607 81.3325 29.5108C80.8127 29.3084 80.3663 28.9543 80.0518 28.4949C79.7372 28.0355 79.5691 27.4922 79.5694 26.936V16.5759H85.1136V25.1071C90.0589 27.3412 94.3744 30.7573 97.6772 35.0522C100.98 39.3472 103.168 44.3883 104.047 49.7281H121.151C121.886 49.7281 122.591 50.0192 123.111 50.5373C123.631 51.0554 123.923 51.7581 123.923 52.4908V66.3042H135.011C135.746 66.3042 136.451 66.5953 136.971 67.1134C137.491 67.6315 137.783 68.3342 137.783 69.0669V96.6937C139.989 96.6937 142.104 97.567 143.664 99.1213ZM118.379 55.2535H104.518C104.515 59.021 103.858 62.7595 102.578 66.3042H118.379V55.2535ZM37.9882 55.2535H13.0395C11.5691 55.2535 10.1589 55.8356 9.11918 56.8718C8.07945 57.9081 7.49533 59.3134 7.49533 60.7789C7.49533 62.2443 8.07945 63.6497 9.11918 64.6859C10.1589 65.7221 11.5691 66.3042 13.0395 66.3042H39.9287C38.6481 62.7595 37.9916 59.021 37.9882 55.2535ZM7.49533 70.2935V154.71C7.49533 156.176 8.07945 157.581 9.11918 158.617C10.1589 159.653 11.5691 160.235 13.0395 160.235V71.8296C11.0872 71.8181 9.1734 71.2879 7.49533 70.2935ZM18.5837 160.235H132.239V135.371H96.2019C91.0555 135.371 86.1199 133.334 82.4808 129.707C78.8418 126.08 76.7973 121.161 76.7973 116.033C76.7973 110.904 78.8418 105.985 82.4808 102.358C86.1199 98.7312 91.0555 96.6937 96.2019 96.6937H132.239V71.8296H18.5837V160.235ZM139.743 129.037C140.263 128.519 140.555 127.816 140.555 127.083V104.982C140.555 104.249 140.263 103.546 139.743 103.028C139.223 102.51 138.518 102.219 137.783 102.219H96.2019C92.5259 102.219 89.0005 103.674 86.4011 106.265C83.8018 108.855 82.3415 112.369 82.3415 116.033C82.3415 119.696 83.8018 123.21 86.4011 125.8C89.0005 128.391 92.5259 129.846 96.2019 129.846H137.783C138.518 129.846 139.223 129.555 139.743 129.037Z" fill="#12CAD6"/>
<path d="M143.664 99.1213L144.369 98.413L143.664 99.1213ZM143.664 132.944L144.369 133.652L143.664 132.944ZM137.783 135.371V134.371C137.231 134.371 136.783 134.819 136.783 135.371H137.783ZM136.971 164.952L137.677 165.66L137.677 165.66L136.971 164.952ZM5.19887 162.524L4.49296 163.232H4.49296L5.19887 162.524ZM5.19887 52.9648L4.49296 52.2565L5.19887 52.9648ZM38.4761 49.7281V50.7281C38.9635 50.7281 39.3799 50.3768 39.4619 49.8963L38.4761 49.7281ZM44.8728 35.0907L45.666 35.6997V35.6997L44.8728 35.0907ZM57.3762 25.1099V24.1099C57.2317 24.1099 57.089 24.1412 56.9577 24.2016L57.3762 25.1099ZM57.3928 25.1099V26.1099C57.9451 26.1099 58.3928 25.6621 58.3928 25.1099H57.3928ZM57.3928 11.0506V10.0506C56.8405 10.0506 56.3928 10.4983 56.3928 11.0506H57.3928ZM62.9369 11.0506H63.9369C63.9369 10.4983 63.4892 10.0506 62.9369 10.0506V11.0506ZM62.9369 26.936L63.9369 26.936V26.936H62.9369ZM61.1767 29.5081L60.8128 28.5766L60.8117 28.577L61.1767 29.5081ZM59.6908 30.1352L59.2782 29.2243L59.2729 29.2267L59.6908 30.1352ZM43.5324 55.2535L42.5324 55.2516V55.252L43.5324 55.2535ZM45.8637 66.3042L44.9495 66.7094C45.1097 67.0711 45.4681 67.3042 45.8637 67.3042V66.3042ZM60.7552 66.3042H61.7552C61.7552 65.7519 61.3074 65.3042 60.7552 65.3042V66.3042ZM60.7552 66.3446H59.7552C59.7552 66.8969 60.2029 67.3446 60.7552 67.3446V66.3446ZM83.195 66.3446V67.3446C83.7473 67.3446 84.195 66.8969 84.195 66.3446H83.195ZM83.195 66.3042V65.3042C82.6427 65.3042 82.195 65.7519 82.195 66.3042H83.195ZM96.6427 66.3042V67.3042C97.0392 67.3042 97.3982 67.07 97.558 66.707L96.6427 66.3042ZM98.9726 55.501L97.9726 55.4908V55.4908L98.9726 55.501ZM90.65 35.5002L89.9519 36.2162H89.9519L90.65 35.5002ZM81.3325 29.5108L80.9696 30.4426L80.9708 30.4431L81.3325 29.5108ZM80.0518 28.4949L80.8769 27.9299L80.8769 27.9299L80.0518 28.4949ZM79.5694 26.936L80.5694 26.9366V26.936H79.5694ZM79.5694 16.5759V15.5759C79.0172 15.5759 78.5694 16.0236 78.5694 16.5759H79.5694ZM85.1136 16.5759H86.1136C86.1136 16.0236 85.6659 15.5759 85.1136 15.5759V16.5759ZM85.1136 25.1071H84.1136C84.1136 25.5001 84.3438 25.8566 84.7019 26.0184L85.1136 25.1071ZM97.6772 35.0522L96.8844 35.6618L97.6772 35.0522ZM104.047 49.7281L103.06 49.8906C103.14 50.3737 103.557 50.7281 104.047 50.7281V49.7281ZM123.111 50.5373L122.405 51.2456L122.405 51.2456L123.111 50.5373ZM123.923 66.3042H122.923C122.923 66.8565 123.37 67.3042 123.923 67.3042V66.3042ZM137.783 96.6937H136.783C136.783 97.246 137.231 97.6937 137.783 97.6937V96.6937ZM104.518 55.2535V54.2535C103.966 54.2535 103.519 54.7007 103.518 55.2526L104.518 55.2535ZM118.379 55.2535H119.379C119.379 54.7012 118.931 54.2535 118.379 54.2535V55.2535ZM102.578 66.3042L101.637 65.9645C101.526 66.2709 101.572 66.6121 101.759 66.8788C101.946 67.1455 102.252 67.3042 102.578 67.3042V66.3042ZM118.379 66.3042V67.3042C118.931 67.3042 119.379 66.8565 119.379 66.3042H118.379ZM37.9882 55.2535L38.9882 55.2526C38.9877 54.7007 38.5402 54.2535 37.9882 54.2535V55.2535ZM9.11918 56.8718L8.41328 56.1635H8.41328L9.11918 56.8718ZM9.11918 64.6859L8.41328 65.3942H8.41328L9.11918 64.6859ZM39.9287 66.3042V67.3042C40.2545 67.3042 40.5599 67.1455 40.7471 66.8788C40.9344 66.6121 40.9799 66.2709 40.8692 65.9645L39.9287 66.3042ZM7.49533 70.2935L8.00511 69.4332C7.69601 69.2501 7.31242 69.2468 7.00025 69.4247C6.68808 69.6026 6.49533 69.9343 6.49533 70.2935H7.49533ZM13.0395 160.235V161.235C13.5918 161.235 14.0395 160.788 14.0395 160.235H13.0395ZM13.0395 71.8296H14.0395C14.0395 71.2796 13.5953 70.8328 13.0454 70.8296L13.0395 71.8296ZM132.239 160.235V161.235C132.791 161.235 133.239 160.788 133.239 160.235H132.239ZM18.5837 160.235H17.5837C17.5837 160.788 18.0314 161.235 18.5837 161.235V160.235ZM132.239 135.371H133.239C133.239 134.819 132.791 134.371 132.239 134.371V135.371ZM132.239 96.6937V97.6937C132.791 97.6937 133.239 97.246 133.239 96.6937H132.239ZM132.239 71.8296H133.239C133.239 71.2773 132.791 70.8296 132.239 70.8296V71.8296ZM18.5837 71.8296V70.8296C18.0314 70.8296 17.5837 71.2773 17.5837 71.8296H18.5837ZM139.743 129.037L140.449 129.745V129.745L139.743 129.037ZM86.4011 106.265L87.107 106.973L86.4011 106.265ZM86.4011 125.8L85.6952 126.508L86.4011 125.8ZM147.099 104.982C147.099 102.517 146.117 100.155 144.369 98.413L142.958 99.8296C144.329 101.197 145.099 103.05 145.099 104.982H147.099ZM147.099 127.083V104.982H145.099V127.083H147.099ZM144.369 133.652C146.117 131.911 147.099 129.548 147.099 127.083H145.099C145.099 129.015 144.329 130.868 142.958 132.235L144.369 133.652ZM137.783 136.371C140.253 136.371 142.622 135.394 144.369 133.652L142.958 132.235C141.586 133.603 139.725 134.371 137.783 134.371V136.371ZM138.783 162.998V135.371H136.783V162.998H138.783ZM137.677 165.66C138.385 164.955 138.783 163.997 138.783 162.998H136.783C136.783 163.465 136.597 163.913 136.265 164.243L137.677 165.66ZM135.011 166.761C136.01 166.761 136.969 166.365 137.677 165.66L136.265 164.243C135.933 164.574 135.482 164.761 135.011 164.761V166.761ZM13.0395 166.761H135.011V164.761H13.0395V166.761ZM4.49296 163.232C6.76022 165.492 9.83456 166.761 13.0395 166.761V164.761C10.3628 164.761 7.79644 163.701 5.90477 161.816L4.49296 163.232ZM0.951172 154.71C0.951172 157.907 2.22559 160.973 4.49296 163.232L5.90477 161.816C4.01322 159.931 2.95117 157.375 2.95117 154.71H0.951172ZM0.951172 60.7789V154.71H2.95117V60.7789H0.951172ZM4.49296 52.2565C2.22559 54.5162 0.951172 57.5817 0.951172 60.7789H2.95117C2.95117 58.1143 4.01322 55.5583 5.90477 53.6731L4.49296 52.2565ZM13.0395 48.7281C9.83457 48.7281 6.76022 49.9969 4.49296 52.2565L5.90477 53.6731C7.79644 51.7879 10.3628 50.7281 13.0395 50.7281V48.7281ZM38.4761 48.7281H13.0395V50.7281H38.4761V48.7281ZM44.0796 34.4818C40.6877 38.8999 38.426 44.075 37.4903 49.56L39.4619 49.8963C40.3427 44.7326 42.472 39.86 45.666 35.6997L44.0796 34.4818ZM56.9577 24.2016C51.8916 26.5354 47.4715 30.0636 44.0796 34.4818L45.666 35.6997C48.86 31.5394 53.0227 28.2164 57.7946 26.0181L56.9577 24.2016ZM57.3928 24.1099H57.3762V26.1099H57.3928V24.1099ZM56.3928 11.0506V25.1099H58.3928V11.0506H56.3928ZM62.9369 10.0506H57.3928V12.0506H62.9369V10.0506ZM63.9369 26.936V11.0506H61.9369V26.936H63.9369ZM63.2802 29.0575C63.7079 28.4325 63.9369 27.6932 63.9369 26.936L61.9369 26.936C61.9369 27.2896 61.83 27.6352 61.6297 27.9279L63.2802 29.0575ZM61.5406 30.4395C62.2462 30.1638 62.8525 29.6824 63.2802 29.0575L61.6297 27.9279C61.4294 28.2206 61.1448 28.4469 60.8128 28.5766L61.5406 30.4395ZM60.1035 31.0461C60.5755 30.8322 61.0549 30.6299 61.5417 30.4391L60.8117 28.577C60.2931 28.7804 59.7819 28.9961 59.2782 29.2243L60.1035 31.0461ZM48.7729 40.8842C51.5325 36.5944 55.4655 33.1799 60.1088 31.0436L59.2729 29.2267C54.284 31.522 50.0571 35.1912 47.0908 39.8022L48.7729 40.8842ZM44.5324 55.2554C44.5421 50.1603 46.0133 45.174 48.7729 40.8842L47.0908 39.8022C44.1246 44.4132 42.5428 49.7737 42.5324 55.2516L44.5324 55.2554ZM46.7779 65.899C45.2919 62.5461 44.527 58.9202 44.5324 55.255L42.5324 55.252C42.5266 59.1976 43.35 63.1005 44.9495 66.7094L46.7779 65.899ZM60.7552 65.3042H45.8637V67.3042H60.7552V65.3042ZM61.7552 66.3446V66.3042H59.7552V66.3446H61.7552ZM83.195 65.3446H60.7552V67.3446H83.195V65.3446ZM82.195 66.3042V66.3446H84.195V66.3042H82.195ZM96.6427 65.3042H83.195V67.3042H96.6427V65.3042ZM97.9726 55.4908C97.9363 59.0763 97.1726 62.6175 95.7274 65.9014L97.558 66.707C99.1121 63.1756 99.9334 59.3673 99.9725 55.5111L97.9726 55.4908ZM95.9389 45.0372C97.3172 48.3495 98.009 51.9053 97.9726 55.4908L99.9725 55.5111C100.012 51.6549 99.2677 47.8308 97.7855 44.2688L95.9389 45.0372ZM89.9519 36.2162C92.5242 38.7243 94.5606 41.7248 95.9389 45.0372L97.7855 44.2688C96.3033 40.7068 94.1135 37.4806 91.3481 34.7843L89.9519 36.2162ZM80.9708 30.4431C84.3247 31.7443 87.3796 33.7081 89.9519 36.2162L91.3481 34.7843C88.5828 32.0879 85.2989 29.9771 81.6942 28.5785L80.9708 30.4431ZM79.2267 29.0599C79.6551 29.6856 80.2627 30.1673 80.9696 30.4426L81.6954 28.579C81.3627 28.4494 81.0776 28.223 80.8769 27.9299L79.2267 29.0599ZM78.5694 26.9354C78.569 27.6936 78.7982 28.4341 79.2267 29.0599L80.8769 27.9299C80.6762 27.6369 80.5692 27.2907 80.5694 26.9366L78.5694 26.9354ZM78.5694 16.5759V26.936H80.5694V16.5759H78.5694ZM85.1136 15.5759H79.5694V17.5759H85.1136V15.5759ZM86.1136 25.1071V16.5759H84.1136V25.1071H86.1136ZM98.4699 34.4426C95.0667 30.0171 90.6202 26.4975 85.5253 24.1958L84.7019 26.0184C89.4975 28.1849 93.6821 31.4974 96.8844 35.6618L98.4699 34.4426ZM105.034 49.5657C104.128 44.0629 101.873 38.8682 98.4699 34.4426L96.8844 35.6618C100.087 39.8262 102.208 44.7137 103.06 49.8906L105.034 49.5657ZM121.151 48.7281H104.047V50.7281H121.151V48.7281ZM123.817 49.829C123.109 49.1237 122.15 48.7281 121.151 48.7281V50.7281C121.622 50.7281 122.073 50.9147 122.405 51.2456L123.817 49.829ZM124.923 52.4908C124.923 51.4918 124.524 50.5344 123.817 49.829L122.405 51.2456C122.737 51.5764 122.923 52.0244 122.923 52.4908H124.923ZM124.923 66.3042V52.4908H122.923V66.3042H124.923ZM135.011 65.3042H123.923V67.3042H135.011V65.3042ZM137.677 66.4051C136.969 65.6998 136.01 65.3042 135.011 65.3042V67.3042C135.482 67.3042 135.933 67.4908 136.265 67.8217L137.677 66.4051ZM138.783 69.0669C138.783 68.0679 138.385 67.1105 137.677 66.4051L136.265 67.8217C136.597 68.1525 136.783 68.6005 136.783 69.0669H138.783ZM138.783 96.6937V69.0669H136.783V96.6937H138.783ZM144.369 98.413C142.622 96.6715 140.253 95.6937 137.783 95.6937V97.6937C139.725 97.6937 141.586 98.4624 142.958 99.8296L144.369 98.413ZM104.518 56.2535H118.379V54.2535H104.518V56.2535ZM103.518 66.644C104.838 62.9907 105.515 59.1375 105.518 55.2544L103.518 55.2526C103.515 58.9045 102.879 62.5284 101.637 65.9645L103.518 66.644ZM118.379 65.3042H102.578V67.3042H118.379V65.3042ZM117.379 55.2535V66.3042H119.379V55.2535H117.379ZM13.0395 56.2535H37.9882V54.2535H13.0395V56.2535ZM9.82509 57.5801C10.677 56.7311 11.8332 56.2535 13.0395 56.2535V54.2535C11.305 54.2535 9.6408 54.9402 8.41328 56.1635L9.82509 57.5801ZM8.49533 60.7789C8.49533 59.5798 8.97326 58.4291 9.82509 57.5801L8.41328 56.1635C7.18564 57.387 6.49533 59.0471 6.49533 60.7789H8.49533ZM9.82509 63.9776C8.97326 63.1286 8.49533 61.978 8.49533 60.7789H6.49533C6.49533 62.5106 7.18564 64.1707 8.41328 65.3942L9.82509 63.9776ZM13.0395 65.3042C11.8332 65.3042 10.677 64.8266 9.82509 63.9776L8.41328 65.3942C9.6408 66.6176 11.305 67.3042 13.0395 67.3042V65.3042ZM39.9287 65.3042H13.0395V67.3042H39.9287V65.3042ZM36.9882 55.2544C36.9917 59.1375 37.6683 62.9907 38.9882 66.644L40.8692 65.9645C39.6278 62.5284 38.9915 58.9045 38.9882 55.2526L36.9882 55.2544ZM8.49533 154.71V70.2935H6.49533V154.71H8.49533ZM9.82509 157.909C8.97327 157.06 8.49533 155.909 8.49533 154.71H6.49533C6.49533 156.442 7.18563 158.102 8.41328 159.325L9.82509 157.909ZM13.0395 159.235C11.8332 159.235 10.677 158.758 9.82509 157.909L8.41328 159.325C9.64081 160.549 11.305 161.235 13.0395 161.235V159.235ZM12.0395 71.8296V160.235H14.0395V71.8296H12.0395ZM6.98555 71.1539C8.81637 72.2387 10.9042 72.8171 13.0336 72.8296L13.0454 70.8296C11.2703 70.8192 9.53043 70.3371 8.00511 69.4332L6.98555 71.1539ZM132.239 159.235H18.5837V161.235H132.239V159.235ZM131.239 135.371V160.235H133.239V135.371H131.239ZM96.2019 136.371H132.239V134.371H96.2019V136.371ZM81.7749 130.415C85.6018 134.229 90.7914 136.371 96.2019 136.371V134.371C91.3196 134.371 86.638 132.438 83.1867 128.999L81.7749 130.415ZM75.7973 116.033C75.7973 121.428 77.9479 126.601 81.7749 130.415L83.1867 128.999C79.7356 125.559 77.7973 120.895 77.7973 116.033H75.7973ZM81.7749 101.65C77.9479 105.464 75.7973 110.637 75.7973 116.033H77.7973C77.7973 111.17 79.7356 106.506 83.1867 103.066L81.7749 101.65ZM96.2019 95.6937C90.7914 95.6937 85.6018 97.8358 81.7749 101.65L83.1867 103.066C86.638 99.6267 91.3196 97.6937 96.2019 97.6937V95.6937ZM132.239 95.6937H96.2019V97.6937H132.239V95.6937ZM131.239 71.8296V96.6937H133.239V71.8296H131.239ZM18.5837 72.8296H132.239V70.8296H18.5837V72.8296ZM19.5837 160.235V71.8296H17.5837V160.235H19.5837ZM139.555 127.083C139.555 127.55 139.369 127.998 139.037 128.328L140.449 129.745C141.157 129.04 141.555 128.082 141.555 127.083H139.555ZM139.555 104.982V127.083H141.555V104.982H139.555ZM139.037 103.737C139.369 104.067 139.555 104.515 139.555 104.982H141.555C141.555 103.983 141.157 103.025 140.449 102.32L139.037 103.737ZM137.783 103.219C138.254 103.219 138.705 103.406 139.037 103.737L140.449 102.32C139.742 101.615 138.782 101.219 137.783 101.219V103.219ZM96.2019 103.219H137.783V101.219H96.2019V103.219ZM87.107 106.973C89.5186 104.57 92.79 103.219 96.2019 103.219V101.219C92.2618 101.219 88.4823 102.779 85.6952 105.557L87.107 106.973ZM83.3415 116.033C83.3415 112.635 84.6956 109.377 87.107 106.973L85.6952 105.557C82.908 108.334 81.3415 112.103 81.3415 116.033H83.3415ZM87.107 125.092C84.6956 122.689 83.3415 119.43 83.3415 116.033H81.3415C81.3415 119.962 82.908 123.731 85.6952 126.508L87.107 125.092ZM96.2019 128.846C92.79 128.846 89.5186 127.495 87.107 125.092L85.6952 126.508C88.4823 129.286 92.2618 130.846 96.2019 130.846V128.846ZM137.783 128.846H96.2019V130.846H137.783V128.846ZM139.037 128.328C138.705 128.659 138.254 128.846 137.783 128.846V130.846C138.782 130.846 139.742 130.45 140.449 129.745L139.037 128.328Z" fill="#12CAD6" mask="url(#path-8-outside-1)"/>
</svg>
