<svg width="122" height="206" viewBox="0 0 122 206" fill="none" xmlns="http://www.w3.org/2000/svg">
<path d="M63.5547 107.493L63.5547 101.289C63.5547 99.3965 62.0205 97.8622 60.1279 97.8622C58.2353 97.8622 56.7011 99.3965 56.7011 101.289L56.7011 107.493C56.7011 109.386 58.2353 110.92 60.1279 110.92C62.0205 110.92 63.5547 109.386 63.5547 107.493Z" fill="#13A6D9"/>
<path d="M79.0748 149.758C92.9885 149.758 104.309 138.427 104.309 124.497V107.017C104.309 105.481 103.06 104.232 101.527 104.232H84.0649C73.6709 104.232 64.1989 110.792 60.4916 120.558L60.1195 121.537L59.7475 120.558C56.0402 110.792 46.5666 104.232 36.1742 104.232H18.7118C17.1772 104.232 15.9297 105.483 15.9297 107.017V124.497C15.9297 138.425 27.2489 149.758 41.1643 149.758H57.3374V156.307L56.9766 156.34C47.5864 157.215 38.9242 162.014 33.2141 169.509L33.0938 169.665H22.804C21.983 169.665 21.2085 170.026 20.6777 170.653C20.147 171.283 19.9225 172.108 20.062 172.918L25.2445 203.35C25.4738 204.694 26.6268 205.668 27.9866 205.668H92.2509C93.6107 205.668 94.7652 204.694 94.9945 203.35L100.177 172.918C100.315 172.108 100.091 171.283 99.5614 170.653C99.0306 170.026 98.2561 169.665 97.4351 169.665H87.1469L87.0266 169.509C81.3117 162.014 72.6511 157.213 63.264 156.34L62.9033 156.307V149.758H79.0748ZM64.3945 129.492C64.3945 118.637 73.2187 109.804 84.0633 109.804H98.7436V124.499C98.7436 135.354 89.9194 144.188 79.0748 144.188H68.3296L86.0308 126.468C86.5568 125.942 86.8454 125.242 86.8454 124.499C86.8454 123.756 86.5552 123.056 86.0308 122.529C84.9805 121.476 83.1461 121.476 82.0958 122.529L64.3945 140.249V129.492ZM55.8429 140.249L38.1417 122.529C37.0914 121.476 35.2569 121.476 34.2066 122.529C33.6807 123.056 33.392 123.756 33.392 124.499C33.392 125.242 33.6823 125.942 34.2066 126.468L51.9079 144.188H41.1627C30.3181 144.188 21.4939 135.354 21.4939 124.499V109.804H36.1726C47.0172 109.804 55.8413 118.637 55.8413 129.492V140.249H55.8429ZM94.1366 175.236L89.9017 200.097H30.3357L26.1008 175.236H94.1366ZM78.9898 168.971L79.7643 169.665H40.4732L41.2477 168.971C46.4447 164.313 53.1474 161.748 60.1195 161.748C67.09 161.748 73.7928 164.313 78.9898 168.971Z" fill="#12CAD6"/>
<rect x="86.7754" y="17.6435" width="30.2345" height="72.5939" rx="5.5" stroke="#13A6D9" stroke-width="5"/>
<rect x="46.7383" y="43.2412" width="27.3792" height="46.9968" rx="5.5" stroke="#13A6D9" stroke-width="5"/>
<rect x="3.84375" y="69.639" width="27.3792" height="20.5985" rx="5.5" stroke="#13A6D9" stroke-width="5"/>
<path d="M113.972 0H100.202C98.3073 0 96.7715 1.5358 96.7715 3.4303C96.7715 5.3248 98.3073 6.8606 100.202 6.8606H113.972C115.866 6.8606 117.402 5.3248 117.402 3.4303C117.402 1.5358 115.866 0 113.972 0Z" fill="#FE674C"/>
<path d="M119.041 95.9849H2.35066C1.07508 95.9849 0.0410156 97.019 0.0410156 98.2946C0.0410156 99.5702 1.07508 100.604 2.35066 100.604H119.041C120.317 100.604 121.351 99.5702 121.351 98.2946C121.351 97.019 120.317 95.9849 119.041 95.9849Z" fill="#13A6D9"/>
<path d="M83.0195 3.4303C83.0195 5.3248 84.5635 6.8606 86.458 6.8606C88.3525 6.8606 89.8965 5.3248 89.8965 3.4303C89.8965 1.5358 88.3525 0 86.458 0C84.5635 0 83.0195 1.5358 83.0195 3.4303Z" fill="#FE674C"/>
<path d="M72.7103 27.4423H58.9401C57.0456 27.4423 55.5098 28.9781 55.5098 30.8726C55.5098 32.7671 57.0456 34.3028 58.9401 34.3028H72.7103C74.6048 34.3028 76.1406 32.7671 76.1406 30.8726C76.1406 28.9781 74.6048 27.4423 72.7103 27.4423Z" fill="#FE674C"/>
<path d="M41.7559 30.8726C41.7559 32.7671 43.2998 34.3028 45.1943 34.3028C47.0888 34.3028 48.6328 32.7671 48.6328 30.8726C48.6328 28.9781 47.0888 27.4423 45.1943 27.4423C43.2998 27.4423 41.7559 28.9781 41.7559 30.8726Z" fill="#FE674C"/>
<path d="M31.4505 54.8851H17.6803C15.7858 54.8851 14.25 56.4209 14.25 58.3154C14.25 60.2099 15.7858 61.7457 17.6803 61.7457H31.4505C33.345 61.7457 34.8808 60.2099 34.8808 58.3154C34.8808 56.4209 33.345 54.8851 31.4505 54.8851Z" fill="#FE674C"/>
<path d="M0.496094 58.3154C0.496094 60.2099 2.04006 61.7457 3.93456 61.7457C5.82906 61.7457 7.37302 60.2099 7.37302 58.3154C7.37302 56.4209 5.82906 54.8851 3.93456 54.8851C2.04006 54.8851 0.496094 56.4209 0.496094 58.3154Z" fill="#FE674C"/>
</svg>
