<svg width="159" height="159" viewBox="0 0 159 159" fill="none" xmlns="http://www.w3.org/2000/svg">
<path fill-rule="evenodd" clip-rule="evenodd" d="M151.643 50.7291C155.222 59.8349 157.06 69.5561 157.04 79.3804C157.016 100.161 148.792 120.084 134.171 134.778C119.549 149.472 99.7251 157.737 79.0473 157.761C69.6336 157.78 60.315 156.068 51.5474 152.727C53.1768 151.553 54.6998 150.241 56.0992 148.807C57.2501 149.192 58.4108 149.547 59.5804 149.873C58.7585 149.154 57.9609 148.409 57.1886 147.638C58.3533 146.33 59.42 144.933 60.3773 143.458C65.323 148.585 70.7936 151.633 76.4476 152.35V118.571H65.3892C65.0697 116.777 64.6119 115.031 64.0271 113.345H76.4476V81.9931H40.1317C40.1725 85.1235 40.3315 88.2487 40.6078 91.362C38.8931 90.8872 37.1248 90.5412 35.314 90.3351C35.0972 87.5608 34.968 84.7787 34.927 81.9931H6.32974C6.50762 87.588 7.33241 93.1292 8.77844 98.5071C7.26786 99.8118 5.87145 101.245 4.60623 102.79C2.24288 95.2364 1.03853 87.3423 1.05485 79.3804C1.07825 58.5999 9.3028 38.6772 23.9242 23.9832C38.5455 9.28913 58.3696 1.02368 79.0473 1.00017C88.6143 0.98006 98.0829 2.74908 106.975 6.19804C105.497 7.42721 104.133 8.78827 102.9 10.2631C101.454 9.75807 99.9911 9.29936 98.5143 8.88784C99.6001 9.83736 100.644 10.8328 101.642 11.8713C100.578 13.3248 99.635 14.8723 98.8277 16.4992C93.5961 10.6491 87.7277 7.1822 81.6471 6.41102V40.1903H97.0356C97.6156 42.0089 98.3555 43.7562 99.2388 45.4156H81.6471V76.7678H117.963C117.892 71.294 117.459 65.8361 116.67 60.43C118.414 61.0458 120.228 61.5132 122.096 61.8171C122.736 66.7731 123.094 71.7648 123.168 76.7678H151.765C151.526 69.2578 150.122 61.8444 147.615 54.7925C149.077 53.5619 150.425 52.2015 151.643 50.7291ZM151.775 81.9931C151.401 92.9379 148.568 103.656 143.49 113.345H131.444C131.505 113.943 131.536 114.549 131.536 115.163C131.536 116.329 131.423 117.468 131.208 118.571H140.469C130.816 133.815 115.907 144.946 98.5975 149.834V149.831C103.927 144.928 108.333 139.115 111.616 132.672C109.793 132.438 108.057 131.927 106.451 131.181C99.7545 143.68 91.0071 151.18 81.6471 152.355V118.571H96.5541C96.3385 117.468 96.2255 116.329 96.2255 115.163C96.2255 114.549 96.2568 113.943 96.3179 113.345H81.6471V81.9931H117.981C117.889 87.2646 117.477 92.5239 116.747 97.7416C118.524 98.0316 120.212 98.5869 121.769 99.3655C122.612 93.6132 123.084 87.8102 123.181 81.9931H151.775ZM6.31934 76.7678C6.69394 65.823 9.52637 55.105 14.6047 45.4156H27.2228C27.1408 44.7547 27.0985 44.0815 27.0985 43.3984C27.0985 42.3001 27.2078 41.2273 27.416 40.1903H17.6283C27.2809 24.9464 42.1883 13.8152 59.4972 8.92703C53.8109 14.1581 49.1765 20.4257 45.8347 27.3882C47.6278 27.669 49.3235 28.2436 50.8708 29.0614C57.6603 15.6745 66.7233 7.62645 76.4476 6.40579V40.1903H59.1981C59.4064 41.2273 59.5156 42.3001 59.5156 43.3984C59.5156 44.0815 59.4734 44.7547 59.3913 45.4156H76.4476V76.7678H40.1135C40.2137 70.9883 40.7001 65.2235 41.569 59.5124C39.7836 59.322 38.0849 58.8419 36.5207 58.1199C35.5539 64.2892 35.0168 70.5203 34.914 76.7678H6.31934Z" fill="#12CAD6"/>
<path d="M151.643 50.7291L152.573 50.3633C152.444 50.0338 152.15 49.7974 151.8 49.7416C151.451 49.6858 151.098 49.819 150.872 50.0918L151.643 50.7291ZM157.04 79.3804L156.04 79.3784V79.3793L157.04 79.3804ZM134.171 134.778L133.462 134.072L134.171 134.778ZM79.0473 157.761L79.0462 156.761H79.0453L79.0473 157.761ZM51.5474 152.727L50.9628 151.916C50.6644 152.131 50.5081 152.492 50.5558 152.857C50.6035 153.221 50.8476 153.531 51.1913 153.661L51.5474 152.727ZM56.0992 148.807L56.4162 147.859C56.0526 147.737 55.6515 147.834 55.3836 148.108L56.0992 148.807ZM59.5804 149.873L59.312 150.836C59.7617 150.962 60.2384 150.759 60.4603 150.348C60.6822 149.937 60.5903 149.428 60.2389 149.12L59.5804 149.873ZM57.1886 147.638L56.4417 146.973C56.0891 147.369 56.107 147.972 56.4824 148.346L57.1886 147.638ZM60.3773 143.458L61.0971 142.763C60.8854 142.544 60.5851 142.433 60.2816 142.462C59.9781 142.491 59.7045 142.657 59.5385 142.913L60.3773 143.458ZM76.4476 152.35L76.3218 153.342C76.6066 153.378 76.8933 153.29 77.1087 153.1C77.3242 152.91 77.4476 152.637 77.4476 152.35H76.4476ZM76.4476 118.571H77.4476C77.4476 118.018 76.9999 117.571 76.4476 117.571V118.571ZM65.3892 118.571L64.4046 118.746C64.4896 119.223 64.9045 119.571 65.3892 119.571V118.571ZM64.0271 113.345V112.345C63.7036 112.345 63.4 112.502 63.2124 112.765C63.0248 113.029 62.9763 113.367 63.0823 113.673L64.0271 113.345ZM76.4476 113.345V114.345C76.9999 114.345 77.4476 113.897 77.4476 113.345H76.4476ZM76.4476 81.9931H77.4476C77.4476 81.4408 76.9999 80.9931 76.4476 80.9931V81.9931ZM40.1317 81.9931V80.9931C39.8642 80.9931 39.6079 81.1003 39.42 81.2906C39.2321 81.481 39.1283 81.7387 39.1318 82.0061L40.1317 81.9931ZM40.6078 91.362L40.341 92.3258C40.657 92.4133 40.9959 92.3403 41.2479 92.1303C41.4999 91.9204 41.6329 91.6003 41.6039 91.2736L40.6078 91.362ZM35.314 90.3351L34.3171 90.413C34.3544 90.8905 34.725 91.2745 35.2009 91.3287L35.314 90.3351ZM34.927 81.9931L35.9269 81.9784C35.9188 81.4319 35.4735 80.9931 34.927 80.9931V81.9931ZM6.32974 81.9931V80.9931C6.05902 80.9931 5.79986 81.1029 5.61149 81.2973C5.42312 81.4918 5.32165 81.7543 5.33025 82.0249L6.32974 81.9931ZM8.77844 98.5071L9.43207 99.264C9.72254 99.0131 9.8438 98.6181 9.74414 98.2475L8.77844 98.5071ZM4.60623 102.79L3.65186 103.088C3.76163 103.439 4.05502 103.701 4.4159 103.771C4.77678 103.841 5.14695 103.708 5.37987 103.423L4.60623 102.79ZM1.05485 79.3804L2.05485 79.3825L2.05485 79.3816L1.05485 79.3804ZM23.9242 23.9832L24.633 24.6885L23.9242 23.9832ZM79.0473 1.00017L79.0485 2.00017L79.0494 2.00017L79.0473 1.00017ZM106.975 6.19804L107.614 6.96685C107.887 6.74028 108.019 6.3865 107.962 6.03684C107.905 5.68718 107.667 5.39383 107.336 5.26571L106.975 6.19804ZM102.9 10.2631L102.571 11.2073C102.964 11.3445 103.401 11.2238 103.668 10.9044L102.9 10.2631ZM98.5143 8.88784L98.7827 7.92454C98.3329 7.7992 97.8562 8.00182 97.6344 8.41268C97.4125 8.82353 97.5045 9.33324 97.856 9.64061L98.5143 8.88784ZM101.642 11.8713L102.449 12.4619C102.736 12.0699 102.7 11.5284 102.363 11.1781L101.642 11.8713ZM98.8277 16.4992L98.0823 17.1658C98.3035 17.4131 98.633 17.5346 98.9618 17.4901C99.2906 17.4457 99.576 17.2409 99.7235 16.9437L98.8277 16.4992ZM81.6471 6.41102L81.7729 5.41897C81.4881 5.38284 81.2014 5.47091 80.986 5.66075C80.7705 5.85059 80.6471 6.12388 80.6471 6.41102H81.6471ZM81.6471 40.1903H80.6471C80.6471 40.7426 81.0948 41.1903 81.6471 41.1903V40.1903ZM97.0356 40.1903L97.9883 39.8864C97.856 39.4718 97.4708 39.1903 97.0356 39.1903V40.1903ZM99.2388 45.4156V46.4156C99.5899 46.4156 99.9153 46.2315 100.096 45.9305C100.277 45.6295 100.286 45.2557 100.122 44.9458L99.2388 45.4156ZM81.6471 45.4156V44.4156C81.0948 44.4156 80.6471 44.8634 80.6471 45.4156H81.6471ZM81.6471 76.7678H80.6471C80.6471 77.32 81.0948 77.7678 81.6471 77.7678V76.7678ZM117.963 76.7678V77.7678C118.23 77.7678 118.487 77.6606 118.675 77.4702C118.863 77.2799 118.966 77.0222 118.963 76.7547L117.963 76.7678ZM116.67 60.43L117.003 59.4871C116.672 59.3704 116.305 59.4351 116.035 59.6576C115.764 59.8801 115.63 60.2279 115.68 60.5745L116.67 60.43ZM122.096 61.8171L123.088 61.6891C123.032 61.2505 122.694 60.9011 122.257 60.8301L122.096 61.8171ZM123.168 76.7678L122.168 76.7825C122.176 77.329 122.621 77.7678 123.168 77.7678V76.7678ZM151.765 76.7678V77.7678C152.036 77.7678 152.295 77.658 152.483 77.4635C152.672 77.2691 152.773 77.0065 152.764 76.7359L151.765 76.7678ZM147.615 54.7925L146.971 54.0276C146.652 54.2962 146.533 54.7346 146.673 55.1275L147.615 54.7925ZM143.49 113.345V114.345C143.862 114.345 144.203 114.139 144.376 113.809L143.49 113.345ZM151.775 81.9931L152.775 82.0273C152.784 81.7563 152.683 81.4932 152.494 81.2982C152.306 81.1032 152.046 80.9931 151.775 80.9931V81.9931ZM131.444 113.345V112.345C131.161 112.345 130.891 112.465 130.702 112.675C130.512 112.885 130.42 113.166 130.449 113.447L131.444 113.345ZM131.208 118.571L130.226 118.379C130.169 118.672 130.246 118.975 130.436 119.206C130.626 119.437 130.909 119.571 131.208 119.571V118.571ZM140.469 118.571L141.314 119.106C141.509 118.798 141.521 118.408 141.345 118.088C141.169 117.769 140.834 117.571 140.469 117.571V118.571ZM98.5975 149.834H97.5975C97.5975 150.147 97.7442 150.442 97.994 150.631C98.2438 150.82 98.5677 150.881 98.8692 150.796L98.5975 149.834ZM98.5975 149.831L97.9204 149.095C97.7146 149.285 97.5975 149.552 97.5975 149.831H98.5975ZM111.616 132.672L112.507 133.126C112.655 132.836 112.652 132.492 112.5 132.205C112.348 131.917 112.066 131.721 111.743 131.68L111.616 132.672ZM106.451 131.181L106.873 130.274C106.392 130.051 105.82 130.242 105.57 130.709L106.451 131.181ZM81.6471 152.355H80.6471C80.6471 152.642 80.7703 152.915 80.9855 153.105C81.2006 153.295 81.487 153.383 81.7716 153.347L81.6471 152.355ZM81.6471 118.571V117.571C81.0948 117.571 80.6471 118.018 80.6471 118.571H81.6471ZM96.5541 118.571V119.571C96.853 119.571 97.1362 119.437 97.3261 119.206C97.5161 118.975 97.5929 118.672 97.5355 118.379L96.5541 118.571ZM96.3179 113.345L97.3127 113.447C97.3415 113.166 97.2497 112.885 97.0601 112.675C96.8705 112.465 96.6008 112.345 96.3179 112.345V113.345ZM81.6471 113.345H80.6471C80.6471 113.897 81.0948 114.345 81.6471 114.345V113.345ZM81.6471 81.9931V80.9931C81.0948 80.9931 80.6471 81.4408 80.6471 81.9931H81.6471ZM117.981 81.9931L118.981 82.0105C118.986 81.7423 118.882 81.4835 118.694 81.2922C118.506 81.1009 118.249 80.9931 117.981 80.9931V81.9931ZM116.747 97.7416L115.757 97.603C115.681 98.1412 116.05 98.641 116.586 98.7285L116.747 97.7416ZM121.769 99.3655L121.321 100.26C121.608 100.403 121.947 100.401 122.231 100.252C122.516 100.104 122.712 99.828 122.758 99.5106L121.769 99.3655ZM123.181 81.9931V80.9931C122.635 80.9931 122.19 81.4308 122.181 81.9765L123.181 81.9931ZM14.6047 45.4156V44.4156C14.2328 44.4156 13.8917 44.622 13.719 44.9514L14.6047 45.4156ZM6.31934 76.7678L5.31993 76.7336C5.31066 77.0045 5.41182 77.2677 5.60025 77.4627C5.78867 77.6576 6.0482 77.7678 6.31934 77.7678V76.7678ZM27.2228 45.4156V46.4156C27.5095 46.4156 27.7824 46.2926 27.9722 46.0778C28.1621 45.8629 28.2505 45.5769 28.2152 45.2924L27.2228 45.4156ZM27.416 40.1903L28.3965 40.3872C28.4555 40.0933 28.3796 39.7885 28.1896 39.5566C27.9997 39.3247 27.7158 39.1903 27.416 39.1903V40.1903ZM17.6283 40.1903L16.7834 39.6553C16.5883 39.9633 16.5764 40.3531 16.7522 40.6725C16.928 40.9919 17.2637 41.1903 17.6283 41.1903V40.1903ZM59.4972 8.92703L60.1743 9.66298C60.5149 9.3496 60.596 8.84339 60.3702 8.4393C60.1445 8.03521 59.6709 7.83887 59.2254 7.96467L59.4972 8.92703ZM45.8347 27.3882L44.9332 26.9555C44.7963 27.2406 44.8024 27.5736 44.9496 27.8536C45.0967 28.1335 45.3676 28.3273 45.68 28.3762L45.8347 27.3882ZM50.8708 29.0614L50.4035 29.9455C50.6406 30.0708 50.918 30.0956 51.1736 30.0144C51.4291 29.9333 51.6413 29.7528 51.7626 29.5137L50.8708 29.0614ZM76.4476 6.40579H77.4476C77.4476 6.11887 77.3243 5.84577 77.1092 5.65594C76.8941 5.46611 76.6077 5.37784 76.323 5.41358L76.4476 6.40579ZM76.4476 40.1903V41.1903C76.9999 41.1903 77.4476 40.7426 77.4476 40.1903H76.4476ZM59.1981 40.1903V39.1903C58.8984 39.1903 58.6144 39.3247 58.4245 39.5566C58.2346 39.7885 58.1587 40.0933 58.2177 40.3872L59.1981 40.1903ZM59.3913 45.4156L58.3989 45.2924C58.3636 45.5769 58.4521 45.8629 58.6419 46.0778C58.8317 46.2926 59.1046 46.4156 59.3913 46.4156V45.4156ZM76.4476 45.4156H77.4476C77.4476 44.8634 76.9999 44.4156 76.4476 44.4156V45.4156ZM76.4476 76.7678V77.7678C76.9999 77.7678 77.4476 77.32 77.4476 76.7678H76.4476ZM40.1135 76.7678L39.1136 76.7504C39.109 77.0186 39.2123 77.2774 39.4003 77.4687C39.5883 77.66 39.8453 77.7678 40.1135 77.7678V76.7678ZM41.569 59.5124L42.5576 59.6628C42.5986 59.3929 42.5276 59.1179 42.3609 58.9018C42.1942 58.6856 41.9464 58.5469 41.675 58.518L41.569 59.5124ZM36.5207 58.1199L36.9398 57.212C36.6551 57.0805 36.3253 57.0903 36.0488 57.2382C35.7724 57.3862 35.5813 57.6553 35.5328 57.9651L36.5207 58.1199ZM34.914 76.7678V77.7678C35.4599 77.7678 35.9049 77.33 35.9139 76.7842L34.914 76.7678ZM150.712 51.095C154.246 60.0837 156.06 69.6801 156.04 79.3784L158.04 79.3825C158.06 69.4321 156.199 59.5861 152.573 50.3633L150.712 51.095ZM156.04 79.3793C156.017 99.8966 147.896 119.566 133.462 134.072L134.879 135.483C149.687 120.601 158.016 100.425 158.04 79.3816L156.04 79.3793ZM133.462 134.072C119.027 148.579 99.4575 156.737 79.0462 156.761L79.0485 158.761C99.9926 158.737 120.071 150.365 134.879 135.483L133.462 134.072ZM79.0453 156.761C69.7542 156.78 60.557 155.09 51.9034 151.793L51.1913 153.661C60.073 157.046 69.513 158.78 79.0494 158.761L79.0453 156.761ZM52.1319 153.538C53.8083 152.33 55.3752 150.98 56.8148 149.505L55.3836 148.108C54.0244 149.501 52.5452 150.775 50.9628 151.916L52.1319 153.538ZM55.7822 149.755C56.9491 150.145 58.1261 150.506 59.312 150.836L59.8488 148.91C58.6956 148.588 57.551 148.238 56.4162 147.859L55.7822 149.755ZM60.2389 149.12C59.4334 148.416 58.6517 147.685 57.8949 146.93L56.4824 148.346C57.2701 149.132 58.0837 149.892 58.922 150.626L60.2389 149.12ZM57.9356 148.303C59.1337 146.957 60.2312 145.52 61.2161 144.002L59.5385 142.913C58.6089 144.346 57.5729 145.703 56.4417 146.973L57.9356 148.303ZM59.6576 144.152C64.7186 149.399 70.3871 152.589 76.3218 153.342L76.5734 151.358C71.2001 150.676 65.9275 147.771 61.0971 142.763L59.6576 144.152ZM77.4476 152.35V118.571H75.4476V152.35H77.4476ZM76.4476 117.571H65.3892V119.571H76.4476V117.571ZM66.3737 118.395C66.0449 116.55 65.5738 114.753 64.9719 113.018L63.0823 113.673C63.65 115.31 64.0945 117.005 64.4046 118.746L66.3737 118.395ZM64.0271 114.345H76.4476V112.345H64.0271V114.345ZM77.4476 113.345V81.9931H75.4476V113.345H77.4476ZM76.4476 80.9931H40.1317V82.9931H76.4476V80.9931ZM39.1318 82.0061C39.173 85.1618 39.3332 88.3121 39.6117 91.4504L41.6039 91.2736C41.3299 88.1854 41.1721 85.0853 41.1316 81.9801L39.1318 82.0061ZM40.8747 90.3983C39.1099 89.9096 37.2902 89.5536 35.4271 89.3415L35.2009 91.3287C36.9594 91.5288 38.6763 91.8648 40.341 92.3258L40.8747 90.3983ZM36.311 90.2572C36.0958 87.5039 35.9676 84.7429 35.9269 81.9784L33.9271 82.0078C33.9685 84.8145 34.0986 87.6177 34.3171 90.413L36.311 90.2572ZM34.927 80.9931H6.32974V82.9931H34.927V80.9931ZM5.33025 82.0249C5.51058 87.6969 6.34675 93.3146 7.81274 98.7668L9.74414 98.2475C8.31807 92.9438 7.50466 87.479 7.32924 81.9613L5.33025 82.0249ZM8.12481 97.7503C6.57079 99.0925 5.13423 100.567 3.8326 102.156L5.37987 103.423C6.60868 101.923 7.96493 100.531 9.43207 99.264L8.12481 97.7503ZM5.56061 102.491C3.22763 95.0348 2.03873 87.2421 2.05485 79.3825L0.0548534 79.3784C0.0383182 87.4424 1.25813 95.4379 3.65186 103.088L5.56061 102.491ZM2.05485 79.3816C2.07795 58.8643 10.1984 39.195 24.633 24.6885L23.2153 23.2778C8.40724 38.1595 0.0785432 58.3355 0.0548519 79.3793L2.05485 79.3816ZM24.633 24.6885C39.0675 10.1823 58.6372 2.02338 79.0485 2.00017L79.0462 0.000170171C58.1021 0.0239844 38.0235 8.39597 23.2153 23.2778L24.633 24.6885ZM79.0494 2.00017C88.4917 1.98032 97.837 3.72628 106.613 7.13036L107.336 5.26571C98.3289 1.77189 88.7369 -0.0202001 79.0452 0.000171781L79.0494 2.00017ZM103.668 10.9044C104.862 9.47579 106.183 8.15744 107.614 6.96685L106.335 5.42922C104.811 6.69698 103.404 8.10075 102.133 9.62192L103.668 10.9044ZM103.23 9.31904C101.763 8.80691 100.28 8.3418 98.7827 7.92454L98.2458 9.85114C99.7021 10.2569 101.144 10.7092 102.571 11.2073L103.23 9.31904ZM97.856 9.64061C98.9201 10.5711 99.9427 11.5467 100.921 12.5644L102.363 11.1781C101.344 10.119 100.28 9.10359 99.1725 8.13506L97.856 9.64061ZM99.7235 16.9437C100.505 15.3684 101.418 13.8697 102.449 12.4619L100.835 11.2806C99.7377 12.7798 98.7648 14.3762 97.9319 16.0547L99.7235 16.9437ZM99.5731 15.8326C94.2293 9.85703 88.1558 6.22849 81.7729 5.41897L81.5213 7.40307C87.2995 8.1359 92.9628 11.4411 98.0823 17.1658L99.5731 15.8326ZM80.6471 6.41102V40.1903H82.6471V6.41102H80.6471ZM81.6471 41.1903H97.0356V39.1903H81.6471V41.1903ZM100.122 44.9458C99.2662 43.3389 98.5499 41.6472 97.9883 39.8864L96.0828 40.4942C96.6814 42.3707 97.4448 44.1735 98.356 45.8855L100.122 44.9458ZM99.2388 44.4156H81.6471V46.4156H99.2388V44.4156ZM80.6471 45.4156V76.7678H82.6471V45.4156H80.6471ZM81.6471 77.7678H117.963V75.7678H81.6471V77.7678ZM118.963 76.7547C118.891 71.2369 118.455 65.7352 117.659 60.2856L115.68 60.5745C116.463 65.9371 116.892 71.351 116.963 76.7808L118.963 76.7547ZM122.257 60.8301C120.447 60.5358 118.691 60.0832 117.003 59.4871L116.337 61.373C118.136 62.0083 120.008 62.4906 121.936 62.8041L122.257 60.8301ZM121.105 61.9451C121.739 66.8635 122.095 71.8174 122.168 76.7825L124.168 76.753C124.093 71.7121 123.733 66.6827 123.088 61.6891L121.105 61.9451ZM123.168 77.7678H151.765V75.7678H123.168V77.7678ZM152.764 76.7359C152.522 69.1224 151.099 61.6068 148.557 54.4576L146.673 55.1275C149.145 62.082 150.53 69.3931 150.765 76.7996L152.764 76.7359ZM150.872 50.0918C149.693 51.5179 148.386 52.8356 146.971 54.0276L148.259 55.5574C149.767 54.2881 151.157 52.8851 152.413 51.3665L150.872 50.0918ZM144.376 113.809C149.524 103.987 152.395 93.122 152.775 82.0273L150.776 81.9589C150.406 92.7538 147.613 103.325 142.604 112.881L144.376 113.809ZM131.444 114.345H143.49V112.345H131.444V114.345ZM132.536 115.163C132.536 114.515 132.503 113.875 132.439 113.243L130.449 113.447C130.507 114.011 130.536 114.583 130.536 115.163H132.536ZM132.189 118.763C132.417 117.597 132.536 116.393 132.536 115.163H130.536C130.536 116.264 130.43 117.339 130.226 118.379L132.189 118.763ZM140.469 117.571H131.208V119.571H140.469V117.571ZM98.8692 150.796C116.417 145.841 131.529 134.557 141.314 119.106L139.624 118.036C130.102 133.072 115.398 144.051 98.3257 148.871L98.8692 150.796ZM97.5975 149.831V149.834H99.5975V149.831H97.5975ZM110.725 132.218C107.496 138.555 103.162 144.273 97.9204 149.095L99.2745 150.567C104.692 145.583 109.17 139.674 112.507 133.126L110.725 132.218ZM106.03 132.088C107.727 132.876 109.562 133.417 111.489 133.664L111.743 131.68C110.023 131.46 108.386 130.977 106.873 130.274L106.03 132.088ZM81.7716 153.347C91.5939 152.114 100.565 144.285 107.333 131.654L105.57 130.709C98.9441 143.075 90.4204 150.246 81.5225 151.363L81.7716 153.347ZM80.6471 118.571V152.355H82.6471V118.571H80.6471ZM96.5541 117.571H81.6471V119.571H96.5541V117.571ZM95.2255 115.163C95.2255 116.393 95.3448 117.597 95.5727 118.763L97.5355 118.379C97.3322 117.339 97.2255 116.264 97.2255 115.163H95.2255ZM95.3231 113.243C95.2585 113.875 95.2255 114.515 95.2255 115.163H97.2255C97.2255 114.583 97.255 114.011 97.3127 113.447L95.3231 113.243ZM81.6471 114.345H96.3179V112.345H81.6471V114.345ZM80.6471 81.9931V113.345H82.6471V81.9931H80.6471ZM117.981 80.9931H81.6471V82.9931H117.981V80.9931ZM117.737 97.8801C118.473 92.6223 118.888 87.3226 118.981 82.0105L116.981 81.9757C116.89 87.2066 116.481 92.4255 115.757 97.603L117.737 97.8801ZM122.216 98.4711C120.571 97.6482 118.786 97.0612 116.908 96.7546L116.586 98.7285C118.262 99.002 119.853 99.5257 121.321 100.26L122.216 98.4711ZM122.181 81.9765C122.085 87.7506 121.617 93.5106 120.779 99.2204L122.758 99.5106C123.608 93.7157 124.083 87.8698 124.181 82.0097L122.181 81.9765ZM151.775 80.9931H123.181V82.9931H151.775V80.9931ZM13.719 44.9514C8.57088 54.7739 5.69966 65.6389 5.31993 76.7336L7.31876 76.802C7.68822 66.0071 10.4819 55.4361 15.4905 45.8799L13.719 44.9514ZM27.2228 44.4156H14.6047V46.4156H27.2228V44.4156ZM26.0985 43.3984C26.0985 44.1228 26.1433 44.8372 26.2305 45.5389L28.2152 45.2924C28.1382 44.6723 28.0985 44.0402 28.0985 43.3984H26.0985ZM26.4356 39.9934C26.2144 41.0949 26.0985 42.2336 26.0985 43.3984H28.0985C28.0985 42.3666 28.2011 41.3597 28.3965 40.3872L26.4356 39.9934ZM17.6283 41.1903H27.416V39.1903H17.6283V41.1903ZM59.2254 7.96467C41.6785 12.92 26.5674 24.2039 16.7834 39.6553L18.4731 40.7253C27.9944 25.6888 42.6981 14.7103 59.769 9.88939L59.2254 7.96467ZM46.7362 27.8209C50.0233 20.9724 54.5816 14.8079 60.1743 9.66298L58.8202 8.19107C53.0402 13.5083 48.3297 19.8789 44.9332 26.9555L46.7362 27.8209ZM51.338 28.1773C49.6948 27.3088 47.8937 26.6984 45.9894 26.4003L45.68 28.3762C47.3619 28.6395 48.9521 29.1784 50.4035 29.9455L51.338 28.1773ZM76.323 5.41358C66.1194 6.69442 56.8342 15.0925 49.9789 28.6091L51.7626 29.5137C58.4864 16.2565 67.3273 8.55849 76.5721 7.39801L76.323 5.41358ZM77.4476 40.1903V6.40579H75.4476V40.1903H77.4476ZM59.1981 41.1903H76.4476V39.1903H59.1981V41.1903ZM60.5156 43.3984C60.5156 42.2336 60.3997 41.0949 60.1785 39.9934L58.2177 40.3872C58.413 41.3597 58.5156 42.3666 58.5156 43.3984H60.5156ZM60.3837 45.5389C60.4708 44.8372 60.5156 44.1228 60.5156 43.3984H58.5156C58.5156 44.0402 58.4759 44.6723 58.3989 45.2924L60.3837 45.5389ZM76.4476 44.4156H59.3913V46.4156H76.4476V44.4156ZM77.4476 76.7678V45.4156H75.4476V76.7678H77.4476ZM40.1135 77.7678H76.4476V75.7678H40.1135V77.7678ZM40.5803 59.3619C39.7048 65.1172 39.2146 70.9264 39.1136 76.7504L41.1133 76.7851C41.2127 71.0502 41.6954 65.3299 42.5576 59.6628L40.5803 59.3619ZM36.1016 59.0278C37.763 59.7947 39.5673 60.3047 41.463 60.5067L41.675 58.518C39.9999 58.3394 38.4067 57.8891 36.9398 57.212L36.1016 59.0278ZM35.9139 76.7842C36.0159 70.5831 36.549 64.3983 37.5087 58.2747L35.5328 57.9651C34.5588 64.1802 34.0177 70.4575 33.9141 76.7513L35.9139 76.7842ZM6.31934 77.7678H34.914V75.7678H6.31934V77.7678Z" fill="#12CAD6"/>
<path d="M51.7354 44.311C51.7354 48.9623 47.964 52.7336 43.311 52.7336C38.658 52.7336 34.8867 48.9623 34.8867 44.311C34.8867 39.6597 38.658 35.8884 43.311 35.8884C47.964 35.8884 51.7354 39.6597 51.7354 44.311Z" stroke="#13A6D9" stroke-width="5"/>
<path d="M125.008 115.469C125.008 121.616 120.024 126.6 113.875 126.6C107.726 126.6 102.742 121.616 102.742 115.469C102.742 109.323 107.726 104.339 113.875 104.339C120.024 104.339 125.008 109.323 125.008 115.469Z" stroke="#13A6D9" stroke-width="5"/>
<path d="M57.7223 124.79C57.7223 139.533 45.7691 151.485 31.0232 151.485C16.2774 151.485 4.32422 139.533 4.32422 124.79C4.32422 110.048 16.2774 98.0959 31.0232 98.0959C45.7691 98.0959 57.7223 110.048 57.7223 124.79Z" stroke="#13A6D9" stroke-width="5"/>
<path d="M149.866 30.377C149.866 43.1437 139.515 53.4938 126.746 53.4938C113.976 53.4938 103.625 43.1437 103.625 30.377C103.625 17.6104 113.976 7.26031 126.746 7.26031C139.515 7.26031 149.866 17.6104 149.866 30.377Z" stroke="#13A6D9" stroke-width="5"/>
<path d="M124.459 17.4403V19.0572C121.48 19.907 119.318 22.3804 119.318 25.2946C119.318 28.908 122.644 31.8494 126.729 31.8494C128.285 31.8494 129.599 32.7751 129.599 33.8719C129.599 34.9687 128.285 35.8944 126.729 35.8944C125.288 35.8944 124.242 35.1262 123.952 34.3682C123.505 33.1966 122.192 32.6108 121.022 33.0561C119.851 33.5014 119.263 34.8101 119.709 35.9805C120.473 37.9837 122.262 39.4896 124.46 40.1116V41.7262C124.46 42.9771 125.477 43.9923 126.73 43.9923C127.984 43.9923 129.001 42.9771 129.001 41.7262V40.1094C131.98 39.2596 134.141 36.7861 134.141 33.873C134.141 30.2597 130.816 27.3183 126.73 27.3183C125.175 27.3183 123.861 26.3926 123.861 25.2958C123.861 24.199 125.175 23.2733 126.73 23.2733C128.285 23.2733 129.347 24.1389 129.556 24.9536C129.868 26.1648 131.099 26.8979 132.322 26.5841C133.535 26.2725 134.267 25.0374 133.955 23.8251C133.359 21.5114 131.444 19.7506 129.001 19.0628V17.4403C129.001 16.1894 127.984 15.1742 126.73 15.1742C125.477 15.1742 124.459 16.1894 124.459 17.4403Z" fill="#FE674C"/>
<path d="M25.5888 120.034H35.0803C35.3732 120.034 35.624 120.144 35.802 120.372C35.9859 120.587 36.0606 120.841 36.0006 121.115L36.0006 121.115L35.7563 121.062L36.0005 121.116L25.5888 120.034ZM25.5888 120.034C26.2683 118.718 27.2347 117.672 28.4908 116.894L28.4908 116.894C29.8575 116.047 31.4034 115.621 33.1357 115.621H33.1928L33.223 115.607C33.2238 115.607 33.2247 115.607 33.2257 115.607C33.246 115.605 33.2784 115.605 33.3256 115.606C33.4197 115.609 33.5537 115.62 33.7307 115.64L33.7308 115.64C33.9113 115.661 34.0551 115.676 34.161 115.684C34.2137 115.689 34.2591 115.692 34.2959 115.693C34.3239 115.695 34.3622 115.696 34.3972 115.692C34.3997 115.692 34.4065 115.692 34.419 115.693C34.4419 115.694 34.4746 115.697 34.5184 115.702C34.6054 115.712 34.727 115.728 34.884 115.752L25.5888 120.034ZM37.2143 139.312C37.2142 139.312 37.214 139.312 37.2138 139.312L37.1415 139.073L37.2149 139.312C37.2147 139.312 37.2145 139.312 37.2143 139.312ZM37.2143 139.312C37.3457 139.272 37.4505 139.244 37.5327 139.226L37.5341 139.225C37.6238 139.205 37.706 139.18 37.7774 139.15M37.2143 139.312L37.7774 139.15M37.7774 139.15L37.8548 139.135L37.8727 139.131L37.8898 139.125C38.1011 139.051 38.2673 138.913 38.3812 138.72C38.5002 138.519 38.5294 138.298 38.4726 138.074L37.7337 134.824C37.7337 134.824 37.7336 134.824 37.7335 134.824C37.6763 134.564 37.5268 134.36 37.2948 134.23L37.2948 134.23L37.2881 134.227C37.0458 134.1 36.789 134.079 36.5357 134.173L36.5357 134.173L36.5333 134.174L36.4427 134.209L36.2053 134.266C36.0926 134.293 35.9631 134.324 35.8161 134.358L35.8161 134.358C35.6739 134.391 35.5064 134.424 35.3116 134.457L37.7774 139.15ZM34.8584 126.929L34.8584 126.929L34.352 129.217C34.312 129.429 34.2008 129.604 34.0319 129.74C33.8631 129.877 33.6673 129.95 33.4521 129.95H25.6591C26.3174 131.337 27.2868 132.448 28.5695 133.287C29.9568 134.194 31.5188 134.648 33.2623 134.648C33.5092 134.648 33.7558 134.638 34.0032 134.619C34.2536 134.598 34.4859 134.574 34.7008 134.548C34.9149 134.521 35.1195 134.491 35.3116 134.458L34.8584 126.929ZM34.8584 126.929L34.859 126.926M34.8584 126.929L34.859 126.926M34.859 126.926C34.9163 126.65 34.8569 126.391 34.6858 126.17L34.686 126.169M34.859 126.926L34.686 126.169M34.686 126.169L34.6774 126.159M34.686 126.169L34.6774 126.159M34.6774 126.159C34.4902 125.942 34.2451 125.826 33.9593 125.826M34.6774 126.159L33.9593 125.826M33.9593 125.826H24.4983M33.9593 125.826H24.4983M24.4983 125.826C24.4718 125.149 24.4701 124.6 24.4924 124.177L24.4983 125.826ZM35.4938 123.446C35.494 123.445 35.4941 123.445 35.4943 123.444L35.2491 123.395L35.4934 123.448L35.4938 123.446ZM34.8842 115.752L35.2408 115.805L35.33 115.819L35.3523 115.822L35.3546 115.822L35.7191 115.893C35.8249 115.914 35.9006 115.929 35.9504 115.942L35.9516 115.942L36.03 115.961C36.2715 116.031 36.5088 116.009 36.7256 115.885L36.7263 115.885C36.9409 115.762 37.0813 115.573 37.1401 115.332L38.0478 112.082L38.048 112.082L38.0503 112.072C38.1059 111.838 38.0783 111.609 37.9619 111.401L37.9528 111.385L37.9414 111.37C37.7906 111.176 37.6063 111.033 37.3843 110.975L37.3843 110.975L37.3795 110.973C36.0626 110.655 34.6755 110.496 33.2203 110.496C30.0143 110.496 27.1425 111.384 24.6117 113.161L24.6117 113.161C22.1309 114.903 20.4015 117.196 19.429 120.034H17.5376C17.2837 120.034 17.0567 120.115 16.8776 120.288L16.8774 120.288C16.6982 120.462 16.6113 120.686 16.6113 120.938V123.272C16.6113 123.524 16.6978 123.748 16.8777 123.922C17.057 124.096 17.2842 124.176 17.5376 124.176H18.6891C18.6636 124.692 18.659 125.242 18.6745 125.826H17.5376C17.2883 125.826 17.0678 125.917 16.8882 126.091C16.7086 126.264 16.6113 126.482 16.6113 126.73V129.043C16.6113 129.293 16.7087 129.509 16.8878 129.683L16.8882 129.684C17.0682 129.858 17.2888 129.948 17.5376 129.948H19.3597C20.2757 132.931 21.9664 135.317 24.4295 137.095L34.8842 115.752ZM33.2108 115.608C33.2107 115.608 33.2114 115.608 33.2128 115.608L33.2108 115.608Z" fill="#FE674C" stroke="#FE674C" stroke-width="0.5"/>
</svg>
