<svg width="184" height="166" viewBox="0 0 184 166" fill="none" xmlns="http://www.w3.org/2000/svg">
<path d="M102.415 74.0642C103.922 74.0642 105.395 73.617 106.648 72.779C107.901 71.941 108.878 70.7499 109.455 69.3563C110.031 67.9628 110.182 66.4294 109.888 64.95C109.594 63.4707 108.869 62.1118 107.803 61.0452C106.737 59.9786 105.379 59.2523 103.901 58.958C102.423 58.6638 100.891 58.8148 99.4988 59.392C98.1065 59.9692 96.9164 60.9467 96.0791 62.2009C95.2418 63.455 94.7949 64.9295 94.7949 66.4379C94.7949 68.4605 95.5977 70.4003 97.0267 71.8305C98.4557 73.2607 100.394 74.0642 102.415 74.0642ZM102.415 62.6247C103.168 62.6247 103.905 62.8483 104.531 63.2673C105.158 63.6863 105.646 64.2819 105.935 64.9786C106.223 65.6754 106.299 66.4421 106.152 67.1818C106.005 67.9215 105.642 68.6009 105.109 69.1342C104.576 69.6675 103.897 70.0306 103.158 70.1778C102.419 70.3249 101.653 70.2494 100.957 69.9608C100.261 69.6722 99.6656 69.1834 99.247 68.5564C98.8283 67.9293 98.6049 67.192 98.6049 66.4379C98.6049 65.4265 99.0063 64.4566 99.7208 63.7415C100.435 63.0264 101.404 62.6247 102.415 62.6247Z" fill="#FE674C"/>
<path d="M117.658 78.9407C117.658 80.4491 118.105 81.9236 118.942 83.1777C119.78 84.4319 120.97 85.4094 122.362 85.9866C123.754 86.5638 125.287 86.7148 126.765 86.4206C128.243 86.1263 129.6 85.4 130.666 84.3334C131.732 83.2668 132.458 81.9079 132.752 80.4286C133.046 78.9492 132.895 77.4158 132.318 76.0222C131.741 74.6287 130.765 73.4376 129.511 72.5996C128.258 71.7616 126.785 71.3144 125.278 71.3144C123.257 71.3144 121.319 72.1179 119.89 73.5481C118.461 74.9783 117.658 76.9181 117.658 78.9407ZM129.088 78.9407C129.088 79.6949 128.865 80.4322 128.446 81.0592C128.027 81.6863 127.432 82.1751 126.736 82.4637C126.04 82.7523 125.274 82.8278 124.535 82.6807C123.796 82.5335 123.117 82.1704 122.584 81.6371C122.051 81.1038 121.688 80.4243 121.541 79.6847C121.394 78.945 121.47 78.1783 121.758 77.4815C122.047 76.7847 122.535 76.1892 123.161 75.7702C123.788 75.3512 124.525 75.1276 125.278 75.1276C126.289 75.1276 127.258 75.5293 127.972 76.2444C128.687 76.9595 129.088 77.9294 129.088 78.9407Z" fill="#FE674C"/>
<path d="M126.392 57.4372L98.6068 85.2458C97.8628 85.9904 97.8628 87.1976 98.6068 87.9422C99.3507 88.6867 100.557 88.6867 101.301 87.9422L129.086 60.1336C129.83 59.389 129.83 58.1818 129.086 57.4372C128.342 56.6927 127.136 56.6927 126.392 57.4372Z" fill="#FE674C"/>
<path d="M9.62033 161.861H44.6251C49.9289 161.861 54.2434 157.547 54.2434 152.241V152.188L87.7439 163.282C92.7452 164.939 97.8997 165.761 103.04 165.761C110.2 165.761 117.328 164.165 123.971 160.997L176.358 135.373C179.606 133.785 182.04 131.028 183.214 127.606C184.387 124.185 184.156 120.516 182.566 117.267C179.289 110.581 171.183 107.787 164.482 111.058L134.552 125.661C133.076 119.548 127.574 114.988 121.016 114.988H100.078L92.6798 111.041C85.6572 107.297 77.7434 105.318 69.7909 105.318H54.2434V105.083C54.2434 99.7797 49.9289 95.4631 44.6251 95.4631H9.62033C4.31454 95.4651 0 99.7797 0 105.083V152.241C0 157.547 4.31454 161.861 9.62033 161.861ZM69.7909 113.494C76.4068 113.494 82.992 115.141 88.8312 118.254L97.1394 122.685C97.1885 122.711 97.2396 122.72 97.2907 122.742C97.4705 122.83 97.6586 122.897 97.8527 122.959C97.961 122.994 98.0673 123.034 98.1777 123.059C98.3698 123.102 98.5681 123.116 98.7704 123.13C98.8665 123.137 98.9646 123.165 99.0606 123.165C99.0749 123.165 99.0892 123.159 99.1056 123.159H121.016C124.194 123.159 126.779 125.745 126.779 128.939C126.779 132.117 124.192 134.703 121.016 134.703H90.3559C88.0995 134.703 86.2683 136.534 86.2683 138.79C86.2683 141.047 88.0995 142.878 90.3559 142.878H121.016C126.401 142.878 131.071 139.804 133.393 135.318L168.067 118.403C170.715 117.111 173.926 118.213 175.224 120.86C175.854 122.145 175.944 123.599 175.48 124.952C175.016 126.305 174.053 127.396 172.767 128.025L120.415 153.635C110.958 158.148 100.269 158.818 90.313 155.521L54.2434 143.577V113.494H69.7909ZM8.17534 105.083C8.17534 104.286 8.82324 103.638 9.62033 103.638H44.6251C45.4222 103.638 46.0681 104.286 46.0681 105.083V152.241C46.0681 153.038 45.4222 153.686 44.6251 153.686H9.62033C8.82324 153.686 8.17534 153.038 8.17534 152.241V105.083Z" fill="#12CAD6"/>
<path d="M52.0079 61.5988C52.9542 61.5988 53.9046 61.2718 54.6772 60.6055L60.173 55.8618V98.4145C60.173 100.671 62.0043 102.502 64.2607 102.502C66.5171 102.502 68.3484 100.671 68.3484 98.4145V48.8065L113.511 9.83462L158.694 48.8187V104.548C158.694 106.804 160.525 108.636 162.782 108.636C165.038 108.636 166.869 106.804 166.869 104.548V55.872L172.357 60.6055C174.068 62.0812 176.647 61.8911 178.121 60.1804C179.596 58.4718 179.406 55.8904 177.698 54.4148L161.729 40.6373V10.8218C161.729 8.5654 159.898 6.73412 157.642 6.73412H142.362C140.105 6.73412 138.274 8.5654 138.274 10.8218V20.4033L116.18 1.34248C114.643 0.0180774 112.373 0.0201212 110.84 1.34248L49.3366 54.4188C47.628 55.8945 47.4379 58.4738 48.9135 60.1845C49.7209 61.1185 50.8613 61.5988 52.0079 61.5988ZM146.449 14.9095H153.554V33.5819L146.449 27.4525V14.9095Z" fill="#12CAD6"/>
<path d="M73.8184 72.6743C73.8184 94.5638 91.6283 112.374 113.52 112.374C135.411 112.374 153.221 94.5638 153.221 72.6743C153.221 50.7828 135.411 32.9728 113.52 32.9728C91.6283 32.9728 73.8184 50.7828 73.8184 72.6743ZM145.046 72.6743C145.046 90.0571 130.903 104.198 113.52 104.198C96.137 104.198 81.9937 90.0571 81.9937 72.6743C81.9937 55.2915 96.137 41.1482 113.52 41.1482C130.903 41.1482 145.046 55.2894 145.046 72.6743Z" fill="#13A6D9"/>
<path d="M71.3148 26.8457L87.2006 12.9876C88.326 12.0059 88.4424 10.2977 87.4607 9.17231C86.4789 8.04692 84.7708 7.93047 83.6454 8.91221L67.7596 22.7703C66.6342 23.752 66.5177 25.4602 67.4995 26.5856C68.4812 27.711 70.1894 27.8274 71.3148 26.8457Z" fill="#FE674C"/>
<path d="M95.6384 2.0377C94.6567 0.912306 92.9416 0.801899 91.8162 1.78364C90.6908 2.76538 90.5674 4.4796 91.5491 5.605C92.5309 6.73039 94.246 6.8408 95.3714 5.85906C96.4968 4.87731 96.6202 3.1631 95.6384 2.0377Z" fill="#FE674C"/>
</svg>
