<svg width="81" height="80" viewBox="0 0 81 80" fill="none" xmlns="http://www.w3.org/2000/svg">
<g filter="url(#filter0_d)">
<path fill-rule="evenodd" clip-rule="evenodd" d="M16.4512 36C16.4512 24.9543 25.4055 16 36.4512 16C47.4969 16 56.4512 24.9543 56.4512 36C56.4512 47.0457 47.4969 56 36.4512 56C25.4055 56 16.4512 47.0457 16.4512 36Z" fill="#3B5998"/>
<path fill-rule="evenodd" clip-rule="evenodd" d="M38.1302 46.8797V35.9986H41.1338L41.5319 32.249H38.1302L38.1353 30.3722C38.1353 29.3942 38.2282 28.8702 39.6329 28.8702H41.5106V25.1201H38.5066C34.8982 25.1201 33.6281 26.9391 33.6281 29.9981V32.2494H31.3789V35.9991H33.6281V46.8797H38.1302Z" fill="white"/>
</g>
<defs>
<filter id="filter0_d" x="0.451172" y="0" width="80" height="80" filterUnits="userSpaceOnUse" color-interpolation-filters="sRGB">
<feFlood flood-opacity="0" result="BackgroundImageFix"/>
<feColorMatrix in="SourceAlpha" type="matrix" values="0 0 0 0 0 0 0 0 0 0 0 0 0 0 0 0 0 0 127 0"/>
<feOffset dx="4" dy="4"/>
<feGaussianBlur stdDeviation="10"/>
<feColorMatrix type="matrix" values="0 0 0 0 0 0 0 0 0 0 0 0 0 0 0 0 0 0 0.21 0"/>
<feBlend mode="normal" in2="BackgroundImageFix" result="effect1_dropShadow"/>
<feBlend mode="normal" in="SourceGraphic" in2="effect1_dropShadow" result="shape"/>
</filter>
</defs>
</svg>
