<svg width="81" height="81" viewBox="0 0 81 81" fill="none" xmlns="http://www.w3.org/2000/svg">
<g filter="url(#filter0_d)">
<path fill-rule="evenodd" clip-rule="evenodd" d="M16.0488 36.0554C16.0488 25.0097 25.0031 16.0554 36.0488 16.0554C47.0945 16.0554 56.0488 25.0097 56.0488 36.0554C56.0488 47.1011 47.0945 56.0554 36.0488 56.0554C25.0031 56.0554 16.0488 47.1011 16.0488 36.0554Z" fill="#F68634"/>
<path fill-rule="evenodd" clip-rule="evenodd" d="M38.2491 31.2168C38.2491 30.0384 37.2561 29.0802 36.0354 29.0802C34.8156 29.0802 33.8216 30.0384 33.8216 31.2168C33.8216 32.3942 34.8156 33.3531 36.0354 33.3531C37.2561 33.3531 38.2491 32.3942 38.2491 31.2168ZM41.3814 31.2167C41.3814 34.062 38.984 36.3765 36.0348 36.3765C33.0862 36.3765 30.6882 34.062 30.6882 31.2167C30.6882 28.3705 33.0862 26.0554 36.0348 26.0554C38.984 26.0554 41.3814 28.3705 41.3814 31.2167ZM41.3168 39.348C40.3501 39.9341 39.3005 40.3498 38.2121 40.5891L41.201 43.4745C41.8133 44.0643 41.8133 45.0222 41.201 45.6127C40.5894 46.2031 39.598 46.2031 38.9869 45.6127L36.0483 42.7773L33.1122 45.6127C32.806 45.9076 32.4049 46.0552 32.0037 46.0552C31.6032 46.0552 31.2027 45.9076 30.8965 45.6127C30.2848 45.0222 30.2848 44.065 30.8959 43.4745L33.8851 40.5891C32.7967 40.3498 31.7471 39.9335 30.7804 39.348C30.0487 38.9027 29.829 37.9698 30.29 37.263C30.7497 36.5552 31.7164 36.3421 32.4493 36.7874C34.6381 38.1165 37.4578 38.1168 39.6479 36.7874C40.3808 36.3421 41.3472 36.5552 41.8079 37.263C42.2689 37.9692 42.0485 38.9027 41.3168 39.348Z" fill="white"/>
</g>
<defs>
<filter id="filter0_d" x="0.0488281" y="0.0554199" width="80" height="80" filterUnits="userSpaceOnUse" color-interpolation-filters="sRGB">
<feFlood flood-opacity="0" result="BackgroundImageFix"/>
<feColorMatrix in="SourceAlpha" type="matrix" values="0 0 0 0 0 0 0 0 0 0 0 0 0 0 0 0 0 0 127 0"/>
<feOffset dx="4" dy="4"/>
<feGaussianBlur stdDeviation="10"/>
<feColorMatrix type="matrix" values="0 0 0 0 0 0 0 0 0 0 0 0 0 0 0 0 0 0 0.21 0"/>
<feBlend mode="normal" in2="BackgroundImageFix" result="effect1_dropShadow"/>
<feBlend mode="normal" in="SourceGraphic" in2="effect1_dropShadow" result="shape"/>
</filter>
</defs>
</svg>
