<svg width="79" height="141" viewBox="0 0 79 141" fill="none" xmlns="http://www.w3.org/2000/svg">
<path d="M102.411 72.1208C103.244 66.1082 103.175 59.9166 101.453 54.0184C100.994 52.4151 100.398 50.8451 99.8019 49.2751C99.1568 47.5388 98.4959 45.7723 97.8207 44.0518C97.5531 45.0769 97.6372 46.186 97.6295 47.2665C97.6553 50.6744 96.843 54.0238 96.243 57.3383C95.0288 64.0133 94.564 70.8703 94.9357 77.7099C95.02 79.5493 95.1644 81.357 95.5069 83.1757C95.7495 84.5858 96.1001 87.5151 97.2029 88.5876C98.7399 90.0465 99.2368 86.1712 99.4775 85.314C100.059 83.2781 100.624 81.212 101.113 79.1475C101.642 76.7931 102.081 74.4863 102.411 72.1208Z" fill="white"/>
<path d="M95.5392 105.726C91.5314 109.796 86.9167 113.225 82.0517 116.325C84.3184 113.402 86.6311 110.493 88.6349 107.362C89.8878 105.433 91.0171 103.416 92.316 101.502C93.6735 99.4804 95.2623 97.6059 96.9605 95.8661C98.0329 94.7632 99.2131 93.7189 100.566 92.9298C101.528 92.3466 103.725 91.1897 104.863 91.7441C104.232 94.344 102.431 96.9838 100.925 99.1609C99.3917 101.506 97.551 103.705 95.5392 105.726Z" fill="white"/>
<path d="M77.8208 105.367C72.9984 107.598 67.7656 109.123 62.3519 109.282C65.1211 107.824 67.9062 106.397 70.6754 104.939C72.8125 103.813 74.9655 102.718 76.9457 101.368C78.731 100.159 80.3453 98.7709 82.0213 97.4272C84.0712 95.7712 86.1068 94.1613 88.2502 92.6099C90.1528 91.1853 92.1473 89.7892 94.3795 88.8446C95.0734 88.5562 97.06 87.5102 97.8284 87.8745C99.0722 88.4114 97.5499 89.828 97.1047 90.3699C93.8574 94.4247 90.0064 97.99 85.6864 100.957C83.1802 102.622 80.5789 104.107 77.8208 105.367Z" fill="white"/>
<path d="M78.9721 92.1503C74.7043 94.7049 70.3129 97.1707 65.5839 98.7763C60.0691 100.642 54.2246 101.297 48.3959 101.982C56.8778 97.9395 64.2552 92.0177 72.3727 87.2826C75.1387 85.6725 78.0141 84.1971 81.1636 83.4615C82.8746 83.0604 84.6364 82.9017 86.433 82.9553C88.1235 83.0264 89.6065 83.3604 88.2284 85.124C85.8713 88.095 82.1722 90.1963 78.9721 92.1503Z" fill="white"/>
<path d="M85.9557 44.879C85.0347 52.476 84.1454 60.1332 84.7026 67.8361C84.9344 70.905 85.3784 73.9389 85.8383 77.0029C86.211 79.5362 86.6313 82.1598 88.0606 84.2906C88.9792 81.6541 89.1023 78.8213 89.3634 76.0312C89.9677 70.0234 91.4118 64.15 91.3919 58.1248C91.3724 55.0211 90.941 51.8651 90.1468 48.8233C89.4034 46.0239 88.3825 42.3326 86.5539 40.0276C86.1897 41.5265 86.1503 43.2772 85.9557 44.879Z" fill="white"/>
<path d="M78.241 54.3228C77.5641 51.7959 76.751 49.3023 75.9077 46.8245C74.5288 42.7451 73.0595 38.7131 71.5142 34.6828C71.4175 34.4262 71.023 34.4801 71.0294 34.7843C71.2849 37.5331 70.9478 40.3247 70.747 43.0831C70.1242 52.5607 71.6053 62.2376 75.051 71.2646C75.8403 73.3479 76.7658 75.3979 78.0969 77.1959C78.6769 78.0054 79.352 78.9955 79.7986 77.7993C80.1296 76.8946 80.0549 75.5115 80.1261 74.5514C80.4312 70.2388 80.2785 65.8597 79.7012 61.5504C79.3459 59.1232 78.8845 56.7135 78.241 54.3228Z" fill="white"/>
<path d="M58.0276 85.2251C50.3168 86.1324 42.4363 86.2065 34.8428 87.6287C40.1768 84.3975 46.1098 82.158 52.1268 80.2971C59.8977 77.8973 68.0314 76.1137 76.2304 76.7178C77.3886 76.8 80.4828 77.0546 78.6737 78.5838C77.3874 79.6454 75.6843 80.4268 74.1619 81.113C70.9823 82.5948 67.5492 83.595 64.0638 84.2768C62.1088 84.6526 60.0761 84.9539 58.0276 85.2251Z" fill="white"/>
<path d="M53.5528 77.2391C44.8313 79.2936 36.0037 81.3656 26.9682 81.5095C29.842 79.9581 32.6857 78.4224 35.5753 76.9011C37.3955 75.9042 39.2617 74.9217 41.1612 74.0754C46.3322 71.7758 51.996 70.4853 57.7439 70.3039C60.648 70.1973 63.5584 70.3949 66.4594 70.8666C67.513 71.0423 69.1306 71.2671 68.0471 72.568C67.2155 73.544 65.2463 73.9658 64.0834 74.3858C60.6535 75.5381 57.111 76.4036 53.5528 77.2391Z" fill="white"/>
<path d="M18.998 77.0164C26.116 73.9607 33.234 70.9051 40.7229 68.846C44.4903 67.8235 48.3543 67.0577 52.2787 66.9906C54.2861 66.9333 56.2982 67.1041 58.2692 67.4888C58.6969 67.5712 60.5269 67.761 60.5555 68.3995C60.5508 68.9017 58.5197 69.2791 58.0667 69.4408C49.9948 71.9991 41.7629 74.1803 33.3614 75.5282C28.5689 76.283 23.8017 76.7939 18.998 77.0164Z" fill="white"/>
<path d="M14.6035 59.9944C21.3637 58.7418 28.1397 57.5193 35.041 57.1919C38.4917 57.0282 42.0089 57.137 45.4011 57.8115C47.1281 58.1709 48.8582 58.6824 50.5013 59.3935C50.8388 59.5234 52.4168 60.038 52.2918 60.6037C52.1793 61.0473 50.3668 60.9636 49.9264 61.0033C42.4231 61.6476 34.8817 61.9275 27.3402 61.4771C23.0593 61.2321 18.8037 60.7432 14.6035 59.9944Z" fill="white"/>
<path d="M69.1655 67.8273C69.3158 66.2873 69.4804 64.7014 69.6307 63.1614C69.8221 61.4075 69.9676 59.6394 70.0371 57.8728C70.2513 49.2255 67.2889 40.7513 64.211 32.5687C63.4938 36.0987 63.7225 39.7458 63.6913 43.3375C63.6872 48.222 63.2412 53.0701 63.5112 57.9641C63.686 61.2167 64.1966 64.5231 65.2966 67.6346C65.6532 68.677 66.2366 71.0994 67.5659 71.3606C69.1392 71.6472 69.05 68.8492 69.1655 67.8273Z" fill="white"/>
<path d="M60.1716 64.1816C61.6938 51.155 60.3309 37.6867 56.1544 25.0079C55.4929 30.4692 55.3052 36.0271 55.4058 41.5485C55.5032 46.9178 55.8589 52.2664 56.8831 57.5706C57.243 59.4955 57.6948 61.449 58.237 63.3548C58.3685 63.8238 58.6682 65.7804 59.1277 65.9229C59.9247 66.1953 60.1209 64.6696 60.1716 64.1816Z" fill="white"/>
<path d="M52.3257 58.6249C50.0696 47.5492 45.3261 36.8603 38.6041 27.5977C39.5537 32.2492 40.8979 36.8467 42.4528 41.3333C43.9744 45.6837 45.7083 49.9992 47.9238 54.0611C48.7462 55.5502 49.6289 57.0077 50.5718 58.4335C50.7921 58.7788 51.5544 60.2997 51.9505 60.3218C52.6507 60.3375 52.3955 59.0495 52.3257 58.6249Z" fill="white"/>
<path d="M41.0602 51.8312C43.418 53.9729 46.0134 55.8357 48.5043 57.792C51.1488 59.8212 53.7474 61.8361 56.3761 63.8351C61.6177 67.8031 66.8719 71.6491 72.511 74.9849C83.3583 81.4221 94.3846 87.6881 105.642 93.3711C112.178 96.6577 118.89 99.621 125.745 102.201C126.604 102.518 127.019 101.261 126.19 100.929C114.301 96.3088 102.918 90.4611 91.7715 84.2584C80.6708 78.07 69.5859 71.9117 59.3975 64.2434C56.5375 62.0971 53.6774 59.9507 50.8174 57.8044C47.8338 55.5693 44.8771 53.1663 41.6859 51.1942C41.2375 50.8537 40.626 51.4447 41.0602 51.8312Z" fill="white"/>
<path d="M25.1388 29.1127C25.8509 34.043 28.7588 38.4708 32.1102 42.2807C33.6536 44.0438 35.3158 45.6675 36.9337 47.353C37.7576 48.1878 38.5816 49.0226 39.3755 49.8733C40.1076 50.6796 40.846 51.7902 41.7112 52.4111C42.5016 51.6489 40.7108 48.2476 40.3416 47.3272C39.6046 45.5623 38.7472 43.8609 37.7394 42.2386C35.722 38.9182 33.2072 35.8212 30.3519 33.1726C28.7531 31.6693 27.0054 30.3212 25.1388 29.1127Z" fill="white"/>
<path d="M13.707 47.7034C18.3901 46.0835 23.6375 46.7038 28.5491 48.0007C30.7831 48.5929 33.0203 49.3372 35.2416 50.0514C36.3444 50.3935 37.463 50.7656 38.5958 51.0918C39.6368 51.3895 40.9787 51.5288 41.9025 52.042C41.5747 53.0988 37.7691 53.0264 36.7662 53.0931C34.8825 53.2391 32.9797 53.203 31.0753 53.0908C27.1889 52.7919 23.3515 51.929 19.655 50.5305C17.6 49.7672 15.6021 48.8201 13.707 47.7034Z" fill="white"/>
</svg>
