<svg width="224" height="326" viewBox="0 0 224 326" fill="none" xmlns="http://www.w3.org/2000/svg">
<path d="M-66.6378 206.423C-69.0179 189.233 -68.8206 171.531 -63.899 154.668C-62.5847 150.084 -60.8809 145.596 -59.1771 141.107C-57.3329 136.143 -55.4433 131.093 -53.5129 126.174C-52.7479 129.105 -52.9884 132.275 -52.9662 135.364C-53.0401 145.108 -50.7178 154.684 -49.0024 164.16C-45.5309 183.244 -44.2021 202.848 -45.2648 222.402C-45.5056 227.661 -45.9186 232.829 -46.8977 238.029C-47.5914 242.06 -48.5936 250.435 -51.7467 253.502C-56.141 257.673 -57.5617 246.593 -58.2498 244.142C-59.9114 238.322 -61.5276 232.415 -62.9264 226.513C-64.4383 219.781 -65.6921 213.186 -66.6378 206.423Z" fill="white"/>
<path d="M-46.9873 302.499C-35.5291 314.137 -22.3357 323.941 -8.42652 332.803C-14.9072 324.445 -21.5192 316.128 -27.2479 307.177C-30.8301 301.663 -34.0588 295.897 -37.7723 290.424C-41.6534 284.644 -46.1958 279.285 -51.0508 274.311C-54.1169 271.158 -57.4911 268.172 -61.359 265.916C-64.1083 264.249 -70.3904 260.941 -73.6429 262.526C-71.8412 269.959 -66.6921 277.506 -62.3853 283.731C-58.0016 290.435 -52.7391 296.723 -46.9873 302.499Z" fill="white"/>
<path d="M3.67099 301.474C17.4582 307.853 32.4189 312.213 47.8966 312.668C39.9794 308.5 32.0169 304.418 24.0997 300.249C17.9897 297.032 11.8344 293.901 6.17298 290.041C1.0686 286.584 -3.54651 282.616 -8.33829 278.774C-14.1989 274.04 -20.0188 269.437 -26.1468 265.001C-31.5862 260.929 -37.2885 256.937 -43.6703 254.237C-45.6542 253.412 -51.3339 250.422 -53.5309 251.463C-57.0868 252.998 -52.7345 257.048 -51.4619 258.597C-42.1778 270.19 -31.1678 280.383 -18.8167 288.865C-11.6516 293.626 -4.21456 297.872 3.67099 301.474Z" fill="white"/>
<path d="M0.374883 263.687C12.5766 270.991 25.1317 278.041 38.652 282.631C54.4188 287.965 71.1283 289.838 87.7924 291.797C63.5425 280.239 42.4506 263.308 19.2427 249.77C11.3347 245.167 3.11405 240.949 -5.89053 238.846C-10.7823 237.699 -15.8192 237.246 -20.9558 237.399C-25.789 237.602 -30.0288 238.557 -26.0888 243.599C-19.3499 252.093 -8.77414 258.101 0.374883 263.687Z" fill="white"/>
<path d="M-19.5855 128.539C-16.9524 150.259 -14.4099 172.151 -16.003 194.173C-16.6656 202.947 -17.9351 211.621 -19.25 220.381C-20.3155 227.624 -21.5169 235.125 -25.6035 241.217C-28.2296 233.679 -28.5818 225.58 -29.328 217.603C-31.0558 200.427 -35.1844 183.635 -35.1276 166.409C-35.0719 157.535 -33.8386 148.512 -31.568 139.816C-29.4424 131.812 -26.5238 121.259 -21.2957 114.669C-20.2545 118.954 -20.142 123.959 -19.5855 128.539Z" fill="white"/>
<path d="M2.46879 155.538C4.40398 148.314 6.72869 141.184 9.13947 134.1C13.0819 122.437 17.2825 110.91 21.7006 99.3872C21.977 98.6535 23.1049 98.8076 23.0866 99.6773C22.3562 107.536 23.3199 115.517 23.894 123.404C25.6747 150.5 21.4401 178.166 11.589 203.975C9.33237 209.931 6.68623 215.792 2.88061 220.932C1.22243 223.247 -0.707603 226.077 -1.98446 222.657C-2.93078 220.071 -2.71732 216.116 -2.92076 213.372C-3.79319 201.042 -3.35654 188.522 -1.70598 176.202C-0.690342 169.262 0.62878 162.373 2.46879 155.538Z" fill="white"/>
<path d="M60.2587 243.888C82.304 246.482 104.834 246.694 126.544 250.76C111.294 241.522 94.3318 235.119 77.1291 229.799C54.9123 222.938 31.658 217.838 8.21695 219.565C4.90576 219.8 -3.94069 220.528 1.2315 224.9C4.90911 227.936 9.77813 230.169 14.1308 232.131C23.2211 236.368 33.0364 239.228 43.0013 241.177C48.5907 242.251 54.4021 243.113 60.2587 243.888Z" fill="white"/>
<path d="M73.0489 221.056C97.9836 226.93 123.222 232.853 149.054 233.265C140.838 228.829 132.708 224.439 124.447 220.089C119.243 217.239 113.907 214.43 108.476 212.011C93.6926 205.436 77.4998 201.746 61.0664 201.228C52.7637 200.923 44.4427 201.488 36.1487 202.837C33.1365 203.339 28.5117 203.982 31.6094 207.701C33.987 210.491 39.6172 211.697 42.9417 212.898C52.7479 216.192 62.8757 218.667 73.0489 221.056Z" fill="white"/>
<path d="M173.826 213.773C153.476 205.037 133.126 196.301 111.715 190.414C100.944 187.491 89.8965 185.302 78.6766 185.11C72.9376 184.946 67.1849 185.434 61.5499 186.534C60.3269 186.769 55.0951 187.312 55.0133 189.138C55.0267 190.573 60.8335 191.652 62.1289 192.115C85.2063 199.429 108.741 205.665 132.761 209.518C146.463 211.677 160.092 213.137 173.826 213.773Z" fill="white"/>
<path d="M184.408 171.753C165.081 168.172 145.708 164.677 125.977 163.741C116.112 163.273 106.056 163.584 96.3579 165.512C91.4204 166.54 86.4739 168.002 81.7764 170.035C80.8115 170.407 76.2998 171.878 76.6574 173.495C76.9788 174.764 82.1607 174.524 83.42 174.638C104.872 176.48 126.433 177.28 147.994 175.992C160.233 175.292 172.4 173.894 184.408 171.753Z" fill="white"/>
<path d="M28.4136 194.148C27.9839 189.745 27.5135 185.211 27.0838 180.808C26.5364 175.793 26.1204 170.738 25.9219 165.688C25.3094 140.965 33.7787 116.737 42.5786 93.343C44.6291 103.435 43.9753 113.862 44.0644 124.131C44.076 138.096 45.3514 151.957 44.5793 165.949C44.0797 175.248 42.6198 184.701 39.475 193.597C38.4554 196.577 36.7875 203.502 32.987 204.249C28.489 205.069 28.7438 197.069 28.4136 194.148Z" fill="white"/>
<path d="M54.1256 183.724C49.7735 146.481 53.6699 107.975 65.6107 71.7266C67.5018 87.3405 68.0386 103.23 67.7509 119.016C67.4724 134.367 66.4556 149.659 63.5273 164.824C62.4982 170.327 61.2065 175.912 59.6566 181.361C59.2804 182.701 58.4235 188.295 57.1099 188.703C54.8314 189.482 54.2703 185.119 54.1256 183.724Z" fill="white"/>
<path d="M76.5595 167.838C83.0097 136.172 96.5713 105.613 115.79 79.131C113.075 92.4296 109.232 105.574 104.786 118.401C100.436 130.839 95.4787 143.177 89.1447 154.79C86.7932 159.047 84.2696 163.214 81.5738 167.291C80.9441 168.278 78.7647 172.626 77.6323 172.689C75.6302 172.734 76.36 169.052 76.5595 167.838Z" fill="white"/>
<path d="M108.766 148.415C102.025 154.538 94.6048 159.864 87.4835 165.457C79.9227 171.258 72.4933 177.019 64.9778 182.734C49.9922 194.079 34.9704 205.074 18.8481 214.611C-12.1643 233.015 -43.6885 250.93 -75.8738 267.178C-94.5598 276.574 -113.748 285.046 -133.349 292.422C-135.804 293.327 -136.991 289.735 -134.621 288.784C-100.629 275.576 -68.0861 258.858 -36.2177 241.124C-4.48067 223.432 27.2111 205.825 56.3397 183.902C64.5165 177.765 72.6934 171.629 80.8702 165.492C89.4004 159.102 97.8537 152.232 106.977 146.594C108.259 145.62 110.007 147.31 108.766 148.415Z" fill="white"/>
<path d="M154.287 83.4623C152.251 97.5582 143.937 110.217 134.355 121.11C129.943 126.15 125.191 130.793 120.565 135.611C118.209 137.998 115.854 140.385 113.584 142.817C111.491 145.122 109.38 148.297 106.906 150.073C104.646 147.894 109.766 138.169 110.822 135.538C112.929 130.492 115.38 125.627 118.262 120.99C124.029 111.496 131.219 102.642 139.382 95.0696C143.953 90.7716 148.95 86.9177 154.287 83.4623Z" fill="white"/>
<path d="M186.973 136.613C173.584 131.982 158.581 133.755 144.539 137.463C138.152 139.156 131.756 141.284 125.405 143.326C122.252 144.304 119.054 145.368 115.815 146.3C112.839 147.152 109.003 147.55 106.362 149.017C107.299 152.038 118.179 151.831 121.046 152.022C126.432 152.44 131.872 152.336 137.317 152.015C148.428 151.161 159.399 148.694 169.967 144.696C175.843 142.513 181.555 139.805 186.973 136.613Z" fill="white"/>
</svg>
