<svg width="89" height="167" viewBox="0 0 89 167" fill="none" xmlns="http://www.w3.org/2000/svg">
<g opacity="0.52">
<path d="M-20.4109 37.2612C-14.817 32.7748 -8.55906 29.2073 -2.03669 26.1012C-5.29101 29.4278 -8.6006 32.7283 -11.5569 36.3635C-13.4012 38.5992 -15.1041 40.9686 -17.0037 43.1783C-18.9921 45.5149 -21.2477 47.6247 -23.6201 49.5447C-25.119 50.7625 -26.7437 51.8874 -28.5469 52.6586C-29.8318 53.2351 -32.7423 54.3291 -34.0812 53.4302C-32.9162 50.2347 -30.2844 47.1889 -28.0876 44.6805C-25.8328 41.9634 -23.2156 39.484 -20.4109 37.2612Z" fill="#F9F2F2"/>
<path d="M1.64955 40.7479C7.99228 38.7376 14.7443 37.6952 21.5232 38.4189C17.8552 39.7976 14.1719 41.1354 10.5039 42.5142C7.67321 43.5782 4.82711 44.6013 2.15942 45.978C-0.24458 47.2088 -2.46108 48.6963 -4.74824 50.1169C-7.54739 51.8702 -10.3221 53.5675 -13.2226 55.1719C-15.8043 56.6565 -18.4965 58.0891 -21.4195 58.9074C-22.3274 59.1552 -24.9588 60.1443 -25.8647 59.5501C-27.3386 58.6552 -25.2327 57.1157 -24.5983 56.5034C-19.9556 51.9071 -14.6309 48.036 -8.80801 45.006C-5.43807 43.3186 -1.97577 41.8769 1.64955 40.7479Z" fill="#F9F2F2"/>
<path d="M-1.71391 57.3415C3.98383 54.8258 9.82289 52.444 15.958 51.2129C23.1115 49.7859 30.5002 49.9531 37.8736 50.0794C26.7004 53.7652 16.632 60.027 5.8128 64.6547C2.12668 66.2272 -1.67628 67.61 -5.71369 68.0059C-7.90727 68.2228 -10.1289 68.1231 -12.3631 67.7477C-14.4623 67.3683 -16.2643 66.6902 -14.2877 64.6853C-10.9138 61.3138 -5.99176 59.2767 -1.71391 57.3415Z" fill="#F9F2F2"/>
<path d="M-17.3093 116.206C-15.0539 106.711 -12.8293 97.1348 -12.4031 87.2529C-12.2455 83.3143 -12.3579 79.3837 -12.4857 75.4121C-12.5819 72.1298 -12.7243 68.7246 -14.1978 65.7731C-15.7279 68.9656 -16.2941 72.5436 -17.026 76.0438C-18.6549 83.5735 -21.3121 90.7886 -22.1645 98.4471C-22.5921 102.394 -22.5133 106.477 -21.9651 110.478C-21.4449 114.161 -20.7085 119.026 -18.7621 122.267C-18.0894 120.425 -17.7854 118.208 -17.3093 116.206Z" fill="#F9F2F2"/>
<path d="M-6.30768 105.528C-5.83091 108.854 -5.17929 112.161 -4.48779 115.453C-3.36094 120.872 -2.11449 126.246 -0.772904 131.631C-0.689623 131.974 -0.189485 131.973 -0.153158 131.585C-0.071752 128.049 0.755312 124.56 1.40751 121.09C3.56467 109.155 3.12526 96.6069 0.139749 84.5487C-0.541895 81.7669 -1.39841 79.004 -2.7977 76.492C-3.4036 75.3643 -4.10186 73.9909 -4.83335 75.4343C-5.37812 76.5271 -5.48633 78.2972 -5.71491 79.5048C-6.72361 84.9318 -7.17059 90.5216 -7.07758 96.0953C-6.98766 99.2398 -6.76273 102.38 -6.30768 105.528Z" fill="#F9F2F2"/>
<path d="M23.4153 69.7233C33.1697 69.8893 43.0145 71.1431 52.6975 70.6349C45.5708 73.8279 37.8409 75.6585 30.0614 76.9936C20.0148 78.7135 9.6051 79.5883 -0.538481 77.4186C-1.97177 77.116 -5.796 76.2633 -3.3158 74.6299C-1.55602 73.5011 0.682957 72.7997 2.68273 72.1882C6.86621 70.8493 11.296 70.1658 15.7447 69.8957C18.2391 69.7527 20.8195 69.7175 23.4153 69.7233Z" fill="#F9F2F2"/>
<path d="M27.8361 80.6349C39.0187 79.5163 50.3363 78.3936 61.6325 79.7562C57.8205 81.2358 54.0483 82.7005 50.2209 84.1392C47.8043 85.0943 45.3324 86.0235 42.8388 86.7738C36.0512 88.8111 28.7954 89.4819 21.5962 88.7294C17.9567 88.3681 14.3535 87.6192 10.8021 86.5237C9.51287 86.1203 7.52696 85.5581 9.06845 84.0906C10.2484 82.9927 12.7672 82.7937 14.2795 82.459C18.7274 81.5816 23.274 81.0878 27.8361 80.6349Z" fill="#F9F2F2"/>
<path d="M71.4512 89.8999C62.1238 92.5647 52.7964 95.2294 43.1513 96.5647C38.3011 97.2194 33.3676 97.5314 28.4606 96.9455C25.9473 96.675 23.4613 96.1138 21.0577 95.288C20.5359 95.1102 18.28 94.556 18.3372 93.7399C18.4162 93.1026 21.0057 92.9706 21.5946 92.8426C32.0399 90.9729 42.63 89.6096 53.3105 89.334C59.401 89.1947 65.4243 89.361 71.4512 89.8999Z" fill="#F9F2F2"/>
<path d="M73.9316 109.207C65.3133 109.642 56.6795 110.036 48.0197 109.272C43.6898 108.889 39.3165 108.15 35.1817 106.712C33.0789 105.96 30.9943 105.015 29.0475 103.83C28.6452 103.607 26.7509 102.684 26.9893 101.986C27.1942 101.442 29.4438 101.858 29.9992 101.883C39.4564 102.348 48.908 103.282 58.2535 105.144C63.5599 106.188 68.7993 107.537 73.9316 109.207Z" fill="#F9F2F2"/>
<path d="M6.98289 89.9221C6.57112 91.8529 6.13489 93.8398 5.72313 95.7706C5.22886 97.9662 4.78985 100.188 4.44597 102.42C2.91963 113.37 5.38252 124.643 8.03213 135.566C9.44107 131.204 9.68671 126.531 10.2485 121.973C10.9648 115.768 12.2273 109.685 12.6029 103.421C12.8584 99.2582 12.7025 94.97 11.7829 90.8287C11.4896 89.4432 11.1143 86.2658 9.49354 85.7066C7.57196 85.0735 7.27582 88.6435 6.98289 89.9221Z" fill="#F9F2F2"/>
<path d="M17.6763 96.0917C13.88 112.382 13.6198 129.726 16.9858 146.549C18.6063 139.724 19.6498 132.695 20.3282 125.662C20.9883 118.824 21.3233 111.968 20.8174 105.053C20.6485 102.546 20.3691 99.9871 19.9701 97.4729C19.8741 96.8546 19.785 94.3175 19.2324 94.0578C18.2775 93.5754 17.8105 95.4803 17.6763 96.0917Z" fill="#F9F2F2"/>
<path d="M26.6571 104.494C27.8599 118.951 32.223 133.343 39.2628 146.261C38.7549 140.189 37.7469 134.118 36.4598 128.151C35.1944 122.364 33.6591 116.585 31.4858 111.045C30.6762 109.012 29.7869 107.01 28.8179 105.037C28.5933 104.561 27.8634 102.498 27.3724 102.402C26.5008 102.262 26.6318 103.942 26.6571 104.494Z" fill="#F9F2F2"/>
<path d="M39.7269 115.052C37.0965 111.928 34.1289 109.117 31.3054 106.206C28.3007 103.175 25.3513 100.171 22.362 97.1814C16.3988 91.2436 10.4021 85.4585 3.85069 80.2559C-8.74837 70.2221 -21.5957 60.3752 -34.8165 51.2295C-42.4941 45.9361 -50.4381 41.0232 -58.6178 36.5729C-59.6433 36.0236 -60.344 37.5489 -59.3584 38.1132C-45.1941 46.0162 -31.8411 55.3926 -18.8342 65.1796C-5.88268 74.9406 7.0535 84.6607 18.6511 96.1459C21.9076 99.362 25.1641 102.578 28.4206 105.794C31.8185 109.144 35.1583 112.703 38.8534 115.754C39.3633 116.264 40.2124 115.617 39.7269 115.052Z" fill="#F9F2F2"/>
<path d="M56.2861 146.64C56.1153 140.254 53.1312 134.131 49.5037 128.718C47.8344 126.213 45.9966 123.866 44.223 121.448C43.3164 120.247 42.4097 119.045 41.5429 117.828C40.7467 116.679 39.9869 115.142 38.9977 114.205C37.9003 115.038 39.6398 119.665 39.9666 120.898C40.6293 123.266 41.4515 125.575 42.473 127.808C44.507 132.372 47.1943 136.737 50.3718 140.59C52.1481 142.774 54.1328 144.785 56.2861 146.64Z" fill="#F9F2F2"/>
<path d="M73.2617 124.975C67.1819 126.232 60.724 124.546 54.7836 122.059C52.082 120.924 49.3986 119.596 46.7306 118.308C45.4043 117.685 44.0626 117.021 42.6964 116.413C41.4408 115.857 39.7864 115.45 38.7084 114.64C39.2713 113.354 44.0098 114.096 45.271 114.183C47.643 114.32 50.0122 114.691 52.3723 115.16C57.1787 116.204 61.8417 117.957 66.2509 120.366C68.7041 121.687 71.0595 123.232 73.2617 124.975Z" fill="#F9F2F2"/>
</g>
</svg>
