<svg width="245" height="108" viewBox="0 0 245 108" fill="none" xmlns="http://www.w3.org/2000/svg">
<g opacity="0.52">
<path d="M210.556 0.896049C211.991 11.8483 211.726 22.962 210.661 34.0652C208.903 27.1317 207.221 20.1451 204.833 13.3656C203.385 9.16136 201.655 5.03998 200.284 0.782712C198.818 -3.69208 197.851 -8.34415 197.22 -13.0026C196.816 -15.9495 196.629 -18.9908 197.036 -21.9918C197.291 -24.1513 198.143 -28.8769 200.341 -29.951C203.554 -25.8967 205.434 -20.0106 206.96 -15.1241C208.709 -9.99668 209.871 -4.57422 210.556 0.896049Z" fill="#F9F2F2"/>
<path d="M188.922 27.4744C186.585 37.4794 182.682 47.2693 176.482 55.7095C177.556 49.7541 178.693 43.8103 179.767 37.8549C180.595 33.2588 181.488 28.6744 181.786 24.0498C182.068 19.89 181.874 15.7779 181.82 11.6245C181.736 6.52982 181.704 1.51153 181.89 -3.60124C181.983 -8.19613 182.229 -12.8972 183.445 -17.4232C183.831 -18.824 184.601 -23.0964 186.071 -23.8341C188.369 -25.0908 188.717 -21.0849 189.013 -19.7617C191.329 -9.9875 192.18 0.124341 191.56 10.2385C191.116 16.04 190.284 21.7715 188.922 27.4744Z" fill="#F9F2F2"/>
<path d="M170.15 9.98983C168.965 19.5342 167.497 29.1613 164.317 38.2793C160.598 48.9043 154.642 58.5914 148.75 68.2902C152.682 50.5522 152.436 32.2618 154.878 14.2555C155.716 8.12394 156.889 1.98596 159.516 -3.68953C160.94 -6.77454 162.795 -9.64842 165.015 -12.3229C167.134 -14.8148 169.408 -16.6774 170.456 -12.4785C172.179 -5.35076 170.98 2.78754 170.15 9.98983Z" fill="#F9F2F2"/>
<path d="M134.672 33.6721C126.879 46.5038 117.614 58.6023 110.746 71.8678C112.169 59.8934 115.816 48.186 120.14 36.8012C125.729 22.1022 132.69 7.58341 143.367 -4.19377C144.87 -5.86105 148.94 -10.2739 149.118 -5.69709C149.206 -2.47326 148.37 1.05207 147.604 4.18899C146.079 10.7982 143.518 17.2207 140.409 23.3441C138.656 26.7708 136.696 30.2273 134.672 33.6721Z" fill="#F9F2F2"/>
<path d="M117.176 30.9874C109.929 46.7244 102.583 62.644 92.0502 76.586C93.1053 70.3599 94.1487 64.1986 95.2686 57.9842C95.9154 54.0239 96.6386 50.0104 97.6091 46.1083C100.258 35.491 105.031 25.3233 111.594 16.347C114.887 11.7942 118.652 7.5936 122.823 3.7336C124.344 2.3369 126.612 0.138935 127.305 3.33829C127.803 5.76726 126.102 9.2704 125.359 11.5425C123.034 18.1411 120.137 24.5701 117.176 30.9874Z" fill="#F9F2F2"/>
<path d="M71.3516 81.679C75.1647 67.1945 78.9778 52.7101 84.751 38.8462C87.6758 31.8877 91.1068 25.0873 95.6744 19.0263C97.9758 15.8988 100.63 13.0354 103.562 10.4893C104.197 9.93525 106.664 7.37222 107.671 8.08838C108.431 8.69316 106.589 12.2377 106.296 13.1206C100.59 28.467 94.1186 43.6086 86.1754 58.0172C81.6229 66.2196 76.7287 74.093 71.3516 81.679Z" fill="#F9F2F2"/>
<path d="M44.5469 69.8313C50.6822 58.0377 56.8822 46.2558 64.5956 35.3481C68.4523 29.8942 72.8036 24.6632 77.868 20.2958C80.4708 18.0914 83.3092 16.0632 86.3482 14.4052C86.9477 14.0454 89.61 12.2528 90.3232 13.1165C90.8655 13.8157 88.5812 16.4785 88.1175 17.197C80.1708 29.3993 71.6235 41.2261 61.9628 52.1839C56.4954 58.4169 50.6862 64.3209 44.5469 69.8313Z" fill="#F9F2F2"/>
<path d="M121.411 -4.00579C119.243 -6.06738 117.022 -8.20537 114.854 -10.267C112.408 -12.6458 109.887 -14.9716 107.277 -17.1796C94.3528 -27.7961 77.9124 -33.3652 61.7788 -38.4113C66.3053 -33.1176 72.1359 -29.1262 77.5729 -24.8047C85.0124 -18.9862 91.8705 -12.5372 99.6507 -7.12508C104.816 -3.52091 110.463 -0.364608 116.514 1.66149C118.527 2.35843 122.913 4.35184 124.893 2.63674C127.202 0.579895 122.832 -2.6137 121.411 -4.00579Z" fill="#F9F2F2"/>
<path d="M105.154 5.36299C87.1117 -12.4583 64.9632 -26.4079 40.6697 -35.1299C48.2061 -27.623 56.4533 -20.7232 64.9881 -14.3062C73.2872 -8.06543 81.8622 -2.24276 91.1651 2.50803C94.5271 4.25007 98.0419 5.88596 101.592 7.32766C102.463 7.68517 105.802 9.55667 106.566 9.02599C107.929 8.13549 105.837 6.02084 105.154 5.36299Z" fill="#F9F2F2"/>
<path d="M87.3483 10.7087C67.7833 0.967361 45.8481 -4.52257 23.7321 -5.2998C31.9514 -1.21211 40.5579 2.21017 49.2461 5.17933C57.6871 8.03709 66.3275 10.5298 75.1545 11.9868C78.4028 12.5053 81.6745 12.8943 84.9694 13.1539C85.7579 13.2291 88.9829 13.8771 89.4879 13.2998C90.3452 12.2512 88.0784 11.1076 87.3483 10.7087Z" fill="#F9F2F2"/>
<path d="M63.5887 19.7945C69.6585 18.7495 75.586 17.0106 81.5316 15.5423C87.7711 13.9264 93.9342 12.3636 100.109 10.736C112.394 7.46929 124.508 4.03808 136.302 -0.586912C159.021 -9.45901 181.692 -18.8076 203.749 -29.2024C216.535 -35.2527 229.038 -41.9555 241.128 -49.3343C242.633 -50.2662 241.212 -52.3937 239.719 -51.5265C218.53 -38.9033 196.072 -28.5138 173.355 -18.9063C150.714 -9.35188 128.138 0.214217 104.327 6.6171C97.652 8.42192 90.9775 10.2267 84.3029 12.0316C77.3461 13.9192 70.1653 15.5659 63.3624 18.0828C62.3098 18.361 62.483 19.9962 63.5887 19.7945Z" fill="#F9F2F2"/>
<path d="M10.0172 17.0244C18.3788 21.8061 28.5874 22.6431 38.382 22.0689C42.9058 21.8147 47.3584 21.2136 51.8524 20.7535C54.1052 20.4911 56.3581 20.2287 58.5992 20.0311C60.6993 19.8748 63.2705 20.0708 65.2464 19.4912C65.0254 17.3795 57.7106 16.0613 55.8683 15.5289C52.3016 14.552 48.6882 13.834 45.0165 13.4397C37.5552 12.563 29.8426 12.7104 22.4082 13.9104C18.2145 14.5583 14.0803 15.6178 10.0172 17.0244Z" fill="#F9F2F2"/>
<path d="M24.7461 56.5723C27.85 47.5073 35.0396 40.248 42.8608 34.3055C46.4218 31.6055 50.2183 29.0815 53.9502 26.5459C55.7837 25.2723 57.682 24.0103 59.5272 22.6719C61.2196 21.4397 63.0287 19.5601 64.9101 18.763C66.1306 20.5201 61.4919 26.2341 60.4001 27.8419C58.3811 30.8866 56.0617 33.7436 53.6245 36.5125C48.5443 42.0801 42.6628 46.9017 36.1329 50.8713C32.5241 53.0949 28.703 55.0129 24.7461 56.5723Z" fill="#F9F2F2"/>
</g>
</svg>
