<svg width="259" height="264" viewBox="0 0 259 264" fill="none" xmlns="http://www.w3.org/2000/svg">
<g style="mix-blend-mode:screen" opacity="0.33">
<path d="M298.971 212.613C301.418 194.937 301.215 176.736 296.155 159.397C294.803 154.684 293.052 150.069 291.3 145.453C289.403 140.349 287.46 135.156 285.476 130.098C284.689 133.112 284.936 136.372 284.913 139.549C284.989 149.567 282.602 159.413 280.838 169.157C277.268 188.779 275.902 208.937 276.995 229.043C277.242 234.45 277.667 239.764 278.674 245.111C279.387 249.256 280.417 257.867 283.66 261.02C288.178 265.309 289.639 253.917 290.346 251.397C292.055 245.412 293.717 239.338 295.155 233.269C296.709 226.348 297.999 219.567 298.971 212.613Z" fill="white"/>
<path d="M226.677 310.346C212.501 316.906 197.118 321.389 181.203 321.857C189.344 317.571 197.531 313.373 205.672 309.087C211.954 305.779 218.283 302.56 224.105 298.591C229.353 295.037 234.098 290.956 239.025 287.006C245.051 282.138 251.036 277.405 257.337 272.844C262.93 268.657 268.793 264.552 275.355 261.776C277.394 260.928 283.234 257.853 285.494 258.924C289.15 260.502 284.675 264.667 283.366 266.26C273.82 278.179 262.499 288.66 249.8 297.381C242.432 302.277 234.785 306.642 226.677 310.346Z" fill="white"/>
<path d="M230.068 271.493C217.522 279.003 204.613 286.252 190.711 290.972C174.499 296.456 157.318 298.382 140.183 300.396C165.118 288.511 186.805 271.103 210.668 257.183C218.799 252.45 227.252 248.113 236.51 245.951C241.54 244.771 246.719 244.305 252.001 244.463C256.97 244.671 261.33 245.654 257.279 250.838C250.35 259.572 239.475 265.749 230.068 271.493Z" fill="white"/>
<path d="M250.592 132.53C247.885 154.863 245.27 177.373 246.908 200.017C247.59 209.039 248.895 217.957 250.247 226.965C251.343 234.412 252.578 242.124 256.78 248.388C259.48 240.638 259.842 232.31 260.609 224.108C262.386 206.447 266.631 189.181 266.573 171.469C266.515 162.345 265.247 153.067 262.913 144.125C260.727 135.896 257.726 125.044 252.35 118.269C251.28 122.675 251.164 127.821 250.592 132.53Z" fill="white"/>
<path d="M227.914 160.292C225.924 152.863 223.534 145.533 221.055 138.249C217.001 126.257 212.682 114.404 208.139 102.556C207.855 101.802 206.695 101.96 206.714 102.854C207.465 110.935 206.474 119.141 205.884 127.25C204.053 155.111 208.407 183.559 218.536 210.095C220.857 216.22 223.577 222.246 227.49 227.532C229.195 229.911 231.18 232.822 232.493 229.305C233.466 226.646 233.246 222.58 233.455 219.757C234.353 207.08 233.904 194.207 232.206 181.538C231.162 174.403 229.806 167.32 227.914 160.292Z" fill="white"/>
<path d="M168.493 251.135C145.825 253.802 122.659 254.02 100.336 258.201C116.017 248.702 133.458 242.118 151.146 236.648C173.99 229.593 197.901 224.35 222.003 226.126C225.408 226.367 234.504 227.116 229.186 231.611C225.404 234.732 220.398 237.029 215.923 239.046C206.576 243.403 196.483 246.343 186.237 248.347C180.49 249.452 174.515 250.337 168.493 251.135Z" fill="white"/>
<path d="M155.342 227.658C129.703 233.698 103.753 239.789 77.1913 240.212C85.6393 235.651 93.9988 231.137 102.493 226.665C107.844 223.734 113.33 220.846 118.914 218.358C134.115 211.598 150.765 207.804 167.662 207.271C176.2 206.958 184.755 207.539 193.283 208.925C196.381 209.442 201.136 210.102 197.951 213.927C195.506 216.796 189.717 218.036 186.299 219.27C176.216 222.658 165.802 225.202 155.342 227.658Z" fill="white"/>
<path d="M51.7207 220.17C72.6454 211.188 93.5701 202.205 115.585 196.152C126.66 193.146 138.019 190.895 149.556 190.698C155.457 190.529 161.372 191.031 167.166 192.162C168.423 192.404 173.803 192.962 173.887 194.839C173.873 196.316 167.903 197.425 166.571 197.9C142.842 205.421 118.643 211.833 93.9446 215.795C79.8561 218.014 65.842 219.516 51.7207 220.17Z" fill="white"/>
<path d="M40.8398 176.964C60.7127 173.282 80.6322 169.688 100.92 168.726C111.064 168.245 121.403 168.565 131.375 170.547C136.452 171.604 141.538 173.107 146.368 175.198C147.361 175.58 152 177.093 151.632 178.755C151.301 180.06 145.973 179.814 144.678 179.93C122.621 181.824 100.452 182.647 78.2818 181.323C65.6973 180.603 53.1871 179.166 40.8398 176.964Z" fill="white"/>
<path d="M201.237 199.991C201.678 195.464 202.162 190.802 202.604 186.275C203.167 181.119 203.595 175.921 203.799 170.728C204.428 145.307 195.72 120.396 186.672 96.3414C184.563 106.719 185.236 117.44 185.144 127.998C185.132 142.357 183.821 156.609 184.615 170.996C185.128 180.558 186.629 190.278 189.863 199.425C190.911 202.489 192.626 209.61 196.534 210.378C201.159 211.22 200.897 202.995 201.237 199.991Z" fill="white"/>
<path d="M174.799 189.274C179.274 150.979 175.267 111.387 162.989 74.1148C161.045 90.1693 160.493 106.508 160.789 122.739C161.075 138.523 162.121 154.247 165.132 169.839C166.19 175.498 167.518 181.24 169.112 186.843C169.498 188.222 170.379 193.974 171.73 194.393C174.073 195.193 174.65 190.708 174.799 189.274Z" fill="white"/>
<path d="M151.734 172.938C145.102 140.379 131.158 108.957 111.397 81.7278C114.189 95.4017 118.14 108.917 122.711 122.106C127.184 134.895 132.281 147.581 138.794 159.522C141.212 163.9 143.807 168.184 146.578 172.376C147.226 173.391 149.467 177.862 150.631 177.927C152.69 177.973 151.939 174.187 151.734 172.938Z" fill="white"/>
<path d="M118.616 152.967C125.548 159.263 133.177 164.739 140.5 170.49C148.274 176.455 155.913 182.378 163.641 188.255C179.049 199.92 194.495 211.226 211.072 221.032C242.96 239.955 275.374 258.376 308.468 275.082C327.681 284.743 347.411 293.455 367.565 301.039C370.09 301.97 371.309 298.276 368.874 297.299C333.922 283.718 300.46 266.527 267.692 248.293C235.06 230.101 202.473 211.998 172.523 189.455C164.115 183.146 155.707 176.836 147.3 170.526C138.529 163.956 129.837 156.892 120.456 151.095C119.138 150.094 117.34 151.831 118.616 152.967Z" fill="white"/>
<path d="M71.8128 86.1814C73.9061 100.675 82.4545 113.691 92.3066 124.891C96.8437 130.074 101.73 134.848 106.486 139.802C108.908 142.257 111.331 144.711 113.664 147.211C115.816 149.582 117.987 152.846 120.53 154.672C122.854 152.431 117.59 142.432 116.504 139.726C114.338 134.538 111.817 129.537 108.855 124.768C102.924 115.007 95.5315 105.902 87.1376 98.1162C82.4376 93.697 77.2998 89.7342 71.8128 86.1814Z" fill="white"/>
<path d="M38.2031 140.832C51.9699 136.07 67.3957 137.894 81.8344 141.706C88.4017 143.447 94.9783 145.635 101.508 147.735C104.75 148.74 108.038 149.834 111.369 150.793C114.429 151.669 118.374 152.078 121.089 153.586C120.126 156.693 108.938 156.48 105.99 156.677C100.452 157.106 94.8589 156.999 89.2605 156.67C77.8356 155.791 66.5549 153.254 55.6884 149.143C49.6474 146.899 43.7739 144.115 38.2031 140.832Z" fill="white"/>
</g>
</svg>
