<svg width="81" height="80" viewBox="0 0 81 80" fill="none" xmlns="http://www.w3.org/2000/svg">
<g filter="url(#filter0_d)">
<path fill-rule="evenodd" clip-rule="evenodd" d="M16.4531 36C16.4531 24.9543 25.4074 16 36.4531 16C47.4988 16 56.4531 24.9543 56.4531 36C56.4531 47.0457 47.4988 56 36.4531 56C25.4074 56 16.4531 47.0457 16.4531 36Z" fill="#4C6C91"/>
<path fill-rule="evenodd" clip-rule="evenodd" d="M37.498 42.5635C37.498 42.5635 37.8831 42.5215 38.0803 42.3136C38.2608 42.1231 38.2545 41.7636 38.2545 41.7636C38.2545 41.7636 38.2305 40.0849 39.0246 39.837C39.8071 39.5933 40.8119 41.4604 41.8783 42.1784C42.6838 42.7212 43.2952 42.6024 43.2952 42.6024L46.1448 42.5635C46.1448 42.5635 47.6348 42.4734 46.9284 41.3232C46.87 41.2289 46.5163 40.472 44.8103 38.9173C43.0229 37.2898 43.2629 37.553 45.4144 34.7375C46.725 33.0229 47.2487 31.9762 47.0849 31.5286C46.9295 31.1005 45.9653 31.2142 45.9653 31.2142L42.7579 31.2337C42.7579 31.2337 42.52 31.2019 42.3437 31.3053C42.1715 31.4067 42.0598 31.6433 42.0598 31.6433C42.0598 31.6433 41.5527 32.9697 40.8756 34.0984C39.4471 36.4786 38.8764 36.6046 38.6427 36.4571C38.099 36.112 38.2347 35.0724 38.2347 34.3339C38.2347 32.0264 38.5915 31.0647 37.5408 30.8158C37.1923 30.7328 36.9356 30.6785 36.0435 30.6693C34.8989 30.658 33.9306 30.6734 33.3818 30.9366C33.0166 31.1118 32.7349 31.503 32.907 31.5256C33.1188 31.5532 33.5988 31.6526 33.8534 31.9926C34.1821 32.432 34.1706 33.4173 34.1706 33.4173C34.1706 33.4173 34.3595 36.1335 33.7292 36.4704C33.2973 36.7019 32.7046 36.2298 31.4306 34.0697C30.7785 32.9635 30.286 31.7406 30.286 31.7406C30.286 31.7406 30.191 31.5122 30.0209 31.3893C29.8154 31.2408 29.5284 31.1947 29.5284 31.1947L26.4806 31.2142C26.4806 31.2142 26.0226 31.2265 25.8546 31.4221C25.7054 31.5952 25.8431 31.9547 25.8431 31.9547C25.8431 31.9547 28.2294 37.4353 30.9318 40.1976C33.4099 42.7294 36.223 42.5635 36.223 42.5635H37.498Z" fill="white"/>
</g>
<defs>
<filter id="filter0_d" x="0.453125" y="0" width="80" height="80" filterUnits="userSpaceOnUse" color-interpolation-filters="sRGB">
<feFlood flood-opacity="0" result="BackgroundImageFix"/>
<feColorMatrix in="SourceAlpha" type="matrix" values="0 0 0 0 0 0 0 0 0 0 0 0 0 0 0 0 0 0 127 0"/>
<feOffset dx="4" dy="4"/>
<feGaussianBlur stdDeviation="10"/>
<feColorMatrix type="matrix" values="0 0 0 0 0 0 0 0 0 0 0 0 0 0 0 0 0 0 0.21 0"/>
<feBlend mode="normal" in2="BackgroundImageFix" result="effect1_dropShadow"/>
<feBlend mode="normal" in="SourceGraphic" in2="effect1_dropShadow" result="shape"/>
</filter>
</defs>
</svg>
