<svg width="80" height="81" viewBox="0 0 80 81" fill="none" xmlns="http://www.w3.org/2000/svg">
<g filter="url(#filter0_d)">
<path fill-rule="evenodd" clip-rule="evenodd" d="M16 36.9126C16 25.8669 24.9543 16.9126 36 16.9126C47.0457 16.9126 56 25.8669 56 36.9126C56 47.9583 47.0457 56.9126 36 56.9126C24.9543 56.9126 16 47.9583 16 36.9126Z" fill="#FF0000"/>
<path fill-rule="evenodd" clip-rule="evenodd" d="M46.2215 31.9737C45.9762 31.0312 45.2533 30.289 44.3353 30.0371C42.6718 29.5793 36.0007 29.5793 36.0007 29.5793C36.0007 29.5793 29.3295 29.5793 27.6659 30.0371C26.7479 30.289 26.025 31.0312 25.7797 31.9737C25.334 33.6819 25.334 37.246 25.334 37.246C25.334 37.246 25.334 40.81 25.7797 42.5183C26.025 43.4608 26.7479 44.203 27.6659 44.455C29.3295 44.9127 36.0007 44.9127 36.0007 44.9127C36.0007 44.9127 42.6718 44.9127 44.3353 44.455C45.2533 44.203 45.9762 43.4608 46.2215 42.5183C46.6673 40.81 46.6673 37.246 46.6673 37.246C46.6673 37.246 46.6673 33.6819 46.2215 31.9737Z" fill="white"/>
<path fill-rule="evenodd" clip-rule="evenodd" d="M34 40.9125V34.2458L39.3333 37.5793L34 40.9125Z" fill="#FF0000"/>
</g>
<defs>
<filter id="filter0_d" x="0" y="0.912598" width="80" height="80" filterUnits="userSpaceOnUse" color-interpolation-filters="sRGB">
<feFlood flood-opacity="0" result="BackgroundImageFix"/>
<feColorMatrix in="SourceAlpha" type="matrix" values="0 0 0 0 0 0 0 0 0 0 0 0 0 0 0 0 0 0 127 0"/>
<feOffset dx="4" dy="4"/>
<feGaussianBlur stdDeviation="10"/>
<feColorMatrix type="matrix" values="0 0 0 0 0 0 0 0 0 0 0 0 0 0 0 0 0 0 0.21 0"/>
<feBlend mode="normal" in2="BackgroundImageFix" result="effect1_dropShadow"/>
<feBlend mode="normal" in="SourceGraphic" in2="effect1_dropShadow" result="shape"/>
</filter>
</defs>
</svg>
