<svg width="130" height="75" viewBox="0 0 130 75" fill="none" xmlns="http://www.w3.org/2000/svg">
<g opacity="0.86">
<path d="M26.6168 66.7038C26.6931 69.1603 26.7694 71.6168 26.5856 74.0559C26.2881 78.0104 25.2553 81.9035 23.5854 85.5288C23.1836 86.4262 21.8653 86.2493 21.747 85.3171C21.5283 83.4257 21.3275 81.5073 21.1536 79.6069C20.9709 77.7782 20.833 75.9404 20.8296 74.0755C20.7629 67.1629 22.382 60.283 24.6202 53.6979C25.1909 52.0202 25.6711 49.8944 26.6277 48.3953C26.8395 51.4075 26.4957 54.5552 26.4744 57.5677C26.489 60.643 26.5395 63.6644 26.6168 66.7038Z" fill="#F9F2F2"/>
<path d="M31.0351 66.0684C30.8271 60.3037 31.4887 54.4567 33.6843 49.0461C34.2733 47.5746 34.988 46.1477 35.7026 44.7208C36.4797 43.1414 37.2747 41.535 38.0787 39.9735C38.233 40.9684 38.0466 42.0088 37.9499 43.0311C37.5973 46.2505 38.0426 49.4953 38.2906 52.6867C38.7956 59.1144 38.5746 65.642 37.5644 72.0724C37.3076 73.8033 36.997 75.4984 36.498 77.185C36.1328 78.4947 35.5193 81.2304 34.3733 82.1381C32.7797 83.3694 32.6831 79.6577 32.5381 78.8241C32.1848 76.8433 31.8493 74.8355 31.5856 72.8366C31.3124 70.5598 31.12 68.3366 31.0351 66.0684Z" fill="#F9F2F2"/>
<path d="M51.2664 87.2619C55.0553 90.0881 58.9695 92.8423 63.2858 94.8158C68.3199 97.1107 73.7824 98.293 79.2269 99.5023C71.5973 94.8631 65.1929 88.554 57.9746 83.2955C55.5146 81.5068 52.9383 79.835 50.0315 78.8362C48.4524 78.2922 46.8021 77.9725 45.0984 77.8501C43.4933 77.7545 42.0591 77.9275 43.1921 79.7275C45.1344 82.7634 48.4292 85.1063 51.2664 87.2619Z" fill="#F9F2F2"/>
<path d="M49.2192 41.8982C49.3582 49.1693 49.4614 56.4943 48.1927 63.7232C47.678 66.6022 46.966 69.4278 46.236 72.2803C45.6397 74.6395 44.9897 77.0794 43.4331 78.9562C42.8187 76.3751 42.9751 73.685 42.997 71.0221C43.0043 65.2839 42.2048 59.592 42.8039 53.8976C43.1212 50.9651 43.833 48.023 44.8769 45.2237C45.8494 42.6487 47.17 39.2571 49.1209 37.2541C49.3208 38.7062 49.1894 40.3651 49.2192 41.8982Z" fill="#F9F2F2"/>
<path d="M55.6033 51.5695C56.4866 49.2457 57.4955 46.9665 58.5314 44.7051C60.228 40.9811 62.0054 37.3108 63.8546 33.6493C63.9707 33.4159 64.3384 33.5049 64.3031 33.7919C63.7968 36.366 63.8466 39.0378 63.7708 41.6649C63.4468 50.6853 61.1144 59.6914 56.9874 67.8939C56.0405 69.7874 54.968 71.6364 53.5364 73.2081C52.9101 73.9176 52.1765 74.7886 51.8695 73.6147C51.6437 72.7274 51.8475 71.427 51.8727 70.5124C51.9996 66.4058 52.5658 62.2804 53.5266 58.2619C54.0963 56.0015 54.7646 53.7677 55.6033 51.5695Z" fill="#F9F2F2"/>
<path d="M71.737 82.7319C78.9396 84.3324 86.3829 85.1614 93.425 87.2374C88.6933 83.6688 83.2998 80.98 77.7904 78.6412C70.6748 75.6239 63.1568 73.1543 55.3471 72.9356C54.2442 72.9018 51.2943 72.8445 52.8574 74.4645C53.9713 75.5921 55.5061 76.4948 56.8794 77.2902C59.7427 78.9974 62.8921 80.2737 66.1216 81.254C67.9338 81.7975 69.8265 82.2782 71.737 82.7319Z" fill="#F9F2F2"/>
<path d="M76.7359 75.6126C84.7835 78.3951 92.9298 81.2042 101.458 82.2105C98.8907 80.467 96.3502 78.7412 93.7648 77.0246C92.1399 75.9069 90.4702 74.7982 88.7559 73.8151C84.0886 71.1429 78.8582 69.3774 73.4415 68.6522C70.7062 68.2718 67.9355 68.1783 65.1474 68.3448C64.1344 68.4095 62.5834 68.4661 63.4825 69.8004C64.1747 70.8033 65.9959 71.3917 67.0548 71.9008C70.1865 73.3205 73.4523 74.4801 76.7359 75.6126Z" fill="#F9F2F2"/>
<path d="M110.305 76.5993C103.869 73.0249 97.4343 69.4504 90.5525 66.7824C87.0892 65.4529 83.5098 64.3567 79.806 63.9153C77.9137 63.6677 75.995 63.6354 74.0945 63.8093C73.6822 63.8459 71.9338 63.8492 71.8453 64.4501C71.8013 64.9253 73.6852 65.4777 74.098 65.6742C81.4829 68.8703 89.0554 71.7254 96.8686 73.8089C101.327 74.9842 105.785 75.9263 110.305 76.5993Z" fill="#F9F2F2"/>
<path d="M115.221 63.061C108.95 61.2256 102.662 59.4172 96.1685 58.443C92.922 57.9559 89.5862 57.72 86.3142 58.0309C84.6469 58.2043 82.9619 58.5213 81.34 59.0353C81.0084 59.1256 79.4669 59.4602 79.5307 60.007C79.5942 60.4373 81.3159 60.5327 81.7285 60.6126C88.7602 61.9445 95.8631 62.9355 103.036 63.236C107.107 63.4167 111.178 63.3643 115.221 63.061Z" fill="#F9F2F2"/>
<path d="M62.8812 65.2111C62.8874 63.7407 62.8846 62.2255 62.8909 60.7551C62.8788 59.0785 62.9115 57.3928 63.016 55.716C63.6464 47.52 67.2632 39.7936 70.9613 32.354C71.2994 35.7604 70.7319 39.1865 70.4154 42.5851C69.9488 47.2034 69.9036 51.8299 69.1769 56.4308C68.6984 59.4891 67.8972 62.5659 66.5576 65.4016C66.12 66.3528 65.3352 68.5868 64.0532 68.7057C62.5382 68.8251 62.892 66.1884 62.8812 65.2111Z" fill="#F9F2F2"/>
<path d="M71.7344 62.6302C71.5499 50.1679 74.1356 37.566 79.3054 25.9814C79.4047 31.2083 79.0469 36.4809 78.42 41.6913C77.8107 46.7582 76.9593 51.7807 75.4801 56.6967C74.9544 58.4819 74.3391 60.2852 73.643 62.0349C73.4735 62.4655 73.0017 64.2865 72.5535 64.377C71.7738 64.5578 71.7353 63.0964 71.7344 62.6302Z" fill="#F9F2F2"/>
<path d="M79.6887 58.133C82.8884 47.879 88.4025 38.2304 95.6499 30.1207C94.304 34.4269 92.5904 38.644 90.6882 42.736C88.8307 46.7024 86.7758 50.6153 84.29 54.2422C83.3689 55.5709 82.3941 56.8637 81.3653 58.1209C81.1238 58.4262 80.2566 59.7906 79.88 59.7734C79.2164 59.7208 79.5818 58.5277 79.6887 58.133Z" fill="#F9F2F2"/>
<path d="M90.9937 52.795C88.5583 54.5927 85.9251 56.1039 83.3818 57.7135C80.6861 59.3772 78.0353 61.0318 75.3575 62.6686C70.0198 65.9152 64.6819 69.0452 59.0293 71.6558C48.154 76.6969 37.126 81.559 25.9355 85.8475C19.4398 88.3252 12.809 90.4803 6.0789 92.2591C5.23651 92.4758 4.96526 91.248 5.78072 91.0134C17.4663 87.7909 28.791 83.3586 39.9268 78.5681C51.0177 73.7866 62.0908 69.0321 72.4617 62.7636C75.3723 61.0099 78.283 59.2561 81.1937 57.5024C84.2297 55.6767 87.2565 53.6896 90.4635 52.1325C90.9202 51.8537 91.4414 52.4714 90.9937 52.795Z" fill="#F9F2F2"/>
<path d="M108.234 32.8496C107.086 37.4422 103.91 41.3483 100.375 44.6274C98.7456 46.1457 97.0177 47.5207 95.3258 48.9584C94.4664 49.6683 93.607 50.3782 92.7745 51.1059C92.0047 51.7977 91.1996 52.7765 90.3219 53.2802C89.6479 52.4835 91.6686 49.4403 92.1064 48.6057C92.9731 47.0082 93.9476 45.4821 95.0567 44.0455C97.2837 41.1006 99.9596 38.4148 102.914 36.1858C104.571 34.9185 106.353 33.8124 108.234 32.8496Z" fill="#F9F2F2"/>
<path d="M117.252 51.527C112.98 49.5445 107.96 49.6256 103.191 50.3786C101.022 50.7233 98.8354 51.2115 96.6665 51.6728C95.591 51.89 94.4976 52.1341 93.3951 52.3334C92.3823 52.5146 91.1002 52.517 90.1774 52.9132C90.3856 53.9439 93.9904 54.242 94.9321 54.4017C96.699 54.7212 98.5014 54.8702 100.313 54.9476C104.016 55.0393 107.727 54.5931 111.356 53.627C113.373 53.1033 115.353 52.4003 117.252 51.527Z" fill="#F9F2F2"/>
</g>
</svg>
