<svg width="25" height="26" viewBox="0 0 25 26" fill="none" xmlns="http://www.w3.org/2000/svg">
<path fill-rule="evenodd" clip-rule="evenodd" d="M12.5 -1.14441e-05C19.4036 -1.14441e-05 25 5.64387 25 12.606C25 19.568 19.4036 25.2119 12.5 25.2119C5.59644 25.2119 0 19.568 0 12.606C0 5.64387 5.59644 -1.14441e-05 12.5 -1.14441e-05Z" fill="#7F4DA0"/>
<path fill-rule="evenodd" clip-rule="evenodd" d="M15.8302 11.0084C15.7694 10.5103 15.6176 10.1192 15.348 9.77274C14.9979 9.32666 14.5506 9.05955 13.8882 8.90109C13.4566 8.79547 13.2822 8.8076 13.1261 8.95141C12.9807 9.08614 12.9523 9.35624 13.0634 9.53115C13.1416 9.65811 13.2317 9.70359 13.4825 9.75322C13.8164 9.81518 14.0471 9.89559 14.257 10.0166C14.7026 10.2761 14.9101 10.6821 14.9323 11.3393C14.9427 11.6479 14.9691 11.7428 15.076 11.8523C15.2741 12.0523 15.6266 12.0134 15.7762 11.774C15.8311 11.6838 15.8394 11.6445 15.8452 11.4349C15.849 11.3052 15.8435 11.1121 15.8302 11.0084Z" fill="white"/>
<path fill-rule="evenodd" clip-rule="evenodd" d="M17.5748 11.57C17.4868 10.044 16.8949 8.81622 15.8356 7.95238C15.2388 7.46699 14.5174 7.13323 13.7267 6.97091C13.437 6.91285 12.9037 6.8658 12.8122 6.89271C12.7258 6.91764 12.6037 7.01192 12.5493 7.09717C12.4918 7.18963 12.4788 7.39605 12.5279 7.51546C12.6071 7.71507 12.7546 7.78559 13.1674 7.82202C13.804 7.87818 14.4605 8.1037 14.9565 8.43757C15.5228 8.81771 15.973 9.33765 16.2642 9.94863C16.5159 10.4736 16.6706 11.2301 16.6663 11.9076C16.6649 12.1526 16.7024 12.2909 16.8001 12.3921C16.9476 12.5477 17.1626 12.5817 17.3523 12.4784C17.5626 12.3668 17.6118 12.1711 17.5748 11.57Z" fill="white"/>
<path fill-rule="evenodd" clip-rule="evenodd" d="M19.5072 17.4468C19.4776 17.3596 19.4086 17.225 19.3592 17.1478C19.0484 16.6744 17.3782 15.3563 16.5444 14.9252C16.0682 14.6785 15.7154 14.5963 15.4539 14.6735C15.1727 14.7533 15.0247 14.8853 14.5535 15.4759C14.3635 15.7126 14.1686 15.9344 14.1168 15.9692C13.9885 16.0589 13.7369 16.1312 13.5593 16.1312C13.1473 16.1287 12.3998 15.8596 11.8249 15.5058C11.3784 15.2317 10.8061 14.7408 10.3669 14.2549C9.84884 13.6843 9.4961 13.181 9.21729 12.6129C8.85712 11.8828 8.76585 11.4368 8.91631 11.1104C8.95333 11.0282 9.00267 10.941 9.02485 10.9135C9.04707 10.8887 9.27898 10.6968 9.53552 10.4875C10.0388 10.0838 10.1202 9.99163 10.214 9.71505C10.3324 9.3637 10.3003 9.0049 10.1178 8.64362C9.97713 8.36952 9.60955 7.77151 9.34312 7.38531C8.99033 6.87702 8.11207 5.79064 7.93689 5.64358C7.62111 5.38447 7.21656 5.33959 6.76998 5.51405C6.29882 5.69844 5.4156 6.41604 5.03814 6.91688C4.69769 7.37036 4.56698 7.69178 4.54722 8.11537C4.52996 8.46419 4.55956 8.60872 4.74212 9.05475C6.17053 12.5531 8.30201 15.3463 11.2304 17.5639C12.7599 18.7226 14.3462 19.6046 15.9917 20.2076C16.9514 20.559 17.3683 20.5764 17.8593 20.2874C18.0665 20.1628 18.5796 19.632 18.8658 19.2458C19.3395 18.603 19.5147 18.3065 19.564 18.0697C19.5985 17.9078 19.5714 17.6262 19.5072 17.4468Z" fill="white"/>
<path fill-rule="evenodd" clip-rule="evenodd" d="M19.3514 11.9204C19.3198 11.0572 19.1757 10.3492 18.8752 9.55976C18.5785 8.78324 18.2782 8.27652 17.7112 7.59117C17.175 6.94857 16.7586 6.58165 16.0982 6.17323C15.1768 5.60418 14.0554 5.2276 12.7988 5.06923C12.3702 5.01388 12.2732 5.01783 12.1418 5.10631C11.887 5.27391 11.8904 5.69194 12.146 5.85702C12.2306 5.90954 12.3056 5.92867 12.6484 5.97392C13.1747 6.04537 13.5131 6.11271 13.9146 6.22318C15.4891 6.65724 16.6999 7.54446 17.5093 8.8615C18.1867 9.95927 18.4679 11.0571 18.428 12.4592C18.4141 12.9333 18.4242 13.0167 18.4961 13.1306C18.6337 13.3429 18.9965 13.3848 19.1827 13.2087C19.2985 13.1013 19.3203 13.0207 19.3431 12.615C19.3541 12.4034 19.3564 12.091 19.3514 11.9204Z" fill="white"/>
</svg>
