<svg width="25" height="26" viewBox="0 0 25 26" fill="none" xmlns="http://www.w3.org/2000/svg">
<path fill-rule="evenodd" clip-rule="evenodd" d="M12.5 25.2119C19.4036 25.2119 25 19.568 25 12.606C25 5.64388 19.4036 0 12.5 0C5.59644 0 0 5.64388 0 12.606C0 19.568 5.59644 25.2119 12.5 25.2119Z" fill="#25D366"/>
<path fill-rule="evenodd" clip-rule="evenodd" d="M12.9114 19.6194H12.9083C11.6643 19.6189 10.442 19.3042 9.3563 18.707L5.41602 19.7493L6.4705 15.8651C5.82004 14.7282 5.47778 13.4387 5.47833 12.1176C5.47996 7.98467 8.81436 4.62219 12.9113 4.62219C14.8997 4.62306 16.7659 5.40369 18.1692 6.82057C19.5726 8.23738 20.345 10.1207 20.3442 12.1235C20.3426 16.2555 17.0095 19.6177 12.9114 19.6194ZM9.53897 17.3502L9.76456 17.4852C10.7131 18.0528 11.8004 18.3532 12.909 18.3536H12.9115C16.3166 18.3536 19.088 15.5587 19.0893 12.1233C19.09 10.4585 18.448 8.89324 17.2816 7.71558C16.1152 6.53792 14.564 5.88905 12.9139 5.88848C9.50618 5.88848 6.73475 8.68315 6.7334 12.1183C6.73292 13.2955 7.05954 14.442 7.67796 15.4339L7.82485 15.6696L7.20075 17.9687L9.53897 17.3502ZM16.6563 13.9061C16.6098 13.8279 16.4861 13.7811 16.3003 13.6873C16.1146 13.5935 15.2015 13.1405 15.0312 13.0779C14.861 13.0154 14.7372 12.9842 14.6134 13.1717C14.4896 13.3591 14.1337 13.7811 14.0253 13.9061C13.917 14.031 13.8086 14.0467 13.623 13.9529C13.4373 13.8592 12.8388 13.6614 12.1294 13.0233C11.5773 12.5266 11.2046 11.9133 11.0962 11.7258C10.9879 11.5383 11.0847 11.437 11.1777 11.3436C11.2612 11.2596 11.3634 11.1248 11.4562 11.0154C11.5491 10.9061 11.58 10.8279 11.642 10.703C11.7039 10.5779 11.6729 10.4686 11.6265 10.3749C11.58 10.2811 11.2086 9.35918 11.0539 8.98415C10.9031 8.61893 10.75 8.66841 10.636 8.66264C10.5278 8.65716 10.4038 8.656 10.28 8.656C10.1562 8.656 9.95501 8.70288 9.78478 8.89039C9.61455 9.07791 9.13477 9.53104 9.13477 10.4529C9.13477 11.3748 9.80025 12.2654 9.89312 12.3904C9.98597 12.5155 11.2027 14.4072 13.0658 15.2185C13.5089 15.4115 13.8548 15.5268 14.1246 15.6131C14.5695 15.7556 14.9744 15.7355 15.2943 15.6873C15.6512 15.6335 16.3932 15.2342 16.548 14.7967C16.7027 14.3592 16.7027 13.9841 16.6563 13.9061Z" fill="#FDFDFD"/>
</svg>
