<svg width="41" height="36" viewBox="0 0 41 36" fill="none" xmlns="http://www.w3.org/2000/svg">
<path fill-rule="evenodd" clip-rule="evenodd" d="M20.5354 4.99492C24.0681 0.947797 30.6116 -0.702486 35.9106 2.83383C38.7207 4.71987 40.4871 7.90256 40.6075 11.2424C40.8684 18.8652 33.9837 24.9751 23.4459 34.3267L23.2251 34.5232C21.6996 35.8984 19.3512 35.8984 17.8257 34.5428L17.625 34.366L17.5037 34.2582C7.0342 24.9478 0.183417 18.8555 0.463347 11.2621C0.583779 7.90256 2.35012 4.71987 5.16021 2.83383C10.4592 -0.722132 17.0027 0.947797 20.5354 4.99492ZM20.5353 31.0704L20.7276 30.8822C29.8826 22.7685 35.9218 17.4033 35.9218 11.9629C35.9218 8.19781 33.0368 5.37403 29.1902 5.37403C26.2283 5.37403 23.3433 7.23772 22.3432 9.81678H18.7466C17.7273 7.23772 14.8423 5.37403 11.8804 5.37403C8.03376 5.37403 5.14879 8.19781 5.14879 11.9629C5.14879 17.4033 11.188 22.7685 20.343 30.8822L20.5353 31.0704Z" fill="url(#paint0_linear)"/>
<defs>
<linearGradient id="paint0_linear" x1="39.5259" y1="14.4023" x2="0.965008" y2="14.6686" gradientUnits="userSpaceOnUse">
<stop offset="0.4375" stop-color="#12CAD6"/>
<stop offset="1" stop-color="#12B3D6"/>
</linearGradient>
</defs>
</svg>
