<svg width="152" height="173" viewBox="0 0 152 173" fill="none" xmlns="http://www.w3.org/2000/svg">
<path d="M128.315 64.7716C126.831 61.5125 125.346 58.2535 124.221 54.8716C122.396 49.3887 121.594 43.5746 121.799 37.7621C121.835 36.3299 123.706 35.826 124.39 37.0125C125.748 39.4318 127.097 41.8974 128.4 44.3541C129.674 46.7095 130.893 49.1021 131.947 51.6069C135.925 60.8612 137.62 71.0197 138.316 81.1304C138.492 83.7066 139.043 86.8342 138.6 89.3873C136.621 85.4576 135.312 81.0332 133.646 76.9718C131.897 72.8463 130.129 68.8134 128.315 64.7716Z" fill="#F9F2F2"/>
<path d="M122.733 68.112C126.255 75.7438 128.655 83.9754 128.748 92.4832C128.784 94.7925 128.626 97.1125 128.468 99.4326C128.312 101.993 128.147 104.599 127.945 107.151C127.178 105.9 126.843 104.397 126.398 102.968C125.061 98.4423 122.637 94.3313 120.508 90.181C116.213 81.8253 112.838 72.9268 110.578 63.7149C109.95 61.2438 109.414 58.7905 109.136 56.2428C108.89 54.2769 108.175 50.2544 109.205 48.3897C110.655 45.8381 112.872 50.7729 113.536 51.8118C115.126 54.2755 116.706 56.7856 118.185 59.3241C119.833 62.2308 121.343 65.1109 122.733 68.112Z" fill="#F9F2F2"/>
<path d="M100.106 26.3518C93.1573 22.5709 85.663 19.8842 77.9695 17.7349C82.1494 20.6963 86.3844 23.6203 90.2992 26.9624C92.7353 29.0132 95.0433 31.2313 97.5346 33.2448C100.147 35.3774 103.006 37.2217 105.956 38.8437C107.821 39.8734 109.805 40.7821 111.915 41.2833C113.424 41.6691 116.801 42.3177 118.085 41.1254C116.204 37.9341 112.756 35.1611 109.884 32.8827C106.908 30.3925 103.584 28.2192 100.106 26.3518Z" fill="#F9F2F2"/>
<path d="M76.7707 33.9574C69.4831 32.9413 61.936 33.0266 54.6989 34.9941C58.9548 35.8116 63.2195 36.5828 67.4754 37.4003C70.7599 38.0312 74.0532 38.6158 77.2203 39.6079C80.0724 40.4915 82.7699 41.6811 85.5313 42.7872C88.9138 44.1564 92.2589 45.4704 95.7231 46.6635C98.8173 47.7854 102.022 48.8327 105.359 49.186C106.395 49.2889 109.448 49.8754 110.32 49.0835C111.752 47.8716 109.165 46.6072 108.357 46.0683C102.422 42.0024 95.8851 38.8281 88.9673 36.6359C84.9764 35.4377 80.9322 34.5169 76.7707 33.9574Z" fill="#F9F2F2"/>
<path d="M83.6159 51.0053C76.9331 49.3379 70.1222 47.8378 63.2102 47.6134C55.1524 47.3607 47.1448 48.8445 39.1461 50.282C52.0115 52.2256 64.1695 57.1031 76.8305 60.1106C81.1434 61.1309 85.5469 61.9288 90.0161 61.636C92.4446 61.4789 94.8427 60.9803 97.2017 60.1862C99.413 59.4118 101.244 58.3724 98.7078 56.5903C94.3892 53.6023 88.6423 52.3065 83.6159 51.0053Z" fill="#F9F2F2"/>
<path d="M111.893 110.83C107.615 101.134 103.356 91.3465 100.994 80.916C100.066 76.7565 99.4338 72.5579 98.8102 68.313C98.2846 64.8064 97.7856 61.1611 98.8221 57.7627C101.1 60.8863 102.403 64.5902 103.872 68.182C107.09 75.8992 111.367 83.1002 113.765 91.0916C114.988 95.2119 115.687 99.567 115.859 103.917C116 107.925 116.133 113.227 114.637 117.017C113.552 115.178 112.795 112.874 111.893 110.83Z" fill="#F9F2F2"/>
<path d="M97.8671 101.421C97.9871 105.042 97.9132 108.673 97.793 112.295C97.6075 118.255 97.2832 124.189 96.8575 130.151C96.8327 130.53 96.2883 130.617 96.1743 130.212C95.4067 126.467 93.8367 122.903 92.4607 119.329C87.8215 107.022 85.89 93.6044 86.8229 80.2571C87.0304 77.1791 87.4318 74.0905 88.472 71.1724C88.9147 69.8665 89.4107 68.2829 90.4839 69.6882C91.2865 70.7537 91.7441 72.6164 92.2248 73.8599C94.3645 79.4513 95.9243 85.315 96.8935 91.2571C97.3995 94.616 97.7578 97.9945 97.8671 101.421Z" fill="#F9F2F2"/>
<path d="M58.6511 68.6101C48.0691 70.5107 37.5978 73.5838 26.9641 74.755C35.3319 76.89 44.0943 77.4698 52.8156 77.5142C64.0776 77.5669 75.5725 76.657 86.193 72.5573C87.6945 71.9823 91.6919 70.3998 88.6795 69.1017C86.5479 68.2126 83.977 67.8626 81.6836 67.566C76.8744 66.8821 71.9231 66.9383 67.0306 67.4376C64.289 67.7264 61.4745 68.1451 58.6511 68.6101Z" fill="#F9F2F2"/>
<path d="M55.9362 80.9917C43.5535 81.779 31.0232 82.5859 18.9934 86.0312C23.4254 86.9305 27.8112 87.8209 32.2522 88.6739C35.0651 89.2622 37.9332 89.8131 40.7906 90.1701C48.5674 91.1362 56.5912 90.5669 64.2802 88.4943C68.171 87.4669 71.9478 86.0339 75.6017 84.2415C76.9271 83.5847 78.98 82.636 77.0209 81.3483C75.5262 80.3897 72.7472 80.6233 71.0374 80.5347C66.0291 80.3882 60.9871 80.6668 55.9362 80.9917Z" fill="#F9F2F2"/>
<path d="M10.2578 98.5511C20.9187 99.7355 31.5796 100.92 42.3309 100.635C47.7341 100.473 53.1621 99.9331 58.3889 98.4428C61.0717 97.711 63.669 96.6749 66.1257 95.3721C66.6594 95.0909 69.0077 94.1029 68.7886 93.2454C68.5803 92.5818 65.7373 92.8992 65.0719 92.8673C53.3474 92.7257 41.5624 93.1482 29.888 94.7431C23.2342 95.6714 16.7122 96.9129 10.2578 98.5511Z" fill="#F9F2F2"/>
<path d="M11.2676 119.515C20.7288 118.454 30.199 117.347 39.4749 115.004C44.1128 113.832 48.7294 112.272 52.9526 110.014C55.0962 108.843 57.1828 107.469 59.0737 105.865C59.4686 105.557 61.3524 104.24 60.9591 103.541C60.6316 102.999 58.2637 103.839 57.6642 103.964C47.4631 106.129 37.3581 108.793 27.547 112.425C21.9733 114.472 16.5315 116.832 11.2676 119.515Z" fill="#F9F2F2"/>
<path d="M80.4103 87.1796C81.2291 89.1596 82.0853 91.1947 82.9042 93.1748C83.8636 95.4216 84.7679 97.7058 85.5708 100.019C89.3344 111.39 88.8194 123.81 88.0339 135.891C85.6631 131.502 84.4985 126.578 83.0118 121.831C81.0409 115.361 78.4989 109.117 76.8874 102.524C75.81 98.1437 75.1561 93.5572 75.3615 88.9919C75.4145 87.4671 75.2127 84.0227 76.8689 83.1417C78.8382 82.129 79.846 85.872 80.4103 87.1796Z" fill="#F9F2F2"/>
<path d="M69.9615 95.6291C77.2204 112.277 80.8343 130.67 80.4025 149.15C77.3284 142.18 74.8431 134.892 72.7546 127.536C70.723 120.382 69.0419 113.152 68.2646 105.712C67.9669 103.016 67.7795 100.246 67.7308 97.503C67.7164 96.8287 67.3262 94.1156 67.8777 93.7419C68.824 93.0602 69.698 95.0029 69.9615 95.6291Z" fill="#F9F2F2"/>
<path d="M61.8024 106.149C63.27 121.732 61.2862 137.804 56.1068 152.782C55.4934 146.237 55.4243 139.604 55.6791 133.033C55.9446 126.657 56.5054 120.241 57.8063 113.968C58.2969 111.664 58.8799 109.377 59.5555 107.109C59.7084 106.563 60.1064 104.241 60.6223 104.052C61.5439 103.749 61.7239 105.559 61.8024 106.149Z" fill="#F9F2F2"/>
<path d="M49.6087 119.684C51.871 115.898 54.5603 112.385 57.0734 108.79C59.7609 105.038 62.3932 101.322 65.0718 97.6157C70.42 90.2489 75.8342 83.0386 81.9636 76.3495C93.7458 63.4553 105.834 50.7158 118.463 38.6558C125.801 31.671 133.501 25.0438 141.547 18.8667C142.557 18.1014 143.613 19.5992 142.649 20.3734C128.754 31.279 116.025 43.6077 103.752 56.3116C91.5338 68.9782 79.3245 81.5986 68.9108 95.8589C65.985 99.8537 63.0591 103.848 60.1333 107.843C57.0794 112.005 54.1288 116.379 50.6941 120.276C50.237 120.908 49.189 120.371 49.6087 119.684Z" fill="#F9F2F2"/>
<path d="M37.656 156.193C36.6155 149.374 38.6867 142.337 41.5942 135.94C42.9297 132.983 44.4787 130.163 45.9441 127.278C46.6999 125.841 47.4557 124.403 48.1653 122.956C48.8108 121.593 49.3424 119.825 50.2388 118.654C51.5929 119.346 50.5888 124.573 50.4699 125.941C50.2036 128.576 49.7523 131.175 49.0697 133.73C47.7329 138.942 45.6471 144.057 42.9296 148.716C41.4161 151.351 39.6428 153.84 37.656 156.193Z" fill="#F9F2F2"/>
<path d="M15.0234 136.161C21.8803 136.423 28.5835 133.489 34.5695 129.795C37.2912 128.111 39.9559 126.225 42.6118 124.384C43.9353 123.487 45.2676 122.544 46.6374 121.656C47.8968 120.843 49.6189 120.118 50.6363 119.066C49.7767 117.798 44.7635 119.425 43.4078 119.741C40.8531 120.305 38.3465 121.119 35.8683 122.034C30.8391 123.994 26.1019 126.681 21.7668 130.022C19.3511 131.86 17.085 133.919 15.0234 136.161Z" fill="#F9F2F2"/>
</svg>
