<svg width="205" height="150" viewBox="0 0 205 150" fill="none" xmlns="http://www.w3.org/2000/svg">
<path d="M164.906 114.133C164.374 118.116 163.843 122.098 163.738 126.095C163.567 132.576 164.601 139.079 166.717 145.252C167.221 146.778 169.395 146.708 169.742 145.212C170.411 142.172 171.055 139.085 171.653 136.023C172.253 133.079 172.782 130.114 173.096 127.081C174.35 115.85 172.857 104.393 170.308 93.3121C169.657 90.489 169.229 86.9521 167.921 84.3556C167.078 89.2193 167.115 94.3955 166.651 99.2985C166.118 104.298 165.535 109.203 164.906 114.133Z" fill="#F9F2F2"/>
<path d="M157.821 112.367C159.114 103.026 159.007 93.4073 156.333 84.2442C155.618 81.7534 154.693 79.3144 153.767 76.8754C152.765 74.1779 151.738 71.4336 150.689 68.7608C150.273 70.3533 150.404 72.0762 150.392 73.7549C150.432 79.0492 149.17 84.2526 148.238 89.4019C146.352 99.7717 145.63 110.424 146.207 121.05C146.338 123.908 146.562 126.716 147.094 129.541C147.471 131.732 148.016 136.283 149.729 137.949C152.117 140.215 152.889 134.195 153.263 132.863C154.166 129.7 155.044 126.491 155.804 123.283C156.626 119.626 157.307 116.042 157.821 112.367Z" fill="#F9F2F2"/>
<path d="M147.145 164.573C140.919 170.897 133.75 176.225 126.192 181.04C129.713 176.499 133.306 171.979 136.419 167.115C138.366 164.119 140.12 160.986 142.138 158.012C144.247 154.871 146.715 151.959 149.353 149.256C151.019 147.543 152.853 145.921 154.955 144.695C156.449 143.789 159.862 141.991 161.629 142.852C160.65 146.892 157.853 150.993 155.512 154.375C153.13 158.018 150.271 161.435 147.145 164.573Z" fill="#F9F2F2"/>
<path d="M119.617 164.016C112.125 167.483 103.995 169.852 95.585 170.099C99.8871 167.834 104.214 165.616 108.516 163.351C111.836 161.603 115.181 159.902 118.257 157.804C121.031 155.926 123.538 153.769 126.142 151.682C129.327 149.109 132.489 146.608 135.819 144.198C138.775 141.985 141.873 139.816 145.341 138.348C146.419 137.9 149.505 136.275 150.699 136.841C152.631 137.675 150.266 139.876 149.575 140.718C144.53 147.017 138.547 152.556 131.836 157.165C127.943 159.752 123.901 162.059 119.617 164.016Z" fill="#F9F2F2"/>
<path d="M121.408 143.484C114.778 147.452 107.956 151.283 100.609 153.777C92.0416 156.676 82.9619 157.693 73.9068 158.758C87.0839 152.477 98.5449 143.278 111.156 135.921C115.453 133.42 119.92 131.128 124.813 129.985C127.471 129.362 130.208 129.116 132.999 129.199C135.625 129.309 137.929 129.828 135.788 132.568C132.126 137.183 126.38 140.448 121.408 143.484Z" fill="#F9F2F2"/>
<path d="M132.255 70.0458C130.824 81.8481 129.443 93.7439 130.309 105.711C130.669 110.478 131.358 115.192 132.073 119.952C132.652 123.887 133.305 127.963 135.525 131.273C136.952 127.178 137.144 122.777 137.549 118.442C138.488 109.109 140.731 99.9842 140.701 90.6238C140.67 85.802 140 80.8991 138.766 76.1736C137.611 71.8246 136.025 66.0899 133.185 62.5091C132.619 64.8376 132.558 67.5573 132.255 70.0458Z" fill="#F9F2F2"/>
<path d="M120.272 84.717C119.22 80.7913 117.957 76.9173 116.647 73.068C114.505 66.7304 112.222 60.4666 109.821 54.2054C109.671 53.8066 109.058 53.8904 109.068 54.363C109.465 58.6333 108.942 62.9703 108.63 67.2555C107.662 81.9793 109.963 97.0128 115.316 111.037C116.542 114.273 117.98 117.458 120.048 120.251C120.949 121.509 121.998 123.047 122.692 121.189C123.206 119.783 123.09 117.634 123.2 116.143C123.674 109.443 123.437 102.64 122.54 95.9452C121.988 92.1745 121.272 88.431 120.272 84.717Z" fill="#F9F2F2"/>
<path d="M88.8681 132.725C76.8891 134.134 64.6464 134.249 52.8496 136.459C61.1362 131.439 70.3533 127.96 79.701 125.069C91.7733 121.341 104.409 118.57 117.147 119.508C118.946 119.636 123.753 120.032 120.943 122.407C118.944 124.057 116.299 125.27 113.933 126.337C108.994 128.639 103.66 130.192 98.2456 131.252C95.2084 131.835 92.0506 132.303 88.8681 132.725Z" fill="#F9F2F2"/>
<path d="M81.9178 120.318C68.3686 123.51 54.6545 126.729 40.6176 126.953C45.0821 124.542 49.4999 122.157 53.989 119.793C56.8168 118.245 59.716 116.718 62.667 115.403C70.7003 111.831 79.4992 109.826 88.4289 109.544C92.9405 109.379 97.462 109.686 101.969 110.418C103.606 110.691 106.119 111.04 104.435 113.061C103.143 114.578 100.084 115.233 98.2776 115.885C92.9491 117.676 87.4457 119.02 81.9178 120.318Z" fill="#F9F2F2"/>
<path d="M27.1582 116.361C38.2163 111.614 49.2743 106.867 60.9086 103.668C66.7614 102.08 72.7644 100.89 78.8611 100.786C81.9796 100.697 85.1055 100.962 88.1675 101.56C88.8321 101.688 91.675 101.982 91.7194 102.974C91.7121 103.755 88.5568 104.341 87.8529 104.592C75.313 108.566 62.5244 111.955 49.4723 114.049C42.0269 115.222 34.6209 116.015 27.1582 116.361Z" fill="#F9F2F2"/>
<path d="M21.4082 93.528C31.9104 91.582 42.4372 89.6828 53.1587 89.1743C58.5195 88.92 63.9836 89.089 69.2535 90.1368C71.9364 90.6951 74.6243 91.4897 77.1769 92.5945C77.7012 92.7963 80.1528 93.5958 79.9584 94.4746C79.7838 95.1638 76.968 95.0337 76.2838 95.0953C64.6271 96.0963 52.9112 96.5312 41.1952 95.8314C34.5446 95.4509 27.9334 94.6913 21.4082 93.528Z" fill="#F9F2F2"/>
<path d="M106.174 105.697C106.407 103.304 106.663 100.841 106.896 98.4482C107.194 95.7235 107.42 92.9766 107.528 90.2322C107.861 76.7982 103.258 63.6332 98.4766 50.9211C97.3624 56.4051 97.7177 62.0711 97.6693 67.6509C97.663 75.2392 96.97 82.7709 97.3895 90.3739C97.661 95.427 98.4543 100.564 100.163 105.397C100.717 107.017 101.623 110.78 103.689 111.186C106.133 111.631 105.994 107.284 106.174 105.697Z" fill="#F9F2F2"/>
<path d="M92.2017 100.033C94.5666 79.7956 92.4493 58.8721 85.9609 39.175C84.9333 47.6594 84.6416 56.2938 84.7979 64.8715C84.9493 73.2129 85.5018 81.5223 87.093 89.7626C87.6522 92.753 88.3541 95.7877 89.1963 98.7486C89.4007 99.4771 89.8663 102.517 90.5801 102.738C91.8182 103.161 92.1231 100.791 92.2017 100.033Z" fill="#F9F2F2"/>
<path d="M80.0117 91.4004C76.5067 74.1937 69.1375 57.5882 58.6945 43.1983C60.1699 50.4246 62.2581 57.567 64.6737 64.5372C67.0376 71.2957 69.7312 77.9999 73.1731 84.3103C74.4508 86.6237 75.8221 88.888 77.2869 91.103C77.6291 91.6395 78.8134 94.0022 79.4287 94.0366C80.5166 94.061 80.1201 92.06 80.0117 91.4004Z" fill="#F9F2F2"/>
<path d="M62.51 80.8462C66.1729 84.1734 70.205 87.0673 74.0746 90.1065C78.183 93.2589 82.2201 96.3891 86.3039 99.4947C94.4468 105.659 102.609 111.634 111.37 116.816C128.222 126.817 145.352 136.551 162.841 145.38C172.994 150.486 183.421 155.09 194.072 159.098C195.406 159.59 196.051 157.638 194.763 157.121C176.292 149.944 158.609 140.859 141.292 131.223C124.047 121.609 106.826 112.042 90.9977 100.129C86.5545 96.7946 82.1113 93.4602 77.6682 90.1257C73.033 86.6534 68.4396 82.9202 63.482 79.8566C62.7854 79.3275 61.8355 80.2457 62.51 80.8462Z" fill="#F9F2F2"/>
<path d="M37.7753 45.552C38.8815 53.2115 43.399 60.0903 48.6056 66.009C51.0033 68.7481 53.5856 71.2706 56.099 73.8891C57.3791 75.186 58.6592 76.483 59.8925 77.8045C61.0298 79.0572 62.177 80.7824 63.5211 81.7471C64.7491 80.563 61.967 75.2789 61.3933 73.849C60.2484 71.1072 58.9165 68.4639 57.3507 65.9438C54.2167 60.7853 50.3099 55.9739 45.8739 51.8592C43.3901 49.5238 40.675 47.4296 37.7753 45.552Z" fill="#F9F2F2"/>
<path d="M20.0137 74.4333C27.289 71.9168 35.4411 72.8804 43.0715 74.8952C46.5421 75.8152 50.0176 76.9715 53.4686 78.0811C55.1818 78.6125 56.9195 79.1906 58.6795 79.6974C60.2966 80.1599 62.3814 80.3762 63.8165 81.1735C63.3072 82.8153 57.3951 82.7029 55.8371 82.8065C52.9106 83.0334 49.9545 82.9772 46.996 82.8028C40.9583 82.3385 34.9967 80.998 29.2541 78.8254C26.0616 77.6395 22.9577 76.1681 20.0137 74.4333Z" fill="#F9F2F2"/>
</svg>
