<svg width="176" height="164" viewBox="0 0 176 164" fill="none" xmlns="http://www.w3.org/2000/svg">
<path d="M170.277 106.965C170.373 110.981 170.469 114.998 170.988 118.963C171.83 125.391 173.865 131.653 176.917 137.42C177.653 138.849 179.789 138.441 179.899 136.909C180.086 133.802 180.241 130.653 180.354 127.535C180.488 124.534 180.548 121.522 180.386 118.477C179.873 107.188 176.612 96.1034 172.367 85.5558C171.284 82.8686 170.309 79.4418 168.613 77.0809C168.538 82.0166 169.382 87.1236 169.688 92.0391C169.941 97.0602 170.13 101.997 170.277 106.965Z" fill="#F9F2F2"/>
<path d="M163.005 106.324C162.827 96.896 161.221 87.4115 157.151 78.7773C156.057 76.4283 154.763 74.1634 153.468 71.8985C152.058 69.3903 150.615 66.8396 149.163 64.363C149 66.0009 149.398 67.6824 149.648 69.3423C150.513 74.5657 150.078 79.9022 149.96 85.1338C149.713 95.6709 150.66 106.306 152.887 116.712C153.462 119.514 154.122 122.253 155.088 124.961C155.801 127.066 157.049 131.476 159.001 132.855C161.713 134.721 161.537 128.654 161.699 127.28C162.097 124.015 162.464 120.708 162.715 117.422C162.957 113.681 163.071 110.034 163.005 106.324Z" fill="#F9F2F2"/>
<path d="M160.597 159.557C155.433 166.774 149.182 173.154 142.467 179.089C145.238 174.054 148.082 169.029 150.398 163.739C151.854 160.477 153.099 157.108 154.628 153.856C156.222 150.425 158.206 147.164 160.39 144.083C161.769 142.131 163.327 140.242 165.212 138.703C166.546 137.576 169.638 135.268 171.518 135.843C171.181 139.986 169.056 144.473 167.272 148.179C165.487 152.148 163.195 155.969 160.597 159.557Z" fill="#F9F2F2"/>
<path d="M133.319 163.298C126.459 167.89 118.799 171.498 110.53 173.053C114.426 170.145 118.354 167.279 122.25 164.371C125.257 162.127 128.296 159.925 131.008 157.374C133.455 155.086 135.595 152.565 137.842 150.097C140.587 147.059 143.32 144.096 146.234 141.196C148.808 138.549 151.531 135.924 154.728 133.934C155.722 133.323 158.518 131.237 159.785 131.61C161.824 132.132 159.831 134.675 159.279 135.614C155.278 142.623 150.232 149.027 144.321 154.625C140.879 157.788 137.246 160.697 133.319 163.298Z" fill="#F9F2F2"/>
<path d="M131.887 142.737C125.956 147.691 119.815 152.538 112.947 156.148C104.936 160.346 96.1259 162.767 87.3475 165.23C99.3843 156.972 109.271 146.098 120.581 136.866C124.435 133.725 128.49 130.765 133.145 128.873C135.674 127.843 138.339 127.173 141.109 126.82C143.72 126.52 146.077 126.673 144.389 129.713C141.492 134.843 136.324 138.964 131.887 142.737Z" fill="#F9F2F2"/>
<path d="M131.153 68.5062C131.58 80.3872 132.07 92.353 134.79 104.039C135.889 108.692 137.305 113.24 138.753 117.83C139.939 121.628 141.219 125.552 143.929 128.475C144.7 124.207 144.202 119.83 143.927 115.486C143.4 106.12 144.193 96.7571 142.703 87.516C141.922 82.7579 140.495 78.0194 138.54 73.544C136.721 69.4282 134.261 64.0109 130.896 60.9167C130.7 63.305 131.064 66.001 131.153 68.5062Z" fill="#F9F2F2"/>
<path d="M121.603 84.8662C119.952 81.1525 118.1 77.5228 116.206 73.9248C113.102 67.9986 109.871 62.1673 106.524 56.3569C106.313 55.9864 105.721 56.1647 105.804 56.63C106.862 60.7863 107.021 65.1518 107.381 69.4333C108.72 84.1279 113.337 98.6188 120.811 111.637C122.527 114.642 124.443 117.564 126.921 120.001C128.008 121.103 129.283 122.459 129.679 120.515C129.968 119.046 129.518 116.942 129.395 115.451C128.819 108.759 127.524 102.077 125.594 95.6035C124.461 91.965 123.169 88.379 121.603 84.8662Z" fill="#F9F2F2"/>
<path d="M98.0681 137.183C86.4553 140.443 74.3802 142.465 63.0721 146.487C70.4748 140.236 79.0369 135.363 87.8196 131.05C99.163 125.485 111.213 120.778 123.941 119.719C125.738 119.565 130.548 119.206 128.142 121.991C126.425 123.932 124.001 125.543 121.831 126.965C117.311 130.009 112.285 132.375 107.101 134.266C104.192 135.316 101.146 136.271 98.0681 137.183Z" fill="#F9F2F2"/>
<path d="M89.2694 126.012C76.3835 131.277 63.339 136.594 49.5085 139.003C53.5427 135.926 57.5345 132.881 61.6003 129.847C64.1521 127.876 66.7779 125.917 69.4878 124.158C76.8659 119.377 85.2447 116.025 94.0213 114.354C98.4519 113.487 102.966 113.085 107.532 113.107C109.191 113.121 111.728 113.074 110.38 115.333C109.341 117.032 106.421 118.156 104.738 119.083C99.7539 121.681 94.5275 123.868 89.2694 126.012Z" fill="#F9F2F2"/>
<path d="M34.5625 130.639C44.7453 124.226 54.9281 117.814 65.9214 112.84C71.455 110.359 77.1992 108.248 83.2051 107.194C86.2716 106.62 89.4006 106.395 92.5184 106.508C93.1947 106.531 96.0488 106.379 96.2474 107.352C96.3618 108.123 93.3365 109.194 92.6803 109.552C80.9134 115.433 68.8094 120.774 56.2433 124.877C49.0718 127.196 41.8801 129.135 34.5625 130.639Z" fill="#F9F2F2"/>
<path d="M25.3223 108.982C35.3927 105.423 45.4947 101.906 56.0058 99.7319C61.2614 98.645 66.6851 97.9601 72.0539 98.1735C74.7911 98.3068 77.57 98.6726 80.2635 99.3659C80.8129 99.4835 83.3591 99.8911 83.3042 100.789C83.2391 101.497 80.4375 101.808 79.7712 101.975C68.4131 104.781 56.9083 107.037 45.2264 108.173C38.5978 108.834 31.949 109.114 25.3223 108.982Z" fill="#F9F2F2"/>
<path d="M110.948 107.788C110.806 105.388 110.674 102.914 110.532 100.515C110.401 97.777 110.196 95.0285 109.875 92.3008C108.109 78.9792 101.511 66.6927 94.8056 54.8815C94.56 60.4721 95.7942 66.0134 96.6163 71.5326C97.793 79.029 98.2827 86.5768 99.8824 94.0214C100.938 98.9703 102.523 103.921 104.964 108.429C105.764 109.942 107.246 113.518 109.349 113.597C111.833 113.656 111.018 109.384 110.948 107.788Z" fill="#F9F2F2"/>
<path d="M96.2633 104.371C95.4443 84.0125 90.091 63.6749 80.6111 45.2302C80.9188 53.771 81.9768 62.3453 83.4684 70.7938C84.9183 79.0096 86.7595 87.1312 89.6159 95.0227C90.6344 97.8894 91.8009 100.778 93.0944 103.571C93.4098 104.259 94.3436 107.189 95.0832 107.296C96.3722 107.521 96.3038 105.132 96.2633 104.371Z" fill="#F9F2F2"/>
<path d="M82.8781 97.7443C76.7336 81.2944 66.8658 66.0408 54.3071 53.4549C56.8909 60.3628 60.0672 67.0924 63.5398 73.6007C66.9284 79.908 70.6343 86.1104 75.0178 91.807C76.6406 93.893 78.3481 95.9157 80.1404 97.8753C80.562 98.3519 82.1001 100.501 82.7133 100.439C83.7917 100.294 83.088 98.3789 82.8781 97.7443Z" fill="#F9F2F2"/>
<path d="M63.9438 90.0478C68.0806 92.7632 72.5146 94.9932 76.8107 97.3919C81.3603 99.8653 85.836 102.328 90.354 104.759C99.3584 109.578 108.353 114.208 117.814 117.961C136.019 125.212 154.457 132.157 173.108 138.151C183.934 141.612 194.951 144.534 206.096 146.832C207.491 147.11 207.823 145.082 206.471 144.772C187.107 140.562 168.224 134.345 149.616 127.527C131.083 120.719 112.581 113.953 95.0894 104.654C90.1807 102.053 85.272 99.4517 80.3633 96.8507C75.2435 94.1435 70.1243 91.172 64.7497 88.9187C63.9791 88.5047 63.1839 89.5598 63.9438 90.0478Z" fill="#F9F2F2"/>
<path d="M34.0104 59.041C36.2972 66.4344 41.8319 72.5248 47.8975 77.5595C50.6929 79.8913 53.6369 81.9804 56.5278 84.1751C57.9944 85.2566 59.461 86.3381 60.8853 87.4512C62.204 88.5112 63.6061 90.0365 65.0841 90.7799C66.1125 89.4188 62.5407 84.6331 61.7511 83.31C60.1927 80.7803 58.465 78.377 56.5255 76.1317C52.6256 71.5249 48.0164 67.3814 42.9933 64.0086C40.1758 62.0889 37.1673 60.4436 34.0104 59.041Z" fill="#F9F2F2"/>
<path d="M20.9688 90.3382C27.7628 86.7183 35.9654 86.3993 43.8166 87.1998C47.3882 87.5675 51.0016 88.1679 54.5833 88.7259C56.3584 88.9837 58.165 89.2839 59.9824 89.5101C61.6519 89.7148 63.7449 89.6035 65.2868 90.1673C65.0397 91.8683 59.1823 92.679 57.6595 93.0243C54.8042 93.7046 51.8755 94.1099 48.9259 94.399C42.8897 94.8816 36.792 94.4868 30.781 93.2361C27.4426 92.5624 24.1472 91.5929 20.9688 90.3382Z" fill="#F9F2F2"/>
</svg>
