<svg width="304" height="160" viewBox="0 0 304 160" fill="none" xmlns="http://www.w3.org/2000/svg">
<g opacity="0.86">
<path d="M75.7661 -8.48256C71.0827 0.860226 67.94 11.1677 67.757 22.0997C70.8284 16.7681 73.8342 11.3987 76.9057 6.06712C79.276 1.95252 81.5808 -2.19986 84.4424 -5.95425C87.0047 -9.34075 89.9594 -12.3469 92.8163 -15.4865C96.3374 -19.3241 99.7595 -23.1416 103.052 -27.1883C106.077 -30.7714 109.037 -34.5459 111.014 -38.8872C111.617 -40.2377 113.821 -44.0626 113.01 -45.6875C111.811 -48.3076 108.792 -45.4929 107.633 -44.6941C98.9585 -38.8855 91.3607 -31.762 85.0722 -23.5754C81.5441 -18.8156 78.4094 -13.8292 75.7661 -8.48256Z" fill="#F9F2F2"/>
<path d="M104.321 -8.3174C98.9225 -0.158661 93.7192 8.26712 90.3869 17.5392C86.5156 28.3532 85.2725 40.0638 83.9639 51.7366C92.4567 35.3262 105.047 21.5078 115.048 5.96641C118.449 0.67004 121.555 -4.87319 123.052 -11.1116C123.869 -14.5004 124.159 -18.0377 123.99 -21.6859C123.786 -25.1224 123.019 -28.1884 119.245 -25.7314C112.888 -21.5205 108.453 -14.4277 104.321 -8.3174Z" fill="#F9F2F2"/>
<path d="M206.374 -13.5146C189.968 -13.0866 173.43 -12.734 156.75 -15.3192C150.105 -16.3689 143.528 -17.8419 136.886 -19.3526C131.395 -20.5864 125.707 -21.9335 121.055 -25.2308C126.731 -26.5921 132.855 -26.3057 138.883 -26.3066C151.862 -26.3941 164.524 -28.2073 177.559 -27.0275C184.273 -26.4011 191.113 -24.9307 197.717 -22.7472C203.795 -20.7123 211.81 -17.9471 216.851 -13.8083C213.62 -13.3544 209.834 -13.6058 206.374 -13.5146Z" fill="#F9F2F2"/>
<path d="M186.175 0.319753C191.661 2.16827 197.08 4.28637 202.465 6.46242C211.331 10.0262 220.097 13.7639 228.861 17.6552C229.419 17.8995 229.314 18.6881 228.656 18.6177C222.702 17.5805 216.673 17.735 210.712 17.6199C190.229 17.0887 169.251 12.2593 149.621 3.57494C145.091 1.58268 140.628 -0.679163 136.699 -3.71456C134.931 -5.04206 132.769 -6.59627 135.343 -7.27437C137.29 -7.77349 140.285 -7.36072 142.36 -7.32322C151.68 -7.12548 161.157 -5.988 170.496 -4.00397C175.757 -2.8256 180.984 -1.43558 186.175 0.319753Z" fill="#F9F2F2"/>
<path d="M119.93 35.4052C118.197 50.8472 118.272 66.7903 115.421 81.8973C122.252 71.7077 126.92 60.1176 130.766 48.2857C135.726 33.0045 139.342 16.8719 137.791 0.155558C137.578 -2.20514 136.935 -8.51881 133.681 -5.1448C131.423 -2.74093 129.784 0.559778 128.344 3.51279C125.234 9.67076 123.172 16.4333 121.801 23.362C121.047 27.2496 120.456 31.3085 119.93 35.4052Z" fill="#F9F2F2"/>
<path d="M137.337 45.9758C133.152 63.2472 128.933 80.7303 128.891 98.9989C132.162 93.4733 135.399 88.0056 138.604 82.4422C140.706 78.9449 142.776 75.3519 144.55 71.6657C149.37 61.63 151.993 50.4055 152.214 38.8009C152.358 32.9406 151.844 27.0098 150.737 21.0465C150.325 18.8798 149.791 15.5617 147.009 17.5097C144.923 19.009 144.069 22.9168 143.195 25.192C140.805 31.9193 139.038 38.9287 137.337 45.9758Z" fill="#F9F2F2"/>
<path d="M143.898 117.831C150.296 103.996 156.694 90.1605 160.925 75.3858C163.025 67.9506 164.566 60.2711 164.594 52.3374C164.659 48.2835 164.229 44.1769 163.338 40.1131C163.147 39.2314 162.682 35.49 161.3 35.3113C160.214 35.2258 159.458 39.2671 159.122 40.154C153.828 56.0147 149.355 72.2709 146.69 89.0281C145.2 98.5897 144.237 108.146 143.898 117.831Z" fill="#F9F2F2"/>
<path d="M175.803 128.106C178.311 114.654 180.753 101.165 181.256 87.2521C181.507 80.2959 181.167 73.1533 179.607 66.157C178.778 62.5921 177.62 58.9919 176.033 55.5304C175.742 54.8225 174.581 51.5297 173.361 51.676C172.405 51.8198 172.64 55.5057 172.567 56.39C171.397 71.4616 171.016 86.6791 172.216 102.035C172.873 110.75 174.058 119.459 175.803 128.106Z" fill="#F9F2F2"/>
<path d="M157.231 16.1394C160.558 16.1263 163.984 16.0931 167.311 16.08C171.099 16.0241 174.92 16.0639 178.739 16.2573C197.439 17.459 215.859 25.0602 233.652 32.8403C226.037 33.6249 218.14 32.4721 210.372 31.8559C199.805 30.9403 189.331 30.9266 178.736 29.4542C171.695 28.4852 164.527 26.8259 157.763 24.0101C155.498 23.0908 150.24 21.4514 149.636 18.7103C148.969 15.4704 155.024 16.18 157.231 16.1394Z" fill="#F9F2F2"/>
<path d="M165.387 35.0425C193.521 34.4239 222.697 39.7308 250.249 50.5858C238.454 50.8923 226.437 50.2213 214.49 48.9733C202.872 47.7605 191.291 46.0288 179.786 42.9516C175.611 41.8587 171.372 40.5744 167.233 39.1162C166.215 38.7611 161.973 37.7842 161.651 36.8268C161.038 35.1615 164.333 35.0527 165.387 35.0425Z" fill="#F9F2F2"/>
<path d="M177.641 51.9792C201.667 58.6424 224.931 70.2689 245.169 85.6323C235.078 82.8295 225.093 79.2382 215.341 75.2412C205.885 71.3373 196.497 67.0102 187.645 61.7559C184.399 59.8088 181.219 57.7458 178.107 55.5669C177.353 55.0555 174.041 53.2244 173.981 52.4181C173.926 50.9972 176.72 51.7577 177.641 51.9792Z" fill="#F9F2F2"/>
<path d="M192.673 76.0757C187.97 70.8964 183.863 65.2886 179.556 59.8749C175.088 54.1362 170.652 48.4933 166.249 42.7924C157.509 31.4283 149.033 20.0617 141.649 8.0122C127.4 -15.1698 113.517 -38.682 100.887 -62.552C93.583 -76.408 86.9726 -90.5589 81.1873 -104.929C80.4765 -106.728 83.1821 -107.33 83.9263 -105.589C94.2744 -80.6408 107.264 -56.4861 121.014 -32.7421C134.731 -9.09393 148.384 14.5165 165.276 36.5972C170.004 42.7944 174.732 48.9915 179.461 55.1887C184.385 61.653 189.671 68.0945 194.032 74.9292C194.782 75.9016 193.522 77.0279 192.673 76.0757Z" fill="#F9F2F2"/>
<path d="M242.294 112.61C231.608 110.236 221.943 103.51 213.601 96.0034C209.741 92.5447 206.179 88.8719 202.485 85.2771C200.654 83.4508 198.824 81.6244 196.96 79.856C195.194 78.2211 192.769 76.5158 191.4 74.6466C193.026 73.1901 200.437 77.4595 202.439 78.3814C206.279 80.2074 209.985 82.2653 213.524 84.613C220.767 89.3258 227.542 95.0038 233.356 101.286C236.656 104.808 239.624 108.602 242.294 112.61Z" fill="#F9F2F2"/>
<path d="M202.418 132.245C205.783 123.068 204.284 112.326 201.332 102.135C199.985 97.4992 198.308 92.8283 196.697 88.1953C195.924 85.8977 195.085 83.5622 194.346 81.2067C193.671 79.0425 193.33 76.2989 192.192 74.3314C189.916 74.7953 190.186 82.5148 190.071 84.5329C189.812 88.3197 189.947 92.1795 190.246 96.0569C191.008 103.983 192.989 111.916 196.125 119.666C197.837 123.971 199.946 128.196 202.418 132.245Z" fill="#F9F2F2"/>
</g>
</svg>
