<svg width="229" height="206" viewBox="0 0 229 206" fill="none" xmlns="http://www.w3.org/2000/svg">
<g opacity="0.86">
<path d="M203.063 35.8295C201.223 31.7895 199.383 27.7494 197.988 23.557C195.726 16.7602 194.732 9.5528 194.986 2.34738C195.03 0.571939 197.35 -0.0527092 198.197 1.41817C199.881 4.41729 201.553 7.47374 203.168 10.5192C204.748 13.4389 206.259 16.405 207.566 19.5101C212.498 30.982 214.598 43.5749 215.461 56.1086C215.68 59.3021 216.362 63.1793 215.813 66.3443C213.36 61.4729 211.738 55.9881 209.672 50.9534C207.503 45.8393 205.312 40.8399 203.063 35.8295Z" fill="#F9F2F2"/>
<path d="M196.142 39.9706C200.509 49.4312 203.484 59.6354 203.599 70.1821C203.644 73.0448 203.448 75.9208 203.253 78.7969C203.059 81.9706 202.855 85.2017 202.604 88.3645C201.653 86.8142 201.238 84.9506 200.686 83.1797C199.029 77.5693 196.024 72.4731 193.385 67.3282C188.061 56.9701 183.877 45.9391 181.075 34.5196C180.296 31.4564 179.632 28.4151 179.287 25.2569C178.982 22.8199 178.097 17.8335 179.373 15.5218C181.17 12.3588 183.919 18.4762 184.742 19.764C186.712 22.8182 188.671 25.9298 190.505 29.0766C192.548 32.68 194.419 36.2503 196.142 39.9706Z" fill="#F9F2F2"/>
<path d="M168.094 -11.7972C159.48 -16.4842 150.19 -19.8147 140.653 -22.4791C145.834 -18.8081 151.084 -15.1834 155.937 -11.0403C158.957 -8.49801 161.818 -5.74837 164.906 -3.25242C168.145 -0.60873 171.689 1.67759 175.347 3.68821C177.658 4.96469 180.118 6.09117 182.734 6.71255C184.604 7.19074 188.79 7.99482 190.382 6.51679C188.05 2.56063 183.775 -0.876809 180.215 -3.70128C176.527 -6.78817 172.406 -9.48239 168.094 -11.7972Z" fill="#F9F2F2"/>
<path d="M139.166 -2.36905C130.132 -3.62862 120.777 -3.52292 111.805 -1.08388C117.081 -0.0705028 122.368 0.885526 127.644 1.8989C131.715 2.68097 135.798 3.4057 139.724 4.63551C143.259 5.73087 146.603 7.20561 150.027 8.57669C154.22 10.274 158.366 11.903 162.661 13.3819C166.496 14.7728 170.469 16.0709 174.606 16.5089C175.89 16.6366 179.675 17.3636 180.755 16.3819C182.53 14.8795 179.323 13.3121 178.322 12.6441C170.965 7.60391 162.861 3.66886 154.286 0.951349C149.339 -0.534078 144.325 -1.67544 139.166 -2.36905Z" fill="#F9F2F2"/>
<path d="M147.651 18.7642C139.367 16.6973 130.924 14.8377 122.356 14.5594C112.367 14.2462 102.44 16.0856 92.5247 17.8676C108.473 20.2769 123.545 26.3233 139.24 30.0516C144.586 31.3164 150.045 32.3055 155.585 31.9426C158.596 31.7478 161.569 31.1296 164.493 30.1453C167.234 29.1853 169.503 27.8968 166.36 25.6876C161.006 21.9835 153.882 20.3773 147.651 18.7642Z" fill="#F9F2F2"/>
<path d="M182.705 92.9254C177.403 80.9066 172.122 68.773 169.195 55.8428C168.045 50.6866 167.261 45.4818 166.488 40.2196C165.836 35.8727 165.218 31.3538 166.503 27.141C169.326 31.0133 170.942 35.6048 172.762 40.0573C176.752 49.6239 182.054 58.5506 185.027 68.457C186.543 73.5646 187.409 78.9635 187.622 84.3559C187.797 89.3249 187.962 95.8972 186.108 100.595C184.762 98.3152 183.824 95.4593 182.705 92.9254Z" fill="#F9F2F2"/>
<path d="M165.317 81.2619C165.466 85.7501 165.374 90.2515 165.225 94.7419C164.995 102.13 164.593 109.486 164.066 116.877C164.035 117.346 163.36 117.455 163.219 116.952C162.267 112.309 160.321 107.892 158.615 103.462C152.864 88.2053 150.47 71.572 151.626 55.026C151.884 51.2105 152.381 47.3816 153.671 43.7643C154.219 42.1453 154.834 40.1823 156.165 41.9244C157.16 43.2453 157.727 45.5543 158.323 47.0958C160.975 54.0271 162.909 61.296 164.11 68.6621C164.738 72.826 165.182 77.0141 165.317 81.2619Z" fill="#F9F2F2"/>
<path d="M116.704 40.5879C103.586 42.944 90.6051 46.7536 77.4231 48.2055C87.7962 50.852 98.6584 51.5708 109.47 51.6258C123.431 51.6911 137.68 50.5632 150.846 45.4811C152.707 44.7683 157.663 42.8065 153.928 41.1973C151.286 40.0951 148.099 39.6614 145.256 39.2937C139.294 38.4458 133.156 38.5156 127.091 39.1344C123.693 39.4925 120.204 40.0115 116.704 40.5879Z" fill="#F9F2F2"/>
<path d="M113.34 55.9369C97.9896 56.9128 82.4564 57.9131 67.5438 62.184C73.0379 63.2988 78.4747 64.4026 83.9799 65.46C87.4669 66.1893 91.0224 66.8722 94.5645 67.3147C104.205 68.5124 114.152 67.8067 123.683 65.2374C128.506 63.9638 133.188 62.1873 137.718 59.9654C139.361 59.1512 141.906 57.9751 139.477 56.3789C137.624 55.1905 134.179 55.4802 132.06 55.3704C125.851 55.1887 119.601 55.5341 113.34 55.9369Z" fill="#F9F2F2"/>
<path d="M56.7129 77.7041C69.9286 79.1723 83.1443 80.6405 96.472 80.2869C103.17 80.0869 109.899 79.4172 116.378 77.5698C119.704 76.6626 122.924 75.3783 125.969 73.7632C126.631 73.4146 129.542 72.1899 129.27 71.1269C129.012 70.3043 125.488 70.6976 124.663 70.6581C110.129 70.4827 95.5194 71.0063 81.0474 72.9834C72.799 74.1343 64.714 75.6733 56.7129 77.7041Z" fill="#F9F2F2"/>
<path d="M57.9648 103.691C69.6934 102.376 81.433 101.004 92.9318 98.0993C98.6813 96.6468 104.404 94.7136 109.639 91.9137C112.297 90.4619 114.883 88.7586 117.227 86.771C117.717 86.3893 120.052 84.7567 119.565 83.8901C119.159 83.2175 116.223 84.2591 115.48 84.4137C102.834 87.0983 90.3078 90.4005 78.1455 94.9024C71.2362 97.4402 64.4902 100.366 57.9648 103.691Z" fill="#F9F2F2"/>
<path d="M143.679 63.6074C144.694 66.0619 145.755 68.5848 146.77 71.0393C147.96 73.8246 149.081 76.6562 150.076 79.5231C154.741 93.6197 154.103 109.016 153.129 123.992C150.19 118.552 148.747 112.447 146.904 106.563C144.46 98.5424 141.309 90.8018 139.312 82.6286C137.976 77.199 137.165 71.5133 137.42 65.854C137.486 63.9638 137.236 59.694 139.289 58.6019C141.73 57.3464 142.979 61.9865 143.679 63.6074Z" fill="#F9F2F2"/>
<path d="M130.725 74.0819C139.723 94.719 144.203 117.521 143.668 140.429C139.857 131.789 136.776 122.754 134.187 113.635C131.669 104.767 129.585 95.8041 128.621 86.5809C128.252 83.2397 128.02 79.8058 127.959 76.4049C127.942 75.569 127.458 72.2057 128.141 71.7424C129.315 70.8975 130.398 73.3056 130.725 74.0819Z" fill="#F9F2F2"/>
<path d="M120.611 87.1231C122.43 106.441 119.971 126.364 113.551 144.931C112.79 136.817 112.704 128.595 113.02 120.45C113.349 112.545 114.045 104.592 115.657 96.8152C116.265 93.9589 116.988 91.1247 117.826 88.3125C118.015 87.6353 118.509 84.7571 119.148 84.5231C120.291 84.148 120.514 86.3909 120.611 87.1231Z" fill="#F9F2F2"/>
<path d="M105.496 103.901C108.3 99.2075 111.634 94.8531 114.749 90.3973C118.081 85.7452 121.344 81.1394 124.664 76.5446C131.294 67.4124 138.006 58.4742 145.604 50.1821C160.21 34.1978 175.195 18.4054 190.851 3.45528C199.947 -5.2033 209.493 -13.4187 219.466 -21.0761C220.719 -22.0248 222.027 -20.168 220.832 -19.2084C203.608 -5.68929 187.829 9.59385 172.614 25.3422C157.468 41.0443 142.333 56.689 129.423 74.3667C125.796 79.3189 122.169 84.271 118.543 89.2231C114.757 94.3826 111.099 99.8046 106.841 104.636C106.275 105.419 104.975 104.753 105.496 103.901Z" fill="#F9F2F2"/>
<path d="M90.6786 149.159C89.3887 140.706 91.9562 131.983 95.5605 124.053C97.216 120.387 99.1363 116.891 100.953 113.316C101.89 111.533 102.827 109.751 103.706 107.958C104.507 106.268 105.166 104.076 106.277 102.624C107.955 103.482 106.711 109.962 106.563 111.658C106.233 114.924 105.674 118.147 104.827 121.314C103.17 127.774 100.585 134.116 97.2159 139.89C95.3397 143.157 93.1415 146.243 90.6786 149.159Z" fill="#F9F2F2"/>
<path d="M62.6211 124.327C71.1212 124.652 79.4307 121.015 86.8512 116.435C90.2252 114.348 93.5285 112.009 96.8208 109.728C98.4615 108.616 100.113 107.447 101.811 106.346C103.372 105.338 105.507 104.44 106.768 103.136C105.703 101.564 99.4881 103.581 97.8076 103.972C94.6407 104.671 91.5333 105.68 88.4613 106.814C82.2269 109.244 76.3544 112.575 70.9805 116.716C67.9859 118.995 65.1767 121.548 62.6211 124.327Z" fill="#F9F2F2"/>
</g>
</svg>
