<svg width="21" height="29" viewBox="0 0 21 29" fill="none" xmlns="http://www.w3.org/2000/svg">
<path fill-rule="evenodd" clip-rule="evenodd" d="M10.5 0C4.71 0 0 4.60295 0 10.2614C0 16.3742 6.63 24.8032 9.36 28.0135C9.96 28.7172 11.055 28.7172 11.655 28.0135C14.37 24.8032 21 16.3742 21 10.2614C21 4.60295 16.29 0 10.5 0ZM10.4998 2.93181C12.1498 2.93181 13.4998 4.25113 13.4998 5.86363C13.4998 7.49079 12.1498 8.79545 10.4998 8.79545C8.84979 8.79545 7.49979 7.49079 7.49979 5.86363C7.49979 4.25113 8.84979 2.93181 10.4998 2.93181ZM4.499 14.4391C5.789 16.3448 7.994 17.5908 10.499 17.5908C13.004 17.5908 15.209 16.3448 16.499 14.4391C16.469 12.5041 12.494 11.434 10.499 11.434C8.50399 11.434 4.529 12.5041 4.499 14.4391Z" fill="url(#paint0_linear)"/>
<defs>
<linearGradient id="paint0_linear" x1="20.4307" y1="11.1259" x2="0.266076" y2="11.2143" gradientUnits="userSpaceOnUse">
<stop offset="0.4375" stop-color="#12CAD6"/>
<stop offset="1" stop-color="#12B3D6"/>
</linearGradient>
</defs>
</svg>
