<svg width="35" height="35" viewBox="0 0 35 35" fill="none" xmlns="http://www.w3.org/2000/svg">
<path fill-rule="evenodd" clip-rule="evenodd" d="M29.9764 12.5626V6.80354C29.9764 5.94516 29.2741 5.24284 28.4157 5.24284H22.6567L18.5988 1.185C18.3072 0.892753 17.9114 0.728516 17.4985 0.728516C17.0857 0.728516 16.6898 0.892753 16.3982 1.185L12.3248 5.24284H6.56577C5.70739 5.24284 5.00507 5.94516 5.00507 6.80354V12.5626L0.947229 16.6204C0.338554 17.2291 0.338554 18.2123 0.947229 18.821L5.00507 22.8788V28.6534C5.00507 29.5118 5.70739 30.2141 6.56577 30.2141H12.3248L16.3826 34.272C16.9913 34.8807 17.9745 34.8807 18.5832 34.272L22.6411 30.2141H28.4157C29.2741 30.2141 29.9764 29.5118 29.9764 28.6534V22.8944L34.0342 18.8366C34.6429 18.2279 34.6429 17.2447 34.0342 16.636L29.9764 12.5626ZM17.4908 27.0929C12.3249 27.0929 8.1266 22.8946 8.1266 17.7286C8.1266 12.5627 12.3249 8.3644 17.4908 8.3644C22.6568 8.3644 26.8551 12.5627 26.8551 17.7286C26.8551 22.8946 22.6568 27.0929 17.4908 27.0929ZM11.248 17.7286C11.248 14.2795 14.0417 11.4858 17.4908 11.4858C20.94 11.4858 23.7337 14.2795 23.7337 17.7286C23.7337 21.1778 20.94 23.9715 17.4908 23.9715C14.0417 23.9715 11.248 21.1778 11.248 17.7286Z" fill="url(#paint0_linear)"/>
<defs>
<linearGradient id="paint0_linear" x1="33.569" y1="13.9823" x2="0.922044" y2="14.1769" gradientUnits="userSpaceOnUse">
<stop offset="0.4375" stop-color="#12CAD6"/>
<stop offset="1" stop-color="#12B3D6"/>
</linearGradient>
</defs>
</svg>
