<svg width="28" height="17" viewBox="0 0 28 17" fill="none" xmlns="http://www.w3.org/2000/svg">
<mask id="mask0" mask-type="alpha" maskUnits="userSpaceOnUse" x="0" y="0" width="28" height="17">
<rect x="0.644043" y="0.0166016" width="26.97" height="16.7631" rx="2" fill="#C4C4C4"/>
</mask>
<g mask="url(#mask0)">
<path d="M28.4923 -1.29346H-0.0410156V17.363H28.4923V-1.29346Z" fill="#E30A17"/>
<path d="M10.0651 12.6983C12.6916 12.6983 14.8207 10.6101 14.8207 8.03422C14.8207 5.45831 12.6916 3.37012 10.0651 3.37012C7.43871 3.37012 5.30957 5.45831 5.30957 8.03422C5.30957 10.6101 7.43871 12.6983 10.0651 12.6983Z" fill="white"/>
<path d="M11.2527 11.7658C13.3538 11.7658 15.0571 10.0952 15.0571 8.03451C15.0571 5.97378 13.3538 4.30322 11.2527 4.30322C9.15155 4.30322 7.44824 5.97378 7.44824 8.03451C7.44824 10.0952 9.15155 11.7658 11.2527 11.7658Z" fill="#E30A17"/>
<path d="M13.8296 8.0353L18.131 9.40606L15.4726 5.81738V10.2532L18.131 6.66455L13.8296 8.0353Z" fill="white"/>
</g>
</svg>
