<svg width="81" height="73" viewBox="0 0 81 73" fill="none" xmlns="http://www.w3.org/2000/svg">
<g filter="url(#filter0_d)">
<path fill-rule="evenodd" clip-rule="evenodd" d="M16.2651 36.4775C16.2651 25.4318 25.2194 16.4775 36.2651 16.4775C47.3108 16.4775 56.2651 25.4318 56.2651 36.4775C56.2651 47.5232 47.3108 56.4775 36.2651 56.4775C25.2194 56.4775 16.2651 47.5232 16.2651 36.4775Z" fill="#4C6C91"/>
<path fill-rule="evenodd" clip-rule="evenodd" d="M37.3115 43.0408C37.3115 43.0408 37.6965 42.9988 37.8937 42.7909C38.0743 42.6004 38.068 42.2409 38.068 42.2409C38.068 42.2409 38.044 40.5622 38.838 40.3143C39.6206 40.0706 40.6254 41.9377 41.6918 42.6557C42.4973 43.1985 43.1087 43.0797 43.1087 43.0797L45.9583 43.0408C45.9583 43.0408 47.4483 42.9506 46.7419 41.8005C46.6835 41.7062 46.3297 40.9493 44.6238 39.3946C42.8364 37.7671 43.0764 38.0303 45.2279 35.2148C46.5384 33.5002 47.0622 32.4535 46.8984 32.0059C46.7429 31.5778 45.7788 31.6915 45.7788 31.6915L42.5714 31.7109C42.5714 31.7109 42.3335 31.6792 42.1571 31.7826C41.985 31.884 41.8733 32.1206 41.8733 32.1206C41.8733 32.1206 41.3662 33.447 40.6891 34.5757C39.2606 36.9559 38.6899 37.0819 38.4561 36.9344C37.9125 36.5893 38.0482 35.5497 38.0482 34.8112C38.0482 32.5037 38.405 31.542 37.3543 31.2931C37.0058 31.2101 36.7491 31.1558 35.857 31.1466C34.7124 31.1353 33.7441 31.1507 33.1952 31.4139C32.8301 31.5891 32.5483 31.9803 32.7205 32.0028C32.9323 32.0305 33.4123 32.1298 33.6669 32.4699C33.9955 32.9093 33.9841 33.8946 33.9841 33.8946C33.9841 33.8946 34.1729 36.6108 33.5427 36.9477C33.1107 37.1792 32.5181 36.7071 31.2441 34.547C30.5919 33.4408 30.0994 32.2179 30.0994 32.2179C30.0994 32.2179 30.0045 31.9895 29.8344 31.8666C29.6289 31.7181 29.3419 31.672 29.3419 31.672L26.2941 31.6915C26.2941 31.6915 25.836 31.7038 25.6681 31.8994C25.5189 32.0725 25.6566 32.432 25.6566 32.432C25.6566 32.432 28.0429 37.9125 30.7453 40.6748C33.2234 43.2067 36.0365 43.0408 36.0365 43.0408H37.3115Z" fill="white"/>
</g>
<defs>
<filter id="filter0_d" x="0.265137" y="0.477539" width="80" height="80" filterUnits="userSpaceOnUse" color-interpolation-filters="sRGB">
<feFlood flood-opacity="0" result="BackgroundImageFix"/>
<feColorMatrix in="SourceAlpha" type="matrix" values="0 0 0 0 0 0 0 0 0 0 0 0 0 0 0 0 0 0 127 0"/>
<feOffset dx="4" dy="4"/>
<feGaussianBlur stdDeviation="10"/>
<feColorMatrix type="matrix" values="0 0 0 0 0 0 0 0 0 0 0 0 0 0 0 0 0 0 0.21 0"/>
<feBlend mode="normal" in2="BackgroundImageFix" result="effect1_dropShadow"/>
<feBlend mode="normal" in="SourceGraphic" in2="effect1_dropShadow" result="shape"/>
</filter>
</defs>
</svg>
