<svg width="13" height="21" viewBox="0 0 13 21" fill="none" xmlns="http://www.w3.org/2000/svg">
<path d="M0.853151 20.0505C1.40027 20.5727 2.28236 20.5727 2.82947 20.0505L12.1081 11.1935C12.5436 10.7779 12.5436 10.1064 12.1081 9.69074L2.82947 0.833825C2.28236 0.311576 1.40027 0.311576 0.853151 0.833825C0.306033 1.35607 0.306033 2.19807 0.853151 2.72032L8.9371 10.4475L0.841985 18.1746C0.306033 18.6862 0.306033 19.5389 0.853151 20.0505Z" fill="#FE674C"/>
<path d="M0.853151 20.0505C1.40027 20.5727 2.28236 20.5727 2.82947 20.0505L12.1081 11.1935C12.5436 10.7779 12.5436 10.1064 12.1081 9.69074L2.82947 0.833825C2.28236 0.311576 1.40027 0.311576 0.853151 0.833825C0.306033 1.35607 0.306033 2.19807 0.853151 2.72032L8.9371 10.4475L0.841985 18.1746C0.306033 18.6862 0.306033 19.5389 0.853151 20.0505Z" fill="#FE674C"/>
</svg>
