<svg width="105" height="130" viewBox="0 0 105 130" fill="none" xmlns="http://www.w3.org/2000/svg">
<g opacity="0.52">
<path d="M1.28676 50.5564C1.93258 47.9737 2.57841 45.3911 2.94916 42.7609C3.55072 38.4966 3.37171 34.1106 2.46693 29.8464C2.25499 28.7939 0.840138 28.6464 0.501936 29.6038C-0.162039 31.5517 -0.813593 33.5326 -1.43295 35.5015C-2.04497 37.3921 -2.61236 39.3037 -3.04589 41.2781C-4.70892 48.5832 -4.60744 56.2818 -3.79262 63.8254C-3.58454 65.7474 -3.57408 68.1211 -2.92263 69.9519C-2.00746 66.8151 -1.64019 63.3937 -0.9679 60.1973C-0.243651 56.9436 0.505457 53.756 1.28676 50.5564Z" fill="#F9F2F2"/>
<path d="M5.74608 52.3525C4.20038 58.4058 3.54202 64.7672 4.58317 71.0558C4.85788 72.764 5.27379 74.457 5.6897 76.1499C6.13556 78.0202 6.59385 79.9237 7.07191 81.7819C7.46207 80.7672 7.50767 79.6179 7.64253 78.5105C8.01713 75.0108 9.22936 71.6869 10.2236 68.3695C12.2318 61.6895 13.5063 54.7191 13.9358 47.6513C14.0671 45.7526 14.1341 43.8782 14.0029 41.9651C13.9242 40.4851 13.9153 37.4315 12.9301 36.179C11.5529 34.47 10.5966 38.377 10.2533 39.2231C9.42839 41.2315 8.61589 43.2729 7.88019 45.3233C7.07055 47.6655 6.35748 49.9715 5.74608 52.3525Z" fill="#F9F2F2"/>
<path d="M16.6217 18.8274C21.1386 15.2048 26.1916 12.3241 31.4581 9.81615C28.8304 12.5022 26.1581 15.1672 23.771 18.1025C22.2818 19.9077 20.9067 21.8209 19.3729 23.6051C17.7674 25.4918 15.9461 27.1954 14.0305 28.7457C12.8202 29.729 11.5083 30.6373 10.0523 31.2601C9.01479 31.7256 6.66474 32.6089 5.5836 31.8831C6.52426 29.3029 8.64932 26.8435 10.4231 24.8181C12.2438 22.6241 14.3571 20.6221 16.6217 18.8274Z" fill="#F9F2F2"/>
<path d="M34.4342 21.6426C39.5557 20.0194 45.0077 19.1778 50.4813 19.7621C47.5196 20.8754 44.5454 21.9556 41.5837 23.0689C39.298 23.928 36.9999 24.7541 34.8459 25.8657C32.9048 26.8596 31.115 28.0607 29.2683 29.2077C27.0081 30.6234 24.7676 31.9939 22.4255 33.2894C20.341 34.4881 18.1672 35.6449 15.8069 36.3057C15.0738 36.5058 12.9491 37.3044 12.2176 36.8246C11.0275 36.102 12.728 34.859 13.2402 34.3645C16.9889 30.6533 21.2885 27.5275 25.9902 25.0809C28.7113 23.7184 31.5069 22.5543 34.4342 21.6426Z" fill="#F9F2F2"/>
<path d="M31.7183 35.0412C36.319 33.01 41.0338 31.0868 45.9876 30.0927C51.7637 28.9405 57.7298 29.0755 63.6835 29.1774C54.6616 32.1535 46.5318 37.2097 37.7958 40.9463C34.8194 42.2161 31.7487 43.3326 28.4887 43.6522C26.7175 43.8274 24.9236 43.7469 23.1196 43.4438C21.4246 43.1374 19.9695 42.5899 21.5655 40.971C24.2898 38.2487 28.2641 36.6038 31.7183 35.0412Z" fill="#F9F2F2"/>
<path d="M19.1268 82.5716C20.948 74.9052 22.7442 67.1726 23.0883 59.1934C23.2156 56.0131 23.1248 52.8394 23.0217 49.6325C22.9439 46.9822 22.829 44.2327 21.6392 41.8494C20.4037 44.4272 19.9466 47.3163 19.3555 50.1426C18.0403 56.2225 15.8947 62.0484 15.2064 68.2323C14.8612 71.419 14.9248 74.7162 15.3675 77.9464C15.7875 80.9209 16.3821 84.8488 17.9538 87.4659C18.4969 85.9786 18.7424 84.188 19.1268 82.5716Z" fill="#F9F2F2"/>
<path d="M28.0098 73.9494C28.3947 76.6352 28.9209 79.3056 29.4792 81.964C30.3891 86.3394 31.3956 90.6786 32.4788 95.0267C32.5461 95.3033 32.9499 95.3025 32.9793 94.9895C33.045 92.1343 33.7128 89.317 34.2394 86.515C35.9812 76.8781 35.6264 66.7462 33.2158 57.0097C32.6654 54.7635 31.9738 52.5327 30.8439 50.5043C30.3547 49.5937 29.7909 48.4847 29.2002 49.6503C28.7603 50.5327 28.673 51.9619 28.4884 52.937C27.6739 57.3191 27.313 61.8326 27.3881 66.3331C27.4607 68.8722 27.6423 71.408 28.0098 73.9494Z" fill="#F9F2F2"/>
<path d="M52.0099 45.039C59.8862 45.173 67.8354 46.1854 75.654 45.775C69.8995 48.3533 63.658 49.8314 57.3763 50.9094C49.2641 52.2982 40.8587 53.0046 32.6682 51.2526C31.5109 51.0083 28.423 50.3198 30.4257 49.0009C31.8466 48.0894 33.6545 47.523 35.2692 47.0293C38.6472 45.9482 42.2241 45.3963 45.8162 45.1782C47.8303 45.0627 49.9139 45.0343 52.0099 45.039Z" fill="#F9F2F2"/>
<path d="M55.5794 53.8496C64.6089 52.9463 73.7474 52.0398 82.8686 53.14C79.7906 54.3348 76.7447 55.5174 73.6542 56.6791C71.7029 57.4504 69.707 58.2006 67.6935 58.8065C62.2128 60.4515 56.3541 60.9932 50.541 60.3855C47.6023 60.0938 44.6929 59.4891 41.8253 58.6045C40.7843 58.2788 39.1807 57.8248 40.4254 56.6399C41.3782 55.7534 43.412 55.5927 44.6331 55.3224C48.2246 54.614 51.8958 54.2153 55.5794 53.8496Z" fill="#F9F2F2"/>
<path d="M90.7969 61.3307C83.2654 63.4824 75.734 65.6341 67.946 66.7123C64.0297 67.2409 60.0461 67.4929 56.0839 67.0198C54.0545 66.8013 52.0471 66.3482 50.1064 65.6814C49.685 65.5378 47.8635 65.0903 47.9097 64.4314C47.9734 63.9168 50.0643 63.8102 50.5399 63.7069C58.974 62.1971 67.5251 61.0963 76.1491 60.8738C81.0669 60.7613 85.9304 60.8956 90.7969 61.3307Z" fill="#F9F2F2"/>
<path d="M92.7988 76.92C85.8399 77.2714 78.8685 77.5897 71.8761 76.9725C68.3799 76.6639 64.8486 76.0665 61.5099 74.9061C59.812 74.2989 58.1288 73.5353 56.5568 72.5788C56.232 72.399 54.7024 71.6531 54.895 71.0901C55.0604 70.6505 56.8769 70.9867 57.3253 71.0068C64.9616 71.382 72.5934 72.1363 80.1394 73.6399C84.4241 74.4825 88.6547 75.5718 92.7988 76.92Z" fill="#F9F2F2"/>
<path d="M38.7412 61.3486C38.4087 62.9077 38.0565 64.512 37.724 66.0711C37.3249 67.8439 36.9704 69.6377 36.6928 71.4404C35.4603 80.2819 37.449 89.3845 39.5884 98.204C40.7261 94.6817 40.9244 90.9086 41.3781 87.2283C41.9564 82.2179 42.9759 77.306 43.2791 72.248C43.4854 68.8871 43.3596 65.4246 42.617 62.0807C42.3802 60.962 42.0772 58.3964 40.7685 57.9448C39.2169 57.4336 38.9778 60.3162 38.7412 61.3486Z" fill="#F9F2F2"/>
<path d="M47.3738 66.3302C44.3085 79.4837 44.0984 93.4887 46.8162 107.072C48.1248 101.561 48.9673 95.8854 49.5151 90.2072C50.0481 84.6855 50.3186 79.1493 49.9101 73.5664C49.7737 71.542 49.5481 69.4756 49.2259 67.4455C49.1485 66.9463 49.0765 64.8976 48.6303 64.688C47.8593 64.2985 47.4822 65.8366 47.3738 66.3302Z" fill="#F9F2F2"/>
<path d="M54.627 73.1147C55.5982 84.7886 59.1212 96.4092 64.8056 106.84C64.3955 101.937 63.5816 97.0347 62.5423 92.2172C61.5205 87.5441 60.2808 82.8775 58.5259 78.4045C57.8723 76.7632 57.1542 75.1462 56.3717 73.5533C56.1904 73.1686 55.6011 71.5031 55.2046 71.4257C54.5008 71.3128 54.6066 72.6695 54.627 73.1147Z" fill="#F9F2F2"/>
<path d="M65.18 81.6399C63.056 79.1172 60.6598 76.8478 58.3799 74.4968C55.9538 72.05 53.5723 69.624 51.1585 67.2102C46.3435 62.4157 41.5014 57.7445 36.2115 53.5436C26.0383 45.4418 15.6646 37.4908 4.98941 30.1061C-1.20988 25.8318 -7.62432 21.8649 -14.2291 18.2715C-15.0571 17.8279 -15.6229 19.0596 -14.827 19.5152C-3.39003 25.8966 7.39195 33.4676 17.8944 41.3702C28.3522 49.2518 38.7976 57.1003 48.1621 66.3741C50.7916 68.971 53.4211 71.5678 56.0506 74.1647C58.7942 76.8697 61.491 79.7432 64.4746 82.207C64.8864 82.6183 65.572 82.0964 65.18 81.6399Z" fill="#F9F2F2"/>
<path d="M78.5506 107.146C78.4127 101.989 76.0032 97.0455 73.0741 92.6742C71.7263 90.6523 70.2423 88.757 68.8102 86.8045C68.0781 85.8342 67.346 84.864 66.6461 83.8817C66.0032 82.9534 65.3897 81.7122 64.591 80.9557C63.7049 81.6284 65.1094 85.3651 65.3733 86.3603C65.9084 88.2726 66.5723 90.1365 67.3972 91.9399C69.0395 95.6249 71.2094 99.1494 73.7751 102.261C75.2094 104.024 76.8119 105.648 78.5506 107.146Z" fill="#F9F2F2"/>
<path d="M92.2578 89.6522C87.3486 90.6672 82.1342 89.3062 77.3376 87.2974C75.1562 86.3814 72.9894 85.3088 70.8351 84.2693C69.7642 83.7661 68.6808 83.2299 67.5777 82.7388C66.5638 82.2896 65.228 81.9614 64.3575 81.3074C64.8121 80.2685 68.6382 80.8683 69.6565 80.9384C71.5718 81.0487 73.4848 81.3486 75.3905 81.7267C79.2714 82.5701 83.0366 83.9853 86.5969 85.9304C88.5778 86.9973 90.4796 88.2449 92.2578 89.6522Z" fill="#F9F2F2"/>
</g>
</svg>
