<svg width="131" height="157" viewBox="0 0 131 157" fill="none" xmlns="http://www.w3.org/2000/svg">
<g opacity="0.52">
<path d="M18.9189 132.276C15.5419 130.706 12.1649 129.137 8.65733 127.94C2.97063 125.998 -3.06859 125.118 -9.11422 125.285C-10.6038 125.31 -11.1427 127.252 -9.91435 127.972C-7.40951 129.404 -4.85651 130.826 -2.31236 132.201C0.126564 133.545 2.6048 134.832 5.20094 135.947C14.7919 140.158 25.3415 142.001 35.8494 142.806C38.5267 143.01 41.7745 143.607 44.4329 143.168C40.3625 141.078 35.7723 139.682 31.5624 137.917C27.2867 136.064 23.1072 134.194 18.9189 132.276Z" fill="#F9F2F2"/>
<path d="M22.4366 126.498C30.3442 130.222 38.8844 132.783 47.7303 132.948C50.1313 133.004 52.545 132.858 54.9587 132.712C57.6222 132.571 60.3338 132.42 62.9883 132.23C61.6941 131.423 60.1336 131.062 58.6517 130.588C53.9563 129.162 49.7009 126.608 45.4023 124.361C36.7482 119.829 27.5222 116.248 17.9615 113.825C15.397 113.151 12.8502 112.574 10.2033 112.265C8.16108 111.993 3.9841 111.218 2.03684 112.274C-0.627972 113.761 4.4857 116.107 5.56064 116.805C8.10983 118.477 10.7072 120.141 13.335 121.699C16.3443 123.436 19.3271 125.029 22.4366 126.498Z" fill="#F9F2F2"/>
<path d="M-12.7108 78.4324C-13.7091 70.8464 -13.5601 62.9994 -11.4564 55.4898C-10.6404 59.9217 -9.87252 64.3625 -9.0565 68.7944C-8.42674 72.2147 -7.84515 75.6439 -6.83887 78.945C-5.94286 81.9178 -4.72739 84.7322 -3.59938 87.6125C-2.20268 91.1406 -0.863019 94.6294 0.349861 98.2412C1.49178 101.468 2.5551 104.808 2.89582 108.281C2.99461 109.359 3.58002 112.538 2.74961 113.438C1.47799 114.918 0.183906 112.217 -0.370006 111.373C-4.55034 105.17 -7.79886 98.347 -10.0231 91.1362C-11.2372 86.9768 -12.1622 82.7641 -12.7108 78.4324Z" fill="#F9F2F2"/>
<path d="M4.96199 85.6872C3.28161 78.7249 1.77619 71.6308 1.59804 64.4417C1.39971 56.061 3.00657 47.7463 4.56525 39.4405C6.48342 52.8339 11.4581 65.515 14.4842 78.7043C15.5107 83.1971 16.3051 87.7824 15.965 92.4272C15.7822 94.9512 15.2445 97.4409 14.4 99.8874C13.5771 102.181 12.4817 104.076 10.6488 101.425C7.57631 96.9103 6.27489 90.9242 4.96199 85.6872Z" fill="#F9F2F2"/>
<path d="M66.9425 115.564C56.8951 111.039 46.7514 106.532 35.9243 103.993C31.6066 102.995 27.2458 102.304 22.8368 101.621C19.1948 101.047 15.4082 100.499 11.8662 101.549C15.0961 103.943 18.9371 105.328 22.6602 106.883C30.659 110.292 38.1127 114.796 46.4032 117.354C50.6777 118.659 55.2008 119.42 59.7226 119.633C63.8895 119.812 69.4014 119.993 73.3542 118.468C71.4502 117.324 69.0607 116.519 66.9425 115.564Z" fill="#F9F2F2"/>
<path d="M57.2717 100.909C61.0354 101.063 64.8119 101.015 68.5795 100.919C74.7785 100.774 80.9509 100.484 87.1538 100.089C87.548 100.066 87.6431 99.501 87.2223 99.3792C83.3343 98.5511 79.6417 96.8901 75.9363 95.4307C63.1762 90.5085 49.2393 88.3928 35.353 89.2562C32.1508 89.4473 28.9359 89.8401 25.8933 90.8983C24.5318 91.3482 22.8812 91.8514 24.3339 92.9785C25.4354 93.8216 27.3686 94.3124 28.6578 94.8221C34.4548 97.0917 40.5396 98.7605 46.7106 99.8157C50.1993 100.369 53.7095 100.768 57.2717 100.909Z" fill="#F9F2F2"/>
<path d="M23.4666 59.8673C25.5275 48.8792 28.8066 38.0153 30.1095 26.9675C32.2625 35.6856 32.7955 44.8016 32.7719 53.8707C32.7367 65.5816 31.6988 77.527 27.3509 88.5378C26.741 90.0944 25.0635 94.2384 23.7378 91.0957C22.8303 88.8721 22.487 86.1959 22.1969 83.8089C21.5241 78.8027 21.6222 73.6546 22.1804 68.5712C22.5026 65.7227 22.9605 62.7995 23.4666 59.8673Z" fill="#F9F2F2"/>
<path d="M36.363 57.1442C37.2806 44.2747 38.2198 31.2518 41.8984 18.7704C42.7981 23.3861 43.6889 27.9537 44.5404 32.5783C45.1296 35.508 45.6795 38.4947 46.0279 41.4688C46.9704 49.5631 46.3143 57.9019 44.0977 65.8805C42.9983 69.9181 41.478 73.8338 39.585 77.619C38.8915 78.9919 37.8886 81.119 36.5653 79.0715C35.5804 77.5096 35.8456 74.6219 35.7671 72.8433C35.6547 67.6343 35.9848 62.3937 36.363 57.1442Z" fill="#F9F2F2"/>
<path d="M54.9873 9.78583C56.1336 20.8808 57.28 31.9757 56.8975 43.1529C56.6866 48.77 56.0814 54.4099 54.49 59.833C53.7076 62.6168 52.6096 65.3093 51.2352 67.8534C50.9385 68.4061 49.8924 70.84 49.0025 70.6054C48.3142 70.3835 48.6669 67.4298 48.639 66.7376C48.5855 54.545 49.119 42.294 50.8707 30.1674C51.8892 23.2561 53.2323 16.4842 54.9873 9.78583Z" fill="#F9F2F2"/>
<path d="M76.7773 11.0033C75.5988 20.8329 74.3722 30.6713 71.8613 40.298C70.6059 45.1113 68.9474 49.8992 66.565 54.2726C65.3301 56.4922 63.8848 58.651 62.2024 60.6043C61.8791 61.0125 60.4946 62.9608 59.7708 62.5462C59.2092 62.2014 60.1019 59.7459 60.2363 59.1235C62.5697 48.5334 65.4204 38.0473 69.275 27.8744C71.4483 22.0952 73.9461 16.4554 76.7773 11.0033Z" fill="#F9F2F2"/>
<path d="M42.6019 82.6421C44.6542 83.5094 46.7636 84.4159 48.8159 85.2832C51.1446 86.2988 53.5126 87.2574 55.911 88.1108C67.7052 92.1151 80.6243 91.6788 93.1923 90.9586C88.6478 88.4583 83.5366 87.2079 78.613 85.6242C71.9007 83.5231 65.4281 80.8299 58.5853 79.1015C54.0394 77.9463 49.2755 77.2296 44.5267 77.4067C42.9408 77.4497 39.3609 77.2123 38.4315 78.9274C37.3627 80.967 41.2468 82.0449 42.6019 82.6421Z" fill="#F9F2F2"/>
<path d="M51.4715 71.8439C68.7242 79.5251 87.8216 83.4299 107.041 83.1285C99.8181 79.8763 92.2591 77.2338 84.6265 75.0033C77.2043 72.8336 69.6997 71.0278 61.9694 70.1601C59.1691 69.829 56.2902 69.6119 53.4379 69.5394C52.7369 69.5191 49.9189 69.0917 49.5258 69.6621C48.8095 70.6407 50.8225 71.565 51.4715 71.8439Z" fill="#F9F2F2"/>
<path d="M62.4761 63.4428C78.6682 65.0934 95.3955 63.159 111.011 57.8931C104.21 57.2029 97.314 57.0781 90.4799 57.2905C83.8473 57.5156 77.1716 58.0474 70.6378 59.3501C68.238 59.8418 65.856 60.4298 63.4917 61.1141C62.9225 61.2687 60.505 61.6641 60.3046 62.199C59.9825 63.1548 61.8625 63.3565 62.4761 63.4428Z" fill="#F9F2F2"/>
<path d="M76.6478 50.8725C72.6924 53.1946 69.0184 55.9629 65.2608 58.5474C61.3371 61.3119 57.4526 64.0194 53.5771 66.775C45.8741 72.2775 38.3334 77.8496 31.3289 84.1697C17.827 96.3182 4.48348 108.786 -8.15777 121.822C-15.4793 129.396 -22.432 137.35 -28.9195 145.667C-29.7233 146.711 -28.1742 147.821 -27.3616 146.824C-15.9106 132.464 -2.98918 119.326 10.3188 106.666C23.5875 94.0622 36.8081 81.4675 51.7196 70.7529C55.8969 67.7425 60.0741 64.7321 64.2514 61.7216C68.6037 58.5794 73.1752 55.5462 77.255 52.0059C77.9155 51.5356 77.3654 50.4415 76.6478 50.8725Z" fill="#F9F2F2"/>
<path d="M114.705 38.735C107.623 37.5986 100.289 39.696 93.6143 42.6682C90.5286 44.0332 87.5836 45.6214 84.5727 47.1221C83.0717 47.8965 81.5707 48.6709 80.0608 49.3972C78.6384 50.0576 76.7952 50.5962 75.5705 51.5189C76.279 52.9325 81.7226 51.9302 83.1462 51.8175C85.8882 51.5616 88.5948 51.1131 91.257 50.4237C96.6866 49.0753 102.023 46.9473 106.888 44.1588C109.64 42.6061 112.243 40.7821 114.705 38.735Z" fill="#F9F2F2"/>
<path d="M94.0566 15.0435C94.2741 22.1756 91.1702 29.1223 87.2804 35.3171C85.5079 38.1338 83.525 40.8896 81.5903 43.6365C80.647 45.0056 79.6556 46.3835 78.7212 47.8007C77.8654 49.1038 77.0983 50.8886 75.9966 51.9382C74.6846 51.0342 76.4167 45.8343 76.7553 44.4272C77.3627 41.7752 78.2288 39.1752 79.2 36.6057C81.2782 31.3919 84.1106 26.4874 87.6187 22.0064C89.5496 19.5092 91.7087 17.1692 94.0566 15.0435Z" fill="#F9F2F2"/>
</g>
</svg>
