<svg width="106" height="119" viewBox="0 0 106 119" fill="none" xmlns="http://www.w3.org/2000/svg">
<g opacity="0.52">
<path d="M111.644 83.9602C110.948 86.7064 110.252 89.4525 109.854 92.2435C109.207 96.7685 109.404 101.407 110.383 105.902C110.613 107.012 112.141 107.14 112.505 106.12C113.221 104.045 113.923 101.936 114.59 99.8399C115.25 97.8268 115.861 95.7925 116.328 93.6942C118.119 85.9299 118.004 77.7842 117.119 69.8165C116.893 67.7864 116.88 65.2744 116.175 63.3497C115.189 66.6876 114.795 70.3159 114.071 73.7121C113.292 77.17 112.485 80.5584 111.644 83.9602Z" fill="#F9F2F2"/>
<path d="M106.827 82.1473C108.492 75.7102 109.198 68.9646 108.07 62.3296C107.772 60.5271 107.322 58.7437 106.871 56.9602C106.389 54.9895 105.892 52.984 105.375 51.0268C104.954 52.1084 104.906 53.3257 104.761 54.5004C104.359 58.2117 103.052 61.7535 101.981 65.2842C99.8174 72.3938 98.4461 79.7961 97.9872 87.2849C97.8467 89.2969 97.7756 91.2821 97.9187 93.3042C98.0047 94.8691 98.0163 98.1007 99.0809 99.4068C100.569 101.188 101.599 97.0343 101.969 96.1321C102.858 93.9902 103.734 91.8135 104.527 89.629C105.4 87.134 106.168 84.6793 106.827 82.1473Z" fill="#F9F2F2"/>
<path d="M95.1073 117.844C90.2327 121.767 84.7788 124.916 79.094 127.674C81.9294 124.779 84.813 121.906 87.3884 118.752C88.9951 116.812 90.4785 114.76 92.1334 112.841C93.8657 110.813 95.831 108.974 97.8984 107.295C99.2045 106.231 100.62 105.243 102.192 104.555C103.312 104.042 105.849 103.061 107.017 103.808C106.003 106.557 103.71 109.202 101.796 111.381C99.8317 113.739 97.5513 115.899 95.1073 117.844Z" fill="#F9F2F2"/>
<path d="M75.8731 115.216C70.3443 117.035 64.4581 118.034 58.5476 117.524C61.7447 116.287 64.9553 115.085 68.1524 113.848C70.6198 112.894 73.1006 111.974 75.4256 110.755C77.5209 109.664 79.4525 108.358 81.4457 107.107C83.8852 105.564 86.3033 104.07 88.8313 102.652C91.0813 101.342 93.4277 100.075 95.9757 99.3289C96.7671 99.1027 99.0607 98.2154 99.8508 98.7088C101.136 99.45 99.3011 100.799 98.7484 101.333C94.7033 105.335 90.0631 108.728 84.9881 111.41C82.0509 112.906 79.0331 114.193 75.8731 115.216Z" fill="#F9F2F2"/>
<path d="M78.7954 100.981C73.8292 103.222 68.7398 105.35 63.3916 106.5C57.1557 107.834 50.7137 107.809 44.2852 107.819C54.0245 104.491 62.7991 98.979 72.2292 94.8515C75.4421 93.4488 78.7569 92.2063 82.2767 91.8035C84.189 91.5831 86.126 91.6329 88.0741 91.918C89.9045 92.2087 91.4759 92.7594 89.7538 94.5043C86.8141 97.4394 82.524 99.2589 78.7954 100.981Z" fill="#F9F2F2"/>
<path d="M92.3598 50.4288C90.3987 58.5787 88.4646 66.798 88.0985 75.2497C87.9633 78.618 88.0634 81.9752 88.1771 85.3672C88.2628 88.1706 88.3888 91.0783 89.6751 93.5771C91.0074 90.8244 91.499 87.7577 92.1352 84.7548C93.5511 78.2941 95.8638 72.0858 96.6027 65.5275C96.9733 62.148 96.9023 58.6596 96.4222 55.2497C95.9666 52.1099 95.3218 47.9646 93.6231 45.2258C93.0376 46.8106 92.7738 48.7106 92.3598 50.4288Z" fill="#F9F2F2"/>
<path d="M82.7744 59.729C82.3569 56.8941 81.7869 54.0783 81.1822 51.2758C80.1967 46.663 79.107 42.0905 77.9344 37.5102C77.8616 37.2187 77.4256 37.2276 77.3941 37.5594C77.3251 40.5825 76.606 43.5775 76.0393 46.5534C74.1652 56.7871 74.5552 67.5032 77.1648 77.7602C77.7607 80.1266 78.509 82.4739 79.7303 84.5983C80.2592 85.5523 80.8687 86.7149 81.5057 85.4697C81.98 84.5271 82.0734 83.0127 82.272 81.977C83.1484 77.3231 83.535 72.5391 83.4508 67.7774C83.3707 65.0917 83.1728 62.4115 82.7744 59.729Z" fill="#F9F2F2"/>
<path d="M56.8799 90.8017C48.3755 90.8157 39.7916 89.9014 31.3498 90.4904C37.5614 87.6479 44.2997 85.9601 51.0815 84.6949C59.8396 83.0646 68.9148 82.1507 77.7597 83.843C79.0095 84.0786 82.3441 84.7463 80.1826 86.1817C78.649 87.1745 76.6973 87.8097 74.9542 88.3642C71.3076 89.5751 67.4458 90.2301 63.5674 90.5319C61.3928 90.694 59.1431 90.7652 56.8799 90.8017Z" fill="#F9F2F2"/>
<path d="M53.0197 81.5477C43.2708 82.6823 33.4042 83.8224 23.5549 82.8384C26.8776 81.5131 30.1655 80.2011 33.5016 78.9105C35.608 78.0557 37.7626 77.2222 39.9362 76.5411C45.8529 74.6917 52.1784 74.0026 58.4554 74.5307C61.6287 74.7814 64.7706 75.3638 67.8675 76.2432C68.9917 76.5674 70.7234 77.0162 69.3803 78.2948C68.3522 79.2519 66.1563 79.4622 64.838 79.7724C60.9606 80.5932 56.9969 81.0878 53.0197 81.5477Z" fill="#F9F2F2"/>
<path d="M14.9883 74.3276C23.1189 71.9014 31.2494 69.4751 39.6577 68.18C43.886 67.5431 48.1871 67.1976 52.4655 67.62C54.6569 67.811 56.8247 68.2509 58.9207 68.9183C59.3757 69.0618 61.3429 69.4994 61.2934 70.1977C61.2249 70.7436 58.9673 70.8978 58.4539 71.0165C49.3483 72.7812 40.1161 74.1154 30.8045 74.5215C25.4946 74.7378 20.2431 74.6919 14.9883 74.3276Z" fill="#F9F2F2"/>
<path d="M12.8154 57.8685C20.3291 57.3589 27.8562 56.8841 35.4066 57.3991C39.1818 57.6565 42.9951 58.2189 46.6009 59.381C48.4346 59.99 50.2525 60.765 51.9505 61.7461C52.3014 61.93 53.9534 62.6892 53.7459 63.2889C53.5676 63.7574 51.6061 63.4375 51.1218 63.4251C42.8764 63.179 34.6355 62.5316 26.4867 61.0895C21.8597 60.2826 17.291 59.2134 12.8154 57.8685Z" fill="#F9F2F2"/>
<path d="M71.1953 73.2785C71.5533 71.6219 71.9325 69.9171 72.2904 68.2604C72.7201 66.3762 73.1016 64.4707 73.4002 62.5574C74.7249 53.1755 72.5713 43.5811 70.2552 34.2893C69.0293 38.0396 68.8177 42.0368 68.3304 45.9409C67.7094 51.255 66.612 56.4738 66.2881 61.8329C66.0676 65.394 66.2059 69.0561 67.0099 72.5805C67.2664 73.7597 67.5954 76.4691 69.0088 76.9211C70.6844 77.4315 70.9406 74.3759 71.1953 73.2785Z" fill="#F9F2F2"/>
<path d="M61.8697 68.1773C65.1704 54.1956 65.3876 39.3692 62.4437 25.0465C61.0346 30.9053 60.1287 36.9289 59.5412 42.9493C58.9694 48.8037 58.6812 54.6684 59.1261 60.569C59.2748 62.7089 59.5198 64.8914 59.8691 67.0335C59.953 67.5604 60.0322 69.7271 60.5141 69.9402C61.3469 70.3372 61.753 68.7018 61.8697 68.1773Z" fill="#F9F2F2"/>
<path d="M54.034 61.1399C52.9773 48.804 49.1654 36.575 43.0205 25.6481C43.4667 30.8291 44.3489 36.0012 45.4744 41.0792C46.5808 46.0048 47.9226 50.9192 49.8205 55.6185C50.5274 57.3426 51.3039 59.0399 52.1498 60.7102C52.3459 61.1138 52.9833 62.8648 53.4115 62.9389C54.1715 63.0444 54.0563 61.6107 54.034 61.1399Z" fill="#F9F2F2"/>
<path d="M42.6339 52.3263C44.929 54.9543 47.5178 57.3087 49.9811 59.7517C52.6024 62.2934 55.1755 64.8138 57.7834 67.3207C62.9857 72.2999 68.2171 77.1478 73.9318 81.4892C84.9218 89.8626 96.1282 98.0724 107.66 105.677C114.356 110.078 121.285 114.149 128.419 117.822C129.313 118.275 129.923 116.96 129.064 116.494C116.71 109.966 105.063 102.167 93.718 94.0108C82.4208 85.8761 71.137 77.7762 61.0193 68.1464C58.1783 65.45 55.3374 62.7536 52.4964 60.0572C49.5321 57.2486 46.6184 54.2608 43.3951 51.7122C42.9502 51.2851 42.2103 51.851 42.6339 52.3263Z" fill="#F9F2F2"/>
<path d="M28.1789 25.5967C28.3313 31.0512 30.9363 36.236 34.102 40.8044C35.5587 42.9176 37.1624 44.8942 38.7099 46.9323C39.5011 47.9447 40.2923 48.9571 41.0487 49.9829C41.7434 50.9526 42.4067 52.2541 43.2697 53.039C44.226 52.3094 42.7068 48.3825 42.4212 47.3344C41.8421 45.3211 41.124 43.3616 40.2322 41.4693C38.4563 37.6017 36.111 33.9145 33.3385 30.6722C31.7887 28.8347 30.0572 27.1473 28.1789 25.5967Z" fill="#F9F2F2"/>
<path d="M13.3916 44.3818C18.6916 43.2104 24.3228 44.5478 29.5033 46.5788C31.8593 47.5052 34.1995 48.5975 36.5264 49.655C37.683 50.1664 38.8532 50.7125 40.0446 51.2105C41.1397 51.6658 42.5822 51.9867 43.5225 52.6617C43.0325 53.7702 38.9008 53.2111 37.8012 53.157C35.7331 53.0781 33.6673 52.7986 31.6094 52.4361C27.4184 51.6203 23.352 50.197 19.5066 48.2088C17.3669 47.1188 15.3126 45.836 13.3916 44.3818Z" fill="#F9F2F2"/>
</g>
</svg>
