<svg width="38" height="39" viewBox="0 0 38 39" fill="none" xmlns="http://www.w3.org/2000/svg">
<g id="icon/action/loyalty_24px">
<path id="icon/action/loyalty_24px_2" fill-rule="evenodd" clip-rule="evenodd" d="M36.8723 18.5662L19.7791 1.4252C19.0953 0.739559 18.1457 0.320557 17.1011 0.320557H3.80632C1.71714 0.320557 0.0078125 2.03466 0.0078125 4.12967V17.4616C0.0078125 18.5091 0.425649 19.4614 1.12837 20.166L18.2217 37.3071C18.9054 37.9927 19.855 38.4117 20.8996 38.4117C21.9442 38.4117 22.8938 37.9927 23.5776 37.288L36.8723 23.9561C37.5751 23.2705 37.9929 22.3182 37.9929 21.2707C37.9929 20.2232 37.5561 19.2519 36.8723 18.5662ZM6.6552 9.84334C5.07882 9.84334 3.80632 8.56729 3.80632 6.98651C3.80632 5.40573 5.07882 4.12967 6.6552 4.12967C8.23159 4.12967 9.50409 5.40573 9.50409 6.98651C9.50409 8.56729 8.23159 9.84334 6.6552 9.84334ZM21.5648 33.0599L29.0099 25.594C29.8646 24.737 30.3964 23.5371 30.3964 22.223C30.3964 19.5947 28.2692 17.4616 25.6482 17.4616C24.3378 17.4616 23.1412 17.9949 22.2866 18.8519L20.9001 20.2422L19.4757 18.8709C18.3551 17.7092 16.6268 17.1568 14.8415 17.633C13.1891 18.071 11.8597 19.4614 11.4988 21.1374C11.1189 22.8705 11.6887 24.4894 12.7713 25.594L20.2164 33.0599C20.5962 33.4408 21.185 33.4408 21.5648 33.0599Z" fill="url(#paint0_linear)"/>
</g>
<defs>
<linearGradient id="paint0_linear" x1="36.9631" y1="15.1691" x2="0.489682" y2="15.3859" gradientUnits="userSpaceOnUse">
<stop offset="0.4375" stop-color="#12CAD6"/>
<stop offset="1" stop-color="#12B3D6"/>
</linearGradient>
</defs>
</svg>
