<svg width="43" height="38" viewBox="0 0 43 38" fill="none" xmlns="http://www.w3.org/2000/svg">
<g id="icon/action/flight_takeoff_24px">
<path id="icon/action/flight_takeoff_24px_2" fill-rule="evenodd" clip-rule="evenodd" d="M38.1042 11.0515C39.7848 10.6082 41.5074 11.6004 41.9696 13.2893C42.4108 14.9782 41.4024 16.7093 39.7218 17.1737L6.48815 26.1249C5.58483 26.3571 4.61849 25.956 4.13533 25.1326L0.185939 18.2715C-0.171186 17.6804 0.143925 16.8993 0.816161 16.7304L1.5094 16.5404C2.16063 16.3715 2.83287 16.5193 3.35805 16.9204L6.65621 19.5382L17.0969 16.7304L9.87034 4.14819C9.13508 2.86041 9.80732 1.21375 11.2358 0.812635C11.9921 0.601524 12.8114 0.791524 13.3786 1.34041L26.9493 14.0493L38.1042 11.0515ZM2.95902 33.0493H38.6716C39.827 33.0493 40.7723 33.9993 40.7723 35.1604C40.7723 36.3215 39.827 37.2715 38.6716 37.2715H2.95902C1.80361 37.2715 0.858283 36.3215 0.858283 35.1604C0.858283 33.9993 1.80361 33.0493 2.95902 33.0493Z" fill="url(#paint0_linear)"/>
</g>
<defs>
<linearGradient id="paint0_linear" x1="40.9336" y1="14.9736" x2="0.57084" y2="15.2503" gradientUnits="userSpaceOnUse">
<stop offset="0.4375" stop-color="#12CAD6"/>
<stop offset="1" stop-color="#12B3D6"/>
</linearGradient>
</defs>
</svg>
