<svg width="69" height="30" viewBox="0 0 69 30" fill="none" xmlns="http://www.w3.org/2000/svg">
<path d="M8.74903 29.3684H16.211L20.885 12.4354L25.559 29.3684H33.021L40.934 0.668406H34.046L29.085 20.7584L23.55 0.668406H18.22L12.685 20.7584L7.72403 0.668406H0.836029L8.74903 29.3684ZM56.2587 29.9424C61.5067 29.9424 66.0987 27.3594 68.5587 23.3004L62.9007 20.0204C61.6707 22.2344 59.1697 23.5464 56.2587 23.5464C51.1747 23.5464 47.8947 20.1434 47.8947 15.0184C47.8947 9.89341 51.1747 6.49041 56.2587 6.49041C59.1697 6.49041 61.6297 7.80241 62.9007 10.0164L68.5587 6.73641C66.0577 2.67741 61.4657 0.0944063 56.2587 0.0944063C47.6077 0.0944063 41.3347 6.57241 41.3347 15.0184C41.3347 23.4644 47.6077 29.9424 56.2587 29.9424Z" fill="url(#paint0_linear)"/>
<defs>
<linearGradient id="paint0_linear" x1="76.8457" y1="1.69204" x2="-8.10806" y2="2.91143" gradientUnits="userSpaceOnUse">
<stop offset="0.4375" stop-color="#12CAD6"/>
<stop offset="1" stop-color="#12B3D6"/>
</linearGradient>
</defs>
</svg>
