<svg width="43" height="43" viewBox="0 0 43 43" fill="none" xmlns="http://www.w3.org/2000/svg">
<g id="icon/action/perm_data_setting_24px">
<path id="icon/action/perm_data_setting_24px_2" fill-rule="evenodd" clip-rule="evenodd" d="M33.412 19.235C34.0494 19.235 34.687 19.2913 35.3057 19.3663V2.21004C35.3057 0.541286 33.2807 -0.302464 32.0994 0.878787L1.01195 31.9663C-0.169301 33.1475 0.655699 35.1725 2.32445 35.1725H19.4807C19.4057 34.5538 19.3495 33.935 19.3495 33.2975C19.3495 25.535 25.6495 19.235 33.412 19.235ZM40.3679 34.2163C40.4054 33.9163 40.4429 33.6163 40.4429 33.2975C40.4429 32.9788 40.4242 32.6788 40.3679 32.3788L42.3554 30.8225C42.5242 30.6725 42.5804 30.4288 42.4679 30.2225L40.5929 26.9788C40.4804 26.7725 40.2367 26.6975 40.0117 26.7725L37.6867 27.71C37.1992 27.335 36.6742 27.0163 36.0929 26.7913L35.7367 24.3163C35.7179 24.0913 35.5117 23.9225 35.2867 23.9225H31.5367C31.3117 23.9225 31.1054 24.0913 31.0679 24.3163L30.7117 26.7913C30.1492 27.035 29.6054 27.335 29.1179 27.71L26.7929 26.7725C26.5867 26.6975 26.3429 26.7725 26.2117 26.9788L24.3367 30.2225C24.2242 30.4288 24.2617 30.6725 24.4492 30.8225L26.4367 32.3788C26.3992 32.6788 26.3804 32.9788 26.3804 33.2975C26.3804 33.6163 26.3992 33.9163 26.4367 34.2163L24.4492 35.7725C24.2804 35.9225 24.2242 36.1663 24.3367 36.3725L26.2117 39.6163C26.3242 39.8225 26.5679 39.8975 26.7929 39.8225L29.1179 38.885C29.6054 39.26 30.1304 39.5788 30.7117 39.8038L31.0679 42.2788C31.1054 42.5038 31.2929 42.6725 31.5367 42.6725H35.2867C35.5117 42.6725 35.7179 42.5038 35.7554 42.2788L36.1117 39.8038C36.6742 39.56 37.2179 39.26 37.6867 38.885L40.0304 39.8225C40.2367 39.8975 40.4804 39.8225 40.6117 39.6163L42.4867 36.3725C42.5992 36.1663 42.5429 35.9225 42.3742 35.7725L40.3679 34.2163ZM30.5986 33.2975C30.5986 34.8538 31.8548 36.11 33.4111 36.11C34.9673 36.11 36.2236 34.8538 36.2236 33.2975C36.2236 31.7413 34.9673 30.485 33.4111 30.485C31.8548 30.485 30.5986 31.7413 30.5986 33.2975Z" fill="url(#paint0_linear)"/>
</g>
<defs>
<linearGradient id="paint0_linear" x1="41.4042" y1="16.8343" x2="0.989977" y2="17.0737" gradientUnits="userSpaceOnUse">
<stop offset="0.4375" stop-color="#12CAD6"/>
<stop offset="1" stop-color="#12B3D6"/>
</linearGradient>
</defs>
</svg>
