<svg width="38" height="38" viewBox="0 0 38 38" fill="none" xmlns="http://www.w3.org/2000/svg">
<g id="icon balcony">
<path id="icon balcony_2" fill-rule="evenodd" clip-rule="evenodd" d="M12.0446 0.509033L25.722 0.517611C31.4626 0.655582 31.8489 4.90413 31.8489 4.90413V18.6289C31.8489 18.6906 31.8499 18.7615 31.8509 18.8401V18.8401V18.8402C31.8516 18.8905 31.8523 18.944 31.8528 19H35.2852C36.2805 19 37.0948 19.8143 37.0948 20.8096V33.4762C37.0948 35.4667 35.4662 37.0953 33.4757 37.0953H4.52334C2.53287 37.0953 0.904297 35.4667 0.904297 33.4762V20.8096C0.904297 19.8143 1.71858 19 2.71382 19H4.79477H5.91373L5.91532 18.8744C5.91651 18.7843 5.91761 18.7019 5.91761 18.6289V4.90413C5.91761 3.95198 6.08007 0.588451 12.0446 0.509033ZM17.2734 19.0663H8.9526C8.49496 19.0663 8.12052 18.6466 8.12052 18.1337V11.5864C8.12052 11.0735 8.49496 10.6538 8.9526 10.6538H17.2734C17.731 10.6538 18.1054 11.0735 18.1054 11.5864V18.1337C18.1054 18.6466 17.731 19.0663 17.2734 19.0663ZM20.3796 19.0663H28.7003C29.158 19.0663 29.5324 18.6466 29.5324 18.1337V11.5864C29.5324 11.0735 29.158 10.6538 28.7003 10.6538H20.3796C19.9219 10.6538 19.5475 11.0735 19.5475 11.5864V18.1337C19.5475 18.6466 19.9219 19.0663 20.3796 19.0663ZM17.2734 8.8443H8.9526C8.49496 8.8443 8.12052 8.37469 8.12052 7.80072V4.66997C8.12052 4.096 8.49496 3.62639 8.9526 3.62639H17.2734C17.731 3.62639 18.1054 4.096 18.1054 4.66997V7.80072C18.1054 8.37469 17.731 8.8443 17.2734 8.8443ZM20.3796 8.8443H28.7003C29.158 8.8443 29.5324 8.37469 29.5324 7.80072V4.66997C29.5324 4.096 29.158 3.62639 28.7003 3.62639H20.3796C19.9219 3.62639 19.5475 4.096 19.5475 4.66997V7.80072C19.5475 8.37469 19.9219 8.8443 20.3796 8.8443ZM9.95192 31.6666C9.95192 32.6618 9.13763 33.4761 8.14239 33.4761C7.14715 33.4761 6.33287 32.6618 6.33287 31.6666V24.4285C6.33287 23.4333 7.14715 22.619 8.14239 22.619C9.13763 22.619 9.95192 23.4333 9.95192 24.4285V31.6666ZM15.3805 33.4761C16.3757 33.4761 17.19 32.6618 17.19 31.6666V24.4285C17.19 23.4333 16.3757 22.619 15.3805 22.619C14.3852 22.619 13.571 23.4333 13.571 24.4285V31.6666C13.571 32.6618 14.3852 33.4761 15.3805 33.4761ZM24.4281 31.6666C24.4281 32.6618 23.6138 33.4761 22.6186 33.4761C21.6233 33.4761 20.8091 32.6618 20.8091 31.6666V24.4285C20.8091 23.4333 21.6233 22.619 22.6186 22.619C23.6138 22.619 24.4281 23.4333 24.4281 24.4285V31.6666ZM29.8567 33.4761C30.8519 33.4761 31.6662 32.6618 31.6662 31.6666V24.4285C31.6662 23.4333 30.8519 22.619 29.8567 22.619C28.8614 22.619 28.0472 23.4333 28.0472 24.4285V31.6666C28.0472 32.6618 28.8614 33.4761 29.8567 33.4761Z" fill="url(#paint0_linear)"/>
</g>
<defs>
<linearGradient id="paint0_linear" x1="36.1137" y1="14.771" x2="1.36338" y2="14.9758" gradientUnits="userSpaceOnUse">
<stop offset="0.4375" stop-color="#12CAD6"/>
<stop offset="1" stop-color="#12B3D6"/>
</linearGradient>
</defs>
</svg>
