<svg width="41" height="37" viewBox="0 0 41 37" fill="none" xmlns="http://www.w3.org/2000/svg">
<g id="icon/maps/store_mall_directory_24px">
<path id="icon/maps/store_mall_directory_24px_2" fill-rule="evenodd" clip-rule="evenodd" d="M36.4454 4.625H4.55647C3.30369 4.625 2.27869 3.58438 2.27869 2.3125C2.27869 1.04062 3.30369 0 4.55647 0H36.4454C37.6981 0 38.7231 1.04062 38.7231 2.3125C38.7231 3.58438 37.6981 4.625 36.4454 4.625ZM39.0867 8.7875C38.8817 7.72375 37.9478 6.9375 36.8544 6.9375H4.14556C3.05222 6.9375 2.11833 7.72375 1.91333 8.7875L0 18.5V20.8125C0 22.0844 1.025 23.125 2.27778 23.125V34.6875C2.27778 35.9594 3.30278 37 4.55556 37H22.7778C24.0306 37 25.0556 35.9594 25.0556 34.6875V23.125H34.1667V34.6875C34.1667 35.9594 35.1917 37 36.4444 37C37.6972 37 38.7222 35.9594 38.7222 34.6875V23.125C39.975 23.125 41 22.0844 41 20.8125V18.5L39.0867 8.7875ZM20.5 32.375H6.83335V23.125H20.5V32.375Z" fill="url(#paint0_linear)"/>
</g>
<defs>
<linearGradient id="paint0_linear" x1="39.8885" y1="14.4232" x2="0.520442" y2="14.6832" gradientUnits="userSpaceOnUse">
<stop offset="0.4375" stop-color="#12CAD6"/>
<stop offset="1" stop-color="#12B3D6"/>
</linearGradient>
</defs>
</svg>
