<svg width="21" height="18" viewBox="0 0 21 18" fill="none" xmlns="http://www.w3.org/2000/svg">
<path fill-rule="evenodd" clip-rule="evenodd" d="M10.6302 2.36658C12.3568 0.410336 15.5551 -0.387357 18.1451 1.32199C19.5186 2.23363 20.382 3.77204 20.4408 5.38642C20.5684 9.071 17.2033 12.0244 12.0527 16.5446L11.9448 16.6396C11.1992 17.3043 10.0513 17.3043 9.30571 16.6491L9.2076 16.5636L9.14835 16.5115C4.03113 12.0112 0.682649 9.06635 0.819471 5.39592C0.878335 3.77204 1.74168 2.23363 3.11517 1.32199C5.70519 -0.396854 8.90347 0.410336 10.6302 2.36658ZM10.6301 14.9706L10.7241 14.8796C15.1991 10.9578 18.151 8.3644 18.151 5.73463C18.151 3.91473 16.7408 2.5498 14.8606 2.5498C13.4129 2.5498 12.0027 3.45066 11.5138 4.69729H9.75583C9.25757 3.45066 7.8474 2.5498 6.39964 2.5498C4.51942 2.5498 3.10925 3.91473 3.10925 5.73463C3.10925 8.3644 6.0612 10.9578 10.5361 14.8796L10.6301 14.9706Z" fill="url(#paint0_linear)"/>
<defs>
<linearGradient id="paint0_linear" x1="1.15556" y1="12.1594" x2="20.0884" y2="12.2317" gradientUnits="userSpaceOnUse">
<stop stop-color="#FE4C4C"/>
<stop offset="0.984375" stop-color="#FF7E21"/>
</linearGradient>
</defs>
</svg>
