<svg width="37" height="27" viewBox="0 0 37 27" fill="none" xmlns="http://www.w3.org/2000/svg">
<g filter="url(#filter0_d)">
<rect x="4.39404" y="0.529785" width="27.47" height="17.2631" rx="2.25" stroke="#EEE4E4" stroke-width="0.5"/>
<mask id="mask0" mask-type="alpha" maskUnits="userSpaceOnUse" x="4" y="0" width="28" height="18">
<rect x="4.64404" y="0.779785" width="26.97" height="16.7631" rx="2" fill="#C4C4C4"/>
</mask>
<g mask="url(#mask0)">
<path d="M32.5964 -1.04883H3.65967V8.39213H32.5964V-1.04883Z" fill="white"/>
<path d="M32.5954 8.3916H3.65869V17.8326H32.5954V8.3916Z" fill="#D52B1E"/>
<path d="M32.5954 5.24463H3.65869V11.5386H32.5954V5.24463Z" fill="#0039A6"/>
</g>
<mask id="mask1" mask-type="alpha" maskUnits="userSpaceOnUse" x="4" y="0" width="28" height="18">
<rect x="4.64404" y="0.779785" width="26.97" height="16.7631" rx="2" fill="#C4C4C4"/>
</mask>
<g mask="url(#mask1)">
<path d="M42.3815 -0.223145H4.38965V18.7728H42.3815V-0.223145Z" fill="#00AFCA"/>
<path d="M7.14526 5.85924C7.14526 6.1799 6.85736 6.34473 6.63113 6.34473C6.32635 6.34473 6.16407 6.16249 6.16407 5.92395C6.16407 5.78872 6.18884 5.70387 6.25119 5.57445C6.25119 5.57445 6.75396 4.52888 6.9497 4.12449C6.97411 4.07405 6.98199 4.01664 6.98199 3.93246C6.98199 3.80246 6.8559 3.69621 6.7237 3.69296C6.60318 3.68994 6.47187 3.80532 6.47187 3.93677C6.47187 4.09645 6.5547 4.16764 6.63975 4.16764C6.74441 4.16764 6.78612 4.12461 6.78612 4.05112C6.78612 3.99992 6.76139 3.97776 6.72585 3.97776C6.63608 3.97776 6.66128 4.09859 6.66128 4.09859C6.61669 4.08883 6.58006 4.04328 6.60101 3.98639C6.56839 3.97913 6.53784 3.96201 6.51384 3.93461C6.5379 3.91128 6.56551 3.89327 6.60101 3.88714C6.57999 3.81773 6.60808 3.78382 6.66881 3.76955C6.65656 3.79625 6.65613 3.82081 6.6602 3.84399C6.75581 3.8168 6.90235 3.86007 6.90235 4.02523C6.90235 4.18921 6.78854 4.32729 6.57517 4.29278C6.62593 4.31705 6.65175 4.36671 6.65696 4.42224C6.61821 4.40713 6.57517 4.40498 6.57517 4.40498C6.60011 4.44897 6.63476 4.48689 6.63328 4.57327C6.59372 4.55529 6.55698 4.52199 6.50629 4.54307C6.58585 4.69963 6.4881 4.91501 6.23939 4.96596C6.33041 4.85927 6.37499 4.74406 6.37499 4.62936C6.37499 4.25764 6.27168 4.19517 6.27168 3.93675C6.27168 3.82863 6.32726 3.71186 6.43741 3.63252V3.63683C6.3646 3.61734 6.31796 3.58149 6.29116 3.53278C6.4575 3.48561 6.6993 3.48647 6.82914 3.53755C6.97839 3.55484 7.08256 3.66935 7.11326 3.72745C7.14396 3.78553 7.20359 3.99566 7.11326 4.18485C7.01441 4.39191 6.54831 5.38021 6.40298 5.6909C6.37216 5.7568 6.35348 5.82668 6.35348 5.90235C6.35348 6.09266 6.52782 6.15911 6.62683 6.15911C6.74521 6.15911 6.86575 6.06893 6.86575 5.95629C6.86575 5.88493 6.82701 5.84194 6.77104 5.84194C6.63723 5.84194 6.64535 5.95578 6.67203 6.0275C6.58875 5.99005 6.54034 5.92321 6.55365 5.85273C6.5065 5.84627 6.46162 5.8239 6.42021 5.77721C6.45279 5.73606 6.49254 5.70496 6.55365 5.70385C6.52696 5.5945 6.60017 5.54825 6.67203 5.52261C6.6493 5.60286 6.63438 5.69522 6.77104 5.69522C6.87069 5.69522 6.94915 5.71248 6.9949 5.77721C6.99759 5.69091 7.00566 5.34999 7.00566 5.34999C7.0114 5.22188 6.83418 5.22554 6.72154 5.26368C6.76405 5.11612 6.85123 5.03633 7.05301 5.05655C7.00404 5.03605 6.95184 4.98997 6.95184 4.9012C6.95187 4.78107 7.04933 4.648 7.11331 4.60865L7.14529 5.85925L7.14526 5.85924Z" fill="#FEC50C"/>
<path d="M7.06226 5.85924C7.06226 6.1799 7.35016 6.34473 7.57639 6.34473C7.88117 6.34473 8.04345 6.16249 8.04345 5.92395C8.04345 5.78872 8.01868 5.70387 7.95633 5.57445C7.95633 5.57445 7.45356 4.52888 7.25782 4.12449C7.23341 4.07405 7.22553 4.01664 7.22553 3.93246C7.22553 3.80246 7.35162 3.69621 7.48382 3.69296C7.60434 3.68994 7.73565 3.80532 7.73565 3.93677C7.73565 4.09645 7.65282 4.16764 7.56777 4.16764C7.46311 4.16764 7.4214 4.12461 7.4214 4.05112C7.4214 3.99992 7.44613 3.97776 7.48167 3.97776C7.57144 3.97776 7.54624 4.09859 7.54624 4.09859C7.59083 4.08883 7.62746 4.04328 7.60651 3.98639C7.63913 3.97913 7.66968 3.96201 7.69368 3.93461C7.66962 3.91128 7.64201 3.89327 7.60651 3.88714C7.62753 3.81773 7.59944 3.78382 7.53871 3.76955C7.55096 3.79625 7.55139 3.82081 7.54732 3.84399C7.45171 3.8168 7.30517 3.86007 7.30517 4.02523C7.30517 4.18921 7.41898 4.32729 7.63235 4.29278C7.58159 4.31705 7.55577 4.36671 7.55056 4.42224C7.58931 4.40713 7.63235 4.40498 7.63235 4.40498C7.60741 4.44897 7.57276 4.48689 7.57424 4.57327C7.6138 4.55529 7.65054 4.52199 7.70123 4.54307C7.62167 4.69963 7.71942 4.91501 7.96813 4.96596C7.87711 4.85927 7.83253 4.74406 7.83253 4.62936C7.83253 4.25764 7.93584 4.19517 7.93584 3.93675C7.93584 3.82863 7.88026 3.71186 7.77011 3.63252V3.63683C7.84292 3.61734 7.88956 3.58149 7.91636 3.53278C7.75002 3.48561 7.50822 3.48647 7.37838 3.53755C7.22913 3.55484 7.12496 3.66935 7.09426 3.72745C7.06356 3.78553 7.00393 3.99566 7.09426 4.18485C7.19311 4.39191 7.65921 5.38021 7.80454 5.6909C7.83536 5.7568 7.85404 5.82668 7.85404 5.90235C7.85404 6.09266 7.6797 6.15911 7.58069 6.15911C7.46231 6.15911 7.34177 6.06893 7.34177 5.95629C7.34177 5.88493 7.38051 5.84194 7.43647 5.84194C7.57029 5.84194 7.56216 5.95578 7.53549 6.0275C7.61877 5.99005 7.66718 5.92321 7.65387 5.85273C7.70102 5.84627 7.7459 5.8239 7.78731 5.77721C7.75473 5.73606 7.71498 5.70496 7.65387 5.70385C7.68056 5.5945 7.60735 5.54825 7.53549 5.52261C7.55822 5.60286 7.57314 5.69522 7.43647 5.69522C7.33683 5.69522 7.25836 5.71248 7.21262 5.77721C7.20993 5.69091 7.20186 5.34999 7.20186 5.34999C7.19612 5.22188 7.37334 5.22554 7.48598 5.26368C7.44347 5.11612 7.35629 5.03633 7.15451 5.05655C7.20348 5.03605 7.25568 4.98997 7.25568 4.9012C7.25564 4.78107 7.15819 4.648 7.09421 4.60865L7.06222 5.85925L7.06226 5.85924Z" fill="#FEC50C"/>
<path d="M7.09488 2.39146C7.09488 2.39146 7.24692 2.26369 7.29855 2.32778C7.3816 2.43085 7.04322 2.94426 7.04322 3.12505C7.04322 3.42183 7.24124 3.50254 7.48575 3.5449C7.64982 3.57335 7.91699 3.533 7.91699 3.533C7.86669 3.46541 7.83397 3.44549 7.74921 3.44009C7.84357 3.3911 7.93966 3.28476 7.93966 3.1192C7.93966 2.86389 7.83457 2.75867 7.83457 2.47084C7.83457 2.31117 7.96549 2.10791 7.96549 2.10791C7.73408 2.13107 7.61937 2.34535 7.68463 2.5166C7.6478 2.52191 7.61435 2.51362 7.58562 2.48639C7.56869 2.53386 7.59542 2.58896 7.63124 2.63643C7.60239 2.65184 7.58121 2.6426 7.53527 2.63311C7.53963 2.68202 7.56893 2.73398 7.64063 2.78289C7.43257 2.72887 7.30456 2.87388 7.30456 3.02568C7.30456 3.14034 7.38491 3.22252 7.46345 3.22252C7.48883 3.22252 7.52611 3.21207 7.54715 3.19637C7.56198 3.22793 7.55434 3.27017 7.53906 3.30173C7.59663 3.28651 7.63317 3.25232 7.60716 3.18116C7.65137 3.1771 7.68654 3.16216 7.71047 3.13369C7.68623 3.10264 7.64946 3.08476 7.60716 3.08622C7.63935 3.01979 7.60347 2.98259 7.5512 2.95244C7.5512 2.95244 7.58444 3.08622 7.49954 3.08622C7.46136 3.08622 7.42657 3.07379 7.42657 3.01752C7.42657 2.96853 7.4694 2.90066 7.56841 2.90498C7.66742 2.90929 7.74769 2.97324 7.74769 3.13129C7.74769 3.2771 7.6301 3.34961 7.47513 3.35429C7.33538 3.35861 7.2299 3.2829 7.2299 3.13874C7.2299 2.94687 7.50689 2.50953 7.50689 2.33855C7.50689 2.21026 7.39152 2.13865 7.27864 2.13865C7.13228 2.13865 7.00879 2.28359 7.00879 2.28359L7.09477 2.3914L7.09488 2.39146Z" fill="#FEC50C"/>
<path d="M7.11313 2.39146C7.11313 2.39146 6.96108 2.26369 6.90945 2.32778C6.82641 2.43085 7.16479 2.94426 7.16479 3.12505C7.16479 3.42183 6.96677 3.50254 6.72226 3.5449C6.55819 3.57335 6.29102 3.533 6.29102 3.533C6.34132 3.46541 6.37404 3.44549 6.4588 3.44009C6.36443 3.3911 6.26834 3.28476 6.26834 3.1192C6.26834 2.86389 6.37344 2.75867 6.37344 2.47084C6.37344 2.31117 6.24252 2.10791 6.24252 2.10791C6.47393 2.13107 6.58863 2.34535 6.52337 2.5166C6.56021 2.52191 6.59366 2.51362 6.62238 2.48639C6.63932 2.53386 6.61258 2.58896 6.57677 2.63643C6.60561 2.65184 6.6268 2.6426 6.67273 2.63311C6.66838 2.68202 6.63907 2.73398 6.56738 2.78289C6.77543 2.72887 6.90345 2.87388 6.90345 3.02568C6.90345 3.14034 6.8231 3.22252 6.74456 3.22252C6.71918 3.22252 6.68189 3.21207 6.66086 3.19637C6.64603 3.22793 6.65367 3.27017 6.66894 3.30173C6.61138 3.28651 6.57484 3.25232 6.60085 3.18116C6.55664 3.1771 6.52146 3.16216 6.49754 3.13369C6.52178 3.10264 6.55855 3.08476 6.60085 3.08622C6.56866 3.01979 6.60453 2.98259 6.65681 2.95244C6.65681 2.95244 6.62357 3.08622 6.70847 3.08622C6.74665 3.08622 6.78144 3.07379 6.78144 3.01752C6.78144 2.96853 6.7386 2.90066 6.6396 2.90498C6.54058 2.90929 6.46031 2.97324 6.46031 3.13129C6.46031 3.2771 6.57791 3.34961 6.73287 3.35429C6.87263 3.35861 6.97811 3.2829 6.97811 3.13874C6.97811 2.94687 6.70112 2.50953 6.70112 2.33855C6.70112 2.21026 6.81649 2.13865 6.92937 2.13865C7.07573 2.13865 7.19922 2.28359 7.19922 2.28359L7.11323 2.3914L7.11313 2.39146Z" fill="#FEC50C"/>
<path d="M7.14477 11.5023C7.14477 11.823 6.85687 11.9878 6.63065 11.9878C6.32586 11.9878 6.16358 11.8056 6.16358 11.567C6.16358 11.4318 6.18835 11.3469 6.25071 11.2175C6.25071 11.2175 6.75347 10.1719 6.94921 9.76755C6.97362 9.71712 6.9815 9.6597 6.9815 9.57552C6.9815 9.44553 6.85541 9.33928 6.72321 9.33602C6.60269 9.33301 6.47138 9.44838 6.47138 9.57984C6.47138 9.73952 6.55421 9.8107 6.63926 9.8107C6.74392 9.8107 6.78563 9.76768 6.78563 9.69419C6.78563 9.64299 6.7609 9.62083 6.72536 9.62083C6.63559 9.62083 6.66079 9.74166 6.66079 9.74166C6.6162 9.7319 6.57958 9.68634 6.60052 9.62946C6.56791 9.6222 6.53735 9.60508 6.51335 9.57767C6.53741 9.55434 6.56502 9.53633 6.60052 9.53021C6.5795 9.4608 6.60759 9.42689 6.66832 9.41261C6.65607 9.43931 6.65565 9.46387 6.65971 9.48705C6.75532 9.45987 6.90186 9.50313 6.90186 9.6683C6.90186 9.83228 6.78805 9.97035 6.57468 9.93584C6.62544 9.96011 6.65126 10.0098 6.65647 10.0653C6.61772 10.0502 6.57468 10.048 6.57468 10.048C6.59962 10.092 6.63428 10.13 6.63279 10.2163C6.59323 10.1984 6.55649 10.1651 6.5058 10.1861C6.58536 10.3427 6.48761 10.5581 6.2389 10.609C6.32992 10.5023 6.3745 10.3871 6.3745 10.2724C6.3745 9.90071 6.27119 9.83824 6.27119 9.57981C6.27119 9.47169 6.32677 9.35493 6.43692 9.27558V9.2799C6.36411 9.2604 6.31747 9.22455 6.29067 9.17584C6.45701 9.12867 6.69881 9.12954 6.82865 9.18062C6.9779 9.1979 7.08207 9.31241 7.11277 9.37052C7.14347 9.42859 7.2031 9.63873 7.11277 9.82792C7.01392 10.035 6.54782 11.0233 6.40249 11.334C6.37167 11.3999 6.35299 11.4697 6.35299 11.5454C6.35299 11.7357 6.52733 11.8022 6.62635 11.8022C6.74473 11.8022 6.86526 11.712 6.86526 11.5994C6.86526 11.528 6.82652 11.485 6.77056 11.485C6.63674 11.485 6.64487 11.5988 6.67155 11.6706C6.58826 11.6331 6.53985 11.5663 6.55316 11.4958C6.50601 11.4893 6.46113 11.467 6.41972 11.4203C6.4523 11.3791 6.49205 11.348 6.55316 11.3469C6.52647 11.2376 6.59969 11.1913 6.67155 11.1657C6.64881 11.2459 6.63389 11.3383 6.77056 11.3383C6.8702 11.3383 6.94867 11.3555 6.99441 11.4203C6.9971 11.334 7.00517 10.9931 7.00517 10.9931C7.01091 10.8649 6.83369 10.8686 6.72105 10.9067C6.76356 10.7592 6.85074 10.6794 7.05252 10.6996C7.00355 10.6791 6.95135 10.633 6.95135 10.5443C6.95139 10.4241 7.04884 10.2911 7.11282 10.2517L7.14481 11.5023L7.14477 11.5023Z" fill="#FEC50C"/>
<path d="M7.06177 11.5023C7.06177 11.823 7.34967 11.9878 7.5759 11.9878C7.88069 11.9878 8.04296 11.8056 8.04296 11.567C8.04296 11.4318 8.01819 11.3469 7.95584 11.2175C7.95584 11.2175 7.45307 10.1719 7.25733 9.76755C7.23292 9.71712 7.22505 9.6597 7.22505 9.57552C7.22505 9.44553 7.35113 9.33928 7.48333 9.33602C7.60385 9.33301 7.73517 9.44838 7.73517 9.57984C7.73517 9.73952 7.65233 9.8107 7.56728 9.8107C7.46262 9.8107 7.42092 9.76768 7.42092 9.69419C7.42092 9.64299 7.44565 9.62083 7.48118 9.62083C7.57095 9.62083 7.54575 9.74166 7.54575 9.74166C7.59034 9.7319 7.62697 9.68634 7.60602 9.62946C7.63864 9.6222 7.66919 9.60508 7.69319 9.57767C7.66913 9.55434 7.64153 9.53633 7.60602 9.53021C7.62704 9.4608 7.59895 9.42689 7.53822 9.41261C7.55048 9.43931 7.5509 9.46387 7.54683 9.48705C7.45122 9.45987 7.30469 9.50313 7.30469 9.6683C7.30469 9.83228 7.41849 9.97035 7.63187 9.93584C7.5811 9.96011 7.55529 10.0098 7.55007 10.0653C7.58882 10.0502 7.63187 10.048 7.63187 10.048C7.60692 10.092 7.57227 10.13 7.57375 10.2163C7.61331 10.1984 7.65005 10.1651 7.70074 10.1861C7.62118 10.3427 7.71893 10.5581 7.96764 10.609C7.87662 10.5023 7.83204 10.3871 7.83204 10.2724C7.83204 9.90071 7.93536 9.83824 7.93536 9.57981C7.93536 9.47169 7.87978 9.35493 7.76962 9.27558V9.2799C7.84243 9.2604 7.88907 9.22455 7.91587 9.17584C7.74953 9.12867 7.50773 9.12954 7.37789 9.18062C7.22864 9.1979 7.12447 9.31241 7.09377 9.37052C7.06307 9.42859 7.00344 9.63873 7.09377 9.82792C7.19263 10.035 7.65872 11.0233 7.80405 11.334C7.83487 11.3999 7.85355 11.4697 7.85355 11.5454C7.85355 11.7357 7.67921 11.8022 7.5802 11.8022C7.46182 11.8022 7.34128 11.712 7.34128 11.5994C7.34128 11.528 7.38003 11.485 7.43599 11.485C7.5698 11.485 7.56168 11.5988 7.535 11.6706C7.61828 11.6331 7.66669 11.5663 7.65338 11.4958C7.70053 11.4893 7.74541 11.467 7.78683 11.4203C7.75424 11.3791 7.71449 11.348 7.65338 11.3469C7.68007 11.2376 7.60686 11.1913 7.535 11.1657C7.55773 11.2459 7.57265 11.3383 7.43599 11.3383C7.33634 11.3383 7.25788 11.3555 7.21214 11.4203C7.20945 11.334 7.20137 10.9931 7.20137 10.9931C7.19563 10.8649 7.37285 10.8686 7.48549 10.9067C7.44298 10.7592 7.3558 10.6794 7.15402 10.6996C7.20299 10.6791 7.25519 10.633 7.25519 10.5443C7.25516 10.4241 7.1577 10.2911 7.09373 10.2517L7.06174 11.5023L7.06177 11.5023Z" fill="#FEC50C"/>
<path d="M7.14428 6.86391C7.14428 6.54324 6.85638 6.37842 6.63016 6.37842C6.32537 6.37842 6.16309 6.56065 6.16309 6.7992C6.16309 6.93442 6.18787 7.01927 6.25022 7.14869C6.25022 7.14869 6.75298 8.19426 6.94872 8.59866C6.97313 8.64909 6.98101 8.70651 6.98101 8.79069C6.98101 8.92068 6.85492 9.02693 6.72272 9.03019C6.6022 9.0332 6.47089 8.91783 6.47089 8.78637C6.47089 8.6267 6.55372 8.55551 6.63878 8.55551C6.74344 8.55551 6.78514 8.59853 6.78514 8.67202C6.78514 8.72323 6.76041 8.74538 6.72487 8.74538C6.6351 8.74538 6.6603 8.62455 6.6603 8.62455C6.61571 8.63431 6.57909 8.67987 6.60003 8.73675C6.56742 8.74401 6.53687 8.76114 6.51286 8.78854C6.53693 8.81187 6.56453 8.82988 6.60003 8.836C6.57901 8.90541 6.6071 8.93932 6.66783 8.9536C6.65558 8.9269 6.65516 8.90234 6.65922 8.87916C6.75484 8.90635 6.90137 8.86308 6.90137 8.69792C6.90137 8.53393 6.78757 8.39586 6.57419 8.43037C6.62495 8.4061 6.65077 8.35644 6.65598 8.30091C6.61724 8.31601 6.57419 8.31817 6.57419 8.31817C6.59914 8.27418 6.63379 8.23626 6.6323 8.14987C6.59274 8.16786 6.55601 8.20116 6.50531 8.18008C6.58488 8.02351 6.48712 7.80814 6.23841 7.75718C6.32944 7.86388 6.37401 7.97909 6.37401 8.09379C6.37401 8.46551 6.2707 8.52797 6.2707 8.7864C6.2707 8.89452 6.32628 9.01128 6.43643 9.09063V9.08631C6.36363 9.10581 6.31699 9.14166 6.29018 9.19037C6.45652 9.23754 6.69832 9.23667 6.82817 9.18559C6.97741 9.16831 7.08158 9.0538 7.11228 8.99569C7.14298 8.93762 7.20261 8.72749 7.11228 8.53829C7.01343 8.33124 6.54733 7.34294 6.40201 7.03224C6.37118 6.96635 6.3525 6.89646 6.3525 6.82079C6.3525 6.63048 6.52685 6.56403 6.62586 6.56403C6.74424 6.56403 6.86477 6.65422 6.86477 6.76685C6.86477 6.83822 6.82603 6.88121 6.77007 6.88121C6.63625 6.88121 6.64438 6.76737 6.67106 6.69565C6.58777 6.73309 6.53937 6.79993 6.55268 6.87042C6.50552 6.87688 6.46064 6.89924 6.41923 6.94594C6.45182 6.98708 6.49156 7.01819 6.55268 7.0193C6.52598 7.12864 6.5992 7.17489 6.67106 7.20054C6.64832 7.12028 6.6334 7.02792 6.77007 7.02792C6.86971 7.02792 6.94818 7.01066 6.99392 6.94593C6.99661 7.03224 7.00468 7.37316 7.00468 7.37316C7.01042 7.50127 6.83321 7.4976 6.72056 7.45946C6.76307 7.60703 6.85026 7.68681 7.05203 7.6666C7.00306 7.6871 6.95087 7.73318 6.95087 7.82195C6.9509 7.94207 7.04835 8.07515 7.11233 8.11449L7.14432 6.86389L7.14428 6.86391Z" fill="#FEC50C"/>
<path d="M7.06129 6.86391C7.06129 6.54324 7.34918 6.37842 7.57541 6.37842C7.8802 6.37842 8.04248 6.56065 8.04248 6.7992C8.04248 6.93442 8.0177 7.01927 7.95535 7.14869C7.95535 7.14869 7.45258 8.19426 7.25684 8.59866C7.23243 8.64909 7.22456 8.70651 7.22456 8.79069C7.22456 8.92068 7.35064 9.02693 7.48285 9.03019C7.60336 9.0332 7.73468 8.91783 7.73468 8.78637C7.73468 8.6267 7.65185 8.55551 7.56679 8.55551C7.46213 8.55551 7.42043 8.59853 7.42043 8.67202C7.42043 8.72323 7.44516 8.74538 7.48069 8.74538C7.57046 8.74538 7.54527 8.62455 7.54527 8.62455C7.58985 8.63431 7.62648 8.67987 7.60553 8.73675C7.63815 8.74401 7.6687 8.76114 7.69271 8.78854C7.66864 8.81187 7.64104 8.82988 7.60553 8.836C7.62656 8.90541 7.59846 8.93932 7.53773 8.9536C7.54999 8.9269 7.55041 8.90234 7.54634 8.87916C7.45073 8.90635 7.3042 8.86308 7.3042 8.69792C7.3042 8.53393 7.418 8.39586 7.63138 8.43037C7.58061 8.4061 7.5548 8.35644 7.54959 8.30091C7.58833 8.31601 7.63138 8.31817 7.63138 8.31817C7.60643 8.27418 7.57178 8.23626 7.57326 8.14987C7.61282 8.16786 7.64956 8.20116 7.70026 8.18008C7.62069 8.02351 7.71844 7.80814 7.96715 7.75718C7.87613 7.86388 7.83155 7.97909 7.83155 8.09379C7.83155 8.46551 7.93487 8.52797 7.93487 8.7864C7.93487 8.89452 7.87929 9.01128 7.76913 9.09063V9.08631C7.84194 9.10581 7.88858 9.14166 7.91539 9.19037C7.74905 9.23754 7.50724 9.23667 7.3774 9.18559C7.22815 9.16831 7.12398 9.0538 7.09328 8.99569C7.06258 8.93762 7.00296 8.72749 7.09328 8.53829C7.19214 8.33124 7.65824 7.34294 7.80356 7.03224C7.83438 6.96635 7.85307 6.89646 7.85307 6.82079C7.85307 6.63048 7.67872 6.56403 7.57971 6.56403C7.46133 6.56403 7.34079 6.65422 7.34079 6.76685C7.34079 6.83822 7.37954 6.88121 7.4355 6.88121C7.56932 6.88121 7.56119 6.76737 7.53451 6.69565C7.61779 6.73309 7.6662 6.79993 7.65289 6.87042C7.70004 6.87688 7.74492 6.89924 7.78634 6.94594C7.75375 6.98708 7.714 7.01819 7.65289 7.0193C7.67958 7.12864 7.60637 7.17489 7.53451 7.20054C7.55724 7.12028 7.57217 7.02792 7.4355 7.02792C7.33585 7.02792 7.25739 7.01066 7.21165 6.94593C7.20896 7.03224 7.20089 7.37316 7.20089 7.37316C7.19515 7.50127 7.37236 7.4976 7.485 7.45946C7.44249 7.60703 7.35531 7.68681 7.15354 7.6666C7.2025 7.6871 7.2547 7.73318 7.2547 7.82195C7.25467 7.94207 7.15721 8.07515 7.09324 8.11449L7.06125 6.86389L7.06129 6.86391Z" fill="#FEC50C"/>
<path d="M7.14477 12.6129C7.14477 12.2923 6.85687 12.1274 6.63065 12.1274C6.32586 12.1274 6.16358 12.3097 6.16358 12.5482C6.16358 12.6834 6.18835 12.7683 6.25071 12.8977C6.25071 12.8977 6.75347 13.9433 6.94921 14.3477C6.97362 14.3981 6.9815 14.4555 6.9815 14.5397C6.9815 14.6697 6.85541 14.776 6.72321 14.7792C6.60269 14.7822 6.47138 14.6669 6.47138 14.5354C6.47138 14.3757 6.55421 14.3045 6.63926 14.3045C6.74392 14.3045 6.78563 14.3476 6.78563 14.421C6.78563 14.4722 6.7609 14.4944 6.72536 14.4944C6.63559 14.4944 6.66079 14.3736 6.66079 14.3736C6.6162 14.3833 6.57958 14.4289 6.60052 14.4858C6.56791 14.493 6.53735 14.5102 6.51335 14.5376C6.53741 14.5609 6.56502 14.5789 6.60052 14.585C6.5795 14.6544 6.60759 14.6883 6.66832 14.7026C6.65607 14.6759 6.65565 14.6514 6.65971 14.6282C6.75532 14.6554 6.90186 14.6121 6.90186 14.4469C6.90186 14.283 6.78805 14.1449 6.57468 14.1794C6.62544 14.1551 6.65126 14.1055 6.65647 14.0499C6.61772 14.065 6.57468 14.0672 6.57468 14.0672C6.59962 14.0232 6.63428 13.9853 6.63279 13.8989C6.59323 13.9169 6.55649 13.9502 6.5058 13.9291C6.58536 13.7725 6.48761 13.5572 6.2389 13.5062C6.32992 13.6129 6.3745 13.7281 6.3745 13.8428C6.3745 14.2145 6.27119 14.277 6.27119 14.5354C6.27119 14.6435 6.32677 14.7603 6.43692 14.8397V14.8353C6.36411 14.8548 6.31747 14.8907 6.29067 14.9394C6.45701 14.9866 6.69881 14.9857 6.82865 14.9346C6.9779 14.9173 7.08207 14.8028 7.11277 14.7447C7.14347 14.6866 7.2031 14.4765 7.11277 14.2873C7.01392 14.0803 6.54782 13.092 6.40249 12.7813C6.37167 12.7154 6.35299 12.6455 6.35299 12.5698C6.35299 12.3795 6.52733 12.3131 6.62635 12.3131C6.74473 12.3131 6.86526 12.4032 6.86526 12.5159C6.86526 12.5872 6.82652 12.6302 6.77056 12.6302C6.63674 12.6302 6.64487 12.5164 6.67155 12.4447C6.58826 12.4821 6.53985 12.549 6.55316 12.6194C6.50601 12.6259 6.46113 12.6483 6.41972 12.695C6.4523 12.7361 6.49205 12.7672 6.55316 12.7683C6.52647 12.8777 6.59969 12.9239 6.67155 12.9496C6.64881 12.8693 6.63389 12.7769 6.77056 12.7769C6.8702 12.7769 6.94867 12.7597 6.99441 12.695C6.9971 12.7813 7.00517 13.1222 7.00517 13.1222C7.01091 13.2503 6.83369 13.2466 6.72105 13.2085C6.76356 13.3561 6.85074 13.4358 7.05252 13.4156C7.00355 13.4361 6.95135 13.4822 6.95135 13.571C6.95139 13.6911 7.04884 13.8242 7.11282 13.8635L7.14481 12.6129L7.14477 12.6129Z" fill="#FEC50C"/>
<path d="M7.06177 12.6129C7.06177 12.2923 7.34967 12.1274 7.5759 12.1274C7.88069 12.1274 8.04296 12.3097 8.04296 12.5482C8.04296 12.6834 8.01819 12.7683 7.95584 12.8977C7.95584 12.8977 7.45307 13.9433 7.25733 14.3477C7.23292 14.3981 7.22505 14.4555 7.22505 14.5397C7.22505 14.6697 7.35113 14.776 7.48333 14.7792C7.60385 14.7822 7.73517 14.6669 7.73517 14.5354C7.73517 14.3757 7.65233 14.3045 7.56728 14.3045C7.46262 14.3045 7.42092 14.3476 7.42092 14.421C7.42092 14.4722 7.44565 14.4944 7.48118 14.4944C7.57095 14.4944 7.54575 14.3736 7.54575 14.3736C7.59034 14.3833 7.62697 14.4289 7.60602 14.4858C7.63864 14.493 7.66919 14.5102 7.69319 14.5376C7.66913 14.5609 7.64153 14.5789 7.60602 14.585C7.62704 14.6544 7.59895 14.6883 7.53822 14.7026C7.55048 14.6759 7.5509 14.6514 7.54683 14.6282C7.45122 14.6554 7.30469 14.6121 7.30469 14.4469C7.30469 14.283 7.41849 14.1449 7.63187 14.1794C7.5811 14.1551 7.55529 14.1055 7.55007 14.0499C7.58882 14.065 7.63187 14.0672 7.63187 14.0672C7.60692 14.0232 7.57227 13.9853 7.57375 13.8989C7.61331 13.9169 7.65005 13.9502 7.70074 13.9291C7.62118 13.7725 7.71893 13.5572 7.96764 13.5062C7.87662 13.6129 7.83204 13.7281 7.83204 13.8428C7.83204 14.2145 7.93536 14.277 7.93536 14.5354C7.93536 14.6435 7.87978 14.7603 7.76962 14.8397V14.8353C7.84243 14.8548 7.88907 14.8907 7.91587 14.9394C7.74953 14.9866 7.50773 14.9857 7.37789 14.9346C7.22864 14.9173 7.12447 14.8028 7.09377 14.7447C7.06307 14.6866 7.00344 14.4765 7.09377 14.2873C7.19263 14.0803 7.65872 13.092 7.80405 12.7813C7.83487 12.7154 7.85355 12.6455 7.85355 12.5698C7.85355 12.3795 7.67921 12.3131 7.5802 12.3131C7.46182 12.3131 7.34128 12.4032 7.34128 12.5159C7.34128 12.5872 7.38003 12.6302 7.43599 12.6302C7.5698 12.6302 7.56168 12.5164 7.535 12.4447C7.61828 12.4821 7.66669 12.549 7.65338 12.6194C7.70053 12.6259 7.74541 12.6483 7.78683 12.695C7.75424 12.7361 7.71449 12.7672 7.65338 12.7683C7.68007 12.8777 7.60686 12.9239 7.535 12.9496C7.55773 12.8693 7.57265 12.7769 7.43599 12.7769C7.33634 12.7769 7.25788 12.7597 7.21214 12.695C7.20945 12.7813 7.20137 13.1222 7.20137 13.1222C7.19563 13.2503 7.37285 13.2466 7.48549 13.2085C7.44298 13.3561 7.3558 13.4358 7.15402 13.4156C7.20299 13.4361 7.25519 13.4822 7.25519 13.571C7.25516 13.6911 7.1577 13.8242 7.09373 13.8635L7.06174 12.6129L7.06177 12.6129Z" fill="#FEC50C"/>
<path d="M7.11264 16.0807C7.11264 16.0807 6.9606 16.2085 6.90897 16.1444C6.82592 16.0413 7.1643 15.5279 7.1643 15.3471C7.1643 15.0503 6.96628 14.9696 6.72177 14.9273C6.5577 14.8988 6.29053 14.9392 6.29053 14.9392C6.34083 15.0068 6.37355 15.0267 6.45831 15.0321C6.36395 15.0811 6.26785 15.1874 6.26785 15.353C6.26785 15.6083 6.37295 15.7135 6.37295 16.0013C6.37295 16.161 6.24203 16.3643 6.24203 16.3643C6.47344 16.3411 6.58815 16.1268 6.52288 15.9556C6.55972 15.9503 6.59317 15.9586 6.6219 15.9858C6.63883 15.9383 6.6121 15.8832 6.57628 15.8357C6.60513 15.8203 6.62631 15.8296 6.67225 15.8391C6.66789 15.7901 6.63858 15.7382 6.56689 15.6893C6.77495 15.7433 6.90296 15.5983 6.90296 15.4465C6.90296 15.3318 6.82261 15.2496 6.74407 15.2496C6.71869 15.2496 6.68141 15.2601 6.66037 15.2758C6.64554 15.2442 6.65318 15.202 6.66846 15.1704C6.61089 15.1857 6.57435 15.2198 6.60036 15.291C6.55615 15.2951 6.52098 15.31 6.49705 15.3385C6.52129 15.3695 6.55806 15.3874 6.60036 15.3859C6.56817 15.4524 6.60405 15.4896 6.65632 15.5197C6.65632 15.5197 6.62308 15.386 6.70798 15.386C6.74616 15.386 6.78095 15.3984 6.78095 15.4546C6.78095 15.5036 6.73812 15.5715 6.63911 15.5672C6.5401 15.5629 6.45983 15.4989 6.45983 15.3409C6.45983 15.1951 6.57742 15.1226 6.73239 15.1179C6.87214 15.1136 6.97762 15.1893 6.97762 15.3334C6.97762 15.5253 6.70063 15.9626 6.70063 16.1336C6.70063 16.2619 6.816 16.3335 6.92888 16.3335C7.07524 16.3335 7.19873 16.1886 7.19873 16.1886L7.11274 16.0808L7.11264 16.0807Z" fill="#FEC50C"/>
<path d="M7.14615 16.0807C7.14615 16.0807 7.29819 16.2085 7.34982 16.1444C7.43287 16.0413 7.09449 15.5279 7.09449 15.3471C7.09449 15.0503 7.29251 14.9696 7.53702 14.9273C7.70109 14.8988 7.96826 14.9392 7.96826 14.9392C7.91796 15.0068 7.88524 15.0267 7.80048 15.0321C7.89484 15.0811 7.99093 15.1874 7.99093 15.353C7.99093 15.6083 7.88584 15.7135 7.88584 16.0013C7.88584 16.161 8.01676 16.3643 8.01676 16.3643C7.78535 16.3411 7.67064 16.1268 7.7359 15.9556C7.69907 15.9503 7.66562 15.9586 7.63689 15.9858C7.61996 15.9383 7.64669 15.8832 7.68251 15.8357C7.65366 15.8203 7.63248 15.8296 7.58654 15.8391C7.5909 15.7901 7.6202 15.7382 7.6919 15.6893C7.48384 15.7433 7.35583 15.5983 7.35583 15.4465C7.35583 15.3318 7.43618 15.2496 7.51472 15.2496C7.5401 15.2496 7.57738 15.2601 7.59842 15.2758C7.61325 15.2442 7.60561 15.202 7.59033 15.1704C7.6479 15.1857 7.68444 15.2198 7.65843 15.291C7.70264 15.2951 7.73781 15.31 7.76174 15.3385C7.7375 15.3695 7.70073 15.3874 7.65843 15.3859C7.69062 15.4524 7.65474 15.4896 7.60247 15.5197C7.60247 15.5197 7.63571 15.386 7.55081 15.386C7.51263 15.386 7.47784 15.3984 7.47784 15.4546C7.47784 15.5036 7.52067 15.5715 7.61968 15.5672C7.71869 15.5629 7.79896 15.4989 7.79896 15.3409C7.79896 15.1951 7.68137 15.1226 7.5264 15.1179C7.38665 15.1136 7.28117 15.1893 7.28117 15.3334C7.28117 15.5253 7.55815 15.9626 7.55815 16.1336C7.55815 16.2619 7.44279 16.3335 7.32991 16.3335C7.18355 16.3335 7.06006 16.1886 7.06006 16.1886L7.14604 16.0808L7.14615 16.0807Z" fill="#FEC50C"/>
<path d="M19.3851 4.90817C19.5344 4.93595 19.6088 4.85395 19.631 4.74221C19.6606 4.59324 19.5969 3.84299 19.5969 3.84299C19.5969 3.84299 19.251 4.51175 19.2213 4.66072C19.1991 4.77246 19.2361 4.87854 19.3851 4.90817Z" fill="#FEC50C"/>
<path d="M19.9297 5.07305C20.0707 5.12942 20.1597 5.06351 20.2033 4.95827C20.2614 4.81793 20.3453 4.06967 20.3453 4.06967C20.3453 4.06967 19.8755 4.65808 19.8174 4.79841C19.7738 4.90366 19.7894 5.01492 19.9297 5.07305Z" fill="#FEC50C"/>
<path d="M20.4326 5.34132C20.5599 5.42413 20.66 5.37684 20.7233 5.28212C20.8077 5.15582 21.036 4.4383 21.036 4.4383C21.036 4.4383 20.4604 4.92375 20.376 5.05005C20.3127 5.14477 20.3063 5.25693 20.4326 5.34132Z" fill="#FEC50C"/>
<path d="M20.8719 5.70275C20.9807 5.80881 21.0881 5.78196 21.1686 5.7014C21.276 5.594 21.6399 4.93479 21.6399 4.93479C21.6399 4.93479 20.9807 5.29863 20.8733 5.40604C20.7927 5.48659 20.7645 5.59534 20.8719 5.70275Z" fill="#FEC50C"/>
<path d="M21.2325 6.14227C21.3185 6.26751 21.4291 6.26213 21.5238 6.19884C21.6501 6.11445 22.1356 5.53889 22.1356 5.53889C22.1356 5.53889 21.418 5.76713 21.2917 5.85152C21.197 5.91481 21.1482 6.01597 21.2325 6.14227Z" fill="#FEC50C"/>
<path d="M21.5009 6.64519C21.5607 6.7848 21.6703 6.80109 21.7755 6.7575C21.9158 6.69937 22.5042 6.22958 22.5042 6.22958C22.5042 6.22958 21.756 6.31345 21.6156 6.37158C21.5104 6.41518 21.4427 6.50486 21.5009 6.64519Z" fill="#FEC50C"/>
<path d="M21.6665 7.18869C21.698 7.3373 21.8022 7.37464 21.9139 7.35242C22.0629 7.32279 22.7317 6.97682 22.7317 6.97682C22.7317 6.97682 21.9814 6.9131 21.8324 6.94273C21.7207 6.96496 21.6368 7.03972 21.6665 7.18869Z" fill="#FEC50C"/>
<path d="M21.7216 7.75573C21.7235 7.90763 21.8184 7.96459 21.9323 7.96459C22.0842 7.96459 22.8076 7.75573 22.8076 7.75573C22.8076 7.75573 22.0842 7.54688 21.9323 7.54688C21.8184 7.54688 21.7216 7.60384 21.7216 7.75573Z" fill="#FEC50C"/>
<path d="M21.6665 8.32207C21.6388 8.47141 21.7208 8.5458 21.8325 8.56803C21.9815 8.59766 22.7317 8.53394 22.7317 8.53394C22.7317 8.53394 22.063 8.18797 21.914 8.15834C21.8023 8.13611 21.6962 8.17309 21.6665 8.32207Z" fill="#FEC50C"/>
<path d="M21.5012 8.8667C21.4448 9.00776 21.5107 9.09671 21.616 9.14031C21.7563 9.19844 22.5045 9.28231 22.5045 9.28231C22.5045 9.28231 21.9161 8.81252 21.7758 8.75439C21.6706 8.7108 21.5593 8.72637 21.5012 8.8667Z" fill="#FEC50C"/>
<path d="M21.2329 9.36862C21.1501 9.49597 21.1974 9.59607 21.2921 9.65937C21.4184 9.74375 22.1359 9.972 22.1359 9.972C22.1359 9.972 21.6505 9.39644 21.5242 9.31205C21.4294 9.24876 21.3173 9.24232 21.2329 9.36862Z" fill="#FEC50C"/>
<path d="M20.8715 9.80844C20.7654 9.91719 20.7923 10.0246 20.8728 10.1052C20.9802 10.2126 21.6394 10.5764 21.6394 10.5764C21.6394 10.5764 21.2756 9.91719 21.1682 9.80978C21.0876 9.72923 20.9789 9.70103 20.8715 9.80844Z" fill="#FEC50C"/>
<path d="M20.4319 10.1691C20.3067 10.255 20.3121 10.3656 20.3754 10.4603C20.4598 10.5866 21.0353 11.0721 21.0353 11.0721C21.0353 11.0721 20.8071 10.3546 20.7227 10.2283C20.6594 10.1336 20.5582 10.0847 20.4319 10.1691Z" fill="#FEC50C"/>
<path d="M19.9305 10.4374C19.7909 10.4973 19.7746 10.6068 19.8182 10.712C19.8763 10.8524 20.3461 11.4408 20.3461 11.4408C20.3461 11.4408 20.2622 10.6925 20.2041 10.5522C20.1605 10.4469 20.0708 10.3793 19.9305 10.4374Z" fill="#FEC50C"/>
<path d="M17.2061 10.1694C17.0787 10.0866 16.9786 10.1339 16.9153 10.2286C16.831 10.3549 16.6027 11.0724 16.6027 11.0724C16.6027 11.0724 17.1783 10.587 17.2627 10.4607C17.3259 10.366 17.3324 10.2538 17.2061 10.1694Z" fill="#FEC50C"/>
<path d="M16.7668 9.80848C16.658 9.70242 16.5506 9.72927 16.47 9.80983C16.3626 9.91723 15.9988 10.5764 15.9988 10.5764C15.9988 10.5764 16.658 10.2126 16.7654 10.1052C16.846 10.0246 16.8742 9.91589 16.7668 9.80848Z" fill="#FEC50C"/>
<path d="M16.4051 9.36799C16.3192 9.24274 16.2086 9.24813 16.1139 9.31142C15.9876 9.39581 15.5021 9.97136 15.5021 9.97136C15.5021 9.97136 16.2196 9.74312 16.3459 9.65873C16.4407 9.59544 16.4895 9.49428 16.4051 9.36799Z" fill="#FEC50C"/>
<path d="M16.1368 8.86653C16.077 8.72692 15.9674 8.71063 15.8622 8.75422C15.7219 8.81235 15.1335 9.28214 15.1335 9.28214C15.1335 9.28214 15.8817 9.19826 16.022 9.14014C16.1273 9.09654 16.195 9.00686 16.1368 8.86653Z" fill="#FEC50C"/>
<path d="M15.9712 8.32156C15.9397 8.17295 15.8355 8.13561 15.7238 8.15783C15.5748 8.18747 14.906 8.53344 14.906 8.53344C14.906 8.53344 15.6563 8.59715 15.8053 8.56752C15.917 8.54529 16.0008 8.47054 15.9712 8.32156Z" fill="#FEC50C"/>
<path d="M15.9156 7.75599C15.9137 7.60409 15.8188 7.54713 15.7049 7.54713C15.553 7.54713 14.8296 7.75599 14.8296 7.75599C14.8296 7.75599 15.553 7.96484 15.7049 7.96484C15.8188 7.96484 15.9156 7.90788 15.9156 7.75599Z" fill="#FEC50C"/>
<path d="M15.9717 7.18916C15.9994 7.03982 15.9174 6.96543 15.8057 6.94321C15.6567 6.91357 14.9065 6.97729 14.9065 6.97729C14.9065 6.97729 15.5752 7.32326 15.7242 7.35289C15.8359 7.37512 15.942 7.33814 15.9717 7.18916Z" fill="#FEC50C"/>
<path d="M16.1375 6.64453C16.1939 6.50347 16.128 6.41452 16.0227 6.37092C15.8824 6.31279 15.1341 6.22892 15.1341 6.22892C15.1341 6.22892 15.7225 6.69871 15.8629 6.75684C15.9681 6.80043 16.0794 6.78486 16.1375 6.64453Z" fill="#FEC50C"/>
<path d="M16.4048 6.14261C16.4876 6.01526 16.4403 5.91516 16.3456 5.85186C16.2193 5.76748 15.5018 5.53923 15.5018 5.53923C15.5018 5.53923 15.9872 6.11479 16.1135 6.19918C16.2082 6.26247 16.3204 6.26891 16.4048 6.14261Z" fill="#FEC50C"/>
<path d="M16.7667 5.70279C16.8728 5.59404 16.8459 5.48663 16.7654 5.40608C16.658 5.29867 15.9988 4.93484 15.9988 4.93484C15.9988 4.93484 16.3626 5.59404 16.47 5.70145C16.5506 5.782 16.6593 5.8102 16.7667 5.70279Z" fill="#FEC50C"/>
<path d="M18.8152 10.3149C20.2268 10.3149 21.3711 9.1706 21.3711 7.75902C21.3711 6.34744 20.2268 5.20312 18.8152 5.20312C17.4036 5.20312 16.2593 6.34744 16.2593 7.75902C16.2593 9.1706 17.4036 10.3149 18.8152 10.3149Z" fill="#FEC50C"/>
<path d="M18.8192 4.85265C18.9711 4.85075 19.0281 4.75582 19.0281 4.6419C19.0281 4.49 18.8192 3.7666 18.8192 3.7666C18.8192 3.7666 18.6104 4.49 18.6104 4.6419C18.6104 4.75582 18.6673 4.85265 18.8192 4.85265Z" fill="#FEC50C"/>
<path d="M19.3845 10.6025C19.2359 10.634 19.1986 10.7382 19.2208 10.85C19.2505 10.9989 19.5964 11.6677 19.5964 11.6677C19.5964 11.6677 19.6601 10.9175 19.6305 10.7685C19.6083 10.6567 19.5335 10.5729 19.3845 10.6025Z" fill="#FEC50C"/>
<path d="M18.8195 10.6586C18.6676 10.6605 18.6106 10.7554 18.6106 10.8693C18.6106 11.0212 18.8195 11.7446 18.8195 11.7446C18.8195 11.7446 19.0283 11.0212 19.0283 10.8693C19.0283 10.7554 18.9714 10.6586 18.8195 10.6586Z" fill="#FEC50C"/>
<path d="M18.2522 10.6031C18.1028 10.5753 18.0284 10.6573 18.0062 10.769C17.9766 10.918 18.0403 11.6682 18.0403 11.6682C18.0403 11.6682 18.3862 10.9995 18.4159 10.8505C18.4381 10.7388 18.4011 10.6327 18.2522 10.6031Z" fill="#FEC50C"/>
<path d="M17.708 10.4377C17.5669 10.3813 17.478 10.4472 17.4344 10.5525C17.3763 10.6928 17.2924 11.4411 17.2924 11.4411C17.2924 11.4411 17.7622 10.8527 17.8203 10.7123C17.8639 10.6071 17.8483 10.4958 17.708 10.4377Z" fill="#FEC50C"/>
<path d="M17.2057 5.34167C17.331 5.2557 17.3256 5.14512 17.2623 5.0504C17.1779 4.9241 16.6024 4.43865 16.6024 4.43865C16.6024 4.43865 16.8306 5.15617 16.915 5.28247C16.9783 5.37719 17.0794 5.42606 17.2057 5.34167Z" fill="#FEC50C"/>
<path d="M17.7077 5.07384C17.8473 5.01396 17.8636 4.90446 17.82 4.79921C17.7619 4.65887 17.2921 4.07046 17.2921 4.07046C17.2921 4.07046 17.376 4.81873 17.4341 4.95906C17.4777 5.06431 17.5674 5.13197 17.7077 5.07384Z" fill="#FEC50C"/>
<path d="M18.2527 4.90774C18.4013 4.87624 18.4386 4.77202 18.4164 4.66029C18.3868 4.51131 18.0408 3.84256 18.0408 3.84256C18.0408 3.84256 17.9771 4.5928 18.0067 4.74178C18.0289 4.85351 18.1037 4.93737 18.2527 4.90774Z" fill="#FEC50C"/>
<path fill-rule="evenodd" clip-rule="evenodd" d="M18.7301 12.2185L18.686 12.3067L18.637 12.4194L18.6076 12.4733L18.5831 12.5223L18.5635 12.5615L18.539 12.586L18.4802 12.537L18.4165 12.4929L18.3479 12.4586L18.2744 12.4292L18.196 12.4096L18.1176 12.39L18.0392 12.3753L17.9559 12.3655L17.7844 12.3508L17.6129 12.3459L17.4463 12.3361L17.2895 12.3165L17.2013 12.3018L17.118 12.2822L17.0739 12.2675L17.0298 12.2528L16.9906 12.2332L16.9563 12.2136L16.9024 12.1793L16.8485 12.1401L16.7897 12.096L16.7358 12.047L16.6231 11.9392L16.5104 11.8314L16.3976 11.7285L16.2947 11.6354L16.2457 11.6011L16.1967 11.5668L16.1526 11.5472L16.1085 11.5325L16.0252 11.5129L15.9517 11.4884L15.8782 11.4639L15.8047 11.4296L15.741 11.4002L15.6773 11.361L15.6185 11.3218L15.5646 11.2826L15.5058 11.2385L15.4568 11.1944L15.4078 11.1454L15.3588 11.0964L15.2657 10.9935L15.1775 10.8857L15.0011 10.6554L14.8149 10.4202L14.7071 10.3075L14.5944 10.1948L14.5307 10.136L14.467 10.0821L14.3984 10.0331L14.3249 9.97916L14.3102 9.98406L14.2955 9.99876L14.2808 10.0184L14.271 10.0429L14.2563 10.087L14.2514 10.1066L14.2171 10.0919L14.1877 10.0772L14.1534 10.0625L14.124 10.0527H14.0603L14.026 10.0625L13.9917 10.0772L14.026 10.1213L14.0701 10.1801L14.1142 10.2487L14.1534 10.3222L14.1926 10.4006L14.222 10.4741L14.2318 10.5133L14.2416 10.5427L14.2465 10.577V10.6064H14.1926H13.9819L14.0211 10.6652L14.0652 10.724L14.1142 10.7828L14.1681 10.8367L14.222 10.8906L14.2759 10.9445L14.3298 10.9886L14.3788 11.0229L14.3249 11.0278L14.2514 11.0327L14.1779 11.0425L14.124 11.0474L14.1681 11.0866L14.222 11.1258L14.2808 11.1699L14.3445 11.214L14.4082 11.2532L14.4719 11.2875L14.5307 11.3071L14.5846 11.3218L14.6091 11.3267L14.6287 11.3316L14.6434 11.3365L14.6532 11.3463L14.6581 11.3512V11.3708L14.6532 11.3806L14.6434 11.41L14.6385 11.4394L14.6336 11.459V11.4737L14.6385 11.4982L14.6434 11.5178L14.6532 11.5276L14.6679 11.5374L14.6875 11.5472L14.712 11.5521L14.7365 11.5619L14.761 11.5717L14.7855 11.5815L14.8051 11.5962L14.81 11.6011V11.6109L14.8051 11.6158L14.7855 11.6305L14.7659 11.6452L14.7463 11.6648L14.7267 11.6893V11.7089L14.7218 11.7285L14.7267 11.753L14.7316 11.7824L14.8149 11.8118L14.9031 11.8412L14.9423 11.851L14.9815 11.8657L15.0109 11.8804L15.0354 11.8951L14.8737 12.0225L14.9178 12.0617L14.9717 12.0911L15.0403 12.1254L15.1089 12.1499L15.1873 12.1744L15.2608 12.1891L15.3245 12.2038H15.3833L15.3294 12.243L15.2608 12.2871L15.1873 12.3263L15.1334 12.3655L15.1824 12.3998L15.251 12.4341L15.3294 12.4733L15.4225 12.5174L15.6381 12.6105L15.8733 12.7036L16.1183 12.7918L16.3585 12.8702L16.4663 12.9045L16.5643 12.929L16.6525 12.9536L16.7309 12.9683L16.5741 12.9536L16.4271 12.934L16.2801 12.9094L16.1428 12.88L16.0056 12.8408L15.8733 12.8016L15.7459 12.7575L15.6234 12.7085L15.3833 12.6105L15.1579 12.5125L15.0501 12.4684L14.9423 12.4243L14.8394 12.3851L14.7365 12.3459L14.761 12.3312L14.7904 12.3214L14.8296 12.3067L14.8737 12.2969L14.9668 12.2675L15.0501 12.2381L14.9031 12.2136L14.7022 12.1744L14.6042 12.145L14.5209 12.1205L14.4866 12.1058L14.4572 12.0911L14.4327 12.0764L14.418 12.0617V12.0568L14.4229 12.0519L14.4376 12.047L14.4523 12.0372L14.4915 12.0225L14.5454 12.0078L14.663 11.9735L14.761 11.9392L14.5209 11.8951L14.3347 11.8657L14.2661 11.851L14.2122 11.8314L14.1926 11.8216L14.173 11.8069L14.1583 11.7971L14.1485 11.7824L14.1632 11.7726L14.2073 11.7628L14.271 11.753L14.3445 11.7383L14.4229 11.7285L14.4915 11.7089L14.5258 11.6991L14.5552 11.6893L14.5748 11.6746L14.5944 11.6599L14.5552 11.6452L14.516 11.6305L14.467 11.6207L14.418 11.6109L14.3053 11.5962L14.1926 11.5815L14.1338 11.5668L14.0799 11.557L14.026 11.5374L13.9721 11.5178L13.9231 11.4933L13.879 11.459L13.8398 11.4247L13.8104 11.3806L13.8202 11.3757L13.8398 11.3708H13.8643L13.9035 11.3757L13.9917 11.3806L14.0897 11.3855L14.1975 11.3953H14.3347L14.3739 11.3904L14.4033 11.3806L14.4229 11.3708L14.3053 11.3218L14.1485 11.2532L14.0603 11.2091L13.9672 11.165L13.8741 11.116L13.781 11.067L13.6928 11.0131L13.6095 10.9543L13.5311 10.8955L13.4625 10.8367L13.4331 10.8024L13.4037 10.773L13.3841 10.7436L13.3645 10.7093L13.3449 10.6799L13.3351 10.6456L13.3302 10.6162L13.3253 10.5819H13.3596L13.3988 10.5868L13.438 10.6015L13.4772 10.6162L13.5556 10.6652L13.6438 10.7142L13.683 10.7387L13.7271 10.7632L13.7712 10.7828L13.8104 10.7975L13.8545 10.8073L13.8937 10.8122H13.9378L13.977 10.7975L13.8594 10.7093L13.7271 10.5966L13.5752 10.4643L13.4233 10.3173L13.2714 10.1605L13.1293 10.0037L13.0656 9.92036L13.0019 9.84195L12.948 9.76355L12.899 9.69005L12.8892 9.67045V9.63615L12.8941 9.62145L12.899 9.60675L12.9137 9.59695L12.9284 9.58225L12.9431 9.57245L12.9627 9.56755L12.9823 9.56265H13.0215L13.046 9.56755L13.0656 9.57245L13.0852 9.58715L13.0999 9.60185L13.1881 9.69005L13.291 9.79295L13.3988 9.90565L13.5164 10.0184L13.634 10.1213L13.7516 10.2193L13.8104 10.2585L13.8643 10.2928L13.9231 10.3222L13.977 10.3418L13.9378 10.3173L13.8937 10.2732L13.8349 10.2144L13.7712 10.1409L13.6291 9.96936L13.4723 9.76845L13.3939 9.66065L13.3204 9.55285L13.2518 9.44504L13.1832 9.34214L13.1244 9.24414L13.0754 9.15594L13.0411 9.07263L13.0117 9.00403L13.0068 8.97953V8.94033L13.0117 8.92563L13.0215 8.91093L13.0313 8.89623L13.0411 8.88643L13.0558 8.87663L13.0901 8.86683L13.1195 8.85702H13.1881L13.2077 8.86192L13.2224 8.86683L13.242 8.87663L13.2567 8.89133L13.2959 8.92563L13.3351 8.97463L13.4233 9.08733L13.5164 9.22944L13.6242 9.38134L13.7369 9.53815L13.7957 9.61165L13.8545 9.68515L13.9182 9.74885L13.9868 9.80765L13.9035 9.64595L13.8104 9.45974L13.7614 9.35684L13.7173 9.25394L13.6732 9.14613L13.634 9.03833L13.5997 8.92563L13.5654 8.81782L13.5409 8.71002L13.5213 8.60222L13.5115 8.49931L13.5066 8.40131L13.5115 8.35231L13.5164 8.30821L13.5213 8.2641L13.5311 8.22L13.5409 8.2053L13.5458 8.1906L13.5605 8.1759L13.5703 8.1661L13.6046 8.1514L13.6389 8.1416H13.6732L13.7026 8.1465L13.7173 8.1514L13.7271 8.1563L13.732 8.1661L13.7369 8.1808L13.7859 8.33761L13.83 8.50421L13.8741 8.67572L13.9182 8.84232L13.9623 9.00893L14.0211 9.16573L14.0505 9.23924L14.0848 9.31274L14.124 9.38134L14.1681 9.44994L14.1387 9.30784L14.1191 9.18043L14.0995 9.06283L14.0897 8.95503L14.0799 8.86192L14.075 8.77862L14.0799 8.71002L14.0848 8.65122L14.0946 8.60221L14.1093 8.56301L14.1191 8.54831L14.1289 8.53361L14.1387 8.52381L14.1534 8.51401L14.1681 8.50911H14.2122L14.2514 8.52381L14.2906 8.54341L14.3249 8.70021L14.3592 8.85212L14.3984 8.99422L14.4425 9.13143L14.4915 9.26863L14.5454 9.40584L14.6042 9.54794L14.6728 9.69005L14.7218 9.78315L14.7708 9.87625L14.8247 9.96935L14.8786 10.0625L14.9374 10.1507L14.9962 10.2389L15.0599 10.3271L15.1236 10.4153L15.2412 10.5623L15.3637 10.6995L15.4911 10.8367L15.6234 10.9641L15.7606 11.0915L15.9027 11.2091L16.0498 11.3218L16.2017 11.4296L16.3046 11.4982L16.4124 11.5619L16.5251 11.6256L16.6329 11.6844L16.8044 11.7677L16.971 11.8461L17.1474 11.9147L17.3238 11.9784L17.4904 12.0323L17.6619 12.0764L17.8383 12.1156L18.0098 12.1499L18.1911 12.1744L18.3675 12.194L18.5488 12.2087L18.7301 12.2185" fill="#FEC50C"/>
<path fill-rule="evenodd" clip-rule="evenodd" d="M19.1765 13.7085L19.2598 13.7183L19.299 13.733L19.3088 13.7379V13.7428H19.299L19.2892 13.7477L19.2108 13.7624H19.1471L18.9413 13.7477L18.6914 13.7428L18.4219 13.7379L18.1426 13.7428L18.0103 13.7477L17.878 13.7575L17.7604 13.7673L17.6477 13.7771L17.5546 13.7918L17.4713 13.8114L17.4419 13.8212L17.4125 13.831L17.388 13.8408L17.3684 13.8555L17.3782 13.8065L17.3978 13.7575L17.3635 13.7673L17.3292 13.7771L17.2998 13.7918L17.2704 13.8065L17.2459 13.8212L17.2263 13.8408L17.2116 13.8653L17.2067 13.8898L17.192 13.8555L17.1822 13.8261L17.1773 13.7918L17.1724 13.7624L17.1773 13.7379L17.1822 13.7085L17.1871 13.684L17.2018 13.6595L17.2116 13.6399L17.2312 13.6154L17.2508 13.5958L17.2704 13.5762L17.3243 13.5419L17.3831 13.5076C17.4148 13.5269 17.4505 13.5408 17.486 13.5517C17.5167 13.5558 17.5533 13.5508 17.5889 13.5419C17.6487 13.5946 17.7286 13.5881 17.78 13.5321C17.7893 13.5219 17.8007 13.5062 17.8045 13.4929C17.8126 13.4646 17.811 13.4276 17.8045 13.3949L17.8633 13.39L17.9319 13.3802L18.0054 13.3606L18.0838 13.341L18.1622 13.3263L18.2357 13.3067L18.3043 13.2969L18.3631 13.292L18.3386 13.3116L18.2798 13.3557L18.2112 13.4096L18.1622 13.4439L18.2259 13.4586L18.2798 13.4684L18.2406 13.5125L18.2014 13.5566L18.1622 13.6007L18.1328 13.6399L18.172 13.6546L18.2112 13.6644L18.2553 13.6742H18.3435L18.3876 13.6644L18.4317 13.6546L18.466 13.635L18.5052 13.6546L18.5444 13.6693L18.5836 13.6791L18.6228 13.6889L18.711 13.6987L18.8041 13.7085H19.1765" fill="#FEC50C"/>
<path fill-rule="evenodd" clip-rule="evenodd" d="M17.6712 13.4292L17.6858 13.4341L17.7004 13.4389L17.7052 13.4535L17.7101 13.4681L17.7052 13.4827L17.7004 13.4973L17.6858 13.507H17.6517L17.642 13.4973L17.6323 13.4827L17.6274 13.4681L17.6323 13.4535L17.642 13.4389L17.6517 13.4341L17.6712 13.4292Z" fill="#FEC50C"/>
<path fill-rule="evenodd" clip-rule="evenodd" d="M17.6667 13.4482L17.6766 13.4532L17.6815 13.4631L17.6766 13.473L17.6667 13.4779L17.6568 13.473L17.6519 13.4631L17.6568 13.4532L17.6667 13.4482Z" fill="#FEC50C"/>
<path d="M17.6706 13.5159C17.6459 13.5159 17.626 13.4959 17.626 13.4713C17.626 13.4467 17.6459 13.4267 17.6706 13.4268C17.6952 13.4267 17.7152 13.4467 17.7152 13.4713C17.7152 13.4959 17.6952 13.5159 17.6706 13.5159Z" fill="#FEC50C"/>
<path fill-rule="evenodd" clip-rule="evenodd" d="M21.3211 13.9483L21.2868 13.963L21.2525 13.9679L21.2231 13.9728L21.1986 13.9679L21.1741 13.963L21.1496 13.9532L21.13 13.9434L21.1055 13.9287L21.0663 13.8993L21.0271 13.8699L21.0075 13.8552L20.983 13.8454L20.9634 13.8405H20.9389L20.8948 13.9336L20.836 14.0512L20.8164 14.0806L20.7968 14.1051L20.7772 14.1198L20.7576 14.1345L20.7331 14.1443H20.7086L20.6841 14.1345L20.6547 14.1198L20.6449 14.1051L20.6351 14.0904L20.6253 14.0708L20.6155 14.0463L20.6057 14.0022L20.6008 13.9728L20.5714 13.9973L20.542 14.0316L20.5175 14.0708L20.4881 14.1149L20.4538 14.159L20.4195 14.1933L20.3999 14.2129L20.3754 14.2276L20.3509 14.2374L20.3215 14.2472H20.3068L20.2823 14.2521L20.2578 14.2472L20.2382 14.2374L20.1794 14.1688L20.1157 14.1002L20.0716 14.1688L20.0226 14.2276L19.9981 14.2521L19.9736 14.2766L19.9491 14.2962L19.9246 14.3109L19.905 14.3207L19.8805 14.3256H19.856L19.8364 14.3207L19.8168 14.3109L19.8021 14.2962L19.7825 14.2717L19.7727 14.2423L19.7629 14.2129L19.7433 14.1639L19.7384 14.1394L19.7286 14.1198L19.7188 14.11H19.709L19.5767 14.3256L19.5571 14.3452L19.5228 14.3599L19.4836 14.3697L19.4444 14.3795H19.4003L19.366 14.3697L19.3562 14.3648L19.3415 14.3501L19.3366 14.3403V14.3207L19.3562 14.1051L19.3415 14.11L19.3219 14.1198L19.3023 14.1296L19.2827 14.1492L19.2435 14.1933L19.1994 14.2423L19.1553 14.2962L19.1014 14.3403L19.0769 14.3599L19.0524 14.3795L19.023 14.3942L18.9985 14.3991L18.9642 14.404L18.9397 14.3991L18.9299 14.3942L18.9201 14.3844L18.9152 14.3697V14.355L18.9201 14.2913L18.9299 14.2276L18.9348 14.1933L18.9299 14.1639L18.925 14.1345L18.9054 14.1002L18.876 14.1443L18.827 14.208L18.7682 14.2717L18.7044 14.3354L18.6701 14.3599L18.6358 14.3844L18.6064 14.3942L18.5819 14.404L18.5721 14.3991H18.5574L18.5476 14.3893L18.5427 14.3844L18.5329 14.3697L18.528 14.355V14.3354L18.5231 14.3109L18.528 14.1247L18.4055 14.208L18.2585 14.3011L18.2242 14.3158L18.185 14.3354L18.1507 14.3452L18.1115 14.355L18.0772 14.3648H18.0429L18.0086 14.3599L17.9792 14.3501L17.9939 14.3109L18.0086 14.2766L18.0233 14.2423L18.0429 14.2129L18.0625 14.1835L18.0821 14.1541L18.1066 14.1296L18.1311 14.1051L18.185 14.0659L18.2487 14.0267L18.3124 13.9973L18.3859 13.9728L18.4594 13.9532L18.5427 13.9385L18.626 13.9238L18.7093 13.914L18.8907 13.9042L19.0769 13.8993H19.4493L19.5424 13.8944L19.6306 13.8895L19.7188 13.8846L19.8021 13.8748L19.8854 13.8601L19.9589 13.8454L20.0324 13.8258L20.101 13.7964L20.1647 13.767L20.2186 13.7278L20.2725 13.6886L20.3166 13.6347L20.2676 13.5367L20.3068 13.5318L20.346 13.522L20.3852 13.5024L20.4195 13.4779L20.4342 13.4681L20.4489 13.4534L20.4587 13.4338L20.4685 13.4191L20.4734 13.3995V13.3652L20.4636 13.3456L20.5469 13.3309L20.6351 13.3211L20.7282 13.3162H20.8262L21.0271 13.326L21.2329 13.3407L21.4436 13.3652L21.6494 13.3848L21.8503 13.4044L22.0365 13.4142V13.4828L22.0316 13.5122L22.0218 13.5416L22.012 13.571L22.0022 13.5955L21.9875 13.6151L21.9679 13.6396L21.9336 13.6739L21.8895 13.7033L21.8454 13.7229L21.7964 13.7327L21.7425 13.7425L21.6886 13.7376L21.6396 13.7327L21.5857 13.718L21.5367 13.6935L21.4877 13.669L21.4485 13.6347L21.4093 13.5955V13.6788L21.3946 13.7866L21.3848 13.8405L21.3701 13.8895L21.3603 13.9091L21.3456 13.9238L21.3358 13.9385L21.3211 13.9483L21.3211 13.9483ZM17.3814 13.4877L17.4941 13.5367L17.5235 13.5122L17.5627 13.4828L17.6068 13.4583L17.646 13.4338L17.793 13.375L17.9204 13.3162L17.9841 13.2917L18.038 13.2623L18.0919 13.2329L18.136 13.2035L18.2487 13.13L18.3614 13.0565L18.4692 12.9879L18.5672 12.9193L18.6407 12.8605L18.6995 12.8066L18.7632 12.7478L18.8318 12.6841L18.8563 12.6596L18.8857 12.64L18.92 12.6204L18.9592 12.6008L19.0425 12.5616L19.1258 12.5322L19.2385 12.5028L19.361 12.4734L19.4884 12.4489L19.6305 12.4243L19.802 12.4047L19.9735 12.3802L20.1499 12.3606L20.3214 12.3312L20.3802 12.3214L20.4341 12.3067L20.4929 12.292L20.5518 12.2773L20.6106 12.2038L20.7037 12.1009L20.7674 12.0372L20.8409 11.9784L20.9242 11.9147L21.0222 11.851L21.1692 11.7628L21.326 11.6844L21.4877 11.6011L21.6445 11.5276L21.7915 11.4541L21.9287 11.3855L22.0414 11.3267L22.1296 11.2679L22.1541 11.1944L22.1884 11.1209L22.2325 11.0474L22.2864 10.9739L22.3452 10.8955L22.4187 10.8171L22.4971 10.7289L22.5951 10.6358L22.6833 10.5574L22.7764 10.479L22.8254 10.4447L22.8744 10.4104L22.9283 10.381L22.9822 10.3516L23.0361 10.3271L23.09 10.3075L23.1488 10.2928L23.2027 10.2781L23.2615 10.2732L23.3154 10.2683L23.3742 10.2732L23.4281 10.283L23.4232 10.3418L23.4085 10.4006L23.3889 10.4594L23.3644 10.5231L23.3301 10.5868L23.286 10.6505L23.2321 10.7191L23.1684 10.7877L23.2174 10.7828L23.2615 10.773L23.2958 10.7632L23.3301 10.7485L23.3595 10.7387L23.3938 10.7289L23.4379 10.724L23.4869 10.7191L23.4918 10.7534V10.7877L23.4869 10.822L23.4771 10.8514L23.4624 10.8808L23.4428 10.9102L23.4232 10.9347L23.3987 10.9592L23.2958 11.0572L23.1929 11.1503L23.2517 11.1552L23.3154 11.1748L23.3791 11.1944L23.4281 11.2042L23.3693 11.2483L23.3007 11.2924L23.2321 11.3365L23.1537 11.3806L23.0753 11.4247L22.9969 11.4737L22.9185 11.5276L22.845 11.5864L22.8793 11.5913L22.9234 11.6109L22.943 11.6158L22.9626 11.6256L22.9773 11.6305L22.992 11.6256L22.894 11.6795L22.7715 11.7383L22.7127 11.7677L22.6637 11.7971L22.6392 11.8118L22.6245 11.8265L22.6147 11.8412L22.6049 11.8559L22.6098 11.8755L22.6196 11.8902L22.6392 11.9049L22.6539 11.9196L22.649 11.9392L22.6392 11.9539L22.6196 11.9686L22.6 11.9833L22.5559 12.0078L22.4971 12.0323L22.4383 12.0519L22.3844 12.0715L22.3452 12.0911L22.3158 12.1058L22.4138 12.2038L22.3795 12.2381L22.3452 12.2626L22.3158 12.2773L22.2815 12.292L22.2129 12.3018H22.1198L22.1296 12.3459L22.1443 12.39L22.1541 12.439L22.1639 12.488L22.0806 12.5518L21.9777 12.6253L21.865 12.6988L21.7376 12.7723L21.6641 12.8115L21.5906 12.8458L21.5122 12.8752L21.4289 12.9046L21.3407 12.934L21.2476 12.9536L21.1496 12.9732L21.0467 12.9879L21.228 12.9928H21.3848L21.5318 12.9781L21.6641 12.9634L21.7866 12.9389L21.8944 12.9095L22.0022 12.8703L22.1051 12.8311L22.2423 12.7674L22.3746 12.6939L22.502 12.6155L22.6343 12.5371L22.5559 12.4978L22.4775 12.4733L22.4383 12.4586L22.3991 12.439L22.355 12.4194L22.3109 12.3949L22.3501 12.3655L22.3942 12.3459L22.4481 12.3263L22.5069 12.3116L22.6245 12.2871L22.747 12.2724L22.8548 12.2577L22.9528 12.2479L22.992 12.2381L23.0263 12.2283L23.0459 12.2185L23.0606 12.2038L23.0557 12.1989L23.0459 12.1891L23.0312 12.1842L23.0116 12.1744L22.9577 12.1646L22.8891 12.1548L22.8205 12.1499L22.7519 12.1401L22.6931 12.1254L22.6539 12.1107L22.7862 12.0813L22.9185 12.0519L23.0361 12.0274L23.1341 12.0029L23.2174 11.9784L23.2909 11.949L23.3252 11.9343L23.3497 11.9196L23.3742 11.9049L23.3938 11.8853L23.3889 11.8804L23.3791 11.8706L23.3595 11.8657L23.335 11.8608L23.2713 11.8559H23.1978L23.1194 11.851L23.0459 11.8461L22.9822 11.8363L22.943 11.8265L22.9773 11.8118L23.0116 11.7971L23.1292 11.7628L23.2321 11.7334L23.3252 11.7089L23.4134 11.6795L23.5065 11.6501L23.5996 11.6109L23.6437 11.5864L23.6829 11.5619L23.6976 11.5472L23.7123 11.5276L23.727 11.5129L23.7319 11.4982L23.727 11.4835L23.7123 11.4737L23.6976 11.4688H23.5604L23.4967 11.4737H23.4085L23.384 11.4688L23.3644 11.459L23.3448 11.4492L23.5408 11.3218L23.7221 11.2042L23.8838 11.1013L24.026 11.0033L24.0848 10.9543L24.1387 10.9053L24.1828 10.8563L24.222 10.8073L24.2514 10.7534L24.2759 10.6995L24.2906 10.6407V10.577H24.2563L24.222 10.5819L24.1828 10.5966L24.1436 10.6113L24.0652 10.6603L23.9819 10.7093L23.9377 10.7338L23.8985 10.7583L23.8544 10.7779L23.8103 10.7926L23.7711 10.8024L23.7319 10.8073H23.6878L23.6486 10.7926L23.7662 10.7044L23.8985 10.5917L24.0505 10.4594L24.2024 10.3124L24.3543 10.1556L24.4964 9.99877L24.5601 9.91547L24.6238 9.83707L24.6777 9.75867L24.7267 9.68517L24.7365 9.66557L24.7414 9.65086L24.7365 9.63126L24.7316 9.61656L24.7267 9.60186L24.712 9.59206L24.6973 9.57736L24.6826 9.57246L24.663 9.56266L24.6434 9.55776H24.6042L24.5846 9.56266L24.5601 9.56756L24.5454 9.58226L24.5258 9.59696L24.4376 9.68517L24.3347 9.78807L24.2269 9.90077L24.1093 10.0135L23.9917 10.1164L23.874 10.2144L23.8152 10.2536L23.7613 10.2879L23.7025 10.3173L23.6535 10.3418L23.6878 10.3124L23.7319 10.2683L23.7907 10.2095L23.8544 10.136L23.9965 9.96447L24.1534 9.76357L24.2318 9.65577L24.3053 9.54797L24.3788 9.44506L24.4425 9.33726L24.5013 9.23925L24.5503 9.15105L24.5895 9.06775L24.614 8.99915L24.6189 8.97465V8.93544L24.614 8.92074L24.6042 8.90604L24.5944 8.89134L24.5846 8.88154L24.5699 8.87664L24.5405 8.86194L24.5062 8.85214H24.4376L24.418 8.85704L24.4033 8.86194L24.3837 8.87174L24.369 8.88644L24.3298 8.92074L24.2906 8.96975L24.2024 9.08245L24.1093 9.22455L24.0064 9.37646L23.8936 9.53326L23.8299 9.60677L23.7711 9.68027L23.7074 9.74397L23.6388 9.80277L23.727 9.64107L23.8152 9.45486L23.8642 9.35196L23.9083 9.24906L23.9524 9.14125L23.9917 9.03345L24.026 8.92074L24.0603 8.81294L24.0848 8.70514L24.1044 8.59733L24.1142 8.49443L24.1191 8.39643L24.1142 8.34742L24.1093 8.30332L24.1044 8.25922L24.0946 8.21512L24.0897 8.20042L24.0799 8.18572L24.0652 8.17102L24.0554 8.16122L24.021 8.14652L23.9867 8.13672H23.9524L23.923 8.14162L23.9132 8.14652L23.8985 8.15142L23.8936 8.16122L23.8887 8.17592L23.8397 8.33762L23.7956 8.49933L23.7515 8.67083L23.7074 8.83744L23.6633 9.00405L23.6045 9.16085L23.5751 9.23925L23.5408 9.30785L23.5016 9.38136L23.4575 9.44506L23.4869 9.30295L23.5065 9.17555L23.5261 9.05795L23.5359 8.95014L23.5457 8.85704L23.5506 8.77374L23.5457 8.70513L23.5408 8.64633L23.531 8.59733L23.5163 8.55813L23.5065 8.54343L23.4967 8.52873L23.4869 8.51893L23.4722 8.51403L23.4575 8.50913L23.4428 8.50423H23.4281L23.4134 8.50913L23.3742 8.51893L23.335 8.53853L23.3007 8.69533L23.2664 8.84723L23.2272 8.98934L23.1831 9.12654L23.1341 9.26375L23.0802 9.40095L23.0214 9.54306L22.9528 9.68516L22.9038 9.77826L22.8548 9.87137L22.8009 9.96447L22.747 10.0576L22.6882 10.1458L22.6294 10.234L22.5657 10.3222L22.502 10.4104L22.3844 10.5574L22.2619 10.6946L22.1345 10.8318L22.0022 10.9592L21.865 11.0866L21.7229 11.2042L21.5759 11.3169L21.424 11.4247L21.3211 11.4933L21.2133 11.5619L21.1055 11.6256L20.9977 11.6893L20.8262 11.7677L20.6546 11.8461L20.4782 11.9098L20.3018 11.9735L20.1548 12.0176L20.0078 12.0617L19.8559 12.096L19.704 12.1303L19.5521 12.1548L19.3953 12.1744L19.2434 12.194L19.0866 12.2038L19.0719 12.2087L19.0572 12.2136L19.0278 12.2283L18.9935 12.2528L18.9445 12.2969L18.8808 12.3557L18.8024 12.4341L18.7093 12.537L18.6211 12.6399L18.5182 12.7526L18.4643 12.8065L18.4104 12.8604L18.3467 12.9094L18.283 12.9584L18.234 12.9927L18.185 13.0222L18.1311 13.0467L18.0772 13.0712L17.9596 13.1202L17.842 13.1643L17.7244 13.2084L17.6215 13.2476L17.5774 13.2672L17.5333 13.2917L17.4941 13.3113L17.4647 13.3309L17.4353 13.3603L17.4107 13.3848L17.396 13.4093L17.3862 13.4338L17.3813 13.4681V13.4877" fill="#FEC50C"/>
<path d="M17.6657 13.4818C17.6556 13.4818 17.6475 13.4736 17.6475 13.4636C17.6475 13.4535 17.6556 13.4453 17.6657 13.4453C17.6758 13.4453 17.684 13.4535 17.684 13.4636C17.684 13.4736 17.6758 13.4818 17.6657 13.4818Z" fill="#FEC50C" stroke="#00AFCA" stroke-width="0.114382"/>
</g>
</g>
<defs>
<filter id="filter0_d" x="0.144043" y="0.279785" width="35.97" height="25.7631" filterUnits="userSpaceOnUse" color-interpolation-filters="sRGB">
<feFlood flood-opacity="0" result="BackgroundImageFix"/>
<feColorMatrix in="SourceAlpha" type="matrix" values="0 0 0 0 0 0 0 0 0 0 0 0 0 0 0 0 0 0 127 0"/>
<feOffset dy="4"/>
<feGaussianBlur stdDeviation="2"/>
<feColorMatrix type="matrix" values="0 0 0 0 0 0 0 0 0 0 0 0 0 0 0 0 0 0 0.08 0"/>
<feBlend mode="normal" in2="BackgroundImageFix" result="effect1_dropShadow"/>
<feBlend mode="normal" in="SourceGraphic" in2="effect1_dropShadow" result="shape"/>
</filter>
</defs>
</svg>
