<svg width="26" height="36" viewBox="0 0 26 36" fill="none" xmlns="http://www.w3.org/2000/svg">
<path fill-rule="evenodd" clip-rule="evenodd" d="M12.9652 0.302246C5.8885 0.302246 0.131836 5.92808 0.131836 12.8439C0.131836 20.3152 8.23517 30.6172 11.5718 34.541C12.3052 35.401 13.6435 35.401 14.3768 34.541C17.6952 30.6172 25.7985 20.3152 25.7985 12.8439C25.7985 5.92808 20.0418 0.302246 12.9652 0.302246ZM12.9652 3.88558C14.9818 3.88558 16.6318 5.49808 16.6318 7.46891C16.6318 9.45766 14.9818 11.0522 12.9652 11.0522C10.9485 11.0522 9.2985 9.45766 9.2985 7.46891C9.2985 5.49808 10.9485 3.88558 12.9652 3.88558ZM5.63184 17.95C7.2085 20.2792 9.9035 21.8021 12.9652 21.8021C16.0268 21.8021 18.7218 20.2792 20.2985 17.95C20.2618 15.585 15.4035 14.2771 12.9652 14.2771C10.5268 14.2771 5.6685 15.585 5.63184 17.95Z" fill="url(#paint0_linear)"/>
<defs>
<linearGradient id="paint0_linear" x1="25.1027" y1="13.9005" x2="0.45704" y2="14.0086" gradientUnits="userSpaceOnUse">
<stop offset="0.4375" stop-color="#12CAD6"/>
<stop offset="1" stop-color="#12B3D6"/>
</linearGradient>
</defs>
</svg>
