<svg width="262" height="145" viewBox="0 0 262 145" fill="none" xmlns="http://www.w3.org/2000/svg">
<g opacity="0.86">
<path d="M51.4061 -0.852133C52.0854 -5.94652 52.7648 -11.0409 52.8994 -16.1541C53.1186 -24.4442 51.795 -32.7624 49.0893 -40.6585C48.4436 -42.6104 45.6635 -42.5219 45.2198 -40.6075C44.364 -36.719 43.5396 -32.7706 42.7751 -28.8538C42.0074 -25.088 41.331 -21.294 40.9286 -17.4149C39.3249 -3.04805 41.235 11.608 44.4958 25.7821C45.3275 29.3934 45.876 33.9177 47.5483 37.2391C48.6274 31.0175 48.5792 24.3962 49.1734 18.1243C49.8557 11.7295 50.601 5.45445 51.4061 -0.852133Z" fill="#F9F2F2"/>
<path d="M60.4645 1.40746C58.8101 13.3563 58.9472 25.6607 62.3682 37.3821C63.2817 40.5683 64.466 43.6883 65.6503 46.8083C66.9323 50.2589 68.2457 53.7693 69.5875 57.1883C70.1193 55.1512 69.9521 52.9472 69.9675 50.8C69.9161 44.0275 71.5304 37.3713 72.7227 30.7845C75.1357 17.5194 76.0594 3.89253 75.3207 -9.69949C75.1533 -13.3549 74.8663 -16.9473 74.1857 -20.5617C73.7035 -23.3638 73.0069 -29.1853 70.8152 -31.3165C67.7607 -34.2159 66.7732 -26.5145 66.2949 -24.8111C65.14 -20.765 64.0165 -16.6592 63.0442 -12.5566C61.9933 -7.87773 61.1218 -3.29337 60.4645 1.40746Z" fill="#F9F2F2"/>
<path d="M93.1693 55.5447C94.9996 40.4473 96.7668 25.2303 95.6595 9.92235C95.1989 3.82375 94.3165 -2.20553 93.4025 -8.29462C92.6619 -13.329 91.8268 -18.5428 88.9862 -22.7772C87.1608 -17.5378 86.9161 -11.9082 86.3974 -6.36358C85.1963 5.57576 82.3266 17.2477 82.3661 29.2215C82.4048 35.3894 83.2621 41.6611 84.8404 47.7061C86.3178 53.2693 88.3465 60.605 91.9805 65.1856C92.7043 62.207 92.7825 58.7279 93.1693 55.5447Z" fill="#F9F2F2"/>
<path d="M108.5 36.7772C109.845 41.7989 111.461 46.7544 113.137 51.6785C115.877 59.7855 118.797 67.798 121.868 75.8074C122.06 76.3174 122.844 76.2103 122.832 75.6058C122.324 70.1432 122.994 64.5954 123.393 59.1138C124.631 40.2792 121.687 21.0485 114.84 3.10925C113.271 -1.03082 111.432 -5.10472 108.787 -8.6779C107.634 -10.2866 106.292 -12.2543 105.405 -9.877C104.747 -8.07911 104.896 -5.33048 104.754 -3.42246C104.148 5.14788 104.451 13.8503 105.598 22.4141C106.304 27.2375 107.221 32.0263 108.5 36.7772Z" fill="#F9F2F2"/>
<path d="M148.669 -24.6345C163.993 -26.4377 179.653 -26.5847 194.744 -29.4111C184.144 -22.9898 172.353 -18.5392 160.395 -14.8412C144.953 -10.0721 128.789 -6.52767 112.495 -7.72805C110.193 -7.89144 104.044 -8.39747 107.639 -11.4363C110.196 -13.5462 113.58 -15.0989 116.606 -16.4626C122.924 -19.4074 129.747 -21.3951 136.673 -22.7499C140.559 -23.4967 144.598 -24.0955 148.669 -24.6345Z" fill="#F9F2F2"/>
<path d="M157.56 -8.76396C174.892 -12.8469 192.435 -16.9646 210.391 -17.2505C204.68 -14.1673 199.029 -11.1156 193.286 -8.09218C189.669 -6.11124 185.96 -4.15863 182.185 -2.47678C171.909 2.09319 160.654 4.65771 149.231 5.01828C143.46 5.23007 137.676 4.83733 131.911 3.89991C129.817 3.55073 126.602 3.1041 128.755 0.518865C130.408 -1.42086 134.322 -2.25892 136.633 -3.09361C143.449 -5.38357 150.489 -7.10367 157.56 -8.76396Z" fill="#F9F2F2"/>
<path d="M227.609 -3.70166C213.463 2.37071 199.318 8.44309 184.436 12.5352C176.949 14.567 169.27 16.0889 161.471 16.2222C157.482 16.3361 153.483 15.9967 149.566 15.2322C148.716 15.0686 145.08 14.6913 145.023 13.4224C145.032 12.4243 149.068 11.6744 149.969 11.3531C166.01 6.26912 182.369 1.93441 199.065 -0.744237C208.589 -2.2443 218.063 -3.25949 227.609 -3.70166Z" fill="#F9F2F2"/>
<path d="M234.965 25.5059C221.531 27.9951 208.065 30.4246 194.35 31.0751C187.492 31.4004 180.503 31.1842 173.762 29.8439C170.33 29.1297 166.891 28.1132 163.626 26.7C162.955 26.4419 159.819 25.4191 160.068 24.295C160.291 23.4134 163.893 23.5798 164.768 23.5009C179.68 22.2205 194.666 21.6642 209.654 22.5594C218.161 23.0461 226.618 24.0178 234.965 25.5059Z" fill="#F9F2F2"/>
<path d="M126.534 9.93958C126.236 13 125.909 16.1517 125.61 19.2121C125.229 22.6975 124.94 26.2113 124.802 29.7219C124.377 46.9066 130.264 63.7471 136.38 80.0083C137.806 72.9932 137.351 65.7454 137.413 58.6077C137.421 48.9009 138.308 39.2663 137.771 29.5406C137.424 23.0768 136.409 16.506 134.223 10.3226C133.514 8.25097 132.355 3.43706 129.713 2.91794C126.587 2.34851 126.764 7.90876 126.534 9.93958Z" fill="#F9F2F2"/>
<path d="M144.406 17.1847C141.381 43.0722 144.09 69.8373 152.39 95.0337C153.704 84.1806 154.077 73.1355 153.877 62.163C153.684 51.4927 152.977 40.8634 150.941 30.3225C150.226 26.4972 149.328 22.6152 148.251 18.8277C147.989 17.8957 147.394 14.0074 146.481 13.7242C144.897 13.1829 144.507 16.2149 144.406 17.1847Z" fill="#F9F2F2"/>
<path d="M159.999 28.2276C164.483 50.2382 173.909 71.4799 187.268 89.8873C185.381 80.6435 182.71 71.5069 179.62 62.5908C176.596 53.9454 173.15 45.3693 168.747 37.2972C167.113 34.3378 165.359 31.4415 163.485 28.6081C163.047 27.9217 161.532 24.8994 160.745 24.8554C159.353 24.8241 159.861 27.3838 159.999 28.2276Z" fill="#F9F2F2"/>
<path d="M182.387 41.7283C177.701 37.4722 172.543 33.7703 167.593 29.8826C162.338 25.8501 157.174 21.846 151.95 17.8733C141.533 9.98777 131.092 2.34468 119.885 -4.28447C98.3286 -17.0769 76.4163 -29.5293 54.0445 -40.8229C41.0559 -47.3542 27.718 -53.2431 14.0936 -58.3701C12.3871 -58.9996 11.5625 -56.5027 13.2093 -55.8417C36.8371 -46.6609 59.4576 -35.0399 81.6092 -22.7135C103.669 -10.4154 125.698 1.82282 145.945 17.0618C151.629 21.3273 157.313 25.5927 162.996 29.8581C168.926 34.2998 174.802 39.0752 181.143 42.9942C182.034 43.671 183.249 42.4964 182.387 41.7283Z" fill="#F9F2F2"/>
<path d="M214.026 86.8768C212.611 77.0788 206.832 68.2795 200.172 60.7083C197.105 57.2045 193.802 53.9777 190.587 50.6282C188.949 48.9691 187.312 47.3101 185.734 45.6196C184.279 44.0172 182.812 41.8103 181.092 40.5763C179.522 42.091 183.08 48.8503 183.814 50.6795C185.279 54.1867 186.983 57.568 188.986 60.7918C192.995 67.3905 197.992 73.5451 203.667 78.8086C206.844 81.7961 210.317 84.475 214.026 86.8768Z" fill="#F9F2F2"/>
<path d="M236.748 49.9321C227.441 53.1513 217.013 51.9185 207.252 49.3413C202.813 48.1644 198.367 46.6852 193.952 45.2659C191.761 44.5861 189.538 43.8466 187.287 43.1983C185.218 42.6067 182.551 42.33 180.715 41.3101C181.367 39.21 188.93 39.3537 190.923 39.2212C194.666 38.931 198.447 39.0029 202.232 39.2259C209.955 39.8198 217.581 41.5347 224.927 44.3137C229.011 45.8307 232.982 47.713 236.748 49.9321Z" fill="#F9F2F2"/>
</g>
</svg>
