<svg width="160" height="209" viewBox="0 0 160 209" fill="none" xmlns="http://www.w3.org/2000/svg">
<g opacity="0.86">
<path d="M190.978 84.4662C188.973 93.895 185.524 103.104 179.767 110.982C178.214 113.128 176.476 115.15 174.738 117.173C172.836 119.417 170.895 121.698 168.957 123.902C169.111 122.227 169.836 120.616 170.408 118.998C172.288 113.923 172.885 108.483 173.78 103.209C175.573 92.5847 178.584 82.0936 182.834 72.0807C183.954 69.3794 185.146 66.7579 186.641 64.2269C187.765 62.2524 189.871 58.0672 192.097 57.0616C195.181 55.7134 193.829 61.7691 193.725 63.1791C193.493 66.5335 193.221 69.9243 192.836 73.2716C192.354 77.0732 191.762 80.755 190.978 84.4662Z" fill="#F9F2F2"/>
<path d="M172.217 21.5311C166.221 15.5932 159.23 10.4887 151.232 7.32592C154.58 10.9994 157.967 14.6365 161.315 18.31C163.898 21.145 166.522 23.9436 168.749 27.0297C170.762 29.8 172.423 32.7451 174.2 35.6573C176.366 39.2378 178.536 42.7419 180.899 46.2167C182.97 49.3721 185.194 52.5345 188.017 55.1512C188.898 55.9569 191.299 58.5922 192.644 58.4634C194.791 58.3336 193.283 55.3956 192.911 54.3459C190.253 46.5362 186.428 39.1312 181.58 32.3671C178.737 28.5258 175.655 24.9029 172.217 21.5311Z" fill="#F9F2F2"/>
<path d="M166.798 41.8908C161.805 35.7701 156.58 29.715 150.385 24.7621C143.158 18.9965 134.784 14.8603 126.45 10.6877C136.932 21.3079 144.749 34.1371 154.313 45.5942C157.574 49.4931 161.07 53.25 165.376 56.0502C167.715 57.5737 170.26 58.7625 172.972 59.6532C175.535 60.4605 177.93 60.7629 176.825 57.3847C174.91 51.6745 170.521 46.5378 166.798 41.8908Z" fill="#F9F2F2"/>
<path d="M151.683 116.255C154.412 104.413 157.221 92.4974 162.215 81.2954C164.22 76.8378 166.522 72.5471 168.864 68.2199C170.79 64.6382 172.835 60.9473 176.12 58.5378C176.068 62.9712 174.721 67.2681 173.603 71.5756C171.26 80.8739 170.243 90.425 166.958 99.412C165.252 104.036 162.902 108.516 160.073 112.629C157.45 116.408 153.931 121.369 149.955 123.823C150.221 121.388 151.108 118.752 151.683 116.255Z" fill="#F9F2F2"/>
<path d="M145.265 97.9839C142.889 101.392 140.327 104.676 137.729 107.921C133.466 113.268 129.093 118.495 124.608 123.679C124.325 124.01 123.765 123.716 123.939 123.265C125.805 119.298 126.81 114.947 128.001 110.72C132.191 96.2298 139.632 82.5792 149.655 70.9605C151.959 68.276 154.449 65.7147 157.408 63.7489C158.712 62.8533 160.255 61.7395 160.275 63.7672C160.281 65.2971 159.422 67.3222 159.009 68.7944C157.135 75.3995 154.541 81.8564 151.35 87.9797C149.509 91.4123 147.518 94.7615 145.265 97.9839Z" fill="#F9F2F2"/>
<path d="M131.777 40.9153C120.752 35.3941 109.024 31.0256 98.4526 24.7989C104.672 32.5062 112.322 39.0562 120.302 45.0862C130.61 52.8686 141.793 59.9267 154.363 63.4547C156.137 63.9577 160.895 65.2493 159.02 61.9883C157.673 59.7078 155.552 57.6209 153.649 55.7735C149.701 51.8427 145.115 48.4941 140.278 45.5928C137.562 43.9754 134.689 42.4271 131.777 40.9153Z" fill="#F9F2F2"/>
<path d="M120.781 50.4245C108.867 42.644 96.8039 34.7802 83.3887 29.6834C86.8419 33.553 90.2587 37.3826 93.7518 41.2159C95.9315 43.6879 98.1875 46.1635 100.567 48.4537C107.046 54.6817 114.807 59.669 123.293 63.0456C127.572 64.7739 132.025 66.0513 136.612 66.9143C138.28 67.2212 140.817 67.7596 139.902 65.2315C139.188 63.3245 136.475 61.6308 134.965 60.3752C130.466 56.8012 125.643 53.5947 120.781 50.4245Z" fill="#F9F2F2"/>
<path d="M66.7666 35.1831C75.7452 43.5921 84.7237 52.0011 94.7945 59.1223C99.8681 62.6848 105.225 65.9161 111.049 68.1367C114.016 69.3069 117.113 70.139 120.264 70.6294C120.947 70.7376 123.782 71.4429 124.17 70.5048C124.434 69.7523 121.605 68.0914 121.016 67.6051C110.344 59.4235 99.2299 51.7184 87.4119 45.1661C80.6629 41.4495 73.8199 38.1108 66.7666 35.1831Z" fill="#F9F2F2"/>
<path d="M53.2974 55.1313C62.7158 60.6545 72.1742 66.1412 82.3033 70.359C87.3678 72.4678 92.679 74.2057 98.1091 75.0314C100.882 75.4278 103.742 75.5988 106.58 75.4246C107.154 75.413 109.789 75.497 109.908 74.5848C109.98 73.8615 107.228 73.0072 106.591 72.71C95.7346 67.6937 84.624 63.201 73.1186 59.7989C66.5934 57.8517 59.9742 56.2826 53.2974 55.1313Z" fill="#F9F2F2"/>
<path d="M139.01 72.9141C138.402 75.295 137.791 77.7523 137.184 80.1332C136.522 82.8558 135.784 85.5749 134.933 88.2504C130.581 101.28 121.578 112.334 112.561 122.89C113.397 117.231 115.709 111.908 117.603 106.528C120.236 99.2315 122.19 91.7506 125.237 84.5882C127.255 79.8253 129.804 75.1636 133.128 71.1115C134.224 69.7474 136.404 66.4452 138.53 66.7734C141.035 67.1955 139.39 71.3256 139.01 72.9141Z" fill="#F9F2F2"/>
<path d="M123.61 73.4996C118.845 93.7753 109.533 113.151 96.4454 129.829C98.4084 121.316 101.131 112.914 104.264 104.724C107.311 96.758 110.732 88.9628 115.128 81.5952C116.705 78.9152 118.435 76.2422 120.275 73.689C120.724 73.0598 122.229 70.2998 122.992 70.3352C124.33 70.3591 123.798 72.7435 123.61 73.4996Z" fill="#F9F2F2"/>
<path d="M108.891 77.5581C99.5374 92.879 86.6786 106.278 71.6356 116.478C75.567 110.045 80.0584 103.906 84.8045 98.0459C89.4273 92.3715 94.3483 86.8638 99.8514 81.9951C101.884 80.2156 103.99 78.5161 106.168 76.8964C106.684 76.4997 108.644 74.6404 109.247 74.8214C110.302 75.1762 109.224 76.9618 108.891 77.5581Z" fill="#F9F2F2"/>
<path d="M88.3968 81.6164C93.075 79.6921 97.9573 78.3127 102.734 76.7371C107.78 75.1358 112.749 73.5309 117.754 71.9659C127.726 68.8724 137.65 65.9679 147.874 64.0333C167.55 60.2813 187.402 56.8816 207.284 54.4776C218.82 53.101 230.444 52.3022 242.076 52.1538C243.529 52.1448 243.47 54.2452 242.053 54.2942C221.802 54.7691 201.644 57.3515 181.647 60.5915C161.726 63.835 141.845 67.0422 122.487 72.9887C117.056 74.6486 111.626 76.3085 106.195 77.9685C100.532 79.6941 94.818 81.6851 88.9871 82.9058C88.1334 83.1721 87.5396 81.9591 88.3968 81.6164Z" fill="#F9F2F2"/>
<path d="M52.3457 106.941C56.073 99.963 62.8079 94.922 69.8712 91.0434C73.1286 89.2443 76.4881 87.7177 79.8148 86.0748C81.4964 85.2733 83.1779 84.4719 84.823 83.6305C86.3519 82.8219 88.0547 81.5625 89.6822 81.1027C90.4508 82.668 85.9388 86.7797 84.89 87.9547C82.8359 90.192 80.6362 92.2696 78.2547 94.1476C73.448 98.0162 68.0192 101.282 62.3242 103.695C59.1244 105.076 55.7861 106.145 52.3457 106.941Z" fill="#F9F2F2"/>
<path d="M45.3174 73.001C51.4355 77.9503 59.6068 79.8592 67.6423 80.5763C71.2984 80.899 75.0414 80.9963 78.7445 81.1299C80.5761 81.2149 82.4476 81.2635 84.3156 81.3885C86.0309 81.5064 88.1101 82.0235 89.7669 81.7563C89.8484 80.001 84.1263 78.0528 82.6647 77.4114C79.9305 76.1755 77.0694 75.2014 74.1649 74.34C68.1997 72.6865 62.0029 71.9017 55.7273 71.9928C52.2461 72.0224 48.7506 72.3573 45.3174 73.001Z" fill="#F9F2F2"/>
</g>
</svg>
