<svg width="26" height="26" viewBox="0 0 26 26" fill="none" xmlns="http://www.w3.org/2000/svg">
<path fill-rule="evenodd" clip-rule="evenodd" d="M19.5952 17.1338L23.1935 17.5446C24.6243 17.7146 25.701 18.9188 25.6868 20.3496V22.8004C25.6868 24.4013 24.3552 25.7329 22.7543 25.6338C10.6702 24.8829 0.994319 15.2213 0.243485 3.12293C0.144319 1.5221 1.47599 0.19043 3.07682 0.19043H5.52765C6.97265 0.19043 8.17682 1.2671 8.34682 2.69793L8.75765 6.26793C8.85682 7.1321 8.55932 7.9821 7.95015 8.59126L5.32932 11.2121C7.36932 15.2354 10.656 18.5079 14.6652 20.5479L17.2718 17.9413C17.881 17.3321 18.731 17.0346 19.5952 17.1338ZM14.1977 3.08044C18.7027 3.64711 22.2302 7.17461 22.7968 11.6796C22.8818 12.4021 23.491 12.9263 24.1993 12.9263C24.256 12.9263 24.3127 12.9263 24.3693 12.9121C25.1485 12.8129 25.701 12.1046 25.6018 11.3254C24.8793 5.53128 20.3318 0.983777 14.5377 0.261277C13.7585 0.176277 13.0502 0.728777 12.9652 1.50794C12.866 2.28711 13.4185 2.99544 14.1977 3.08044ZM14.736 6.06962C13.9852 5.87128 13.206 6.32462 13.0077 7.08962C12.8094 7.85462 13.2627 8.61962 14.0277 8.81795C15.5152 9.20045 16.6769 10.3621 17.0735 11.8638C17.2435 12.5013 17.8102 12.9263 18.4477 12.9263C18.561 12.9263 18.6885 12.9121 18.8019 12.8838C19.5527 12.6854 20.006 11.9063 19.8219 11.1554C19.156 8.64795 17.2152 6.70712 14.736 6.06962Z" fill="url(#paint0_linear)"/>
<defs>
<linearGradient id="paint0_linear" x1="24.9971" y1="10.1107" x2="0.561121" y2="10.2563" gradientUnits="userSpaceOnUse">
<stop offset="0.4375" stop-color="#12CAD6"/>
<stop offset="1" stop-color="#12B3D6"/>
</linearGradient>
</defs>
</svg>
