<svg width="200" height="162" viewBox="0 0 200 162" fill="none" xmlns="http://www.w3.org/2000/svg">
<path d="M63.3054 20.1567C59.5431 22.7399 55.7808 25.3231 51.7849 27.4824C45.3067 30.984 38.1869 33.275 30.8466 34.3017C29.0414 34.5739 27.9954 32.3363 29.3336 31.2164C32.07 28.9775 34.8663 26.7396 37.6618 24.5616C40.3362 22.4418 43.0698 20.383 45.9806 18.507C56.7162 11.4694 69.0913 7.09868 81.627 3.99125C84.8212 3.20032 88.6249 1.81849 91.927 1.8097C87.4323 5.16199 82.1685 7.7819 77.4394 10.7703C72.6483 13.8779 67.9773 16.9873 63.3054 20.1567Z" fill="#F9F2F2"/>
<path d="M68.7314 26.4244C77.5314 20.3173 87.3322 15.4864 97.9895 13.4905C100.88 12.935 103.826 12.6205 106.773 12.306C110.021 11.9362 113.328 11.5673 116.575 11.2574C115.175 12.4965 113.362 13.2488 111.668 14.123C106.283 16.8011 101.659 20.7517 96.9206 24.3404C87.3826 31.5768 76.9602 37.7788 65.8981 42.6502C62.9356 43.985 59.975 45.1998 56.839 46.1117C54.4261 46.8547 49.5355 48.6399 46.9676 47.7596C43.445 46.5042 49.1484 42.6304 50.3056 41.5677C53.0466 39.0287 55.8477 36.4906 58.7068 34.0735C61.9908 31.3628 65.272 28.8322 68.7314 26.4244Z" fill="#F9F2F2"/>
<path d="M21.3192 64.0515C18.1091 73.6074 16.393 83.6067 15.3953 93.7373C18.1885 87.8371 20.9225 81.8759 24.2522 76.2242C26.2878 72.7137 28.5617 69.3269 30.5383 65.7555C32.6377 62.0058 34.3207 58.0095 35.7045 53.9485C36.5848 51.3807 37.287 48.69 37.4499 45.9308C37.6007 43.952 37.6686 39.5704 35.8885 38.222C32.2988 41.2882 29.5806 46.229 27.3555 50.3369C24.8876 54.6212 22.8943 59.273 21.3192 64.0515Z" fill="#F9F2F2"/>
<path d="M36.0197 91.6561C36.3545 101.027 38.129 110.48 42.1973 119.128C42.283 113.606 42.3086 108.083 42.3943 102.561C42.4605 98.2999 42.4666 94.0375 43.012 89.8435C43.4908 86.0686 44.3879 82.4204 45.1659 78.7102C46.137 74.1626 47.0472 69.674 47.7791 65.0626C48.5036 60.9314 49.11 56.6783 48.816 52.4112C48.7164 51.0889 48.7779 47.1275 47.5914 46.2085C45.7541 44.6791 44.7388 48.2054 44.2409 49.3384C40.4492 57.6846 37.9096 66.5905 36.6867 75.757C36.0645 81.0305 35.8025 86.3095 36.0197 91.6561Z" fill="#F9F2F2"/>
<path d="M55.9035 79.2973C55.2873 88.053 54.9094 96.9324 56.1548 105.657C57.618 115.826 61.2494 125.548 64.8207 135.269C64.4176 118.693 67.853 102.356 68.8303 85.8017C69.1579 80.1634 69.1864 74.4605 67.8316 68.9161C67.0979 65.903 65.9422 63.0033 64.4245 60.2181C62.964 57.6139 61.255 55.5462 59.5786 59.1223C56.7826 65.2026 56.4261 72.7015 55.9035 79.2973Z" fill="#F9F2F2"/>
<path d="M124.74 30.5957C113.517 38.1061 102.173 45.6146 89.6042 50.8828C84.5889 52.9663 79.4592 54.6877 74.2694 56.4083C69.9846 57.8427 65.5197 59.2743 61.0256 58.7243C64.4427 55.1751 68.8033 52.7213 72.9867 50.0846C81.9611 44.3404 90.0539 37.3818 99.5536 32.6062C104.454 30.1608 109.766 28.3221 115.188 27.1455C120.187 26.0824 126.812 24.7443 131.899 25.7838C129.83 27.5528 127.106 29.0114 124.74 30.5957Z" fill="#F9F2F2"/>
<path d="M116.029 50.2721C120.547 49.3216 125.121 48.6121 129.693 47.9627C137.215 46.8787 144.733 45.9747 152.31 45.1918C152.791 45.1392 153.021 45.8032 152.537 46.0358C148.006 47.8266 143.881 50.5843 139.7 53.1009C125.279 61.6423 108.865 67.031 91.9076 68.809C87.9988 69.2287 84.0336 69.4073 80.1416 68.7465C78.4047 68.4794 76.3077 68.2067 77.8343 66.5494C78.9942 65.3067 81.2309 64.3208 82.6853 63.4428C89.2301 59.522 96.2447 56.2688 103.488 53.7397C107.592 52.3625 111.753 51.1663 116.029 50.2721Z" fill="#F9F2F2"/>
<path d="M83.5139 106.741C88.2373 119.602 94.4077 132.065 98.227 145.152C99.0577 134.179 97.8495 123.053 95.9783 112.098C93.5562 97.9519 89.8747 83.7263 82.3829 71.3027C81.3295 69.5454 78.4602 64.8781 77.4965 68.9456C76.8516 71.8173 76.9805 75.1212 77.1149 78.0651C77.319 84.2519 78.4836 90.4537 80.1911 96.4837C81.1593 99.8608 82.3066 103.301 83.5139 106.741Z" fill="#F9F2F2"/>
<path d="M99.6533 107.412C103.377 122.779 107.158 138.327 114.14 152.664C114.29 146.903 114.438 141.202 114.527 135.44C114.644 131.779 114.702 128.058 114.519 124.393C114.013 114.419 111.526 104.475 107.226 95.2826C105.077 90.6265 102.444 86.203 99.387 82.0131C98.2699 80.4949 96.6256 78.128 95.4424 80.8713C94.5695 82.959 95.4767 86.3951 95.7433 88.5605C96.6659 94.8786 98.1296 101.145 99.6533 107.412Z" fill="#F9F2F2"/>
<path d="M131.784 160.863C130.915 147.221 130.046 133.579 127.312 120.149C125.916 113.403 124.039 106.71 121.014 100.48C119.503 97.2742 117.628 94.2433 115.451 91.4479C114.98 90.8402 113.221 88.1113 112.193 88.5757C111.406 88.9837 112.433 92.4817 112.54 93.3239C114.952 108.07 118.086 122.767 122.667 137.067C125.303 145.213 128.302 153.124 131.784 160.863Z" fill="#F9F2F2"/>
<path d="M157.871 154.964C154.449 143.324 150.968 131.683 145.977 120.559C143.482 114.997 140.505 109.547 136.737 104.746C134.793 102.314 132.608 99.9992 130.178 97.9803C129.704 97.5527 127.635 95.4794 126.845 96.1275C126.236 96.6584 127.814 99.4445 128.103 100.169C133.075 112.494 138.65 124.588 145.376 136.099C149.177 142.642 153.341 148.95 157.871 154.964Z" fill="#F9F2F2"/>
<path d="M102.013 75.3298C104.317 73.8646 106.682 72.3404 108.986 70.8753C111.594 69.1747 114.261 67.5351 116.986 66.0165C130.426 58.7806 146.128 56.6829 161.463 54.9997C156.479 58.9448 150.556 61.4944 144.928 64.4089C137.242 68.312 129.967 72.8819 122.049 76.3611C116.789 78.681 111.178 80.515 105.403 81.2659C103.477 81.5362 99.1989 82.5504 97.7273 80.6665C96.0211 78.4187 100.496 76.3269 102.013 75.3298Z" fill="#F9F2F2"/>
<path d="M114.926 86.5768C134.216 73.7883 156.502 65.1888 179.791 61.6479C171.722 67.046 163.124 71.7755 154.353 76.022C145.824 80.1521 137.121 83.8594 127.955 86.4788C124.638 87.4479 121.203 88.2951 117.77 88.9623C116.927 89.1293 113.608 90.2185 113.018 89.609C111.953 88.5718 114.198 87.0457 114.926 86.5768Z" fill="#F9F2F2"/>
<path d="M129.932 94.494C149.165 89.2092 169.774 88.1482 189.716 91.3394C181.637 93.5554 173.328 95.1075 165.026 96.2394C156.964 97.315 148.788 98.0286 140.627 97.7819C137.627 97.6753 134.629 97.4486 131.632 97.102C130.913 97.0308 127.911 97.0442 127.56 96.4384C126.977 95.3487 129.208 94.7229 129.932 94.494Z" fill="#F9F2F2"/>
<path d="M149.612 106.807C144.36 104.804 139.358 102.205 134.291 99.8451C128.988 97.3013 123.743 94.8185 118.499 92.2757C108.072 87.1909 97.8264 81.9889 88.077 75.774C69.291 63.8356 50.6315 51.4788 32.7054 38.2929C22.3181 30.6273 12.2993 22.427 2.76907 13.694C1.5854 12.595 3.23206 10.9395 4.41666 11.9785C21.1735 27.0074 39.4589 40.2588 58.1146 52.8557C76.7113 65.3916 95.2479 77.9265 115.446 87.8457C121.106 90.6351 126.766 93.4246 132.426 96.214C138.325 99.1272 144.466 101.864 150.116 105.314C151.01 105.748 150.567 107.182 149.612 106.807Z" fill="#F9F2F2"/>
<path d="M198.074 113.743C189.745 116.555 180.456 115.51 171.785 113.275C167.779 112.252 163.897 110.931 159.953 109.729C157.982 109.098 156.01 108.467 154.038 107.896C152.185 107.387 149.848 107.111 148.18 106.244C148.749 104.392 155.532 104.497 157.275 104.344C160.641 104.096 164.003 104.088 167.36 104.381C174.196 104.907 181.077 106.395 187.524 108.776C191.166 110.093 194.682 111.769 198.074 113.743Z" fill="#F9F2F2"/>
<path d="M177.933 146.57C176.747 137.906 171.584 130.141 165.624 123.445C162.91 120.401 159.954 117.474 157.057 114.547C155.639 113.084 154.161 111.62 152.744 110.097C151.445 108.696 150.155 106.695 148.61 105.651C147.208 107.01 150.358 112.942 151.053 114.574C152.326 117.655 153.901 120.622 155.597 123.53C159.168 129.408 163.588 134.76 168.738 139.463C171.579 142.088 174.664 144.478 177.933 146.57Z" fill="#F9F2F2"/>
</svg>
