<svg width="47" height="44" viewBox="0 0 47 44" fill="none" xmlns="http://www.w3.org/2000/svg">
<path opacity="0.2" d="M10.9452 23.5792C10.9452 21.5637 12.5791 19.9298 14.5947 19.9298H15.5798C18.1393 19.9298 20.2143 17.8548 20.2143 15.2952V8.29176C20.2143 3.87348 16.6326 0.291763 12.2143 0.291763H8.24951C3.83123 0.291763 0.249512 3.87349 0.249512 8.29176V19.9295C0.249512 19.9297 0.24962 19.9298 0.249753 19.9298C0.249886 19.9298 0.249994 19.9299 0.249994 19.93V23.5792C0.249994 30.9899 2.41761 36.4926 6.693 39.9356C8.40859 41.3171 10.3887 42.3036 12.613 42.8884C15.4225 43.6272 17.8201 41.1698 17.8201 38.2648C17.8201 35.3598 14.9635 33.5156 13.0045 31.3705C11.8204 30.074 10.9452 27.7489 10.9452 23.5792ZM39.1305 31.3705C41.0895 33.5156 43.9461 35.3598 43.9461 38.2648C43.9461 41.1698 41.5485 43.6272 38.739 42.8884C36.5148 42.3035 34.5348 41.3171 32.8192 39.9356C28.5438 36.4926 26.376 30.9896 26.376 23.5792V19.9298V8.29176C26.376 3.87348 29.9577 0.291763 34.376 0.291763H38.34C42.7583 0.291763 46.34 3.87349 46.34 8.29176V15.2952C46.34 17.8548 44.2651 19.9298 41.7055 19.9298H40.7204C38.7049 19.9298 37.071 21.5637 37.071 23.5792C37.0711 27.7489 37.9463 30.074 39.1305 31.3705Z" fill="url(#paint0_linear)"/>
<defs>
<linearGradient id="paint0_linear" x1="45.0905" y1="26.6718" x2="0.834428" y2="26.3906" gradientUnits="userSpaceOnUse">
<stop offset="0.4375" stop-color="#12CAD6"/>
<stop offset="1" stop-color="#12B3D6"/>
</linearGradient>
</defs>
</svg>
