<svg width="244" height="114" viewBox="0 0 244 114" fill="none" xmlns="http://www.w3.org/2000/svg">
<g opacity="0.52">
<path d="M218.557 -9.39311C222.683 2.11329 225.008 14.1938 226.465 26.4511C222.935 19.3664 219.474 12.2064 215.299 5.43612C212.745 1.23002 209.906 -2.8202 207.422 -7.10164C204.785 -11.5961 202.647 -16.3998 200.87 -21.2891C199.74 -24.3807 198.823 -27.6256 198.558 -30.9666C198.326 -33.3619 198.137 -38.6721 200.262 -40.3504C204.689 -36.7211 208.105 -30.7977 210.903 -25.872C214 -20.7384 216.53 -15.1476 218.557 -9.39311Z" fill="#F9F2F2"/>
<path d="M201.41 24.4324C201.234 35.8011 199.314 47.3049 194.593 57.889C194.354 51.1967 194.188 44.5017 193.949 37.8093C193.764 32.6446 193.653 27.4772 192.889 22.406C192.216 17.8414 191.039 13.4404 190.005 8.96151C188.716 3.472 187.503 -1.94736 186.503 -7.52C185.523 -12.5107 184.684 -17.6521 184.936 -22.8324C185.025 -24.438 184.853 -29.239 186.269 -30.3821C188.459 -32.2812 189.776 -28.031 190.408 -26.6697C195.209 -16.6441 198.506 -5.9093 200.212 5.17363C201.096 11.5516 201.543 17.9452 201.41 24.4324Z" fill="#F9F2F2"/>
<path d="M177.003 9.93665C177.964 20.5364 178.64 31.292 177.344 41.8995C175.819 54.2632 171.654 66.1386 167.562 78.0113C167.645 57.9056 163.081 38.1844 161.491 18.1385C160.955 11.311 160.781 4.39785 162.288 -2.35688C163.104 -6.02781 164.434 -9.57144 166.206 -12.9852C167.913 -16.1781 169.934 -18.7267 172.054 -14.4323C175.592 -7.1294 176.208 1.95309 177.003 9.93665Z" fill="#F9F2F2"/>
<path d="M103.398 -23.7814C97.898 -24.8232 92.3357 -25.5714 86.776 -26.2468C77.6312 -27.3769 68.4941 -28.2888 59.2895 -29.0525C58.705 -29.1045 58.4426 -28.2939 59.0349 -28.0237C64.5712 -25.9636 69.6399 -22.7213 74.7709 -19.7726C92.4631 -9.77053 112.493 -3.63941 133.095 -1.89886C137.844 -1.4858 142.656 -1.36632 147.358 -2.26264C149.457 -2.62896 151.993 -3.01088 150.102 -4.98273C148.665 -6.46097 145.929 -7.60146 144.144 -8.63025C136.114 -13.2234 127.53 -16.9956 118.687 -19.8845C113.678 -21.4537 108.604 -22.802 103.398 -23.7814Z" fill="#F9F2F2"/>
<path d="M144.201 43.8849C138.79 59.5922 131.614 74.8527 127.304 90.8121C126.029 77.5287 127.221 64.0114 129.222 50.6838C131.812 33.4749 135.927 16.1386 144.705 0.893663C145.939 -1.26265 149.304 -6.9912 150.571 -2.08363C151.424 1.38205 151.348 5.39072 151.257 8.96293C151.161 16.4685 149.901 24.0156 147.979 31.3678C146.888 35.4856 145.581 39.6839 144.201 43.8849Z" fill="#F9F2F2"/>
<path d="M124.651 45.0921C120.512 63.8131 116.309 82.7549 108.196 100.307C107.873 93.3261 107.554 86.4181 107.304 79.4348C107.073 75 106.912 70.49 107.045 66.0423C107.413 53.9383 110.185 41.8214 115.174 30.5721C117.665 24.8748 120.749 19.4476 124.352 14.2932C125.669 12.4253 127.605 9.51555 129.106 12.8124C130.216 15.322 129.2 19.5099 128.93 22.1417C127.966 29.8239 126.345 37.4567 124.651 45.0921Z" fill="#F9F2F2"/>
<path d="M87.0068 110.678C87.7264 94.1185 88.446 77.559 91.431 61.21C92.9585 52.9978 95.0706 44.8376 98.5857 37.2099C100.339 33.287 102.537 29.5667 105.109 26.1243C105.665 25.3761 107.73 22.0247 108.988 22.5625C109.952 23.0379 108.793 27.3038 108.684 28.3274C106.12 46.2638 102.68 64.1586 97.4765 81.6066C94.4811 91.5465 91.0388 101.211 87.0068 110.678Z" fill="#F9F2F2"/>
<path d="M55.2373 104.166C59.1004 89.9711 63.0363 75.7732 68.8141 62.165C71.703 55.3609 75.1791 48.6815 79.6294 42.7685C81.926 39.773 84.5187 36.9126 87.4154 34.4056C87.9792 33.8756 90.4369 31.3114 91.4111 32.0778C92.1619 32.7065 90.3174 36.1228 89.9849 37.0087C84.259 52.0718 77.7953 66.8698 69.9235 80.9898C65.4758 89.015 60.5813 96.7648 55.2373 104.166Z" fill="#F9F2F2"/>
<path d="M121.006 6.25525C118.177 4.5354 115.272 2.74542 112.443 1.02558C109.24 -0.972248 105.966 -2.89473 102.625 -4.66913C86.154 -13.1125 67.0667 -15.2713 48.434 -16.9365C54.5731 -12.2758 61.8162 -9.32972 68.7113 -5.9342C78.1237 -1.3904 87.0556 3.97178 96.7408 7.99599C103.173 10.6797 110.022 12.7658 117.041 13.5348C119.382 13.8153 124.594 14.9402 126.332 12.6202C128.345 9.8534 122.869 7.42692 121.006 6.25525Z" fill="#F9F2F2"/>
<path d="M105.629 20.2077C81.93 5.17596 54.7006 -4.70401 26.3801 -8.42677C36.294 -2.07998 46.834 3.44326 57.5714 8.37676C68.0127 13.1752 78.654 17.4566 89.8305 20.4078C93.8755 21.5015 98.0608 22.4446 102.238 23.1694C103.265 23.3513 107.315 24.5905 108.016 23.8371C109.281 22.5537 106.522 20.7585 105.629 20.2077Z" fill="#F9F2F2"/>
<path d="M87.6286 30.1732C64.1819 24.2369 39.1712 23.455 15.0725 27.8119C24.9214 30.3007 35.0327 31.979 45.1258 33.148C54.9254 34.2547 64.8548 34.9198 74.7427 34.4209C78.3772 34.2183 82.0066 33.8701 85.6308 33.3765C86.5011 33.2725 90.1408 33.2154 90.5513 32.4724C91.232 31.137 88.5119 30.433 87.6286 30.1732Z" fill="#F9F2F2"/>
<path d="M64.0707 45.582C70.389 43.0255 76.3903 39.7521 82.4747 36.767C88.8423 33.5532 95.1398 30.4149 101.435 27.2038C113.952 20.7841 126.245 14.2268 137.913 6.45361C160.395 -8.47962 182.715 -23.9169 204.124 -40.3413C216.53 -49.8889 228.475 -60.0756 239.815 -70.8962C241.223 -72.2575 239.186 -74.2242 237.776 -72.9356C217.829 -54.3055 195.985 -37.7927 173.676 -22.0645C151.438 -6.4116 129.272 9.23867 105.028 21.7584C98.234 25.2787 91.4403 28.7989 84.6466 32.3192C77.5672 35.9954 70.1889 39.4637 63.4238 43.7842C62.3509 44.3323 62.9224 46.06 64.0707 45.582Z" fill="#F9F2F2"/>
<path d="M5.48708 55.1753C15.653 58.3811 26.8892 56.8872 37.346 53.9645C42.1782 52.6265 46.8519 50.93 51.6036 49.3764C53.9782 48.5632 56.3527 47.7501 58.7298 47.0096C60.9641 46.3471 63.7907 45.9548 65.7911 44.8637C65.0559 42.632 56.8359 42.9256 54.7186 42.7828C50.632 42.5645 46.5557 42.6373 42.4925 43.0738C34.218 43.8792 25.9123 45.8511 18.1548 48.8959C13.772 50.582 9.5503 52.6994 5.48708 55.1753Z" fill="#F9F2F2"/>
<path d="M30.7109 94.4814C31.9371 83.9492 38.0059 74.4094 45.0672 66.1452C48.2835 62.3886 51.7959 58.767 55.2356 55.148C56.9191 53.3398 58.6753 51.529 60.3562 49.6481C61.8968 47.9178 63.4114 45.4601 65.2585 44.1559C66.9914 45.7693 63.3179 53.0384 62.5151 55.0337C61.0473 58.8007 59.2105 62.4353 57.2257 66.0023C53.0404 73.2169 47.8133 79.8132 41.6847 85.6404C38.3048 88.8931 34.6235 91.8652 30.7109 94.4814Z" fill="#F9F2F2"/>
</g>
</svg>
