<svg width="256" height="251" viewBox="0 0 256 251" fill="none" xmlns="http://www.w3.org/2000/svg">
<g style="mix-blend-mode:multiply" opacity="0.6">
<path fill-rule="evenodd" clip-rule="evenodd" d="M29.0063 90.9719C25.8115 91.7521 22.5761 89.8167 21.949 86.5883C18.4492 68.5688 18.4048 46.6058 18.4048 45.5766C18.4086 35.8129 22.0391 26.3836 28.6196 19.0458C35.2001 11.7079 44.2818 6.96212 54.1724 5.69264C71.5135 3.523 98.3871 0.933716 127.879 0.933716C157.343 0.933716 184.217 3.523 201.567 5.69264C211.457 6.96393 220.537 11.7103 227.117 19.0477C233.698 26.3852 237.329 35.8134 237.334 45.5766C237.334 46.6058 237.29 68.5688 233.79 86.5883C233.163 89.8167 229.928 91.7521 226.733 90.9719L220.691 89.4964C217.449 88.7048 215.48 85.4214 216.083 82.139C219.047 65.9893 219.09 45.7984 219.09 45.5766C219.094 40.1543 217.083 34.9157 213.433 30.8369C209.783 26.7582 204.742 24.1175 199.25 23.4069C175.577 20.4228 151.738 18.8811 127.87 18.7909C99.3449 18.7909 73.3014 21.2998 56.4894 23.4069C50.9974 24.1175 45.9566 26.7582 42.3064 30.8369C38.6561 34.9157 36.6454 40.1543 36.6489 45.5766C36.6489 45.7983 36.6992 66.0138 39.6567 82.1382C40.2589 85.4211 38.2902 88.7049 35.0479 89.4966L29.0063 90.9719ZM64.0151 57.4337C64.0151 60.7474 66.7014 63.4337 70.0151 63.4337H76.2593C79.573 63.4337 82.2593 60.7474 82.2593 57.4337V51.5766C82.2593 48.2629 79.573 45.5766 76.2593 45.5766H70.0151C66.7014 45.5766 64.0151 48.2629 64.0151 51.5766V57.4337ZM91.3814 102.077C91.3814 105.39 94.0676 108.077 97.3814 108.077H103.625C106.939 108.077 109.625 105.39 109.625 102.077V96.2194C109.625 92.9057 106.939 90.2194 103.625 90.2194H97.3813C94.0676 90.2194 91.3814 92.9057 91.3814 96.2194V102.077ZM146.114 102.077C146.114 105.39 148.8 108.077 152.114 108.077H158.358C161.672 108.077 164.358 105.39 164.358 102.077V96.2194C164.358 92.9057 161.672 90.2194 158.358 90.2194H152.114C148.8 90.2194 146.114 92.9057 146.114 96.2194V102.077ZM173.48 57.4337C173.48 60.7474 176.166 63.4337 179.48 63.4337H185.724C189.038 63.4337 191.724 60.7474 191.724 57.4337V51.5766C191.724 48.2629 189.038 45.5766 185.724 45.5766H179.48C176.166 45.5766 173.48 48.2629 173.48 51.5766V57.4337ZM118.748 57.4337C118.748 60.7474 121.434 63.4337 124.748 63.4337H130.992C134.305 63.4337 136.992 60.7474 136.992 57.4337V51.5766C136.992 48.2629 134.305 45.5766 130.992 45.5766H124.748C121.434 45.5766 118.748 48.2629 118.748 51.5766V57.4337ZM222.903 183.8C216.244 194.541 209.968 204.693 209.968 215.228V227.085C209.968 230.399 207.282 233.085 203.968 233.085H193.465C190.897 233.085 188.613 231.451 187.785 229.02L181.432 210.366C180.605 207.934 178.321 206.3 175.753 206.3H79.9864C77.4182 206.3 75.1347 207.934 74.3068 210.366L67.9539 229.02C67.126 231.451 64.8425 233.085 62.2743 233.085H51.771C48.4573 233.085 45.771 230.399 45.771 227.085V215.228C45.771 204.693 39.4859 194.541 32.8359 183.8C25.7298 172.344 18.4048 160.505 18.4048 148.264C18.4048 135.934 28.6306 125.934 41.21 125.934C53.7984 125.934 64.0151 135.934 64.0151 148.255V173.505C64.0151 176.819 66.7014 179.505 70.0151 179.505H76.2593C79.573 179.505 82.2593 176.819 82.2593 173.505V163.995C82.2593 161.278 84.077 158.894 86.7156 158.248C96.7107 155.803 112.381 152.71 127.87 152.71C143.352 152.71 159.022 155.803 169.022 158.249C171.662 158.894 173.48 161.279 173.48 163.996V173.505C173.48 176.819 176.166 179.505 179.48 179.505H185.724C189.038 179.505 191.724 176.819 191.724 173.505V148.255C191.724 135.943 201.95 125.934 214.529 125.934C227.118 125.934 237.334 135.943 237.334 148.255C237.334 160.505 230 172.344 222.903 183.8ZM214.529 108.081C214.529 108.084 214.527 108.086 214.525 108.086C204.922 108.105 195.631 111.419 188.267 117.451C182.576 122.112 178.315 128.169 175.882 134.948C174.713 138.204 171.388 140.389 168.009 139.645C157.198 137.263 142.61 134.862 127.879 134.862C113.135 134.862 98.548 137.262 87.7368 139.648C84.3558 140.395 81.0266 138.208 79.8578 134.949C77.4266 128.169 73.167 122.112 67.4776 117.449C60.1119 111.413 50.8166 108.096 41.21 108.077C30.326 108.086 19.8905 112.322 12.1944 119.855C4.49824 127.388 0.170306 137.602 0.160645 148.255C0.160645 165.487 9.22798 180.139 17.228 193.059C22.528 201.603 27.536 209.693 27.536 215.219V244.934C27.536 248.247 30.2223 250.934 33.536 250.934H75.4192C77.9874 250.934 80.2709 249.299 81.0988 246.868L87.4517 228.214C88.2796 225.783 90.5631 224.148 93.1313 224.148H162.608C165.176 224.148 167.46 225.783 168.288 228.214L174.64 246.868C175.468 249.299 177.752 250.934 180.32 250.934H222.212C225.526 250.934 228.212 248.247 228.212 244.934V215.219C228.212 209.693 233.211 201.603 238.52 193.059C246.502 180.139 255.579 165.487 255.579 148.255C255.579 126.096 237.164 108.079 214.534 108.077C214.531 108.077 214.529 108.079 214.529 108.081Z" fill="url(#paint0_linear)"/>
</g>
<defs>
<linearGradient id="paint0_linear" x1="248.654" y1="98.388" x2="3.40124" y2="99.8814" gradientUnits="userSpaceOnUse">
<stop offset="0.4375" stop-color="#12CAD6"/>
<stop offset="1" stop-color="#12B3D6"/>
</linearGradient>
</defs>
</svg>
