<svg width="222" height="152" viewBox="0 0 222 152" fill="none" xmlns="http://www.w3.org/2000/svg">
<path d="M185.821 1.20376C183.977 -3.47232 182.132 -8.1484 180.799 -12.9706C178.639 -20.7888 177.936 -28.997 178.644 -37.13C178.798 -39.1352 181.458 -39.7059 182.33 -37.9931C184.058 -34.5033 185.771 -30.9494 187.419 -27.4112C189.035 -24.0172 190.571 -20.5748 191.866 -16.9873C196.773 -3.72653 198.412 10.6364 198.655 24.8599C198.716 28.484 199.261 32.9081 198.456 36.4551C195.966 30.8031 194.452 24.5061 192.411 18.6921C190.257 12.7823 188.071 7.00096 185.821 1.20376Z" fill="#F9F2F2"/>
<path d="M177.754 5.48215C182.139 16.4355 184.907 28.1483 184.421 40.0813C184.304 43.3211 183.915 46.5618 183.526 49.8026C183.121 53.3802 182.701 57.022 182.233 60.5838C181.248 58.7752 180.888 56.6436 180.367 54.6088C178.821 48.1677 175.721 42.2292 173.037 36.2571C167.622 24.233 163.535 11.5146 161.035 -1.56229C160.333 -5.07179 159.759 -8.54967 159.554 -12.1411C159.352 -14.9147 158.642 -20.6052 160.22 -23.1446C162.437 -26.6164 165.188 -19.5381 166.044 -18.0337C168.093 -14.4649 170.127 -10.8318 172.016 -7.16622C174.116 -2.97215 176.023 1.1745 177.754 5.48215Z" fill="#F9F2F2"/>
<path d="M159.46 64.578C154.166 50.6772 148.904 36.648 146.349 21.8554C145.35 15.9575 144.767 10.0261 144.201 4.03041C143.718 -0.923166 143.283 -6.06934 144.982 -10.7581C147.949 -6.21431 149.507 -0.927821 151.306 4.21348C155.258 15.2646 160.732 25.6688 163.515 37.0448C164.931 42.9091 165.594 49.0648 165.52 55.175C165.428 60.8041 165.23 68.2458 162.859 73.4501C161.47 70.793 160.577 67.5087 159.46 64.578Z" fill="#F9F2F2"/>
<path d="M140.486 50.3731C140.392 55.457 140.026 60.5419 139.595 65.611C138.903 73.9525 138.018 82.2466 136.99 90.5732C136.927 91.1027 136.158 91.1856 136.028 90.6087C135.223 85.3035 133.28 80.1948 131.61 75.0851C125.999 57.497 124.263 38.548 126.538 19.9054C127.052 15.6058 127.838 11.3052 129.508 7.29005C130.223 5.4914 131.033 3.30752 132.435 5.35519C133.483 6.907 133.99 9.55121 134.574 11.3292C137.168 19.3222 138.93 27.6549 139.858 36.0547C140.324 40.7999 140.581 45.5618 140.486 50.3731Z" fill="#F9F2F2"/>
<path d="M87.8876 1.53759C72.9162 3.43531 58.0149 6.98454 43.0239 7.85599C54.5991 11.4549 66.8401 12.9026 79.0625 13.5966C94.8456 14.4863 111.025 14.0436 126.21 9.0661C128.356 8.36885 134.074 6.44005 129.946 4.40213C127.022 3.00136 123.443 2.32459 120.25 1.74265C113.558 0.435534 106.613 0.155669 99.7189 0.501042C95.8548 0.707293 91.8791 1.09034 87.8876 1.53759Z" fill="#F9F2F2"/>
<path d="M83.1858 18.6976C65.7708 18.9042 48.1474 19.1275 31.0345 23.0856C37.1822 24.6672 43.2656 26.2331 49.4291 27.7506C53.3297 28.779 57.3102 29.7591 61.2898 30.4665C72.1214 32.3842 83.4103 32.1675 94.3389 29.8192C99.8673 28.6608 105.265 26.9256 110.517 24.6777C112.423 23.8531 115.369 22.6719 112.716 20.7249C110.691 19.2728 106.778 19.399 104.388 19.151C97.3777 18.5827 90.2897 18.608 83.1858 18.6976Z" fill="#F9F2F2"/>
<path d="M17.8809 40.0029C32.7394 42.4355 47.598 44.868 62.6897 45.2471C70.2756 45.4124 77.9237 45.0483 85.3586 43.3379C89.1723 42.5064 92.8883 41.2423 96.4265 39.5939C97.1949 39.2383 100.558 38.0236 100.313 36.8057C100.069 35.8604 96.0612 36.0992 95.1307 36.0063C78.7055 34.9585 62.1549 34.6969 45.6743 36.0869C36.2798 36.9063 27.0472 38.1741 17.8809 40.0029Z" fill="#F9F2F2"/>
<path d="M17.7778 69.4625C31.1174 68.6611 44.4727 67.7955 57.6455 65.1826C64.2318 63.8761 70.8162 62.0244 76.8999 59.1642C79.9896 57.6778 83.0142 55.903 85.781 53.7923C86.3569 53.3893 89.093 51.6797 88.5923 50.6711C88.1725 49.8869 84.7924 50.8932 83.9429 51.0245C69.4862 53.3213 55.1281 56.3234 41.1118 60.7033C33.1504 63.1694 25.351 66.0838 17.7778 69.4625Z" fill="#F9F2F2"/>
<path d="M117.044 29.1445C118.048 31.9794 119.101 34.8943 120.106 37.7292C121.288 40.9483 122.39 44.2158 123.348 47.5159C127.8 63.729 126.178 81.1024 124.202 97.98C121.196 91.6563 119.921 84.6689 118.18 77.9077C115.886 68.6948 112.775 59.7576 110.994 50.3986C109.801 44.1807 109.217 37.704 109.835 31.3192C110.02 29.1857 109.987 24.3428 112.372 23.2277C115.206 21.9507 116.348 27.2707 117.044 29.1445Z" fill="#F9F2F2"/>
<path d="M101.785 40.2322C110.755 64.0946 114.488 90.1407 112.544 116.015C108.74 106.021 105.784 95.6242 103.389 85.1609C101.06 74.986 99.2268 64.7292 98.6761 54.2432C98.4541 50.4434 98.392 46.5467 98.5226 42.6975C98.5513 41.7512 98.2008 37.9197 99.0009 37.4358C100.377 36.5488 101.461 39.3353 101.785 40.2322Z" fill="#F9F2F2"/>
<path d="M89.5837 54.388C90.5121 76.3387 86.5669 98.7238 78.2214 119.345C77.8357 110.125 78.2194 100.822 79.0525 91.6305C79.8866 82.7112 81.1375 73.7583 83.4157 65.0583C84.2702 61.864 85.2532 58.7013 86.3645 55.5702C86.6184 54.8156 87.3446 51.5896 88.0815 51.3625C89.3952 51.005 89.5165 53.5544 89.5837 54.388Z" fill="#F9F2F2"/>
<path d="M71.511 72.4777C74.9565 67.3337 78.9808 62.6046 82.7641 57.748C86.8033 52.6821 90.7624 47.6645 94.7857 42.6627C102.817 32.7234 110.928 23.0084 120.005 14.0756C137.456 -3.14586 155.324 -20.1283 173.901 -36.119C184.693 -45.3786 195.967 -54.1107 207.693 -62.1869C209.165 -63.1865 210.536 -61.0104 209.128 -59.995C188.861 -45.7142 170.125 -29.3541 152 -12.4349C133.955 4.43591 115.926 21.2425 100.295 40.4781C95.9037 45.8661 91.5129 51.254 87.1221 56.6419C82.5397 62.2551 78.0866 68.1724 72.9896 73.3865C72.3031 74.2389 70.8729 73.4101 71.511 72.4777Z" fill="#F9F2F2"/>
<path d="M52.1104 122.79C51.1458 113.155 54.559 103.441 59.0981 94.6846C61.1844 90.6359 63.5601 86.7947 65.8232 82.8577C66.9869 80.897 68.1506 78.9364 69.25 76.96C70.2537 75.0962 71.1269 72.6555 72.4684 71.0791C74.3164 72.147 72.5302 79.4019 72.2644 81.3112C71.7002 84.9856 70.8792 88.5967 69.7372 92.1288C67.4858 99.3373 64.1913 106.357 60.0445 112.69C57.732 116.275 55.0659 119.636 52.1104 122.79Z" fill="#F9F2F2"/>
<path d="M21.8394 93.0698C31.4323 93.9335 41.0413 90.307 49.7001 85.5613C53.6374 83.3983 57.5094 80.9469 61.3657 78.5597C63.286 77.3982 65.222 76.1725 67.2064 75.0268C69.0308 73.9779 71.4973 73.0871 72.9997 71.6866C71.8866 69.8463 64.7412 71.7642 62.818 72.1078C59.1959 72.7141 55.6232 73.6731 52.0831 74.7762C44.8912 77.1593 38.0558 80.5835 31.737 84.952C28.2175 87.354 24.8916 90.0761 21.8394 93.0698Z" fill="#F9F2F2"/>
</svg>
