<svg width="121" height="198" viewBox="0 0 121 198" fill="none" xmlns="http://www.w3.org/2000/svg">
<g opacity="0.86">
<path d="M-19.047 86.6465C-21.8689 95.1529 -23.43 104.161 -22.5132 113.186C-22.276 115.637 -21.832 118.077 -21.388 120.516C-20.9173 123.21 -20.4317 125.952 -19.9131 128.631C-19.2495 127.215 -19.0741 125.582 -18.7729 124.015C-17.896 119.06 -15.818 114.415 -14.0576 109.764C-10.5037 100.399 -7.98899 90.5677 -6.69357 80.5377C-6.32233 77.8445 -6.04701 75.1812 -6.05625 72.4487C-6.03016 70.3364 -5.75315 65.9892 -7.06661 64.1362C-8.90673 61.6056 -10.668 67.0988 -11.2475 68.2788C-12.6375 71.0788 -14.0126 73.9268 -15.2769 76.7929C-16.6764 80.0693 -17.932 83.3009 -19.047 86.6465Z" fill="#F9F2F2"/>
<path d="M-0.0519678 39.7005C6.85909 34.8656 14.4792 31.125 22.3743 27.93C18.2988 31.5663 14.1605 35.1696 10.4112 39.1777C8.07473 41.6412 5.89388 44.2667 3.49449 46.6972C0.981106 49.2684 -1.82863 51.5636 -4.76098 53.634C-6.61394 54.9475 -8.60761 56.147 -10.7836 56.9298C-12.3362 57.5185 -15.8369 58.6086 -17.3398 57.4985C-15.7273 53.8927 -12.4041 50.5433 -9.6329 47.7866C-6.77753 44.7933 -3.51496 42.094 -0.0519678 39.7005Z" fill="#F9F2F2"/>
<path d="M25.5779 44.9754C33.1782 43.0295 41.1848 42.2196 49.0875 43.441C44.6757 44.8148 40.2491 46.1407 35.8373 47.5145C32.4326 48.5747 29.0129 49.587 25.7756 51.0159C22.859 52.2924 20.1429 53.8746 17.3489 55.3759C13.9284 57.2301 10.5409 59.0214 7.01273 60.6987C3.86817 62.2566 0.597829 63.7484 -2.8965 64.5209C-3.98135 64.7535 -7.14631 65.7391 -8.16427 65.004C-9.82604 63.8908 -7.23569 62.2425 -6.44402 61.5751C-0.641369 56.5593 5.90647 52.4162 12.9746 49.2683C17.0602 47.5226 21.2353 46.0647 25.5779 44.9754Z" fill="#F9F2F2"/>
<path d="M20.3577 63.8549C27.2396 61.2911 34.277 58.8892 41.5738 57.8269C50.0812 56.598 58.7426 57.2149 67.389 57.7839C53.9894 61.3779 41.6894 67.9961 28.6333 72.693C24.1854 74.2885 19.6148 75.6591 14.8447 75.8821C12.2528 76.0053 9.6524 75.763 7.05827 75.2031C4.62293 74.6464 2.55945 73.7634 5.0335 71.5727C9.25283 67.8916 15.1873 65.8332 20.3577 63.8549Z" fill="#F9F2F2"/>
<path d="M-2.4623 130.614C0.913242 119.831 4.25891 108.953 5.5167 97.6192C6.00362 93.1015 6.17294 88.5774 6.32734 84.0054C6.46596 80.2273 6.55978 76.3054 5.05619 72.8283C3.01519 76.4097 2.07628 80.4896 0.948715 84.4704C-1.54072 93.031 -5.21321 101.171 -6.80099 109.924C-7.6055 114.436 -7.82593 119.133 -7.48901 123.763C-7.16072 128.027 -6.66901 133.66 -4.63246 137.497C-3.70155 135.419 -3.17467 132.888 -2.4623 130.614Z" fill="#F9F2F2"/>
<path d="M11.2719 118.973C11.5766 122.823 12.0881 126.662 12.6476 130.485C13.5551 136.778 14.6065 143.027 15.7687 149.293C15.8402 149.691 16.4274 149.719 16.4998 149.275C16.8664 145.216 18.1048 141.253 19.1364 137.302C22.5837 123.709 23.0297 109.262 20.449 95.2312C19.862 91.9947 19.0683 88.7701 17.6181 85.8024C16.9933 84.4714 16.2788 82.8528 15.3094 84.4697C14.5861 85.6945 14.3234 87.7226 13.9625 89.0975C12.3623 95.277 11.4091 101.676 11.091 108.087C10.9556 111.707 10.9789 115.329 11.2719 118.973Z" fill="#F9F2F2"/>
<path d="M48.9106 79.5298C60.3493 80.2814 71.8107 82.2883 83.2172 82.2608C74.6059 85.521 65.391 87.1807 56.1556 88.268C44.2294 89.6672 31.9416 90.0744 20.1997 86.9975C18.5402 86.5674 14.1161 85.3674 17.1529 83.6327C19.3054 82.4364 21.9877 81.759 24.3822 81.1711C29.3961 79.8728 34.649 79.3418 39.8924 79.2871C42.8316 79.2661 45.8637 79.374 48.9106 79.5298Z" fill="#F9F2F2"/>
<path d="M53.2632 92.3252C66.4771 91.6823 79.8497 91.0425 93.0067 93.2579C88.4181 94.7394 83.8774 96.206 79.2738 97.6396C76.3635 98.5984 73.3904 99.5243 70.4054 100.243C62.2808 102.195 53.7114 102.549 45.3174 101.27C41.0724 100.645 36.8998 99.5775 32.8144 98.1143C31.3319 97.5765 29.0435 96.8162 30.9657 95.2181C32.435 94.0241 35.4073 93.9402 37.2083 93.6424C42.4974 92.8897 47.8728 92.5835 53.2632 92.3252Z" fill="#F9F2F2"/>
<path d="M103.757 105.481C92.6023 108.007 81.448 110.534 70.0225 111.514C64.2784 111.988 58.4627 112.063 52.7469 111.107C49.8171 110.652 46.9416 109.864 44.1832 108.777C43.5842 108.542 40.9783 107.776 41.108 106.841C41.2496 106.113 44.2997 106.11 45.0009 105.997C57.4067 104.448 69.9437 103.49 82.5034 103.788C89.6641 103.977 96.7226 104.515 103.757 105.481Z" fill="#F9F2F2"/>
<path d="M105.188 127.813C95.0365 127.818 84.8705 127.775 74.7627 126.398C69.7088 125.71 64.6314 124.608 59.8873 122.719C57.4764 121.734 55.1016 120.527 52.9069 119.054C52.4518 118.775 50.2987 117.604 50.6321 116.816C50.9143 116.202 53.5234 116.81 54.1735 116.871C65.2403 117.949 76.2647 119.566 87.0932 122.243C93.2429 123.747 99.2903 125.599 105.188 127.813Z" fill="#F9F2F2"/>
<path d="M28.0708 101.801C27.4394 103.996 26.775 106.255 26.1436 108.45C25.395 110.945 24.7093 113.474 24.1345 116.02C21.5033 128.517 23.5306 141.616 25.8039 154.322C27.7923 149.389 28.4389 144.032 29.4478 138.826C30.7643 131.735 32.7127 124.816 33.6338 117.638C34.2528 112.869 34.3986 107.931 33.6364 103.119C33.3983 101.509 33.2012 97.836 31.3413 97.1C29.134 96.2619 28.5127 100.348 28.0708 101.801Z" fill="#F9F2F2"/>
<path d="M40.1497 109.507C34.4444 128.012 32.8094 147.932 35.4714 167.46C37.8971 159.709 39.6609 151.69 40.9963 143.646C42.2955 135.825 43.2143 127.963 43.1503 119.988C43.1443 117.096 43.0124 114.139 42.7367 111.226C42.6715 110.51 42.7613 107.589 42.1324 107.259C41.0484 106.649 40.3541 108.812 40.1497 109.507Z" fill="#F9F2F2"/>
<path d="M50.0508 119.68C50.3547 136.366 54.3737 153.158 61.6481 168.41C61.5173 161.401 60.7993 154.366 59.7456 147.434C58.7037 140.71 57.3442 133.979 55.2174 127.487C54.4228 125.104 53.5323 122.751 52.5459 120.428C52.3187 119.868 51.62 117.455 51.0509 117.317C50.0384 117.106 50.0634 119.045 50.0508 119.68Z" fill="#F9F2F2"/>
<path d="M64.5843 132.566C61.7357 128.824 58.4672 125.423 55.3757 121.914C52.0806 118.259 48.8483 114.636 45.5681 111.028C39.0227 103.861 32.4261 96.8672 25.1337 90.511C11.1119 78.2545 -3.21575 66.1985 -18.0356 54.9269C-26.643 48.4016 -35.5925 42.2984 -44.8541 36.7132C-46.0159 36.0229 -46.9555 37.7358 -45.8416 38.441C-29.8189 48.3385 -14.8616 59.8828 -0.342117 71.8791C14.1145 83.8424 28.5561 95.7578 41.291 109.625C44.8675 113.509 48.4441 117.392 52.0206 121.276C55.7528 125.321 59.4008 129.604 63.5049 133.323C64.0646 133.938 65.1109 133.244 64.5843 132.566Z" fill="#F9F2F2"/>
<path d="M81.6043 169.823C81.8933 162.473 78.8594 155.265 75.0157 148.834C73.248 145.86 71.2703 143.057 69.3736 140.175C68.4013 138.742 67.429 137.309 66.5046 135.861C65.658 134.494 64.8839 132.683 63.7944 131.55C62.4422 132.444 64.1296 137.863 64.4188 139.298C65.0153 142.058 65.8035 144.759 66.8316 147.385C68.8696 152.747 71.6898 157.918 75.1248 162.53C77.0428 165.141 79.2186 167.567 81.6043 169.823Z" fill="#F9F2F2"/>
<path d="M103.192 145.899C95.9579 146.994 88.5057 144.686 81.7226 141.485C78.638 140.026 75.5896 138.345 72.5561 136.712C71.0468 135.919 69.5226 135.079 67.9653 134.301C66.5339 133.59 64.6229 133.028 63.4194 132.035C64.1789 130.588 69.6847 131.714 71.1587 131.887C73.9329 132.18 76.6858 132.743 79.4206 133.417C84.9831 134.894 90.323 137.176 95.3146 140.198C98.0934 141.858 100.74 143.769 103.192 145.899Z" fill="#F9F2F2"/>
</g>
</svg>
