<svg width="41" height="41" viewBox="0 0 41 41" fill="none" xmlns="http://www.w3.org/2000/svg">
<path fill-rule="evenodd" clip-rule="evenodd" d="M20.2539 0.251953C31.2996 0.251953 40.2539 9.20626 40.2539 20.252C40.2539 31.2976 31.2996 40.252 20.2539 40.252C9.20821 40.252 0.253906 31.2976 0.253906 20.252C0.253906 9.20626 9.20821 0.251953 20.2539 0.251953Z" fill="#7F4DA0"/>
<path fill-rule="evenodd" clip-rule="evenodd" d="M25.5834 17.7183C25.4861 16.9281 25.2432 16.3076 24.8118 15.7579C24.2517 15.0502 23.5359 14.6264 22.4762 14.375C21.7856 14.2074 21.5065 14.2267 21.2568 14.4548C21.0241 14.6686 20.9787 15.0971 21.1565 15.3746C21.2815 15.5761 21.4258 15.6482 21.827 15.727C22.3612 15.8253 22.7304 15.9528 23.0663 16.1449C23.7792 16.5565 24.1111 17.2006 24.1467 18.2434C24.1633 18.733 24.2056 18.8835 24.3766 19.0572C24.6936 19.3746 25.2576 19.3129 25.4969 18.933C25.5847 18.7898 25.5981 18.7275 25.6074 18.3951C25.6135 18.1892 25.6047 17.8829 25.5834 17.7183Z" fill="white"/>
<path fill-rule="evenodd" clip-rule="evenodd" d="M28.3758 18.609C28.235 16.1879 27.288 14.24 25.5932 12.8695C24.6383 12.0994 23.484 11.5698 22.2188 11.3123C21.7554 11.2202 20.902 11.1455 20.7557 11.1882C20.6175 11.2278 20.4221 11.3774 20.335 11.5126C20.243 11.6593 20.2222 11.9868 20.3008 12.1763C20.4276 12.4929 20.6635 12.6048 21.3241 12.6626C22.3425 12.7517 23.3929 13.1095 24.1866 13.6392C25.0927 14.2423 25.813 15.0673 26.279 16.0366C26.6816 16.8695 26.9292 18.0697 26.9223 19.1445C26.92 19.5333 26.98 19.7528 27.1364 19.9133C27.3724 20.1601 27.7163 20.2141 28.0199 20.0501C28.3563 19.8732 28.435 19.5627 28.3758 18.609Z" fill="white"/>
<path fill-rule="evenodd" clip-rule="evenodd" d="M31.4636 27.9312C31.4162 27.7928 31.3057 27.5793 31.2268 27.4568C30.7294 26.7057 28.0572 24.6144 26.723 23.9305C25.9612 23.5392 25.3967 23.4087 24.9783 23.5312C24.5283 23.6578 24.2915 23.8673 23.5375 24.8042C23.2336 25.1798 22.9218 25.5316 22.8389 25.5869C22.6336 25.7292 22.231 25.8439 21.9468 25.8439C21.2876 25.8399 20.0916 25.413 19.1719 24.8516C18.4575 24.4168 17.5417 23.638 16.8391 22.8671C16.0101 21.9619 15.4458 21.1633 14.9997 20.262C14.4234 19.1037 14.2774 18.396 14.5181 17.8781C14.5773 17.7477 14.6563 17.6094 14.6918 17.5658C14.7273 17.5264 15.0984 17.2219 15.5088 16.8898C16.3141 16.2495 16.4444 16.1032 16.5943 15.6644C16.7838 15.1069 16.7325 14.5377 16.4404 13.9645C16.2154 13.5296 15.6273 12.5809 15.201 11.9681C14.6365 11.1617 13.2313 9.43809 12.951 9.20478C12.4458 8.79368 11.7985 8.72248 11.084 8.99927C10.3301 9.29181 8.91697 10.4303 8.31302 11.2249C7.7683 11.9444 7.55917 12.4543 7.52756 13.1264C7.49995 13.6798 7.54729 13.9091 7.8394 14.6168C10.1249 20.1671 13.5352 24.5986 18.2206 28.117C20.6679 29.9552 23.206 31.3547 25.8388 32.3114C27.3742 32.8688 28.0413 32.8964 28.8268 32.4379C29.1584 32.2402 29.9794 31.3982 30.4373 30.7854C31.1952 29.7655 31.4754 29.2951 31.5544 28.9195C31.6096 28.6626 31.5662 28.2159 31.4636 27.9312Z" fill="white"/>
<path fill-rule="evenodd" clip-rule="evenodd" d="M31.2166 19.1647C31.1661 17.7952 30.9355 16.6718 30.4547 15.4194C29.98 14.1874 29.4996 13.3834 28.5923 12.2961C27.7345 11.2766 27.0682 10.6944 26.0115 10.0465C24.5372 9.14363 22.7431 8.54617 20.7324 8.29491C20.0467 8.20709 19.8916 8.21337 19.6812 8.35373C19.2736 8.61964 19.279 9.28286 19.6879 9.54479C19.8233 9.6281 19.9434 9.65845 20.4919 9.73025C21.3339 9.8436 21.8753 9.95044 22.5177 10.1257C25.0369 10.8144 26.9742 12.222 28.2693 14.3115C29.3532 16.0532 29.8031 17.795 29.7392 20.0195C29.717 20.7716 29.7331 20.904 29.8481 21.0846C30.0682 21.4214 30.6488 21.488 30.9467 21.2086C31.132 21.0383 31.1669 20.9104 31.2034 20.2667C31.2209 19.9309 31.2247 19.4353 31.2166 19.1647Z" fill="white"/>
</svg>
