<svg width="31" height="40" viewBox="0 0 31 40" fill="none" xmlns="http://www.w3.org/2000/svg">
<path d="M24.2531 29.0103H6.87121C5.67124 29.0103 4.69847 29.9906 4.69847 31.1998C4.69847 32.4089 5.67124 33.3892 6.87121 33.3892H24.2531C25.4531 33.3892 26.4259 32.4089 26.4259 31.1998C26.4259 29.9906 25.4531 29.0103 24.2531 29.0103Z" fill="url(#paint0_linear)"/>
<path d="M27.534 11.4951C28.1424 11.4951 28.5986 11.8454 28.5986 12.152V37.1112C28.5986 37.4177 28.1424 37.768 27.534 37.768H2.52577V11.4951H27.534ZM27.534 9.30573H0.353027V39.9574H27.534C28.3363 40.0057 29.1252 39.7344 29.7308 39.202C30.3364 38.6695 30.7101 37.9187 30.7714 37.1112V12.152C30.7101 11.3445 30.3364 10.5936 29.7308 10.0611C29.1252 9.52873 28.3363 9.25743 27.534 9.30573Z" fill="url(#paint1_linear)"/>
<path d="M24.2532 3.59137V9.30571H7.21888L24.2532 3.59137ZM26.4259 0.548096L0.353027 9.30573V11.4951H26.4259V0.548096Z" fill="url(#paint2_linear)"/>
<path d="M15.2414 24.2959C12.8901 24.2959 10.9857 22.3991 10.9857 20.058C10.9857 17.7195 12.8901 15.8211 15.2414 15.8211C16.4131 15.8211 17.4743 16.293 18.2417 17.0573C17.2895 15.6999 15.7104 14.8128 13.9244 14.8128C11.0157 14.8128 8.65651 17.1611 8.65651 20.058C8.65651 22.957 11.0157 25.3041 13.9244 25.3041C15.7104 25.3041 17.2895 24.4157 18.2417 23.0608C17.4743 23.8222 16.4131 24.2959 15.2414 24.2959Z" fill="url(#paint3_linear)"/>
<path d="M20.3403 17.8094L21.3225 19.2213L22.9759 18.7261L21.9305 20.0944L22.9127 21.5088L21.2846 20.9393L20.2393 22.3074L20.2772 20.5884L18.6491 20.0188L20.3024 19.5285L20.3403 17.8094Z" fill="url(#paint4_linear)"/>
<defs>
<linearGradient id="paint0_linear" x1="29.9468" y1="15.9127" x2="0.738493" y2="16.047" gradientUnits="userSpaceOnUse">
<stop offset="0.4375" stop-color="#12CAD6"/>
<stop offset="1" stop-color="#12B3D6"/>
</linearGradient>
<linearGradient id="paint1_linear" x1="29.9468" y1="15.9127" x2="0.738493" y2="16.047" gradientUnits="userSpaceOnUse">
<stop offset="0.4375" stop-color="#12CAD6"/>
<stop offset="1" stop-color="#12B3D6"/>
</linearGradient>
<linearGradient id="paint2_linear" x1="29.9468" y1="15.9127" x2="0.738493" y2="16.047" gradientUnits="userSpaceOnUse">
<stop offset="0.4375" stop-color="#12CAD6"/>
<stop offset="1" stop-color="#12B3D6"/>
</linearGradient>
<linearGradient id="paint3_linear" x1="29.9468" y1="15.9127" x2="0.738493" y2="16.047" gradientUnits="userSpaceOnUse">
<stop offset="0.4375" stop-color="#12CAD6"/>
<stop offset="1" stop-color="#12B3D6"/>
</linearGradient>
<linearGradient id="paint4_linear" x1="29.9468" y1="15.9127" x2="0.738493" y2="16.047" gradientUnits="userSpaceOnUse">
<stop offset="0.4375" stop-color="#12CAD6"/>
<stop offset="1" stop-color="#12B3D6"/>
</linearGradient>
</defs>
</svg>
