<svg width="256" height="193" viewBox="0 0 256 193" fill="none" xmlns="http://www.w3.org/2000/svg">
<path d="M36.1406 152.06C36.847 157.358 37.5534 162.655 37.6934 167.972C37.9214 176.593 36.545 185.242 33.7315 193.453C33.06 195.483 30.1691 195.391 29.7078 193.4C28.8178 189.357 27.9606 185.251 27.1656 181.178C26.3674 177.262 25.664 173.317 25.2455 169.283C23.578 154.344 25.5642 139.104 28.9549 124.365C29.8198 120.609 30.3901 115.905 32.1291 112.451C33.2512 118.921 33.201 125.806 33.8189 132.328C34.5284 138.977 35.3034 145.502 36.1406 152.06Z" fill="#F9F2F2"/>
<path d="M45.5606 149.711C43.8402 137.286 43.9829 124.491 47.5402 112.303C48.4901 108.99 49.7216 105.745 50.9531 102.501C52.2861 98.9129 53.6519 95.2626 55.0471 91.7073C55.6001 93.8256 55.4263 96.1174 55.4423 98.3503C55.3889 105.393 57.0675 112.314 58.3073 119.163C60.8165 132.957 61.777 147.127 61.0088 161.261C60.8348 165.062 60.5363 168.797 59.8286 172.556C59.3272 175.47 58.6028 181.523 56.3238 183.739C53.1476 186.754 52.1207 178.746 51.6233 176.975C50.4224 172.767 49.2542 168.498 48.2431 164.232C47.1503 159.366 46.2441 154.599 45.5606 149.711Z" fill="#F9F2F2"/>
<path d="M59.7631 219.154C68.0451 227.566 77.5812 234.653 87.6347 241.058C82.9505 235.017 78.1713 229.005 74.0307 222.535C71.4415 218.55 69.1078 214.382 66.4237 210.427C63.6185 206.249 60.3352 202.375 56.826 198.78C54.6099 196.501 52.171 194.343 49.3753 192.712C47.3882 191.507 42.8475 189.116 40.4966 190.262C41.7989 195.635 45.5206 201.09 48.6335 205.589C51.802 210.435 55.6058 214.979 59.7631 219.154Z" fill="#F9F2F2"/>
<path d="M96.379 218.413C106.344 223.024 117.158 226.176 128.345 226.505C122.623 223.492 116.867 220.541 111.145 217.528C106.729 215.203 102.28 212.94 98.1875 210.15C94.498 207.651 91.1622 204.783 87.6988 202.006C83.4627 198.584 79.2561 195.257 74.8269 192.051C70.8952 189.107 66.7737 186.222 62.1609 184.27C60.727 183.674 56.6218 181.513 55.0338 182.266C52.4635 183.375 55.6094 186.303 56.5292 187.422C63.2397 195.802 71.1977 203.169 80.125 209.299C85.3039 212.741 90.6794 215.81 96.379 218.413Z" fill="#F9F2F2"/>
<path d="M93.9966 191.101C102.816 196.38 111.891 201.476 121.663 204.794C133.059 208.649 145.137 210.003 157.182 211.419C139.654 203.064 124.409 190.827 107.634 181.042C101.918 177.715 95.9765 174.666 89.468 173.146C85.9322 172.317 82.2916 171.989 78.5789 172.1C75.0855 172.247 72.021 172.937 74.8688 176.582C79.7396 182.721 87.3837 187.063 93.9966 191.101Z" fill="#F9F2F2"/>
<path d="M79.5689 93.4164C81.4721 109.115 83.3098 124.939 82.1584 140.857C81.6794 147.199 80.7618 153.468 79.8114 159.8C79.0413 165.035 78.1729 170.456 75.2191 174.86C73.321 169.411 73.0665 163.557 72.5271 157.792C71.2782 145.377 68.2941 133.24 68.3352 120.789C68.3754 114.375 69.2669 107.853 70.9081 101.567C72.4444 95.7825 74.5539 88.1544 78.3328 83.3913C79.0854 86.4886 79.1667 90.1064 79.5689 93.4164Z" fill="#F9F2F2"/>
<path d="M95.5106 112.932C96.9093 107.71 98.5896 102.557 100.332 97.4364C103.182 89.0063 106.218 80.6745 109.411 72.3459C109.611 71.8156 110.426 71.927 110.413 72.5556C109.885 78.2359 110.582 84.0048 110.997 89.7048C112.284 109.29 109.223 129.287 102.103 147.941C100.472 152.246 98.5589 156.483 95.8082 160.198C94.6097 161.871 93.2147 163.917 92.2918 161.445C91.6078 159.575 91.7621 156.717 91.615 154.733C90.9844 145.821 91.3001 136.772 92.4931 127.867C93.2272 122.851 94.1806 117.872 95.5106 112.932Z" fill="#F9F2F2"/>
<path d="M137.281 176.79C153.215 178.665 169.5 178.818 185.191 181.757C174.169 175.08 161.908 170.452 149.474 166.607C133.416 161.648 116.608 157.962 99.6649 159.21C97.2716 159.38 90.8774 159.906 94.6159 163.066C97.274 165.26 100.793 166.875 103.939 168.293C110.51 171.355 117.604 173.422 124.807 174.831C128.847 175.607 133.047 176.23 137.281 176.79Z" fill="#F9F2F2"/>
<path d="M146.525 160.287C164.548 164.533 182.79 168.815 201.462 169.112C195.523 165.906 189.647 162.733 183.676 159.589C179.914 157.529 176.058 155.498 172.132 153.75C161.447 148.997 149.743 146.331 137.865 145.956C131.863 145.736 125.849 146.144 119.854 147.119C117.677 147.482 114.334 147.946 116.573 150.635C118.292 152.652 122.361 153.523 124.764 154.391C131.852 156.772 139.172 158.561 146.525 160.287Z" fill="#F9F2F2"/>
<path d="M219.366 155.024C204.657 148.709 189.947 142.395 174.472 138.14C166.687 136.027 158.702 134.444 150.592 134.306C146.444 134.187 142.286 134.54 138.213 135.335C137.329 135.505 133.547 135.898 133.488 137.217C133.498 138.255 137.695 139.035 138.631 139.369C155.312 144.656 172.323 149.163 189.684 151.948C199.588 153.508 209.439 154.564 219.366 155.024Z" fill="#F9F2F2"/>
<path d="M227.015 124.652C213.045 122.063 199.043 119.537 184.782 118.861C177.651 118.522 170.383 118.747 163.373 120.141C159.804 120.884 156.229 121.941 152.833 123.41C152.136 123.678 148.875 124.742 149.133 125.911C149.366 126.828 153.111 126.655 154.021 126.737C169.527 128.068 185.111 128.647 200.695 127.716C209.541 127.21 218.336 126.199 227.015 124.652Z" fill="#F9F2F2"/>
<path d="M114.263 140.838C113.953 137.656 113.613 134.379 113.302 131.196C112.907 127.572 112.606 123.918 112.462 120.268C112.02 102.398 118.141 84.8865 124.502 67.9773C125.984 75.2719 125.511 82.8086 125.576 90.2307C125.584 100.324 126.506 110.343 125.948 120.456C125.587 127.178 124.532 134.01 122.258 140.44C121.521 142.594 120.316 147.6 117.569 148.14C114.318 148.732 114.502 142.95 114.263 140.838Z" fill="#F9F2F2"/>
<path d="M132.848 133.304C129.702 106.385 132.518 78.5535 141.149 52.353C142.516 63.6386 142.904 75.1239 142.696 86.5337C142.495 97.6292 141.76 108.682 139.643 119.643C138.9 123.621 137.966 127.658 136.846 131.596C136.574 132.565 135.954 136.608 135.005 136.903C133.358 137.466 132.952 134.313 132.848 133.304Z" fill="#F9F2F2"/>
<path d="M149.062 121.822C153.724 98.934 163.526 76.8459 177.417 57.7048C175.455 67.317 172.677 76.8177 169.464 86.0892C166.319 95.0791 162.736 103.997 158.158 112.391C156.459 115.468 154.634 118.48 152.686 121.426C152.231 122.14 150.656 125.283 149.837 125.328C148.39 125.361 148.917 122.699 149.062 121.822Z" fill="#F9F2F2"/>
<path d="M172.342 107.783C167.47 112.209 162.106 116.058 156.959 120.101C151.494 124.294 146.124 128.458 140.692 132.589C129.86 140.789 119.003 148.736 107.35 155.63C84.934 168.932 62.1485 181.88 38.8851 193.624C25.3789 200.416 11.5094 206.539 -2.65791 211.871C-4.43251 212.525 -5.28991 209.929 -3.57752 209.241C20.9919 199.695 44.5139 187.611 67.5483 174.793C90.4877 162.005 113.394 149.279 134.448 133.433C140.359 128.997 146.269 124.562 152.179 120.126C158.345 115.508 164.455 110.542 171.049 106.467C171.976 105.763 173.239 106.984 172.342 107.783Z" fill="#F9F2F2"/>
<path d="M205.242 60.8354C203.771 71.0239 197.762 80.1738 190.836 88.0468C187.647 91.6902 184.212 95.0456 180.869 98.5286C179.166 100.254 177.463 101.979 175.823 103.737C174.31 105.403 172.784 107.698 170.996 108.981C169.362 107.406 173.063 100.377 173.826 98.4752C175.349 94.8282 177.121 91.3122 179.204 87.96C183.372 81.0983 188.569 74.6984 194.47 69.2251C197.774 66.1186 201.385 63.3329 205.242 60.8354Z" fill="#F9F2F2"/>
<path d="M228.869 99.2524C219.191 95.905 208.348 97.1869 198.198 99.8668C193.581 101.091 188.958 102.629 184.368 104.105C182.089 104.811 179.778 105.581 177.437 106.255C175.285 106.87 172.512 107.158 170.603 108.218C171.281 110.402 179.145 110.252 181.217 110.39C185.11 110.692 189.042 110.617 192.978 110.385C201.009 109.768 208.939 107.985 216.577 105.095C220.824 103.517 224.953 101.56 228.869 99.2524Z" fill="#F9F2F2"/>
</svg>
