<svg width="34" height="32" viewBox="0 0 34 32" fill="none" xmlns="http://www.w3.org/2000/svg">
<path d="M17.0433 0.396362C26.0973 0.396362 33.4652 7.44024 33.5385 16.0611C33.5751 20.2664 31.889 24.2614 28.7732 27.2402C25.6941 30.254 21.552 31.9011 17.1533 31.9361H17.0433C7.98931 31.9361 0.621475 24.8922 0.548164 16.2714C0.47485 7.58041 7.84269 0.466451 17.0433 0.396362ZM17.0433 29.7984H17.1533C20.9655 29.7634 24.5211 28.3266 27.2337 25.7333C29.8729 23.1751 31.3391 19.7407 31.3025 16.0961C31.2658 8.63174 24.851 2.53406 16.9334 2.53406C9.05233 2.5691 2.71086 8.73687 2.74752 16.2714C2.82083 23.7358 9.23561 29.7984 17.0433 29.7984Z" fill="url(#paint0_linear)"/>
<path d="M6.22916 12.9072C6.41244 12.2764 7.03559 11.8209 7.73205 11.8209H13.597L15.6497 6.87966C15.8697 6.31896 16.4562 5.93347 17.0793 5.93347C17.7025 5.93347 18.289 6.28391 18.5089 6.87966L20.5616 11.8209H26.4266C27.1231 11.8209 27.7095 12.2414 27.9295 12.9072C28.1128 13.538 27.8562 14.2039 27.2697 14.5543L22.2112 17.5681L24.4105 23.841C24.5571 24.2966 24.4838 24.7872 24.1906 25.1727C23.8973 25.5581 23.4208 25.8035 22.9443 25.8035C22.5777 25.8035 22.2112 25.6633 21.9179 25.418L17.0427 21.3529L12.0941 25.453C11.8009 25.6983 11.4343 25.8035 11.0677 25.8035C10.5546 25.8035 10.078 25.5581 9.78479 25.1727C9.49154 24.7872 9.41823 24.2966 9.60151 23.841L11.9108 17.5681L6.85231 14.5543C6.30247 14.2039 6.00922 13.538 6.22916 12.9072ZM13.4504 16.0962C14.0735 16.4817 14.3301 17.1826 14.0735 17.8485L12.3507 22.5444L16.0163 19.4955C16.3095 19.2502 16.6761 19.1451 17.0427 19.1451C17.4092 19.1451 17.7758 19.2853 18.069 19.5306L21.6247 22.5794L19.9751 17.8134C19.7552 17.1476 20.0118 16.4467 20.6349 16.0962L24.3739 13.8534H20.1218C19.4986 13.8534 18.9121 13.503 18.6922 12.9072L17.0427 8.94726L15.3931 12.9423C15.1732 13.503 14.5867 13.8885 13.9636 13.8885H9.71148L13.4504 16.0962Z" fill="url(#paint1_linear)"/>
<defs>
<linearGradient id="paint0_linear" x1="1.442" y1="12.6911" x2="33.1204" y2="12.8886" gradientUnits="userSpaceOnUse">
<stop offset="0.4375" stop-color="#12CAD6"/>
<stop offset="1" stop-color="#12B3D6"/>
</linearGradient>
<linearGradient id="paint1_linear" x1="6.74757" y1="13.6791" x2="27.7107" y2="13.8164" gradientUnits="userSpaceOnUse">
<stop offset="0.4375" stop-color="#12CAD6"/>
<stop offset="1" stop-color="#12B3D6"/>
</linearGradient>
</defs>
</svg>
