<svg width="192" height="137" viewBox="0 0 192 137" fill="none" xmlns="http://www.w3.org/2000/svg">
<g opacity="0.86">
<path d="M179.955 14.4895C179.703 10.3437 179.451 6.19785 179.638 2.06843C179.942 -4.62667 181.491 -11.255 184.13 -17.4631C184.763 -18.9991 186.999 -18.7666 187.246 -17.1978C187.71 -14.0137 188.146 -10.7833 188.535 -7.58174C188.936 -4.5018 189.261 -1.40432 189.361 1.74578C189.821 13.4195 187.432 25.1226 183.982 36.3591C183.103 39.2218 182.398 42.8369 180.858 45.4174C180.349 40.3398 180.771 35.0053 180.656 29.9152C180.476 24.7211 180.239 19.6197 179.955 14.4895Z" fill="#F9F2F2"/>
<path d="M172.523 15.7853C173.164 25.5128 172.341 35.4231 168.904 44.6732C167.983 47.1885 166.847 49.6348 165.712 52.0812C164.479 54.7883 163.216 57.5418 161.937 60.2201C161.626 58.5472 161.889 56.7803 162.001 55.0486C162.434 49.5925 161.519 44.1336 160.94 38.755C159.763 27.9226 159.808 16.8848 161.191 5.9714C161.538 3.03458 161.978 0.155469 162.736 -2.71856C163.287 -4.94933 164.186 -9.60151 166.076 -11.1924C168.706 -13.3525 169.056 -7.0874 169.342 -5.6866C170.039 -2.3583 170.707 1.01639 171.253 4.37977C171.829 8.21215 172.265 11.958 172.523 15.7853Z" fill="#F9F2F2"/>
<path d="M137.283 -18.9986C130.741 -23.5822 123.99 -28.0379 116.6 -31.1545C107.981 -34.778 98.6939 -36.5005 89.4359 -38.2695C102.558 -30.8165 113.693 -20.481 126.151 -11.961C130.397 -9.06329 134.833 -6.36868 139.793 -4.82766C142.488 -3.98814 145.292 -3.53106 148.176 -3.41004C150.892 -3.32919 153.306 -3.69357 151.302 -6.6773C147.868 -11.7079 142.185 -15.5 137.283 -18.9986Z" fill="#F9F2F2"/>
<path d="M143.024 57.5296C142.424 45.2539 141.881 32.8855 143.66 20.6104C144.385 15.7211 145.446 10.9122 146.535 6.05694C147.424 2.04179 148.399 -2.11254 150.934 -5.36112C152.102 -1.03202 151.973 3.52002 152.07 8.01944C152.346 17.713 153.983 27.2877 153.258 36.9372C152.869 41.9068 151.815 46.9126 150.192 51.6937C148.679 56.0925 146.618 61.8881 143.424 65.3698C143.013 62.9269 143.151 60.1179 143.024 57.5296Z" fill="#F9F2F2"/>
<path d="M131.754 41.512C130.378 45.4819 128.789 49.3828 127.153 53.2548C124.474 59.6309 121.656 65.9204 118.716 72.1985C118.532 72.5985 117.906 72.4667 117.951 71.9802C118.677 67.6063 118.459 63.0956 118.455 58.6539C118.548 43.4001 122.035 28.0694 128.595 14.0058C130.099 10.7595 131.817 7.58221 134.157 4.85526C135.179 3.6253 136.375 2.11698 136.952 4.08465C137.378 5.57201 137.099 7.779 137.103 9.3252C137.095 16.2687 136.346 23.2659 134.925 30.1024C134.076 33.9496 133.06 37.7565 131.754 41.512Z" fill="#F9F2F2"/>
<path d="M102.933 -10.3164C90.6856 -12.6579 78.0705 -13.6839 66.0703 -16.8366C74.2427 -11.0463 83.4888 -6.77563 92.9132 -3.1018C105.085 1.63728 117.909 5.43099 131.112 5.40756C132.977 5.40923 137.963 5.35766 135.241 2.69981C133.303 0.850965 130.665 -0.596743 128.305 -1.87134C123.382 -4.61119 117.998 -6.60876 112.493 -8.10224C109.405 -8.92932 106.183 -9.64608 102.933 -10.3164Z" fill="#F9F2F2"/>
<path d="M94.8472 1.96062C81.1129 -2.33489 67.2106 -6.67056 52.7534 -7.94155C57.1782 -5.12532 61.5566 -2.33794 66.0102 0.431896C68.8113 2.23829 71.6876 4.02714 74.6329 5.60158C82.6514 9.88078 91.5756 12.6002 100.762 13.5528C105.402 14.0579 110.087 14.0765 114.788 13.6549C116.496 13.4948 119.114 13.321 117.528 11.1124C116.308 9.45306 113.202 8.55074 111.388 7.74401C106.026 5.50317 100.451 3.7087 94.8472 1.96062Z" fill="#F9F2F2"/>
<path d="M38.0879 1.98206C49.1382 7.69652 60.1886 13.411 71.9478 17.5719C77.865 19.6435 83.9667 21.3152 90.2454 21.8747C93.4543 22.1976 96.6972 22.1557 99.8988 21.7664C100.594 21.6838 103.547 21.5904 103.666 20.5709C103.716 19.7659 100.506 18.9275 99.7992 18.6163C87.1636 13.5887 74.2282 9.14667 60.9251 6.01999C53.3349 4.25894 45.7572 2.89165 38.0879 1.98206Z" fill="#F9F2F2"/>
<path d="M30.4668 25.0992C41.1516 27.8843 51.8653 30.6229 62.8827 31.942C68.3915 32.6016 74.0382 32.8323 79.5498 32.1426C82.3576 31.7657 85.188 31.1456 87.9019 30.1957C88.4575 30.0265 91.0446 29.3838 90.9094 28.4633C90.7804 27.7397 87.8674 27.6651 87.1664 27.5508C75.2211 25.6546 63.1728 24.3377 51.0403 24.1909C44.1546 24.0903 37.2813 24.3835 30.4668 25.0992Z" fill="#F9F2F2"/>
<path d="M118.774 18.8353C118.837 21.3195 118.918 23.879 118.981 26.3632C119.086 29.1948 119.116 32.0439 119.023 34.8817C118.371 48.7584 112.65 61.992 106.777 74.7453C106.034 69.008 106.821 63.1921 107.184 57.435C107.74 49.6101 107.584 41.7925 108.58 33.984C109.235 28.7938 110.433 23.5561 112.554 18.6985C113.245 17.0697 114.459 13.2565 116.618 12.9911C119.171 12.7133 118.706 17.185 118.774 18.8353Z" fill="#F9F2F2"/>
<path d="M103.946 23.6396C104.885 44.6821 101.15 66.0998 93 85.9289C92.5693 77.1044 92.9086 68.1796 93.7056 59.3465C94.48 50.7567 95.6657 42.2297 97.9172 33.8509C98.7154 30.8089 99.6641 27.7317 100.752 24.7411C101.017 24.0051 101.722 20.9053 102.475 20.7299C103.783 20.3854 103.921 22.852 103.946 23.6396Z" fill="#F9F2F2"/>
<path d="M90.7369 31.6375C85.8474 49.1198 77.018 65.6959 65.1833 79.7595C67.2402 72.4177 69.9229 65.2078 72.9303 58.1998C75.8687 51.4062 79.1431 44.6929 83.1599 38.4413C84.6489 36.1506 86.2307 33.9175 87.9053 31.7422C88.2979 31.2143 89.6941 28.8659 90.3312 28.876C91.4548 28.9315 90.8975 30.9653 90.7369 31.6375Z" fill="#F9F2F2"/>
<path d="M71.9086 41.2225C75.9322 38.0633 80.3042 35.3782 84.5196 32.5312C88.9896 29.5853 93.3843 26.6569 97.8253 23.7573C106.679 18.0046 115.538 12.4488 124.956 7.7546C143.073 -1.30791 161.458 -10.0757 180.145 -17.8828C190.994 -22.3948 202.086 -26.3689 213.365 -29.7121C214.778 -30.1206 215.298 -28.0601 213.932 -27.6228C194.354 -21.5915 175.447 -13.5349 156.877 -4.88256C138.382 3.75225 119.916 12.3407 102.712 23.4512C97.8837 26.5601 93.055 29.6689 88.2264 32.7778C83.1896 36.0146 78.1765 39.5234 72.8376 42.315C72.0801 42.8089 71.1686 41.7917 71.9086 41.2225Z" fill="#F9F2F2"/>
<path d="M43.7891 75.7822C45.4975 67.9663 50.6655 61.2083 56.4729 55.4913C59.1483 52.8447 61.9979 50.4351 64.7836 47.9214C66.1997 46.679 67.6157 45.4366 68.9854 44.1653C70.251 42.958 71.5618 41.2641 73.0191 40.3691C74.1976 41.681 70.9373 46.9233 70.2397 48.3553C68.8559 51.0975 67.2866 53.7243 65.4853 56.2068C61.8714 61.2936 57.4863 65.965 52.6073 69.879C49.8731 72.103 46.9182 74.0611 43.7891 75.7822Z" fill="#F9F2F2"/>
<path d="M27.6113 44.6844C34.9265 47.8186 43.4037 47.4292 51.421 45.9174C55.0678 45.226 58.7372 44.2913 62.3778 43.403C64.1837 42.982 66.0184 42.5147 67.8707 42.1226C69.5725 41.7656 71.7381 41.6971 73.277 40.9814C72.8736 39.2508 66.7691 38.9284 65.1703 38.7061C62.1695 38.2552 59.1173 38.094 56.0538 38.0545C49.7937 38.0857 43.5473 39.0261 37.4649 40.8406C34.0852 41.8267 30.7755 43.1139 27.6113 44.6844Z" fill="#F9F2F2"/>
</g>
</svg>
