<svg width="229" height="160" viewBox="0 0 229 160" fill="none" xmlns="http://www.w3.org/2000/svg">
<g opacity="0.86">
<path d="M42.8612 133.316C43.7359 137.849 44.6106 142.383 44.9978 146.962C45.6262 154.386 44.8725 161.915 42.8572 169.138C42.3798 170.922 39.8818 170.987 39.3841 169.294C38.414 165.851 37.4689 162.352 36.5792 158.879C35.6945 155.542 34.8902 152.174 34.3272 148.716C32.1404 135.915 33.09 122.671 35.2761 109.788C35.8339 106.506 36.0901 102.42 37.4169 99.354C38.7088 104.878 39.0105 110.819 39.8702 116.413C40.8153 122.113 41.8106 127.702 42.8612 133.316Z" fill="#F9F2F2"/>
<path d="M50.8677 130.818C48.7614 120.187 48.2434 109.145 50.7009 98.4541C51.3543 95.549 52.2539 92.689 53.1535 89.8291C54.1235 86.6676 55.1186 83.4508 56.1438 80.3144C56.7269 82.1138 56.6918 84.0991 56.8175 86.0242C57.1243 92.1008 58.9188 97.9865 60.3313 103.832C63.1865 115.603 64.7249 127.777 64.7704 140.005C64.8107 143.292 64.7405 146.529 64.3184 149.806C64.0319 152.345 63.7104 157.602 61.8558 159.628C59.2674 162.387 57.9805 155.531 57.4627 154.029C56.2161 150.46 54.9947 146.836 53.9089 143.207C52.7226 139.066 51.7022 135 50.8677 130.818Z" fill="#F9F2F2"/>
<path d="M98.1407 187.527C106.967 191.005 116.451 193.181 126.117 192.904C121.03 190.592 115.918 188.336 110.832 186.024C106.906 184.24 102.956 182.511 99.2864 180.309C95.9791 178.339 92.9583 176.032 89.832 173.811C86.007 171.072 82.2121 168.413 78.2313 165.87C74.6928 163.528 70.9934 161.246 66.9171 159.793C65.6505 159.351 62.0015 157.693 60.6695 158.421C58.5083 159.507 61.3683 161.874 62.2177 162.794C68.4253 169.685 75.6581 175.641 83.665 180.481C88.3043 183.19 93.0943 185.567 98.1407 187.527Z" fill="#F9F2F2"/>
<path d="M94.7179 164.09C102.589 168.201 110.671 172.142 119.266 174.514C129.289 177.268 139.773 177.83 150.233 178.448C134.697 172.121 120.935 162.33 105.976 154.731C100.88 152.148 95.6022 149.816 89.9125 148.831C86.8213 148.293 83.6649 148.192 80.4682 148.474C77.4626 148.776 74.854 149.525 77.4928 152.525C82.0015 157.576 88.8121 160.939 94.7179 164.09Z" fill="#F9F2F2"/>
<path d="M77.3797 80.56C79.8078 94.005 82.1855 107.561 81.9899 121.347C81.8946 126.841 81.4172 132.295 80.9147 137.803C80.5128 142.357 80.0354 147.077 77.7084 151.022C75.7983 146.418 75.2855 141.382 74.5314 136.436C72.8323 125.791 69.6504 115.472 69.062 104.731C68.7754 99.1974 69.2175 93.5278 70.3181 88.0241C71.3534 82.9576 72.7907 76.2727 75.8113 71.9753C76.6156 74.609 76.867 77.7252 77.3797 80.56Z" fill="#F9F2F2"/>
<path d="M92.1084 96.593C93.0532 92.0191 94.2443 87.4905 95.4907 82.9869C97.5261 75.5732 99.7274 68.2349 102.064 60.8916C102.21 60.4241 102.919 60.4794 102.939 61.0222C102.768 65.9479 103.658 70.8887 104.301 75.7842C106.393 92.6118 104.755 110.013 99.5481 126.458C98.3569 130.253 96.9196 134.003 94.7333 137.345C93.7833 138.848 92.6827 140.683 91.7628 138.597C91.0792 137.019 91.0691 134.546 90.8428 132.842C89.8525 125.187 89.6713 117.366 90.2541 109.626C90.636 105.263 91.2089 100.921 92.1084 96.593Z" fill="#F9F2F2"/>
<path d="M131.333 149.578C145.17 150.397 159.223 149.713 172.905 151.462C163.063 146.255 152.257 142.878 141.34 140.184C127.241 136.711 112.56 134.375 98.009 136.3C95.9533 136.566 90.4647 137.341 93.8474 139.879C96.25 141.638 99.3663 142.854 102.151 143.92C107.971 146.231 114.194 147.659 120.476 148.513C124 148.98 127.654 149.307 131.333 149.578Z" fill="#F9F2F2"/>
<path d="M138.48 134.881C154.238 137.64 170.186 140.419 186.305 139.74C181.022 137.273 175.795 134.83 170.487 132.418C167.14 130.829 163.712 129.271 160.239 127.96C150.784 124.396 140.556 122.683 130.292 122.954C125.105 123.065 119.939 123.719 114.817 124.86C112.957 125.282 110.097 125.85 112.163 128.056C113.746 129.71 117.3 130.258 119.416 130.886C125.649 132.585 132.052 133.761 138.48 134.881Z" fill="#F9F2F2"/>
<path d="M201.041 126.692C188.038 121.983 175.035 117.274 161.474 114.379C154.654 112.947 147.687 111.982 140.686 112.269C137.102 112.374 133.534 112.887 130.061 113.777C129.307 113.968 126.065 114.496 126.08 115.637C126.14 116.531 129.799 116.994 130.624 117.235C145.275 120.959 160.173 123.994 175.287 125.527C183.907 126.376 192.456 126.793 201.041 126.692Z" fill="#F9F2F2"/>
<path d="M206.117 100.113C193.939 98.5806 181.735 97.1033 169.401 97.2343C163.234 97.2998 156.976 97.8579 151 99.4111C147.959 100.231 144.928 101.321 142.073 102.759C141.485 103.025 138.726 104.106 139.007 105.101C139.254 105.88 142.476 105.543 143.265 105.568C156.705 105.94 170.175 105.658 183.57 104.075C191.174 103.195 198.709 101.883 206.117 100.113Z" fill="#F9F2F2"/>
<path d="M109.679 119.723C109.252 116.994 108.794 114.184 108.367 111.455C107.844 108.349 107.402 105.212 107.095 102.071C105.818 86.6809 110.221 71.2704 114.859 56.3676C116.503 62.585 116.473 69.109 116.901 75.5073C117.414 84.2127 118.711 92.8075 118.736 101.558C118.761 107.373 118.193 113.319 116.555 118.979C116.027 120.874 115.238 125.252 112.896 125.855C110.122 126.528 109.991 121.532 109.679 119.723Z" fill="#F9F2F2"/>
<path d="M125.331 112.294C121.269 89.2339 122.304 65.088 128.435 42.0578C130.179 51.7231 131.089 61.6096 131.482 71.4609C131.864 81.0409 131.784 90.6108 130.507 100.171C130.065 103.639 129.462 107.167 128.693 110.62C128.507 111.47 128.176 114.988 127.371 115.29C125.979 115.858 125.471 113.158 125.331 112.294Z" fill="#F9F2F2"/>
<path d="M138.742 101.578C141.616 81.6037 148.964 62.0616 159.986 44.8566C158.775 53.2454 156.855 61.5789 154.548 69.7365C152.286 77.6478 149.643 85.5189 146.115 92.9879C144.803 95.7273 143.381 98.4163 141.848 101.055C141.491 101.693 140.29 104.483 139.586 104.563C138.339 104.664 138.661 102.342 138.742 101.578Z" fill="#F9F2F2"/>
<path d="M158.116 88.3031C154.136 92.3644 149.703 95.9532 145.466 99.6979C140.962 103.588 136.539 107.449 132.061 111.284C123.13 118.899 114.163 126.297 104.458 132.827C85.7907 145.423 66.787 157.733 47.3108 169.027C36.002 175.561 24.3464 181.538 12.3943 186.846C10.8965 187.499 10.0269 185.303 11.4694 184.624C32.1821 175.159 51.8644 163.558 71.0893 151.349C90.2337 139.17 109.353 127.046 126.718 112.324C131.593 108.203 136.469 104.081 141.344 99.9594C146.43 95.6668 151.452 91.0778 156.935 87.2326C157.699 86.5791 158.85 87.5693 158.116 88.3031Z" fill="#F9F2F2"/>
<path d="M184.142 46.1627C183.383 55.0239 178.658 63.2167 173.08 70.3541C170.511 73.6564 167.717 76.7224 165.008 79.894C163.626 81.4673 162.243 83.0405 160.917 84.6389C159.695 86.1518 158.494 88.2075 157.016 89.4038C155.529 88.1272 158.368 81.8796 158.931 80.2008C160.062 76.979 161.414 73.8577 163.042 70.862C166.294 64.735 170.456 58.9547 175.271 53.9384C177.965 51.0935 180.94 48.51 184.142 46.1627Z" fill="#F9F2F2"/>
<path d="M206.443 78.1135C197.929 75.7112 188.641 77.3601 180.021 80.18C176.1 81.4668 172.19 83.0251 168.305 84.528C166.375 85.2519 164.42 86.031 162.434 86.7297C160.61 87.368 158.232 87.7551 156.639 88.7654C157.333 90.6151 164.108 90.0921 165.902 90.1072C169.275 90.1724 172.663 89.911 176.045 89.5138C182.941 88.5787 189.691 86.6435 196.135 83.7683C199.718 82.195 203.181 80.3 206.443 78.1135Z" fill="#F9F2F2"/>
</g>
</svg>
