<svg width="87" height="80" viewBox="0 0 87 80" fill="none" xmlns="http://www.w3.org/2000/svg">
<g style="mix-blend-mode:screen" opacity="0.33">
<path d="M66.8572 10.1332C68.6923 11.4139 70.5273 12.6946 72.4784 13.7683C75.6417 15.5095 79.124 16.6595 82.7193 17.1904C83.6034 17.3307 84.1246 16.2375 83.4727 15.6833C82.1394 14.5753 80.7767 13.4675 79.4142 12.3892C78.1108 11.3398 76.7782 10.32 75.358 9.3893C70.1206 5.89834 64.0692 3.70893 57.9344 2.1383C56.3712 1.73852 54.5114 1.04673 52.8923 1.03004C55.0836 2.69057 57.6547 3.9949 59.9623 5.47791C62.2997 7.01955 64.5784 8.56166 66.8572 10.1332Z" fill="white"/>
<path d="M64.1719 13.1857C59.88 10.1583 55.0927 7.75289 49.8747 6.73431C48.4596 6.4511 47.016 6.28586 45.5724 6.12062C43.9814 5.9271 42.3609 5.73381 40.7702 5.56972C41.452 6.18248 42.338 6.55816 43.1656 6.99317C45.7958 8.32647 48.0482 10.2809 50.3581 12.0582C55.0076 15.6421 60.0946 18.7221 65.5003 21.1521C66.9479 21.8177 68.3949 22.4245 69.9292 22.8833C71.1095 23.2567 73.5007 24.1504 74.7631 23.7283C76.495 23.126 73.713 21.2052 73.1496 20.6798C71.8152 19.4246 70.4513 18.1697 69.0585 16.9738C67.4584 15.6324 65.8591 14.3793 64.1719 13.1857Z" fill="white"/>
<path d="M87.2786 31.8123C88.8168 36.5098 89.6207 41.4191 90.072 46.39C88.7245 43.4866 87.4063 40.5535 85.7949 37.7698C84.81 36.0409 83.7077 34.3718 82.752 32.6133C81.7367 30.7669 80.9265 28.8011 80.2632 26.8048C79.8412 25.5424 79.507 24.2204 79.4374 22.867C79.3709 21.8962 79.354 19.7476 80.2319 19.0931C81.9805 20.6099 83.2948 23.0427 84.3704 25.0652C85.5644 27.1751 86.5243 29.4635 87.2786 31.8123Z" fill="white"/>
<path d="M79.9668 45.2931C79.7675 49.8864 78.862 54.5148 76.8348 58.74C76.8135 56.0321 76.8216 53.3241 76.8003 50.6162C76.7839 48.5265 76.7968 46.4365 76.5452 44.3781C76.3245 42.5254 75.8983 40.7332 75.5308 38.9112C75.0717 36.6777 74.6422 34.4735 74.3006 32.2097C73.9609 30.1814 73.6795 28.0937 73.8397 26.0026C73.8935 25.3546 73.8782 23.412 74.4634 22.9659C75.37 22.2229 75.8546 23.9557 76.0944 24.5131C77.9223 28.6196 79.1341 32.9959 79.6994 37.4949C79.9847 40.083 80.0933 42.6724 79.9668 45.2931Z" fill="white"/>
<path d="M70.2633 39.1584C70.5326 43.4538 70.6846 47.8089 70.0413 52.0821C69.2857 57.0625 67.4687 61.8158 65.6812 66.5689C65.941 58.4428 64.3178 50.4199 63.9007 42.2992C63.7612 39.5334 63.7686 36.737 64.4537 34.0236C64.8247 32.549 65.4023 31.1315 66.1569 29.7716C66.8827 28.5002 67.7284 27.4928 68.537 29.2525C69.8851 32.2442 70.0318 35.9224 70.2633 39.1584Z" fill="white"/>
<path d="M36.6944 15.0214C42.1691 18.7459 47.7027 22.47 53.8459 25.1002C56.2972 26.1406 58.8059 27.0039 61.3441 27.8669C63.4396 28.5863 65.6235 29.305 67.8291 29.0522C66.1669 27.2992 64.038 26.0797 61.9967 24.7712C57.618 21.921 53.676 18.4787 49.0361 16.1016C46.6422 14.8842 44.0447 13.9627 41.3909 13.3655C38.9436 12.8255 35.7004 12.1446 33.2023 12.6352C34.2099 13.5103 35.5402 14.2357 36.6944 15.0214Z" fill="white"/>
<path d="M40.892 24.7021C38.6806 24.2192 36.4407 23.8541 34.201 23.5185C30.5172 22.9588 26.8342 22.4874 23.1221 22.0751C22.8864 22.0476 22.7713 22.3723 23.0077 22.4881C25.2223 23.3832 27.2346 24.7508 29.2755 26.0004C36.3144 30.2425 44.3419 32.9462 52.6499 33.8816C54.5649 34.102 56.5084 34.2044 58.4192 33.895C59.2718 33.7706 60.3011 33.6447 59.5588 32.8264C58.9947 32.2127 57.9017 31.7209 57.1918 31.285C53.9976 29.338 50.5704 27.7166 47.0282 26.4494C45.0212 25.7587 42.9855 25.1566 40.892 24.7021Z" fill="white"/>
<path d="M56.6234 52.5119C54.2592 58.8001 51.187 64.8879 49.2653 71.2904C48.8991 65.9067 49.5332 60.4563 50.4918 55.0916C51.7324 48.1646 53.5909 41.2034 57.3108 35.14C57.8339 34.2822 59.2582 32.0045 59.7155 34.0025C60.0209 35.413 59.9454 37.0325 59.8684 38.4754C59.7451 41.5082 59.1509 44.5446 58.2911 47.4949C57.8037 49.1471 57.2282 50.8294 56.6234 52.5119Z" fill="white"/>
<path d="M48.7074 52.7796C46.8239 60.3003 44.9116 67.9096 41.4346 74.913C41.3829 72.0876 41.3315 69.2917 41.3092 66.4662C41.2657 64.671 41.2513 62.8462 41.3549 61.0498C41.6402 56.1614 42.897 51.2948 45.0399 46.8038C46.111 44.5289 47.4186 42.3699 48.9331 40.3269C49.4866 39.5867 50.3017 38.4323 50.8716 39.7819C51.2917 40.8088 50.834 42.4901 50.6952 43.5509C50.2191 46.6453 49.478 49.7123 48.7074 52.7796Z" fill="white"/>
<path d="M32.7539 78.8665C33.2311 72.181 33.7083 65.4955 35.0989 58.9206C35.8087 55.6183 36.7543 52.3436 38.261 49.3C39.0139 47.734 39.9442 46.255 41.0226 44.8925C41.2557 44.5963 42.1283 43.2649 42.6305 43.4964C43.0148 43.6994 42.4984 45.4107 42.4428 45.8232C41.2045 53.0445 39.6128 60.2391 37.313 67.2333C35.9904 71.2174 34.4902 75.0851 32.7539 78.8665Z" fill="white"/>
<path d="M19.9844 75.8774C21.7056 70.183 23.4563 64.4883 25.9449 59.0527C27.1893 56.3349 28.6695 53.6741 30.5349 51.3341C31.4969 50.1491 32.5771 49.0221 33.7762 48.0413C34.0101 47.8334 35.0324 46.8246 35.4175 47.1453C35.714 47.4079 34.9299 48.7681 34.7855 49.1224C32.3016 55.1467 29.5223 61.0555 26.1816 66.6744C24.2934 69.8683 22.2278 72.9457 19.9844 75.8774Z" fill="white"/>
<path d="M47.6716 37.0398C46.5474 36.3128 45.3935 35.5566 44.2692 34.8296C42.9969 33.986 41.6953 33.172 40.3648 32.4172C33.802 28.8189 26.1109 27.7315 18.5981 26.8487C21.0271 28.8018 23.9218 30.0741 26.6706 31.5242C30.4241 33.4668 33.9741 35.7348 37.8438 37.4704C40.4137 38.6276 43.1584 39.5479 45.9872 39.9377C46.9302 40.0774 49.0241 40.5908 49.7528 39.6726C50.5978 38.5768 48.4114 37.5344 47.6716 37.0398Z" fill="white"/>
<path d="M41.2978 42.5066C31.8876 36.1639 20.9923 31.8639 9.58665 30.0404C13.5226 32.7174 17.7208 35.0686 22.0055 37.1836C26.172 39.2407 30.4252 41.091 34.9096 42.4097C36.5324 42.8973 38.2136 43.3256 39.894 43.6656C40.3068 43.7507 41.93 44.2971 42.222 44.0005C42.7479 43.496 41.6528 42.7393 41.2978 42.5066Z" fill="white"/>
<path d="M33.9104 46.332C24.4998 43.6686 14.3989 43.0712 4.60887 44.5611C8.56193 45.6779 12.6302 46.4701 16.6968 47.0562C20.6454 47.6138 24.6516 47.9944 28.654 47.904C30.1254 47.863 31.5964 47.7631 33.0669 47.6043C33.4198 47.5721 34.8917 47.59 35.066 47.2943C35.3561 46.7622 34.2646 46.447 33.9104 46.332Z" fill="white"/>
<path d="M24.2134 52.2951C26.7961 51.3328 29.2588 50.0772 31.7518 48.939C34.3618 47.7117 36.9426 46.514 39.5232 45.2868C44.655 42.8328 49.698 40.3205 54.5016 37.3098C63.7575 31.5266 72.9529 25.5378 81.7919 19.1398C86.9137 15.4201 91.8568 11.4369 96.5624 7.19073C97.1469 6.6563 96.3457 5.83844 95.761 6.34343C87.4884 13.6495 78.4731 20.0784 69.2787 26.1849C60.1134 32.2617 50.9776 38.3383 41.0368 43.1262C38.2511 44.4727 35.4654 45.8191 32.6797 47.1656C29.7768 48.5719 26.7553 49.8908 23.9722 51.5611C23.5323 51.7706 23.7439 52.4754 24.2134 52.2951Z" fill="white"/>
<path d="M0.426347 55.5158C4.49945 56.9261 9.05809 56.4487 13.3178 55.3849C15.2861 54.8985 17.1943 54.2653 19.1325 53.6908C20.1015 53.3888 21.0705 53.0869 22.0397 52.8143C22.9502 52.5717 24.0972 52.4449 24.9181 52.0263C24.646 51.116 21.3201 51.1422 20.4658 51.0606C18.8164 50.9264 17.1679 50.91 15.5206 51.0407C12.1669 51.2731 8.78741 51.9767 5.61745 53.1202C3.8269 53.7524 2.09661 54.5608 0.426347 55.5158Z" fill="white"/>
<path d="M10.1777 71.686C10.7919 67.4426 13.3523 63.6548 16.2996 60.3938C17.6419 58.9114 19.1025 57.4871 20.5336 56.0629C21.2344 55.351 21.9646 54.6388 22.6652 53.8974C23.3074 53.2154 23.9473 52.239 24.7086 51.7326C25.3909 52.4042 23.8243 55.3012 23.4773 56.0986C22.8416 57.6048 22.0583 59.0533 21.2158 60.4728C19.4429 63.3419 17.2558 65.9494 14.713 68.2359C13.3102 69.5126 11.7887 70.6726 10.1777 71.686Z" fill="white"/>
</g>
</svg>
