<svg width="282" height="170" viewBox="0 0 282 170" fill="none" xmlns="http://www.w3.org/2000/svg">
<g opacity="0.86">
<path d="M227.131 157.664C226.399 163.15 225.668 168.635 225.523 174.141C225.287 183.067 226.712 192.023 229.625 200.525C230.32 202.627 233.314 202.532 233.792 200.47C234.713 196.283 235.601 192.032 236.424 187.815C237.25 183.76 237.979 179.675 238.412 175.498C240.139 160.029 238.082 144.248 234.571 128.986C233.676 125.098 233.085 120.227 231.284 116.65C230.122 123.349 230.174 130.479 229.535 137.232C228.8 144.117 227.997 150.874 227.131 157.664Z" fill="#F9F2F2"/>
<path d="M217.377 155.232C219.159 142.366 219.011 129.118 215.327 116.497C214.344 113.066 213.069 109.707 211.793 106.347C210.413 102.632 208.999 98.8522 207.554 95.1707C206.982 97.3642 207.162 99.7373 207.145 102.049C207.2 109.341 205.462 116.508 204.178 123.601C201.58 137.884 200.586 152.556 201.381 167.191C201.561 171.127 201.87 174.995 202.603 178.887C203.122 181.904 203.872 188.172 206.232 190.467C209.521 193.589 210.584 185.296 211.099 183.462C212.343 179.106 213.553 174.685 214.599 170.267C215.731 165.23 216.669 160.293 217.377 155.232Z" fill="#F9F2F2"/>
<path d="M182.162 96.9406C180.192 113.196 178.289 129.581 179.481 146.064C179.977 152.63 180.927 159.122 181.911 165.679C182.709 171.099 183.608 176.713 186.667 181.272C188.632 175.631 188.896 169.569 189.454 163.599C190.747 150.744 193.837 138.176 193.795 125.284C193.753 118.642 192.83 111.889 191.131 105.381C189.54 99.3906 187.355 91.4919 183.442 86.5599C182.663 89.767 182.579 93.5131 182.162 96.9406Z" fill="#F9F2F2"/>
<path d="M165.655 117.148C164.207 111.741 162.467 106.405 160.663 101.103C157.712 92.3742 154.568 83.7468 151.261 75.1228C151.055 74.5736 150.21 74.689 150.224 75.3399C150.771 81.2217 150.05 87.1952 149.62 93.0974C148.287 113.377 151.456 134.084 158.829 153.399C160.518 157.857 162.499 162.244 165.347 166.091C166.588 167.823 168.032 169.942 168.988 167.382C169.696 165.446 169.537 162.487 169.689 160.432C170.342 151.204 170.015 141.834 168.78 132.613C168.02 127.42 167.032 122.263 165.655 117.148Z" fill="#F9F2F2"/>
<path d="M122.403 183.272C105.904 185.213 89.0412 185.371 72.7928 188.415C84.2064 181.501 96.9016 176.709 109.777 172.727C126.404 167.592 143.809 163.775 161.353 165.068C163.831 165.244 170.452 165.789 166.581 169.061C163.828 171.332 160.184 173.004 156.927 174.473C150.123 177.643 142.777 179.784 135.319 181.242C131.136 182.046 126.786 182.691 122.403 183.272Z" fill="#F9F2F2"/>
<path d="M112.831 166.183C94.1689 170.58 75.2798 175.013 55.946 175.321C62.0952 172.001 68.18 168.716 74.3631 165.46C78.258 163.327 82.2513 161.225 86.3158 159.414C97.3804 154.493 109.5 151.732 121.799 151.344C128.013 151.116 134.241 151.538 140.448 152.548C142.703 152.924 146.164 153.405 143.845 156.188C142.066 158.277 137.852 159.179 135.364 160.078C128.025 162.544 120.445 164.396 112.831 166.183Z" fill="#F9F2F2"/>
<path d="M37.4072 160.733C52.6381 154.195 67.8689 147.656 83.8933 143.25C91.9547 141.062 100.223 139.424 108.62 139.28C112.915 139.158 117.221 139.523 121.438 140.346C122.354 140.522 126.269 140.929 126.331 142.295C126.321 143.369 121.975 144.177 121.005 144.523C103.733 149.997 86.1189 154.664 68.1415 157.549C57.8867 159.164 47.686 160.257 37.4072 160.733Z" fill="#F9F2F2"/>
<path d="M29.4863 129.284C43.9515 126.604 58.4507 123.988 73.2179 123.287C80.6015 122.937 88.1276 123.17 95.386 124.613C99.0814 125.382 102.784 126.476 106.299 127.998C107.021 128.276 110.398 129.377 110.131 130.588C109.89 131.537 106.012 131.358 105.069 131.443C89.0138 132.821 72.877 133.42 56.7399 132.456C47.5797 131.932 38.4737 130.886 29.4863 129.284Z" fill="#F9F2F2"/>
<path d="M146.238 146.045C146.559 142.75 146.911 139.356 147.233 136.061C147.643 132.308 147.954 128.524 148.103 124.744C148.561 106.241 142.222 88.1083 135.636 70.5993C134.101 78.1527 134.591 85.9567 134.524 93.6421C134.515 104.094 133.561 114.468 134.139 124.94C134.513 131.899 135.605 138.974 137.959 145.632C138.722 147.863 139.97 153.046 142.815 153.605C146.181 154.218 145.99 148.231 146.238 146.045Z" fill="#F9F2F2"/>
<path d="M126.994 138.243C130.251 110.369 127.335 81.5506 118.398 54.4208C116.983 66.1067 116.581 77.9993 116.796 89.8138C117.005 101.303 117.766 112.748 119.958 124.098C120.728 128.216 121.695 132.396 122.855 136.474C123.136 137.478 123.777 141.665 124.761 141.969C126.466 142.552 126.886 139.288 126.994 138.243Z" fill="#F9F2F2"/>
<path d="M110.204 126.353C105.377 102.654 95.2269 79.7822 80.8432 59.9623C82.8753 69.9153 85.7515 79.753 89.0786 89.3534C92.3344 98.6621 96.0446 107.896 100.785 116.588C102.545 119.774 104.434 122.893 106.451 125.944C106.923 126.683 108.554 129.937 109.401 129.984C110.9 130.018 110.354 127.262 110.204 126.353Z" fill="#F9F2F2"/>
<path d="M86.099 111.817C91.1441 116.399 96.6977 120.385 102.028 124.571C107.686 128.913 113.247 133.225 118.871 137.502C130.087 145.993 141.33 154.222 153.396 161.36C176.607 175.134 200.201 188.542 224.289 200.702C238.275 207.735 252.636 214.076 267.306 219.596C269.143 220.274 270.031 217.585 268.258 216.874C242.817 206.988 218.461 194.475 194.61 181.203C170.856 167.962 147.137 154.784 125.337 138.376C119.217 133.783 113.097 129.19 106.977 124.598C100.593 119.815 94.2662 114.673 87.4379 110.453C86.4784 109.725 85.17 110.989 86.099 111.817Z" fill="#F9F2F2"/>
<path d="M52.0313 63.204C53.555 73.7538 59.7772 83.2283 66.9485 91.3805C70.251 95.1532 73.8077 98.6275 77.2696 102.234C79.0327 104.02 80.7958 105.807 82.4945 107.627C84.061 109.352 85.6411 111.729 87.4923 113.057C89.1837 111.426 85.3519 104.148 84.5617 102.179C82.9847 98.4025 81.1502 94.7618 78.9936 91.2906C74.6769 84.1855 69.2959 77.5586 63.1861 71.8913C59.765 68.6745 56.0253 65.7901 52.0313 63.204Z" fill="#F9F2F2"/>
<path d="M27.5669 102.984C37.5876 99.5175 48.8158 100.845 59.3256 103.62C64.1058 104.887 68.8929 106.48 73.646 108.008C76.0057 108.74 78.3992 109.536 80.8232 110.234C83.0506 110.871 85.9221 111.169 87.8987 112.267C87.1972 114.529 79.0542 114.374 76.9083 114.516C72.8775 114.829 68.8059 114.752 64.731 114.511C56.4149 113.872 48.2038 112.025 40.2942 109.033C35.897 107.4 31.6218 105.373 27.5669 102.984Z" fill="#F9F2F2"/>
</g>
</svg>
