<svg width="155" height="243" viewBox="0 0 155 243" fill="none" xmlns="http://www.w3.org/2000/svg">
<path d="M-17.031 25.1095C-7.14631 18.1942 3.75248 12.8441 15.0447 8.27441C9.2157 13.4753 3.2967 18.6289 -2.06577 24.3617C-5.40761 27.8852 -8.52684 31.6403 -11.9586 35.1166C-15.5535 38.7941 -19.5721 42.077 -23.7662 45.0382C-26.4165 46.9169 -29.268 48.6324 -32.3803 49.7521C-34.6009 50.5941 -39.6078 52.1532 -41.7575 50.5655C-39.4511 45.4082 -34.6981 40.6176 -30.7344 36.6748C-26.6504 32.3935 -21.9841 28.5328 -17.031 25.1095Z" fill="#F9F2F2"/>
<path d="M19.6267 32.6541C30.4972 29.871 41.9489 28.7126 53.252 30.4595C46.9419 32.4244 40.6105 34.3208 34.3005 36.2857C29.4308 37.8021 24.5397 39.25 19.9095 41.2938C15.738 43.1194 11.8532 45.3825 7.85703 47.5297C2.96476 50.1817 -1.88029 52.7438 -6.92658 55.1429C-11.4242 57.371 -16.1017 59.5047 -21.0995 60.6096C-22.6512 60.9423 -27.1779 62.352 -28.6339 61.3006C-31.0107 59.7083 -27.3058 57.3508 -26.1735 56.3963C-17.8741 49.2224 -8.50885 43.2965 1.60058 38.7942C7.44405 36.2974 13.4157 34.2121 19.6267 32.6541Z" fill="#F9F2F2"/>
<path d="M12.1604 59.6574C22.0033 55.9904 32.0688 52.5551 42.5052 51.0357C54.6731 49.278 67.0612 50.1604 79.428 50.9741C60.263 56.1145 42.6706 65.5804 23.9967 72.2982C17.635 74.5802 11.0978 76.5407 4.27515 76.8595C0.568125 77.0358 -3.15123 76.6892 -6.86156 75.8884C-10.3448 75.0921 -13.2961 73.8293 -9.75754 70.6959C-3.72274 65.431 4.76526 62.4869 12.1604 59.6574Z" fill="#F9F2F2"/>
<path d="M-20.4787 155.141C-15.6508 139.719 -10.8655 124.159 -9.06655 107.949C-8.37012 101.488 -8.12794 95.0172 -7.90711 88.4779C-7.70885 83.0742 -7.57465 77.4648 -9.7252 72.4916C-12.6444 77.614 -13.9873 83.4493 -15.6 89.143C-19.1606 101.387 -24.4133 113.029 -26.6842 125.549C-27.8349 132.002 -28.1502 138.721 -27.6683 145.342C-27.1987 151.441 -26.4955 159.498 -23.5826 164.986C-22.2512 162.013 -21.4976 158.393 -20.4787 155.141Z" fill="#F9F2F2"/>
<path d="M-0.834959 138.491C-0.399091 143.998 0.332474 149.489 1.13264 154.958C2.43064 163.958 3.93441 172.895 5.59672 181.857C5.69899 182.427 6.53889 182.467 6.64238 181.832C7.16674 176.026 8.93799 170.358 10.4135 164.708C15.3441 145.265 15.9819 124.602 12.2909 104.534C11.4514 99.9052 10.3161 95.293 8.24193 91.0484C7.34819 89.1448 6.3263 86.8296 4.93981 89.1423C3.90528 90.894 3.52953 93.7948 3.01332 95.7613C0.724631 104.6 -0.638728 113.752 -1.09361 122.922C-1.28736 128.099 -1.25398 133.28 -0.834959 138.491Z" fill="#F9F2F2"/>
<path d="M52.9983 82.0765C69.3588 83.1514 85.7518 86.022 102.066 85.9826C89.7497 90.6456 76.5697 93.0193 63.3607 94.5745C46.3029 96.5758 28.728 97.1581 11.9337 92.7573C9.56024 92.1422 3.23246 90.4259 7.57604 87.9448C10.6546 86.2337 14.491 85.2648 17.9159 84.424C25.0872 82.5671 32.6002 81.8075 40.0997 81.7293C44.3037 81.6993 48.6403 81.8536 52.9983 82.0765Z" fill="#F9F2F2"/>
<path d="M59.2238 100.377C78.1233 99.4577 97.2498 98.5427 116.068 101.711C109.505 103.83 103.01 105.928 96.4261 107.978C92.2636 109.35 88.0112 110.674 83.7419 111.702C72.1215 114.493 59.8648 115 47.859 113.171C41.7876 112.277 35.8196 110.75 29.9764 108.657C27.8559 107.888 24.583 106.801 27.3322 104.515C29.4338 102.807 33.685 102.687 36.2609 102.261C43.8257 101.185 51.5141 100.747 59.2238 100.377Z" fill="#F9F2F2"/>
<path d="M131.443 119.194C115.49 122.807 99.5358 126.421 83.1942 127.823C74.9785 128.5 66.6605 128.608 58.4854 127.241C54.2949 126.59 50.1821 125.463 46.2368 123.908C45.3801 123.573 41.6529 122.476 41.8385 121.139C42.041 120.098 46.4035 120.094 47.4064 119.932C65.1501 117.717 83.0815 116.347 101.045 116.772C111.287 117.044 121.383 117.812 131.443 119.194Z" fill="#F9F2F2"/>
<path d="M133.49 151.135C118.971 151.142 104.431 151.08 89.9743 149.111C82.7459 148.127 75.4837 146.551 68.6984 143.849C65.2501 142.44 61.8535 140.714 58.7145 138.606C58.0635 138.207 54.984 136.533 55.4608 135.406C55.8645 134.528 59.5962 135.398 60.526 135.484C76.3546 137.026 92.1225 139.338 107.61 143.168C116.406 145.32 125.056 147.968 133.49 151.135Z" fill="#F9F2F2"/>
<path d="M23.1922 113.93C22.2891 117.07 21.3388 120.301 20.4357 123.441C19.3651 127.009 18.3844 130.625 17.5622 134.267C13.7988 152.142 16.6984 170.876 19.9499 189.049C22.7939 181.994 23.7186 174.333 25.1617 166.886C27.0446 156.745 29.8315 146.848 31.1488 136.582C32.0341 129.761 32.2426 122.698 31.1525 115.815C30.812 113.513 30.5301 108.259 27.87 107.207C24.7128 106.008 23.8242 111.852 23.1922 113.93Z" fill="#F9F2F2"/>
<path d="M40.4684 124.952C32.3082 151.419 29.9698 179.91 33.7772 207.842C37.2466 196.755 39.7693 185.285 41.6793 173.781C43.5375 162.594 44.8516 151.35 44.7602 139.942C44.7515 135.807 44.5629 131.577 44.1685 127.411C44.0753 126.387 44.2037 122.209 43.3043 121.737C41.7538 120.865 40.7608 123.958 40.4684 124.952Z" fill="#F9F2F2"/>
<path d="M54.6296 139.502C55.0642 163.368 60.8125 187.385 71.2169 209.199C71.0299 199.175 70.0029 189.112 68.4958 179.199C67.0056 169.581 65.0611 159.954 62.0193 150.669C60.8828 147.261 59.6091 143.896 58.1983 140.573C57.8734 139.771 56.8741 136.321 56.06 136.123C54.6119 135.821 54.6477 138.594 54.6296 139.502Z" fill="#F9F2F2"/>
<path d="M75.4164 157.933C71.3421 152.581 66.6673 147.716 62.2456 142.698C57.5326 137.47 52.9096 132.288 48.218 127.128C38.8562 116.877 29.4213 106.874 18.9912 97.7826C-1.06387 80.2525 -21.5564 63.009 -42.7528 46.8876C-55.0639 37.5545 -67.8641 28.8252 -81.1107 20.8369C-82.7725 19.8495 -84.1162 22.2994 -82.5231 23.3081C-59.6063 37.4643 -38.2131 53.9758 -17.4463 71.1339C3.23062 88.2447 23.8862 105.287 42.1005 125.121C47.216 130.675 52.3314 136.23 57.4469 141.785C62.7849 147.571 68.0027 153.696 73.8726 159.016C74.673 159.895 76.1696 158.902 75.4164 157.933Z" fill="#F9F2F2"/>
<path d="M99.7598 211.221C100.173 200.709 95.8338 190.398 90.3364 181.201C87.808 176.947 84.9794 172.937 82.2666 168.816C80.8759 166.767 79.4852 164.717 78.1631 162.646C76.9523 160.69 75.845 158.101 74.2867 156.479C72.3528 157.759 74.7662 165.509 75.1798 167.562C76.0329 171.51 77.1604 175.372 78.6308 179.128C81.5457 186.797 85.5794 194.193 90.4924 200.789C93.2356 204.525 96.3476 207.995 99.7598 211.221Z" fill="#F9F2F2"/>
<path d="M130.636 177.003C120.289 178.569 109.631 175.267 99.9288 170.69C95.517 168.602 91.1569 166.198 86.8181 163.863C84.6594 162.729 82.4794 161.527 80.2521 160.415C78.2047 159.397 75.4715 158.593 73.7502 157.173C74.8364 155.104 82.7113 156.715 84.8195 156.961C88.7873 157.381 92.7248 158.186 96.6364 159.15C104.592 161.262 112.23 164.527 119.369 168.849C123.344 171.223 127.129 173.957 130.636 177.003Z" fill="#F9F2F2"/>
</svg>
