<svg width="109" height="129" viewBox="0 0 109 129" fill="none" xmlns="http://www.w3.org/2000/svg">
<path d="M47.8729 63.9731H12.1318C11.1907 63.9731 10.4277 64.7361 10.4277 65.6772C10.4277 66.6184 11.1907 67.3813 12.1318 67.3813H47.8729C48.814 67.3813 49.577 66.6184 49.577 65.6772C49.577 64.7361 48.814 63.9731 47.8729 63.9731Z" fill="#FE674C"/>
<path d="M47.8731 85.0986H12.1316C11.1906 85.0986 10.4277 85.8615 10.4277 86.8025C10.4277 87.7435 11.1906 88.5063 12.1316 88.5063H47.8731C48.8141 88.5063 49.577 87.7435 49.577 86.8025C49.577 85.8615 48.8141 85.0986 47.8731 85.0986Z" fill="#FE674C"/>
<path d="M47.8729 95.6616H12.1318C11.1907 95.6616 10.4277 96.4246 10.4277 97.3657C10.4277 98.3069 11.1907 99.0698 12.1318 99.0698H47.8729C48.814 99.0698 49.577 98.3069 49.577 97.3657C49.577 96.4246 48.814 95.6616 47.8729 95.6616Z" fill="#FE674C"/>
<path d="M47.8731 74.5361H12.1316C11.1906 74.5361 10.4277 75.299 10.4277 76.24C10.4277 77.181 11.1906 77.9438 12.1316 77.9438H47.8731C48.8141 77.9438 49.577 77.181 49.577 76.24C49.577 75.299 48.8141 74.5361 47.8731 74.5361Z" fill="#FE674C"/>
<path d="M33.9989 49.4111H33.7957C32.8546 49.4111 32.0918 50.174 32.0918 51.115C32.0918 52.056 32.8546 52.8188 33.7957 52.8188H33.9989C34.9399 52.8188 35.7027 52.056 35.7027 51.115C35.7027 50.174 34.9399 49.4111 33.9989 49.4111Z" fill="#FE674C"/>
<path d="M39.5999 52.8188C38.7646 52.8188 38.0874 52.1417 38.0874 51.3063V50.9235C38.0874 50.0881 38.7646 49.4109 39.5999 49.4109C43.9606 49.4109 47.6077 46.361 48.4312 42.3263C48.6235 41.3842 49.3848 40.5967 50.3462 40.5967C51.3077 40.5967 52.1004 41.3807 51.9617 42.3321C51.0984 48.2524 45.8837 52.8188 39.5999 52.8188Z" fill="#FE674C"/>
<path d="M29.6537 51.3066C29.6537 52.1418 28.9766 52.8188 28.1414 52.8188C21.858 52.8188 16.6433 48.2524 15.7798 42.3321C15.641 41.3807 16.4337 40.5967 17.3952 40.5967C18.3567 40.5967 19.1179 41.3842 19.3102 42.3262C20.1337 46.361 23.7807 49.4109 28.1414 49.4109C28.9766 49.4109 29.6537 50.088 29.6537 50.9232V51.3066Z" fill="#FE674C"/>
<path d="M15.4155 115.597C15.4155 110.36 11.0629 106.1 5.71289 106.1H3.57681V41.4997C3.57681 38.9128 5.7271 36.8081 8.37036 36.8081H21.1552V40.4651C21.1552 44.2232 24.2792 47.281 28.1188 47.281H39.0476C42.8871 47.281 46.0111 44.2232 46.0111 40.4651V36.8081H58.7954C61.4384 36.8081 63.589 38.9125 63.589 41.4997V43.8029H67.0707V41.4997C67.0707 37.0336 63.3583 33.4002 58.7954 33.4002H52.1133V30.9172H61.8521L61.8611 30.9169C62.5119 30.9104 63.1061 30.554 63.4082 29.9897C63.7099 29.4257 63.6708 28.7449 63.3063 28.2176L61.053 24.9573L63.3113 21.6894C63.6801 21.1552 63.7143 20.4639 63.3992 19.8974C63.0905 19.3427 62.4965 18.9974 61.851 18.9974H52.1127V5.93306C52.1127 4.64628 51.0429 3.5992 49.7282 3.5992H46.2987V1.8674L46.2908 0.155762H23.2443L21.4956 0.16343V3.59863H18.0393C16.7243 3.59863 15.6546 4.64572 15.6546 5.93278V33.4005H8.37007C3.8069 33.4005 0.0947266 37.0339 0.0947266 41.5V112.689C0.0947266 115.112 1.18917 117.289 2.9173 118.775C1.80516 119.76 1.10067 121.178 1.10067 122.758C1.10067 125.723 3.56549 128.136 6.59494 128.136C9.62439 128.136 12.0892 125.724 12.0892 122.758C12.0892 122.067 11.9505 121.408 11.7071 120.801L47.7607 120.938L47.7744 117.53L15.4161 117.407V115.596H15.4155V115.597ZM42.529 40.4651C42.529 42.344 40.9669 43.873 39.0473 43.873H28.1185C26.1989 43.873 24.6367 42.344 24.6367 40.4651V36.8081H28.8558V40.9621H32.3376V36.8081H34.8279V40.9621H38.3097V36.8081H42.529V40.4651ZM58.6135 22.4053L57.5161 23.994L56.8601 24.9712L58.6135 27.5093H47.8983C47.7337 27.5093 47.4845 27.2307 47.4845 26.8106V23.1039C47.4845 22.6839 47.7335 22.4053 47.8983 22.4053H58.6135ZM24.9773 3.5637H42.8169V7.04292H24.9773V3.5637ZM19.1361 7.00656H21.4956V8.73921L21.5034 10.4509H44.5499L46.2987 10.4432V7.00742H48.6309V18.9977H47.8983C45.7503 18.9977 44.0027 20.8397 44.0027 23.1042V26.8106C44.0027 29.0752 45.75 30.9172 47.8983 30.9172H48.6309V33.4002H46.0108V33.3996H21.1549V33.4002H19.1361V7.00656ZM6.59494 124.728C5.48541 124.728 4.58247 123.844 4.58247 122.758C4.58247 121.672 5.48512 120.788 6.59494 120.788C7.70476 120.788 8.60742 121.671 8.60742 122.758C8.60742 123.844 7.70447 124.728 6.59494 124.728ZM11.9337 117.394L8.37007 117.38C5.7271 117.38 3.57652 115.276 3.57652 112.688V109.508H5.7126C9.14274 109.508 11.9334 112.239 11.9334 115.596L11.9337 117.394Z" fill="#13A6D9"/>
<path d="M100.268 76.5371C99.3875 76.8472 98.4187 76.3936 97.987 75.566C97.5448 74.7181 97.7405 73.6311 98.5336 73.0968C99.3141 72.5709 100.39 72.7563 100.85 73.5771C100.989 73.8251 101.122 74.0765 101.248 74.331C101.677 75.1989 101.181 76.2155 100.268 76.5371Z" fill="#FE674C"/>
<path d="M96.3988 70.744C95.7474 71.4165 94.6836 71.4344 93.9242 70.8868C91.6021 69.2125 88.7996 68.3054 85.8756 68.3054C85.1609 68.3054 84.5815 67.726 84.5815 67.0113V66.1915C84.5815 65.4768 85.1609 64.8975 85.8756 64.8975C89.6707 64.8975 93.303 66.1137 96.2747 68.3532C97.0452 68.9338 97.0701 70.051 96.3988 70.744Z" fill="#FE674C"/>
<path d="M87.6282 85.9019V85.831C87.6282 84.9096 86.8813 84.1626 85.9599 84.1626C85.0385 84.1626 84.2915 84.9096 84.2915 85.831V85.9019C84.2915 86.8234 85.0385 87.5703 85.9599 87.5703C86.8813 87.5703 87.6282 86.8234 87.6282 85.9019Z" fill="#FE674C"/>
<path d="M80.3626 84.1626H74.6306C73.6896 84.1626 72.9268 84.9254 72.9268 85.8665C72.9268 86.8075 73.6896 87.5703 74.6306 87.5703H80.3626C81.3036 87.5703 82.0665 86.8075 82.0665 85.8665C82.0665 84.9254 81.3036 84.1626 80.3626 84.1626Z" fill="#FE674C"/>
<path d="M108.423 78.6836H108.367C108.137 75.4032 107.129 72.3309 105.52 69.6406H105.531V51.0148C105.531 49.4962 104.269 48.2614 102.718 48.2614H95.0174C93.4662 48.2614 92.205 49.4965 92.205 51.0148V59.9078C90.5897 59.5221 88.9042 59.3128 87.1697 59.3128H87.0246V59.1027C87.0246 56.0245 84.4664 53.5205 81.3212 53.5205H79.2359C76.0909 53.5205 73.5327 56.0245 73.5327 59.1027V59.3128H73.3876C71.8289 59.3128 70.3109 59.4827 68.8471 59.7956V50.7367C68.8471 49.2185 67.5846 47.9834 66.0341 47.9834H58.3338C56.7821 47.9834 55.5208 49.2188 55.5208 50.7367V68.8719C53.6308 71.7391 52.4423 75.086 52.1905 78.6831H52.1348V79.95C52.1348 79.9809 52.1365 80.0122 52.1365 80.0431C52.1365 80.067 52.1348 80.0908 52.1348 80.1153V120.596C52.1348 124.765 55.5994 128.156 59.8588 128.156H71.1877H89.3705H100.699C104.959 128.156 108.424 124.765 108.424 120.596V80.1158C108.424 80.0914 108.422 80.0675 108.422 80.0431C108.422 80.0124 108.424 79.9815 108.424 79.95V78.6836H108.423ZM95.6862 51.6694H102.049V65.2816C100.219 63.5225 98.066 62.0858 95.6862 61.0625V51.6694ZM77.0139 59.103C77.0139 57.9039 78.0106 56.9287 79.2353 56.9287H81.3206C82.5459 56.9287 83.5423 57.9042 83.5423 59.103V59.3131H77.0139V59.103ZM59.0014 51.3916H65.3644V60.8569C63.0017 61.8032 60.8506 63.1522 59.0014 64.8198V51.3916ZM73.387 62.7211H73.5321H87.024H87.1691C96.9437 62.7211 104.898 70.4852 104.939 80.0434C104.905 84.762 102.305 89.0674 98.2488 91.4126C98.079 90.5728 97.3214 89.9378 96.4141 89.9378H90.4841C89.4523 89.9378 88.6138 90.7591 88.6138 91.7687V93.2498H82.019V91.6179H78.5372V93.2498H71.9424V91.7687C71.9424 90.7586 71.1027 89.9378 70.0718 89.9378H64.1417C63.2344 89.9378 62.4771 90.5728 62.3074 91.4126C58.2514 89.0674 55.6517 84.762 55.6174 80.0434C55.6572 70.4852 63.6119 62.7211 73.387 62.7211ZM65.3653 124.749H59.8577C57.5182 124.749 55.6154 122.885 55.6154 120.596V90.052C57.3273 92.2615 59.6003 94.0594 62.2708 95.2221V98.2827C62.2708 99.2929 63.1105 100.114 64.1414 100.114H65.3662V124.749H65.3653ZM68.4606 96.706H65.7523V93.3455H68.4606V96.706ZM85.8875 124.749H74.6683V117.54H85.8875V124.749ZM85.8875 114.133H74.6683V111.995H85.8875V114.133ZM91.7082 124.749H89.3687V111.521C89.3687 109.903 88.0236 108.586 86.3706 108.586H74.1844C72.5311 108.586 71.186 109.903 71.186 111.521V124.749H68.8468V100.114H70.0712C71.1027 100.114 71.9418 99.2921 71.9418 98.2827V96.6574H78.5366V98.4335H82.0184V96.6574H88.6132V98.2827C88.6132 99.2929 89.4523 100.114 90.4835 100.114H91.7079V124.749H91.7082ZM94.8029 96.706H92.0953V93.3455H94.8029V96.706ZM104.941 120.596C104.941 122.886 103.037 124.749 100.698 124.749H95.19V100.114H96.4141C97.4459 100.114 98.2847 99.2921 98.2847 98.2827V95.2221C100.956 94.0594 103.228 92.2615 104.94 90.052L104.941 120.596Z" fill="#12CAD6"/>
</svg>
