<svg width="222" height="155" viewBox="0 0 222 155" fill="none" xmlns="http://www.w3.org/2000/svg">
<g opacity="0.86">
<path d="M43.1226 123.232C43.6976 127.544 44.2726 131.856 44.3866 136.184C44.5721 143.201 43.4518 150.242 41.1616 156.925C40.615 158.578 38.2618 158.503 37.8863 156.882C37.1618 153.591 36.4641 150.249 35.8169 146.933C35.1671 143.746 34.5946 140.534 34.254 137.251C32.8966 125.09 34.5134 112.685 37.2734 100.687C37.9774 97.6304 38.4417 93.8008 39.8572 90.9894C40.7706 96.2556 40.7298 101.86 41.2327 107.169C41.8103 112.582 42.4411 117.893 43.1226 123.232Z" fill="#F9F2F2"/>
<path d="M50.79 121.319C49.3897 111.205 49.5058 100.79 52.4014 90.8688C53.1747 88.1719 54.1771 85.531 55.1796 82.89C56.2647 79.9693 57.3764 76.9979 58.5122 74.1039C58.9623 75.8282 58.8208 77.6937 58.8338 79.5113C58.7904 85.2438 60.1567 90.8779 61.166 96.4533C63.2084 107.681 63.9903 119.216 63.365 130.721C63.2233 133.815 62.9804 136.856 62.4043 139.915C61.9962 142.287 61.4065 147.214 59.5514 149.018C56.9659 151.472 56.13 144.954 55.7252 143.512C54.7476 140.087 53.7967 136.612 52.9737 133.139C52.0841 129.179 51.3465 125.298 50.79 121.319Z" fill="#F9F2F2"/>
<path d="M62.3512 177.846C69.0928 184.694 76.8553 190.462 85.0388 195.676C81.2259 190.759 77.3356 185.865 73.9651 180.598C71.8575 177.355 69.9578 173.962 67.773 170.742C65.4895 167.341 62.8169 164.188 59.9604 161.262C58.1565 159.406 56.1713 157.65 53.8955 156.322C52.278 155.341 48.5818 153.395 46.6682 154.328C47.7283 158.701 50.7578 163.142 53.2917 166.804C55.8709 170.749 58.9671 174.448 62.3512 177.846Z" fill="#F9F2F2"/>
<path d="M92.1571 177.243C100.269 180.997 109.071 183.562 118.178 183.83C113.52 181.377 108.835 178.975 104.177 176.523C100.582 174.63 96.9602 172.788 93.6292 170.517C90.626 168.483 87.9106 166.148 85.0914 163.888C81.6432 161.102 78.219 158.394 74.6136 155.784C71.4132 153.388 68.0583 151.04 64.3034 149.451C63.1362 148.966 59.7945 147.206 58.5019 147.819C56.4097 148.722 58.9705 151.105 59.7192 152.017C65.1816 158.837 71.6594 164.834 78.9263 169.824C83.142 172.626 87.5176 175.124 92.1571 177.243Z" fill="#F9F2F2"/>
<path d="M90.2175 155.011C97.3965 159.308 104.783 163.456 112.738 166.157C122.015 169.295 131.846 170.397 141.65 171.55C127.383 164.749 114.973 154.788 101.319 146.823C96.6658 144.115 91.8291 141.633 86.5312 140.395C83.653 139.721 80.6895 139.454 77.6674 139.544C74.8237 139.664 72.3292 140.225 74.6473 143.192C78.6122 148.19 84.8346 151.724 90.2175 155.011Z" fill="#F9F2F2"/>
<path d="M78.4734 75.4952C80.0226 88.2743 81.5185 101.155 80.5812 114.112C80.1914 119.274 79.4444 124.378 78.6708 129.532C78.0439 133.793 77.337 138.206 74.9327 141.79C73.3876 137.355 73.1804 132.59 72.7413 127.897C71.7247 117.791 69.2956 107.911 69.3291 97.7763C69.3618 92.5555 70.0875 87.2468 71.4234 82.1301C72.674 77.4212 74.3912 71.2119 77.4672 67.3347C78.0798 69.8559 78.146 72.8008 78.4734 75.4952Z" fill="#F9F2F2"/>
<path d="M91.45 91.3805C92.5886 87.13 93.9563 82.9354 95.3747 78.7675C97.6943 71.9053 100.166 65.1231 102.765 58.3436C102.928 57.9119 103.591 58.0026 103.581 58.5143C103.151 63.1381 103.718 67.834 104.056 72.4739C105.103 88.4163 102.612 104.694 96.8159 119.879C95.4882 123.383 93.9313 126.831 91.6923 129.856C90.7167 131.217 89.5811 132.883 88.8299 130.871C88.2731 129.349 88.3987 127.022 88.279 125.407C87.7657 118.153 88.0226 110.787 88.9937 103.538C89.5913 99.4553 90.3674 95.4019 91.45 91.3805Z" fill="#F9F2F2"/>
<path d="M125.451 143.362C138.421 144.888 151.677 145.013 164.45 147.405C155.478 141.97 145.498 138.203 135.377 135.072C122.305 131.036 108.623 128.035 94.8315 129.052C92.8834 129.19 87.6785 129.618 90.7216 132.19C92.8853 133.976 95.7501 135.291 98.311 136.445C103.659 138.937 109.434 140.62 115.297 141.767C118.586 142.399 122.005 142.906 125.451 143.362Z" fill="#F9F2F2"/>
<path d="M132.976 129.928C147.647 133.384 162.496 136.87 177.695 137.112C172.861 134.502 168.077 131.919 163.217 129.36C160.155 127.683 157.015 126.03 153.82 124.607C145.122 120.738 135.595 118.568 125.926 118.262C121.041 118.083 116.145 118.416 111.266 119.209C109.493 119.505 106.772 119.883 108.595 122.071C109.994 123.713 113.306 124.422 115.262 125.129C121.032 127.067 126.991 128.523 132.976 129.928Z" fill="#F9F2F2"/>
<path d="M192.269 125.644C180.295 120.504 168.322 115.364 155.725 111.9C149.388 110.18 142.888 108.892 136.286 108.779C132.91 108.683 129.525 108.97 126.21 109.617C125.49 109.756 122.412 110.075 122.364 111.149C122.372 111.994 125.788 112.629 126.55 112.901C140.128 117.204 153.975 120.873 168.108 123.141C176.169 124.41 184.188 125.27 192.269 125.644Z" fill="#F9F2F2"/>
<path d="M198.496 100.921C187.124 98.8139 175.726 96.7575 164.117 96.2068C158.313 95.9315 152.396 96.1145 146.69 97.249C143.785 97.8535 140.875 98.7139 138.111 99.9101C137.544 100.129 134.889 100.994 135.099 101.946C135.289 102.692 138.337 102.551 139.078 102.618C151.7 103.702 164.385 104.173 177.071 103.415C184.272 103.003 191.43 102.18 198.496 100.921Z" fill="#F9F2F2"/>
<path d="M106.715 114.097C106.462 111.506 106.185 108.839 105.932 106.248C105.61 103.298 105.365 100.324 105.249 97.3522C104.888 82.8063 109.871 68.5517 115.049 54.7875C116.255 60.7254 115.871 66.8603 115.923 72.902C115.93 81.1183 116.68 89.2734 116.226 97.5057C115.932 102.977 115.073 108.539 113.223 113.773C112.623 115.526 111.642 119.601 109.405 120.04C106.759 120.522 106.909 115.816 106.715 114.097Z" fill="#F9F2F2"/>
<path d="M121.843 107.964C119.282 86.0519 121.575 63.3967 128.6 42.0694C129.713 51.2559 130.028 60.6049 129.859 69.8926C129.695 78.9244 129.097 87.9215 127.374 96.8438C126.769 100.082 126.009 103.368 125.097 106.574C124.876 107.362 124.371 110.654 123.598 110.893C122.258 111.352 121.928 108.785 121.843 107.964Z" fill="#F9F2F2"/>
<path d="M135.041 98.6173C138.836 79.9865 146.815 62.0066 158.123 46.4258C156.525 54.2501 154.264 61.9837 151.648 69.5307C149.089 76.8486 146.172 84.1077 142.446 90.9404C141.062 93.4453 139.577 95.8969 137.991 98.2952C137.621 98.8762 136.339 101.434 135.672 101.472C134.494 101.498 134.924 99.3315 135.041 98.6173Z" fill="#F9F2F2"/>
<path d="M153.991 87.1896C150.025 90.7921 145.659 93.9256 141.469 97.2163C137.021 100.63 132.65 104.019 128.228 107.382C119.411 114.056 110.573 120.526 101.087 126.137C82.8408 136.965 64.2932 147.505 45.3567 157.065C34.3626 162.593 23.0728 167.578 11.5405 171.917C10.096 172.45 9.39807 170.337 10.792 169.777C30.7916 162.006 49.9386 152.17 68.6887 141.736C87.3615 131.326 106.008 120.967 123.146 108.068C127.957 104.458 132.768 100.848 137.578 97.2371C142.597 93.4774 147.571 89.4353 152.939 86.1181C153.693 85.5452 154.722 86.5394 153.991 87.1896Z" fill="#F9F2F2"/>
<path d="M180.772 48.9741C179.574 57.2675 174.683 64.7156 169.045 71.1242C166.449 74.0901 163.653 76.8213 160.932 79.6565C159.546 81.0608 158.16 82.4651 156.824 83.896C155.593 85.2523 154.351 87.1204 152.895 88.1649C151.566 86.8828 154.578 81.1614 155.199 79.6131C156.439 76.6444 157.881 73.7823 159.577 71.0536C162.97 65.4681 167.2 60.2586 172.003 55.8033C174.693 53.2746 177.632 51.0071 180.772 48.9741Z" fill="#F9F2F2"/>
<path d="M200.004 80.2457C192.126 77.5209 183.3 78.5643 175.038 80.7458C171.28 81.742 167.517 82.994 163.78 84.1954C161.925 84.7708 160.044 85.3968 158.138 85.9455C156.387 86.4463 154.13 86.6805 152.576 87.5438C153.127 89.3214 159.529 89.1998 161.216 89.3119C164.384 89.5576 167.585 89.4967 170.788 89.308C177.326 88.8052 183.781 87.3537 189.999 85.0014C193.455 83.7173 196.816 82.1241 200.004 80.2457Z" fill="#F9F2F2"/>
</g>
</svg>
