<svg width="143" height="163" viewBox="0 0 143 163" fill="none" xmlns="http://www.w3.org/2000/svg">
<path d="M180.965 53.7033C179.724 63.9553 176.922 74.1102 171.53 83.0651C170.078 85.5028 168.416 87.8266 166.754 90.1505C164.939 92.7266 163.085 95.3454 161.227 97.8824C161.232 96.0799 161.852 94.2922 162.308 92.5114C163.83 86.9168 163.948 81.0546 164.4 75.3419C165.301 63.8347 167.514 52.3534 171.094 41.2641C172.031 38.275 173.054 35.3641 174.407 32.521C175.418 30.3069 177.267 25.6404 179.546 24.3551C182.708 22.6225 181.843 29.213 181.867 30.7275C181.939 34.3288 181.972 37.9728 181.88 41.5812C181.728 45.6836 181.448 49.6687 180.965 53.7033Z" fill="#F9F2F2"/>
<path d="M154.945 -11.6616C147.981 -17.4258 140.036 -22.206 131.2 -24.8182C135.122 -21.2176 139.083 -17.6597 143.006 -14.0592C146.032 -11.2805 149.099 -8.54439 151.77 -5.46377C154.182 -2.69974 156.234 0.284445 158.408 3.22251C161.061 6.83638 163.711 10.3685 166.563 13.851C169.074 17.0203 171.749 20.1827 175.01 22.7056C176.027 23.4814 178.84 26.0644 180.263 25.7988C182.542 25.4556 180.652 22.4644 180.156 21.3797C176.574 13.3 171.787 5.76335 165.969 -0.991931C162.57 -4.81964 158.935 -8.39156 154.945 -11.6616Z" fill="#F9F2F2"/>
<path d="M151.104 10.5799C145.193 4.52489 139.04 -1.43785 131.958 -6.13209C123.696 -11.5951 114.367 -15.2102 105.077 -18.868C117.274 -8.53523 126.838 4.40859 138.135 15.7219C141.986 19.5712 146.075 23.2466 150.937 25.824C153.577 27.2266 156.407 28.2525 159.385 28.9443C162.197 29.5613 164.781 29.6556 163.28 26.1564C160.693 20.246 155.52 15.1833 151.104 10.5799Z" fill="#F9F2F2"/>
<path d="M142.066 91.3698C143.85 78.4732 145.711 65.4914 149.972 53.0623C151.686 48.1149 153.733 43.317 155.82 38.4765C157.533 34.4711 159.363 30.3379 162.639 27.4535C163.006 32.1892 161.978 36.9025 161.197 41.6053C159.582 51.7503 159.408 62.0386 156.759 71.9411C155.38 77.0381 153.3 82.0422 150.673 86.701C148.235 90.9831 144.953 96.612 140.944 99.6096C140.996 96.986 141.691 94.0891 142.066 91.3698Z" fill="#F9F2F2"/>
<path d="M133.477 72.4863C131.267 76.3491 128.847 80.0979 126.384 83.8077C122.344 89.9195 118.177 95.9139 113.885 101.873C113.615 102.253 112.989 101.993 113.132 101.495C114.746 97.0846 115.403 92.3462 116.27 87.7217C119.36 71.8611 125.998 56.5861 135.585 43.233C137.788 40.1488 140.2 37.1785 143.171 34.7987C144.476 33.7189 146.016 32.3833 146.232 34.545C146.383 36.1769 145.66 38.4196 145.36 40.0298C143.99 47.2563 141.838 54.3934 139.017 61.2313C137.379 65.0696 135.574 68.8332 133.477 72.4863Z" fill="#F9F2F2"/>
<path d="M113.643 12.8781C101.353 8.03789 88.4225 4.49484 76.5491 -1.1414C83.9204 6.48955 92.7076 12.7493 101.797 18.4226C113.538 25.7439 126.143 32.209 139.893 34.7749C141.833 35.1425 147.034 36.067 144.722 32.7662C143.067 30.4614 140.605 28.4367 138.398 26.647C133.811 22.8291 128.598 19.6933 123.161 17.0586C120.108 15.5917 116.895 14.2136 113.643 12.8781Z" fill="#F9F2F2"/>
<path d="M102.817 24.0724C89.3621 16.9063 75.7407 9.66547 60.9403 5.50604C64.994 9.30578 69.0049 13.0664 73.0977 16.8235C75.6592 19.2535 78.3024 21.6799 81.0595 23.8967C88.5671 29.9244 97.3235 34.5061 106.7 37.3001C111.431 38.7362 116.304 39.6746 121.281 40.1582C123.09 40.3266 125.849 40.6592 124.631 38.0489C123.687 36.0822 120.631 34.5336 118.9 33.3378C113.758 29.9532 108.307 26.9915 102.817 24.0724Z" fill="#F9F2F2"/>
<path d="M43.729 12.9592C54.1111 21.0758 64.4932 29.1924 75.918 35.8309C81.6713 39.1484 87.6951 42.0856 94.1214 43.8998C97.3984 44.8656 100.782 45.4582 104.192 45.681C104.931 45.7313 108.024 46.2135 108.348 45.1756C108.558 44.3475 105.381 42.8449 104.706 42.3823C92.5389 34.6697 79.9448 27.5078 66.7099 21.643C59.1542 18.3207 51.5342 15.4107 43.729 12.9592Z" fill="#F9F2F2"/>
<path d="M31.2588 35.5287C41.8351 40.5241 52.4506 45.4768 63.6608 49.0115C69.2659 50.7789 75.0988 52.1269 80.9715 52.4902C83.9683 52.6488 87.0364 52.5585 90.0479 52.1021C90.6594 52.035 93.4787 51.8735 93.5186 50.8888C93.5262 50.1102 90.5084 49.461 89.8011 49.2045C77.7383 44.8871 65.4546 41.1525 52.8537 38.6194C45.7055 37.1637 38.493 36.1205 31.2588 35.5287Z" fill="#F9F2F2"/>
<path d="M124.412 46.3319C123.991 48.9303 123.573 51.6105 123.151 54.209C122.705 57.1772 122.177 60.1489 121.524 63.0849C118.122 77.4023 109.57 90.0558 100.954 102.18C101.307 96.0615 103.267 90.1615 104.775 84.2398C106.889 76.2033 108.26 68.0347 110.829 60.1016C112.528 54.8271 114.804 49.6098 117.964 44.9692C119.003 43.4092 121.015 39.6779 123.315 39.8253C126.027 40.037 124.666 44.6007 124.412 46.3319Z" fill="#F9F2F2"/>
<path d="M108.036 48.425C104.885 70.514 96.7958 92.0768 84.421 111.12C85.704 101.849 87.8081 92.625 90.3707 83.5862C92.862 74.7963 95.7692 66.1524 99.7569 57.872C101.185 54.8618 102.776 51.8447 104.495 48.945C104.915 48.2307 106.258 45.1423 107.075 45.1074C108.505 45.0053 108.165 47.6003 108.036 48.425Z" fill="#F9F2F2"/>
<path d="M92.7167 54.1588C84.197 71.3983 71.7537 86.9215 56.6748 99.2397C60.2564 92.0006 64.4636 85.0214 68.9691 78.3162C73.3608 71.8207 78.0865 65.4747 83.4943 59.7549C85.4938 57.6624 87.5785 55.6482 89.7485 53.7123C90.2608 53.2398 92.175 51.069 92.8361 51.2046C93.9949 51.4827 93.0158 53.4906 92.7167 54.1588Z" fill="#F9F2F2"/>
<path d="M71.2361 60.4429C76.0443 57.9436 81.1224 56.0062 86.069 53.8696C91.3001 51.6799 96.4495 49.4937 101.641 47.3466C111.986 43.095 122.299 39.0496 133.023 36.0107C153.661 30.1312 174.519 24.6109 195.504 20.1502C207.682 17.5815 220.009 15.6208 232.407 14.3535C233.957 14.2053 234.094 16.4522 232.586 16.6395C211.023 19.077 189.76 23.7544 168.732 29.1182C147.785 34.4784 126.877 39.796 106.789 47.9866C101.152 50.2756 95.5158 52.5646 89.8794 54.8535C84.0011 57.2348 78.0942 59.9039 71.9888 61.7624C71.1033 62.128 70.3541 60.8902 71.2361 60.4429Z" fill="#F9F2F2"/>
<path d="M35.1832 90.9018C38.495 83.1008 45.2007 77.0798 52.3677 72.2678C55.6719 70.0376 59.1111 68.0883 62.5041 66.0182C64.222 65.0026 65.9398 63.9871 67.615 62.9325C69.1693 61.9239 70.8662 60.4178 72.5588 59.772C73.5282 61.3689 69.1058 66.1864 68.0987 67.5402C66.1203 70.1233 63.9712 72.5499 61.6091 74.7808C56.8491 79.367 51.3678 83.3696 45.521 86.4868C42.2384 88.2655 38.7782 89.7241 35.1832 90.9018Z" fill="#F9F2F2"/>
<path d="M24.4478 55.3575C31.4479 60.0553 40.3489 61.3131 48.9913 61.3122C52.9232 61.3079 56.9264 61.0548 60.8905 60.8444C62.853 60.7605 64.8546 60.6339 66.8597 60.5891C68.7012 60.5514 70.9691 60.9049 72.7114 60.4618C72.631 58.5811 66.3396 57.0479 64.7189 56.5028C61.6836 55.4448 58.5379 54.6782 55.3566 54.036C48.8339 52.8403 42.1469 52.5938 35.4593 53.2893C31.7476 53.6528 28.0498 54.3434 24.4478 55.3575Z" fill="#F9F2F2"/>
</svg>
