<svg width="28" height="39" viewBox="0 0 28 39" fill="none" xmlns="http://www.w3.org/2000/svg">
<path d="M13.8243 1.74404V2.30077C12.678 2.59338 11.8462 3.44507 11.8462 4.44853C11.8462 5.69271 13.1258 6.70552 14.6981 6.70552C15.2966 6.70552 15.8024 7.02427 15.8024 7.40193C15.8024 7.7796 15.2966 8.09835 14.6981 8.09835C14.1432 8.09835 13.7409 7.83383 13.6295 7.57282C13.4574 7.16941 12.9519 6.9677 12.5019 7.12103C12.0511 7.27436 11.8248 7.72498 11.9965 8.128C12.2905 8.81777 12.979 9.33628 13.8248 9.55047V10.1064C13.8248 10.5371 14.2162 10.8867 14.6985 10.8867C15.1808 10.8867 15.5722 10.5371 15.5722 10.1064V9.54969C16.7186 9.25708 17.5503 8.40539 17.5503 7.40232C17.5503 6.15815 16.2708 5.14533 14.6985 5.14533C14.1 5.14533 13.5941 4.82658 13.5941 4.44892C13.5941 4.07126 14.1 3.75251 14.6985 3.75251C15.2966 3.75251 15.7055 4.05058 15.7858 4.3311C15.906 4.74816 16.3795 5.00059 16.8501 4.89252C17.3171 4.78523 17.5988 4.35997 17.4787 3.94251C17.2493 3.14583 16.5124 2.53954 15.5722 2.30273V1.74404C15.5722 1.31332 15.1808 0.963745 14.6985 0.963745C14.2162 0.963745 13.8243 1.31332 13.8243 1.74404Z" fill="url(#paint0_linear)"/>
<path d="M20.0342 23.4635C24.3501 23.4635 27.8617 20.3279 27.8617 16.4731V11.6357C27.8617 11.2106 27.4742 10.8651 26.9987 10.8651H21.5821C18.3579 10.8651 15.4198 12.6805 14.2699 15.383L14.1545 15.654L14.0391 15.383C12.8891 12.6805 9.95049 10.8651 6.72687 10.8651H1.31025C0.834239 10.8651 0.447266 11.2111 0.447266 11.6357V16.4731C0.447266 20.3274 3.95837 23.4635 8.27476 23.4635H13.2915V25.2759L13.1796 25.2852C10.2668 25.5273 7.5799 26.8554 5.80868 28.9294L5.77138 28.9725H2.5796C2.32493 28.9725 2.08469 29.0725 1.92005 29.2461C1.75541 29.4203 1.68578 29.6486 1.72905 29.8729L3.33663 38.2945C3.40776 38.6663 3.76538 38.936 4.18718 38.936H24.1213C24.543 38.936 24.9012 38.6663 24.9723 38.2945L26.5799 29.8729C26.6227 29.6486 26.553 29.4203 26.3889 29.2461C26.2242 29.0725 25.984 28.9725 25.7293 28.9725H22.538L22.5007 28.9294C20.728 26.8554 18.0416 25.5268 15.1299 25.2852L15.0179 25.2759V23.4635H20.0342ZM15.4805 17.8555C15.4805 14.8513 18.2177 12.4069 21.5816 12.4069H26.1352V16.4735C26.1352 19.4777 23.398 21.9221 20.0342 21.9221H16.7011L22.1919 17.0186C22.355 16.8729 22.4445 16.6792 22.4445 16.4735C22.4445 16.2679 22.3545 16.0742 22.1919 15.9285C21.8661 15.6371 21.297 15.6371 20.9713 15.9285L15.4805 20.8321V17.8555ZM12.8279 20.8321L7.33717 15.9285C7.01138 15.6371 6.44236 15.6371 6.11657 15.9285C5.95342 16.0742 5.86389 16.2679 5.86389 16.4735C5.86389 16.6792 5.95392 16.8729 6.11657 17.0186L11.6073 21.9221H8.27427C4.91039 21.9221 2.17323 19.4777 2.17323 16.4735V12.4069H6.72637C10.0903 12.4069 12.8274 14.8513 12.8274 17.8555V20.8321H12.8279ZM24.7062 30.5143L23.3926 37.3941H4.91586L3.60224 30.5143H24.7062ZM20.0078 28.7806L20.248 28.9725H8.06039L8.30063 28.7806C9.91268 27.4915 11.9918 26.7817 14.1545 26.7817C16.3166 26.7817 18.3957 27.4915 20.0078 28.7806Z" fill="url(#paint1_linear)"/>
<defs>
<linearGradient id="paint0_linear" x1="17.3957" y1="4.83189" x2="11.9184" y2="4.85066" gradientUnits="userSpaceOnUse">
<stop offset="0.4375" stop-color="#12CAD6"/>
<stop offset="1" stop-color="#12B3D6"/>
</linearGradient>
<linearGradient id="paint1_linear" x1="27.1185" y1="21.8076" x2="0.795" y2="21.9608" gradientUnits="userSpaceOnUse">
<stop offset="0.4375" stop-color="#12CAD6"/>
<stop offset="1" stop-color="#12B3D6"/>
</linearGradient>
</defs>
</svg>
