<svg width="48" height="39" viewBox="0 0 48 39" fill="none" xmlns="http://www.w3.org/2000/svg">
<path d="M2.77338 38.039H11.7898C13.1559 38.039 14.2672 37.0466 14.2672 35.826V35.8138L22.8962 38.3658C24.1844 38.7471 25.5121 38.9361 26.8361 38.9361C28.6802 38.9361 30.5165 38.5689 32.2274 37.8402L45.7212 31.9459C46.5577 31.5806 47.1847 30.9463 47.4869 30.1593C47.7891 29.3723 47.7296 28.5283 47.32 27.7808C46.4761 26.2429 44.3883 25.6002 42.662 26.3525L34.9528 29.7117C34.5727 28.3055 33.1555 27.2566 31.4662 27.2566H26.0733L24.1675 26.3487C22.3587 25.4874 20.3203 25.0323 18.2719 25.0323H14.2672V24.9782C14.2672 23.7582 13.1559 22.7652 11.7898 22.7652H2.77338C1.40673 22.7657 0.29541 23.7582 0.29541 24.9782V35.826C0.29541 37.0466 1.40673 38.039 2.77338 38.039ZM18.2719 26.9129C19.976 26.9129 21.6722 27.2918 23.1762 28.0079L25.3162 29.0272C25.3289 29.0333 25.342 29.0352 25.3552 29.0403C25.4015 29.0605 25.45 29.0761 25.5 29.0902C25.5279 29.0982 25.5552 29.1076 25.5837 29.1132C25.6332 29.1231 25.6842 29.1264 25.7363 29.1297C25.7611 29.1311 25.7864 29.1376 25.8111 29.1376C25.8148 29.1376 25.8185 29.1362 25.8227 29.1362H31.4662C32.2848 29.1362 32.9507 29.731 32.9507 30.4658C32.9507 31.1969 32.2843 31.7917 31.4662 31.7917H23.569C22.9878 31.7917 22.5161 32.2129 22.5161 32.732C22.5161 33.251 22.9878 33.6723 23.569 33.6723H31.4662C32.8533 33.6723 34.0563 32.9652 34.6543 31.9332L43.5854 28.0422C44.2677 27.7451 45.0947 27.9985 45.429 28.6073C45.5912 28.903 45.6143 29.2373 45.4948 29.5486C45.3753 29.8598 45.1274 30.1109 44.7962 30.2557L31.3114 36.1467C28.8755 37.1848 26.1222 37.339 23.5579 36.5806L14.2672 33.8331V26.9129H18.2719ZM2.40119 24.9782C2.40119 24.7948 2.56807 24.6458 2.77338 24.6458H11.7898C11.9951 24.6458 12.1615 24.7948 12.1615 24.9782V35.826C12.1615 36.0094 11.9951 36.1584 11.7898 36.1584H2.77338C2.56807 36.1584 2.40119 36.0094 2.40119 35.826V24.9782Z" fill="url(#paint0_linear)"/>
<path d="M13.6921 14.9752C13.9359 14.9752 14.1807 14.9 14.3797 14.7467L15.7953 13.6555V23.444C15.7953 23.963 16.267 24.3843 16.8482 24.3843C17.4293 24.3843 17.901 23.963 17.901 23.444V12.0326L29.5338 3.06782L41.1719 12.0354V24.8549C41.1719 25.374 41.6436 25.7952 42.2248 25.7952C42.806 25.7952 43.2777 25.374 43.2777 24.8549V13.6579L44.6912 14.7467C45.1318 15.0862 45.7962 15.0425 46.1758 14.649C46.5558 14.2559 46.5069 13.6621 46.0668 13.3227L41.9537 10.1534V3.2949C41.9537 2.77586 41.482 2.35461 40.9008 2.35461H36.9651C36.3839 2.35461 35.9122 2.77586 35.9122 3.2949V5.49895L30.2214 1.11436C29.8255 0.809707 29.2406 0.810177 28.8458 1.11436L13.0041 13.3236C12.564 13.6631 12.515 14.2564 12.8951 14.6499C13.103 14.8648 13.3968 14.9752 13.6921 14.9752ZM38.018 4.2352H39.8479V8.53046L38.018 7.12049V4.2352Z" fill="url(#paint1_linear)"/>
<path d="M28.4824 12.4844V13.1553C27.101 13.5079 26.0986 14.5343 26.0986 15.7435C26.0986 17.2428 27.6406 18.4633 29.5353 18.4633C30.2565 18.4633 30.8661 18.8474 30.8661 19.3025C30.8661 19.7576 30.2565 20.1417 29.5353 20.1417C28.8667 20.1417 28.3818 19.8229 28.2476 19.5084C28.0402 19.0223 27.4311 18.7792 26.8888 18.964C26.3455 19.1487 26.0728 19.6917 26.2797 20.1774C26.634 21.0086 27.4637 21.6334 28.4829 21.8916V22.5615C28.4829 23.0806 28.9546 23.5018 29.5358 23.5018C30.117 23.5018 30.5887 23.0806 30.5887 22.5615V21.8906C31.9701 21.538 32.9724 20.5117 32.9724 19.3029C32.9724 17.8036 31.4305 16.5831 29.5358 16.5831C28.8146 16.5831 28.2049 16.199 28.2049 15.7439C28.2049 15.2888 28.8146 14.9047 29.5358 14.9047C30.2565 14.9047 30.7492 15.2639 30.8461 15.602C30.9909 16.1045 31.5616 16.4087 32.1285 16.2785C32.6913 16.1492 33.0309 15.6367 32.8861 15.1337C32.6097 14.1737 31.7216 13.443 30.5887 13.1577V12.4844C30.5887 11.9654 30.117 11.5441 29.5358 11.5441C28.9546 11.5441 28.4824 11.9654 28.4824 12.4844Z" fill="url(#paint2_linear)"/>
<path d="M19.3091 17.5224C19.3091 22.5577 23.8965 26.6545 29.5353 26.6545C35.1741 26.6545 39.7615 22.5577 39.7615 17.5224C39.7615 12.4866 35.1741 8.38977 29.5353 8.38977C23.8965 8.38977 19.3091 12.4866 19.3091 17.5224ZM37.6558 17.5224C37.6558 21.521 34.0127 24.7739 29.5353 24.7739C25.0579 24.7739 21.4149 21.521 21.4149 17.5224C21.4149 13.5238 25.0579 10.2704 29.5353 10.2704C34.0127 10.2704 37.6558 13.5233 37.6558 17.5224Z" fill="url(#paint3_linear)"/>
<defs>
<linearGradient id="paint0_linear" x1="46.3926" y1="29.0689" x2="0.908747" y2="29.8632" gradientUnits="userSpaceOnUse">
<stop offset="0.4375" stop-color="#12CAD6"/>
<stop offset="1" stop-color="#12B3D6"/>
</linearGradient>
<linearGradient id="paint1_linear" x1="45.5156" y1="10.5961" x2="13.0688" y2="10.8584" gradientUnits="userSpaceOnUse">
<stop offset="0.4375" stop-color="#12CAD6"/>
<stop offset="1" stop-color="#12B3D6"/>
</linearGradient>
<linearGradient id="paint2_linear" x1="32.7861" y1="16.2054" x2="26.1857" y2="16.228" gradientUnits="userSpaceOnUse">
<stop offset="0.4375" stop-color="#12CAD6"/>
<stop offset="1" stop-color="#12B3D6"/>
</linearGradient>
<linearGradient id="paint3_linear" x1="39.2071" y1="15.5097" x2="19.5687" y2="15.6407" gradientUnits="userSpaceOnUse">
<stop offset="0.4375" stop-color="#12CAD6"/>
<stop offset="1" stop-color="#12B3D6"/>
</linearGradient>
</defs>
</svg>
