<svg width="180" height="172" viewBox="0 0 180 172" fill="none" xmlns="http://www.w3.org/2000/svg">
<g opacity="0.86">
<path d="M195.318 103.712C193.203 121.159 191.16 138.744 192.44 156.434C192.972 163.481 193.992 170.449 195.048 177.486C195.904 183.303 196.869 189.329 200.152 194.222C202.261 188.167 202.544 181.662 203.143 175.254C204.531 161.457 207.848 147.969 207.802 134.131C207.757 127.004 206.767 119.756 204.943 112.77C203.235 106.341 200.891 97.8642 196.691 92.5708C195.855 96.0129 195.765 100.033 195.318 103.712Z" fill="#F9F2F2"/>
<path d="M177.601 125.4C176.047 119.597 174.18 113.87 172.243 108.18C169.076 98.811 165.702 89.5516 162.153 80.2959C161.931 79.7065 161.025 79.8303 161.04 80.5289C161.627 86.8415 160.853 93.2526 160.391 99.5873C158.961 121.353 162.363 143.576 170.276 164.307C172.088 169.091 174.214 173.799 177.271 177.928C178.603 179.787 180.153 182.061 181.179 179.314C181.939 177.236 181.767 174.06 181.931 171.855C182.632 161.951 182.281 151.894 180.955 141.998C180.139 136.424 179.079 130.89 177.601 125.4Z" fill="#F9F2F2"/>
<path d="M131.181 196.367C113.472 198.451 95.3747 198.621 77.936 201.887C90.1856 194.467 103.811 189.324 117.629 185.05C135.475 179.539 154.154 175.443 172.984 176.83C175.643 177.019 182.75 177.604 178.595 181.115C175.641 183.554 171.73 185.348 168.233 186.924C160.931 190.327 153.047 192.624 145.043 194.19C140.553 195.053 135.885 195.745 131.181 196.367Z" fill="#F9F2F2"/>
<path d="M120.907 178.028C100.878 182.746 80.6049 187.504 59.8547 187.835C66.4544 184.272 72.9849 180.745 79.621 177.251C83.8013 174.962 88.0871 172.706 92.4493 170.762C104.325 165.481 117.332 162.517 130.532 162.101C137.201 161.856 143.885 162.31 150.547 163.393C152.967 163.796 156.682 164.313 154.194 167.3C152.284 169.542 147.761 170.51 145.091 171.475C137.214 174.121 129.079 176.109 120.907 178.028Z" fill="#F9F2F2"/>
<path d="M39.958 172.178C56.3046 165.16 72.6513 158.143 89.8497 153.414C98.5016 151.066 107.376 149.307 116.388 149.153C120.998 149.022 125.619 149.414 130.145 150.297C131.128 150.486 135.33 150.922 135.396 152.389C135.385 153.542 130.721 154.409 129.68 154.78C111.143 160.655 92.2383 165.664 72.9439 168.76C61.9378 170.493 50.9898 171.667 39.958 172.178Z" fill="#F9F2F2"/>
<path d="M31.4565 138.425C46.9815 135.548 62.5428 132.74 78.3919 131.989C86.3164 131.613 94.3939 131.863 102.184 133.412C106.15 134.237 110.123 135.412 113.897 137.045C114.672 137.343 118.296 138.525 118.009 139.824C117.75 140.843 113.588 140.65 112.577 140.742C95.345 142.221 78.026 142.864 60.7067 141.83C50.8755 141.267 41.1024 140.144 31.4565 138.425Z" fill="#F9F2F2"/>
<path d="M156.761 156.413C157.107 152.877 157.484 149.235 157.83 145.698C158.269 141.67 158.603 137.61 158.763 133.553C159.255 113.694 152.452 94.2326 145.383 75.4409C143.736 83.5477 144.261 91.9234 144.19 100.172C144.18 111.389 143.156 122.523 143.776 133.762C144.177 141.232 145.35 148.825 147.876 155.971C148.695 158.365 150.035 163.928 153.088 164.528C156.701 165.186 156.496 158.76 156.761 156.413Z" fill="#F9F2F2"/>
<path d="M136.108 148.041C139.604 118.125 136.474 87.1945 126.882 58.0772C125.363 70.6193 124.932 83.3831 125.163 96.0631C125.387 108.394 126.204 120.677 128.556 132.858C129.382 137.279 130.42 141.765 131.665 146.142C131.967 147.219 132.656 151.712 133.711 152.04C135.541 152.665 135.992 149.161 136.108 148.041Z" fill="#F9F2F2"/>
<path d="M118.088 135.28C112.907 109.844 102.013 85.2966 86.5758 64.0246C88.7568 74.7069 91.8437 85.2653 95.4146 95.5689C98.9089 105.56 102.891 115.47 107.979 124.799C109.868 128.218 111.895 131.566 114.06 134.84C114.566 135.633 116.317 139.126 117.226 139.176C118.834 139.213 118.248 136.255 118.088 135.28Z" fill="#F9F2F2"/>
<path d="M92.2167 119.678C97.6314 124.596 103.592 128.874 109.312 133.367C115.385 138.027 121.353 142.654 127.39 147.245C139.427 156.358 151.494 165.19 164.444 172.851C189.355 187.634 214.678 202.024 240.531 215.075C255.541 222.623 270.954 229.428 286.699 235.353C288.671 236.08 289.624 233.195 287.721 232.431C260.416 221.822 234.275 208.392 208.677 194.148C183.183 179.936 157.727 165.793 134.329 148.183C127.761 143.254 121.193 138.324 114.624 133.395C107.772 128.262 100.982 122.744 93.6537 118.215C92.6239 117.433 91.2196 118.79 92.2167 119.678Z" fill="#F9F2F2"/>
<path d="M55.6535 67.5039C57.2888 78.8266 63.9669 88.9952 71.6635 97.7446C75.208 101.794 79.0253 105.523 82.7407 109.393C84.633 111.311 86.5253 113.228 88.3484 115.181C90.0297 117.033 91.7256 119.583 93.7124 121.009C95.5277 119.259 91.4151 111.448 90.5671 109.334C88.8746 105.281 86.9056 101.374 84.591 97.6481C79.9581 90.0226 74.1829 82.9102 67.6255 76.8276C63.9537 73.3752 59.9401 70.2795 55.6535 67.5039Z" fill="#F9F2F2"/>
<path d="M29.397 110.198C40.1518 106.478 52.2026 107.902 63.4823 110.881C68.6127 112.241 73.7505 113.95 78.8518 115.59C81.3843 116.376 83.9532 117.23 86.5548 117.98C88.9454 118.663 92.0272 118.983 94.1486 120.162C93.3958 122.588 84.6562 122.422 82.3531 122.576C78.027 122.911 73.6571 122.828 69.2837 122.57C60.3584 121.884 51.5457 119.902 43.0567 116.691C38.3374 114.937 33.749 112.762 29.397 110.198Z" fill="#F9F2F2"/>
</g>
</svg>
