<svg width="45" height="30" viewBox="0 0 45 30" fill="none" xmlns="http://www.w3.org/2000/svg">
<path d="M9.23807 0.684143C4.44461 0.684143 0.537598 4.17335 0.537598 8.45419V22.166C0.537598 26.4469 4.44461 29.9361 9.23807 29.9361H35.8513C40.6447 29.9361 44.5518 26.4469 44.5518 22.166V8.45419C44.5518 4.17335 40.6447 0.684143 35.8513 0.684143H9.23807ZM9.23807 3.42651H35.8513C38.9967 3.42651 41.481 5.64518 41.481 8.45419V22.166C41.481 24.9751 38.9967 27.1937 35.8513 27.1937H9.23807C6.0927 27.1937 3.60835 24.9751 3.60835 22.166V8.45419C3.60835 5.64518 6.0927 3.42651 9.23807 3.42651ZM18.3544 8.01138C17.9668 8.03308 17.6028 8.18514 17.3357 8.43692C17.0686 8.6887 16.9183 9.0215 16.915 9.36831V21.2519C16.9142 21.6012 17.0628 21.9376 17.3303 22.1924C17.5978 22.4472 17.964 22.6012 18.3544 22.6231C18.6618 22.6414 18.9683 22.5767 19.234 22.4375L30.4935 16.4956C30.7221 16.3741 30.9115 16.2016 31.043 15.995C31.1745 15.7884 31.2436 15.5549 31.2436 15.3173C31.2436 15.0796 31.1745 14.8461 31.043 14.6395C30.9115 14.4329 30.7221 14.2604 30.4935 14.1389L19.234 8.19709C18.9683 8.05778 18.6618 7.99307 18.3544 8.01138ZM19.9857 11.7821L26.687 15.3101L19.9857 18.8523V11.7821Z" fill="url(#paint0_linear)"/>
<defs>
<linearGradient id="paint0_linear" x1="43.3586" y1="12.0871" x2="1.09786" y2="12.466" gradientUnits="userSpaceOnUse">
<stop offset="0.4375" stop-color="#12CAD6"/>
<stop offset="1" stop-color="#12B3D6"/>
</linearGradient>
</defs>
</svg>
