<svg width="353" height="351" viewBox="0 0 353 351" fill="none" xmlns="http://www.w3.org/2000/svg">
<g opacity="0.86">
<path d="M332.389 137.863C333.27 130.872 334.152 123.882 335.762 117.057C338.372 105.991 343.037 95.4281 349.386 85.908C350.925 83.5464 354.579 84.6365 354.497 87.3293C354.271 92.7831 353.983 98.3053 353.626 103.765C353.326 109.025 352.895 114.291 352.072 119.574C349.171 139.179 341.512 157.938 332.23 175.586C329.865 180.082 327.555 185.887 324.176 189.705C324.922 181.08 327.303 172.32 328.709 163.798C330.042 155.083 331.249 146.504 332.389 137.863Z" fill="#F9F2F2"/>
<path d="M319.59 137.689C317.602 154.106 313.116 170.368 304.48 184.709C302.155 188.613 299.493 192.334 296.832 196.056C293.926 200.181 290.956 204.375 287.982 208.438C287.989 205.551 288.982 202.688 289.713 199.836C292.15 190.877 292.339 181.489 293.063 172.341C294.505 153.913 298.048 135.527 303.783 117.768C305.284 112.981 306.921 108.32 309.088 103.767C310.707 100.221 313.667 92.7482 317.318 90.6899C322.381 87.9153 320.996 98.4694 321.034 100.895C321.149 106.662 321.202 112.498 321.056 118.276C320.812 124.846 320.363 131.227 319.59 137.689Z" fill="#F9F2F2"/>
<path d="M324.849 44.3872C317.122 30.8774 307.35 18.6358 296.689 7.08808C300.628 16.3651 304.697 25.6365 307.799 35.2772C309.759 41.228 311.331 47.3265 313.422 53.2717C315.592 59.5414 318.474 65.5839 321.738 71.3478C323.797 74.9985 326.179 78.5699 329.195 81.5894C331.322 83.7942 336.306 88.3694 339.688 87.7C339.836 80.4129 336.927 72.207 334.472 65.4246C332.064 58.1812 328.744 51.1079 324.849 44.3872Z" fill="#F9F2F2"/>
<path d="M277.922 33.0124C266.77 23.7814 254.046 16.1264 239.896 11.9431C246.177 17.7091 252.521 23.4068 258.802 29.1728C263.649 33.6227 268.559 38.0042 272.837 42.9376C276.699 47.364 279.987 52.1429 283.467 56.8479C287.716 62.6352 291.959 68.2916 296.527 73.8685C300.548 78.944 304.831 84.0083 310.055 88.0485C311.682 89.2908 316.188 93.4273 318.466 93.0019C322.115 92.4523 319.09 87.6622 318.294 85.9252C312.559 72.9862 304.894 60.9169 295.576 50.0989C290.132 43.9691 284.312 38.249 277.922 33.0124Z" fill="#F9F2F2"/>
<path d="M271.772 68.6302C262.305 58.9336 252.451 49.3848 241.11 41.8673C227.88 33.1188 212.94 27.3295 198.062 21.4719C217.595 38.0189 232.911 58.7473 251.003 76.8646C257.17 83.0291 263.718 88.9148 271.503 93.0423C275.732 95.2884 280.262 96.9313 285.033 98.0392C289.535 99.0274 293.674 99.1784 291.27 93.5746C287.126 84.1095 278.843 76.0022 271.772 68.6302Z" fill="#F9F2F2"/>
<path d="M257.298 198.008C260.154 177.356 263.135 156.566 269.958 136.662C272.702 128.739 275.981 121.056 279.323 113.304C282.066 106.89 284.997 100.271 290.244 95.6518C290.83 103.236 289.185 110.783 287.933 118.315C285.348 134.561 285.069 151.037 280.827 166.895C278.618 175.057 275.288 183.071 271.081 190.532C267.176 197.389 261.92 206.403 255.501 211.204C255.583 207.002 256.697 202.363 257.298 198.008Z" fill="#F9F2F2"/>
<path d="M243.544 167.768C240.004 173.954 236.128 179.957 232.185 185.898C225.716 195.686 219.042 205.285 212.169 214.828C211.736 215.437 210.735 215.02 210.963 214.223C213.547 207.16 214.6 199.572 215.989 192.166C220.937 166.767 231.567 142.305 246.92 120.921C250.447 115.982 254.311 111.225 259.067 107.414C261.158 105.685 263.624 103.546 263.969 107.008C264.212 109.621 263.054 113.213 262.574 115.792C260.379 127.364 256.932 138.794 252.416 149.744C249.792 155.891 246.902 161.918 243.544 167.768Z" fill="#F9F2F2"/>
<path d="M211.78 72.3104C192.099 64.5592 171.391 58.8853 152.377 49.8593C164.181 62.0797 178.253 72.1041 192.81 81.1894C211.611 92.9138 231.798 103.267 253.816 107.376C256.924 107.965 265.252 109.445 261.549 104.16C258.899 100.468 254.956 97.2262 251.423 94.36C244.077 88.246 235.729 83.2243 227.021 79.0051C222.133 76.656 216.988 74.449 211.78 72.3104Z" fill="#F9F2F2"/>
<path d="M194.443 90.2371C172.896 78.7613 151.083 67.1657 127.381 60.5047C133.873 66.5897 140.296 72.612 146.85 78.6287C150.952 82.5201 155.185 86.4058 159.601 89.9559C171.623 99.6087 185.646 106.946 200.661 111.42C208.237 113.72 216.041 115.223 224.011 115.997C226.909 116.267 231.326 116.799 229.377 112.619C227.865 109.47 222.97 106.99 220.199 105.075C211.965 99.6548 203.235 94.9118 194.443 90.2371Z" fill="#F9F2F2"/>
<path d="M99.8188 72.4404C116.445 85.4385 133.071 98.4366 151.367 109.067C160.58 114.38 170.227 119.084 180.518 121.989C185.766 123.536 191.185 124.485 196.645 124.842C197.829 124.922 202.781 125.694 203.301 124.032C203.637 122.706 198.549 120.3 197.468 119.559C177.984 107.208 157.815 95.7387 136.621 86.3468C124.521 81.0264 112.318 76.3663 99.8188 72.4404Z" fill="#F9F2F2"/>
<path d="M79.8496 108.583C96.7867 116.583 113.786 124.515 131.739 130.175C140.715 133.005 150.056 135.164 159.46 135.746C164.259 136 169.173 135.855 173.995 135.124C174.975 135.017 179.49 134.758 179.553 133.181C179.566 131.935 174.733 130.895 173.6 130.484C154.283 123.57 134.611 117.59 114.432 113.533C102.985 111.202 91.4345 109.531 79.8496 108.583Z" fill="#F9F2F2"/>
<path d="M229.026 125.884C228.351 130.045 227.682 134.337 227.007 138.498C226.292 143.252 225.446 148.011 224.401 152.712C218.953 175.641 205.258 195.904 191.461 215.319C192.026 205.522 195.164 196.073 197.579 186.59C200.964 173.72 203.159 160.639 207.273 147.935C209.995 139.488 213.639 131.133 218.7 123.702C220.364 121.204 223.585 115.228 227.268 115.464C231.612 115.803 229.432 123.112 229.026 125.884Z" fill="#F9F2F2"/>
<path d="M202.802 129.236C197.755 164.609 184.801 199.141 164.984 229.636C167.038 214.79 170.408 200.018 174.512 185.544C178.501 171.467 183.157 157.625 189.543 144.364C191.829 139.544 194.378 134.712 197.131 130.069C197.803 128.925 199.953 123.979 201.263 123.923C203.551 123.759 203.008 127.915 202.802 129.236Z" fill="#F9F2F2"/>
<path d="M178.268 138.418C164.624 166.026 144.697 190.885 120.55 210.611C126.285 199.018 133.023 187.842 140.238 177.104C147.271 166.702 154.839 156.54 163.499 147.38C166.701 144.029 170.039 140.803 173.514 137.703C174.335 136.946 177.4 133.47 178.459 133.687C180.315 134.132 178.747 137.348 178.268 138.418Z" fill="#F9F2F2"/>
<path d="M144.086 144.174C151.786 140.171 159.918 137.069 167.839 133.647C176.217 130.141 184.463 126.639 192.777 123.201C209.344 116.393 225.858 109.914 243.033 105.048C276.082 95.6321 309.485 86.7919 343.091 79.6484C362.593 75.5348 382.334 72.395 402.187 70.3655C404.669 70.1281 404.889 73.7264 402.475 74.0264C367.943 77.9298 333.892 85.4203 300.217 94.0098C266.672 102.594 233.19 111.109 201.02 124.226C191.994 127.892 182.968 131.557 173.941 135.223C164.528 139.036 155.068 143.311 145.291 146.287C143.873 146.872 142.673 144.89 144.086 144.174Z" fill="#F9F2F2"/>
<path d="M86.1342 197.259C91.4378 184.766 102.176 175.124 113.654 167.418C118.945 163.847 124.453 160.725 129.886 157.41C132.637 155.783 135.388 154.157 138.071 152.468C140.56 150.853 143.277 148.441 145.988 147.407C147.541 149.964 140.458 157.679 138.846 159.847C135.677 163.984 132.236 167.87 128.453 171.442C120.83 178.787 112.052 185.197 102.689 190.188C97.4325 193.037 91.8913 195.373 86.1342 197.259Z" fill="#F9F2F2"/>
<path d="M68.9417 140.338C80.1518 147.861 94.406 149.875 108.246 149.874C114.543 149.867 120.954 149.461 127.302 149.124C130.444 148.99 133.65 148.787 136.861 148.716C139.81 148.655 143.442 149.221 146.232 148.512C146.103 145.5 136.028 143.045 133.432 142.172C128.572 140.477 123.534 139.25 118.44 138.221C107.994 136.307 97.2854 135.912 86.5758 137.026C80.6317 137.608 74.71 138.714 68.9417 140.338Z" fill="#F9F2F2"/>
</g>
</svg>
