<svg width="406" height="409" viewBox="0 0 406 409" fill="none" xmlns="http://www.w3.org/2000/svg">
<path d="M420.694 290.851C419.339 301.014 417.984 311.178 417.715 321.379C417.278 337.917 419.919 354.512 425.316 370.265C426.605 374.159 432.151 373.982 433.036 370.163C434.744 362.406 436.388 354.529 437.913 346.714C439.445 339.202 440.794 331.633 441.597 323.894C444.797 295.232 440.986 265.993 434.481 237.715C432.821 230.511 431.727 221.485 428.391 214.859C426.238 227.271 426.334 240.48 425.149 252.993C423.788 265.75 422.301 278.269 420.694 290.851Z" fill="#F9F2F2"/>
<path d="M402.623 286.344C405.923 262.506 405.649 237.958 398.825 214.574C397.002 208.218 394.639 201.993 392.277 195.769C389.719 188.885 387.099 181.882 384.422 175.061C383.361 179.125 383.695 183.522 383.664 187.805C383.766 201.317 380.546 214.596 378.167 227.736C373.353 254.2 371.51 281.386 372.984 308.502C373.318 315.795 373.891 322.962 375.249 330.173C376.21 335.763 377.6 347.377 381.973 351.629C388.066 357.413 390.037 342.048 390.991 338.65C393.295 330.578 395.536 322.387 397.476 314.202C399.572 304.868 401.311 295.722 402.623 286.344Z" fill="#F9F2F2"/>
<path d="M375.376 419.574C359.486 435.713 341.191 449.308 321.903 461.597C330.889 450.007 340.059 438.473 348.003 426.06C352.97 418.415 357.447 410.418 362.597 402.83C367.979 394.814 374.278 387.382 381.011 380.485C385.262 376.112 389.941 371.972 395.305 368.843C399.118 366.531 407.829 361.945 412.339 364.142C409.841 374.45 402.701 384.916 396.728 393.547C390.649 402.845 383.352 411.564 375.376 419.574Z" fill="#F9F2F2"/>
<path d="M305.124 418.152C286.005 426.999 265.259 433.045 243.796 433.676C254.775 427.896 265.817 422.234 276.795 416.454C285.268 411.993 293.804 407.652 301.655 402.299C308.733 397.505 315.133 392.002 321.778 386.674C329.905 380.109 337.976 373.726 346.473 367.575C354.016 361.927 361.924 356.392 370.774 352.648C373.525 351.504 381.401 347.357 384.447 348.801C389.379 350.93 383.343 356.546 381.578 358.695C368.704 374.771 353.436 388.906 336.309 400.667C326.373 407.27 316.059 413.157 305.124 418.152Z" fill="#F9F2F2"/>
<path d="M309.696 365.753C292.776 375.881 275.365 385.657 256.616 392.023C234.752 399.419 211.581 402.017 188.472 404.733C222.1 388.705 251.349 365.227 283.531 346.454C294.498 340.071 305.897 334.221 318.384 331.305C325.168 329.715 332.153 329.086 339.276 329.298C345.978 329.58 351.857 330.904 346.394 337.896C337.049 349.675 322.383 358.006 309.696 365.753Z" fill="#F9F2F2"/>
<path d="M337.376 178.34C333.725 208.459 330.199 238.817 332.408 269.357C333.327 281.524 335.087 293.552 336.911 305.7C338.388 315.743 340.054 326.145 345.721 334.593C349.363 324.14 349.851 312.909 350.886 301.847C353.282 278.028 359.007 254.743 358.929 230.855C358.851 218.55 357.141 206.038 353.992 193.978C351.045 182.879 346.998 168.244 339.748 159.106C338.304 165.048 338.148 171.989 337.376 178.34Z" fill="#F9F2F2"/>
<path d="M306.791 215.781C304.108 205.762 300.884 195.876 297.541 186.052C292.074 169.879 286.249 153.894 280.122 137.915C279.739 136.898 278.175 137.111 278.2 138.317C279.213 149.215 277.877 160.283 277.081 171.219C274.611 208.794 280.484 247.16 294.144 282.949C297.274 291.208 300.943 299.335 306.22 306.464C308.52 309.673 311.196 313.599 312.967 308.856C314.279 305.269 313.983 299.786 314.265 295.979C315.475 278.881 314.87 261.52 312.581 244.435C311.172 234.812 309.343 225.259 306.791 215.781Z" fill="#F9F2F2"/>
<path d="M226.652 338.297C196.082 341.894 164.838 342.187 134.733 347.826C155.88 335.015 179.403 326.137 203.258 318.759C234.066 309.244 266.314 302.173 298.82 304.568C303.411 304.894 315.679 305.904 308.507 311.966C303.407 316.175 296.655 319.273 290.619 321.994C278.013 327.869 264.402 331.834 250.584 334.537C242.833 336.027 234.774 337.221 226.652 338.297Z" fill="#F9F2F2"/>
<path d="M208.917 306.635C174.339 314.781 139.341 322.995 103.519 323.566C114.912 317.415 126.186 311.327 137.642 305.295C144.859 301.343 152.258 297.448 159.789 294.092C180.29 284.975 202.745 279.859 225.533 279.139C237.047 278.717 248.586 279.5 260.087 281.371C264.264 282.067 270.677 282.958 266.382 288.116C263.085 291.986 255.277 293.658 250.667 295.323C237.069 299.891 223.024 303.323 208.917 306.635Z" fill="#F9F2F2"/>
<path d="M69.1687 296.536C97.3889 284.422 125.609 272.307 155.3 264.144C170.236 260.09 185.556 257.054 201.115 256.788C209.073 256.561 217.05 257.238 224.864 258.763C226.56 259.089 233.815 259.842 233.929 262.373C233.91 264.365 225.858 265.861 224.062 266.502C192.06 276.644 159.423 285.292 126.114 290.636C107.114 293.629 88.2135 295.654 69.1687 296.536Z" fill="#F9F2F2"/>
<path d="M54.4927 238.266C81.2943 233.3 108.159 228.453 135.52 227.156C149.201 226.507 163.145 226.938 176.594 229.612C183.441 231.037 190.3 233.065 196.814 235.884C198.152 236.399 204.409 238.439 203.913 240.682C203.467 242.441 196.281 242.109 194.535 242.266C164.787 244.821 134.888 245.931 104.989 244.145C88.0167 243.174 71.1449 241.235 54.4927 238.266Z" fill="#F9F2F2"/>
<path d="M270.813 269.322C271.408 263.216 272.061 256.928 272.657 250.823C273.416 243.869 273.993 236.859 274.268 229.856C275.117 195.572 263.373 161.975 251.17 129.534C248.326 143.529 249.233 157.988 249.109 172.228C249.093 191.593 247.325 210.814 248.395 230.217C249.088 243.113 251.113 256.222 255.474 268.557C256.887 272.69 259.2 282.294 264.47 283.33C270.708 284.466 270.355 273.373 270.813 269.322Z" fill="#F9F2F2"/>
<path d="M235.159 254.867C241.194 203.221 235.791 149.825 219.233 99.5576C216.61 121.21 215.866 143.245 216.265 165.135C216.651 186.422 218.061 207.628 222.122 228.657C223.549 236.289 225.34 244.033 227.489 251.589C228.011 253.448 229.199 261.206 231.021 261.771C234.181 262.851 234.959 256.802 235.159 254.867Z" fill="#F9F2F2"/>
<path d="M204.05 232.837C195.105 188.925 176.299 146.548 149.648 109.825C153.414 128.266 158.743 146.494 164.907 164.282C170.94 181.529 177.814 198.639 186.598 214.743C189.859 220.647 193.358 226.425 197.096 232.077C197.97 233.447 200.992 239.476 202.562 239.564C205.338 239.626 204.326 234.52 204.05 232.837Z" fill="#F9F2F2"/>
<path d="M159.386 205.902C168.734 214.393 179.024 221.779 188.899 229.535C199.384 237.58 209.686 245.568 220.108 253.493C240.889 269.225 261.72 284.473 284.077 297.698C327.083 323.219 370.798 348.062 415.43 370.593C441.342 383.623 467.952 395.371 495.132 405.6C498.537 406.855 500.182 401.874 496.897 400.556C449.759 382.24 404.631 359.056 360.438 334.464C316.428 309.93 272.48 285.514 232.087 255.112C220.748 246.603 209.409 238.093 198.07 229.584C186.241 220.722 174.519 211.195 161.867 203.377C160.089 202.027 157.665 204.37 159.386 205.902Z" fill="#F9F2F2"/>
<path d="M96.2657 115.831C99.0888 135.379 110.618 152.933 123.905 168.038C130.024 175.028 136.614 181.465 143.028 188.148C146.295 191.458 149.561 194.767 152.709 198.14C155.611 201.337 158.539 205.739 161.969 208.201C165.103 205.179 158.003 191.695 156.539 188.045C153.617 181.048 150.218 174.303 146.222 167.871C138.224 154.707 128.254 142.428 116.934 131.927C110.595 125.967 103.666 120.623 96.2657 115.831Z" fill="#F9F2F2"/>
<path d="M50.9368 189.536C69.5034 183.114 90.3075 185.574 109.78 190.715C118.637 193.063 127.507 196.014 136.314 198.846C140.686 200.202 145.121 201.677 149.612 202.971C153.739 204.151 159.059 204.703 162.721 206.737C161.422 210.927 146.334 210.641 142.358 210.905C134.89 211.484 127.346 211.34 119.796 210.896C104.387 209.711 89.1735 206.29 74.5184 200.745C66.3711 197.719 58.4499 193.964 50.9368 189.536Z" fill="#F9F2F2"/>
</svg>
