<svg width="220" height="294" viewBox="0 0 220 294" fill="none" xmlns="http://www.w3.org/2000/svg">
<g opacity="0.86">
<path d="M-25.454 -28.2548C-11.3462 -38.1245 4.2089 -45.7602 20.3256 -52.2823C12.0062 -44.8595 3.5584 -37.504 -4.09508 -29.3221C-8.86466 -24.2932 -13.3165 -18.9338 -18.2145 -13.9723C-23.3451 -8.72361 -29.0807 -4.03824 -35.0666 0.188176C-38.8492 2.8694 -42.9189 5.31794 -47.3609 6.91593C-50.5303 8.11764 -57.6763 10.3429 -60.7443 8.07679C-57.4525 0.716166 -50.6689 -6.12107 -45.0119 -11.7484C-39.1831 -17.8588 -32.5231 -23.3689 -25.454 -28.2548Z" fill="#F9F2F2"/>
<path d="M26.8651 -17.4869C42.3798 -21.4591 58.724 -23.1124 74.8561 -20.6192C65.8502 -17.8147 56.8138 -15.1082 47.8079 -12.3038C40.8577 -10.1395 33.877 -8.0731 27.2686 -5.15618C21.3149 -2.55053 15.7704 0.679371 10.067 3.74399C3.08458 7.52904 -3.83042 11.1857 -11.0326 14.6097C-17.4517 17.7898 -24.1276 20.8351 -31.2607 22.412C-33.4752 22.8869 -39.936 24.8988 -42.014 23.3982C-45.4062 21.1257 -40.1184 17.7609 -38.5024 16.3987C-26.6572 6.15976 -13.2909 -2.29779 1.13759 -8.72369C9.47758 -12.2872 18.0004 -15.2634 26.8651 -17.4869Z" fill="#F9F2F2"/>
<path d="M16.2088 21.0528C30.2569 15.8192 44.6227 10.9162 59.5179 8.74763C76.8844 6.23906 94.5651 7.49839 112.215 8.65984C84.8623 15.9963 59.7539 29.5063 33.1021 39.0943C24.0223 42.3512 14.6923 45.1492 4.95482 45.6043C-0.335957 45.8558 -5.64434 45.3612 -10.9398 44.2183C-15.9112 43.0818 -20.1234 41.2794 -15.0731 36.8074C-6.46001 29.2931 5.65431 25.0912 16.2088 21.0528Z" fill="#F9F2F2"/>
<path d="M-30.3747 157.331C-23.4841 135.319 -16.6545 113.112 -14.087 89.9769C-13.093 80.7547 -12.7473 71.5195 -12.4322 62.1865C-12.1492 54.4742 -11.9577 46.4683 -15.027 39.3704C-19.1934 46.6812 -21.11 55.0096 -23.4117 63.1357C-28.4935 80.6108 -35.9903 97.2271 -39.2315 115.095C-40.8737 124.305 -41.3237 133.895 -40.6359 143.345C-39.9658 152.049 -38.962 163.548 -34.8048 171.381C-32.9045 167.139 -31.8289 161.971 -30.3747 157.331Z" fill="#F9F2F2"/>
<path d="M-2.33819 133.567C-1.71611 141.427 -0.671998 149.263 0.470021 157.068C2.32258 169.914 4.4688 182.669 6.84129 195.46C6.98727 196.274 8.186 196.33 8.3337 195.425C9.08207 187.138 11.6101 179.049 13.716 170.984C20.753 143.236 21.6634 113.744 16.3955 85.1026C15.1972 78.4959 13.5769 71.9132 10.6166 65.8552C9.34105 63.1383 7.88258 59.8341 5.90373 63.1349C4.42721 65.6349 3.89095 69.7751 3.15419 72.5817C-0.1123 85.1962 -2.05813 98.2585 -2.70735 111.347C-2.98388 118.735 -2.93624 126.129 -2.33819 133.567Z" fill="#F9F2F2"/>
<path d="M74.4945 53.0504C97.8447 54.5845 121.241 58.6814 144.526 58.6253C126.947 65.2804 108.136 68.6683 89.284 70.8879C64.9386 73.7442 39.8551 74.5753 15.8859 68.2944C12.4984 67.4164 3.46716 64.9669 9.66644 61.4257C14.0603 58.9837 19.5357 57.6008 24.4238 56.4008C34.6589 53.7505 45.3817 52.6665 56.0852 52.5549C62.0853 52.512 68.2747 52.7322 74.4945 53.0504Z" fill="#F9F2F2"/>
<path d="M83.3798 79.1698C110.354 77.8574 137.652 76.5514 164.51 81.0738C155.143 84.0981 145.873 87.0918 136.476 90.0182C130.535 91.9755 124.466 93.8655 118.373 95.3333C101.788 99.3167 84.2946 100.039 67.1596 97.4288C58.4942 96.154 49.9765 93.9742 41.637 90.9872C38.6105 89.8894 33.9393 88.3373 37.8631 85.0752C40.8625 82.6378 46.9299 82.4665 50.6064 81.8586C61.4031 80.322 72.3762 79.697 83.3798 79.1698Z" fill="#F9F2F2"/>
<path d="M186.454 106.025C163.684 111.183 140.914 116.34 117.591 118.341C105.865 119.308 93.9935 119.461 82.3257 117.511C76.345 116.581 70.475 114.973 64.8442 112.753C63.6214 112.275 58.3019 110.71 58.5668 108.802C58.8558 107.316 65.0821 107.31 66.5135 107.079C91.8378 103.918 117.43 101.962 143.069 102.569C157.686 102.956 172.095 104.053 186.454 106.025Z" fill="#F9F2F2"/>
<path d="M189.375 151.612C168.653 151.622 147.901 151.534 127.267 148.724C116.951 147.319 106.586 145.071 96.9016 141.214C91.9801 139.203 87.1324 136.739 82.6522 133.731C81.7231 133.162 77.328 130.772 78.0085 129.164C78.5846 127.911 83.9106 129.152 85.2377 129.275C107.829 131.475 130.333 134.776 152.438 140.242C164.991 143.313 177.336 147.093 189.375 151.612Z" fill="#F9F2F2"/>
<path d="M31.9538 98.5127C30.6649 102.995 29.3086 107.605 28.0197 112.087C26.4916 117.18 25.092 122.341 23.9186 127.538C18.5474 153.05 22.6857 179.788 27.3263 205.725C31.3854 195.656 32.7052 184.722 34.7648 174.094C37.4521 159.619 41.4296 145.495 43.3098 130.842C44.5734 121.106 44.8709 111.027 43.315 101.203C42.829 97.9181 42.4268 90.4192 38.6301 88.917C34.1242 87.206 32.8559 95.5473 31.9538 98.5127Z" fill="#F9F2F2"/>
<path d="M56.611 114.244C44.9645 152.018 41.627 192.681 47.061 232.546C52.0127 216.722 55.6132 200.353 58.3392 183.933C60.9913 167.967 62.8668 151.92 62.7363 135.638C62.7239 129.736 62.4547 123.699 61.8919 117.753C61.7588 116.291 61.9421 110.328 60.6584 109.654C58.4456 108.41 57.0283 112.825 56.611 114.244Z" fill="#F9F2F2"/>
<path d="M76.8224 135.01C77.4426 169.072 85.6468 203.349 100.496 234.484C100.229 220.177 98.7636 205.815 96.6127 191.666C94.4857 177.939 91.7106 164.199 87.3691 150.947C85.7471 146.083 83.9292 141.28 81.9157 136.538C81.452 135.394 80.0257 130.469 78.8639 130.186C76.7971 129.756 76.8481 133.713 76.8224 135.01Z" fill="#F9F2F2"/>
<path d="M106.49 161.315C100.675 153.676 94.0029 146.734 87.6921 139.571C80.9656 132.109 74.3675 124.714 67.6715 117.349C54.31 102.718 40.8442 88.4417 25.9581 75.4665C-2.66513 50.4469 -31.9127 25.8365 -62.1649 2.82748C-79.7356 -10.4929 -98.0045 -22.9516 -116.911 -34.3529C-119.282 -35.762 -121.2 -32.2654 -118.926 -30.8258C-86.2187 -10.6217 -55.6857 12.9441 -26.0466 37.4326C3.46409 61.8537 32.9443 86.1769 58.9404 114.484C66.2414 122.412 73.5423 130.34 80.8432 138.268C88.4619 146.526 95.9087 155.268 104.286 162.86C105.429 164.115 107.565 162.698 106.49 161.315Z" fill="#F9F2F2"/>
<path d="M141.233 237.369C141.823 222.366 135.63 207.65 127.784 194.523C124.175 188.452 120.138 182.73 116.266 176.848C114.282 173.923 112.297 170.997 110.41 168.041C108.682 165.25 107.101 161.554 104.877 159.24C102.117 161.066 105.562 172.128 106.152 175.058C107.37 180.692 108.979 186.205 111.077 191.565C115.238 202.511 120.995 213.067 128.007 222.481C131.922 227.812 136.363 232.764 141.233 237.369Z" fill="#F9F2F2"/>
<path d="M185.301 188.532C170.534 190.768 155.322 186.055 141.475 179.522C135.178 176.543 128.955 173.111 122.763 169.778C119.682 168.16 116.571 166.445 113.392 164.857C110.47 163.405 106.569 162.257 104.112 160.23C105.662 157.278 116.902 159.576 119.91 159.928C125.573 160.527 131.193 161.676 136.776 163.052C148.131 166.066 159.031 170.726 169.221 176.895C174.893 180.283 180.296 184.184 185.301 188.532Z" fill="#F9F2F2"/>
</g>
</svg>
