<svg width="325" height="398" viewBox="0 0 325 398" fill="none" xmlns="http://www.w3.org/2000/svg">
<path d="M347.725 209.214C349.46 201.253 351.195 193.291 353.753 185.595C357.898 173.117 364.358 161.43 372.651 151.117C374.667 148.555 378.764 150.187 378.393 153.28C377.571 159.539 376.671 165.871 375.697 172.123C374.811 178.151 373.773 184.172 372.28 190.173C366.921 212.457 356.167 233.278 343.66 252.651C340.472 257.586 337.214 264.036 332.929 268.086C334.676 258.228 338.32 248.382 340.817 238.711C343.249 228.809 345.523 219.051 347.725 209.214Z" fill="#F9F2F2"/>
<path d="M333.001 207.696C329.022 226.403 322.18 244.674 310.757 260.304C307.676 264.561 304.228 268.574 300.779 272.587C297.006 277.04 293.154 281.565 289.31 285.939C289.616 282.615 291.054 279.419 292.189 276.209C295.919 266.14 297.103 255.345 298.878 244.882C302.436 223.803 308.41 202.989 316.843 183.123C319.065 177.763 321.43 172.562 324.395 167.541C326.625 163.623 330.804 155.32 335.221 153.324C341.339 150.649 338.657 162.664 338.451 165.462C337.991 172.117 337.451 178.844 336.687 185.485C335.73 193.028 334.557 200.333 333.001 207.696Z" fill="#F9F2F2"/>
<path d="M348.662 100.763C341.151 84.4061 331.155 69.2992 320.063 54.9001C323.645 65.9917 327.379 77.0903 329.959 88.5147C331.604 95.5711 332.788 102.758 334.585 109.821C336.439 117.267 339.137 124.524 342.304 131.499C344.299 135.916 346.676 140.275 349.838 144.064C352.062 146.823 357.332 152.606 361.297 152.183C362.217 143.804 359.711 134.052 357.582 125.987C355.553 117.395 352.457 108.906 348.662 100.763Z" fill="#F9F2F2"/>
<path d="M295.778 82.8313C283.882 71.0503 270.013 60.9228 254.144 54.6477C260.785 61.936 267.506 69.1521 274.148 76.4405C279.274 82.0652 284.479 87.6177 288.899 93.7407C292.892 99.237 296.187 105.08 299.712 110.858C304.01 117.962 308.316 124.914 313.003 131.808C317.113 138.069 321.526 144.343 327.127 149.535C328.874 151.133 333.638 156.362 336.306 156.106C340.566 155.849 337.574 150.02 336.837 147.937C331.562 132.442 323.974 117.751 314.355 104.33C308.715 96.709 302.599 89.521 295.778 82.8313Z" fill="#F9F2F2"/>
<path d="M285.027 123.226C275.121 111.082 264.753 99.0688 252.463 89.2421C238.123 77.803 221.509 69.5965 204.975 61.3179C225.771 82.3888 241.281 107.842 260.256 130.574C266.725 138.309 273.663 145.763 282.206 151.319C286.845 154.341 291.895 156.7 297.276 158.467C302.36 160.069 307.112 160.669 304.92 153.966C301.121 142.637 292.414 132.446 285.027 123.226Z" fill="#F9F2F2"/>
<path d="M255.037 270.767C260.452 247.271 266.026 223.631 275.935 201.406C279.911 192.562 284.479 184.049 289.126 175.463C292.946 168.357 297.004 161.034 303.523 156.254C303.418 165.05 300.746 173.575 298.529 182.121C293.879 200.569 291.861 219.519 285.343 237.35C281.958 246.524 277.297 255.413 271.683 263.574C266.48 271.071 259.498 280.913 251.609 285.782C252.137 280.951 253.897 275.722 255.037 270.767Z" fill="#F9F2F2"/>
<path d="M242.305 234.517C237.591 241.278 232.509 247.795 227.354 254.232C218.895 264.841 210.22 275.212 201.321 285.496C200.759 286.153 199.648 285.57 199.993 284.676C203.697 276.806 205.691 268.173 208.053 259.785C216.367 231.037 231.129 203.954 251.015 180.902C255.587 175.576 260.527 170.494 266.398 166.594C268.984 164.817 272.046 162.607 272.087 166.63C272.098 169.665 270.394 173.683 269.575 176.604C265.856 189.709 260.709 202.52 254.379 214.669C250.725 221.479 246.775 228.124 242.305 234.517Z" fill="#F9F2F2"/>
<path d="M215.543 121.29C193.67 110.336 170.401 101.669 149.427 89.315C161.767 104.607 176.945 117.602 192.777 129.566C213.228 145.006 235.415 159.01 260.355 166.01C263.875 167.007 273.315 169.57 269.594 163.1C266.921 158.576 262.713 154.435 258.938 150.77C251.106 142.971 242.007 136.327 232.411 130.571C227.021 127.362 221.322 124.29 215.543 121.29Z" fill="#F9F2F2"/>
<path d="M193.727 140.156C170.089 124.719 146.156 109.117 119.539 99.005C126.391 106.682 133.17 114.281 140.1 121.886C144.425 126.79 148.901 131.702 153.621 136.246C166.477 148.603 181.874 158.498 198.71 165.197C207.2 168.626 216.035 171.16 225.136 172.872C228.446 173.481 233.48 174.549 231.664 169.534C230.246 165.75 224.864 162.39 221.869 159.899C212.942 152.808 203.374 146.446 193.727 140.156Z" fill="#F9F2F2"/>
<path d="M86.5605 109.917C104.374 126.6 122.188 143.284 142.169 157.413C152.235 164.481 162.863 170.892 174.418 175.298C180.304 177.62 186.449 179.27 192.701 180.244C194.057 180.458 199.682 181.857 200.451 179.996C200.976 178.503 195.363 175.208 194.193 174.243C173.02 158.011 150.969 142.723 127.521 129.723C114.131 122.349 100.555 115.725 86.5605 109.917Z" fill="#F9F2F2"/>
<path d="M59.8379 149.495C78.5244 160.453 97.2901 171.339 117.387 179.707C127.435 183.891 137.973 187.339 148.746 188.977C154.248 189.764 159.922 190.103 165.553 189.757C166.692 189.734 171.919 189.901 172.155 188.091C172.298 186.656 166.838 184.961 165.575 184.372C144.035 174.419 121.991 165.505 99.164 158.756C86.2178 154.892 73.085 151.779 59.8379 149.495Z" fill="#F9F2F2"/>
<path d="M229.895 184.777C228.689 189.501 227.476 194.376 226.271 199.1C224.958 204.502 223.494 209.897 221.806 215.205C213.17 241.055 195.309 262.987 177.418 283.932C179.077 272.704 183.664 262.143 187.422 251.468C192.647 236.992 196.522 222.15 202.568 207.939C206.573 198.489 211.63 189.24 218.225 181.201C220.399 178.495 224.724 171.943 228.943 172.594C233.911 173.431 230.648 181.626 229.895 184.777Z" fill="#F9F2F2"/>
<path d="M199.341 185.938C189.887 226.166 171.411 264.609 145.445 297.697C149.34 280.807 154.741 264.139 160.958 247.888C167.003 232.084 173.79 216.618 182.511 202C185.641 196.683 189.074 191.38 192.723 186.314C193.615 185.066 196.601 179.59 198.115 179.66C200.768 179.707 199.714 184.438 199.341 185.938Z" fill="#F9F2F2"/>
<path d="M170.137 193.991C151.579 224.388 126.067 250.972 96.2208 271.21C104.021 258.447 112.932 246.266 122.349 234.64C131.52 223.381 141.284 212.454 152.202 202.794C156.235 199.264 160.413 195.892 164.735 192.678C165.758 191.891 169.647 188.202 170.844 188.561C172.936 189.265 170.799 192.808 170.137 193.991Z" fill="#F9F2F2"/>
<path d="M129.476 202.043C138.758 198.225 148.444 195.488 157.922 192.362C167.932 189.185 177.791 186.001 187.723 182.896C207.506 176.758 227.196 170.996 247.48 167.157C286.519 159.713 325.906 152.968 365.352 148.198C388.24 145.467 411.302 143.882 434.38 143.588C437.264 143.57 437.146 147.737 434.335 147.834C394.156 148.777 354.162 153.9 314.487 160.329C274.963 166.764 235.519 173.127 197.112 184.925C186.338 188.218 175.563 191.512 164.788 194.805C153.552 198.229 142.216 202.179 130.647 204.601C128.953 205.129 127.775 202.723 129.476 202.043Z" fill="#F9F2F2"/>
<path d="M57.9502 252.287C65.3452 238.442 78.7074 228.441 92.7212 220.745C99.1841 217.176 105.85 214.147 112.45 210.888C115.786 209.297 119.122 207.707 122.386 206.038C125.42 204.434 128.798 201.935 132.027 201.023C133.552 204.128 124.6 212.286 122.519 214.617C118.444 219.056 114.08 223.178 109.354 226.904C99.8178 234.58 89.047 241.06 77.7477 245.846C71.3992 248.586 64.7759 250.707 57.9502 252.287Z" fill="#F9F2F2"/>
<path d="M44.0049 184.95C56.1435 194.769 72.3557 198.557 88.2982 199.979C95.5521 200.62 102.978 200.813 110.325 201.078C113.959 201.246 117.673 201.343 121.379 201.591C124.782 201.825 128.907 202.851 132.194 202.32C132.356 198.838 121.003 194.973 118.103 193.7C112.678 191.248 107.002 189.315 101.239 187.606C89.4042 184.326 77.1096 182.769 64.6585 182.949C57.7516 183.008 50.8166 183.673 44.0049 184.95Z" fill="#F9F2F2"/>
</svg>
