<svg width="420" height="271" viewBox="0 0 420 271" fill="none" xmlns="http://www.w3.org/2000/svg">
<g opacity="0.86">
<path d="M89.6984 202.691C89.335 210.45 88.9715 218.209 87.793 225.849C85.8835 238.235 81.6724 250.248 75.5198 261.26C74.0332 263.988 69.923 263.107 69.7795 260.141C69.5553 254.128 69.3941 248.034 69.3134 242.003C69.1873 236.197 69.2045 230.372 69.652 224.496C71.1413 202.699 77.9336 181.42 86.6044 161.222C88.815 156.076 90.8506 149.497 94.233 145.008C94.1599 154.551 92.3029 164.384 91.4952 173.871C90.7855 183.564 90.2017 193.096 89.6984 202.691Z" fill="#F9F2F2"/>
<path d="M103.778 201.774C104.54 183.56 108.062 165.3 116.309 148.792C118.527 144.301 121.129 139.981 123.732 135.661C126.568 130.875 129.468 126.009 132.385 121.287C132.627 124.459 131.784 127.692 131.228 130.889C129.325 140.946 129.931 151.279 129.928 161.395C129.939 181.772 127.638 202.284 122.875 222.297C121.64 227.687 120.245 232.952 118.258 238.143C116.785 242.18 114.18 250.649 110.346 253.227C105.022 256.715 105.63 244.996 105.378 242.334C104.752 236.006 104.188 229.598 103.849 223.235C103.548 215.994 103.488 208.942 103.778 201.774Z" fill="#F9F2F2"/>
<path d="M106.081 304.763C115.743 318.941 127.542 331.547 140.258 343.314C135.126 333.46 129.851 323.624 125.607 313.298C122.938 306.928 120.681 300.362 117.868 294.01C114.94 287.308 111.25 280.917 107.164 274.865C104.585 271.032 101.657 267.313 98.0823 264.256C95.5531 262.018 89.6797 257.421 86.0207 258.45C86.4898 266.471 90.3975 275.237 93.6825 282.478C96.957 290.229 101.218 297.715 106.081 304.763Z" fill="#F9F2F2"/>
<path d="M158.635 313.199C171.69 322.377 186.337 329.687 202.25 333.059C194.848 327.266 187.383 321.554 179.98 315.762C174.268 311.292 168.492 306.902 163.364 301.851C158.736 297.321 154.71 292.354 150.477 287.485C145.306 281.493 140.153 275.644 134.651 269.911C129.792 264.682 124.646 259.488 118.556 255.5C116.66 254.276 111.349 250.12 108.883 250.785C104.92 251.705 108.66 256.707 109.685 258.547C117.108 272.27 126.578 284.869 137.755 295.951C144.268 302.215 151.16 307.997 158.635 313.199Z" fill="#F9F2F2"/>
<path d="M162.31 273.524C173.554 283.36 185.209 293 198.324 300.279C213.621 308.747 230.542 313.815 247.399 318.963C224.5 302.471 205.872 281.018 184.421 262.675C177.11 256.435 169.404 250.534 160.49 246.673C155.649 244.571 150.528 243.158 145.19 242.353C140.156 241.657 135.595 241.85 138.722 247.8C144.095 257.843 153.901 266.035 162.31 273.524Z" fill="#F9F2F2"/>
<path d="M167.009 130.09C165.66 153.034 164.184 176.138 158.41 198.603C156.081 207.548 153.143 216.275 150.142 225.084C147.683 232.37 145.035 239.898 139.669 245.429C138.368 237.145 139.522 228.708 140.246 220.323C141.679 202.245 140.559 184.115 143.846 166.32C145.567 157.159 148.533 148.064 152.51 139.5C156.207 131.626 161.202 121.264 167.841 115.433C168.114 120.057 167.292 125.252 167.009 130.09Z" fill="#F9F2F2"/>
<path d="M184.746 162.131C188.1 155.026 191.839 148.093 195.659 141.222C201.92 129.906 208.422 118.778 215.148 107.696C215.572 106.99 216.709 107.36 216.527 108.256C214.299 116.242 213.799 124.672 212.914 132.931C209.676 161.273 200.114 189.075 185.094 213.905C181.645 219.639 177.812 225.201 172.915 229.801C170.767 231.882 168.241 234.446 167.563 230.672C167.069 227.821 168.031 223.774 168.335 220.898C169.744 207.991 172.542 195.132 176.558 182.706C178.908 175.724 181.563 168.85 184.746 162.131Z" fill="#F9F2F2"/>
<path d="M227.919 264.282C250.22 271.096 273.468 275.537 295.146 283.809C281.114 271.402 264.782 261.605 247.998 252.881C226.32 241.626 203.239 231.996 178.686 229.388C175.22 229.01 165.939 228.105 170.466 233.593C173.698 237.42 178.312 240.641 182.444 243.485C191.046 249.568 200.655 254.363 210.59 258.246C216.166 260.404 222.011 262.383 227.919 264.282Z" fill="#F9F2F2"/>
<path d="M245.419 243.08C270.091 253.825 295.067 264.678 321.691 269.945C314.03 263.82 306.45 257.759 298.726 251.714C293.881 247.793 288.892 243.89 283.733 240.371C269.684 230.804 253.638 223.956 236.749 220.339C228.225 218.468 219.518 217.493 210.692 217.332C207.485 217.287 202.584 217.084 205.089 221.509C207.023 224.839 212.617 227.141 215.828 229.005C225.346 234.248 235.351 238.704 245.419 243.08Z" fill="#F9F2F2"/>
<path d="M350.948 254.441C331.551 241.597 312.154 228.753 291.127 218.655C280.541 213.615 269.533 209.281 257.972 206.98C252.07 205.735 246.033 205.161 240.002 205.242C238.694 205.256 233.184 204.837 232.758 206.708C232.502 208.195 238.302 210.398 239.555 211.119C262.037 223.004 285.195 233.861 309.3 242.346C323.058 247.145 336.872 251.209 350.948 254.441Z" fill="#F9F2F2"/>
<path d="M369.763 212.992C350.457 205.668 331.088 198.424 310.869 193.758C300.76 191.426 290.308 189.862 279.922 190.038C274.626 190.174 269.239 190.759 264.002 191.98C262.935 192.183 257.996 192.858 258.063 194.597C258.157 195.968 263.558 196.692 264.839 197.045C286.667 202.97 308.802 207.838 331.33 210.548C344.112 212.118 356.95 212.954 369.763 212.992Z" fill="#F9F2F2"/>
<path d="M204.326 206.902C204.707 202.27 205.071 197.496 205.452 192.864C205.826 187.579 206.343 182.275 207.085 177.018C211.085 151.349 224.38 127.894 237.861 105.363C238.089 116.179 235.459 126.834 233.626 137.464C231.021 151.901 229.741 166.467 226.321 180.784C224.061 190.303 220.78 199.8 215.863 208.405C214.25 211.295 211.228 218.141 207.16 218.2C202.357 218.204 204.12 209.984 204.326 206.902Z" fill="#F9F2F2"/>
<path d="M232.856 200.946C235.338 161.635 246.582 122.565 265.719 87.3354C264.747 103.829 262.323 120.354 259.067 136.616C255.902 152.431 251.985 168.046 246.116 183.172C244.021 188.668 241.639 194.198 239.016 199.54C238.376 200.855 236.441 206.477 235.007 206.652C232.506 207.03 232.744 202.416 232.856 200.946Z" fill="#F9F2F2"/>
<path d="M259.02 188.731C271.623 157.209 291.368 128.164 316.196 104.394C310.897 117.631 304.461 130.497 297.462 142.922C290.634 154.963 283.198 166.786 274.474 177.603C271.246 181.563 267.856 185.397 264.306 189.105C263.47 190.007 260.402 194.093 259.22 193.946C257.142 193.618 258.587 189.948 259.02 188.731Z" fill="#F9F2F2"/>
<path d="M295.952 174.691C287.837 179.757 279.169 183.871 270.76 188.317C261.857 192.897 253.099 197.458 244.259 201.957C226.643 210.875 209.056 219.424 190.604 226.26C155.099 239.471 119.157 252.079 82.8443 262.841C61.7688 269.05 40.347 274.211 18.7047 278.161C15.9973 278.637 15.4444 274.702 18.0714 274.163C55.6821 266.882 92.4531 255.701 128.717 243.344C164.837 231.005 200.895 218.746 235.112 201.545C244.714 196.735 254.316 191.924 263.918 187.114C273.932 182.108 283.957 176.591 294.444 172.474C295.952 171.707 297.442 173.782 295.952 174.691Z" fill="#F9F2F2"/>
<path d="M355.175 116.086C350.429 130.274 339.463 141.801 327.517 151.263C322.012 155.647 316.23 159.554 310.545 163.668C307.663 165.694 304.781 167.719 301.979 169.808C299.384 171.798 296.606 174.684 293.717 176.056C291.789 173.38 298.904 164.288 300.489 161.766C303.612 156.945 307.057 152.377 310.905 148.123C318.646 139.391 327.737 131.587 337.594 125.29C343.125 121.704 349.012 118.657 355.175 116.086Z" fill="#F9F2F2"/>
<path d="M379 177.15C366.029 169.854 350.19 168.875 334.98 170.076C328.061 170.629 321.051 171.629 314.104 172.55C310.662 172.97 307.157 173.47 303.634 173.827C300.399 174.149 296.358 173.841 293.354 174.863C293.756 178.161 305.041 179.987 307.969 180.721C313.457 182.162 319.1 183.075 324.788 183.764C336.433 184.963 348.235 184.47 359.908 182.318C366.39 181.163 372.802 179.435 379 177.15Z" fill="#F9F2F2"/>
</g>
</svg>
