<svg width="14" height="23" viewBox="0 0 14 23" fill="none" xmlns="http://www.w3.org/2000/svg">
<path d="M0.611703 22.5018C1.21885 23.0813 2.19771 23.0813 2.80485 22.5018L13.1015 12.6731C13.5848 12.2119 13.5848 11.4667 13.1015 11.0055L2.80485 1.17685C2.19771 0.597301 1.21885 0.597301 0.611704 1.17685C0.00456005 1.75639 0.00456004 2.69076 0.611704 3.27031L9.58256 11.8452L0.599313 20.4201C0.00455994 20.9879 0.0045599 21.9341 0.611703 22.5018Z" fill="white"/>
<path d="M0.611703 22.5018C1.21885 23.0813 2.19771 23.0813 2.80485 22.5018L13.1015 12.6731C13.5848 12.2119 13.5848 11.4667 13.1015 11.0055L2.80485 1.17685C2.19771 0.597301 1.21885 0.597301 0.611704 1.17685C0.00456005 1.75639 0.00456004 2.69076 0.611704 3.27031L9.58256 11.8452L0.599313 20.4201C0.00455994 20.9879 0.0045599 21.9341 0.611703 22.5018Z" fill="white"/>
</svg>
