<svg width="161" height="125" viewBox="0 0 161 125" fill="none" xmlns="http://www.w3.org/2000/svg">
<g opacity="0.52">
<path d="M28.9865 23.8239C29.8105 20.5286 30.6345 17.2333 31.1076 13.8773C31.8752 8.43635 31.6467 2.84004 30.4923 -2.6008C30.2219 -3.94377 28.4166 -4.13194 27.9851 -2.91035C27.1379 -0.424969 26.3065 2.1026 25.5163 4.61473C24.7354 7.02704 24.0114 9.4661 23.4583 11.9854C21.3363 21.3063 21.4658 31.1292 22.5055 40.7544C22.771 43.2067 22.7843 46.2354 23.6155 48.5714C24.7832 44.5691 25.2519 40.2036 26.1097 36.1251C27.0338 31.9736 27.9896 27.9065 28.9865 23.8239Z" fill="white"/>
<path d="M34.6754 26.1156C32.7032 33.8392 31.8632 41.9559 33.1916 49.9798C33.5421 52.1595 34.0728 54.3195 34.6035 56.4796C35.1724 58.8661 35.7571 61.2947 36.3671 63.6658C36.8649 62.3711 36.9231 60.9046 37.0952 59.4916C37.5732 55.0263 39.1199 50.7852 40.3885 46.5523C42.9508 38.029 44.577 29.1352 45.125 20.1171C45.2926 17.6945 45.3781 15.3028 45.2106 12.8618C45.1102 10.9734 45.0989 7.07716 43.8419 5.47905C42.0846 3.2985 40.8645 8.28362 40.4264 9.3632C39.3738 11.9258 38.3371 14.5306 37.3984 17.1466C36.3654 20.1353 35.4555 23.0776 34.6754 26.1156Z" fill="white"/>
<path d="M67.8119 4.02758C73.6821 1.4358 79.6979 -1.01809 86.0187 -2.28647C93.3887 -3.75665 101.001 -3.58437 108.598 -3.45429C97.0862 0.343046 86.713 6.79437 75.5664 11.5621C71.7687 13.1823 67.8507 14.6069 63.6911 15.0147C61.4311 15.2382 59.1423 15.1355 56.8404 14.7488C54.6777 14.3579 52.8212 13.6592 54.8575 11.5936C58.3335 8.12011 63.4046 6.02133 67.8119 4.02758Z" fill="white"/>
<path d="M51.7498 64.6736C54.0735 54.8916 56.3654 45.0253 56.8045 34.8443C56.9669 30.7865 56.8511 26.7369 56.7194 22.6452C56.6203 19.2635 56.4735 15.7553 54.9554 12.7144C53.379 16.0035 52.7957 19.6899 52.0417 23.2959C50.3635 31.0535 47.6259 38.487 46.7476 46.3773C46.3071 50.4434 46.3883 54.6504 46.9531 58.772C47.489 62.5673 48.2478 67.579 50.2531 70.9183C50.9461 69.0206 51.2593 66.7359 51.7498 64.6736Z" fill="white"/>
<path d="M63.0822 53.6721C63.5734 57.099 64.2448 60.5063 64.9572 63.8982C66.1182 69.4811 67.4023 75.0176 68.7845 80.5655C68.8703 80.9184 69.3856 80.9174 69.423 80.5181C69.5069 76.875 70.359 73.2802 71.0309 69.705C73.2534 57.409 72.8007 44.4813 69.7248 32.0581C69.0225 29.1921 68.1401 26.3456 66.6985 23.7575C66.0742 22.5957 65.3548 21.1807 64.6012 22.6678C64.0399 23.7937 63.9285 25.6173 63.693 26.8616C62.6537 32.4528 62.1932 38.2118 62.289 43.9542C62.3817 47.1939 62.6134 50.4294 63.0822 53.6721Z" fill="white"/>
<path d="M93.7055 16.784C103.755 16.9551 113.898 18.2468 123.874 17.7232C116.532 21.0129 108.568 22.8989 100.553 24.2744C90.202 26.0463 79.4773 26.9477 69.0267 24.7123C67.55 24.4006 63.61 23.522 66.1653 21.8392C67.9783 20.6762 70.2851 19.9535 72.3454 19.3236C76.6555 17.9442 81.2194 17.2399 85.8027 16.9617C88.3726 16.8143 91.0311 16.7781 93.7055 16.784Z" fill="white"/>
<path d="M98.2592 28.0258C109.78 26.8733 121.44 25.7166 133.079 27.1204C129.151 28.6449 125.265 30.1539 121.322 31.6361C118.832 32.6202 116.285 33.5774 113.716 34.3505C106.723 36.4494 99.2476 37.1406 91.8305 36.3652C88.0809 35.993 84.3686 35.2215 80.7097 34.0928C79.3815 33.6772 77.3354 33.0979 78.9236 31.586C80.1392 30.4549 82.7343 30.2499 84.2923 29.9051C88.8749 29.0011 93.5591 28.4924 98.2592 28.0258Z" fill="white"/>
<path d="M143.195 37.5715C133.586 40.317 123.976 43.0624 114.039 44.4381C109.042 45.1126 103.959 45.4341 98.9036 44.8304C96.3142 44.5517 93.7529 43.9735 91.2766 43.1227C90.739 42.9395 88.4148 42.3686 88.4738 41.5278C88.5551 40.8712 91.223 40.7351 91.8298 40.6033C102.591 38.677 113.502 37.2724 124.506 36.9885C130.78 36.845 136.986 37.0163 143.195 37.5715Z" fill="white"/>
<path d="M145.752 57.4622C136.873 57.9106 127.978 58.3168 119.056 57.5292C114.595 57.1354 110.089 56.3732 105.829 54.8927C103.663 54.1179 101.515 53.1435 99.5093 51.9232C99.0949 51.6937 97.1432 50.7419 97.3889 50.0236C97.5999 49.4627 99.9176 49.8916 100.49 49.9173C110.233 50.3961 119.971 51.3586 129.599 53.2771C135.066 54.3521 140.464 55.742 145.752 57.4622Z" fill="white"/>
<path d="M76.7768 37.5943C76.3525 39.5836 75.9031 41.6305 75.4789 43.6198C74.9696 45.8819 74.5173 48.1707 74.1631 50.4708C72.5905 61.752 75.1279 73.3664 77.8578 84.6196C79.3093 80.1253 79.5624 75.3111 80.1413 70.6152C80.8791 64.2223 82.1799 57.9549 82.5668 51.5013C82.8301 47.2129 82.6695 42.7949 81.7221 38.5283C81.4199 37.1009 81.0332 33.8274 79.3634 33.2512C77.3837 32.5989 77.0785 36.277 76.7768 37.5943Z" fill="white"/>
<path d="M87.7905 43.9504C83.8794 60.7335 83.6113 78.6031 87.0791 95.9351C88.7488 88.9031 89.8238 81.6611 90.5227 74.4161C91.2028 67.3707 91.5479 60.3068 91.0267 53.1834C90.8527 50.6003 90.5648 47.9637 90.1537 45.3735C90.0549 44.7365 89.9631 42.1225 89.3937 41.855C88.41 41.358 87.9288 43.3206 87.7905 43.9504Z" fill="white"/>
<path d="M97.0465 52.6069C98.2857 67.5022 102.781 82.3293 110.034 95.6382C109.511 89.3823 108.472 83.1274 107.146 76.9806C105.842 71.018 104.26 65.0637 102.021 59.3564C101.187 57.2622 100.271 55.1989 99.2727 53.1665C99.0413 52.6756 98.2894 50.5506 97.7835 50.4518C96.8855 50.3078 97.0205 52.0388 97.0465 52.6069Z" fill="white"/>
<path d="M110.511 63.4848C107.801 60.266 104.744 57.3703 101.835 54.3707C98.7391 51.2486 95.7004 48.1533 92.6206 45.0734C86.477 38.9558 80.2987 32.9956 73.5491 27.6355C60.5687 17.2981 47.3325 7.15314 33.7115 -2.26936C25.8016 -7.72302 17.6171 -12.7846 9.18987 -17.3696C8.13332 -17.9356 7.41141 -16.364 8.42689 -15.7827C23.0199 -7.64047 36.777 2.01974 50.1775 12.1029C63.5211 22.1594 76.8488 32.1737 88.7974 44.0065C92.1525 47.32 95.5076 50.6334 98.8627 53.9469C102.363 57.3983 105.804 61.0647 109.611 64.2084C110.137 64.7332 111.011 64.0673 110.511 63.4848Z" fill="white"/>
<path d="M127.571 96.0286C127.395 89.4495 124.32 83.1412 120.583 77.5637C118.863 74.9839 116.97 72.5656 115.142 70.0743C114.208 68.8363 113.274 67.5984 112.381 66.345C111.561 65.1606 110.778 63.5768 109.759 62.6116C108.628 63.47 110.42 68.2377 110.757 69.5076C111.44 71.9476 112.287 74.3258 113.339 76.6268C115.435 81.3287 118.204 85.8257 121.477 89.7957C123.307 92.0452 125.352 94.1177 127.571 96.0286Z" fill="white"/>
<path d="M145.061 73.7079C138.797 75.0031 132.143 73.2665 126.023 70.7034C123.24 69.5346 120.475 68.1661 117.726 66.8398C116.36 66.1977 114.978 65.5135 113.57 64.8869C112.276 64.3138 110.572 63.895 109.461 63.0605C110.041 61.735 114.923 62.5002 116.223 62.5897C118.666 62.7305 121.107 63.1131 123.539 63.5956C128.491 64.6716 133.295 66.4773 137.837 68.9592C140.365 70.3205 142.792 71.9123 145.061 73.7079Z" fill="white"/>
</g>
</svg>
