<svg width="133" height="140" viewBox="0 0 133 140" fill="none" xmlns="http://www.w3.org/2000/svg">
<g opacity="0.52">
<path d="M18.4942 102.693C16.5177 100.293 14.5413 97.8925 12.3321 95.7259C8.75058 92.2128 4.52093 89.3714 -0.0912898 87.3161C-1.22193 86.7978 -2.32828 88.0656 -1.6632 89.051C-0.293564 91.0324 1.11554 93.0244 2.53534 94.977C3.8869 96.8688 5.28864 98.7318 6.84089 100.508C12.5434 107.139 19.8219 112.332 27.4435 116.728C29.3856 117.848 31.6156 119.469 33.7758 120.097C31.4648 117.056 28.5122 114.349 25.9791 111.501C23.428 108.564 20.9557 105.648 18.4942 102.693Z" fill="white"/>
<path d="M23.2245 99.6104C27.8351 105.267 33.3414 110.276 39.9427 113.591C41.7303 114.499 43.6002 115.26 45.4701 116.021C47.5267 116.876 49.6227 117.74 51.69 118.555C51.0068 117.48 49.9618 116.646 49.0171 115.754C45.9963 112.986 43.7133 109.529 41.2872 106.286C36.4062 99.7514 30.7513 93.7272 24.4268 88.4536C22.7387 87.0215 21.0293 85.6683 19.148 84.4804C17.7083 83.5393 14.8428 81.4491 12.9957 81.5416C10.4529 81.6998 13.457 85.3106 14.0144 86.2244C15.3306 88.4031 16.6862 90.5926 18.1026 92.7138C19.7419 95.1072 21.4133 97.3822 23.2245 99.6104Z" fill="white"/>
<path d="M14.1029 50.7416C16.0878 44.6697 19.0307 38.815 23.3237 33.9196C22.3393 37.551 21.3155 41.1716 20.3312 44.803C19.5715 47.6055 18.7724 50.3972 18.3392 53.2458C17.9415 55.8074 17.8414 58.3649 17.6517 60.9406C17.4306 64.1009 17.1808 67.211 16.7911 70.368C16.487 73.2092 16.0826 76.108 15.0861 78.8463C14.7718 79.6932 14.0657 82.2983 13.1157 82.6764C11.6246 83.3315 11.6244 80.8315 11.5119 79.996C10.602 73.8173 10.6174 67.5081 11.5439 61.2764C12.1302 57.7066 12.9533 54.2011 14.1029 50.7416Z" fill="white"/>
<path d="M24.7905 62.5788C26.0369 56.7304 27.4625 50.8459 29.9217 45.3686C32.7957 38.9868 37.0049 33.306 41.1748 27.6145C37.7876 38.3909 36.9586 49.7336 34.4793 60.7561C33.6314 64.5092 32.5755 68.2483 30.6438 71.6229C29.5957 73.4574 28.2927 75.138 26.7743 76.6755C25.3275 78.1053 23.819 79.137 23.3953 76.4799C22.7104 71.9723 23.8899 66.9956 24.7905 62.5788Z" fill="white"/>
<path d="M60.6819 107.434C54.7492 100.402 48.7376 93.3493 41.5012 87.5319C38.6102 85.2229 35.5761 83.1293 32.5026 81.025C29.9676 79.2786 27.3142 77.5001 24.2682 77.0134C25.8367 79.9808 28.2292 82.409 30.4713 84.9234C35.2645 90.3751 39.2517 96.4558 44.5713 101.372C47.3191 103.897 50.4503 106.101 53.778 107.893C56.8508 109.531 60.9359 111.655 64.4621 111.933C63.4411 110.385 61.9324 108.917 60.6819 107.434Z" fill="white"/>
<path d="M58.6831 92.9096C61.4616 94.383 64.3223 95.7093 67.1938 96.9961C71.9137 99.123 76.6657 101.131 81.4786 103.072C81.7837 103.197 82.0593 102.805 81.7863 102.562C79.1576 100.536 76.9764 97.953 74.713 95.5175C66.8809 87.2082 57.1504 80.5877 46.3833 76.2285C43.9033 75.2172 41.3409 74.3532 38.6683 74.0524C37.4809 73.9 36.0566 73.6835 36.7438 75.0561C37.269 76.0883 38.5476 77.1552 39.3344 78.0041C42.8804 81.8042 46.86 85.2557 51.1258 88.2764C53.553 89.9512 56.0519 91.5184 58.6831 92.9096Z" fill="white"/>
<path d="M48.038 49.8133C53.5537 42.2833 59.9417 35.2863 64.908 27.4379C63.3842 34.7788 60.497 41.835 57.2077 48.655C52.9566 57.46 47.8659 66.0797 40.6202 72.8019C39.5995 73.7539 36.8415 76.269 36.977 73.4244C37.0959 71.4228 37.8027 69.284 38.4454 67.382C39.7448 63.3699 41.6758 59.5291 43.9298 55.9029C45.2 53.8744 46.5993 51.8385 48.038 49.8133Z" fill="white"/>
<path d="M58.7282 52.4145C64.0617 43.0554 69.4667 33.5887 76.739 25.5179C75.7513 29.3178 74.7743 33.0783 73.7472 36.8676C73.134 39.286 72.4707 41.7332 71.6601 44.0982C69.4498 50.5327 65.9477 56.5747 61.4005 61.7826C59.1162 64.4261 56.559 66.826 53.7682 68.9932C52.7508 69.7767 51.2283 71.0165 50.9705 68.9975C50.7924 67.4662 52.0338 65.3875 52.6163 64.02C54.4108 60.0574 56.5498 56.2306 58.7282 52.4145Z" fill="white"/>
<path d="M89.8359 23.4745C86.6967 32.2419 83.5575 41.0093 79.2374 49.2872C77.0523 53.4405 74.5621 57.4687 71.4076 60.9779C69.8143 62.7917 68.0162 64.4229 66.0636 65.8427C65.6408 66.1518 63.9752 67.607 63.3898 67.1094C62.9516 66.694 64.2826 64.5972 64.5114 64.066C68.8694 54.8663 73.6905 45.8345 79.3839 37.3357C82.644 32.4992 86.0981 27.8849 89.8359 23.4745Z" fill="white"/>
<path d="M105.807 32.253C101.373 39.229 96.9007 46.1943 91.5374 52.5369C88.8558 55.7082 85.8799 58.7149 82.5084 61.1484C80.7779 62.3742 78.9109 63.4782 76.9395 64.3421C76.5488 64.5328 74.8035 65.5003 74.4081 64.9271C74.1097 64.4648 75.6676 62.938 75.9933 62.5179C81.5705 55.3859 87.4997 48.5187 94.0717 42.2496C97.7929 38.6821 101.708 35.3368 105.807 32.253Z" fill="white"/>
<path d="M54.2297 73.8643C55.4621 75.2576 56.7233 76.7012 57.9557 78.0945C59.3427 79.6993 60.7799 81.2752 62.2779 82.783C69.7138 90.0527 79.5986 94.3846 89.3214 98.376C86.8016 94.8541 83.4042 92.0688 80.2683 89.1002C75.9723 85.0968 72.0703 80.7341 67.5415 76.9642C64.5354 74.4545 61.207 72.1964 57.5675 70.6167C56.3579 70.0769 53.7481 68.6068 52.4296 69.5629C50.8891 70.7131 53.4248 72.9258 54.2297 73.8643Z" fill="white"/>
<path d="M64.8047 68.934C75.0241 80.9411 87.9949 90.7704 102.575 97.4767C98.3095 92.4223 93.5712 87.7058 88.6289 83.273C83.8231 78.9619 78.824 74.8951 73.3165 71.4531C71.3275 70.1936 69.2381 68.9917 67.1166 67.9081C66.5961 67.6399 64.6285 66.3015 64.1268 66.5892C63.2344 67.0677 64.4166 68.4898 64.8047 68.934Z" fill="white"/>
<path d="M76.1207 66.5781C87.717 73.662 101.01 78.2397 114.667 79.908C109.795 76.9349 104.648 74.3532 99.4255 72.0478C94.3503 69.8247 89.132 67.8169 83.7425 66.4408C81.7582 65.9453 79.7525 65.5287 77.7255 65.1911C77.2411 65.1022 75.2782 64.5278 74.9344 64.8583C74.3471 65.4618 75.6899 66.2918 76.1207 66.5781Z" fill="white"/>
<path d="M91.3236 62.2245C87.5077 62.546 83.7428 63.3051 79.9811 63.8955C76.0295 64.5616 72.1281 65.1989 68.2159 65.8757C60.4311 67.24 52.7433 68.7153 45.1893 70.9472C30.6407 75.2236 16.0961 79.7978 1.87542 85.0529C-6.36949 88.1145 -14.4739 91.5954 -22.3588 95.5172C-23.3408 96.0137 -22.5746 97.4078 -21.6033 96.9508C-7.80087 90.2688 6.66736 85.0384 21.2547 80.3063C35.7919 75.6031 50.2897 70.8891 65.3824 68.2007C69.6136 67.441 73.8448 66.6812 78.0761 65.9214C82.4866 65.1255 87.023 64.4908 91.3719 63.2968C92.0389 63.181 92.0193 62.1588 91.3236 62.2245Z" fill="white"/>
<path d="M124.359 66.8148C119.436 63.4042 113.157 62.3378 107.06 62.1679C104.244 62.0826 101.453 62.216 98.645 62.2598C97.2355 62.3015 95.8259 62.3431 94.4271 62.3453C93.1179 62.3294 91.5357 62.07 90.2807 62.323C90.3043 63.6429 94.7645 64.8519 95.8771 65.2806C98.034 66.0771 100.234 66.7158 102.487 67.1571C107.062 68.1005 111.847 68.4231 116.516 68.0787C119.149 67.9024 121.766 67.468 124.359 66.8148Z" fill="white"/>
<path d="M117.357 41.528C114.948 46.9764 110.105 51.0872 104.942 54.3484C102.591 55.8298 100.104 57.1895 97.6564 58.5599C96.4523 59.2504 95.2087 59.9302 93.9939 60.6602C92.8795 61.3327 91.658 62.3998 90.4499 62.7927C89.7881 61.6387 92.9681 58.3483 93.7306 57.411C95.1447 55.6333 96.7347 53.9881 98.3929 52.4038C101.838 49.2277 105.74 46.5567 109.998 44.4482C112.353 43.2645 114.823 42.2815 117.357 41.528Z" fill="white"/>
</g>
</svg>
