<svg width="224" height="122" viewBox="0 0 224 122" fill="none" xmlns="http://www.w3.org/2000/svg">
<g opacity="0.86">
<path d="M56.9837 13.6747C56.6459 10.1094 56.3082 6.54417 55.5976 3.05155C54.4462 -2.61119 52.243 -8.05105 49.1676 -12.9876C48.4231 -14.2115 46.5494 -13.7154 46.5485 -12.3461C46.5773 -9.57181 46.6369 -6.76187 46.7321 -3.9827C46.8016 -1.30563 46.9374 1.37634 47.2726 4.07305C48.4371 14.0787 52.0326 23.7295 56.4695 32.8413C57.6005 35.1626 58.6825 38.1483 60.3388 40.141C60.0956 35.7477 59.0244 31.2599 58.4441 26.9085C57.9044 22.4599 57.4262 18.0827 56.9837 13.6747Z" fill="#F9F2F2"/>
<path d="M63.4886 13.7874C64.2395 22.1593 66.2624 30.4916 70.4234 37.913C71.5433 39.9329 72.8367 41.8654 74.1301 43.7979C75.5416 45.9396 76.9839 48.1169 78.4312 50.2278C78.4727 48.7613 78.0135 47.2912 77.6872 45.8309C76.5902 41.241 76.6422 36.4687 76.4186 31.8097C75.9764 22.4252 74.4662 13.0287 71.8329 3.91653C71.146 1.46103 70.3877 -0.932942 69.3587 -3.28011C68.5919 -5.10692 67.2059 -8.95004 65.3836 -10.0532C62.8551 -11.5426 63.3925 -6.15905 63.335 -4.92753C63.1854 -1.99944 63.0667 0.964314 63.05 3.90222C63.0703 7.24364 63.1977 10.4928 63.4886 13.7874Z" fill="#F9F2F2"/>
<path d="M94.1827 45.4143C93.0574 34.8772 91.8706 24.2688 88.7179 14.0495C87.4487 9.98122 85.904 6.02617 84.3285 2.03546C83.036 -1.26635 81.6513 -4.67519 79.0587 -7.10449C78.6411 -3.26103 79.3579 0.599447 79.8753 4.44519C80.9325 12.7395 80.8148 21.114 82.7196 29.2372C83.7132 33.4187 85.2789 37.5423 87.2985 41.3988C89.1741 44.9441 91.702 49.6064 94.8877 52.1463C94.9119 50.0105 94.4193 47.6362 94.1827 45.4143Z" fill="#F9F2F2"/>
<path d="M101.649 30.2668C103.35 33.4651 105.224 36.5762 107.134 39.6564C110.266 44.7307 113.505 49.7127 116.847 54.6688C117.057 54.985 117.572 54.7893 117.469 54.3808C116.268 50.7517 115.852 46.8801 115.263 43.0959C113.15 30.1145 108.135 17.5198 100.673 6.41434C98.9584 3.84955 97.0707 1.37214 94.7143 -0.638913C93.6795 -1.55035 92.4601 -2.67582 92.2303 -0.922632C92.0657 0.401177 92.5976 2.24403 92.8008 3.56161C93.7333 9.47537 95.3042 15.3361 97.4263 20.9704C98.6621 24.1344 100.036 27.2418 101.649 30.2668Z" fill="#F9F2F2"/>
<path d="M119.289 -17.7259C129.409 -21.3535 140.019 -23.9096 149.821 -28.1953C143.631 -22.1731 136.324 -17.3023 128.786 -12.9161C119.05 -7.25623 108.631 -2.31467 97.3807 -0.574142C95.7925 -0.324091 91.5383 0.296777 93.5026 -2.33024C94.9072 -4.16362 96.9614 -5.7486 98.8017 -7.14901C102.63 -10.1393 106.95 -12.5589 111.44 -14.5651C113.961 -15.6814 116.609 -16.7215 119.289 -17.7259Z" fill="#F9F2F2"/>
<path d="M127.814 -8.34597C138.941 -13.8364 150.205 -19.3834 162.351 -22.3937C158.957 -19.4047 155.599 -16.4465 152.175 -13.4932C150.029 -11.5809 147.818 -9.67357 145.519 -7.93967C139.259 -3.22529 132.019 0.281153 124.321 2.3175C120.436 3.36644 116.447 4.00695 112.386 4.27469C110.91 4.36602 108.657 4.56698 109.714 2.47408C110.531 0.897943 113.057 -0.284834 114.495 -1.21397C118.763 -3.83773 123.273 -6.10969 127.814 -8.34597Z" fill="#F9F2F2"/>
<path d="M176.166 -15.8956C167.515 -9.5543 158.863 -3.21303 149.401 1.89934C144.637 4.45308 139.662 6.69067 134.388 8.00438C131.697 8.70738 128.929 9.10406 126.15 9.19933C125.547 9.22159 123.019 9.53579 122.782 8.68326C122.631 8.00417 125.254 6.86198 125.815 6.50263C135.908 0.535087 146.335 -4.97362 157.251 -9.41086C163.481 -11.923 169.754 -14.0981 176.166 -15.8956Z" fill="#F9F2F2"/>
<path d="M185.742 2.78046C177.012 6.57753 168.25 10.3389 159.041 12.9317C154.436 14.228 149.657 15.1775 144.87 15.3248C142.428 15.3782 139.934 15.2273 137.496 14.78C137 14.7099 134.71 14.5074 134.703 13.7052C134.716 13.0716 137.188 12.6197 137.769 12.4288C147.692 9.22085 157.78 6.49263 168.095 4.74981C173.948 3.74602 179.842 3.07931 185.742 2.78046Z" fill="#F9F2F2"/>
<path d="M109.682 9.21891C109.96 11.3435 110.232 13.5346 110.509 15.6592C110.798 18.0853 111.152 20.5163 111.609 22.9214C114.015 34.6553 120.654 45.1655 127.357 55.2463C127.224 50.26 125.779 45.4106 124.701 40.5549C123.185 33.9633 122.275 27.2831 120.386 20.7642C119.136 16.4302 117.417 12.1283 114.963 8.27305C114.157 6.97772 112.614 3.89125 110.739 3.95313C108.527 4.05689 109.52 7.80413 109.682 9.21891Z" fill="#F9F2F2"/>
<path d="M122.952 11.3346C124.958 29.3849 130.995 47.1317 140.582 62.9364C139.772 55.3618 138.293 47.8045 136.436 40.3863C134.631 33.1723 132.484 26.0666 129.449 19.2293C128.364 16.7444 127.145 14.2496 125.82 11.8471C125.496 11.2554 124.482 8.70894 123.817 8.65985C122.657 8.54074 122.868 10.6605 122.952 11.3346Z" fill="#F9F2F2"/>
<path d="M135.271 16.3862C141.767 30.6267 151.498 43.5698 163.455 53.9719C160.724 47.9921 157.477 42.2079 153.981 36.6391C150.572 31.2438 146.887 25.9617 142.632 21.1718C141.058 19.419 139.413 17.7277 137.697 16.0979C137.292 15.7006 135.789 13.8862 135.248 13.9798C134.298 14.1768 135.044 15.8351 135.271 16.3862Z" fill="#F9F2F2"/>
<path d="M152.588 22.0409C148.739 19.8862 144.657 18.1818 140.687 16.3187C136.486 14.4052 132.352 12.4966 128.182 10.6187C119.873 6.89873 111.586 3.34728 102.937 0.604187C86.2957 -4.70004 69.4658 -9.71757 52.5056 -13.8763C42.663 -16.2735 32.6838 -18.1798 22.6298 -19.5238C21.3724 -19.6835 21.2042 -17.8589 22.4259 -17.6685C39.9074 -15.1411 57.0878 -10.7991 74.0604 -5.90459C90.9665 -1.01502 107.842 3.83888 123.978 11.0095C128.506 13.014 133.034 15.0185 137.562 17.023C142.284 19.1086 147.022 21.4292 151.942 23.0953C152.654 23.4151 153.294 22.427 152.588 22.0409Z" fill="#F9F2F2"/>
<path d="M181.15 47.7312C178.652 41.3011 173.349 36.2333 167.64 32.1376C165.008 30.2398 162.259 28.5672 159.551 26.7973C158.179 25.9278 156.807 25.0582 155.471 24.1579C154.232 23.2982 152.889 22.03 151.528 21.4619C150.699 22.7366 154.176 26.7676 154.961 27.8944C156.505 30.0458 158.192 32.0742 160.058 33.9488C163.815 37.8001 168.173 41.1948 172.851 43.8784C175.477 45.4083 178.255 46.6824 181.15 47.7312Z" fill="#F9F2F2"/>
<path d="M190.783 19.0838C184.97 22.729 177.696 23.5276 170.665 23.3087C167.467 23.206 164.216 22.899 160.996 22.6278C159.402 22.51 157.777 22.3565 156.147 22.2695C154.649 22.1922 152.795 22.4227 151.389 22.0182C151.502 20.4901 156.659 19.4016 157.991 18.999C160.487 18.2149 163.066 17.6706 165.67 17.2284C171.007 16.4203 176.454 16.3885 181.877 17.1232C184.887 17.5126 187.878 18.1678 190.783 19.0838Z" fill="#F9F2F2"/>
</g>
</svg>
