<svg width="152" height="101" viewBox="0 0 152 101" fill="none" xmlns="http://www.w3.org/2000/svg">
<path d="M128.315 -7.2284C126.831 -10.4875 125.346 -13.7465 124.221 -17.1284C122.396 -22.6113 121.594 -28.4254 121.799 -34.2379C121.835 -35.6701 123.706 -36.174 124.39 -34.9875C125.748 -32.5682 127.097 -30.1026 128.4 -27.6459C129.674 -25.2905 130.893 -22.8979 131.947 -20.3931C135.925 -11.1388 137.62 -0.980307 138.316 9.1304C138.492 11.7066 139.043 14.8342 138.6 17.3873C136.621 13.4576 135.312 9.0332 133.646 4.97179C131.897 0.846341 130.129 -3.18659 128.315 -7.2284Z" fill="#F9F2F2"/>
<path d="M122.733 -3.88796C126.255 3.74379 128.655 11.9754 128.748 20.4832C128.784 22.7925 128.626 25.1125 128.468 27.4326C128.312 29.9928 128.147 32.5993 127.945 35.1506C127.178 33.9 126.843 32.3967 126.398 30.9682C125.061 26.4423 122.637 22.3313 120.508 18.181C116.213 9.82531 112.838 0.92678 110.578 -8.28512C109.95 -10.7562 109.414 -13.2095 109.136 -15.7572C108.89 -17.7231 108.175 -21.7456 109.205 -23.6103C110.655 -26.1619 112.872 -21.2271 113.536 -20.1882C115.126 -17.7245 116.706 -15.2144 118.185 -12.6759C119.833 -9.76916 121.343 -6.88907 122.733 -3.88796Z" fill="#F9F2F2"/>
<path d="M111.893 38.8298C107.615 29.1345 103.356 19.3465 100.994 8.91595C100.066 4.75652 99.4338 0.557885 98.8102 -3.68701C98.2846 -7.19359 97.7856 -10.8389 98.8221 -14.2373C101.1 -11.1137 102.403 -7.40976 103.872 -3.818C107.09 3.89922 111.367 11.1002 113.765 19.0916C114.988 23.2119 115.687 27.567 115.859 31.917C116 35.9254 116.133 41.2272 114.637 45.0171C113.552 43.1777 112.795 40.8739 111.893 38.8298Z" fill="#F9F2F2"/>
<path d="M97.8671 29.4211C97.9871 33.0417 97.9132 36.6729 97.793 40.2953C97.6075 46.2554 97.2832 52.1889 96.8575 58.1509C96.8327 58.5299 96.2883 58.6172 96.1743 58.2116C95.4067 54.4667 93.8367 50.9034 92.4607 47.3294C87.8215 35.0223 85.89 21.6044 86.8229 8.2571C87.0304 5.17914 87.4318 2.09047 88.472 -0.827551C88.9147 -2.13354 89.4107 -3.71708 90.4839 -2.3118C91.2865 -1.24627 91.7441 0.616394 92.2248 1.85991C94.3645 7.45128 95.9243 13.315 96.8935 19.2571C97.3995 22.616 97.7578 25.9945 97.8671 29.4211Z" fill="#F9F2F2"/>
<path d="M58.6511 -3.38993C48.0691 -1.48927 37.5978 1.58381 26.9641 2.75503C35.3319 4.88995 44.0943 5.46982 52.8156 5.51418C64.0776 5.56687 75.5725 4.657 86.193 0.557318C87.6945 -0.0176717 91.6919 -1.60021 88.6795 -2.89832C86.5479 -3.78743 83.977 -4.13735 81.6836 -4.43397C76.8744 -5.11789 71.9231 -5.06165 67.0306 -4.56242C64.289 -4.27361 61.4745 -3.8549 58.6511 -3.38993Z" fill="#F9F2F2"/>
<path d="M55.9362 8.99178C43.5535 9.77908 31.0232 10.586 18.9934 14.0313C23.4254 14.9305 27.8112 15.8209 32.2522 16.6739C35.0651 17.2622 37.9332 17.8131 40.7906 18.1701C48.5674 19.1363 56.5912 18.567 64.2802 16.4944C68.171 15.467 71.9478 14.0339 75.6017 12.2415C76.9271 11.5847 78.98 10.636 77.0209 9.34834C75.5262 8.38971 72.7472 8.62339 71.0374 8.5348C66.0291 8.38823 60.9871 8.66687 55.9362 8.99178Z" fill="#F9F2F2"/>
<path d="M10.2578 26.5511C20.9187 27.7354 31.5796 28.9198 42.3309 28.6346C47.7341 28.4733 53.1621 27.933 58.3889 26.4427C61.0717 25.7109 63.669 24.6749 66.1257 23.372C66.6594 23.0908 69.0077 22.1029 68.7886 21.2454C68.5803 20.5818 65.7373 20.8991 65.0719 20.8672C53.3474 20.7257 41.5624 21.1481 29.888 22.743C23.2342 23.6714 16.7122 24.9129 10.2578 26.5511Z" fill="#F9F2F2"/>
<path d="M11.2676 47.5145C20.7288 46.4539 30.199 45.347 39.4749 43.0036C44.1128 41.8319 48.7294 40.2724 52.9526 38.0137C55.0962 36.8426 57.1828 35.4686 59.0737 33.8652C59.4686 33.5573 61.3524 32.2403 60.9591 31.5412C60.6316 30.9987 58.2637 31.8389 57.6642 31.9636C47.4631 34.1293 37.3581 36.7931 27.547 40.4247C21.9733 42.4719 16.5315 44.8322 11.2676 47.5145Z" fill="#F9F2F2"/>
<path d="M80.4103 15.1795C81.2291 17.1595 82.0853 19.1947 82.9042 21.1747C83.8636 23.4215 84.7679 25.7058 85.5708 28.0185C89.3344 39.3899 88.8194 51.8102 88.0339 63.8908C85.6631 59.5021 84.4985 54.5777 83.0118 49.8313C81.0409 43.361 78.4989 37.1168 76.8874 30.5236C75.81 26.1436 75.1561 21.5571 75.3615 16.9918C75.4145 15.4671 75.2127 12.0227 76.8689 11.1416C78.8382 10.1289 79.846 13.872 80.4103 15.1795Z" fill="#F9F2F2"/>
<path d="M69.9615 23.6291C77.2204 40.2767 80.8343 58.6705 80.4025 77.1505C77.3284 70.1805 74.8431 62.8919 72.7546 55.5356C70.723 48.3822 69.0419 41.1521 68.2646 33.7119C67.9669 31.0166 67.7795 28.2465 67.7308 25.5031C67.7164 24.8288 67.3262 22.1157 67.8777 21.7419C68.824 21.0603 69.698 23.0029 69.9615 23.6291Z" fill="#F9F2F2"/>
<path d="M61.8024 34.1492C63.27 49.7324 61.2862 65.8038 56.1068 80.7818C55.4934 74.2364 55.4243 67.6038 55.6791 61.0334C55.9446 54.6569 56.5054 48.2412 57.8063 41.9676C58.2969 39.6635 58.8799 37.3772 59.5555 35.1087C59.7084 34.5624 60.1064 32.2406 60.6223 32.0519C61.5439 31.7492 61.7239 33.5586 61.8024 34.1492Z" fill="#F9F2F2"/>
<path d="M49.6087 47.684C51.871 43.8975 54.5603 40.3849 57.0734 36.7905C59.7609 33.0377 62.3932 29.3223 65.0718 25.6157C70.42 18.2489 75.8342 11.0386 81.9636 4.34951C93.7458 -8.54472 105.834 -21.2842 118.463 -33.3442C125.801 -40.329 133.501 -46.9562 141.547 -53.1333C142.557 -53.8986 143.613 -52.4008 142.649 -51.6266C128.754 -40.721 116.025 -28.3923 103.752 -15.6884C91.5338 -3.02178 79.3245 9.59856 68.9108 23.8589C65.985 27.8537 63.0591 31.8485 60.1333 35.8433C57.0794 40.0054 54.1288 44.3792 50.6941 48.2762C50.237 48.9079 49.189 48.3709 49.6087 47.684Z" fill="#F9F2F2"/>
<path d="M37.656 84.1929C36.6155 77.3736 38.6867 70.3367 41.5942 63.94C42.9297 60.9828 44.4787 58.1625 45.9441 55.2782C46.6999 53.8405 47.4557 52.4028 48.1653 50.9562C48.8108 49.5932 49.3424 47.8247 50.2388 46.6538C51.5929 47.3456 50.5888 52.5729 50.4699 53.9411C50.2036 56.5761 49.7523 59.1755 49.0697 61.7305C47.7329 66.9419 45.6471 72.0574 42.9296 76.7158C41.4161 79.351 39.6428 81.8404 37.656 84.1929Z" fill="#F9F2F2"/>
<path d="M15.0234 64.1611C21.8803 64.4229 28.5835 61.4895 34.5695 57.7947C37.2912 56.111 39.9559 54.2245 42.6118 52.3843C43.9353 51.4873 45.2676 50.5441 46.6374 49.656C47.8968 48.8427 49.6189 48.1182 50.6363 47.0665C49.7767 45.7981 44.7635 47.4254 43.4078 47.7406C40.8531 48.3051 38.3465 49.1187 35.8683 50.0338C30.8391 51.9937 26.1019 54.6812 21.7668 58.0216C19.3511 59.86 17.085 61.919 15.0234 64.1611Z" fill="#F9F2F2"/>
</svg>
