<svg width="135" height="126" viewBox="0 0 135 126" fill="none" xmlns="http://www.w3.org/2000/svg">
<mask id="path-1-outside-1" maskUnits="userSpaceOnUse" x="0.483887" y="0.516479" width="134" height="126" fill="black">
<rect fill="white" x="0.483887" y="0.516479" width="134" height="126"/>
<path d="M97.4565 108.08L104.572 111.618L102.026 117.273C101.597 118.224 102.08 119.35 103.071 119.685L117.865 124.736C118.736 125.031 119.674 124.616 120.036 123.772L133.302 92.2414C133.65 91.3972 133.261 90.4324 132.417 90.084L118.24 84.2148C117.543 83.92 116.739 84.2416 116.431 84.9384L115.681 86.6268L104.237 80.4628C102.656 79.766 101.101 79.3506 99.5067 79.1898C97.0679 78.9486 92.8603 78.5198 88.3713 78.0642C83.5205 77.5684 77.5441 78.6672 73.2963 81.3874C67.2261 77.622 61.8795 74.7812 57.4307 74.1514C56.8947 73.066 55.7423 70.4262 55.4207 67.0494C59.0387 68.242 64.5863 71.3508 71.3935 68.4028C78.2811 65.361 80.7735 56.6242 80.8673 56.3026C68.3651 50.0716 59.1727 57.1736 55.7155 61.7296C56.0639 60.0814 56.6937 58.393 57.7121 56.6912C62.6969 48.41 59.8561 40.2092 58.3955 37.0602C67.7353 36.0552 74.9311 27.8142 74.2477 18.059C73.6045 9.16139 66.2077 1.95219 57.3101 1.53679C47.0993 1.05439 38.6439 9.22839 38.6439 19.332C38.6439 28.7924 46.0541 36.5242 55.3671 37.1004C55.4073 37.1674 57.9801 41.9378 57.5513 47.8606C54.5363 43.7066 45.7593 36.3366 33.6457 42.3666C33.7261 42.6614 36.0711 50.9158 42.5165 53.7566C46.2953 55.5254 52.2583 55.5656 56.3185 53.0062C50.0473 61.9708 52.7273 70.5736 54.2281 74.138C45.7325 75.7192 37.2235 87.538 34.5569 91.7322C33.6189 91.3838 32.7211 90.9148 31.9037 90.3252C29.6793 88.7038 24.3595 85.26 20.2457 83.7726C19.7365 83.585 19.2005 83.3438 18.5573 83.0222C15.1403 81.2668 6.72513 77.823 2.23613 83.5582C1.09713 85.0054 1.27133 87.1092 2.62473 88.342C4.01833 89.615 7.12713 91.8662 13.4251 95.1492L24.0513 102.238C25.9005 103.471 27.8703 104.556 29.8937 105.467L39.9169 109.246C42.5031 110.224 47.6755 112.596 50.1545 113.856C52.4191 115.048 54.6167 116.201 57.8461 116.201C59.8159 116.201 62.1609 115.772 65.1491 114.66C70.3483 112.73 84.7399 109.326 92.6191 107.531C94.2405 107.129 95.9557 107.343 97.4565 108.08ZM77.3431 57.8034C76.5257 59.8134 74.3951 63.9272 70.1875 65.763C67.2529 67.0494 63.7689 67.0092 59.8025 65.7094C61.6919 65.1868 63.9565 64.423 66.1407 63.3376C66.8509 62.9892 67.1457 62.1182 66.7973 61.408C66.4489 60.6978 65.5779 60.403 64.8677 60.7514C62.5361 61.9038 60.0437 62.681 58.1409 63.1634C61.0487 59.3846 67.4673 53.5422 77.3431 57.8034ZM56.4525 34.273C48.2115 34.273 41.5115 27.573 41.5115 19.332C41.5115 11.091 48.2115 4.39099 56.4525 4.39099C64.6935 4.39099 71.3935 11.091 71.3935 19.332C71.3935 27.573 64.6935 34.273 56.4525 34.273ZM47.2601 49.281C49.2433 50.1386 51.1729 50.7684 52.8211 51.2106C49.3505 52.2692 46.2953 52.2558 43.6957 51.1168C39.8901 49.4418 37.9203 45.7434 37.1431 43.8674C46.0541 40.0752 51.8965 45.2074 54.6301 48.6914C52.9149 48.276 50.6905 47.6194 48.4125 46.6278C47.6889 46.3062 46.8313 46.6412 46.5231 47.3782C46.2015 48.1152 46.5365 48.9594 47.2601 49.281ZM42.9453 96.65C40.6271 101.863 43.9905 104.328 46.8715 104.127L66.1273 102.787C67.6415 102.68 69.1289 102.305 70.5225 101.688L81.5641 96.449C82.6361 95.9398 81.9393 94.3318 80.8405 94.7606L69.3969 99.129C68.2847 99.6114 67.1055 99.9062 65.9129 100L46.6973 101.434C45.5315 101.487 44.6337 100.348 45.0089 99.2496C46.7241 94.1174 52.3119 92.6166 53.9601 92.2414C54.6837 92.0806 55.3939 91.8796 56.1443 91.6116L66.9313 87.7524C67.6147 87.5112 68.2847 87.2164 68.9145 86.868L75.6547 83.2768C79.4737 81.24 83.7617 80.3958 88.0631 80.8514C92.5655 81.3204 96.7731 81.7358 99.2119 81.977C100.512 82.111 101.798 82.446 103.004 82.9686L114.542 89.1862L105.724 109.058L99.0243 105.601C96.9607 104.543 94.5889 104.248 92.3243 104.77C90.1401 105.28 87.5941 105.869 86.4551 106.124C79.5809 107.665 70.1607 109.769 64.1709 111.993C57.4441 114.485 54.8043 113.092 51.4543 111.323C48.8815 110.01 43.5617 107.571 40.8951 106.566L30.9523 102.814C29.1433 102.01 27.3209 100.992 25.6057 99.8526L14.8321 92.6702C8.80213 89.5346 5.77373 87.3638 4.50073 86.2114C4.21933 85.9568 4.19253 85.528 4.43373 85.2198C7.73013 81.0122 15.1001 84.3354 17.2843 85.4476C18.0347 85.8362 18.6779 86.1176 19.2943 86.3454C22.8453 87.6318 27.8033 90.754 30.2689 92.5362C31.7831 93.635 33.4849 94.4122 35.3207 94.8276L42.9453 96.65ZM117.851 121.762L105.068 117.393L118.414 87.3236L130.273 92.2414L117.851 121.762Z"/>
</mask>
<path d="M97.4565 108.08L104.572 111.618L102.026 117.273C101.597 118.224 102.08 119.35 103.071 119.685L117.865 124.736C118.736 125.031 119.674 124.616 120.036 123.772L133.302 92.2414C133.65 91.3972 133.261 90.4324 132.417 90.084L118.24 84.2148C117.543 83.92 116.739 84.2416 116.431 84.9384L115.681 86.6268L104.237 80.4628C102.656 79.766 101.101 79.3506 99.5067 79.1898C97.0679 78.9486 92.8603 78.5198 88.3713 78.0642C83.5205 77.5684 77.5441 78.6672 73.2963 81.3874C67.2261 77.622 61.8795 74.7812 57.4307 74.1514C56.8947 73.066 55.7423 70.4262 55.4207 67.0494C59.0387 68.242 64.5863 71.3508 71.3935 68.4028C78.2811 65.361 80.7735 56.6242 80.8673 56.3026C68.3651 50.0716 59.1727 57.1736 55.7155 61.7296C56.0639 60.0814 56.6937 58.393 57.7121 56.6912C62.6969 48.41 59.8561 40.2092 58.3955 37.0602C67.7353 36.0552 74.9311 27.8142 74.2477 18.059C73.6045 9.16139 66.2077 1.95219 57.3101 1.53679C47.0993 1.05439 38.6439 9.22839 38.6439 19.332C38.6439 28.7924 46.0541 36.5242 55.3671 37.1004C55.4073 37.1674 57.9801 41.9378 57.5513 47.8606C54.5363 43.7066 45.7593 36.3366 33.6457 42.3666C33.7261 42.6614 36.0711 50.9158 42.5165 53.7566C46.2953 55.5254 52.2583 55.5656 56.3185 53.0062C50.0473 61.9708 52.7273 70.5736 54.2281 74.138C45.7325 75.7192 37.2235 87.538 34.5569 91.7322C33.6189 91.3838 32.7211 90.9148 31.9037 90.3252C29.6793 88.7038 24.3595 85.26 20.2457 83.7726C19.7365 83.585 19.2005 83.3438 18.5573 83.0222C15.1403 81.2668 6.72513 77.823 2.23613 83.5582C1.09713 85.0054 1.27133 87.1092 2.62473 88.342C4.01833 89.615 7.12713 91.8662 13.4251 95.1492L24.0513 102.238C25.9005 103.471 27.8703 104.556 29.8937 105.467L39.9169 109.246C42.5031 110.224 47.6755 112.596 50.1545 113.856C52.4191 115.048 54.6167 116.201 57.8461 116.201C59.8159 116.201 62.1609 115.772 65.1491 114.66C70.3483 112.73 84.7399 109.326 92.6191 107.531C94.2405 107.129 95.9557 107.343 97.4565 108.08ZM77.3431 57.8034C76.5257 59.8134 74.3951 63.9272 70.1875 65.763C67.2529 67.0494 63.7689 67.0092 59.8025 65.7094C61.6919 65.1868 63.9565 64.423 66.1407 63.3376C66.8509 62.9892 67.1457 62.1182 66.7973 61.408C66.4489 60.6978 65.5779 60.403 64.8677 60.7514C62.5361 61.9038 60.0437 62.681 58.1409 63.1634C61.0487 59.3846 67.4673 53.5422 77.3431 57.8034ZM56.4525 34.273C48.2115 34.273 41.5115 27.573 41.5115 19.332C41.5115 11.091 48.2115 4.39099 56.4525 4.39099C64.6935 4.39099 71.3935 11.091 71.3935 19.332C71.3935 27.573 64.6935 34.273 56.4525 34.273ZM47.2601 49.281C49.2433 50.1386 51.1729 50.7684 52.8211 51.2106C49.3505 52.2692 46.2953 52.2558 43.6957 51.1168C39.8901 49.4418 37.9203 45.7434 37.1431 43.8674C46.0541 40.0752 51.8965 45.2074 54.6301 48.6914C52.9149 48.276 50.6905 47.6194 48.4125 46.6278C47.6889 46.3062 46.8313 46.6412 46.5231 47.3782C46.2015 48.1152 46.5365 48.9594 47.2601 49.281ZM42.9453 96.65C40.6271 101.863 43.9905 104.328 46.8715 104.127L66.1273 102.787C67.6415 102.68 69.1289 102.305 70.5225 101.688L81.5641 96.449C82.6361 95.9398 81.9393 94.3318 80.8405 94.7606L69.3969 99.129C68.2847 99.6114 67.1055 99.9062 65.9129 100L46.6973 101.434C45.5315 101.487 44.6337 100.348 45.0089 99.2496C46.7241 94.1174 52.3119 92.6166 53.9601 92.2414C54.6837 92.0806 55.3939 91.8796 56.1443 91.6116L66.9313 87.7524C67.6147 87.5112 68.2847 87.2164 68.9145 86.868L75.6547 83.2768C79.4737 81.24 83.7617 80.3958 88.0631 80.8514C92.5655 81.3204 96.7731 81.7358 99.2119 81.977C100.512 82.111 101.798 82.446 103.004 82.9686L114.542 89.1862L105.724 109.058L99.0243 105.601C96.9607 104.543 94.5889 104.248 92.3243 104.77C90.1401 105.28 87.5941 105.869 86.4551 106.124C79.5809 107.665 70.1607 109.769 64.1709 111.993C57.4441 114.485 54.8043 113.092 51.4543 111.323C48.8815 110.01 43.5617 107.571 40.8951 106.566L30.9523 102.814C29.1433 102.01 27.3209 100.992 25.6057 99.8526L14.8321 92.6702C8.80213 89.5346 5.77373 87.3638 4.50073 86.2114C4.21933 85.9568 4.19253 85.528 4.43373 85.2198C7.73013 81.0122 15.1001 84.3354 17.2843 85.4476C18.0347 85.8362 18.6779 86.1176 19.2943 86.3454C22.8453 87.6318 27.8033 90.754 30.2689 92.5362C31.7831 93.635 33.4849 94.4122 35.3207 94.8276L42.9453 96.65ZM117.851 121.762L105.068 117.393L118.414 87.3236L130.273 92.2414L117.851 121.762Z" fill="#12CAD6"/>
<path d="M97.4565 108.08L104.572 111.618L102.026 117.273C101.597 118.224 102.08 119.35 103.071 119.685L117.865 124.736C118.736 125.031 119.674 124.616 120.036 123.772L133.302 92.2414C133.65 91.3972 133.261 90.4324 132.417 90.084L118.24 84.2148C117.543 83.92 116.739 84.2416 116.431 84.9384L115.681 86.6268L104.237 80.4628C102.656 79.766 101.101 79.3506 99.5067 79.1898C97.0679 78.9486 92.8603 78.5198 88.3713 78.0642C83.5205 77.5684 77.5441 78.6672 73.2963 81.3874C67.2261 77.622 61.8795 74.7812 57.4307 74.1514C56.8947 73.066 55.7423 70.4262 55.4207 67.0494C59.0387 68.242 64.5863 71.3508 71.3935 68.4028C78.2811 65.361 80.7735 56.6242 80.8673 56.3026C68.3651 50.0716 59.1727 57.1736 55.7155 61.7296C56.0639 60.0814 56.6937 58.393 57.7121 56.6912C62.6969 48.41 59.8561 40.2092 58.3955 37.0602C67.7353 36.0552 74.9311 27.8142 74.2477 18.059C73.6045 9.16139 66.2077 1.95219 57.3101 1.53679C47.0993 1.05439 38.6439 9.22839 38.6439 19.332C38.6439 28.7924 46.0541 36.5242 55.3671 37.1004C55.4073 37.1674 57.9801 41.9378 57.5513 47.8606C54.5363 43.7066 45.7593 36.3366 33.6457 42.3666C33.7261 42.6614 36.0711 50.9158 42.5165 53.7566C46.2953 55.5254 52.2583 55.5656 56.3185 53.0062C50.0473 61.9708 52.7273 70.5736 54.2281 74.138C45.7325 75.7192 37.2235 87.538 34.5569 91.7322C33.6189 91.3838 32.7211 90.9148 31.9037 90.3252C29.6793 88.7038 24.3595 85.26 20.2457 83.7726C19.7365 83.585 19.2005 83.3438 18.5573 83.0222C15.1403 81.2668 6.72513 77.823 2.23613 83.5582C1.09713 85.0054 1.27133 87.1092 2.62473 88.342C4.01833 89.615 7.12713 91.8662 13.4251 95.1492L24.0513 102.238C25.9005 103.471 27.8703 104.556 29.8937 105.467L39.9169 109.246C42.5031 110.224 47.6755 112.596 50.1545 113.856C52.4191 115.048 54.6167 116.201 57.8461 116.201C59.8159 116.201 62.1609 115.772 65.1491 114.66C70.3483 112.73 84.7399 109.326 92.6191 107.531C94.2405 107.129 95.9557 107.343 97.4565 108.08ZM77.3431 57.8034C76.5257 59.8134 74.3951 63.9272 70.1875 65.763C67.2529 67.0494 63.7689 67.0092 59.8025 65.7094C61.6919 65.1868 63.9565 64.423 66.1407 63.3376C66.8509 62.9892 67.1457 62.1182 66.7973 61.408C66.4489 60.6978 65.5779 60.403 64.8677 60.7514C62.5361 61.9038 60.0437 62.681 58.1409 63.1634C61.0487 59.3846 67.4673 53.5422 77.3431 57.8034ZM56.4525 34.273C48.2115 34.273 41.5115 27.573 41.5115 19.332C41.5115 11.091 48.2115 4.39099 56.4525 4.39099C64.6935 4.39099 71.3935 11.091 71.3935 19.332C71.3935 27.573 64.6935 34.273 56.4525 34.273ZM47.2601 49.281C49.2433 50.1386 51.1729 50.7684 52.8211 51.2106C49.3505 52.2692 46.2953 52.2558 43.6957 51.1168C39.8901 49.4418 37.9203 45.7434 37.1431 43.8674C46.0541 40.0752 51.8965 45.2074 54.6301 48.6914C52.9149 48.276 50.6905 47.6194 48.4125 46.6278C47.6889 46.3062 46.8313 46.6412 46.5231 47.3782C46.2015 48.1152 46.5365 48.9594 47.2601 49.281ZM42.9453 96.65C40.6271 101.863 43.9905 104.328 46.8715 104.127L66.1273 102.787C67.6415 102.68 69.1289 102.305 70.5225 101.688L81.5641 96.449C82.6361 95.9398 81.9393 94.3318 80.8405 94.7606L69.3969 99.129C68.2847 99.6114 67.1055 99.9062 65.9129 100L46.6973 101.434C45.5315 101.487 44.6337 100.348 45.0089 99.2496C46.7241 94.1174 52.3119 92.6166 53.9601 92.2414C54.6837 92.0806 55.3939 91.8796 56.1443 91.6116L66.9313 87.7524C67.6147 87.5112 68.2847 87.2164 68.9145 86.868L75.6547 83.2768C79.4737 81.24 83.7617 80.3958 88.0631 80.8514C92.5655 81.3204 96.7731 81.7358 99.2119 81.977C100.512 82.111 101.798 82.446 103.004 82.9686L114.542 89.1862L105.724 109.058L99.0243 105.601C96.9607 104.543 94.5889 104.248 92.3243 104.77C90.1401 105.28 87.5941 105.869 86.4551 106.124C79.5809 107.665 70.1607 109.769 64.1709 111.993C57.4441 114.485 54.8043 113.092 51.4543 111.323C48.8815 110.01 43.5617 107.571 40.8951 106.566L30.9523 102.814C29.1433 102.01 27.3209 100.992 25.6057 99.8526L14.8321 92.6702C8.80213 89.5346 5.77373 87.3638 4.50073 86.2114C4.21933 85.9568 4.19253 85.528 4.43373 85.2198C7.73013 81.0122 15.1001 84.3354 17.2843 85.4476C18.0347 85.8362 18.6779 86.1176 19.2943 86.3454C22.8453 87.6318 27.8033 90.754 30.2689 92.5362C31.7831 93.635 33.4849 94.4122 35.3207 94.8276L42.9453 96.65ZM117.851 121.762L105.068 117.393L118.414 87.3236L130.273 92.2414L117.851 121.762Z" stroke="#12CAD6" stroke-width="2" mask="url(#path-1-outside-1)"/>
<path d="M54.6933 8.96407V10.2797C52.274 10.9712 50.5186 12.9839 50.5186 15.3552C50.5186 18.2954 53.219 20.6889 56.5372 20.6889C57.8003 20.6889 58.868 21.4421 58.868 22.3346C58.868 23.2271 57.8003 23.9803 56.5372 23.9803C55.3663 23.9803 54.5172 23.3552 54.2821 22.7384C53.9188 21.7851 52.8521 21.3084 51.9024 21.6708C50.951 22.0331 50.4734 23.098 50.8357 24.0504C51.4562 25.6805 52.9092 26.9058 54.6942 27.4119V28.7258C54.6942 29.7436 55.5203 30.5697 56.5382 30.5697C57.556 30.5697 58.3821 29.7436 58.3821 28.7258V27.4101C60.8014 26.7186 62.5568 24.7059 62.5568 22.3355C62.5568 19.3953 59.8563 17.0019 56.5382 17.0019C55.275 17.0019 54.2074 16.2486 54.2074 15.3561C54.2074 14.4637 55.275 13.7104 56.5382 13.7104C57.8003 13.7104 58.6633 14.4148 58.833 15.0777C59.0865 16.0633 60.0859 16.6598 61.0789 16.4044C62.0645 16.1509 62.6592 15.1459 62.4056 14.1594C61.9216 12.2767 60.3662 10.844 58.3821 10.2843V8.96407C58.3821 7.94621 57.556 7.12012 56.5382 7.12012C55.5203 7.12012 54.6933 7.94621 54.6933 8.96407Z" fill="#FE674C"/>
<path d="M12.1355 19.3948L14.4036 25.5243L20.5331 27.7924L14.4036 30.0606L12.1355 36.1901L9.86732 30.0606L3.73779 27.7924L9.86732 25.5243L12.1355 19.3948Z" fill="#FE674C"/>
<path d="M95.1062 3.1806L97.3743 9.31013L103.504 11.5783L97.3743 13.8464L95.1062 19.9759L92.838 13.8464L86.7085 11.5783L92.838 9.31013L95.1062 3.1806Z" fill="#FE674C"/>
<path d="M26.5956 51.3385L29.9877 60.5054L39.1546 63.8975L29.9877 67.2896L26.5956 76.4565L23.2035 67.2896L14.0366 63.8975L23.2035 60.5054L26.5956 51.3385Z" fill="#2591F4"/>
</svg>
