<svg width="162" height="126" viewBox="0 0 162 126" fill="none" xmlns="http://www.w3.org/2000/svg">
<path d="M150.231 124.987H70.5186V120.542C71.1058 120.542 71.669 120.308 72.0843 119.891C72.4995 119.475 72.7328 118.909 72.7328 118.32V102.764H84.7117L86.926 104.986H116.109L118.324 102.764H161.302V113.875C161.302 116.822 160.135 119.649 158.059 121.732C155.983 123.816 153.167 124.987 150.231 124.987ZM76.7848 120.542H150.231C151.992 120.542 153.682 119.84 154.928 118.59C156.173 117.339 156.873 115.644 156.873 113.875V107.209H120.139L117.925 109.431H85.1103L82.8961 107.209H77.1612V118.32C77.1624 119.077 77.0351 119.828 76.7848 120.542Z" fill="#12CAD6"/>
<path d="M70.5185 124.987H35.0909C33.3292 124.987 31.6396 124.284 30.3938 123.034C29.1481 121.784 28.4482 120.088 28.4482 118.32V49.4293C28.4482 47.6612 29.1481 45.9655 30.3938 44.7152C31.6396 43.4649 33.3292 42.7625 35.0909 42.7625H70.5185C72.2803 42.7625 73.9699 43.4649 75.2156 44.7152C76.4614 45.9655 77.1612 47.6612 77.1612 49.4293V118.32C77.1612 120.088 76.4614 121.784 75.2156 123.034C73.9699 124.284 72.2803 124.987 70.5185 124.987ZM35.0909 47.2071C34.5037 47.2071 33.9405 47.4412 33.5252 47.858C33.11 48.2747 32.8767 48.84 32.8767 49.4293V118.32C32.8767 118.909 33.11 119.475 33.5252 119.891C33.9405 120.308 34.5037 120.542 35.0909 120.542H70.5185C71.1058 120.542 71.669 120.308 72.0842 119.891C72.4995 119.475 72.7328 118.909 72.7328 118.32V49.4293C72.7328 48.84 72.4995 48.2747 72.0842 47.858C71.669 47.4412 71.1058 47.2071 70.5185 47.2071H35.0909Z" fill="#12CAD6"/>
<path d="M62.5696 58.3184H43.0401L40.8259 56.0961H30.6626V51.6516H42.6416L44.8558 53.8738H60.7539L62.9681 51.6516H74.9471V56.0961H64.7838L62.5696 58.3184Z" fill="#12CAD6"/>
<path d="M74.9471 109.431H30.6626V113.875H74.9471V109.431Z" fill="#12CAD6"/>
<path d="M117.925 109.431H85.1105L82.8962 107.209H72.7329V93.8749H141.374V31.6511H61.6618V47.207H48.3765V24.9843C48.3765 23.2161 49.0763 21.5204 50.3221 20.2701C51.5678 19.0198 53.2574 18.3174 55.0191 18.3174H148.017C149.778 18.3174 151.468 19.0198 152.714 20.2701C153.959 21.5204 154.659 23.2161 154.659 24.9843V107.209H120.14L117.925 109.431ZM86.9261 104.986H116.11L118.324 102.764H150.231V24.9843C150.231 24.3949 149.998 23.8296 149.582 23.4129C149.167 22.9961 148.604 22.762 148.017 22.762H55.0191C54.4319 22.762 53.8687 22.9961 53.4534 23.4129C53.0382 23.8296 52.8049 24.3949 52.8049 24.9843V42.7625H57.2334V27.2066H145.802V98.3194H77.1614V102.764H84.7119L86.9261 104.986Z" fill="#12CAD6"/>
<path d="M145.802 97.3194C145.802 97.8717 145.355 98.3194 144.802 98.3194H73.733C73.1807 98.3194 72.733 97.8717 72.733 97.3194V49.4293C72.733 48.8399 72.4997 48.2747 72.0844 47.8579C71.6692 47.4412 71.106 47.207 70.5188 47.207H58.2334C57.6811 47.207 57.2334 46.7593 57.2334 46.207V28.2065C57.2334 27.6543 57.6811 27.2065 58.2334 27.2065H144.802C145.355 27.2065 145.802 27.6543 145.802 28.2065V97.3194ZM77.1614 92.8749C77.1614 93.4272 77.6091 93.8749 78.1614 93.8749H140.374C140.926 93.8749 141.374 93.4272 141.374 92.8749V32.6511C141.374 32.0988 140.926 31.6511 140.374 31.6511H62.6618C62.1096 31.6511 61.6618 32.0988 61.6618 32.6511V41.7625C61.6618 42.3148 62.1096 42.7625 62.6618 42.7625H70.5188C72.2805 42.7625 73.9701 43.4649 75.2158 44.7152C76.4616 45.9654 77.1614 47.6612 77.1614 49.4293V92.8749Z" fill="#12CAD6"/>
<path d="M60.7501 67.2123L39.5193 88.5203C38.6546 89.3882 38.6546 90.7953 39.5193 91.6631C40.384 92.531 41.786 92.531 42.6507 91.6631L63.8815 70.3551C64.7462 69.4873 64.7462 68.0802 63.8815 67.2123C63.0168 66.3445 61.6148 66.3445 60.7501 67.2123Z" fill="#2591F4"/>
<path d="M60.7642 80.5309L50.6028 90.7292C49.7381 91.5971 49.7381 93.0041 50.6028 93.872C51.4675 94.7398 52.8695 94.7398 53.7342 93.872L63.8955 83.6737C64.7602 82.8058 64.7602 81.3988 63.8955 80.5309C63.0308 79.6631 61.6289 79.663 60.7642 80.5309Z" fill="#FE674C"/>
<path d="M113.884 47.2018L92.6536 68.5098C91.7889 69.3776 91.7889 70.7847 92.6536 71.6526C93.5183 72.5204 94.9203 72.5204 95.785 71.6526L117.016 50.3446C117.88 49.4767 117.88 48.0696 117.016 47.2018C116.151 46.3339 114.749 46.3339 113.884 47.2018Z" fill="#2591F4"/>
<path d="M113.898 60.5203L103.737 70.7187C102.872 71.5865 102.872 72.9936 103.737 73.8614C104.601 74.7293 106.003 74.7293 106.868 73.8614L117.029 63.6631C117.894 62.7953 117.894 61.3882 117.029 60.5203C116.165 59.6525 114.763 59.6525 113.898 60.5203Z" fill="#FE674C"/>
<path d="M9.26094 50.1326L11.5291 56.2622L17.6586 58.5303L11.5291 60.7984L9.26094 66.928L6.99281 60.7984L0.863281 58.5303L6.99281 56.2622L9.26094 50.1326Z" fill="#FE674C"/>
<path d="M20.1093 14.3543L23.5013 23.5212L32.6683 26.9133L23.5013 30.3054L20.1093 39.4723L16.7172 30.3054L7.55029 26.9133L16.7172 23.5212L20.1093 14.3543Z" fill="#2591F4"/>
<path d="M46.0422 0.550293L48.3103 6.67983L54.4399 8.94796L48.3103 11.2161L46.0422 17.3456L43.7741 11.2161L37.6445 8.94796L43.7741 6.67983L46.0422 0.550293Z" fill="#FE674C"/>
</svg>
