<svg width="130" height="125" viewBox="0 0 130 125" fill="none" xmlns="http://www.w3.org/2000/svg">
<path d="M129.739 53.8458C129.761 53.7988 129.78 53.7506 129.799 53.6998C129.81 53.6764 129.819 53.6542 129.824 53.6307C129.846 53.5721 129.859 53.5096 129.873 53.4483C129.881 53.4353 129.884 53.421 129.888 53.4079C129.902 53.3323 129.915 53.2581 129.924 53.1799C129.924 53.159 129.927 53.1382 129.929 53.116C129.934 53.0613 129.936 53.004 129.936 52.9492C129.938 52.9206 129.936 52.8906 129.935 52.8632C129.934 52.8124 129.931 52.7642 129.924 52.7134C129.922 52.6847 129.919 52.6548 129.915 52.6248C129.912 52.6091 129.912 52.5935 129.91 52.5779C129.906 52.5414 129.894 52.5049 129.888 52.4697C129.882 52.445 129.879 52.4176 129.869 52.3928C129.85 52.3186 129.83 52.2443 129.804 52.1726C129.804 52.17 129.803 52.1687 129.803 52.1674C129.797 52.1557 129.791 52.1453 129.788 52.1348C129.764 52.0762 129.741 52.0163 129.712 51.9602C129.702 51.9368 129.69 51.9146 129.677 51.8912C129.653 51.8469 129.629 51.8039 129.604 51.7609C129.589 51.7374 129.577 51.7153 129.56 51.6944C129.53 51.6527 129.496 51.6123 129.467 51.5732C129.45 51.5563 129.437 51.5367 129.424 51.5211C129.333 51.4182 129.232 51.3269 129.123 51.2475L109.195 37.0884C109.045 36.9815 108.885 36.9034 108.709 36.8538L88.782 31.1152C88.7198 31.0969 88.6587 31.0839 88.5942 31.0748C88.5829 31.0722 88.5705 31.0722 88.5637 31.0709C88.5037 31.063 88.4461 31.0591 88.3872 31.0578C88.3816 31.0578 88.3759 31.0565 88.368 31.0565H66.1153C65.845 31.0565 65.5781 31.1295 65.3372 31.2715L48.3979 41.2217C48.3911 41.2256 48.3832 41.2334 48.3764 41.2373C48.2995 41.2842 48.2238 41.3351 48.1525 41.3976L48.1468 41.4028C48.1468 41.4028 48.1457 41.4028 48.1457 41.4041L32.5422 54.7905C32.5422 54.7905 32.5411 54.7918 32.54 54.7931C32.454 54.8674 32.3748 54.9508 32.3036 55.0407C32.3002 55.0433 32.2957 55.0485 32.2934 55.0511C32.2233 55.1423 32.1599 55.24 32.1057 55.343C32.1023 55.3469 32.1 55.3521 32.0977 55.356L20.1395 78.3146C20.1192 78.3537 20.1033 78.3928 20.0852 78.4306C20.0784 78.4502 20.0671 78.4684 20.0603 78.4892C20.0309 78.5622 20.0049 78.6365 19.9823 78.7108C19.9778 78.7264 19.9755 78.742 19.971 78.7564C19.954 78.8202 19.9405 78.8828 19.9303 78.9466C19.9258 78.9714 19.9224 78.9974 19.919 79.0248C19.911 79.0821 19.9054 79.1382 19.902 79.1955C19.9009 79.2111 19.8986 79.2255 19.8975 79.2411C19.8963 79.2528 19.8975 79.2646 19.8975 79.2737C19.8963 79.3388 19.8975 79.404 19.9009 79.4678C19.902 79.4848 19.902 79.5017 19.9031 79.52C19.9088 79.6008 19.9201 79.6815 19.9348 79.7584C19.9382 79.7793 19.945 79.7962 19.9484 79.8171C19.9586 79.8627 19.9676 79.907 19.98 79.9526C19.9846 79.9669 19.9902 79.9786 19.9936 79.993C20.0027 80.019 20.0117 80.0451 20.0208 80.0712C20.0377 80.122 20.0558 80.1702 20.0773 80.2171C20.0886 80.2432 20.1011 80.2692 20.1135 80.2953C20.1373 80.3435 20.161 80.3891 20.187 80.4347C20.2006 80.4556 20.2119 80.4764 20.2243 80.4986C20.2639 80.5624 20.308 80.6237 20.3544 80.681C20.3635 80.6927 20.3736 80.7005 20.3827 80.711C20.4223 80.7579 20.4641 80.8035 20.506 80.8465C20.5252 80.8634 20.5455 80.8804 20.5636 80.8973C20.6021 80.9312 20.6406 80.9625 20.6801 80.9924C20.6937 81.0015 20.7039 81.012 20.7163 81.0211L82.4947 124.262C82.4992 124.262 82.5014 124.264 82.5082 124.267L82.5105 124.27C82.515 124.272 82.5184 124.278 82.5229 124.281C82.5252 124.281 82.5263 124.283 82.5275 124.283C82.584 124.321 82.644 124.354 82.7005 124.383C82.705 124.386 82.7107 124.39 82.7175 124.392C82.7276 124.397 82.7412 124.401 82.7491 124.407C82.7593 124.41 82.7672 124.413 82.7729 124.421C82.7876 124.423 82.7978 124.431 82.8113 124.434C82.8396 124.448 82.869 124.457 82.8984 124.466C82.9109 124.472 82.9222 124.477 82.9324 124.482C82.9425 124.482 82.9505 124.485 82.9561 124.487C82.9912 124.498 83.0251 124.507 83.0624 124.515C83.0783 124.519 83.0941 124.521 83.1111 124.526C83.1133 124.526 83.1133 124.526 83.1156 124.526C83.1337 124.529 83.1473 124.534 83.1642 124.537C83.2253 124.545 83.2852 124.552 83.3452 124.554C83.3565 124.555 83.3678 124.555 83.3746 124.555C83.378 124.555 83.3802 124.556 83.3814 124.556C83.3836 124.556 83.3859 124.555 83.387 124.555C83.413 124.555 83.4402 124.554 83.4651 124.552C83.4764 124.549 83.4866 124.545 83.4945 124.545C83.5171 124.545 83.5386 124.545 83.5612 124.542C83.5635 124.542 83.5669 124.542 83.5691 124.539C83.5861 124.539 83.5985 124.534 83.6132 124.532C83.6381 124.529 83.6653 124.526 83.689 124.519C83.6935 124.516 83.7026 124.516 83.7082 124.516C83.7173 124.513 83.7275 124.512 83.7331 124.511C83.7422 124.507 83.749 124.504 83.7569 124.502C83.7738 124.499 83.7863 124.493 83.8032 124.487C83.8372 124.477 83.8711 124.469 83.9016 124.457C83.9129 124.453 83.9197 124.452 83.9277 124.448C83.9333 124.447 83.939 124.444 83.9446 124.44C83.9593 124.434 83.9718 124.429 83.9865 124.423C84.0114 124.408 84.0374 124.397 84.0622 124.387C84.0815 124.378 84.0973 124.367 84.1177 124.358C84.1278 124.353 84.138 124.349 84.1459 124.344C84.1505 124.34 84.155 124.339 84.1618 124.335C84.1787 124.322 84.1968 124.311 84.2161 124.3C84.2398 124.285 84.259 124.272 84.2862 124.257C84.2975 124.246 84.3099 124.238 84.3224 124.229C84.3292 124.224 84.3371 124.219 84.3461 124.214C84.3529 124.206 84.3608 124.198 84.3699 124.19C84.3936 124.173 84.4106 124.158 84.431 124.138C84.4445 124.128 84.4558 124.116 84.4694 124.107C84.4841 124.094 84.4943 124.079 84.5101 124.065C84.5135 124.061 84.5169 124.059 84.5203 124.053C84.526 124.048 84.535 124.04 84.5418 124.035C84.5508 124.026 84.5588 124.016 84.5655 124.008C84.5825 123.991 84.5938 123.977 84.6074 123.958C84.6266 123.94 84.6368 123.923 84.6538 123.904C84.6639 123.889 84.6753 123.879 84.6809 123.868C84.6832 123.866 84.6854 123.864 84.6888 123.859C84.6922 123.855 84.6956 123.851 84.699 123.845C84.7035 123.838 84.7081 123.833 84.7126 123.825C84.7216 123.812 84.7329 123.798 84.7397 123.786C84.7465 123.772 84.7556 123.764 84.7635 123.752L129.603 54.109C129.613 54.0959 129.62 54.0803 129.626 54.066C129.655 54.0191 129.682 53.9722 129.704 53.9252C129.717 53.8953 129.729 53.8705 129.739 53.8458ZM96.6572 40.7552L105.706 47.0112L94.6825 44.9263L96.6572 40.7552ZM55.6828 59.0854L63.7967 72.7962L49.5323 85.6834L40.3089 70.6787L55.6828 59.0854ZM66.2103 75.6316L79.0089 85.1883L67.028 86.5396H54.1367L66.2103 75.6316ZM77.2501 56.4766L91.1096 67.335L83.4221 83.781L68.4644 72.6085L77.2501 56.4766ZM81.807 115.335L69.5015 90.2272L82.2956 88.7847L81.807 115.335ZM38.3149 74.2647L45.2741 85.5818L35.2454 83.2259L38.3149 74.2647ZM65.7749 90.4904C65.8122 90.6729 65.8687 90.8488 65.9524 91.0182L77.0477 113.651L53.7793 90.4904H65.7749ZM85.7395 87.956L96.7341 82.9405L85.2826 112.758L85.7395 87.956ZM99.2789 77.5354L87.7844 82.7763L94.2595 68.9287L108.198 72.1394L99.2789 77.5354ZM94.9607 65.0625L93.8953 48.7768L112.482 52.2925L111.681 68.9131L94.9607 65.0625ZM115.882 52.8906L125.059 54.4009L122.297 58.4938L115.234 66.3708L115.882 52.8906ZM90.4909 49.2863L91.3743 62.7678L80.3355 54.1181L90.4909 49.2863ZM66.0565 69.605L59.1686 57.966L73.4024 56.1144L66.0565 69.605ZM41.3019 65.2111L46.9095 53.5825L52.6392 56.6617L41.3019 65.2111ZM34.7251 57.9856L42.4477 54.7058L36.3865 67.2751C36.1434 67.7807 36.114 68.3553 36.2633 68.8635L26.0615 74.6205L34.7251 57.9856ZM25.7799 79.176L34.6674 74.1618L31.9462 82.1013L25.7799 79.176ZM48.3945 90.3458L66.7453 108.616L36.7259 87.6042L48.3945 90.3458ZM101.319 80.7592L112.546 73.9702L91.1842 107.15L101.319 80.7592ZM120.324 49.633L114.861 48.7338L99.8829 38.3797L107.625 40.6093L120.324 49.633ZM66.527 35.0035H87.9201L93.6951 38.7654L90.8087 44.8638L76.3125 51.7609L56.4383 54.3474L48.416 50.033L50.5073 44.4116L66.527 35.0035Z" fill="#12CAD6"/>
<path d="M8.55538 39.0969L10.8235 45.2265L16.953 47.4946L10.8235 49.7627L8.55538 55.8923L6.28725 49.7627L0.157715 47.4946L6.28725 45.2265L8.55538 39.0969Z" fill="#FE674C"/>
<path d="M46.0066 10.64L48.2747 16.7696L54.4042 19.0377L48.2747 21.3058L46.0066 27.4354L43.7384 21.3058L37.6089 19.0377L43.7384 16.7696L46.0066 10.64Z" fill="#FE674C"/>
<path d="M14.7162 0.640015L18.1083 9.80693L27.2752 13.199L18.1083 16.5911L14.7162 25.758L11.3241 16.5911L2.15723 13.199L11.3241 9.80693L14.7162 0.640015Z" fill="#2591F4"/>
</svg>
