<svg width="301" height="317" viewBox="0 0 301 317" fill="none" xmlns="http://www.w3.org/2000/svg">
<path d="M209.002 184.493C215.302 172.942 221.774 161.483 227.797 149.79C234.17 137.433 236.027 124.158 234.39 110.4C234.055 107.579 233.342 104.804 232.805 102.006C232.006 103.23 231.842 104.367 231.674 105.504C230.207 115.542 229.482 125.753 224.454 134.939C220.741 141.717 217.431 148.734 213.496 155.382C209.3 162.473 206.635 169.985 205.607 178.112C204.958 183.249 204.433 188.401 203.812 193.907C200.355 191.314 197.146 188.712 193.728 186.421C191.727 185.078 191.105 183.558 192.162 181.529C194.986 176.124 197.535 170.522 200.904 165.472C207.229 155.992 212.286 146.067 212.795 134.515C213.316 122.654 213.281 110.771 213.462 98.8976C213.473 98.1081 213.238 97.3099 213.116 96.5176C212.299 98.5928 212.068 100.689 211.403 102.641C205.71 119.356 199.69 135.969 194.313 152.785C192.304 159.076 191.471 165.795 190.615 172.387C190.134 176.096 190.702 179.94 190.805 184.087C188.38 182.323 186.251 180.771 184.115 179.229C179.622 175.986 179.447 175.921 181.488 170.711C185.951 159.313 190.836 148.073 195.102 136.603C197.179 131.025 199.16 125.141 199.595 119.278C200.476 107.497 196.674 96.3451 193.263 84.8894C192.961 85.4704 192.777 85.6678 192.77 85.872C192.724 87.025 192.685 88.18 192.713 89.3319C193.176 107.044 192.176 124.419 182.814 140.287C176.527 150.942 175.118 162.391 178.715 174.343C178.752 174.476 178.59 174.67 178.409 175.11C174.585 172.461 170.832 169.867 167.639 167.657C171.563 153.896 175.657 140.661 179.07 127.249C182.098 115.351 183.636 103.199 182.315 90.8463C181.625 84.3847 178.194 74.8073 175.225 71.6723C177.775 85.4002 175.824 98.6004 172.833 111.693C171.371 118.099 169.86 124.574 167.509 130.688C163.16 142.006 162.213 153.437 164.942 165.67C163.433 164.72 162.443 163.883 161.303 163.422C156.135 161.311 154.914 157.645 156.211 152.403C159.233 140.186 161.558 127.779 164.991 115.684C168.116 104.658 168.015 94.0719 163.826 83.478C162.044 78.979 160.173 74.5176 158.345 70.0369C159.423 86.6679 157.628 102.744 154.035 118.722C151.306 130.844 149.373 143.044 153.491 155.304C153.807 156.235 153.995 157.211 154.392 158.767C150.629 156.379 147.363 154.435 144.268 152.247C143.546 151.737 142.992 150.362 143.069 149.448C143.681 142.213 144.161 134.944 145.273 127.779C146.746 118.31 148.965 108.959 150.424 99.4879C150.989 95.8119 151.134 91.7155 150.093 88.2228C148.045 81.3462 145.033 74.7546 142.423 68.0455C141.656 68.6406 141.5 69.0676 141.507 69.4937C141.531 71.4539 141.411 73.4381 141.681 75.3668C143.464 87.9688 142.96 100.372 139.645 112.754C136.404 124.837 134.244 137.085 140.734 149.855C139.129 149.011 138.425 148.69 137.767 148.29C128.81 142.857 128.734 142.843 130.311 132.304C131.677 123.164 133.399 114.078 134.688 104.928C136.455 92.3851 132.37 81.1921 126.415 70.1858C125.606 85.8545 124.806 101.142 124.031 116.435C123.624 124.486 124.683 132.324 127.509 139.901C127.675 140.344 127.581 140.883 127.637 141.943C125.499 140.724 123.908 139.514 122.114 138.853C117.69 137.232 116.84 134.012 117.398 129.815C118.52 121.344 119.271 112.814 120.623 104.387C122.171 94.7636 120.582 85.8373 116.251 77.1971C113.994 72.691 112.151 67.9755 109.813 62.6579C109.889 66.1012 109.819 69.1965 110.053 72.2682C110.508 78.2364 111.463 84.1838 111.605 90.1542C111.794 98.1114 110.979 106.104 111.4 114.041C111.722 120.057 113.296 126.009 114.337 131.987C114.458 132.683 114.719 133.353 115.074 134.592C112.871 133.356 111.35 132.261 109.661 131.604C106.177 130.258 105.206 127.902 105.755 124.317C107.034 115.986 107.991 107.605 109.252 99.2713C110.211 92.9416 109.704 86.8288 107.197 80.9344C104.776 75.2479 102.257 69.6049 99.307 62.8666C99.4736 66.7689 99.1648 69.8782 99.8057 72.7788C101.877 82.1553 101.647 91.5245 100.967 101.023C100.486 107.758 100.989 114.578 101.298 121.347C101.386 123.278 102.334 125.175 102.964 127.344C97.3659 125.045 97.2012 125.031 97.6212 119.668C98.101 113.568 98.6957 107.461 99.628 101.42C100.835 93.5902 99.59 86.2723 96.1011 79.234C94.3471 75.6937 92.7361 72.0827 90.6175 67.5595C91.4118 75.8408 92.135 83.3695 92.8583 90.8982C92.6486 90.8877 92.4373 90.8747 92.2276 90.8642C89.3254 84.8727 86.4206 78.8828 83.5184 72.8914C83.1298 73.048 82.7427 73.207 82.3541 73.3636C85.618 81.9048 84.3302 90.8578 85.1446 99.6146C85.7739 106.381 87.6577 113.033 88.9984 119.733C89.0064 119.735 89.0119 119.739 89.0213 119.743C89.0283 119.749 89.0378 119.753 89.0472 119.758C89.8592 114.006 90.6671 108.254 91.4791 102.502C91.6463 102.532 91.8161 102.56 91.9833 102.59C92.8156 109.394 93.6478 116.199 94.4869 123.054C92.902 122.086 90.9753 120.915 89.0472 119.758C89.0401 119.796 89.0346 119.836 89.0314 119.876C89.0221 119.827 89.0103 119.78 89.0009 119.732C81.2814 116.059 81.6452 117.456 82.4535 108.627C82.5898 107.134 82.8303 105.646 83.1611 104.183C85.6229 93.2848 80.3847 84.6343 75.1891 75.6936C75.7211 80.8459 76.62 85.6788 76.6295 90.5141C76.6469 98.7493 76.5517 106.911 80.7062 114.406C80.7918 114.557 80.6382 114.837 80.5004 115.558C78.4671 114.262 76.5847 113.063 74.7033 111.861L74.8116 111.883C74.7789 111.774 74.7437 111.667 74.7111 111.558C74.7048 111.636 74.705 111.714 74.7027 111.793C73.6993 110.907 72.2676 110.167 71.8955 109.067C70.1164 103.831 68.5166 98.523 67.1165 93.1703C65.4861 86.9322 61.9306 82.2146 56.7231 78.5559C54.8432 77.2338 53.1755 75.6054 50.7479 73.5547C53.7806 79.3275 56.8302 84.2869 59.0485 89.5926C61.3194 95.0287 62.7778 100.803 64.747 106.908C54.1955 98.1839 41.1251 100.84 28.511 98.2088C29.2085 98.9607 29.3839 99.2362 29.6332 99.4054C41.6149 107.644 54.6777 112.646 69.3961 112.854C71.1659 112.878 72.924 113.597 74.6857 113.996C59.0553 113.421 50.1178 115.363 39.5567 122.455C45.5465 123.263 51.1932 123.821 56.865 121.863C61.442 120.281 66.0781 118.811 70.7805 117.677C73.6089 116.996 76.6168 117.045 79.5434 116.768C79.5577 116.979 79.5729 117.186 79.5872 117.398C64.8002 121.162 50.0117 124.924 35.2248 128.688C35.2883 129.035 35.3558 129.383 35.4194 129.731C39.8751 129.937 44.3335 130.158 48.79 130.343C55.6062 130.626 62.0556 129.628 68.0246 125.876C72.0126 123.37 76.3836 121.456 80.6377 119.391C81.4779 118.981 82.7553 118.694 83.519 119.039C86.1859 120.252 88.7168 121.769 92.1885 123.655C89.9678 123.906 88.7499 123.981 87.5565 124.19C81.8994 125.187 76.1137 125.758 70.6275 127.355C63.3357 129.478 56.3229 132.538 49.1106 134.951C45.2781 136.234 41.2691 137.001 36.4516 138.229C48.158 141.934 58.6839 141.513 68.9096 136.436C75.9399 132.945 83.0139 129.525 89.8885 125.747C93.8093 123.591 96.181 125.655 98.5117 127.393C93.2933 128.907 87.9507 130.213 82.7744 132.006C70.9117 136.114 59.1287 140.441 47.3266 144.726C45.5104 145.384 43.7729 146.265 41.8967 147.085C45.7788 147.09 49.2914 146.901 52.7806 147.133C62.0274 147.75 70.569 145.969 78.6788 141.231C85.6375 137.165 93.0003 133.785 100.241 130.217C101.151 129.768 102.593 129.616 103.464 130.025C106 131.207 108.369 132.741 111.685 134.644C109.185 134.884 107.694 134.889 106.269 135.189C100.989 136.304 95.3391 136.659 90.5371 138.854C75.0789 145.915 59.9315 153.667 44.7527 161.113C46.4586 160.923 48.3981 160.809 50.301 160.481C64.3073 158.076 78.2595 155.449 90.9291 148.52C97.8137 144.752 104.64 140.868 111.534 137.115C112.457 136.614 113.887 136.067 114.648 136.435C117.33 137.734 119.825 139.425 122.047 140.758C116.037 142.716 109.941 144.164 104.302 146.651C91.5236 152.285 79.0113 158.509 66.3155 164.333C60.753 166.885 55.0102 169.042 48.6989 171.649C65.1242 172.614 79.7702 170.379 93.103 160.858C102.358 154.251 112.673 149.119 122.58 143.443C123.521 142.904 125.168 142.712 126.072 143.172C128.875 144.59 131.477 146.405 134.788 148.454C133.336 148.661 132.686 148.785 132.033 148.846C121.21 149.855 111.648 153.754 102.621 159.948C93.795 166.001 84.3285 171.19 74.8459 176.192C67.166 180.243 59.0405 183.456 51.1157 187.04C54.9167 186.902 58.9494 186.91 62.5052 185.607C76.254 180.568 90.1713 175.798 103.396 169.592C114.323 164.465 124.36 157.446 134.807 151.297C135.644 150.805 136.954 149.99 137.497 150.295C141.508 152.565 145.386 155.08 150.158 158.049C147.184 158.593 145.395 158.913 143.604 159.247C132.672 161.301 121.943 163.875 112.396 170.005C105.591 174.373 98.8138 178.831 91.7149 182.685C86.3928 185.574 80.6867 187.858 74.9578 189.861C70.3158 191.487 65.3879 192.291 59.9888 193.605C70.8027 194.861 80.9376 194.826 90.5754 190.829C95.6685 188.718 100.501 185.936 105.337 183.249C118.756 175.796 132.01 168.038 145.546 160.809C150.898 157.952 154.504 159.366 158.581 164.337C158.411 164.481 158.259 164.686 158.06 164.748C156.958 165.09 155.852 165.408 154.74 165.723C141.114 169.573 128.255 175.148 115.985 182.249C103.05 189.734 90.8006 198.524 75.8602 203.703C76.9921 203.82 77.4371 203.927 77.8719 203.901C98.5514 202.818 117.011 196.138 133.228 182.961C140.725 176.874 149.038 171.781 157.074 166.374C158.177 165.631 160.15 165.036 161.155 165.526C163.734 166.789 165.995 168.701 168.758 170.607C154.408 173.199 152.254 174.549 143.013 181.114C131.36 189.4 119.381 197.248 107.296 204.894C100.939 208.914 94.0589 212.103 87.0667 215.855C87.7738 215.798 88.1055 215.825 88.4095 215.741C103.5 211.676 118.386 206.879 131.692 198.564C144.405 190.615 156.558 181.769 169.002 173.385C169.787 172.854 171.295 172.35 171.888 172.733C175.709 175.205 179.365 177.929 184.037 181.255C166.35 182.567 153.505 191.755 140.604 201.042C127.407 210.54 114.184 220.085 98.0628 225.937C99.237 226.017 99.7813 226.148 100.298 226.079C112.16 224.472 123.838 221.815 134.216 215.786C140.829 211.945 146.529 206.541 152.651 201.855C161.929 194.759 171.431 188 182.259 183.425C183.55 182.878 185.546 182.707 186.679 183.33C189.256 184.744 191.494 186.762 193.8 188.487C193.673 188.843 193.654 189.017 193.6 189.03C192.923 189.18 192.248 189.339 191.562 189.43C181.84 190.721 173.462 194.65 165.498 200.539C153.356 209.52 140.616 217.712 127.891 225.869C121.932 229.686 115.406 232.624 109.137 235.964C122.256 233.116 135.281 229.733 148.223 226.054C154.448 224.286 159.596 220.498 164.165 215.976C167.527 212.651 170.576 208.966 174.171 205.924C180.305 200.736 186.723 195.879 193.13 191.028C193.945 190.411 195.824 190.121 196.526 190.626C200.954 193.814 205.189 197.268 209.95 200.994C207.868 201.605 206.454 202.023 205.038 202.433C194.664 205.443 184.252 208.795 176.542 216.676C166.588 226.852 154.844 234.153 142.313 240.466C140.458 241.399 138.562 242.248 136.677 243.12C134.932 243.928 133.178 244.714 131.429 245.51C163.163 240.596 189.786 226.34 212.062 201.943C225.7 214.558 239.665 227.474 253.627 240.392C253.32 239.149 252.716 238.185 251.917 237.417C242.28 228.139 232.718 218.778 222.914 209.681C216.843 204.041 216.548 204.146 221.164 197.055C226.641 188.648 232.484 180.477 237.939 172.056C244.843 161.403 245.978 149.505 245.111 137.132C238.882 148.849 232.871 160.496 226.537 171.959C221.166 181.674 216.978 191.694 216.356 202.936C216.347 203.087 216.059 203.226 215.751 203.513C214.534 202.561 213.278 201.599 212.05 200.606C203.813 193.957 203.834 193.965 209.002 184.493Z" fill="#FAFAFA"/>
</svg>
