<svg width="118" height="103" viewBox="0 0 118 103" fill="none" xmlns="http://www.w3.org/2000/svg">
<path d="M75.3146 88.8374C77.6362 87.4521 79.9578 86.0667 82.4015 84.9408C86.3634 83.1148 90.6589 82.0288 95.0371 81.6984C96.1147 81.6056 96.6487 82.9678 95.8154 83.5795C94.1132 84.8 92.3757 86.0176 90.641 87.1998C88.9799 88.3522 87.2862 89.4664 85.4947 90.4657C78.8826 94.2217 71.4017 96.3392 63.8736 97.7037C61.9554 98.0509 59.6546 98.7245 57.7021 98.6052C60.4857 96.7928 63.6963 95.4423 66.6048 93.8538C69.5544 92.1973 72.4331 90.5351 75.3146 88.8374Z" fill="#F9F2F2"/>
<path d="M72.3422 84.928C66.9096 88.2069 60.9333 90.6934 54.5575 91.4717C52.8279 91.6912 51.074 91.766 49.3201 91.8409C47.3861 91.9371 45.4168 92.0305 43.4856 92.0913C44.36 91.4116 45.4601 91.0351 46.4948 90.5822C49.7792 89.2019 52.6618 87.0406 55.5984 85.0976C61.51 81.179 67.9054 77.9052 74.6289 75.4423C76.4306 74.7648 78.2267 74.1582 80.1151 73.7373C81.5696 73.389 84.5282 72.5179 86.0131 73.1352C88.0483 74.0101 84.5305 76.0853 83.8063 76.67C82.0901 78.0677 80.3385 79.4626 78.5571 80.7838C76.5134 82.2626 74.4782 83.635 72.3422 84.928Z" fill="#F9F2F2"/>
<path d="M101.791 64.4693C104.049 58.9409 105.441 53.0941 106.412 47.1426C104.539 50.5254 102.698 53.9466 100.516 57.1623C99.1803 59.161 97.7083 61.0775 96.4051 63.1145C95.0226 65.2521 93.877 67.5512 92.9059 69.8999C92.2886 71.3848 91.7721 72.9491 91.5718 74.5741C91.4081 75.7383 91.2027 78.3261 92.2043 79.1904C94.4421 77.513 96.2353 74.6945 97.7056 72.3498C99.3261 69.91 100.68 67.2349 101.791 64.4693Z" fill="#F9F2F2"/>
<path d="M94.1399 47.5953C94.2952 42.0427 93.6025 36.3872 91.5233 31.121C91.2645 34.3823 91.0411 37.6465 90.7823 40.9078C90.5826 43.4247 90.4183 45.9444 89.9378 48.4033C89.5125 50.6169 88.8446 52.7399 88.2448 54.904C87.4993 57.556 86.792 60.1753 86.1854 62.8739C85.6014 65.289 85.0826 67.7805 85.0956 70.3143C85.1046 71.0998 84.9189 73.4394 85.5857 74.0274C86.6143 75.0009 87.3475 72.9544 87.6845 72.3034C90.2407 67.5121 92.0779 62.3427 93.1463 56.9696C93.7129 53.8754 94.0668 50.7643 94.1399 47.5953Z" fill="#F9F2F2"/>
<path d="M81.9196 54.1528C82.6139 48.9997 83.1721 43.7645 82.7646 38.5596C82.2829 32.4928 80.5025 26.6082 78.7576 20.7265C78.3711 30.5414 75.7243 40.07 74.5225 49.8202C74.1163 53.1411 73.8845 56.5116 74.4765 59.8404C74.7967 61.6495 75.3706 63.4073 76.1629 65.1111C76.9282 66.7057 77.8606 67.9926 78.9865 65.9416C80.8686 62.4524 81.3621 58.0325 81.9196 54.1528Z" fill="#F9F2F2"/>
<path d="M39.3886 80.3499C46.3068 76.3328 53.2958 72.3214 60.9252 69.6806C63.9688 68.6379 67.0664 67.8136 70.1994 66.992C72.7866 66.3055 75.4802 65.6274 78.1163 66.122C75.9624 68.0914 73.2919 69.3778 70.7193 70.7789C65.1972 73.8365 60.1505 77.6454 54.3543 80.1106C51.3648 81.3716 48.1552 82.2584 44.9058 82.7497C41.91 83.1897 37.9431 83.7311 34.9749 82.9248C36.2646 81.9569 37.9301 81.1973 39.3886 80.3499Z" fill="#F9F2F2"/>
<path d="M45.2789 69.0461C42.5724 69.4378 39.8417 69.6848 37.1138 69.8964C32.6264 70.2538 28.1474 70.5048 23.6387 70.6821C23.3523 70.695 23.2414 70.2938 23.5362 70.1745C26.2821 69.2866 28.8249 67.8118 31.3918 66.4816C40.2394 61.9755 50.146 59.4084 60.2383 58.9964C62.565 58.8957 64.9159 58.9395 67.192 59.4769C68.2088 59.7003 69.4382 59.9405 68.4732 60.8628C67.7406 61.5538 66.3812 62.0523 65.4882 62.5165C61.4712 64.5878 57.2016 66.2466 52.8239 67.4688C50.3459 68.1283 47.8408 68.6787 45.2789 69.0461Z" fill="#F9F2F2"/>
<path d="M66.6301 36.887C64.3224 29.1057 61.1443 21.505 59.3796 13.624C58.4749 20.0803 58.7698 26.7031 59.4631 33.2504C60.3618 41.7048 62.0021 50.2536 65.9629 57.8808C66.5194 58.9594 68.0398 61.8268 68.7629 59.4585C69.2524 57.7851 69.3008 55.8269 69.3322 54.0815C69.4447 50.4162 68.9901 46.7058 68.2079 43.0765C67.7628 41.0435 67.2142 38.9667 66.6301 36.887Z" fill="#F9F2F2"/>
<path d="M57.114 35.8827C55.4917 26.6575 53.8423 17.3231 50.2551 8.58409C49.9496 11.9844 49.647 15.3493 49.3769 18.7524C49.1699 20.912 48.9954 23.1098 48.9656 25.2835C48.8886 31.199 49.9842 37.1718 52.1799 42.7683C53.2749 45.6019 54.6647 48.3163 56.314 50.9086C56.9172 51.8483 57.8001 53.3095 58.603 51.7323C59.1977 50.531 58.7909 48.4654 58.7149 47.1752C58.4077 43.4052 57.7785 39.6453 57.114 35.8827Z" fill="#F9F2F2"/>
<path d="M40.1338 3.07178C40.1333 11.1694 40.1328 19.267 41.2425 27.31C41.8137 31.3506 42.6713 35.3783 44.2249 39.1758C44.9975 41.1277 45.9912 42.9902 47.1734 44.725C47.4289 45.102 48.3657 46.7816 48.9909 46.5458C49.4714 46.3342 48.9965 44.2275 48.965 43.7256C48.0944 34.9168 46.7956 26.1097 44.6264 17.4832C43.3755 12.5682 41.9007 7.77805 40.1338 3.07178Z" fill="#F9F2F2"/>
<path d="M24.4888 5.57642C26.0728 12.5869 27.6923 19.6002 30.2233 26.3647C31.4888 29.747 33.0435 33.0809 35.0901 36.0614C36.1474 37.5722 37.3521 39.0234 38.7127 40.3085C38.9766 40.5792 40.1216 41.8829 40.6134 41.5295C40.9932 41.2386 40.1655 39.532 40.022 39.0926C37.5472 31.619 34.7067 24.2591 31.1646 17.2003C29.1642 13.1889 26.9399 9.30249 24.4888 5.57642Z" fill="#F9F2F2"/>
<path d="M54.5108 54.7599C53.0934 55.5393 51.6378 56.3512 50.2204 57.1306C48.6145 58.0376 46.9759 58.9064 45.3076 59.7015C37.0891 63.4727 27.7271 64.121 18.5976 64.5381C21.6929 62.3936 25.2907 61.1096 28.7281 59.5987C33.4186 57.5809 37.8919 55.1534 42.7045 53.395C45.9011 52.2217 49.2879 51.349 52.7304 51.1228C53.8789 51.0355 56.4464 50.5972 57.2454 51.7664C58.1694 53.1596 55.4449 54.2276 54.5108 54.7599Z" fill="#F9F2F2"/>
<path d="M47.3009 47.6241C35.4149 54.4575 21.915 58.7014 8.01331 59.917C12.9869 57.0298 18.2485 54.5578 23.594 52.3779C28.792 50.2577 34.0767 48.394 39.5944 47.191C41.5919 46.743 43.6547 46.3717 45.7091 46.1066C46.2138 46.0396 48.217 45.5208 48.5433 45.9034C49.1336 46.5567 47.7488 47.3743 47.3009 47.6241Z" fill="#F9F2F2"/>
<path d="M38.7276 42.3776C27.1577 44.777 14.934 44.6275 3.26444 41.9891C8.12433 40.9836 13.0951 40.3792 18.0461 40.023C22.8526 39.6909 27.713 39.5772 32.5285 40.0307C34.2981 40.2068 36.0622 40.4538 37.8206 40.7717C38.2431 40.8409 40.0184 40.9461 40.203 41.3175C40.5068 41.9837 39.1643 42.2696 38.7276 42.3776Z" fill="#F9F2F2"/>
<path d="M27.5555 34.3577C30.585 35.7396 33.4446 37.4648 36.3509 39.0509C39.3905 40.7547 42.3975 42.4202 45.4017 44.1212C51.3747 47.5203 57.2356 50.9819 62.7651 55.0236C73.4213 62.7897 83.9869 70.7982 94.0878 79.2693C99.9397 84.1928 105.554 89.4184 110.859 94.9405C111.517 95.6348 110.481 96.5515 109.82 95.8926C100.48 86.376 90.1692 77.8525 79.6149 69.7022C69.0932 61.5901 58.6069 53.4808 47.0397 46.8553C43.7986 44.9928 40.5576 43.1304 37.3165 41.2679C33.9392 39.3233 30.4117 37.4738 27.2016 35.2214C26.6896 34.9311 27.0052 34.1 27.5555 34.3577Z" fill="#F9F2F2"/>
<path d="M-0.83238 28.4297C4.19744 27.0809 9.64986 28.0486 14.6915 29.6973C17.0216 30.4529 19.2667 31.3802 21.5529 32.2394C22.6946 32.6867 23.8363 33.134 24.9808 33.5459C26.0572 33.9167 27.4285 34.1682 28.3817 34.7433C27.9754 35.8169 23.9697 35.499 22.9332 35.5238C20.934 35.5435 18.946 35.4214 16.9721 35.1221C12.9506 34.5532 8.93868 33.4144 5.21707 31.7635C3.11375 30.8475 1.0982 29.7244 -0.83238 28.4297Z" fill="#F9F2F2"/>
<path d="M12.3127 9.78198C12.6875 14.9485 15.447 19.7336 18.7179 23.9171C20.2079 25.819 21.8454 27.6612 23.4473 29.5006C24.2306 30.4189 25.0493 31.34 25.8298 32.2937C26.545 33.1709 27.232 34.4026 28.1059 35.0784C28.9859 34.3278 27.3473 30.7019 26.9979 29.711C26.3615 27.8412 25.5422 26.0282 24.6492 24.2451C22.7596 20.6349 20.3485 17.3044 17.481 14.3301C15.9004 12.6708 14.1668 11.142 12.3127 9.78198Z" fill="#F9F2F2"/>
</svg>
