<svg width="25" height="31" viewBox="0 0 25 31" fill="none" xmlns="http://www.w3.org/2000/svg">
<path fill-rule="evenodd" clip-rule="evenodd" d="M16.4386 0.320338C17.7775 1.59976 18.9677 3.02794 20.0091 4.56027C22.7316 8.59192 24.3383 13.4121 24.3383 18.6041C24.3383 25.1797 19.0123 30.5057 12.4367 30.5057C5.8611 30.5057 0.535156 25.1797 0.535156 18.6041C0.535156 14.8254 1.54679 11.2846 3.31715 8.24975C3.55518 7.81832 3.80808 7.41664 4.07587 7.01496C4.43292 6.46452 5.25115 6.65792 5.41479 7.28275C5.50406 7.61004 5.56356 7.78856 5.71233 8.0861C6.53057 10.0647 8.40506 11.4483 10.6961 11.4483C13.7608 11.4483 15.7691 8.96384 15.7691 5.89919C15.7691 4.24785 15.4716 2.40311 15.1889 1.00468C15.0402 0.290584 15.9179 -0.185478 16.4386 0.320338ZM7.21493 21.3713C7.21493 23.9599 9.35721 26.0426 12.0053 26.0426C15.9477 26.0426 19.1462 22.8441 19.1314 18.9017C19.1314 17.3099 18.9528 15.7329 18.6107 14.2155C18.4917 13.665 17.8073 13.4865 17.3908 13.8733C15.8287 15.3461 13.5823 16.2834 11.3954 16.7297C8.77701 17.2652 7.21493 18.9612 7.21493 21.3713Z" fill="url(#paint0_linear)"/>
<defs>
<linearGradient id="paint0_linear" x1="0.894188" y1="11.6108" x2="24.1622" y2="12.1971" gradientUnits="userSpaceOnUse">
<stop stop-color="#FF9900"/>
<stop offset="1" stop-color="#FFCC00"/>
</linearGradient>
</defs>
</svg>
