<svg width="101" height="83" viewBox="0 0 101 83" fill="none" xmlns="http://www.w3.org/2000/svg">
<path d="M45.6543 34.321H61.3095L63.4466 26.5423C63.7997 25.2569 65.231 24.4755 66.6435 24.7968C68.056 25.1181 68.9148 26.4206 68.5617 27.7059L66.7443 34.321H71.2766C72.7326 34.321 73.9129 35.395 73.9129 36.7199C73.9129 38.0448 72.7326 39.1188 71.2766 39.1188H65.4262L61.4718 53.5125H71.2766C72.7326 53.5125 73.9129 54.5866 73.9129 55.9115C73.9129 57.2364 72.7326 58.3104 71.2766 58.3104H60.1537L58.0166 66.0891C57.6635 67.3744 56.2322 68.1559 54.8197 67.8346C53.4072 67.5132 52.5484 66.2108 52.9016 64.9254L54.7189 58.3104H39.0636L36.9266 66.0891C36.5735 67.3744 35.1422 68.1559 33.7297 67.8346C32.3172 67.5132 31.4584 66.2108 31.8115 64.9254L33.6289 58.3104H29.0965C27.6406 58.3104 26.4603 57.2364 26.4603 55.9115C26.4603 54.5866 27.6406 53.5125 29.0965 53.5125H34.947L38.9014 39.1188H29.0965C27.6406 39.1188 26.4603 38.0448 26.4603 36.7199C26.4603 35.395 27.6406 34.321 29.0965 34.321H40.2195L42.3565 26.5423C42.7097 25.2569 44.141 24.4755 45.5535 24.7968C46.966 25.1181 47.8247 26.4206 47.4716 27.7059L45.6543 34.321ZM44.3361 39.1188L40.3818 53.5125H56.037L59.9914 39.1188H44.3361ZM33.7458 0.735718C38.3613 0.735718 42.5756 3.10602 44.6339 6.85831C45.806 8.98803 48.1946 10.3315 50.8077 10.3315H92.3656C96.732 10.3315 100.274 13.555 100.274 17.5283V75.103C100.274 79.0764 96.732 82.2999 92.3656 82.2999H8.00545C3.63906 82.2999 0.0966797 79.0764 0.0966797 75.103V7.93255C0.0966797 3.95922 3.63906 0.735718 8.00545 0.735718H33.7458ZM33.7458 5.53361H8.00545C6.55098 5.53361 5.36919 6.60902 5.36919 7.93255V75.103C5.36919 76.4266 6.55098 77.502 8.00545 77.502H92.3656C93.8201 77.502 95.0019 76.4266 95.0019 75.103V17.5283C95.0019 16.2048 93.8201 15.1294 92.3656 15.1294H50.8077C46.198 15.1294 41.9851 12.7598 39.9181 9.00399C38.7509 6.87636 36.3636 5.53361 33.7458 5.53361Z" fill="url(#paint0_linear)"/>
<path fill-rule="evenodd" clip-rule="evenodd" d="M66.6588 24.8206C65.118 24.4717 63.5317 25.4243 63.1155 26.9482L61.2052 33.9438H46.2332L47.7985 28.2117C48.2146 26.6878 47.3029 25.1695 45.7622 24.8206C44.2215 24.4717 42.6351 25.4243 42.219 26.9482L40.3087 33.9438H28.486C27.0402 33.9438 25.8682 35.1158 25.8682 36.5616C25.8682 38.0074 27.0402 39.1795 28.486 39.1795H38.879L35.0604 53.1631H28.7955C27.3497 53.1631 26.1776 54.3351 26.1776 55.7809C26.1776 57.2267 27.3497 58.3988 28.7955 58.3988H33.6307L31.9207 64.6608C31.5046 66.1848 32.4163 67.703 33.957 68.0519C35.4977 68.4008 37.0841 67.4482 37.5002 65.9243L39.5552 58.3988H54.5273L52.8173 64.6608C52.4012 66.1848 53.3128 67.703 54.8536 68.0519C56.3943 68.4008 57.9807 67.4482 58.3968 65.9243L60.4518 58.3988H72.479C73.9248 58.3988 75.0968 57.2267 75.0968 55.7809C75.0968 54.3351 73.9248 53.1631 72.479 53.1631H61.8815L65.7 39.1795H72.1695C73.6153 39.1795 74.7873 38.0074 74.7873 36.5616C74.7873 35.1158 73.6153 33.9438 72.1695 33.9438H67.1298L68.695 28.2117C69.1112 26.6878 68.1995 25.1695 66.6588 24.8206ZM55.957 53.1631L59.7755 39.1795H44.8035L40.985 53.1631H55.957Z" fill="#FE674C"/>
<defs>
<linearGradient id="paint0_linear" x1="97.5586" y1="32.5308" x2="1.36926" y2="33.235" gradientUnits="userSpaceOnUse">
<stop offset="0.4375" stop-color="#12CAD6"/>
<stop offset="1" stop-color="#12B3D6"/>
</linearGradient>
</defs>
</svg>
