<svg width="112" height="83" viewBox="0 0 112 83" fill="none" xmlns="http://www.w3.org/2000/svg">
<path d="M98.918 0.221008H13.0819C6.12164 0.221008 0.458984 5.66744 0.458984 12.362V60.9258C0.458984 67.7344 4.3418 73.0667 9.29505 73.0667H15.6065C17.0001 73.0667 18.1311 71.9789 18.1311 70.6385C18.1311 69.2982 17.0001 68.2104 15.6065 68.2104H9.29505C7.54298 68.2104 5.50816 65.027 5.50816 60.9258V12.362C5.50816 8.34574 8.90626 5.07739 13.0819 5.07739H98.918C103.094 5.07739 106.492 8.34574 106.492 12.362V60.9258C106.492 64.942 103.094 68.2104 98.918 68.2104H38.3278V65.7822C38.3278 64.4418 37.1968 63.354 35.8032 63.354C34.4097 63.354 33.2787 64.4418 33.2787 65.7822V77.9231H28.2295V65.7822C28.2295 64.4418 27.0985 63.354 25.7049 63.354C24.3113 63.354 23.1803 64.4418 23.1803 65.7822V77.9231H8.03275C6.63918 77.9231 5.50816 79.011 5.50816 80.3513C5.50816 81.6917 6.63918 82.7795 8.03275 82.7795H25.7049H35.8032H103.967C105.361 82.7795 106.492 81.6917 106.492 80.3513C106.492 79.011 105.361 77.9231 103.967 77.9231H38.3278V73.0667H98.918C105.878 73.0667 111.541 67.6203 111.541 60.9258V12.362C111.541 5.66744 105.878 0.221008 98.918 0.221008Z" fill="url(#paint0_linear)"/>
<path d="M44.5736 50.8512C44.9801 51.0916 45.4395 51.213 45.9015 51.213C46.2878 51.213 46.6741 51.128 47.03 50.9581L72.2759 38.8171C73.1318 38.4043 73.672 37.5642 73.672 36.6439C73.672 35.7236 73.1318 34.8834 72.2759 34.4706L47.03 22.3297C46.2474 21.9533 45.3158 21.9946 44.5736 22.4365C43.8314 22.8809 43.377 23.6603 43.377 24.5029V48.7848C43.377 49.6274 43.8314 50.4069 44.5736 50.8512ZM48.4261 28.4317L65.5025 36.6439L48.4261 44.856V28.4317Z" fill="#FE674C"/>
<path d="M56 63.354C71.3116 63.354 83.7705 51.3709 83.7705 36.6439C83.7705 21.9169 71.3116 9.93378 56 9.93378C40.6883 9.93378 28.2295 21.9169 28.2295 36.6439C28.2295 51.3709 40.6883 63.354 56 63.354ZM56 14.7902C68.527 14.7902 78.7213 24.5952 78.7213 36.6439C78.7213 48.6926 68.527 58.4976 56 58.4976C43.473 58.4976 33.2787 48.6926 33.2787 36.6439C33.2787 24.5952 43.473 14.7902 56 14.7902Z" fill="#FE674C"/>
<defs>
<linearGradient id="paint0_linear" x1="108.53" y1="32.4037" x2="1.87123" y2="33.2591" gradientUnits="userSpaceOnUse">
<stop offset="0.4375" stop-color="#12CAD6"/>
<stop offset="1" stop-color="#12B3D6"/>
</linearGradient>
</defs>
</svg>
