<svg width="99" height="79" viewBox="0 0 99 79" fill="none" xmlns="http://www.w3.org/2000/svg">
<path d="M11.0615 0.000488281H87.9385C94.0223 0.000488281 99 5.20928 99 11.5756V67.4254C99 73.7917 94.0223 79.0005 87.9385 79.0005H11.0615C4.97765 79.0005 0 73.7917 0 67.4254V11.5756C0 5.20928 4.97765 0.000488281 11.0615 0.000488281ZM5.25419 19.6781H93.7458V11.5756C93.7458 8.39243 90.9804 5.49866 87.9385 5.49866H11.0615C8.01955 5.49866 5.25419 8.39243 5.25419 11.5756V19.6781ZM93.7458 32.7001H5.25419V67.4254C5.25419 70.8979 8.01955 73.5023 11.0615 73.5023H87.9385C90.9804 73.5023 93.7458 70.8979 93.7458 67.4254V32.7001Z" fill="url(#paint0_linear)"/>
<path d="M17.9752 51.799C16.5925 51.799 15.4863 50.6415 15.4863 49.1946C15.4863 47.4583 16.5925 46.3008 17.9752 46.3008H41.4808C42.8634 46.3008 44.2461 47.4583 44.2461 49.1946C44.2461 50.6415 42.8634 51.799 41.4808 51.799H17.9752Z" fill="#FE674C"/>
<path d="M17.9752 64.2423C16.5925 64.2423 15.4863 62.7954 15.4863 61.3485C15.4863 59.9016 16.5925 58.4547 17.9752 58.4547H34.2908C35.6735 58.4547 37.0562 59.9016 37.0562 61.3485C37.0562 62.7954 35.6735 64.2423 34.2908 64.2423H17.9752Z" fill="#FE674C"/>
<defs>
<linearGradient id="paint0_linear" x1="96.3162" y1="30.796" x2="1.25783" y2="31.506" gradientUnits="userSpaceOnUse">
<stop offset="0.4375" stop-color="#12CAD6"/>
<stop offset="1" stop-color="#12B3D6"/>
</linearGradient>
</defs>
</svg>
