<svg width="85" height="81" viewBox="0 0 85 81" fill="none" xmlns="http://www.w3.org/2000/svg">
<g clip-path="url(#clip0)">
<path d="M12.2471 15.4316H33.7002C35.5169 15.4316 36.9839 14.2373 36.9839 12.7613C36.9839 11.2852 35.5184 10.0909 33.7002 10.0909H12.2471C10.4336 10.0909 8.96191 11.2852 8.96191 12.7613C8.96191 14.2373 10.4336 15.4316 12.2471 15.4316Z" fill="#FE674C"/>
<path d="M12.2471 34.1239H33.7002C35.5169 34.1239 36.9839 32.9296 36.9839 31.4536C36.9839 29.9776 35.5184 28.7833 33.7002 28.7833H12.2471C10.4336 28.7833 8.96191 29.9776 8.96191 31.4536C8.96191 32.9296 10.4336 34.1239 12.2471 34.1239Z" fill="#FE674C"/>
<path d="M11.3711 52.8162H27.1033C28.4355 52.8162 29.5114 51.622 29.5114 50.1459C29.5114 48.6699 28.4367 47.4756 27.1033 47.4756H11.3711C10.0412 47.4756 8.96191 48.6699 8.96191 50.1459C8.96191 51.622 10.0412 52.8162 11.3711 52.8162Z" fill="#FE674C"/>
<path d="M12.2471 71.5085H33.7002C35.5169 71.5085 36.9839 70.3142 36.9839 68.8382C36.9839 67.3621 35.5184 66.1678 33.7002 66.1678H12.2471C10.4336 66.1678 8.96191 67.3621 8.96191 68.8382C8.96191 70.3142 10.4336 71.5085 12.2471 71.5085Z" fill="#FE674C"/>
<path d="M58.2942 57.456C57.9271 57.804 57.7197 58.2891 57.7197 58.7787C57.7197 59.2727 57.928 59.756 58.2942 60.1032C58.6594 60.453 59.1666 60.6506 59.6841 60.6506C60.2006 60.6506 60.7059 60.4521 61.0721 60.1032C61.4382 59.7543 61.6484 59.27 61.6484 58.7787C61.6484 58.2883 61.4382 57.8031 61.0721 57.456C60.3417 56.7573 59.0237 56.759 58.2942 57.456Z" fill="#FE674C"/>
<path d="M65.0587 56.5365C68.7548 51.2795 67.6442 44.3064 62.4732 40.3196C61.627 39.668 60.3902 39.7926 59.7074 40.5982C59.0256 41.402 59.1563 42.5805 59.9979 43.2294C63.5792 45.9923 64.3488 50.814 61.7932 54.4527C61.1898 55.3117 61.4299 56.4742 62.3312 57.0519C62.6666 57.2655 63.0467 57.367 63.4222 57.367C64.0574 57.3652 64.6795 57.075 65.0587 56.5365Z" fill="#FE674C"/>
<path d="M2.04242 80.7671H52.8864C58.1695 80.7671 62.4699 76.6663 62.4699 71.6292V67.6691C63.7907 67.0273 65.048 66.2556 66.2081 65.3415L67.1608 66.2476C66.747 66.8422 66.5219 67.5409 66.5219 68.2708C66.5219 69.2517 66.9236 70.1748 67.6493 70.8664L76.7817 79.5672C77.5075 80.2606 78.4752 80.6433 79.5036 80.6433C80.532 80.6433 81.5015 80.2606 82.2273 79.5672L83.917 77.9588C84.6447 77.2654 84.9268 76.3405 84.9268 75.3596C84.9249 74.3805 84.6447 73.4575 83.917 72.7676L74.7847 64.065C73.5171 62.8572 71.4239 62.7023 69.9462 63.604L68.9869 62.6916C72.017 59.2024 73.6666 54.8613 73.6666 50.2755C73.6666 45.0621 71.536 40.1585 67.6662 36.4716C63.7945 32.7839 58.6506 30.7536 53.1769 30.7536C47.7061 30.7536 42.5613 32.7839 38.6914 36.4716C34.8235 40.1594 32.691 45.0621 32.691 50.2755C32.691 55.4906 34.8235 60.3933 38.6914 64.0811C42.5613 67.7706 47.7052 69.8027 53.1769 69.8027C55.0161 69.8027 56.8114 69.5526 58.5385 69.1093V71.6301C58.5385 74.6013 56.0025 77.0215 52.8864 77.0215H4.00863V3.939H40.9883V13.1561C40.9883 17.6761 44.8507 21.3549 49.5976 21.3549H58.5385V27.0454C58.5385 28.0797 59.4174 28.919 60.5047 28.919C61.5901 28.919 62.4699 28.0797 62.4699 27.0454V19.483C62.4699 18.9979 62.2747 18.5341 61.9226 18.1843L44.3706 0.768431C44.0007 0.401706 43.4897 0.19342 42.9526 0.19342H2.04242C0.957039 0.19342 0.0771484 1.03279 0.0771484 2.0671V78.8952C0.0771484 79.9295 0.956105 80.7671 2.04242 80.7671ZM81.1382 75.3098L79.5036 76.8657L70.4291 68.3242L72.0058 66.714L81.1382 75.3098ZM41.4693 61.4339C38.3421 58.452 36.6225 54.4901 36.6225 50.2763C36.6225 46.0626 38.343 42.0998 41.4693 39.1215C44.5985 36.1414 48.756 34.5009 53.176 34.5009C57.5979 34.5009 61.7582 36.1423 64.8845 39.1215C68.0118 42.0998 69.7351 46.0617 69.7351 50.2763C69.7351 54.491 68.0108 58.4511 64.8845 61.4321C64.8845 61.4339 64.8845 61.4339 64.8845 61.4339C64.8826 61.4339 64.8826 61.4356 64.8826 61.4356C61.7535 64.414 57.5979 66.0562 53.176 66.0562C48.7541 66.0562 44.5985 64.4131 41.4693 61.4339ZM49.5976 17.6093C47.0177 17.6093 44.9198 15.6119 44.9198 13.157V6.7206L55.8913 17.6084H49.5976V17.6093Z" fill="url(#paint0_linear)"/>
</g>
<defs>
<linearGradient id="paint0_linear" x1="82.6265" y1="31.6024" x2="1.15386" y2="32.1138" gradientUnits="userSpaceOnUse">
<stop offset="0.4375" stop-color="#12CAD6"/>
<stop offset="1" stop-color="#12B3D6"/>
</linearGradient>
<clipPath id="clip0">
<rect y="0.000244141" width="85" height="81" fill="white"/>
</clipPath>
</defs>
</svg>
