<svg width="109" height="83" viewBox="0 0 109 83" fill="none" xmlns="http://www.w3.org/2000/svg">
<path d="M104.375 82.776H4.62558C2.50782 82.776 0.789062 81.0926 0.789062 79.0185C0.789062 76.9444 2.50782 75.2611 4.62558 75.2611H104.375C106.493 75.2611 108.211 76.9444 108.211 79.0185C108.211 81.0926 106.493 82.776 104.375 82.776Z" fill="#FE674C"/>
<path d="M19.2397 68.2873C18.2346 68.2873 17.2524 67.8965 16.5235 67.1901C15.6181 66.3034 15.2268 65.0258 15.4723 63.8009L18.1885 50.5071C18.342 49.7707 18.7026 49.1093 19.2397 48.5833L65.3546 3.41897C67.5338 1.29226 70.4265 0.112427 73.5034 0.112427C73.5034 0.112427 73.5111 0.112427 73.5187 0.112427C76.5803 0.112427 79.4653 1.29226 81.6445 3.41897C83.8236 5.54567 85.0129 8.37878 85.0129 11.3998C85.0053 14.4057 83.8083 17.2388 81.6291 19.3655L35.5219 64.5223C34.9848 65.0409 34.3019 65.4016 33.5653 65.5519L19.9994 68.2121C19.7385 68.2647 19.493 68.2873 19.2397 68.2873ZM32.8057 61.8696H32.8824H32.8057ZM25.4856 53.0922L24.1275 59.7429L30.9104 58.4052L76.2043 14.0525C76.9332 13.3386 77.3322 12.3992 77.3322 11.3998C77.3322 10.4003 76.9256 9.4534 76.2043 8.73949C75.4754 8.02558 74.5162 7.63481 73.5034 7.62729C72.4752 7.62729 71.5084 8.01806 70.7871 8.73198L25.4856 53.0922Z" fill="url(#paint0_linear)"/>
<path d="M73.4908 47.0277C72.5086 47.0277 71.5265 46.6595 70.7745 45.9305C69.2783 44.4651 69.2783 42.0829 70.7745 40.6175L84.3404 27.3237L76.1993 19.3505C74.7031 17.8851 74.7031 15.5029 76.1993 14.0375C77.6956 12.5721 80.1279 12.5721 81.6242 14.0375L92.4738 24.6635C93.9701 26.1289 93.9701 28.5111 92.4738 29.9765L76.1993 45.923C75.4474 46.6595 74.4729 47.0277 73.4908 47.0277Z" fill="url(#paint1_linear)"/>
<defs>
<linearGradient id="paint0_linear" x1="83.1258" y1="26.6882" x2="16.2836" y2="27.0949" gradientUnits="userSpaceOnUse">
<stop offset="0.4375" stop-color="#12CAD6"/>
<stop offset="1" stop-color="#12B3D6"/>
</linearGradient>
<linearGradient id="paint1_linear" x1="92.9469" y1="26.227" x2="69.9557" y2="26.3233" gradientUnits="userSpaceOnUse">
<stop offset="0.4375" stop-color="#12CAD6"/>
<stop offset="1" stop-color="#12B3D6"/>
</linearGradient>
</defs>
</svg>
