<svg width="23" height="38" viewBox="0 0 23 38" fill="none" xmlns="http://www.w3.org/2000/svg">
<g opacity="0.5">
<path d="M21.712 0.970012C20.7115 -0.00998804 19.0986 -0.00998804 18.0982 0.970012L1.13196 17.59C0.335713 18.37 0.335713 19.63 1.13196 20.41L18.0982 37.03C19.0986 38.01 20.7115 38.01 21.712 37.03C22.7124 36.05 22.7124 34.47 21.712 33.49L6.9303 18.99L21.7324 4.49001C22.7124 3.53001 22.7124 1.93001 21.712 0.970012Z" fill="white"/>
<path d="M21.712 0.970012C20.7115 -0.00998804 19.0986 -0.00998804 18.0982 0.970012L1.13196 17.59C0.335713 18.37 0.335713 19.63 1.13196 20.41L18.0982 37.03C19.0986 38.01 20.7115 38.01 21.712 37.03C22.7124 36.05 22.7124 34.47 21.712 33.49L6.9303 18.99L21.7324 4.49001C22.7124 3.53001 22.7124 1.93001 21.712 0.970012Z" fill="white" fill-opacity="0.5"/>
</g>
</svg>
