<svg width="173" height="72" viewBox="0 0 173 72" fill="none" xmlns="http://www.w3.org/2000/svg">
<g opacity="0.52">
<path d="M20.2426 -14.0907C17.3683 -6.07412 15.7483 2.34245 14.7328 10.8821C17.1927 5.94619 19.6036 0.957798 22.5123 -3.75909C24.2916 -6.6895 26.27 -9.5113 28.0004 -12.4942C29.8375 -15.6255 31.3272 -18.9722 32.5652 -22.3787C33.3526 -24.5326 33.9916 -26.7933 34.1762 -29.121C34.3373 -30.7898 34.4694 -34.4895 32.9888 -35.6587C29.9046 -33.1302 27.5244 -29.0033 25.575 -25.5716C23.4174 -21.995 21.6545 -18.0998 20.2426 -14.0907Z" fill="#F9F2F2"/>
<path d="M32.189 9.47569C32.3121 17.3963 33.6496 25.4111 36.9384 32.7851C37.105 28.1225 37.2208 23.4581 37.3874 18.7955C37.5159 15.1972 37.5937 11.597 38.1259 8.0639C38.5947 4.8837 39.4146 1.81754 40.135 -1.30292C41.0328 -5.12748 41.8781 -8.90317 42.575 -12.7856C43.2574 -16.2627 43.842 -19.8447 43.6665 -23.4539C43.605 -24.5725 43.7244 -27.9174 42.738 -28.7138C41.2121 -30.0369 40.2944 -27.0757 39.8546 -26.1273C36.5097 -19.1425 34.2127 -11.6635 33.0235 -3.94195C32.4081 0.501634 32.0967 4.95608 32.189 9.47569Z" fill="#F9F2F2"/>
<path d="M49.1937 -0.623516C48.5239 6.76134 48.0533 14.2548 48.9565 21.6451C50.0189 30.259 52.9203 38.5326 55.7711 46.8043C55.7132 32.7966 58.8935 19.0568 60.0012 5.09075C60.3741 0.334029 60.4954 -4.48242 59.4456 -9.18847C58.8773 -11.746 57.9506 -14.2149 56.7162 -16.5932C55.527 -18.8178 54.1188 -20.5934 52.6418 -17.6014C50.1766 -12.5135 49.7476 -6.18569 49.1937 -0.623516Z" fill="#F9F2F2"/>
<path d="M72.0461 23.0283C75.8163 33.9717 80.8156 44.6038 83.8183 55.7227C84.7071 46.4681 83.8763 37.0506 82.4827 27.7652C80.6781 15.7756 77.8111 3.69741 71.6951 -6.92379C70.8354 -8.4261 68.4914 -12.4172 67.6081 -8.99809C67.0144 -6.58353 67.0669 -3.79067 67.1302 -1.3019C67.1972 3.92723 68.075 9.18533 69.4144 14.3077C70.1746 17.1766 71.085 20.1015 72.0461 23.0283Z" fill="#F9F2F2"/>
<path d="M85.6677 23.8694C88.551 36.9124 91.4796 50.1092 97.1322 62.3377C97.3567 57.4742 97.5793 52.6614 97.7531 47.7961C97.9142 44.7064 98.0264 41.5642 97.9341 38.4654C97.6772 30.0326 95.7459 21.5907 92.2707 13.7533C90.5349 9.7839 88.3865 6.00276 85.876 2.41168C84.9583 1.11028 83.6099 -0.91694 82.5637 1.37997C81.7908 3.12844 82.4985 6.04618 82.6867 7.87972C83.3582 13.2319 84.4876 18.5498 85.6677 23.8694Z" fill="#F9F2F2"/>
<path d="M111.895 69.5633C111.393 58.0263 110.892 46.4892 108.812 35.0988C107.748 29.3773 106.276 23.6921 103.828 18.3778C102.606 15.6447 101.075 13.0528 99.2826 10.6545C98.8953 10.1332 97.4563 7.79827 96.5803 8.17294C95.9087 8.50416 96.716 11.4762 96.792 12.1894C98.5784 24.6857 100.975 37.1531 104.6 49.3092C106.687 56.2343 109.085 62.9676 111.895 69.5633Z" fill="#F9F2F2"/>
<path d="M134.028 65.0267C131.337 55.1367 128.595 45.245 124.569 35.7641C122.557 31.0237 120.135 26.3701 117.034 22.2505C115.434 20.1636 113.628 18.1707 111.61 16.424C111.217 16.0548 109.505 14.2683 108.826 14.8023C108.303 15.2403 109.588 17.6205 109.82 18.2377C113.809 28.7322 118.312 39.042 123.796 48.8795C126.895 54.4706 130.305 59.8699 134.028 65.0267Z" fill="#F9F2F2"/>
<path d="M88.2065 -3.18835C90.1776 -4.38657 92.2012 -5.63366 94.1723 -6.83188C96.404 -8.22377 98.6847 -9.56318 101.012 -10.7994C112.488 -16.6819 125.786 -18.186 138.768 -19.3461C134.49 -16.099 129.444 -14.0465 124.64 -11.6808C118.083 -8.5151 111.86 -4.77925 105.112 -1.97557C100.63 -0.105843 95.8592 1.34758 90.9685 1.88332C89.3377 2.0788 85.7068 2.86252 84.4959 1.24617C83.0931 -0.681503 86.9087 -2.37204 88.2065 -3.18835Z" fill="#F9F2F2"/>
<path d="M98.9197 6.53235C115.431 -3.94033 134.402 -10.8237 154.132 -13.4174C147.225 -8.99557 139.882 -5.1475 132.401 -1.71032C125.127 1.63275 117.713 4.61563 109.926 6.67177C107.108 7.43377 104.192 8.09079 101.282 8.59577C100.567 8.72247 97.745 9.58584 97.2563 9.06093C96.3748 8.16678 98.297 6.91607 98.9197 6.53235Z" fill="#F9F2F2"/>
<path d="M111.46 13.4753C127.796 9.33949 145.221 8.79476 162.011 11.8302C155.149 13.5642 148.104 14.7334 141.072 15.5479C134.245 16.3189 127.327 16.7823 120.438 16.4347C117.906 16.2935 115.377 16.051 112.852 15.7071C112.246 15.6347 109.71 15.5948 109.424 15.0772C108.95 14.1468 110.845 13.6563 111.46 13.4753Z" fill="#F9F2F2"/>
<path d="M127.874 24.2107C123.472 22.4296 119.291 20.149 115.052 18.0693C110.615 15.8303 106.228 13.6437 101.842 11.4065C93.1215 6.93396 84.5565 2.36544 76.4278 -3.05016C60.7639 -13.4542 45.2141 -24.2094 30.2979 -35.6524C21.6551 -42.3042 13.3327 -49.4013 5.43197 -56.9401C4.45095 -57.8885 5.87001 -59.2587 6.85285 -58.3609C20.7501 -45.3812 35.9686 -33.8767 51.5112 -22.9188C67.0049 -12.0134 82.4479 -1.1098 99.3389 7.61274C104.072 10.0653 108.805 12.5179 113.538 14.9705C118.471 17.5317 123.611 19.9481 128.324 22.9582C129.072 23.3401 128.674 24.5438 127.874 24.2107Z" fill="#F9F2F2"/>
<path d="M168.689 30.8944C161.607 33.1279 153.779 32.0871 146.493 30.0508C143.127 29.1187 139.87 27.9367 136.56 26.8543C134.906 26.2878 133.251 25.7212 131.595 25.2054C130.038 24.7438 128.069 24.4705 126.675 23.7103C127.188 22.1555 132.915 22.36 134.39 22.2605C137.237 22.1084 140.077 22.1591 142.908 22.4632C148.673 23.0244 154.459 24.3982 159.864 26.5196C162.917 27.6943 165.859 29.1694 168.689 30.8944Z" fill="#F9F2F2"/>
<path d="M151.115 58.2791C150.261 50.9413 146.033 44.2949 141.113 38.5372C138.872 35.9199 136.425 33.3968 134.029 30.8754C132.856 29.6156 131.632 28.354 130.461 27.0436C129.388 25.8381 128.333 24.1258 127.046 23.2172C125.839 24.3412 128.398 29.4057 128.957 30.7957C129.98 33.4203 131.259 35.9525 132.642 38.4376C135.558 43.4641 139.2 48.0597 143.47 52.1196C145.825 54.3857 148.389 56.4564 151.115 58.2791Z" fill="#F9F2F2"/>
</g>
</svg>
