<svg width="185" height="109" viewBox="0 0 185 109" fill="none" xmlns="http://www.w3.org/2000/svg">
<g opacity="0.52">
<path d="M85.265 129.945C93.1421 131.692 101.38 132.281 109.455 130.679C111.649 130.254 113.817 129.648 115.985 129.041C118.381 128.389 120.819 127.72 123.199 127.026C121.873 126.564 120.387 126.552 118.952 126.424C114.419 126.084 110.079 124.656 105.756 123.508C97.0511 121.19 88.0014 119.831 78.8605 119.567C76.4043 119.475 73.982 119.466 71.5179 119.713C69.6107 119.876 65.6694 120.012 64.0931 121.336C61.9436 123.183 67.0261 124.258 68.1323 124.666C70.7586 125.648 73.4271 126.613 76.1039 127.479C79.1606 128.428 82.1665 129.254 85.265 129.945Z" fill="#F9F2F2"/>
<path d="M41.5434 117.283C36.6819 111.601 32.7562 105.197 29.3028 98.5015C32.8778 101.783 36.4275 105.123 40.3143 108.084C42.7056 109.932 45.2317 111.629 47.5977 113.535C50.0989 115.53 52.3727 117.811 54.4525 120.221C55.7714 121.742 56.9977 123.399 57.8613 125.253C58.5047 126.573 59.7414 129.57 58.8489 130.995C55.4797 129.887 52.2179 127.245 49.5307 125.038C46.624 122.778 43.953 120.132 41.5434 117.283Z" fill="#F9F2F2"/>
<path d="M44.447 94.1747C42.1416 87.6305 40.8314 80.6275 41.3611 73.5381C42.9196 77.3154 44.436 81.1102 45.9946 84.8875C47.1974 87.8026 48.3581 90.7352 49.8813 93.47C51.2438 95.9349 52.8677 98.1958 54.4241 100.533C56.3443 103.392 58.2053 106.228 59.9736 109.198C61.6065 111.839 63.1889 114.598 64.1387 117.617C64.427 118.555 65.5451 121.265 64.9557 122.229C64.0719 123.795 62.3976 121.651 61.7383 121.01C56.7939 116.324 52.5827 110.902 49.2316 104.933C47.3612 101.477 45.7439 97.9159 44.447 94.1747Z" fill="#F9F2F2"/>
<path d="M61.853 97.1305C59.0422 91.2753 56.3662 85.2683 54.8798 78.9146C53.1554 71.5059 53.0849 63.7993 52.9722 56.11C57.184 67.6335 64.0442 77.9201 69.226 89.0433C70.9871 92.8332 72.5544 96.7511 73.1008 100.946C73.3995 103.225 73.3692 105.544 73.052 107.885C72.7261 110.086 72.079 111.986 69.9239 109.993C66.298 106.588 64.0117 101.525 61.853 97.1305Z" fill="#F9F2F2"/>
<path d="M123.723 111.434C113.752 109.398 103.697 107.397 93.383 107.28C89.2727 107.246 85.1797 107.493 81.0444 107.758C77.6265 107.967 74.0821 108.229 71.0546 109.862C74.4328 111.351 78.1809 111.823 81.8532 112.47C89.7553 113.918 97.3635 116.448 105.374 117.083C109.502 117.398 113.755 117.18 117.907 116.477C121.729 115.812 126.775 114.884 130.088 112.747C128.146 112.107 125.825 111.864 123.723 111.434Z" fill="#F9F2F2"/>
<path d="M112.228 100.322C115.679 99.7144 119.105 98.9256 122.513 98.0958C128.124 96.7418 133.684 95.2646 139.252 93.6878C139.606 93.5897 139.588 93.0684 139.183 93.0434C135.495 93.0757 131.831 92.3293 128.192 91.7645C115.682 89.9116 102.618 90.7854 90.1486 94.2966C87.2717 95.0993 84.4205 96.0835 81.8485 97.6252C80.6933 98.2941 79.2849 99.0674 80.8136 99.782C81.9707 100.314 83.8191 100.368 85.0854 100.566C90.7753 101.437 96.6162 101.718 102.423 101.436C105.697 101.239 108.963 100.9 112.228 100.322Z" fill="#F9F2F2"/>
<path d="M73.9255 70.5276C73.7753 60.3553 74.7559 50.0528 73.9054 39.9773C77.4695 47.2995 79.6336 55.2955 81.283 63.3597C83.4085 73.774 84.6652 84.5948 82.7398 95.2392C82.472 96.7431 81.7099 100.757 79.9253 98.2263C78.6904 96.4295 77.8852 94.1191 77.1816 92.0551C75.6475 87.7391 74.7882 83.1447 74.3594 78.5168C74.1276 75.9217 74.0055 73.2334 73.9255 70.5276Z" fill="#F9F2F2"/>
<path d="M85.1516 65.5589C83.6151 53.9406 82.07 42.1817 83.1159 30.3627C84.7844 34.2869 86.4359 38.17 88.0623 42.1116C89.1379 44.5987 90.1882 47.1443 91.0529 49.7185C93.4012 56.7256 94.3408 64.2658 93.795 71.7944C93.539 75.5997 92.8778 79.38 91.8537 83.1179C91.4759 84.475 90.9558 86.5635 89.3752 85.0055C88.1918 83.812 87.9009 81.1933 87.5019 79.6282C86.4401 75.0213 85.7747 70.2988 85.1516 65.5589Z" fill="#F9F2F2"/>
<path d="M93.3643 19.7927C96.4507 29.4261 99.5372 39.0595 101.249 49.0682C102.092 54.1017 102.58 59.2334 102.132 64.3673C101.934 66.9958 101.431 69.6056 100.65 72.1381C100.482 72.6879 99.979 75.0575 99.1265 75.0249C98.4596 74.9637 98.2362 72.2691 98.0834 71.6595C95.7885 60.8346 94.0166 49.8419 93.3755 38.719C93.0285 32.3757 93.0023 26.0922 93.3643 19.7927Z" fill="#F9F2F2"/>
<path d="M113.404 16.5676C114.143 25.5359 114.84 34.5216 114.331 43.5728C114.076 48.0984 113.45 52.6811 112.089 57.0384C111.375 59.255 110.458 61.4591 109.288 63.5275C109.069 63.9541 108.169 65.9591 107.434 65.7337C106.86 65.5382 107.22 63.1797 107.227 62.6C107.398 52.7276 108.059 42.8454 109.69 33.0432C110.602 27.4778 111.834 21.9722 113.404 16.5676Z" fill="#F9F2F2"/>
<path d="M95.5229 86.9859C97.5491 87.3511 99.6343 87.74 101.66 88.1052C103.965 88.5476 106.295 88.9316 108.634 89.216C120.097 90.4441 131.765 87.5035 143.062 84.38C138.468 83.056 133.59 82.9548 128.821 82.5203C122.329 81.9794 115.947 80.865 109.406 80.6811C105.059 80.5527 100.595 80.8572 96.3088 81.953C94.8745 82.3045 91.5752 82.801 91.046 84.5088C90.4498 86.5326 94.1806 86.723 95.5229 86.9859Z" fill="#F9F2F2"/>
<path d="M101.599 75.6373C118.704 79.0542 136.79 78.7507 154.213 74.6851C147.045 73.2222 139.684 72.3675 132.332 71.8935C125.183 71.432 118.025 71.3101 110.836 72.0664C108.228 72.3255 105.57 72.7015 102.963 73.2007C102.322 73.3212 99.6801 73.4982 99.4278 74.0828C98.9566 75.094 100.958 75.5176 101.599 75.6373Z" fill="#F9F2F2"/>
<path d="M110.059 65.9972C125.088 64.2645 139.943 59.2401 153.174 51.4746C146.862 52.2052 140.567 53.457 134.392 54.9962C128.401 56.5068 122.429 58.2986 116.727 60.7473C114.635 61.6585 112.577 62.6517 110.553 63.7271C110.064 63.977 107.938 64.806 107.855 65.321C107.738 66.234 109.485 66.0418 110.059 65.9972Z" fill="#F9F2F2"/>
<path d="M120.631 52.0253C117.462 54.8705 114.631 58.0567 111.69 61.096C108.631 64.3281 105.597 67.5018 102.58 70.7165C96.5891 77.1285 90.7582 83.5705 85.5526 90.5712C75.5122 104.035 65.6746 117.752 56.5803 131.835C51.3175 140.012 46.4601 148.455 42.0926 157.128C41.5541 158.215 43.1672 158.895 43.7226 157.849C51.4904 142.824 60.8208 128.596 70.5906 114.715C80.3352 100.892 90.0376 87.0871 101.624 74.6186C104.868 71.1179 108.112 67.6171 111.357 64.1163C114.736 60.4638 118.334 56.8649 121.392 52.9125C121.906 52.3641 121.204 51.5005 120.631 52.0253Z" fill="#F9F2F2"/>
<path d="M153.006 33.7182C146.355 34.1078 140.072 37.4209 134.55 41.3812C131.996 43.204 129.61 45.1973 127.148 47.1259C125.926 48.1108 124.704 49.0956 123.464 50.0394C122.293 50.9073 120.716 51.7502 119.772 52.8123C120.677 53.9284 125.442 51.9621 126.716 51.5806C129.163 50.8114 131.541 49.878 133.835 48.7393C138.525 46.4681 142.985 43.5225 146.896 40.083C149.113 38.1593 151.144 36.024 153.006 33.7182Z" fill="#F9F2F2"/>
<path d="M129.861 16.7445C131.373 23.0397 129.83 29.8265 127.434 36.1004C126.341 38.9538 125.046 41.7947 123.792 44.6182C123.187 46.0212 122.539 47.4416 121.95 48.8857C121.412 50.2129 121.043 51.9506 120.235 53.1011C118.875 52.557 119.492 47.5936 119.541 46.2762C119.605 43.7994 119.913 41.3177 120.323 38.8423C121.253 33.7981 122.925 28.8799 125.289 24.2045C126.585 21.6037 128.118 19.0976 129.861 16.7445Z" fill="#F9F2F2"/>
</g>
</svg>
