<svg width="247" height="113" viewBox="0 0 247 113" fill="none" xmlns="http://www.w3.org/2000/svg">
<g opacity="0.52">
<path d="M218.569 -10.1921C222.694 1.31428 225.019 13.3948 226.477 25.652C222.946 18.5674 219.486 11.4074 215.311 4.63711C212.757 0.431013 209.917 -3.6192 207.434 -7.90065C204.797 -12.3951 202.659 -17.1988 200.882 -22.0881C199.751 -25.1797 198.834 -28.4246 198.569 -31.7656C198.338 -34.1609 198.148 -39.4711 200.274 -41.1494C204.701 -37.5201 208.117 -31.5967 210.915 -26.671C214.012 -21.5374 216.542 -15.9466 218.569 -10.1921Z" fill="#F9F2F2"/>
<path d="M201.422 23.6334C201.245 35.0021 199.325 46.506 194.605 57.0901C194.366 50.3977 194.2 43.7028 193.961 37.0104C193.776 31.8456 193.664 26.6783 192.901 21.607C192.228 17.0424 191.051 12.6415 190.017 8.16256C188.728 2.67306 187.515 -2.7463 186.515 -8.31894C185.535 -13.3096 184.696 -18.451 184.948 -23.6314C185.036 -25.2369 184.865 -30.038 186.281 -31.1811C188.471 -33.0802 189.788 -28.8299 190.419 -27.4686C195.22 -17.4431 198.517 -6.70825 200.224 4.37468C201.108 10.7527 201.554 17.1463 201.422 23.6334Z" fill="#F9F2F2"/>
<path d="M177.015 9.1377C177.976 19.7374 178.652 30.493 177.355 41.1005C175.83 53.4643 171.666 65.3396 167.574 77.2123C167.657 57.1066 163.092 37.3855 161.502 17.3396C160.967 10.5121 160.793 3.59889 162.3 -3.15583C163.116 -6.82677 164.446 -10.3704 166.218 -13.7841C167.924 -16.9771 169.946 -19.5257 172.066 -15.2312C175.604 -7.92836 176.22 1.15414 177.015 9.1377Z" fill="#F9F2F2"/>
<path d="M103.41 -24.5804C97.9097 -25.6221 92.3474 -26.3703 86.7878 -27.0458C77.6429 -28.1759 68.5058 -29.0877 59.3012 -29.8515C58.7167 -29.9034 58.4543 -29.0929 59.0466 -28.8227C64.5829 -26.7625 69.6516 -23.5203 74.7826 -20.5716C92.4748 -10.5695 112.505 -4.43836 133.107 -2.69781C137.856 -2.28475 142.668 -2.16527 147.37 -3.06159C149.469 -3.42791 152.005 -3.80983 150.113 -5.78168C148.677 -7.25992 145.941 -8.40042 144.156 -9.4292C136.126 -14.0224 127.542 -17.7946 118.699 -20.6835C113.69 -22.2526 108.616 -23.601 103.41 -24.5804Z" fill="#F9F2F2"/>
<path d="M144.213 43.0859C138.802 58.7933 131.626 74.0538 127.316 90.0131C126.04 76.7297 127.233 63.2125 129.233 49.8849C131.823 32.6759 135.938 15.3396 144.717 0.0947109C145.951 -2.06161 149.315 -7.79015 150.583 -2.88259C151.435 0.583102 151.36 4.59176 151.269 8.16397C151.173 15.6695 149.913 23.2166 147.991 30.5689C146.899 34.6867 145.593 38.885 144.213 43.0859Z" fill="#F9F2F2"/>
<path d="M124.663 44.2932C120.524 63.0142 116.321 81.956 108.207 99.5079C107.885 92.5271 107.566 85.6191 107.316 78.6358C107.085 74.2011 106.924 69.691 107.056 65.2433C107.425 53.1393 110.197 41.0224 115.185 29.7732C117.677 24.0758 120.76 18.6486 124.364 13.4942C125.681 11.6263 127.616 8.71657 129.118 12.0134C130.227 14.523 129.212 18.7109 128.941 21.3427C127.978 29.0249 126.357 36.6577 124.663 44.2932Z" fill="#F9F2F2"/>
<path d="M87.0186 109.879C87.7381 93.3195 88.4577 76.76 91.4427 60.411C92.9703 52.1988 95.0824 44.0386 98.5974 36.4109C100.351 32.488 102.549 28.7677 105.121 25.3254C105.677 24.5771 107.742 21.2258 109 21.7635C109.963 22.239 108.805 26.5048 108.696 27.5284C106.132 45.4648 102.692 63.3597 97.4882 80.8076C94.4928 90.7475 91.0506 100.412 87.0186 109.879Z" fill="#F9F2F2"/>
<path d="M55.249 103.367C59.1121 89.1721 63.048 74.9742 68.8258 61.366C71.7147 54.5619 75.1908 47.8825 79.6411 41.9695C81.9377 38.974 84.5304 36.1137 87.4272 33.6066C87.9909 33.0766 90.4486 30.5124 91.4228 31.2788C92.1737 31.9075 90.3291 35.3239 89.9966 36.2098C84.2707 51.2728 77.807 66.0709 69.9352 80.1909C65.4876 88.216 60.593 95.9658 55.249 103.367Z" fill="#F9F2F2"/>
<path d="M121.018 5.4563C118.188 3.73645 115.284 1.94647 112.455 0.226627C109.251 -1.7712 105.978 -3.69368 102.637 -5.46808C86.1657 -13.9114 67.0784 -16.0702 48.4458 -17.7355C54.5848 -13.0747 61.8279 -10.1287 68.723 -6.73315C78.1354 -2.18935 87.0673 3.17283 96.7525 7.19704C103.185 9.88071 110.033 11.9669 117.053 12.7358C119.394 13.0164 124.605 14.1413 126.343 11.8213C128.357 9.05445 122.88 6.62797 121.018 5.4563Z" fill="#F9F2F2"/>
<path d="M105.64 19.4087C81.9417 4.37696 54.7123 -5.503 26.3918 -9.22577C36.3057 -2.87897 46.8457 2.64427 57.5831 7.57776C68.0244 12.3762 78.6657 16.6576 89.8422 19.6088C93.8872 20.7026 98.0726 21.6456 102.25 22.3704C103.276 22.5523 107.327 23.7915 108.028 23.0381C109.293 21.7547 106.534 19.9595 105.64 19.4087Z" fill="#F9F2F2"/>
<path d="M87.6403 29.3742C64.1936 23.438 39.1829 22.6561 15.0842 27.013C24.9331 29.5018 35.0444 31.18 45.1375 32.3491C54.9371 33.4558 64.8665 34.1208 74.7544 33.622C78.3889 33.4193 82.0183 33.0711 85.6425 32.5775C86.5128 32.4736 90.1525 32.4164 90.563 31.6734C91.2437 30.338 88.5236 29.634 87.6403 29.3742Z" fill="#F9F2F2"/>
<path d="M64.0825 44.783C70.4007 42.2265 76.402 38.9531 82.4864 35.968C88.854 32.7543 95.1515 29.6159 101.446 26.4048C113.963 19.9851 126.257 13.4278 137.924 5.65463C160.407 -9.2786 182.726 -24.7158 204.136 -41.1403C216.541 -50.6879 228.487 -60.8746 239.827 -71.6952C241.235 -73.0565 239.198 -75.0232 237.787 -73.7346C217.84 -55.1044 195.997 -38.5917 173.688 -22.8634C151.449 -7.21058 129.284 8.43969 105.039 20.9594C98.2457 24.4797 91.452 28 84.6583 31.5202C77.5789 35.1964 70.2007 38.6647 63.4356 42.9852C62.3626 43.5334 62.9342 45.261 64.0825 44.783Z" fill="#F9F2F2"/>
<path d="M5.4988 54.3763C15.6647 57.5822 26.9009 56.0883 37.3577 53.1655C42.1899 51.8275 46.8637 50.131 51.6153 48.5774C53.9899 47.7643 56.3644 46.9511 58.7416 46.2107C60.9758 45.5482 63.8024 45.1559 65.8028 44.0647C65.0676 41.8331 56.8476 42.1267 54.7303 41.9838C50.6437 41.7656 46.5675 41.8383 42.5042 42.2748C34.2297 43.0802 25.924 45.0521 18.1665 48.097C13.7837 49.7831 9.56201 51.9004 5.4988 54.3763Z" fill="#F9F2F2"/>
<path d="M30.7227 93.6824C31.9489 83.1502 38.0177 73.6104 45.0789 65.3463C48.2952 61.5896 51.8076 57.968 55.2473 54.349C56.9308 52.5408 58.687 50.73 60.3679 48.8491C61.9085 47.1188 63.4231 44.6611 65.2702 43.357C67.0031 44.9703 63.3296 52.2394 62.5268 54.2347C61.059 58.0017 59.2222 61.6363 57.2374 65.2033C53.0521 72.4179 47.825 79.0142 41.6964 84.8414C38.3165 88.0941 34.6352 91.0662 30.7227 93.6824Z" fill="#F9F2F2"/>
</g>
</svg>
