<svg width="24" height="38" viewBox="0 0 24 38" fill="none" xmlns="http://www.w3.org/2000/svg">
<path d="M1.16226 37.03C2.22393 38.01 3.93559 38.01 4.99726 37.03L23.0023 20.41C23.8473 19.63 23.8473 18.37 23.0023 17.59L4.99726 0.969985C3.93559 -0.0100147 2.22393 -0.0100147 1.16226 0.969985C0.100594 1.94999 0.100594 3.52999 1.16226 4.50999L16.8489 19.01L1.14059 33.51C0.100594 34.47 0.100594 36.07 1.16226 37.03Z" fill="white"/>
<path d="M1.16226 37.03C2.22393 38.01 3.93559 38.01 4.99726 37.03L23.0023 20.41C23.8473 19.63 23.8473 18.37 23.0023 17.59L4.99726 0.969985C3.93559 -0.0100147 2.22393 -0.0100147 1.16226 0.969985C0.100594 1.94999 0.100594 3.52999 1.16226 4.50999L16.8489 19.01L1.14059 33.51C0.100594 34.47 0.100594 36.07 1.16226 37.03Z" fill="white"/>
</svg>
