<svg width="38" height="38" viewBox="0 0 38 38" fill="none" xmlns="http://www.w3.org/2000/svg">
<g id="icon/maps/zoom_out_map_24px">
<path id="icon/maps/zoom_out_map_24px_2" fill-rule="evenodd" clip-rule="evenodd" d="M8.39167 10.6083L6.09583 12.9042C5.605 13.395 4.75 13.0467 4.75 12.3342V5.54167C4.75 5.09833 5.09833 4.75 5.54167 4.75H12.3342C13.0467 4.75 13.395 5.605 12.9042 6.09583L10.6083 8.39167L14.06 11.8117C14.6775 12.4292 14.6775 13.4425 14.06 14.06C13.4425 14.6775 12.4292 14.6775 11.8117 14.06L8.39167 10.6083ZM27.392 8.39167L25.0962 6.09583C24.6054 5.605 24.9537 4.75 25.6662 4.75H32.4587C32.902 4.75 33.2504 5.09833 33.2504 5.54167V12.3342C33.2504 13.0467 32.3954 13.395 31.9045 12.9042L29.6087 10.6083L26.1887 14.06C25.5712 14.6775 24.5579 14.6775 23.9404 14.06C23.3229 13.4425 23.3229 12.4292 23.9404 11.8117L27.392 8.39167ZM12.9042 31.9041L10.6083 29.6083L14.06 26.1883C14.6775 25.5708 14.6775 24.5574 14.06 23.9399C13.4425 23.3224 12.4292 23.3224 11.8117 23.9399L8.39167 27.3916L6.09583 25.0958C5.605 24.6049 4.75 24.9533 4.75 25.6658V32.4583C4.75 32.9016 5.09833 33.2499 5.54167 33.2499H12.3342C13.0467 33.2499 13.395 32.3949 12.9042 31.9041ZM29.6087 27.3916L31.9045 25.0958C32.3954 24.6049 33.2504 24.9533 33.2504 25.6658V32.4583C33.2504 32.9016 32.902 33.2499 32.4587 33.2499H25.6662C24.9537 33.2499 24.6054 32.3949 25.0962 31.9041L27.392 29.6083L23.9404 26.1883C23.3229 25.5708 23.3229 24.5574 23.9404 23.9399C24.5579 23.3224 25.5712 23.3224 26.1887 23.9399L29.6087 27.3916Z" fill="white"/>
</g>
</svg>
