<svg width="236" height="231" viewBox="0 0 236 231" fill="none" xmlns="http://www.w3.org/2000/svg">
<g opacity="0.86">
<path d="M260.325 166.046C261.14 171.452 261.955 176.858 263.331 182.121C265.562 190.656 269.378 198.762 274.481 206.028C275.719 207.831 278.533 206.917 278.419 204.83C278.142 200.604 277.815 196.326 277.436 192.098C277.105 188.023 276.672 183.947 275.935 179.864C273.318 164.711 267.027 150.303 259.498 136.788C257.578 133.345 255.678 128.885 252.986 125.987C253.726 132.663 255.736 139.413 256.986 145.997C258.183 152.732 259.28 159.364 260.325 166.046Z" fill="#F9F2F2"/>
<path d="M250.402 166.42C248.554 153.722 244.77 141.192 237.803 130.23C235.926 127.245 233.793 124.408 231.659 121.571C229.327 118.426 226.945 115.228 224.562 112.132C224.622 114.371 225.446 116.573 226.066 118.772C228.124 125.676 228.446 132.954 229.178 140.037C230.642 154.304 233.734 168.499 238.514 182.167C239.767 185.852 241.124 189.437 242.89 192.928C244.212 195.648 246.648 201.39 249.518 202.918C253.498 204.975 252.226 196.815 252.21 194.933C252.192 190.457 252.124 185.93 251.902 181.45C251.59 176.359 251.123 171.417 250.402 166.42Z" fill="#F9F2F2"/>
<path d="M256.226 238.694C250.485 249.317 243.133 258.995 235.08 268.152C237.962 260.882 240.945 253.615 243.171 246.079C244.58 241.426 245.686 236.666 247.196 232.016C248.762 227.112 250.885 222.371 253.309 217.839C254.837 214.969 256.619 212.154 258.901 209.755C260.51 208.005 264.291 204.363 266.927 204.819C267.177 210.469 265.074 216.889 263.297 222.195C261.564 227.859 259.121 233.408 256.226 238.694Z" fill="#F9F2F2"/>
<path d="M220.037 248.394C211.56 255.763 201.833 261.939 190.935 265.448C195.699 260.858 200.513 256.32 205.278 251.73C208.955 248.188 212.681 244.697 215.907 240.791C218.82 237.285 221.281 233.517 223.893 229.802C227.08 225.233 230.266 220.767 233.705 216.355C236.729 212.343 239.957 208.335 243.933 205.103C245.172 204.109 248.59 200.817 250.364 201.104C253.206 201.462 250.949 205.234 250.364 206.596C246.157 216.74 240.437 226.245 233.411 234.811C229.303 239.667 224.896 244.213 220.037 248.394Z" fill="#F9F2F2"/>
<path d="M214.601 220.881C207.44 228.579 199.975 236.17 191.318 242.213C181.219 249.247 169.739 254.017 158.308 258.838C173.15 245.638 184.643 229.273 198.337 214.882C203.006 209.985 207.975 205.297 213.937 201.95C217.175 200.129 220.658 198.77 224.338 197.821C227.812 196.97 231.019 196.776 229.259 201.168C226.222 208.587 219.948 215.03 214.601 220.881Z" fill="#F9F2F2"/>
<path d="M200.956 120.796C203.557 136.762 206.258 152.832 211.923 168.144C214.2 174.238 216.887 180.137 219.624 186.087C221.871 191.011 224.269 196.091 228.425 199.575C228.738 193.682 227.321 187.858 226.209 182.04C223.9 169.486 223.375 156.711 219.789 144.49C217.923 138.2 215.19 132.046 211.787 126.338C208.63 121.092 204.385 114.198 199.315 110.594C199.458 113.852 200.409 117.429 200.956 120.796Z" fill="#F9F2F2"/>
<path d="M190.852 144.51C187.99 139.778 184.872 135.194 181.701 130.659C176.501 123.188 171.145 115.867 165.635 108.593C165.288 108.129 164.519 108.471 164.711 109.085C166.847 114.515 167.806 120.382 169.022 126.1C173.335 145.709 182.037 164.485 194.346 180.785C197.174 184.55 200.26 188.167 204.021 191.035C205.675 192.337 207.628 193.95 207.831 191.258C207.97 189.227 207.005 186.462 206.584 184.471C204.666 175.535 201.778 166.734 198.07 158.325C195.92 153.606 193.565 148.985 190.852 144.51Z" fill="#F9F2F2"/>
<path d="M167.999 219.148C152.877 225.528 136.921 230.316 122.341 237.673C131.269 227.973 141.997 219.934 153.118 212.615C167.483 203.169 182.947 194.761 199.949 191.162C202.349 190.647 208.781 189.343 206.008 193.513C204.022 196.425 201.024 199.014 198.336 201.303C192.753 206.183 186.371 210.234 179.696 213.67C175.948 215.583 171.998 217.391 167.999 219.148Z" fill="#F9F2F2"/>
<path d="M154.215 205.566C137.717 214.87 121.014 224.273 102.753 229.882C107.675 225.041 112.545 220.25 117.516 215.46C120.625 212.365 123.836 209.272 127.195 206.436C136.34 198.723 147.08 192.77 158.643 189.019C164.477 187.093 170.502 185.781 176.67 185.032C178.912 184.769 182.329 184.273 180.895 187.552C179.781 190.023 176.031 192.038 173.917 193.575C167.631 197.933 160.948 201.776 154.215 205.566Z" fill="#F9F2F2"/>
<path d="M81.1494 221.14C93.8029 210.747 106.456 200.354 120.449 191.766C127.497 187.472 134.891 183.644 142.82 181.198C146.861 179.9 151.047 179.062 155.275 178.684C156.192 178.599 160.019 177.907 160.453 179.187C160.739 180.209 156.838 182.171 156.013 182.766C141.13 192.711 125.7 201.984 109.436 209.665C100.15 214.018 90.7715 217.861 81.1494 221.14Z" fill="#F9F2F2"/>
<path d="M64.9854 193.477C77.9735 186.956 91.0116 180.486 104.831 175.759C111.74 173.396 118.946 171.547 126.23 170.92C129.948 170.633 133.761 170.653 137.516 171.13C138.278 171.195 141.784 171.312 141.863 172.534C141.896 173.5 138.167 174.397 137.296 174.737C122.441 180.461 107.294 185.468 91.7176 188.992C82.8818 191.014 73.9538 192.526 64.9854 193.477Z" fill="#F9F2F2"/>
<path d="M180.374 177.27C179.773 174.054 179.174 170.738 178.573 167.522C177.929 163.849 177.184 160.173 176.285 156.546C171.631 138.863 160.629 123.401 149.564 108.599C150.186 116.188 152.796 123.458 154.847 130.769C157.713 140.688 159.661 150.794 163.089 160.572C165.358 167.073 168.341 173.485 172.406 179.155C173.743 181.062 176.353 185.637 179.206 185.385C182.569 185.041 180.741 179.412 180.374 177.27Z" fill="#F9F2F2"/>
<path d="M159.97 175.16C155.394 147.816 144.7 121.273 128.759 97.9887C130.63 109.466 133.52 120.861 136.973 132.012C140.331 142.856 144.201 153.506 149.402 163.673C151.266 167.369 153.333 171.069 155.555 174.62C156.098 175.494 157.859 179.291 158.875 179.31C160.654 179.394 160.154 176.18 159.97 175.16Z" fill="#F9F2F2"/>
<path d="M140.769 168.496C129.67 147.336 113.748 128.426 94.649 113.576C99.3147 122.461 104.75 131.004 110.547 139.199C116.197 147.136 122.257 154.877 129.146 161.82C131.692 164.36 134.342 166.799 137.095 169.139C137.746 169.711 140.189 172.35 141.006 172.162C142.437 171.781 141.16 169.317 140.769 168.496Z" fill="#F9F2F2"/>
<path d="M113.898 161.333C119.945 164.293 126.311 166.548 132.52 169.054C139.083 171.617 145.545 174.179 152.059 176.691C165.036 181.662 177.968 186.378 191.38 189.832C217.192 196.518 243.267 202.751 269.468 207.664C284.672 210.49 300.043 212.556 315.481 213.759C317.411 213.897 317.514 211.102 315.635 210.914C288.777 208.532 262.225 203.358 235.943 197.325C209.763 191.294 183.632 185.314 158.434 175.741C151.364 173.067 144.294 170.392 137.224 167.718C129.85 164.936 122.433 161.797 114.793 159.671C113.683 159.244 112.789 160.803 113.898 161.333Z" fill="#F9F2F2"/>
<path d="M68.201 124.577C72.5484 134.168 81.0583 141.447 90.105 147.209C94.2762 149.881 98.6066 152.199 102.883 154.669C105.048 155.879 107.212 157.089 109.324 158.349C111.285 159.555 113.438 161.376 115.56 162.127C116.716 160.114 111.079 154.263 109.787 152.611C107.252 149.462 104.51 146.512 101.509 143.811C95.4592 138.257 88.5306 133.449 81.1745 129.752C77.0437 127.641 72.7019 125.932 68.201 124.577Z" fill="#F9F2F2"/>
<path d="M55.9297 169.051C64.4845 163.006 75.5035 161.177 86.2389 160.919C91.1232 160.807 96.1035 161.002 101.034 161.144C103.474 161.19 105.964 161.287 108.456 161.283C110.745 161.275 113.552 160.767 115.729 161.266C115.685 163.604 107.916 165.697 105.919 166.423C102.181 167.828 98.2961 168.874 94.3636 169.767C86.297 171.448 77.998 171.954 69.67 171.29C65.0484 170.95 60.4344 170.203 55.9297 169.051Z" fill="#F9F2F2"/>
</g>
</svg>
