<svg width="305" height="179" viewBox="0 0 305 179" fill="none" xmlns="http://www.w3.org/2000/svg">
<g opacity="0.86">
<path d="M66.4353 36.8531C65.9407 31.2843 65.4462 25.7155 64.369 20.2567C62.6236 11.4061 59.2341 2.89375 54.4784 -4.84081C53.3274 -6.75839 50.3979 -6.00103 50.3839 -3.86345C50.4034 0.467692 50.4706 4.8548 50.5938 9.19421C50.6776 13.374 50.865 17.562 51.3635 21.7749C53.0895 37.4052 58.6138 52.504 65.4565 66.7691C67.2009 70.4033 68.8626 75.0741 71.43 78.2001C71.0906 71.3396 69.4596 64.3239 68.5937 57.5256C67.792 50.5761 67.0857 43.7384 66.4353 36.8531Z" fill="#F9F2F2"/>
<path d="M76.5884 37.0894C77.6836 50.1655 80.7651 63.1915 87.1927 74.8152C88.9224 77.9788 90.9238 81.0075 92.9252 84.0362C95.109 87.3924 97.3406 90.8046 99.5804 94.1132C99.6588 91.8242 98.9554 89.5251 98.4595 87.2424C96.789 80.0671 96.914 72.6176 96.6077 65.3425C96.0035 50.6884 93.7323 36.0057 89.7052 21.7567C88.6553 17.9171 87.4935 14.1729 85.9088 10.4994C84.7285 7.6405 82.6 1.62834 79.7655 -0.110597C75.8319 -2.45886 76.6215 5.95032 76.5203 7.8723C76.26 12.4419 76.0473 17.0675 75.9944 21.6537C75.9954 26.8701 76.1644 31.9435 76.5884 37.0894Z" fill="#F9F2F2"/>
<path d="M112.69 -44.6909C121.803 -51.6839 132.116 -57.3814 143.459 -60.2842C138.31 -55.8961 133.113 -51.5639 127.964 -47.1757C123.99 -43.7892 119.968 -40.4586 116.432 -36.6721C113.24 -33.2753 110.493 -29.5822 107.595 -25.9534C104.057 -21.4888 100.527 -17.1279 96.7423 -12.8396C93.405 -8.93277 89.8604 -5.04252 85.6004 -1.99182C84.2737 -1.05441 80.5797 2.09361 78.7862 1.68968C75.9083 1.14705 78.4474 -2.56261 79.1292 -3.91661C84.0554 -14.0084 90.487 -23.3541 98.1919 -31.6593C102.688 -36.3604 107.47 -40.7257 112.69 -44.6909Z" fill="#F9F2F2"/>
<path d="M116.526 -16.2694C124.316 -23.6809 132.409 -30.964 141.621 -36.5928C152.368 -43.1425 164.384 -47.2957 176.353 -51.5049C160.38 -38.9561 147.628 -22.9683 132.753 -9.13215C127.683 -4.42472 122.318 0.0505755 116.024 3.09546C112.605 4.75272 108.965 5.9228 105.15 6.66167C101.551 7.31341 98.2649 7.312 100.335 2.93898C103.898 -4.4448 110.703 -10.6309 116.526 -16.2694Z" fill="#F9F2F2"/>
<path d="M124.217 86.7418C122.557 70.2821 120.801 53.7105 115.974 37.7283C114.03 31.3658 111.654 25.1774 109.231 18.9331C107.244 13.7668 105.114 8.43259 101.089 4.61644C100.402 10.6126 101.485 16.6457 102.258 22.654C103.832 35.6119 103.571 48.6841 106.47 61.3826C107.983 67.9194 110.389 74.3711 113.507 80.41C116.402 85.9617 120.306 93.2631 125.255 97.2574C125.313 93.9235 124.566 90.2124 124.217 86.7418Z" fill="#F9F2F2"/>
<path d="M136.007 63.1664C138.633 68.175 141.531 73.0488 144.484 77.8748C149.327 85.825 154.337 93.6321 159.508 101.4C159.833 101.895 160.64 101.594 160.482 100.956C158.64 95.2795 158.027 89.2318 157.143 83.3189C153.962 63.0342 146.25 43.3269 134.702 25.9217C132.049 21.9021 129.125 18.0173 125.465 14.8563C123.858 13.424 121.965 11.6558 121.59 14.3906C121.321 16.4556 122.134 19.3374 122.44 21.3961C123.841 30.6366 126.24 39.8001 129.501 48.6152C131.401 53.5659 133.516 58.4294 136.007 63.1664Z" fill="#F9F2F2"/>
<path d="M163.987 -11.5948C179.82 -17.1648 196.405 -21.0577 211.747 -27.658C202.029 -18.3137 190.577 -10.777 178.769 -3.99906C163.518 4.74717 147.208 12.3657 129.629 14.9796C127.148 15.3553 120.501 16.2855 123.591 12.2025C125.801 9.35337 129.022 6.89793 131.908 4.72866C137.911 0.0956803 144.678 -3.64179 151.706 -6.73244C155.651 -8.452 159.795 -10.0514 163.987 -11.5948Z" fill="#F9F2F2"/>
<path d="M177.209 3.12703C194.63 -5.34181 212.266 -13.8978 231.254 -18.4857C225.929 -13.8508 220.659 -9.26354 215.286 -4.68459C211.92 -1.71908 208.45 1.23816 204.845 3.92382C195.029 11.2259 183.695 16.6333 171.658 19.7416C165.584 21.3434 159.352 22.3067 153.009 22.6874C150.704 22.8164 147.186 23.1094 148.854 19.8519C150.145 17.3989 154.099 15.5757 156.352 14.1384C163.04 10.0817 170.101 6.57637 177.209 3.12703Z" fill="#F9F2F2"/>
<path d="M252.76 -8.21472C239.196 1.60513 225.632 11.425 210.814 19.319C203.353 23.2619 195.566 26.7093 187.321 28.7117C183.115 29.7844 178.79 30.3783 174.45 30.5015C173.509 30.5307 169.56 30.998 169.196 29.6649C168.968 28.6034 173.073 26.8444 173.952 26.2886C189.763 17.0654 206.091 8.56154 223.171 1.73484C232.921 -2.1297 242.734 -5.46764 252.76 -8.21472Z" fill="#F9F2F2"/>
<path d="M267.537 21.0283C253.873 26.8757 240.161 32.6672 225.761 36.6301C218.561 38.6116 211.091 40.0499 203.617 40.2359C199.804 40.2968 195.912 40.0384 192.11 39.3177C191.336 39.2038 187.764 38.8666 187.76 37.6143C187.786 36.6253 191.649 35.9424 192.559 35.6499C208.079 30.733 223.852 26.5666 239.971 23.9407C249.116 22.4274 258.323 21.4407 267.537 21.0283Z" fill="#F9F2F2"/>
<path d="M148.744 30.3807C149.157 33.7 149.562 37.1229 149.975 40.4422C150.403 44.2321 150.934 48.0303 151.626 51.7891C155.274 70.1289 165.54 86.5972 175.912 102.396C175.751 94.6105 173.539 87.0268 171.902 79.4367C169.594 69.1329 168.236 58.6961 165.346 48.5022C163.435 41.7249 160.79 34.9934 156.995 28.9526C155.749 26.9231 153.37 22.0907 150.442 22.17C146.988 22.3117 148.503 28.1706 148.744 30.3807Z" fill="#F9F2F2"/>
<path d="M169.441 33.8053C172.407 62.0017 181.668 89.7615 196.489 114.522C195.294 102.69 193.055 90.8788 190.225 79.2812C187.473 68.003 184.187 56.8907 179.511 46.1892C177.839 42.3 175.96 38.3943 173.913 34.6317C173.413 33.705 171.853 29.7204 170.817 29.6377C169.007 29.4411 169.316 32.7521 169.441 33.8053Z" fill="#F9F2F2"/>
<path d="M188.624 41.8043C198.634 64.0945 213.707 84.3892 232.277 100.738C228.068 91.3775 223.053 82.3181 217.646 73.5927C212.374 65.1388 206.671 56.8591 200.072 49.3426C197.631 46.5919 195.079 43.9365 192.414 41.3765C191.786 40.7525 189.457 37.9063 188.611 38.0475C187.126 38.3464 188.275 40.9419 188.624 41.8043Z" fill="#F9F2F2"/>
<path d="M215.606 50.7907C209.618 47.3917 203.261 44.6935 197.08 41.7486C190.54 38.7229 184.104 35.7054 177.611 32.7357C164.675 26.8522 151.77 21.232 138.294 16.8704C112.364 8.43722 86.1368 0.449913 59.6987 -6.198C44.3554 -10.0305 28.7946 -13.098 13.1117 -15.2884C11.1503 -15.5492 10.8709 -12.7025 12.7764 -12.3939C40.0433 -8.28808 66.8235 -1.35204 93.2743 6.44449C119.621 14.2327 145.921 21.965 171.045 33.3072C178.095 36.4779 185.145 39.6487 192.195 42.8194C199.548 46.1186 206.923 49.7848 214.589 52.4309C215.696 52.9365 216.705 51.4 215.606 50.7907Z" fill="#F9F2F2"/>
<path d="M259.958 91.1579C256.118 81.0969 247.886 73.1371 239.011 66.6909C234.92 63.7041 230.644 61.0677 226.432 58.2799C224.299 56.9099 222.165 55.5399 220.087 54.1221C218.161 52.7687 216.077 50.7766 213.958 49.8772C212.652 51.8596 218.042 58.1842 219.257 59.9504C221.648 63.3232 224.263 66.5052 227.158 69.4487C232.987 75.4954 239.76 80.8348 247.038 85.0671C251.123 87.4796 255.448 89.494 259.958 91.1579Z" fill="#F9F2F2"/>
<path d="M275.256 46.5266C266.147 52.1637 254.785 53.3436 243.811 52.9374C238.819 52.7477 233.747 52.2387 228.724 51.7856C226.236 51.5871 223.7 51.3326 221.156 51.1817C218.819 51.0474 215.923 51.3901 213.731 50.7458C213.922 48.3614 221.982 46.7094 224.066 46.0932C227.97 44.892 232 44.066 236.07 43.3997C244.408 42.1872 252.911 42.1875 261.37 43.3842C266.066 44.0198 270.73 45.07 275.256 46.5266Z" fill="#F9F2F2"/>
</g>
</svg>
