<svg width="178" height="134" viewBox="0 0 178 134" fill="none" xmlns="http://www.w3.org/2000/svg">
<path d="M148.752 12.6742C147.27 8.91909 145.789 5.16396 144.719 1.29145C142.984 -4.9869 142.419 -11.5785 142.988 -18.1098C143.111 -19.72 145.247 -20.1784 145.948 -18.8029C147.336 -16.0004 148.711 -13.1464 150.035 -10.305C151.332 -7.5795 152.565 -4.81509 153.606 -1.9341C157.546 8.71495 158.862 20.2491 159.058 31.6713C159.107 34.5816 159.544 38.1344 158.898 40.9828C156.898 36.444 155.683 31.3872 154.043 26.7183C152.314 21.9724 150.558 17.3297 148.752 12.6742Z" fill="#F9F2F2"/>
<path d="M142.274 16.11C145.795 24.9061 148.018 34.3121 147.628 43.8948C147.534 46.4965 147.221 49.0991 146.909 51.7016C146.584 54.5746 146.247 57.4991 145.871 60.3594C145.08 58.907 144.791 57.1952 144.373 55.5612C143.131 50.3886 140.641 45.6197 138.486 40.8239C134.137 31.1679 130.856 20.9543 128.848 10.4529C128.284 7.63461 127.823 4.8417 127.658 1.95757C127.496 -0.26977 126.926 -4.83948 128.193 -6.87877C129.973 -9.66681 132.183 -3.98256 132.87 -2.77447C134.516 0.0914845 136.149 3.00899 137.666 5.95267C139.352 9.32073 140.884 12.6507 142.274 16.11Z" fill="#F9F2F2"/>
<path d="M99.2351 -5.42318C91.8092 -7.68896 84.2294 -9.77388 76.4615 -10.4287C67.4055 -11.1819 58.3049 -9.97742 49.217 -8.82454C63.5867 -5.88816 76.9893 0.309849 91.067 4.43206C95.8627 5.83152 100.773 6.98589 105.821 6.91633C108.564 6.88077 111.293 6.45891 113.995 5.70232C116.529 4.9592 118.65 3.89561 115.899 1.74191C111.212 -1.87298 104.818 -3.66595 99.2351 -5.42318Z" fill="#F9F2F2"/>
<path d="M127.582 63.5669C123.331 52.4039 119.105 41.1377 117.054 29.2585C116.251 24.5222 115.783 19.7589 115.328 14.9441C114.941 10.9661 114.591 6.83348 115.956 3.06818C118.338 6.71707 119.59 10.9624 121.034 15.0911C124.208 23.9657 128.603 32.3208 130.838 41.4563C131.976 46.1657 132.508 51.109 132.449 56.0158C132.375 60.5363 132.216 66.5124 130.312 70.6917C129.197 68.5579 128.479 65.9204 127.582 63.5669Z" fill="#F9F2F2"/>
<path d="M112.345 52.1597C112.269 56.2424 111.975 60.3258 111.629 64.3966C111.073 71.0952 110.363 77.7558 109.537 84.4425C109.487 84.8676 108.869 84.9342 108.764 84.471C108.118 80.2106 106.558 76.1081 105.217 72.0047C100.711 57.8806 99.3169 42.6636 101.144 27.6926C101.556 24.2398 102.188 20.7862 103.528 17.5618C104.103 16.1174 104.753 14.3636 105.88 16.008C106.721 17.2542 107.128 19.3777 107.597 20.8055C109.68 27.2242 111.095 33.9158 111.84 40.6613C112.214 44.4719 112.421 48.296 112.345 52.1597Z" fill="#F9F2F2"/>
<path d="M70.1061 12.9422C58.0833 14.4662 46.1168 17.3164 34.0782 18.0162C43.3737 20.9063 53.2039 22.0689 63.0191 22.6262C75.6937 23.3407 88.6866 22.9852 100.881 18.988C102.604 18.4281 107.196 16.8791 103.881 15.2426C101.533 14.1177 98.6593 13.5742 96.0948 13.1069C90.7209 12.0572 85.1438 11.8324 79.6072 12.1098C76.5042 12.2754 73.3115 12.583 70.1061 12.9422Z" fill="#F9F2F2"/>
<path d="M66.3305 26.7226C52.3454 26.8885 38.1929 27.0679 24.4504 30.2464C29.3873 31.5166 34.2726 32.7741 39.2222 33.9927C42.3545 34.8186 45.5511 35.6056 48.747 36.1737C57.4452 37.7137 66.5109 37.5397 75.287 35.6538C79.7267 34.7236 84.0616 33.3302 88.2792 31.525C89.8094 30.8628 92.1756 29.9142 90.0451 28.3507C88.4183 27.1846 85.2763 27.286 83.3568 27.0868C77.7274 26.6304 72.0353 26.6507 66.3305 26.7226Z" fill="#F9F2F2"/>
<path d="M13.8867 43.8319C25.8189 45.7854 37.7511 47.7388 49.8705 48.0432C55.9624 48.176 62.1042 47.8836 68.0748 46.5101C71.1374 45.8423 74.1215 44.8272 76.9629 43.5034C77.58 43.2179 80.2809 42.2424 80.0843 41.2643C79.8884 40.5052 76.6695 40.697 75.9223 40.6224C62.7321 39.781 49.441 39.5709 36.2062 40.6871C28.662 41.3451 21.2478 42.3632 13.8867 43.8319Z" fill="#F9F2F2"/>
<path d="M13.8047 67.4895C24.517 66.8459 35.2421 66.1508 45.8204 64.0525C51.1096 63.0033 56.3972 61.5163 61.2827 59.2194C63.7639 58.0258 66.1928 56.6005 68.4147 54.9055C68.8772 54.5819 71.0744 53.2089 70.6723 52.3991C70.3352 51.7692 67.6208 52.5774 66.9386 52.6828C55.3291 54.5273 43.7989 56.9381 32.5431 60.4554C26.1497 62.4358 19.8864 64.7762 13.8047 67.4895Z" fill="#F9F2F2"/>
<path d="M93.5204 35.112C94.327 37.3886 95.1724 39.7294 95.979 42.0059C96.9284 44.591 97.8135 47.215 98.5827 49.8652C102.158 62.8851 100.856 76.8368 99.2685 90.3904C96.855 85.3121 95.8304 79.7009 94.4331 74.2713C92.5908 66.8729 90.0925 59.6958 88.662 52.1801C87.704 47.1868 87.2347 41.9857 87.7315 36.8584C87.8799 35.145 87.8531 31.2559 89.7688 30.3605C92.0445 29.335 92.9613 33.6072 93.5204 35.112Z" fill="#F9F2F2"/>
<path d="M81.2667 44.016C88.4697 63.1788 91.4679 84.0951 89.9066 104.873C86.8515 96.8481 84.4779 88.4987 82.5547 80.0961C80.6839 71.9251 79.2121 63.6883 78.7699 55.2676C78.5916 52.2161 78.5418 49.0869 78.6467 45.9957C78.6697 45.2359 78.3883 42.159 79.0308 41.7703C80.1358 41.0581 81.0066 43.2958 81.2667 44.016Z" fill="#F9F2F2"/>
<path d="M71.4687 55.3838C72.2143 73.0114 69.0461 90.9877 62.3442 107.547C62.0344 100.143 62.3426 92.673 63.0116 85.2914C63.6814 78.1287 64.686 70.9391 66.5155 63.9526C67.2017 61.3874 67.9911 58.8476 68.8836 56.3331C69.0875 55.7271 69.6706 53.1365 70.2624 52.9541C71.3173 52.667 71.4148 54.7143 71.4687 55.3838Z" fill="#F9F2F2"/>
<path d="M56.9551 69.9108C59.722 65.7799 62.9537 61.9822 65.9919 58.0821C69.2356 54.0139 72.415 49.9845 75.6459 45.9679C82.0951 37.9861 88.6093 30.1844 95.8985 23.0109C109.912 9.18121 124.261 -4.45655 139.18 -17.2979C147.846 -24.7338 156.9 -31.7462 166.316 -38.2318C167.498 -39.0345 168.599 -37.287 167.469 -36.4716C151.193 -25.0034 136.147 -11.8654 121.592 1.72163C107.101 15.2698 92.6222 28.7663 80.0697 44.2135C76.5437 48.5403 73.0177 52.8671 69.4916 57.1939C65.8117 61.7015 62.2357 66.4535 58.1425 70.6406C57.5912 71.3251 56.4426 70.6596 56.9551 69.9108Z" fill="#F9F2F2"/>
<path d="M41.3745 110.314C40.5999 102.577 43.3408 94.7757 46.986 87.7441C48.6614 84.4928 50.5692 81.4081 52.3866 78.2464C53.3211 76.672 54.2556 75.0975 55.1385 73.5103C55.9445 72.0136 56.6458 70.0536 57.723 68.7877C59.2071 69.6452 57.7727 75.4713 57.5592 77.0045C57.1062 79.9552 56.4469 82.8552 55.5298 85.6917C53.7218 91.4804 51.0761 97.1177 47.746 102.204C45.8889 105.082 43.7479 107.781 41.3745 110.314Z" fill="#F9F2F2"/>
<path d="M17.0654 86.4473C24.7691 87.1409 32.4856 84.2286 39.439 80.4176C42.6009 78.6806 45.7103 76.712 48.8071 74.795C50.3492 73.8622 51.9039 72.8779 53.4975 71.9579C54.9626 71.1156 56.9433 70.4002 58.1498 69.2755C57.256 67.7977 51.5178 69.3378 49.9734 69.6138C47.0647 70.1007 44.1956 70.8707 41.3527 71.7566C35.5772 73.6703 30.0881 76.4201 25.0137 79.9283C22.1874 81.8572 19.5166 84.0432 17.0654 86.4473Z" fill="#F9F2F2"/>
</svg>
