<svg width="114" height="253" viewBox="0 0 114 253" fill="none" xmlns="http://www.w3.org/2000/svg">
<path d="M-23.3613 188.877C-14.7517 192.861 -5.40937 195.583 4.25578 195.867C-0.688168 193.264 -5.66041 190.715 -10.6044 188.112C-14.4198 186.103 -18.2635 184.148 -21.7989 181.738C-24.9864 179.579 -27.8683 177.101 -30.8606 174.702C-34.5203 171.746 -38.1546 168.871 -41.9813 166.101C-45.378 163.558 -48.9388 161.066 -52.924 159.379C-54.1628 158.864 -57.7096 156.997 -59.0815 157.647C-61.3021 158.606 -58.5842 161.135 -57.7895 162.102C-51.992 169.342 -45.1167 175.707 -37.404 181.003C-32.9296 183.976 -28.2855 186.627 -23.3613 188.877Z" fill="#F9F2F2"/>
<path d="M-25.4202 165.281C-17.8007 169.841 -9.96058 174.244 -1.51773 177.11C8.32802 180.441 18.7624 181.611 29.1685 182.834C14.0254 175.616 0.854345 165.044 -13.638 156.59C-18.5762 153.716 -23.7097 151.082 -29.3327 149.768C-32.3875 149.052 -35.5328 148.769 -38.7404 148.865C-41.7585 148.991 -44.4061 149.588 -41.9457 152.736C-37.7376 158.041 -31.1334 161.792 -25.4202 165.281Z" fill="#F9F2F2"/>
<path d="M-24.1123 97.746C-22.9039 93.2346 -21.4522 88.7826 -19.9467 84.359C-17.4848 77.0758 -14.8617 69.8775 -12.1028 62.682C-11.9302 62.2238 -11.2259 62.3201 -11.2373 62.8632C-11.6934 67.7707 -11.0917 72.7547 -10.7332 77.6793C-9.62114 94.5999 -12.2655 111.876 -18.4171 127.993C-19.8263 131.712 -21.4787 135.372 -23.8552 138.582C-24.8906 140.027 -26.0958 141.795 -26.8932 139.659C-27.4841 138.044 -27.3508 135.575 -27.4779 133.861C-28.0227 126.161 -27.75 118.343 -26.7193 110.65C-26.0851 106.316 -25.2613 102.014 -24.1123 97.746Z" fill="#F9F2F2"/>
<path d="M11.9742 152.917C25.7406 154.537 39.8098 154.669 53.3668 157.208C43.8438 151.439 33.2515 147.441 22.5091 144.119C8.63557 139.834 -5.88581 136.65 -20.5238 137.728C-22.5915 137.875 -28.1157 138.33 -24.8859 141.06C-22.5894 142.955 -19.5489 144.35 -16.8308 145.575C-11.1543 148.221 -5.02502 150.007 1.19764 151.224C4.68799 151.895 8.31696 152.433 11.9742 152.917Z" fill="#F9F2F2"/>
<path d="M19.9626 138.659C35.5333 142.327 51.2935 146.026 67.4248 146.283C62.2942 143.513 57.2173 140.772 52.0584 138.055C48.8086 136.276 45.4768 134.522 42.0856 133.011C32.8537 128.905 22.742 126.601 12.48 126.277C7.29526 126.087 2.09913 126.44 -3.08009 127.282C-4.96112 127.596 -7.84914 127.997 -5.91474 130.319C-4.42999 132.062 -0.914207 132.815 1.16185 133.565C7.28539 135.622 13.6098 137.167 19.9626 138.659Z" fill="#F9F2F2"/>
<path d="M82.8926 134.111C70.1846 128.656 57.4767 123.201 44.1066 119.525C37.3805 117.699 30.4819 116.332 23.4755 116.212C19.8918 116.11 16.2994 116.415 12.7806 117.102C12.0169 117.249 8.74983 117.588 8.69875 118.728C8.70711 119.624 12.3332 120.298 13.1422 120.587C27.553 125.154 42.2497 129.048 57.2492 131.455C65.8054 132.802 74.3164 133.714 82.8926 134.111Z" fill="#F9F2F2"/>
<path d="M89.501 107.872C77.4318 105.635 65.3344 103.453 53.0132 102.868C46.8527 102.576 40.5732 102.77 34.5171 103.975C31.4339 104.616 28.345 105.529 25.4115 106.799C24.809 107.031 21.9917 107.95 22.215 108.96C22.4157 109.752 25.6516 109.602 26.4379 109.673C39.8338 110.823 53.2977 111.323 66.7618 110.519C74.4046 110.081 82.0023 109.209 89.501 107.872Z" fill="#F9F2F2"/>
<path d="M-7.91088 121.856C-8.1792 119.107 -8.47296 116.275 -8.74127 113.526C-9.08308 110.395 -9.34285 107.238 -9.46685 104.084C-9.8493 88.6457 -4.56054 73.5165 0.934639 58.9077C2.21507 65.2099 1.80681 71.7212 1.86246 78.1336C1.86968 86.8541 2.66609 95.5096 2.18397 104.247C1.87199 110.054 0.960345 115.957 -1.00348 121.512C-1.64018 123.373 -2.68171 127.698 -5.05494 128.164C-7.86378 128.676 -7.70466 123.681 -7.91088 121.856Z" fill="#F9F2F2"/>
<path d="M8.14513 115.347C5.42741 92.0903 7.8606 68.0451 15.3171 45.4091C16.4981 55.1594 16.8332 65.082 16.6536 74.9395C16.4797 84.5255 15.8447 94.0746 14.0161 103.544C13.3735 106.981 12.5669 110.469 11.599 113.871C11.3641 114.708 10.829 118.202 10.0087 118.456C8.58586 118.942 8.23552 116.218 8.14513 115.347Z" fill="#F9F2F2"/>
<path d="M22.1538 105.427C26.1817 85.6528 34.6504 66.5697 46.6515 50.0328C44.956 58.3372 42.5562 66.5454 39.7802 74.5555C37.0637 82.3223 33.9681 90.0269 30.0127 97.2787C28.5443 99.9374 26.9684 102.539 25.2851 105.085C24.8918 105.701 23.5309 108.417 22.8237 108.456C21.5735 108.484 22.0292 106.185 22.1538 105.427Z" fill="#F9F2F2"/>
<path d="M42.2673 93.2979C38.0579 97.1215 33.4242 100.447 28.9772 103.94C24.2558 107.563 19.6164 111.16 14.9233 114.729C5.56543 121.813 -3.81508 128.679 -13.8828 134.635C-33.2488 146.127 -52.9344 157.314 -73.0328 167.46C-84.7014 173.328 -96.684 178.618 -108.924 183.224C-110.457 183.79 -111.198 181.547 -109.718 180.953C-88.4916 172.705 -68.1697 162.265 -48.2692 151.191C-28.4507 140.143 -8.66047 129.148 9.52916 115.458C14.6353 111.626 19.7414 107.794 24.8475 103.962C30.1742 99.9716 35.453 95.6814 41.1502 92.1607C41.9508 91.5527 43.0424 92.6079 42.2673 93.2979Z" fill="#F9F2F2"/>
<path d="M70.6911 52.7375C69.4198 61.5398 64.2282 69.4449 58.2448 76.2467C55.4894 79.3945 52.5218 82.2934 49.6334 85.3025C48.1623 86.793 46.6912 88.2834 45.2739 89.8022C43.9669 91.2417 42.6485 93.2243 41.104 94.3329C39.6927 92.9722 42.8899 86.8997 43.5491 85.2564C44.8649 82.1056 46.3956 79.0679 48.1949 76.1717C51.7966 70.2436 56.2863 64.7144 61.384 59.9858C64.2385 57.3019 67.3587 54.8952 70.6911 52.7375Z" fill="#F9F2F2"/>
<path d="M91.1025 85.9279C82.7417 83.0359 73.3734 84.1434 64.6045 86.4587C60.6161 87.516 56.6219 88.8448 52.6561 90.12C50.6873 90.7306 48.6903 91.3951 46.6678 91.9775C44.8093 92.509 42.4135 92.7575 40.7643 93.6737C41.3496 95.5605 48.1438 95.4314 49.9342 95.5504C53.2974 95.8111 56.6945 95.7466 60.0944 95.5462C67.033 95.0126 73.884 93.472 80.4834 90.9754C84.1522 89.6125 87.7193 87.9216 91.1025 85.9279Z" fill="#F9F2F2"/>
</svg>
