<svg width="38" height="39" viewBox="0 0 38 39" fill="none" xmlns="http://www.w3.org/2000/svg">
<g filter="url(#filter0_d)">
<path fill-rule="evenodd" clip-rule="evenodd" d="M7.83333 6.27409L5.41667 8.69075C4.9 9.20742 4 8.84075 4 8.09075V0.940755C4 0.474088 4.36667 0.107422 4.83333 0.107422H11.9833C12.7333 0.107422 13.1 1.00742 12.5833 1.52409L10.1667 3.94075L13.8 7.54075C14.45 8.19075 14.45 9.25742 13.8 9.90742C13.15 10.5574 12.0833 10.5574 11.4333 9.90742L7.83333 6.27409ZM27.8337 3.94075L25.4171 1.52409C24.9004 1.00742 25.2671 0.107422 26.0171 0.107422H33.1671C33.6337 0.107422 34.0004 0.474088 34.0004 0.940755V8.09075C34.0004 8.84075 33.1004 9.20742 32.5837 8.69075L30.1671 6.27409L26.5671 9.90742C25.9171 10.5574 24.8504 10.5574 24.2004 9.90742C23.5504 9.25742 23.5504 8.19075 24.2004 7.54075L27.8337 3.94075ZM12.5833 28.6907L10.1667 26.274L13.8 22.674C14.45 22.024 14.45 20.9574 13.8 20.3074C13.15 19.6574 12.0833 19.6574 11.4333 20.3074L7.83333 23.9407L5.41667 21.524C4.9 21.0074 4 21.374 4 22.124V29.274C4 29.7407 4.36667 30.1074 4.83333 30.1074H11.9833C12.7333 30.1074 13.1 29.2074 12.5833 28.6907ZM30.1671 23.9407L32.5837 21.524C33.1004 21.0074 34.0004 21.374 34.0004 22.124V29.274C34.0004 29.7407 33.6337 30.1074 33.1671 30.1074H26.0171C25.2671 30.1074 24.9004 29.2074 25.4171 28.6907L27.8337 26.274L24.2004 22.674C23.5504 22.024 23.5504 20.9574 24.2004 20.3074C24.8504 19.6574 25.9171 19.6574 26.5671 20.3074L30.1671 23.9407Z" fill="url(#paint0_linear)"/>
</g>
<defs>
<filter id="filter0_d" x="0" y="0.107422" width="38.0004" height="37.9999" filterUnits="userSpaceOnUse" color-interpolation-filters="sRGB">
<feFlood flood-opacity="0" result="BackgroundImageFix"/>
<feColorMatrix in="SourceAlpha" type="matrix" values="0 0 0 0 0 0 0 0 0 0 0 0 0 0 0 0 0 0 127 0"/>
<feOffset dy="4"/>
<feGaussianBlur stdDeviation="2"/>
<feColorMatrix type="matrix" values="0 0 0 0 0 0 0 0 0 0 0 0 0 0 0 0 0 0 0.25 0"/>
<feBlend mode="normal" in2="BackgroundImageFix" result="effect1_dropShadow"/>
<feBlend mode="normal" in="SourceGraphic" in2="effect1_dropShadow" result="shape"/>
</filter>
<linearGradient id="paint0_linear" x1="33.1871" y1="11.8019" x2="4.38058" y2="11.9736" gradientUnits="userSpaceOnUse">
<stop offset="0.4375" stop-color="#12CAD6"/>
<stop offset="1" stop-color="#12B3D6"/>
</linearGradient>
</defs>
</svg>
