<svg width="126" height="171" viewBox="0 0 126 171" fill="none" xmlns="http://www.w3.org/2000/svg">
<g opacity="0.86">
<path d="M128.916 89.2271C128.502 92.3339 128.088 95.4406 128.006 98.5588C127.872 103.614 128.679 108.687 130.329 113.502C130.723 114.693 132.418 114.639 132.689 113.471C133.211 111.1 133.714 108.692 134.18 106.303C134.648 104.007 135.06 101.693 135.306 99.3277C136.284 90.5663 135.119 81.6285 133.13 72.9847C132.623 70.7824 132.289 68.0233 131.269 65.9978C130.611 69.7919 130.64 73.8298 130.278 77.6547C129.862 81.5544 129.407 85.3812 128.916 89.2271Z" fill="#F9F2F2"/>
<path d="M123.392 87.8495C124.401 80.5627 124.317 73.059 122.231 65.9109C121.674 63.9679 120.952 62.0652 120.23 60.1625C119.448 58.0582 118.647 55.9175 117.829 53.8324C117.504 55.0747 117.606 56.4188 117.597 57.7282C117.628 61.8583 116.644 65.9175 115.917 69.9344C114.445 78.0238 113.882 86.334 114.332 94.6229C114.434 96.8521 114.609 99.0428 115.024 101.247C115.318 102.956 115.743 106.506 117.08 107.806C118.943 109.574 119.545 104.877 119.836 103.838C120.541 101.371 121.226 98.8672 121.819 96.3652C122.46 93.5119 122.991 90.7162 123.392 87.8495Z" fill="#F9F2F2"/>
<path d="M115.063 128.575C110.206 133.509 104.613 137.664 98.7173 141.421C101.464 137.878 104.267 134.352 106.696 130.558C108.214 128.221 109.583 125.777 111.157 123.457C112.802 121.007 114.727 118.735 116.785 116.626C118.085 115.29 119.515 114.024 121.155 113.068C122.32 112.361 124.983 110.959 126.362 111.631C125.598 114.782 123.416 117.981 121.59 120.619C119.732 123.461 117.501 126.127 115.063 128.575Z" fill="#F9F2F2"/>
<path d="M93.5885 128.141C87.7442 130.845 81.4025 132.693 74.8416 132.886C78.1976 131.119 81.5729 129.388 84.9289 127.622C87.5189 126.258 90.1281 124.931 92.5279 123.295C94.6916 121.829 96.6479 120.147 98.6791 118.518C101.163 116.512 103.63 114.56 106.228 112.68C108.534 110.954 110.951 109.262 113.656 108.117C114.497 107.768 116.905 106.5 117.836 106.941C119.343 107.592 117.498 109.309 116.959 109.966C113.023 114.88 108.356 119.201 103.121 122.796C100.084 124.814 96.9311 126.614 93.5885 128.141Z" fill="#F9F2F2"/>
<path d="M94.9858 112.123C89.8136 115.219 84.4916 118.208 78.7605 120.153C72.077 122.414 64.994 123.208 57.9302 124.039C68.2095 119.139 77.1503 111.963 86.9879 106.224C90.3401 104.273 93.8247 102.485 97.6417 101.593C99.7153 101.107 101.85 100.915 104.028 100.98C106.076 101.066 107.874 101.471 106.204 103.608C103.347 107.209 98.864 109.755 94.9858 112.123Z" fill="#F9F2F2"/>
<path d="M103.447 54.8348C102.331 64.0417 101.254 73.3215 101.929 82.6568C102.21 86.376 102.748 90.0528 103.305 93.7662C103.757 96.8363 104.266 100.016 105.998 102.598C107.112 99.4029 107.261 95.9698 107.577 92.5885C108.31 85.3075 110.06 78.1896 110.036 70.8875C110.012 67.1261 109.489 63.3014 108.527 59.615C107.626 56.2224 106.389 51.7488 104.172 48.9554C103.731 50.7719 103.683 52.8936 103.447 54.8348Z" fill="#F9F2F2"/>
<path d="M94.0983 66.2798C93.278 63.2174 92.2926 60.1953 91.2706 57.1925C89.5995 52.2485 87.8189 47.3622 85.9461 42.4778C85.8289 42.1668 85.3508 42.2321 85.3586 42.6008C85.6682 45.9321 85.2597 49.3153 85.0163 52.6582C84.2615 64.1441 86.0565 75.8717 90.2323 86.8116C91.1889 89.3364 92.3106 91.8208 93.9237 93.9999C94.6266 94.9809 95.4447 96.1808 95.986 94.7311C96.3871 93.6347 96.2966 91.9585 96.3829 90.7949C96.7527 85.5684 96.5676 80.2614 95.8679 75.0389C95.4374 72.0974 94.8783 69.177 94.0983 66.2798Z" fill="#F9F2F2"/>
<path d="M69.6014 103.73C60.2566 104.83 50.7062 104.92 41.5035 106.643C47.9678 102.727 55.1581 100.013 62.4502 97.7581C71.8677 94.8497 81.7251 92.6882 91.6615 93.4203C93.0651 93.5199 96.8151 93.8285 94.6226 95.6817C93.0637 96.9684 90.9998 97.9153 89.1547 98.7469C85.3014 100.543 81.1407 101.755 76.9167 102.581C74.5474 103.037 72.084 103.402 69.6014 103.73Z" fill="#F9F2F2"/>
<path d="M64.1797 94.0521C53.6101 96.542 42.9118 99.0531 31.9617 99.2275C35.4444 97.3472 38.8907 95.4862 42.3926 93.6424C44.5986 92.4344 46.8603 91.2436 49.1623 90.218C55.429 87.431 62.293 85.8671 69.259 85.6472C72.7785 85.5181 76.3057 85.7576 79.8214 86.3292C81.0983 86.5422 83.0587 86.8146 81.7456 88.3911C80.7378 89.574 78.3512 90.0851 76.9419 90.5941C72.7852 91.9906 68.4921 93.0396 64.1797 94.0521Z" fill="#F9F2F2"/>
<path d="M21.4617 90.9651C30.088 87.2619 38.7144 83.5588 47.7902 81.0633C52.3559 79.8242 57.0388 78.8961 61.7948 78.8148C64.2276 78.7453 66.6661 78.9524 69.0547 79.4186C69.5732 79.5184 71.7909 79.7485 71.8255 80.5222C71.8199 81.1309 69.3584 81.5882 68.8093 81.7842C59.027 84.8846 49.0507 87.528 38.8688 89.1616C33.0607 90.0763 27.2833 90.6954 21.4617 90.9651Z" fill="#F9F2F2"/>
<path d="M16.9756 73.1532C25.1683 71.6352 33.3802 70.1536 41.744 69.7569C45.9259 69.5585 50.1885 69.6904 54.2995 70.5077C56.3924 70.9433 58.4892 71.5632 60.4805 72.425C60.8894 72.5824 62.8019 73.2061 62.6503 73.8916C62.5141 74.4292 60.3175 74.3278 59.7837 74.3759C50.6904 75.1567 41.5509 75.496 32.4113 74.9501C27.2232 74.6532 22.0658 74.0607 16.9756 73.1532Z" fill="#F9F2F2"/>
<path d="M83.1004 82.6462C83.2825 80.7798 83.4819 78.8578 83.6641 76.9915C83.8961 74.8659 84.0724 72.7231 84.1566 70.5822C84.4162 60.1024 80.8261 49.8325 77.0959 39.9158C76.2267 44.1939 76.5039 48.6138 76.4661 52.9667C76.4612 58.8862 75.9206 64.7617 76.2478 70.6928C76.4596 74.6347 77.0785 78.6418 78.4115 82.4126C78.8437 83.6759 79.5507 86.6116 81.1617 86.9282C83.0684 87.2755 82.9604 83.8846 83.1004 82.6462Z" fill="#F9F2F2"/>
<path d="M72.2014 78.2276C74.0462 62.4405 72.3945 46.1182 67.3329 30.7526C66.5313 37.3712 66.3038 44.1069 66.4257 50.7983C66.5438 57.3054 66.9748 63.7875 68.2161 70.2157C68.6523 72.5486 69.1998 74.9159 69.8568 77.2257C70.0163 77.794 70.3795 80.1652 70.9364 80.338C71.9022 80.6681 72.14 78.819 72.2014 78.2276Z" fill="#F9F2F2"/>
<path d="M62.6922 71.4934C59.958 58.0706 54.2094 45.1167 46.0628 33.8912C47.2138 39.5284 48.8428 45.1002 50.7272 50.5376C52.5712 55.8098 54.6725 61.0398 57.3575 65.9625C58.3542 67.7672 59.424 69.5335 60.5667 71.2614C60.8336 71.6799 61.7574 73.5231 62.2375 73.5499C63.0861 73.5689 62.7768 72.008 62.6922 71.4934Z" fill="#F9F2F2"/>
<path d="M49.0394 63.2602C51.8969 65.8557 55.0423 68.1132 58.061 70.4841C61.2659 72.9432 64.4152 75.3851 67.6009 77.8078C73.9532 82.6166 80.3209 87.2776 87.155 91.3203C100.301 99.1216 113.664 106.715 127.307 113.603C135.228 117.586 143.362 121.177 151.67 124.304C152.711 124.687 153.214 123.165 152.21 122.762C137.801 117.163 124.006 110.076 110.497 102.559C97.0439 95.0592 83.61 87.5959 71.2626 78.3026C67.7965 75.7014 64.3304 73.1002 60.8643 70.499C57.2484 67.7903 53.6651 64.8781 49.7977 62.4882C49.2543 62.0754 48.5133 62.7917 49.0394 63.2602Z" fill="#F9F2F2"/>
<path d="M29.7446 35.7273C30.6076 41.7025 34.1317 47.0686 38.1933 51.6858C40.0638 53.8225 42.0782 55.7903 44.0389 57.833C45.0375 58.8447 46.036 59.8564 46.9982 60.8874C47.8854 61.8646 48.7803 63.2104 49.8288 63.9629C50.7868 63.0392 48.6165 58.9172 48.1689 57.8017C47.2758 55.6628 46.2368 53.6008 45.0153 51.6348C42.5705 47.6107 39.5228 43.8574 36.0623 40.6476C34.1247 38.8257 32.0067 37.192 29.7446 35.7273Z" fill="#F9F2F2"/>
<path d="M15.8887 58.2574C21.5641 56.2943 27.9235 57.0461 33.8759 58.6177C36.5834 59.3355 39.2946 60.2375 41.9867 61.1031C43.3231 61.5176 44.6787 61.9686 46.0517 62.364C47.3132 62.7248 48.9395 62.8935 50.059 63.5154C49.6617 64.7962 45.0497 64.7085 43.8343 64.7893C41.5514 64.9663 39.2454 64.9225 36.9374 64.7865C32.2274 64.4243 27.5769 63.3785 23.0971 61.6837C20.6066 60.7586 18.1853 59.6108 15.8887 58.2574Z" fill="#F9F2F2"/>
</g>
</svg>
