<svg width="134" height="111" viewBox="0 0 134 111" fill="none" xmlns="http://www.w3.org/2000/svg">
<g clip-path="url(#clip0)">
<path fill-rule="evenodd" clip-rule="evenodd" d="M133.528 33.988L107.377 100.396C103.595 109.459 75.3056 110.118 66.9176 110.118C58.694 110.118 30.405 109.459 26.4577 100.396L0.306824 33.988C-0.35106 32.0106 1.78706 30.1979 3.59624 31.3514L25.7998 45.8524L31.7208 32.9993C32.2142 32.0106 33.3655 31.5162 34.5168 32.0106L50.1415 38.9315L57.2138 28.0557C46.3587 19.1574 52.6086 1.03113 66.9176 1.03113C81.2266 1.03113 87.6409 19.1574 76.6214 28.0557L84.187 39.4259L99.3184 32.0106C100.47 31.5162 101.785 32.0106 102.279 32.9993L108.035 45.5229L130.403 31.3514C132.213 30.1979 134.351 32.0106 133.528 33.988ZM86.4896 43.0511L94.2198 54.4212L104.417 47.8299L99.3184 36.7893L86.4896 43.0511ZM29.4182 48.1594L39.6154 54.7508L47.6745 42.5568L34.6813 36.7893L29.4182 48.1594ZM103.266 99.2425C102.772 97.1003 89.4501 92.816 66.9176 92.816C44.5495 92.816 31.2274 97.1003 30.734 99.4073C31.2274 101.55 44.2206 105.834 66.9176 105.834C89.7791 105.834 102.608 101.55 103.266 99.2425ZM127.278 38.4372L94.7132 59.2C93.7263 59.8591 92.4106 59.5295 91.7527 58.5408L72.0162 28.7149C71.3583 27.7262 71.6872 26.4079 72.6741 25.7488C82.0489 19.9813 78.1016 5.31552 66.9176 5.31552C55.898 5.31552 51.7863 19.9813 61.3256 25.7488C62.3124 26.4079 62.6413 27.7262 61.9835 28.7149L41.918 58.8704C41.2601 59.8591 39.9443 60.1887 38.9575 59.5295L6.72119 38.6019L25.1419 85.4007C27.2801 83.9176 30.2405 82.5993 34.5168 81.6106C37.1483 80.7867 38.2996 84.9063 35.6681 85.5655C29.0892 87.3781 27.2801 89.0259 26.9511 89.6851L29.0892 95.1229C35.8326 90.0146 54.7467 88.5316 66.9176 88.5316C79.0884 88.5316 98.1671 90.0146 104.91 95.1229L107.049 89.6851C106.72 89.1907 105.404 87.3781 98.0026 85.5655C95.2066 84.9063 96.3579 80.7867 98.9894 81.4458C103.595 82.5993 106.72 83.9176 108.693 85.4007L127.278 38.4372ZM60.3387 78.3149C55.898 78.4797 51.4573 78.8093 47.3455 79.3036C44.714 79.6332 45.0429 83.7528 47.8389 83.4233C51.9507 83.0937 56.0625 82.7641 60.5032 82.5993C63.2992 82.4345 63.1348 78.1502 60.3387 78.3149ZM86.1607 79.1389C82.2134 78.6445 77.7727 78.4797 73.332 78.3149C70.3715 78.3149 70.3715 82.4345 73.1675 82.5993C77.6082 82.5993 81.72 82.9289 85.6673 83.4233C88.4633 83.7528 88.9567 79.4684 86.1607 79.1389Z" fill="#12CAD6"/>
<path d="M76.0152 16.0141C76.0152 21.022 71.9555 25.0817 66.9475 25.0817C61.9396 25.0817 57.8799 21.022 57.8799 16.0141C57.8799 11.0061 61.9396 6.94641 66.9475 6.94641C71.9555 6.94641 76.0152 11.0061 76.0152 16.0141Z" fill="#FE674C"/>
<path d="M102.01 32.454L108.055 45.5382L104.414 47.8489L99.3303 36.8132L86.5386 43.0427L84.1909 39.3826L99.2695 31.5196C100.282 30.9915 101.531 31.4172 102.01 32.454Z" fill="#13A6D9"/>
<path d="M31.193 32.7945L25.7837 45.868L29.3999 48.2696L34.7551 36.8137L47.7016 42.5278L50.2412 38.9669L33.8489 31.7295C32.8216 31.276 31.6224 31.7569 31.193 32.7945Z" fill="#13A6D9"/>
</g>
<defs>
<clipPath id="clip0">
<rect y="0.235779" width="134" height="110" fill="white"/>
</clipPath>
</defs>
</svg>
