<svg width="134" height="132" viewBox="0 0 134 132" fill="none" xmlns="http://www.w3.org/2000/svg">
<path d="M130.754 126.196H125.93V44.4559C125.93 42.9819 124.724 41.7759 123.25 41.7759H107.438C105.964 41.7759 104.758 42.9819 104.758 44.4559V126.196H93.7704V79.2959C93.7704 77.8219 92.5644 76.6159 91.0904 76.6159H75.2784C73.8044 76.6159 72.5984 77.8219 72.5984 79.2959V126.196H61.6104V60.5359C61.6104 59.0619 60.4044 57.8559 58.9304 57.8559H43.1184C41.6444 57.8559 40.4384 59.0619 40.4384 60.5359V126.196H29.4504V90.0159C29.4504 88.5419 28.2444 87.3359 26.7704 87.3359H10.9584C9.48442 87.3359 8.27841 88.5419 8.27841 90.0159V126.196H3.45441C1.98041 126.196 0.774414 127.402 0.774414 128.876C0.774414 130.35 1.98041 131.556 3.45441 131.556H130.754C132.228 131.556 133.434 130.35 133.434 128.876C133.434 127.402 132.228 126.196 130.754 126.196ZM110.118 47.1359H120.57V126.196H110.118V47.1359ZM77.9584 81.9759H88.4104V126.196H77.9584V81.9759ZM45.7984 63.2159H56.2504V126.196H45.7984V63.2159ZM13.6384 92.6959H24.0904V126.196H13.6384V92.6959Z" fill="#12CAD6"/>
<ellipse cx="18.7397" cy="56.5268" rx="3.54683" ry="3.71184" fill="#FE674C"/>
<path d="M115.345 0.235962C109.449 0.235962 104.625 5.05996 104.625 10.956C104.625 13.1 105.295 15.244 106.501 16.852L87.3385 35.88C85.9985 35.344 84.6585 35.076 83.1845 35.076C80.6385 35.076 78.2265 36.014 76.4845 37.488L61.7445 28.242C61.7445 27.84 61.8785 27.438 61.8785 27.036C61.8785 21.14 57.0545 16.316 51.1585 16.316C45.2625 16.316 40.4385 21.14 40.4385 27.036C40.4385 28.51 40.7065 29.984 41.3765 31.324L23.0185 46.6C21.8125 46.064 20.3385 45.796 18.8645 45.796C12.9685 45.796 8.14453 50.62 8.14453 56.516C8.14453 62.412 12.9685 67.236 18.8645 67.236C24.7605 67.236 29.5845 62.412 29.5845 56.516C29.5845 54.104 28.7805 51.826 27.3065 49.95L44.4585 35.478C46.2005 36.818 48.4785 37.756 51.0245 37.756C54.6425 37.756 57.7245 36.014 59.7345 33.334L73.2685 41.776C72.7325 42.982 72.4645 44.322 72.4645 45.796C72.4645 51.692 77.2885 56.516 83.1845 56.516C89.0805 56.516 93.9045 51.692 93.9045 45.796C93.9045 43.384 93.1005 41.106 91.6265 39.23L110.387 20.47C111.861 21.274 113.469 21.676 115.345 21.676C121.241 21.676 126.065 16.852 126.065 10.956C126.065 5.05996 121.241 0.235962 115.345 0.235962ZM18.8645 61.876C15.9165 61.876 13.5045 59.464 13.5045 56.516C13.5045 53.568 15.9165 51.156 18.8645 51.156C21.8125 51.156 24.2245 53.568 24.2245 56.516C24.2245 59.464 21.8125 61.876 18.8645 61.876ZM51.0245 32.396C48.0765 32.396 45.6645 29.984 45.6645 27.036C45.6645 24.088 48.0765 21.676 51.0245 21.676C53.9725 21.676 56.3845 24.088 56.3845 27.036C56.3845 29.984 53.9725 32.396 51.0245 32.396ZM83.1845 51.156C80.2365 51.156 77.8245 48.744 77.8245 45.796C77.8245 42.848 80.2365 40.436 83.1845 40.436C86.1325 40.436 88.5445 42.848 88.5445 45.796C88.5445 48.744 86.1325 51.156 83.1845 51.156ZM115.345 16.316C112.397 16.316 109.985 13.904 109.985 10.956C109.985 8.00796 112.397 5.59596 115.345 5.59596C118.293 5.59596 120.705 8.00796 120.705 10.956C120.705 13.904 118.293 16.316 115.345 16.316Z" fill="#13A6D9"/>
</svg>
