<svg width="132" height="129" viewBox="0 0 132 129" fill="none" xmlns="http://www.w3.org/2000/svg">
<path d="M116.729 17.104C117.269 17.1044 117.787 16.8959 118.17 16.524L122.348 12.4439C122.554 12.2624 122.719 12.0418 122.835 11.7957C122.951 11.5496 123.014 11.2831 123.022 11.0122C123.029 10.7414 122.98 10.4719 122.878 10.2202C122.775 9.96845 122.622 9.73969 122.426 9.54777C122.231 9.35586 121.998 9.2048 121.741 9.10376C121.484 9.00272 121.209 8.95381 120.932 8.95999C120.656 8.96618 120.383 9.02733 120.131 9.13974C119.879 9.25215 119.653 9.41347 119.467 9.61391L115.319 13.684C115.032 13.9631 114.835 14.3196 114.755 14.7082C114.675 15.0967 114.715 15.4998 114.869 15.8663C115.023 16.2328 115.286 16.5461 115.622 16.7665C115.959 16.9868 116.355 17.1043 116.76 17.104H116.729Z" fill="#FE674C"/>
<path d="M100.424 10.064C100.965 10.064 101.485 9.85325 101.868 9.47817C102.252 9.10309 102.467 8.59437 102.467 8.06393L102.406 2.15384C102.406 1.6234 102.19 1.11468 101.807 0.739604C101.424 0.364526 100.904 0.153809 100.362 0.153809V0.153809C99.8203 0.153809 99.3005 0.364526 98.9173 0.739604C98.5341 1.11468 98.3188 1.6234 98.3188 2.15384L98.3904 8.06393C98.3904 8.59265 98.6042 9.09985 98.9852 9.47465C99.3662 9.84944 99.8833 10.0613 100.424 10.064Z" fill="#FE674C"/>
<path d="M121.592 31.2338C121.592 31.7557 121.8 32.257 122.173 32.6306C122.545 33.0043 123.052 33.2207 123.585 33.2338L129.572 33.3838H129.623C130.165 33.3838 130.684 33.1731 131.067 32.798C131.451 32.423 131.666 31.9143 131.666 31.3838C131.666 30.8534 131.451 30.3447 131.067 29.9697C130.684 29.5946 130.165 29.3839 129.623 29.3839L123.636 29.2339C123.094 29.2339 122.574 29.4446 122.191 29.8197C121.808 30.1947 121.592 30.7034 121.592 31.2338Z" fill="#FE674C"/>
<path d="M108.474 11.8641C108.977 12.0614 109.539 12.0553 110.037 11.8472C110.535 11.639 110.928 11.2459 111.13 10.754L113.357 5.34378C113.458 5.10017 113.509 4.83954 113.506 4.57678C113.504 4.31402 113.449 4.05427 113.344 3.81236C113.239 3.57045 113.087 3.35112 112.895 3.1669C112.704 2.98267 112.477 2.83716 112.229 2.73866C111.98 2.64017 111.713 2.59062 111.445 2.59285C111.177 2.59507 110.911 2.64904 110.664 2.75165C110.417 2.85426 110.193 3.00352 110.005 3.1909C109.816 3.37827 109.668 3.6001 109.567 3.84371L107.34 9.25397C107.238 9.49816 107.187 9.75955 107.19 10.0231C107.192 10.2867 107.247 10.5473 107.352 10.7898C107.458 11.0324 107.611 11.2522 107.804 11.4365C107.996 11.6209 108.224 11.7662 108.474 11.8641Z" fill="#FE674C"/>
<path d="M119.907 23.3438C120.105 23.8368 120.495 24.2326 120.991 24.4445C121.487 24.6563 122.049 24.6668 122.553 24.4738L128.06 22.3538C128.527 22.1353 128.892 21.7515 129.081 21.2797C129.27 20.808 129.269 20.2837 129.078 19.8126C128.887 19.3415 128.521 18.9588 128.053 18.7419C127.585 18.5249 127.051 18.4899 126.558 18.6439L121.051 20.7638C120.551 20.9598 120.151 21.3407 119.937 21.8237C119.723 22.3067 119.712 22.8529 119.907 23.3438Z" fill="#FE674C"/>
<path d="M126.803 43.9938C127.299 44.1962 127.856 44.1994 128.354 44.0027C128.852 43.8061 129.251 43.4254 129.464 42.943C129.678 42.4607 129.689 41.9154 129.495 41.4253C129.301 40.9351 128.917 40.5394 128.427 40.3239L122.859 37.9539C122.363 37.7516 121.806 37.7484 121.308 37.945C120.81 38.1417 120.411 38.5224 120.198 39.0047C119.984 39.4871 119.973 40.0323 120.167 40.5225C120.361 41.0126 120.745 41.4083 121.235 41.6239L126.803 43.9938Z" fill="#FE674C"/>
<path d="M89.3583 10.5636C89.467 10.8039 89.623 11.021 89.8173 11.2023C90.0117 11.3836 90.2406 11.5257 90.4911 11.6204C90.7416 11.7151 91.0086 11.7606 91.2771 11.7543C91.5455 11.748 91.81 11.69 92.0555 11.5836C92.3011 11.4773 92.5228 11.3246 92.708 11.1343C92.8933 10.9441 93.0384 10.72 93.1352 10.4749C93.2319 10.2297 93.2784 9.9683 93.272 9.70557C93.2655 9.44283 93.2063 9.18391 93.0976 8.94359L90.6252 3.4735C90.5165 3.23317 90.3606 3.01615 90.1662 2.83483C89.9718 2.65351 89.7429 2.51143 89.4924 2.41672C89.242 2.322 88.9749 2.2765 88.7065 2.2828C88.438 2.28911 88.1735 2.34711 87.928 2.45348C87.6825 2.55985 87.4608 2.71252 87.2755 2.90276C87.0903 3.093 86.9451 3.3171 86.8483 3.56225C86.7516 3.8074 86.7051 4.06881 86.7115 4.33154C86.718 4.59428 86.7772 4.8532 86.8859 5.09352L89.3583 10.5636Z" fill="#FE674C"/>
<path d="M2.93543 98.1538H18.2605C18.8024 98.1538 19.3222 97.9431 19.7054 97.568C20.0886 97.193 20.3039 96.6842 20.3039 96.1538C20.3039 95.6234 20.0886 95.1147 19.7054 94.7396C19.3222 94.3645 18.8024 94.1538 18.2605 94.1538H2.93543C2.39351 94.1538 1.87377 94.3645 1.49057 94.7396C1.10737 95.1147 0.89209 95.6234 0.89209 96.1538C0.89209 96.6842 1.10737 97.193 1.49057 97.568C1.87377 97.9431 2.39351 98.1538 2.93543 98.1538Z" fill="#FE674C"/>
<path d="M2.93543 90.1538H8.04379C8.58571 90.1538 9.10544 89.9431 9.48865 89.568C9.87185 89.193 10.0871 88.6842 10.0871 88.1538C10.0871 87.6234 9.87185 87.1147 9.48865 86.7396C9.10544 86.3645 8.58571 86.1538 8.04379 86.1538H2.93543C2.3935 86.1538 1.87377 86.3645 1.49057 86.7396C1.10737 87.1147 0.89209 87.6234 0.89209 88.1538C0.89209 88.6842 1.10737 89.193 1.49057 89.568C1.87377 89.9431 2.3935 90.1538 2.93543 90.1538Z" fill="#FE674C"/>
<path d="M115.922 37.5239C117.156 34.4624 117.46 31.1173 116.799 27.8905C116.137 24.6637 114.538 21.6925 112.193 19.3338C109.125 16.2468 104.958 14.4382 100.561 14.2854C96.1637 14.1327 91.876 15.6474 88.5923 18.5138C89.5738 18.1673 90.6295 18.0718 91.6593 18.2363C92.6892 18.4008 93.659 18.8199 94.4771 19.4538C96.9244 18.3461 99.6632 18.0109 102.314 18.4947C104.965 18.9784 107.396 20.2572 109.271 22.1539C110.893 23.7858 112.05 25.8043 112.629 28.0093C113.208 30.2142 113.188 32.5289 112.571 34.7239L115.922 37.5239Z" fill="#FE674C"/>
<path d="M109.629 31.8054C109.656 31.8108 109.683 31.8153 109.709 31.8188C109.962 31.8516 110.217 31.7932 110.425 31.6554C110.632 31.5176 110.777 31.3103 110.829 31.0749C111.573 27.7441 109.648 23.4233 105.959 22.6251C105.829 22.597 105.695 22.5933 105.564 22.6144C105.433 22.6354 105.308 22.6807 105.196 22.7477C104.97 22.8829 104.81 23.0983 104.753 23.3463C104.695 23.5944 104.744 23.8548 104.889 24.0703C105.034 24.2858 105.263 24.4388 105.525 24.4956C107.787 24.9852 109.432 28.0394 108.847 30.6615C108.791 30.9101 108.843 31.1702 108.989 31.3847C109.136 31.5993 109.366 31.7506 109.629 31.8054Z" fill="#FE674C"/>
<path d="M94.8857 70.1538V80.1538C94.8857 80.6842 95.101 81.193 95.4842 81.568C95.8674 81.9431 96.3872 82.1538 96.9291 82.1538H109.189C109.731 82.1538 110.251 81.9431 110.634 81.568C111.017 81.193 111.232 80.6842 111.232 80.1538V70.1538C111.232 69.6234 111.017 69.1147 110.634 68.7396C110.251 68.3645 109.731 68.1538 109.189 68.1538H96.9291C96.3872 68.1538 95.8674 68.3645 95.4842 68.7396C95.101 69.1147 94.8857 69.6234 94.8857 70.1538ZM98.9724 72.1538H107.146V78.1538H98.9724V72.1538Z" fill="#FE674C"/>
<path d="M90.7989 40.1538C89.1823 40.1538 87.6021 40.623 86.258 41.5021C84.9139 42.3811 83.8663 43.6305 83.2477 45.0923C82.629 46.5541 82.4672 48.1627 82.7825 49.7145C83.0979 51.2664 83.8764 52.6918 85.0194 53.8107C86.1625 54.9295 87.6188 55.6914 89.2043 56.0001C90.7898 56.3088 92.4332 56.1503 93.9267 55.5448C95.4202 54.9393 96.6967 53.914 97.5948 52.5984C98.4929 51.2828 98.9722 49.7361 98.9722 48.1538C98.9722 46.0321 98.1111 43.9972 96.5783 42.497C95.0455 40.9967 92.9666 40.1538 90.7989 40.1538ZM90.7989 52.1538C89.9906 52.1538 89.2005 51.9192 88.5284 51.4797C87.8564 51.0402 87.3326 50.4154 87.0233 49.6845C86.7139 48.9536 86.633 48.1494 86.7907 47.3734C86.9484 46.5975 87.3376 45.8848 87.9091 45.3254C88.4807 44.766 89.2088 44.385 90.0016 44.2307C90.7943 44.0763 91.616 44.1555 92.3628 44.4583C93.1095 44.761 93.7478 45.2737 94.1968 45.9315C94.6459 46.5893 94.8855 47.3627 94.8855 48.1538C94.8855 49.2147 94.455 50.2321 93.6886 50.9822C92.9222 51.7324 91.8827 52.1538 90.7989 52.1538Z" fill="#FE674C"/>
<path d="M71.3871 60.1538C70.8452 60.1538 70.3254 60.3645 69.9422 60.7396C69.559 61.1147 69.3438 61.6234 69.3438 62.1538C69.3438 62.6842 69.559 63.193 69.9422 63.568C70.3254 63.9431 70.8452 64.1538 71.3871 64.1538H81.6038C82.1457 64.1538 82.6655 63.9431 83.0487 63.568C83.4319 63.193 83.6472 62.6842 83.6472 62.1538C83.6472 61.6234 83.4319 61.1147 83.0487 60.7396C82.6655 60.3645 82.1457 60.1538 81.6038 60.1538H71.3871Z" fill="#13A6D9"/>
<path d="M56.0624 72.1537V94.1538H50.4432C49.9013 94.1538 49.3816 94.3645 48.9984 94.7396C48.6152 95.1147 48.3999 95.6234 48.3999 96.1538C48.3999 96.6842 48.6152 97.1929 48.9984 97.568C49.3816 97.9431 49.9013 98.1538 50.4432 98.1538H129.623C130.165 98.1538 130.684 97.9431 131.068 97.568C131.451 97.1929 131.666 96.6842 131.666 96.1538C131.666 95.6234 131.451 95.1147 131.068 94.7396C130.684 94.3645 130.165 94.1538 129.623 94.1538H125.536V56.2037L127.263 57.6637C127.458 57.8699 127.695 58.0337 127.958 58.1444C128.222 58.255 128.507 58.31 128.794 58.3057C129.081 58.3015 129.364 58.2381 129.624 58.1197C129.884 58.0013 130.116 57.8306 130.305 57.6187C130.493 57.4067 130.634 57.1583 130.717 56.8896C130.801 56.6209 130.826 56.3379 130.791 56.0592C130.755 55.7804 130.66 55.512 130.512 55.2716C130.364 55.0311 130.165 54.824 129.929 54.6637L92.0151 22.6635C91.6435 22.3483 91.1684 22.1748 90.6767 22.1748C90.185 22.1748 89.7098 22.3483 89.3383 22.6635L75.8114 34.1536C76.4532 35.4192 76.9896 36.7335 77.4154 38.0836L90.6971 26.8136L121.449 52.8137V86.1538H87.7343V70.1537C87.7343 69.6233 87.519 69.1146 87.1358 68.7395C86.7526 68.3644 86.2328 68.1537 85.6909 68.1537H67.3008C66.7589 68.1537 66.2392 68.3644 65.856 68.7395C65.4728 69.1146 65.2575 69.6233 65.2575 70.1537V94.1538H60.1491V68.2837C58.9598 69.7378 57.5866 71.0383 56.0624 72.1537ZM121.449 90.1538V94.1538H87.7343V90.1538H121.449ZM69.3442 72.1537H83.6476V94.1538H69.3442V72.1537Z" fill="#13A6D9"/>
<path d="M129.623 102.154C126.947 102.104 124.329 102.919 122.175 104.474C120.659 105.566 118.826 106.155 116.944 106.155C115.062 106.155 113.229 105.566 111.713 104.474C109.537 102.965 106.936 102.155 104.27 102.155C101.603 102.155 99.0026 102.965 96.827 104.474C95.3125 105.565 93.4815 106.153 91.6011 106.153C89.7208 106.153 87.8897 105.565 86.3753 104.474C84.1996 102.965 81.5989 102.155 78.9324 102.155C76.2659 102.155 73.6652 102.965 71.4895 104.474C69.9757 105.566 68.1444 106.156 66.2637 106.156C64.383 106.156 62.5516 105.566 61.0378 104.474C58.8872 102.92 56.2727 102.105 53.6 102.154C51.2901 102.091 49.0133 102.703 47.0613 103.914C36.5892 80.7041 37.5496 55.3741 40.9313 36.4141C45.6013 39.4252 48.9929 43.996 50.4737 49.2741C51.7407 53.9211 51.5521 58.8334 49.9322 63.3741C49.7279 63.8741 48.4202 66.7241 47.8889 67.6641C47.5481 67.9724 47.3248 68.385 47.2555 68.8341C47.2077 69.1223 47.225 69.4171 47.3061 69.6981C47.3872 69.979 47.5301 70.2391 47.7248 70.4602C47.9195 70.6813 48.1613 70.858 48.4333 70.9778C48.7052 71.0977 49.0006 71.1579 49.2988 71.1541C49.7942 71.1562 50.2734 70.9821 50.6474 70.6641C53.1722 69.4959 55.3781 67.7584 57.0839 65.5941C59.2975 62.907 60.8141 59.7356 61.5044 56.3505C62.1947 52.9654 62.0381 49.4672 61.048 46.1541C59.6933 41.2906 56.5777 37.0752 52.2821 34.2941C54.4485 34.8072 56.5178 35.6544 58.4121 36.8041C62.5342 39.3119 65.7746 42.993 67.6991 47.3541C67.9035 47.8541 68.9047 50.8341 69.1601 51.8841C69.1294 52.3348 69.2554 52.7825 69.5177 53.1541C69.7004 53.4154 69.9438 53.6306 70.228 53.7818C70.5122 53.9331 70.829 54.0161 71.1524 54.0241C71.1524 54.0241 71.1524 54.0241 71.2137 54.0241C71.508 54.0254 71.7992 53.9644 72.0672 53.8453C72.3352 53.7262 72.5738 53.5518 72.7666 53.3341C73.0525 53.0224 73.2312 52.6306 73.2774 52.2141C74.2975 49.6517 74.6996 46.8935 74.4524 44.1541C74.2307 40.7271 73.1606 37.4042 71.3344 34.4722C69.5083 31.5402 66.9808 29.0869 63.97 27.3241C60.7479 25.3525 57.022 24.3126 53.222 24.3241C52.0273 24.3244 50.8347 24.4214 49.6564 24.6141C51.547 23.5731 53.5906 22.8243 55.7149 22.3941C60.4078 21.42 65.2945 21.9059 69.6914 23.7841C70.1818 24.0141 72.9301 25.5141 73.7781 26.0941C73.9705 26.3357 74.2171 26.5307 74.4987 26.6642C74.7804 26.7977 75.0896 26.8661 75.4025 26.8641C75.7872 26.8732 76.1667 26.7757 76.4973 26.583C76.8278 26.3902 77.0961 26.11 77.2712 25.7746C77.4462 25.4392 77.521 25.0623 77.4868 24.6871C77.4527 24.312 77.311 23.9539 77.0781 23.6541C76.0931 21.0769 74.5044 18.7616 72.4397 16.8941C68.5309 13.2614 63.3626 11.2108 57.9728 11.1541C56.3827 11.1539 54.7982 11.3385 53.2527 11.7041C48.6058 12.6805 44.4432 15.1907 41.4626 18.8141C40.8409 15.0929 39.0563 11.6517 36.3542 8.96413C34.5659 7.10795 32.4048 5.63367 30.0067 4.63384C27.6085 3.63402 25.0251 3.13024 22.4186 3.15413C21.3673 3.15053 20.3178 3.23753 19.2821 3.41413C16.791 3.78043 14.4242 4.71943 12.3756 6.15413C11.8709 6.28064 11.4346 6.59108 11.1559 7.02196C10.8773 7.45285 10.7773 7.97165 10.8765 8.47228C10.9757 8.97291 11.2665 9.41755 11.6894 9.7153C12.1124 10.013 12.6356 10.1414 13.152 10.0741C13.3524 10.0751 13.552 10.0481 13.7446 9.99413C14.8889 9.99413 17.5657 10.2441 17.8313 10.2741C22.0224 11.0094 25.8794 12.993 28.8756 15.9541C29.8598 16.9227 30.7303 17.9961 31.4706 19.1541C28.3744 16.7088 24.555 15.306 20.5796 15.1541C17.4472 14.9751 14.3179 15.5528 11.4673 16.8363C8.61669 18.1197 6.13227 20.0696 4.23285 22.5141C2.66907 24.4556 1.59454 26.7304 1.09632 29.1541C0.8389 29.6262 0.783627 30.1791 0.942655 30.691C1.10168 31.203 1.46199 31.6322 1.9443 31.8841C2.42662 32.1361 2.99144 32.1902 3.51451 32.0345C4.03758 31.8789 4.47605 31.5262 4.73347 31.0541C5.44864 30.4141 7.58393 28.7641 7.9313 28.5241C11.5 26.2593 15.6959 25.1278 19.9462 25.2841C21.4404 25.3393 22.9223 25.571 24.3598 25.9741C20.2715 26.2194 16.3826 27.7884 13.3053 30.4341C10.9004 32.4158 9.0283 34.9442 7.85279 37.7979C6.67728 40.6517 6.23418 43.7439 6.56226 46.8041C6.77582 49.2649 7.57724 51.6422 8.90189 53.7441C9.03116 54.154 9.29162 54.5123 9.64483 54.7662C9.99804 55.0201 10.4253 55.1561 10.8635 55.1541C10.996 55.1665 11.1294 55.1665 11.262 55.1541C11.5814 55.094 11.8815 54.9601 12.1374 54.7635C12.3933 54.567 12.5975 54.3135 12.7332 54.0241C12.9249 53.6176 12.9716 53.1598 12.866 52.7241C12.9375 51.7241 13.3359 49.1341 13.4279 48.7241C14.426 44.6306 16.6918 40.9389 19.9155 38.1541C23.5843 35.0521 28.2777 33.3574 33.1257 33.3841C33.657 33.3841 34.1474 33.3841 34.7093 33.4441H34.8728C23.9103 50.1541 21.3765 80.0541 24.7889 102.584C23.3719 103.001 22.0332 103.639 20.8248 104.474C19.3324 105.603 17.4895 106.196 15.6041 106.154C13.7151 106.198 11.8682 105.605 10.3731 104.474C8.22214 102.921 5.60784 102.105 2.93533 102.154C2.3934 102.154 1.87366 102.365 1.49046 102.74C1.10726 103.115 0.891982 103.624 0.891982 104.154C0.891982 104.685 1.10726 105.193 1.49046 105.568C1.87366 105.943 2.3934 106.154 2.93533 106.154C4.82426 106.11 6.67119 106.703 8.16629 107.834C10.3172 109.387 12.9315 110.203 15.6041 110.154C18.2767 110.204 20.8912 109.388 23.0418 107.834C24.5369 106.703 26.3839 106.11 28.2728 106.154C30.1582 106.112 32.0012 106.705 33.4935 107.834C35.6445 109.387 38.2588 110.203 40.9313 110.154C43.6038 110.203 46.2181 109.387 48.3691 107.834C49.8829 106.742 51.7142 106.153 53.5949 106.153C55.4756 106.153 57.307 106.742 58.8208 107.834C60.9949 109.342 63.5938 110.152 66.2586 110.152C68.9233 110.152 71.5223 109.342 73.6963 107.834C75.2108 106.743 77.0419 106.155 78.9222 106.155C80.8025 106.155 82.6336 106.743 84.148 107.834C86.3237 109.343 88.9244 110.154 91.5909 110.154C94.2574 110.154 96.8581 109.343 99.0338 107.834C100.548 106.743 102.379 106.155 104.26 106.155C106.14 106.155 107.971 106.743 109.486 107.834C111.663 109.344 114.265 110.155 116.933 110.155C119.602 110.155 122.204 109.344 124.381 107.834C125.88 106.703 127.73 106.109 129.623 106.154C130.165 106.154 130.684 105.943 131.068 105.568C131.451 105.193 131.666 104.685 131.666 104.154C131.666 103.624 131.451 103.115 131.068 102.74C130.684 102.365 130.165 102.154 129.623 102.154ZM32.5638 90.1541C30.8825 90.1353 29.2105 89.9068 27.5883 89.4741C27.3942 85.4741 27.3839 81.4041 27.5883 77.4741C28.8574 77.9183 30.1944 78.1482 31.5421 78.1541C32.9008 78.1921 34.254 77.9714 35.5267 77.5041C36.0811 81.7846 36.8965 86.0289 37.9685 90.2141L37.4678 89.5641L37.5802 89.4841C37.5802 89.4841 36.3236 90.1541 32.5638 90.1541ZM36.2827 39.2041C35.358 45.1665 34.7917 51.1768 34.5867 57.2041C34.2245 57.2987 33.8957 57.4889 33.6366 57.7541C32.9869 58.0667 32.2642 58.2047 31.5421 58.1541C31.0032 58.1447 30.469 58.0536 29.9586 57.8841C31.227 51.4146 33.353 45.1349 36.2827 39.2041ZM31.5421 62.1541C32.5496 62.1693 33.5532 62.0275 34.5152 61.7341C34.5152 65.5041 34.6787 69.3441 35.0465 73.2441C34.7421 73.3301 34.4623 73.4841 34.2291 73.6941C33.3881 74.069 32.4632 74.2273 31.5421 74.1541C30.4265 74.1191 29.3291 73.8676 28.3137 73.4141C28.1508 73.3425 27.9791 73.2921 27.8028 73.2641C28.0991 69.3441 28.5691 65.5141 29.2025 61.8241C29.9641 62.0345 30.7508 62.1455 31.5421 62.1541ZM57.0839 47.2741C57.8521 49.8187 58.0149 52.5016 57.5598 55.1173C57.1047 57.733 56.0437 60.2119 54.4582 62.3641C55.6433 57.727 55.6011 52.8708 54.3356 48.2541C53.0532 43.5669 50.4679 39.3196 46.8672 35.9841C49.3428 36.9698 51.5527 38.5013 53.3247 40.4595C55.0968 42.4177 56.3832 44.7497 57.0839 47.2741ZM61.8756 30.7541C64.205 32.0981 66.1841 33.9526 67.6572 36.1719C69.1304 38.3912 70.0575 40.9148 70.3657 43.5441C68.0456 39.3946 64.6664 35.9045 60.5576 33.4141C56.4294 30.9094 51.6629 29.5957 46.8059 29.6241H46.6118C48.7146 28.7751 50.9678 28.3402 53.2425 28.3441C56.2947 28.3351 59.2874 29.1705 61.8756 30.7541ZM54.162 15.6041C55.4095 15.3066 56.6888 15.1555 57.9728 15.1541C62.072 15.2012 66.0201 16.676 69.109 19.3141C64.5311 17.8063 59.6247 17.5232 54.8976 18.4941C50.1222 19.486 45.7285 21.7732 42.2186 25.0941C43.3192 22.7128 44.9716 20.6153 47.0448 18.968C49.1179 17.3207 51.5548 16.169 54.162 15.6041ZM21.8465 7.15413H22.4186C24.472 7.1382 26.5065 7.53769 28.3947 8.32754C30.2829 9.11739 31.984 10.2806 33.3914 11.7441C34.8663 13.2135 36.0096 14.9698 36.747 16.8992C37.4844 18.8285 37.7996 20.888 37.6722 22.9441C36.556 19.2462 34.5118 15.8806 31.726 13.1541C28.964 10.4175 25.5781 8.36122 21.8465 7.15413ZM19.2821 21.2641C15.6402 21.2469 12.0396 22.0187 8.73842 23.5241C11.5242 20.76 15.3154 19.1887 19.2821 19.1541C19.609 19.1541 19.9359 19.1541 20.3038 19.1541C22.4021 19.246 24.4567 19.7721 26.3322 20.6977C28.2077 21.6233 29.8614 22.9274 31.1846 24.5241C27.7993 22.5337 23.9539 21.4156 20.0075 21.2741L19.2821 21.2641ZM17.2387 35.2641C14.3088 37.7982 12.0272 40.9699 10.5774 44.5241C10.626 42.4186 11.1343 40.3477 12.0683 38.4504C13.0022 36.5531 14.3402 34.8734 15.9923 33.5241C18.7015 31.2025 22.1894 29.9387 25.7901 29.9741C26.4116 29.9743 27.0326 30.0111 27.6496 30.0841C23.7914 30.9034 20.209 32.6686 17.2387 35.2141V35.2641ZM35.7514 104.524C33.757 103.104 31.3713 102.306 28.9062 102.234C28.4771 99.4141 28.14 96.5641 27.8846 93.7041C29.4245 94.0099 30.9925 94.1607 32.5638 94.1541C34.6831 94.238 36.8007 93.9501 38.8164 93.3041C40.0601 97.579 41.6101 101.763 43.4548 105.824C42.6352 106.057 41.7846 106.168 40.9313 106.154C39.0459 106.196 37.2029 105.603 35.7106 104.474L35.7514 104.524Z" fill="#12CAD6"/>
<path d="M129.623 111.154C126.947 111.103 124.329 111.919 122.175 113.474C120.659 114.565 118.826 115.154 116.944 115.154C115.062 115.154 113.229 114.565 111.713 113.474C109.537 111.965 106.936 111.154 104.27 111.154C101.603 111.154 99.0027 111.965 96.8271 113.474C95.3126 114.564 93.4815 115.153 91.6012 115.153C89.7209 115.153 87.8898 114.564 86.3754 113.474C84.1997 111.965 81.599 111.154 78.9325 111.154C76.266 111.154 73.6653 111.965 71.4896 113.474C69.9758 114.566 68.1445 115.155 66.2638 115.155C64.383 115.155 62.5517 114.566 61.0379 113.474C58.8628 111.963 56.2619 111.152 53.595 111.152C50.9282 111.152 48.3272 111.963 46.1521 113.474C44.6383 114.566 42.807 115.155 40.9263 115.155C39.0456 115.155 37.2143 114.566 35.7004 113.474C33.5523 111.922 30.9419 111.107 28.2729 111.154C25.6004 111.105 22.9861 111.92 20.8351 113.474C19.34 114.604 17.4931 115.198 15.6042 115.154C13.7152 115.198 11.8683 114.604 10.3732 113.474C8.22225 111.92 5.60795 111.105 2.93543 111.154C2.3935 111.154 1.87377 111.364 1.49057 111.739C1.10737 112.114 0.89209 112.623 0.89209 113.154C0.89209 113.684 1.10737 114.193 1.49057 114.568C1.87377 114.943 2.3935 115.154 2.93543 115.154C4.82437 115.11 6.67129 115.703 8.16639 116.834C10.3173 118.387 12.9317 119.202 15.6042 119.154C18.2768 119.203 20.8913 118.388 23.0419 116.834C24.537 115.703 26.384 115.11 28.2729 115.154C30.1583 115.112 32.0013 115.705 33.4936 116.834C35.6446 118.387 38.2589 119.202 40.9314 119.154C43.6039 119.202 46.2182 118.387 48.3692 116.834C49.883 115.741 51.7143 115.152 53.595 115.152C55.4757 115.152 57.3071 115.741 58.8209 116.834C60.995 118.342 63.5939 119.152 66.2587 119.152C68.9234 119.152 71.5223 118.342 73.6964 116.834C75.2109 115.743 77.042 115.154 78.9223 115.154C80.8026 115.154 82.6337 115.743 84.1481 116.834C86.3238 118.343 88.9245 119.153 91.591 119.153C94.2575 119.153 96.8582 118.343 99.0339 116.834C100.548 115.743 102.379 115.154 104.26 115.154C106.14 115.154 107.971 115.743 109.486 116.834C111.663 118.343 114.265 119.154 116.934 119.154C119.602 119.154 122.204 118.343 124.382 116.834C125.88 115.702 127.731 115.109 129.623 115.154C130.165 115.154 130.684 114.943 131.068 114.568C131.451 114.193 131.666 113.684 131.666 113.154C131.666 112.623 131.451 112.114 131.068 111.739C130.684 111.364 130.165 111.154 129.623 111.154Z" fill="#12CAD6"/>
<path d="M129.623 120.154C126.947 120.103 124.329 120.919 122.175 122.474C120.659 123.565 118.826 124.154 116.944 124.154C115.062 124.154 113.229 123.565 111.713 122.474C109.537 120.965 106.936 120.154 104.27 120.154C101.603 120.154 99.0027 120.965 96.8271 122.474C95.3126 123.564 93.4815 124.153 91.6012 124.153C89.7209 124.153 87.8898 123.564 86.3754 122.474C84.1997 120.965 81.599 120.154 78.9325 120.154C76.266 120.154 73.6653 120.965 71.4896 122.474C69.9758 123.566 68.1445 124.155 66.2638 124.155C64.383 124.155 62.5517 123.566 61.0379 122.474C58.8628 120.963 56.2619 120.152 53.595 120.152C50.9282 120.152 48.3272 120.963 46.1521 122.474C44.6383 123.566 42.807 124.155 40.9263 124.155C39.0456 124.155 37.2143 123.566 35.7004 122.474C33.5523 120.922 30.9419 120.107 28.2729 120.154C25.6004 120.105 22.9861 120.92 20.8351 122.474C19.34 123.604 17.4931 124.198 15.6042 124.154C13.7152 124.198 11.8683 123.604 10.3732 122.474C8.22225 120.92 5.60795 120.105 2.93543 120.154C2.3935 120.154 1.87377 120.364 1.49057 120.739C1.10737 121.114 0.89209 121.623 0.89209 122.154C0.89209 122.684 1.10737 123.193 1.49057 123.568C1.87377 123.943 2.3935 124.154 2.93543 124.154C4.82437 124.11 6.67129 124.703 8.16639 125.834C10.3173 127.387 12.9317 128.202 15.6042 128.154C18.2768 128.203 20.8913 127.388 23.0419 125.834C24.537 124.703 26.384 124.11 28.2729 124.154C30.1583 124.112 32.0013 124.705 33.4936 125.834C35.6446 127.387 38.2589 128.202 40.9314 128.154C43.6039 128.202 46.2182 127.387 48.3692 125.834C49.883 124.741 51.7143 124.152 53.595 124.152C55.4757 124.152 57.3071 124.741 58.8209 125.834C60.995 127.342 63.5939 128.152 66.2587 128.152C68.9234 128.152 71.5223 127.342 73.6964 125.834C75.2109 124.743 77.042 124.154 78.9223 124.154C80.8026 124.154 82.6337 124.743 84.1481 125.834C86.3238 127.343 88.9245 128.153 91.591 128.153C94.2575 128.153 96.8582 127.343 99.0339 125.834C100.548 124.743 102.379 124.154 104.26 124.154C106.14 124.154 107.971 124.743 109.486 125.834C111.663 127.343 114.265 128.154 116.934 128.154C119.602 128.154 122.204 127.343 124.382 125.834C125.88 124.702 127.731 124.109 129.623 124.154C130.165 124.154 130.684 123.943 131.068 123.568C131.451 123.193 131.666 122.684 131.666 122.154C131.666 121.623 131.451 121.114 131.068 120.739C130.684 120.364 130.165 120.154 129.623 120.154Z" fill="#12CAD6"/>
<path d="M16.2172 90.1538C17.3457 90.1538 18.2605 89.2584 18.2605 88.1538C18.2605 87.0492 17.3457 86.1538 16.2172 86.1538C15.0887 86.1538 14.1738 87.0492 14.1738 88.1538C14.1738 89.2584 15.0887 90.1538 16.2172 90.1538Z" fill="#FE674C"/>
</svg>
