<svg width="129" height="134" viewBox="0 0 129 134" fill="none" xmlns="http://www.w3.org/2000/svg">
<path d="M127.76 61.2572L100.309 34.3884C99.4298 33.5281 98.0063 33.5281 97.1273 34.3884L73.6706 57.346L55.0259 39.0953C54.1829 38.2702 52.6874 38.2702 51.8444 39.0953L43.137 47.618L30.5207 35.2693C29.6417 34.409 28.2182 34.409 27.3393 35.2693L8.76951 53.4436C7.89052 54.3025 7.89052 55.6987 8.76951 56.5576C9.209 56.9878 9.78499 57.2021 10.361 57.2021C10.937 57.2021 11.513 56.9878 11.9525 56.5576L28.9307 39.9395L39.9571 50.7319L36.6016 54.0162C35.7226 54.8766 35.7226 56.2713 36.6016 57.1302C37.4806 57.9905 38.9041 57.9905 39.7831 57.1302L53.4359 43.767L93.2888 82.773H64.5342L62.1433 70.5462C61.9408 69.5082 61.0138 68.758 59.9338 68.758C58.8538 68.758 57.9268 69.5082 57.7243 70.5462L55.3199 82.8435H29.8922L27.0198 68.0562C26.8173 67.0167 25.8903 66.265 24.8088 66.265C23.7273 66.265 22.8003 67.0167 22.5978 68.0562L19.7269 82.8361L2.35709 82.773C2.35559 82.773 2.35259 82.773 2.34959 82.773C1.11061 82.773 0.104124 83.7537 0.0996245 84.9664C0.0951245 86.1835 1.09861 87.1731 2.34209 87.1775L18.8734 87.2377L13.6984 113.876C13.5739 114.52 13.7479 115.187 14.1754 115.691C14.6029 116.197 15.2374 116.489 15.9079 116.489H22.5603V122.638C22.5603 123.854 23.5668 124.84 24.8103 124.84C26.0538 124.84 27.0603 123.854 27.0603 122.638V116.491H33.7127C33.7232 116.491 33.7337 116.489 33.7427 116.491C34.9861 116.491 35.9926 115.504 35.9926 114.288C35.9926 114.021 35.9446 113.767 35.8561 113.529L30.7502 87.2479H54.4604L47.6205 122.224C47.4945 122.868 47.6685 123.536 48.096 124.041C48.5235 124.548 49.1595 124.84 49.8299 124.84H57.4903V130.954C57.4903 132.169 58.4968 133.156 59.7403 133.156C60.9838 133.156 61.9903 132.169 61.9903 130.954V124.84H70.0392C70.0497 124.842 70.0617 124.842 70.0692 124.84C71.3127 124.84 72.3191 123.854 72.3191 122.638C72.3191 122.369 72.2711 122.115 72.1811 121.876L65.3967 87.176H98.7203C99.6293 87.176 100.45 86.6401 100.799 85.8165C101.149 84.9929 100.955 84.0459 100.312 83.4161L76.8536 60.46L98.7188 39.0601L124.578 64.3726C125.018 64.8028 125.594 65.0171 126.17 65.0171C126.746 65.0171 127.322 64.8028 127.761 64.3726C128.639 63.5123 128.639 62.1175 127.76 61.2572ZM18.6259 112.086L23.7738 85.5875C23.7918 85.5155 23.8053 85.4421 23.8158 85.3672L24.8088 80.2566L30.9932 112.086H18.6259ZM60.1033 120.437C59.9848 120.418 59.8648 120.402 59.7403 120.402C59.6158 120.402 59.4958 120.418 59.3773 120.437H52.5509L59.3173 85.8326C59.4133 85.5875 59.4718 85.3247 59.4718 85.0472V85.0457L59.9353 82.6776L67.3182 120.439H60.1033V120.437Z" fill="#12CAD6"/>
<path d="M86.4094 10.1182C86.7443 10.1184 87.0657 9.98902 87.3035 9.7582L89.897 7.22602C90.0245 7.11334 90.1273 6.97647 90.1991 6.82373C90.271 6.67099 90.3103 6.50555 90.3149 6.33747C90.3194 6.16938 90.289 6.00215 90.2255 5.84591C90.162 5.68967 90.0667 5.5477 89.9454 5.42859C89.8242 5.30948 89.6795 5.21573 89.5201 5.15302C89.3606 5.09032 89.1899 5.05996 89.0181 5.0638C88.8464 5.06764 88.6772 5.10559 88.5209 5.17535C88.3646 5.24512 88.2244 5.34524 88.1088 5.46964L85.5343 7.9956C85.3559 8.16885 85.234 8.39009 85.1843 8.63124C85.1345 8.87239 85.1591 9.12257 85.2549 9.35002C85.3507 9.57746 85.5134 9.77191 85.7224 9.90868C85.9313 10.0454 86.1771 10.1184 86.4284 10.1182H86.4094Z" fill="#FE674C"/>
<path d="M76.6905 6.73047C77.0268 6.73047 77.3494 6.5997 77.5872 6.36692C77.825 6.13414 77.9586 5.81842 77.9586 5.48922L77.9206 1.82133C77.9206 1.49213 77.787 1.17641 77.5491 0.943632C77.3113 0.710852 76.9888 0.580078 76.6524 0.580078V0.580078C76.3161 0.580078 75.9935 0.710852 75.7557 0.943632C75.5179 1.17641 75.3843 1.49213 75.3843 1.82133L75.4287 5.48922C75.4287 5.81735 75.5614 6.13213 75.7978 6.36473C76.0343 6.59733 76.3552 6.72883 76.6905 6.73047Z" fill="#FE674C"/>
<path d="M90.2295 17.9063C90.2294 18.2302 90.3586 18.5414 90.5896 18.7733C90.8207 19.0052 91.1351 19.1395 91.4659 19.1476L95.1816 19.2407H95.2133C95.5496 19.2407 95.8722 19.1099 96.11 18.8772C96.3478 18.6444 96.4814 18.3286 96.4814 17.9994C96.4814 17.6702 96.3478 17.3545 96.11 17.1217C95.8722 16.8889 95.5496 16.7581 95.2133 16.7581L91.4976 16.665C91.1613 16.665 90.8387 16.7958 90.6009 17.0286C90.3631 17.2614 90.2295 17.5771 90.2295 17.9063Z" fill="#FE674C"/>
<path d="M81.0853 7.25895C81.3972 7.38141 81.7461 7.37764 82.0553 7.24847C82.3644 7.1193 82.6085 6.8753 82.7339 6.57008L84.1162 3.21259C84.1787 3.06141 84.2101 2.89967 84.2087 2.7366C84.2073 2.57354 84.1731 2.41234 84.108 2.26222C84.0429 2.1121 83.9483 1.97599 83.8295 1.86166C83.7107 1.74733 83.57 1.65703 83.4156 1.59591C83.2611 1.53478 83.0958 1.50403 82.9292 1.50542C82.7626 1.5068 82.5979 1.54029 82.4445 1.60397C82.2912 1.66765 82.1521 1.76027 82.0353 1.87655C81.9185 1.99283 81.8262 2.1305 81.7637 2.28168L80.3814 5.63917C80.3185 5.7907 80.2868 5.95292 80.2881 6.11649C80.2895 6.28006 80.3238 6.44176 80.3892 6.59229C80.4547 6.74282 80.5498 6.87921 80.6693 6.99362C80.7887 7.10803 80.9301 7.1982 81.0853 7.25895Z" fill="#FE674C"/>
<path d="M88.9834 13.2055C89.1064 13.5115 89.3484 13.7571 89.6563 13.8886C89.9642 14.0201 90.3128 14.0266 90.6256 13.9068L94.0433 12.5911C94.3332 12.4555 94.5597 12.2173 94.677 11.9245C94.7944 11.6318 94.7938 11.3063 94.6755 11.014C94.5571 10.7216 94.3298 10.4841 94.0394 10.3495C93.7491 10.2148 93.4173 10.1931 93.1112 10.2887L89.6936 11.6044C89.3837 11.726 89.1353 11.9624 89.0023 12.2621C88.8694 12.5619 88.8626 12.9009 88.9834 13.2055Z" fill="#FE674C"/>
<path d="M94.2659 25.4327C94.5735 25.5583 94.9193 25.5602 95.2285 25.4382C95.5376 25.3161 95.7852 25.0799 95.9177 24.7805C96.0502 24.4811 96.057 24.1427 95.9365 23.8385C95.8161 23.5343 95.5781 23.2887 95.2741 23.1549L91.8183 21.684C91.5107 21.5584 91.1649 21.5565 90.8558 21.6785C90.5466 21.8006 90.299 22.0368 90.1665 22.3362C90.034 22.6356 90.0273 22.974 90.1477 23.2782C90.2682 23.5824 90.5061 23.828 90.8101 23.9618L94.2659 25.4327Z" fill="#FE674C"/>
<path d="M87.3433 35.6844C87.5636 35.9292 87.8735 36.0794 88.206 36.1023C88.5385 36.1253 88.8669 36.0192 89.12 35.8069C89.3732 35.5947 89.5309 35.2935 89.5588 34.9683C89.5868 34.6432 89.4829 34.3204 89.2696 34.0697L86.8224 31.2649C86.6021 31.02 86.2922 30.8698 85.9597 30.8469C85.6272 30.8239 85.2988 30.9301 85.0456 31.1423C84.7925 31.3545 84.6348 31.6558 84.6068 31.9809C84.5788 32.306 84.6827 32.6288 84.8961 32.8795L87.3433 35.6844Z" fill="#FE674C"/>
<path d="M91.0279 30.5919C91.3037 30.775 91.6422 30.8444 91.97 30.7851C92.2978 30.7258 92.5885 30.5426 92.7793 30.2751C92.9702 30.0076 93.0457 29.6773 92.9897 29.3557C92.9336 29.0341 92.7504 28.747 92.4798 28.5566L89.393 26.4409C89.1171 26.2578 88.7787 26.1883 88.4509 26.2476C88.1231 26.3069 87.8323 26.4901 87.6415 26.7576C87.4507 27.0251 87.3751 27.3554 87.4312 27.677C87.4873 27.9986 87.6704 28.2857 87.9411 28.4761L91.0279 30.5919Z" fill="#FE674C"/>
<path d="M69.8233 7.23724C69.8907 7.38639 69.9875 7.52107 70.1082 7.63361C70.2288 7.74614 70.3709 7.83431 70.5264 7.8931C70.6818 7.95188 70.8476 7.98012 71.0142 7.97621C71.1807 7.97229 71.3449 7.9363 71.4973 7.87028C71.6497 7.80426 71.7873 7.70952 71.9023 7.59145C72.0173 7.47338 72.1073 7.3343 72.1674 7.18216C72.2275 7.03001 72.2563 6.86778 72.2523 6.70472C72.2483 6.54166 72.2115 6.38097 72.1441 6.23182L70.6096 2.83698C70.5421 2.68783 70.4453 2.55315 70.3247 2.44061C70.2041 2.32808 70.062 2.23991 69.9065 2.18112C69.7511 2.12234 69.5853 2.0941 69.4187 2.09801C69.2521 2.10193 69.0879 2.13792 68.9355 2.20394C68.7832 2.26996 68.6456 2.3647 68.5306 2.48277C68.4156 2.60084 68.3255 2.73992 68.2655 2.89206C68.2054 3.04421 68.1765 3.20644 68.1805 3.3695C68.1845 3.53256 68.2213 3.69325 68.2888 3.8424L69.8233 7.23724Z" fill="#FE674C"/>
<path d="M64.22 11.5799C64.3257 11.706 64.4558 11.8104 64.6027 11.8873C64.7497 11.9642 64.9107 12.012 65.0765 12.028C65.2424 12.044 65.4098 12.0278 65.5693 11.9805C65.7287 11.9332 65.8771 11.8555 66.0059 11.752C66.1347 11.6486 66.2415 11.5213 66.32 11.3774C66.3986 11.2336 66.4474 11.076 66.4637 10.9137C66.4801 10.7513 66.4636 10.5874 66.4152 10.4314C66.3668 10.2753 66.2875 10.13 66.1818 10.004L63.7762 7.13389C63.6705 7.0078 63.5405 6.90333 63.3935 6.82644C63.2465 6.74955 63.0855 6.70175 62.9197 6.68576C62.7539 6.66978 62.5864 6.68592 62.427 6.73327C62.2675 6.78062 62.1191 6.85825 61.9903 6.96172C61.8615 7.0652 61.7547 7.1925 61.6762 7.33635C61.5976 7.4802 61.5488 7.63779 61.5325 7.80011C61.5161 7.96244 61.5326 8.12632 61.581 8.28241C61.6294 8.43849 61.7087 8.58373 61.8144 8.70981L64.22 11.5799Z" fill="#FE674C"/>
<path d="M66.6526 31.0274C66.6529 31.3552 66.5206 31.6698 66.2848 31.9026L63.6977 34.4411C63.5826 34.5659 63.4428 34.6666 63.2867 34.7369C63.1307 34.8072 62.9616 34.8457 62.7899 34.8502C62.6182 34.8546 62.4473 34.8248 62.2877 34.7627C62.1281 34.7005 61.983 34.6073 61.8613 34.4886C61.7396 34.3699 61.6438 34.2282 61.5798 34.0722C61.5157 33.9162 61.4847 33.749 61.4886 33.5809C61.4925 33.4128 61.5313 33.2472 61.6026 33.0942C61.6739 32.9412 61.7762 32.804 61.9032 32.6908L64.484 30.1709C64.661 29.9962 64.887 29.877 65.1334 29.8283C65.3798 29.7796 65.6354 29.8036 65.8678 29.8974C66.1002 29.9912 66.2988 30.1505 66.4386 30.355C66.5783 30.5595 66.6528 30.8 66.6526 31.0461V31.0274Z" fill="#FE674C"/>
<path d="M62.1886 21.1224C62.1886 21.4516 62.055 21.7674 61.8172 22.0002C61.5793 22.233 61.2568 22.3638 60.9204 22.3638L57.173 22.3265C56.8366 22.3265 56.5141 22.1957 56.2762 21.9629C56.0384 21.7301 55.9048 21.4144 55.9048 21.0851V21.0851C55.9048 20.7559 56.0384 20.4401 56.2762 20.2073C56.5141 19.9745 56.8366 19.8438 57.173 19.8438L60.9204 19.8872C61.2557 19.8872 61.5773 20.0171 61.8149 20.2486C62.0526 20.4801 62.1869 20.7942 62.1886 21.1224Z" fill="#FE674C"/>
<path d="M75.612 33.9814C75.9429 33.9813 76.2608 34.1079 76.4977 34.334C76.7347 34.5601 76.872 34.8679 76.8802 35.1917L76.9753 38.8287V38.8598C76.9753 39.189 76.8417 39.5047 76.6039 39.7375C76.366 39.9703 76.0435 40.1011 75.7071 40.1011C75.3707 40.1011 75.0482 39.9703 74.8103 39.7375C74.5725 39.5047 74.4389 39.189 74.4389 38.8598L74.3438 35.2227C74.3438 34.8935 74.4774 34.5778 74.7152 34.345C74.953 34.1122 75.2756 33.9814 75.612 33.9814Z" fill="#FE674C"/>
<path d="M63.3301 26.0127C63.4552 26.318 63.4514 26.6595 63.3194 26.9621C63.1874 27.2646 62.9382 27.5036 62.6263 27.6263L59.1959 28.9793C59.0415 29.0404 58.8762 29.0712 58.7096 29.0698C58.543 29.0684 58.3783 29.0349 58.2249 28.9712C58.0716 28.9075 57.9325 28.8149 57.8157 28.6986C57.6989 28.5823 57.6066 28.4447 57.5442 28.2935C57.4817 28.1423 57.4503 27.9806 57.4517 27.8175C57.4531 27.6544 57.4873 27.4932 57.5524 27.3431C57.6175 27.193 57.7121 27.0568 57.8309 26.9425C57.9497 26.8282 58.0904 26.7379 58.2448 26.6767L61.6752 25.3238C61.83 25.2622 61.9958 25.2311 62.1629 25.2325C62.33 25.2338 62.4952 25.2674 62.649 25.3314C62.8028 25.3954 62.9421 25.4886 63.059 25.6055C63.1759 25.7224 63.2681 25.8608 63.3301 26.0127Z" fill="#FE674C"/>
<path d="M70.609 32.9577C70.9216 33.0781 71.1726 33.315 71.3069 33.6164C71.4412 33.9177 71.4479 34.259 71.3255 34.5652L69.9812 37.9106C69.8427 38.1943 69.5993 38.4161 69.3002 38.5309C69.0011 38.6458 68.6686 38.6453 68.3699 38.5294C68.0712 38.4136 67.8285 38.191 67.6909 37.9068C67.5534 37.6226 67.5312 37.2978 67.6288 36.9982L68.9731 33.6528C69.0973 33.3495 69.3388 33.1063 69.6451 32.9762C69.9514 32.8461 70.2977 32.8394 70.609 32.9577Z" fill="#FE674C"/>
<path d="M83.7031 37.1467C83.8314 37.4478 83.8334 37.7863 83.7087 38.0888C83.584 38.3914 83.3426 38.6337 83.0367 38.7634C82.7309 38.8931 82.3851 38.8997 82.0743 38.7819C81.7635 38.664 81.5126 38.431 81.3759 38.1335L79.8731 34.7512C79.7448 34.4501 79.7428 34.1117 79.8675 33.8091C79.9922 33.5066 80.2336 33.2642 80.5394 33.1345C80.8453 33.0048 81.191 32.9982 81.5019 33.1161C81.8127 33.234 82.0636 33.4669 82.2002 33.7645L83.7031 37.1467Z" fill="#FE674C"/>
<path d="M62.5053 14.4008C62.6577 14.4668 62.7953 14.5616 62.9102 14.6797C63.0252 14.7978 63.1153 14.9368 63.1753 15.089C63.2354 15.2412 63.2643 15.4034 63.2603 15.5665C63.2563 15.7296 63.2195 15.8903 63.152 16.0394C63.0846 16.1886 62.9878 16.3233 62.8672 16.4358C62.7465 16.5484 62.6045 16.6365 62.449 16.6953C62.2936 16.7541 62.1278 16.7824 61.9612 16.7785C61.7946 16.7745 61.6305 16.7385 61.4781 16.6725L58.0097 15.1705C57.8574 15.1044 57.7197 15.0097 57.6048 14.8916C57.4898 14.7735 57.3997 14.6344 57.3397 14.4823C57.2796 14.3301 57.2508 14.1679 57.2548 14.0048C57.2588 13.8417 57.2955 13.681 57.363 13.5319C57.4304 13.3827 57.5272 13.248 57.6478 13.1355C57.7685 13.0229 57.9106 12.9347 58.066 12.876C58.2214 12.8172 58.3872 12.7889 58.5538 12.7928C58.7204 12.7968 58.8845 12.8327 59.0369 12.8988L62.5053 14.4008Z" fill="#FE674C"/>
<path d="M86.4276 20.122C86.4276 25.6895 81.9142 30.2029 76.3466 30.2029C70.779 30.2029 66.2656 25.6895 66.2656 20.122C66.2656 14.5544 70.779 10.041 76.3466 10.041C81.9142 10.041 86.4276 14.5544 86.4276 20.122Z" stroke="#FE674C" stroke-width="3"/>
<path d="M82.5116 21.9809C82.5344 21.9864 82.5572 21.9911 82.58 21.9951C82.7952 22.0324 83.0153 21.9976 83.1966 21.8977C83.3778 21.7977 83.5068 21.6399 83.558 21.4557C84.2815 18.8491 82.7476 15.3381 79.6118 14.5401C79.5014 14.512 79.3865 14.5031 79.2739 14.5139C79.1613 14.5247 79.0531 14.555 78.9554 14.6031C78.7582 14.7001 78.6161 14.8637 78.5603 15.0577C78.5046 15.2517 78.5397 15.4603 78.658 15.6376C78.7763 15.8149 78.9681 15.9464 79.1912 16.0032C81.1139 16.4926 82.4419 18.9872 81.8723 21.0392C81.8183 21.2337 81.8553 21.4422 81.9752 21.6188C82.0951 21.7954 82.288 21.9256 82.5116 21.9809Z" fill="#FE674C"/>
<path d="M45.1674 13.3931C44.7875 11.5702 43.89 9.88911 42.578 8.54299C41.2659 7.19687 39.5926 6.24028 37.7501 5.78308C37.3087 4.57842 36.5592 3.50457 35.5733 2.66397C34.5873 1.82337 33.3978 1.24406 32.1181 0.981321C30.8384 0.718578 29.5113 0.781163 28.2633 1.1631C27.0154 1.54504 25.8882 2.2336 24.9894 3.16308H24.5808C21.8159 3.16837 19.1658 4.24576 17.2107 6.15936C15.2556 8.07295 14.1549 10.6668 14.1495 13.3731C14.1451 13.8044 14.1724 14.2355 14.2312 14.6631C13.7005 15.1436 13.2775 15.7269 12.989 16.3759C12.7006 17.0248 12.553 17.7254 12.5557 18.4331C12.5584 19.8008 13.1147 21.1117 14.1028 22.0788C15.0908 23.0459 16.4302 23.5904 17.8275 23.5931C18.8073 23.5951 19.7675 23.3246 20.5962 22.8131C21.8934 23.34 23.2858 23.6054 24.6902 23.5934C26.0946 23.5814 27.4821 23.2921 28.7696 22.7431C30.5485 24.2492 32.8101 25.0979 35.1618 25.1418C37.5134 25.1856 39.8065 24.4218 41.6427 22.9831C42.399 23.3832 43.2451 23.5929 44.1049 23.5931C45.4023 23.5866 46.6518 23.1121 47.6142 22.2604C48.5765 21.4086 49.1842 20.2393 49.3208 18.9764C49.4574 17.7135 49.1134 16.4457 48.3546 15.4155C47.5959 14.3854 46.4756 13.6653 45.2083 13.3931H45.1674ZM43.5123 20.3931C43.493 20.2264 43.4396 20.0653 43.3554 19.9193C43.2711 19.7732 43.1577 19.6453 43.0219 19.5431C42.7479 19.3372 42.4017 19.2458 42.0591 19.2889C41.7164 19.332 41.4051 19.5061 41.1931 19.7731C41.1612 19.8237 41.1235 19.8707 41.0807 19.9131C40.7751 20.2789 40.4328 20.6139 40.0591 20.9131C38.7314 21.9856 37.0603 22.5662 35.3389 22.5531C33.8293 22.5546 32.3546 22.1084 31.1092 21.2731C31.3097 21.0351 31.4149 20.7339 31.4051 20.4256C31.3953 20.1174 31.2712 19.8231 31.0561 19.5978C30.8409 19.3725 30.5493 19.2315 30.2357 19.2012C29.9221 19.1709 29.608 19.2533 29.352 19.4331C29.2089 19.5431 29.0557 19.6431 28.882 19.7531C28.4623 20.0265 28.0136 20.2545 27.5436 20.4331C25.8781 21.0929 24.0319 21.1741 22.3127 20.6631C22.3103 20.4694 22.2632 20.2788 22.1747 20.1056C22.0862 19.9324 21.9587 19.7811 21.8018 19.6631C21.6576 19.5626 21.4944 19.4914 21.3216 19.4536C21.1489 19.4158 20.9702 19.4121 20.796 19.4429C20.6218 19.4736 20.4557 19.5381 20.3073 19.6326C20.159 19.7271 20.0314 19.8496 19.9322 19.9931C19.6425 20.339 19.2706 20.6102 18.8492 20.7831H18.7572C18.466 20.888 18.1583 20.9421 17.848 20.9431C17.1353 20.9431 16.4519 20.666 15.948 20.1728C15.4441 19.6795 15.161 19.0106 15.161 18.3131C15.1718 17.8157 15.3317 17.3323 15.6207 16.9231C15.8986 16.5255 16.2893 16.2161 16.7445 16.0331C17.065 15.8875 17.413 15.8092 17.7662 15.8031C18.0892 15.7749 18.3896 15.6295 18.6085 15.3954C18.8273 15.1612 18.9487 14.8554 18.9487 14.5381C18.9487 14.2207 18.8273 13.9149 18.6085 13.6808C18.3896 13.4466 18.0892 13.3012 17.7662 13.2731C17.399 13.2745 17.0328 13.3113 16.673 13.3831C16.6733 11.5543 17.3386 9.78533 18.5497 8.39283C19.7609 7.00033 21.4388 6.07521 23.2832 5.78308C22.9863 6.59841 22.8343 7.4575 22.8337 8.32307C22.8624 8.63916 23.011 8.93326 23.2502 9.14747C23.4894 9.36169 23.8019 9.48049 24.1261 9.48049C24.4503 9.48049 24.7628 9.36169 25.002 9.14747C25.2412 8.93326 25.3898 8.63916 25.4185 8.32307C25.4175 7.58699 25.5849 6.86003 25.9085 6.19555C26.232 5.53107 26.7034 4.94593 27.2882 4.48308L27.4312 4.38308C28.3093 3.72256 29.3889 3.37034 30.4962 3.38308C31.3376 3.38734 32.1649 3.59496 32.9046 3.98748C33.6442 4.38 34.2734 4.94527 34.7362 5.63308C34.5018 5.77338 34.319 5.98286 34.2141 6.23136C34.1092 6.47985 34.0875 6.75452 34.1523 7.01583C34.217 7.27713 34.3648 7.51157 34.5744 7.6854C34.784 7.85922 35.0445 7.96345 35.3185 7.98307C35.5464 7.96788 35.7751 7.96788 36.003 7.98307C36.523 8.03183 37.0365 8.13235 37.5355 8.28307C39.062 8.74321 40.3962 9.67269 41.3403 10.9336C42.2844 12.1946 42.7881 13.7198 42.7767 15.2831C42.7759 15.554 42.8644 15.818 43.0291 16.0359C43.1937 16.2537 43.4257 16.4138 43.6907 16.4924C43.9556 16.571 44.2394 16.5639 44.4999 16.4721C44.7604 16.3804 44.9837 16.2089 45.1368 15.9831C45.6791 16.2376 46.1185 16.6629 46.3846 17.1908C46.6507 17.7188 46.7282 18.3189 46.6046 18.895C46.481 19.4712 46.1635 19.99 45.7028 20.3686C45.2422 20.7472 44.6651 20.9635 44.064 20.9831C43.8578 20.98 43.6524 20.9565 43.451 20.9131C43.5051 20.7555 43.5259 20.5888 43.5123 20.4231V20.3931Z" fill="#13A6D9"/>
<path d="M115.46 75.4908C115.253 74.4558 114.328 73.7085 113.251 73.7085C112.174 73.7085 111.248 74.4558 111.041 75.4908L104.408 108.889C104.281 109.533 104.453 110.203 104.881 110.709C105.308 111.216 105.944 111.511 106.616 111.511H111.173V117.982C111.173 119.198 112.181 120.185 113.423 120.185C114.665 120.185 115.673 119.198 115.673 117.982V111.511H119.882C119.893 111.512 119.905 111.512 119.912 111.511C121.156 111.511 122.162 110.524 122.162 109.308C122.162 109.038 122.114 108.781 122.023 108.542L115.46 75.4908ZM109.348 107.108L113.252 87.4534L117.157 107.108H109.348Z" fill="#12CAD6"/>
<path d="M121.416 35.6025C120.174 35.6025 119.166 36.5876 119.166 37.8047C119.166 39.0217 120.174 40.0068 121.416 40.0068H124.717C125.959 40.0068 126.967 39.0217 126.967 37.8047C126.967 36.5876 125.959 35.6025 124.717 35.6025H121.416Z" fill="#13A6D9"/>
<path d="M109.546 29.0342H112.847C114.09 29.0342 115.098 28.049 115.098 26.8318C115.098 25.6146 114.09 24.6294 112.847 24.6294H109.546C108.304 24.6294 107.296 25.6146 107.296 26.8318C107.296 28.049 108.304 29.0342 109.546 29.0342Z" fill="#13A6D9"/>
<path d="M119.883 14.6562H123.185C124.427 14.6562 125.435 13.6712 125.435 12.4541C125.435 11.237 124.427 10.252 123.185 10.252H119.883C118.641 10.252 117.633 11.237 117.633 12.4541C117.633 13.6712 118.641 14.6562 119.883 14.6562Z" fill="#13A6D9"/>
<path d="M98.7377 94.6658C98.7377 93.8582 98.3135 93.16 97.7259 93.077C97.1595 92.997 96.5844 92.9611 96.0061 92.971C93.6867 92.9295 91.4178 93.6246 89.551 94.9486C88.2534 95.9125 86.6505 96.4181 85.0111 96.3806C83.3717 96.4181 81.7688 95.9125 80.4712 94.9486C78.6044 93.6246 76.3355 92.9295 74.0161 92.971C73.5457 92.971 73.0947 93.1506 72.7621 93.4703C72.4295 93.79 72.2427 94.2237 72.2427 94.6758C72.2427 95.128 72.4295 95.5616 72.7621 95.8813C73.0947 96.201 73.5457 96.3806 74.0161 96.3806C75.6554 96.3432 77.2584 96.8488 78.556 97.8127C80.4227 99.1367 82.6917 99.8318 85.0111 99.7903C87.3306 99.8324 89.5998 99.1373 91.4663 97.8127C92.7638 96.8488 94.3668 96.3432 96.0061 96.3806C96.3995 96.3721 96.7908 96.3948 97.1763 96.4477C97.9732 96.5569 98.7377 95.7608 98.7377 94.6658Z" fill="#FE674C"/>
<path d="M103.164 106.017C103.164 105.209 102.74 104.511 102.152 104.428C101.586 104.348 101.011 104.312 100.432 104.322C98.113 104.281 95.844 104.976 93.9773 106.3C92.6797 107.264 91.0768 107.769 89.4374 107.732C87.798 107.769 86.1951 107.264 84.8975 106.3C83.0307 104.976 80.7618 104.281 78.4423 104.322C77.972 104.322 77.5209 104.502 77.1884 104.821C76.8558 105.141 76.6689 105.575 76.6689 106.027C76.6689 106.479 76.8558 106.913 77.1884 107.232C77.5209 107.552 77.972 107.732 78.4423 107.732C80.0817 107.694 81.6846 108.2 82.9822 109.164C84.849 110.488 87.1179 111.183 89.4374 111.141C91.7569 111.184 94.026 110.488 95.8925 109.164C97.1901 108.2 98.793 107.694 100.432 107.732C100.826 107.723 101.217 107.746 101.603 107.799C102.399 107.908 103.164 107.112 103.164 106.017Z" fill="#FE674C"/>
</svg>
