<svg width="188" height="134" viewBox="0 0 188 134" fill="none" xmlns="http://www.w3.org/2000/svg">
<path d="M125.179 91.8944C125.245 91.8991 125.31 91.9014 125.374 91.9014C125.983 91.9008 126.57 91.6757 127.017 91.271C127.465 90.8663 127.74 90.3115 127.789 89.7171C128.473 81.3078 122.511 71.3261 113.507 70.5521C113.19 70.5248 112.871 70.559 112.567 70.6526C112.263 70.7462 111.982 70.8975 111.738 71.0978C111.245 71.5022 110.937 72.0816 110.88 72.7085C110.824 73.3355 111.025 73.9586 111.438 74.4408C111.851 74.923 112.443 75.2249 113.084 75.2799C118.604 75.755 123.494 82.7192 122.955 89.3393C122.904 89.9669 123.109 90.5886 123.527 91.0678C123.944 91.547 124.538 91.8443 125.179 91.8944Z" fill="#FE674C"/>
<path d="M135.967 97.4546C136.61 97.4546 137.227 97.2045 137.682 96.7595C138.136 96.3144 138.392 95.7108 138.392 95.0814C138.392 83.7521 133.794 72.8868 125.609 64.8758C117.424 56.8648 106.324 52.3643 94.7489 52.3643C83.1741 52.3643 72.0733 56.8648 63.8887 64.8758C55.704 72.8868 51.106 83.7521 51.106 95.0814C51.106 95.7108 51.3614 96.3144 51.8161 96.7595C52.2708 97.2046 52.8875 97.4546 53.5306 97.4546C54.1736 97.4546 54.7903 97.2046 55.245 96.7595C55.6997 96.3144 55.9552 95.7108 55.9552 95.0814C55.9552 85.0109 60.0424 75.3529 67.3176 68.232C74.5928 61.1111 84.4602 57.1106 94.7489 57.1106C105.038 57.1106 114.905 61.1111 122.18 68.232C129.455 75.3529 133.543 85.0109 133.543 95.0814C133.543 95.7108 133.798 96.3144 134.253 96.7595C134.708 97.2045 135.324 97.4546 135.967 97.4546Z" fill="#FE674C"/>
<path d="M168.581 71.6138C168.381 71.0156 167.948 70.5193 167.375 70.2336C166.802 69.9479 166.137 69.8963 165.526 70.09L142.453 77.4238C142.15 77.5199 141.869 77.6735 141.627 77.8759C141.385 78.0782 141.185 78.3253 141.041 78.603C140.896 78.8807 140.809 79.1836 140.783 79.4944C140.758 79.8052 140.796 80.1178 140.894 80.4143C140.993 80.7109 141.15 80.9855 141.357 81.2226C141.564 81.4597 141.816 81.6546 142.1 81.7961C142.384 81.9376 142.693 82.023 143.011 82.0474C143.328 82.0718 143.648 82.0347 143.951 81.9383L167.023 74.6045C167.635 74.41 168.143 73.9857 168.435 73.4248C168.727 72.864 168.779 72.2125 168.581 71.6138Z" fill="#FE674C"/>
<path d="M123.27 56.6826C123.79 57.0525 124.439 57.205 125.074 57.1065C125.709 57.0081 126.278 56.6668 126.656 56.1577L140.915 36.9581C141.103 36.706 141.237 36.4203 141.312 36.1173C141.386 35.8143 141.399 35.5 141.349 35.1922C141.299 34.8844 141.188 34.5892 141.022 34.3234C140.855 34.0577 140.637 33.8266 140.38 33.6434C140.122 33.4602 139.83 33.3284 139.521 33.2556C139.211 33.1828 138.89 33.1704 138.575 33.2191C138.261 33.2678 137.959 33.3766 137.688 33.5394C137.416 33.7021 137.18 33.9157 136.993 34.1677L122.734 53.3674C122.356 53.8766 122.2 54.5119 122.3 55.1336C122.401 55.7553 122.749 56.3125 123.27 56.6826Z" fill="#FE674C"/>
<path d="M62.8418 56.1579C63.029 56.41 63.265 56.6235 63.5365 56.7863C63.808 56.9491 64.1096 57.0579 64.4241 57.1066C64.7386 57.1553 65.0597 57.1429 65.3693 57.0701C65.6789 56.9973 65.9708 56.8655 66.2283 56.6823C66.4858 56.4991 66.704 56.268 66.8703 56.0022C67.0366 55.7365 67.1478 55.4413 67.1975 55.1335C67.2473 54.8257 67.2346 54.5114 67.1602 54.2084C67.0858 53.9054 66.9512 53.6197 66.764 53.3676L52.5047 34.1678C52.3175 33.9157 52.0814 33.7022 51.8099 33.5394C51.5384 33.3766 51.2368 33.2678 50.9224 33.2191C50.6079 33.1704 50.2867 33.1828 49.9771 33.2556C49.6676 33.3284 49.3757 33.4602 49.1181 33.6434C48.8606 33.8266 48.6425 34.0577 48.4762 34.3234C48.3099 34.5892 48.1987 34.8844 48.1489 35.1922C48.0992 35.4999 48.1119 35.8143 48.1862 36.1173C48.2606 36.4203 48.3952 36.706 48.5824 36.9581L62.8418 56.1579Z" fill="#FE674C"/>
<path d="M48.602 80.4143C48.8007 79.8156 48.7482 79.1641 48.4561 78.6033C48.164 78.0424 47.6563 77.618 47.0446 77.4235L23.9717 70.0895C23.6687 69.9931 23.3494 69.956 23.0318 69.9804C22.7143 70.0048 22.4048 70.0902 22.1209 70.2318C21.8371 70.3733 21.5846 70.5682 21.3777 70.8053C21.1709 71.0423 21.0138 71.317 20.9154 71.6135C20.817 71.9101 20.7793 72.2227 20.8044 72.5335C20.8295 72.8443 20.9169 73.1472 21.0617 73.4249C21.2064 73.7027 21.4056 73.9498 21.648 74.1521C21.8903 74.3544 22.171 74.5081 22.474 74.6042L45.547 81.9382C45.8498 82.0349 46.1691 82.0722 46.4867 82.048C46.8043 82.0237 47.1138 81.9384 47.3976 81.7968C47.6814 81.6553 47.9339 81.4603 48.1406 81.2231C48.3472 80.9858 48.5041 80.711 48.602 80.4143H48.602Z" fill="#FE674C"/>
<path d="M94.7488 47.6177C95.3919 47.6176 96.0086 47.3676 96.4633 46.9226C96.918 46.4775 97.1734 45.8739 97.1735 45.2445V21.5128C97.1735 20.8834 96.918 20.2798 96.4633 19.8347C96.0086 19.3897 95.3919 19.1396 94.7488 19.1396C94.1058 19.1396 93.4891 19.3897 93.0344 19.8347C92.5797 20.2798 92.3242 20.8834 92.3242 21.5128V45.2445C92.3243 45.8739 92.5797 46.4775 93.0344 46.9226C93.4891 47.3676 94.1058 47.6176 94.7488 47.6177Z" fill="#FE674C"/>
<path d="M76.7 48.4176C76.7978 48.7146 76.9546 48.9897 77.1613 49.2274C77.368 49.465 77.6205 49.6603 77.9044 49.8023C78.1884 49.9442 78.4981 50.03 78.816 50.0546C79.1338 50.0792 79.4535 50.0423 79.7567 49.9458C80.0599 49.8493 80.3407 49.6953 80.583 49.4925C80.8253 49.2896 81.0243 49.042 81.1687 48.7638C81.3131 48.4856 81.4 48.1822 81.4245 47.8711C81.449 47.5599 81.4105 47.2471 81.3112 46.9506L77.1877 34.5365C77.0898 34.2395 76.9331 33.9644 76.7264 33.7267C76.5197 33.4891 76.2672 33.2938 75.9832 33.1518C75.6993 33.0099 75.3896 32.9241 75.0717 32.8995C74.7539 32.8749 74.4342 32.9118 74.131 33.0083C73.8278 33.1048 73.547 33.2588 73.3047 33.4616C73.0624 33.6645 72.8634 33.9121 72.719 34.1903C72.5746 34.4685 72.4877 34.7719 72.4632 35.083C72.4387 35.3942 72.4772 35.707 72.5765 36.0035L76.7 48.4176Z" fill="#FE674C"/>
<path d="M41.3127 60.0364L52.1074 67.7086C52.6277 68.0785 53.2768 68.2309 53.9119 68.1323C54.547 68.0338 55.1161 67.6923 55.4939 67.1831C55.8718 66.6739 56.0276 66.0385 55.9269 65.4169C55.8262 64.7953 55.4773 64.2383 54.9571 63.8684L44.1623 56.1962C43.6421 55.8263 42.993 55.6739 42.3579 55.7724C41.7228 55.871 41.1537 56.2125 40.7758 56.7217C40.3979 57.2309 40.2422 57.8662 40.3429 58.4879C40.4436 59.1095 40.7924 59.6665 41.3127 60.0364Z" fill="#FE674C"/>
<path d="M43.8024 92.708H30.4588C29.8157 92.708 29.199 92.958 28.7443 93.4031C28.2896 93.8482 28.0342 94.4519 28.0342 95.0813C28.0342 95.7107 28.2896 96.3144 28.7443 96.7595C29.199 97.2045 29.8157 97.4546 30.4588 97.4546H43.8024C44.4455 97.4546 45.0622 97.2045 45.5169 96.7595C45.9716 96.3144 46.2271 95.7107 46.2271 95.0813C46.2271 94.4519 45.9716 93.8482 45.5169 93.4031C45.0622 92.958 44.4455 92.708 43.8024 92.708Z" fill="#FE674C"/>
<path d="M145.696 92.708C145.053 92.708 144.436 92.958 143.981 93.4031C143.526 93.8482 143.271 94.4519 143.271 95.0813C143.271 95.7107 143.526 96.3144 143.981 96.7595C144.436 97.2045 145.053 97.4546 145.696 97.4546H159.039C159.682 97.4546 160.299 97.2045 160.754 96.7595C161.208 96.3144 161.464 95.7107 161.464 95.0813C161.464 94.4519 161.208 93.8482 160.754 93.4031C160.299 92.958 159.682 92.708 159.039 92.708H145.696Z" fill="#FE674C"/>
<path d="M134.003 67.1825C134.19 67.4347 134.426 67.6485 134.698 67.8114C134.969 67.9744 135.271 68.0834 135.585 68.1323C135.9 68.1811 136.221 68.1689 136.531 68.0962C136.84 68.0235 137.132 67.8917 137.39 67.7085L148.185 60.0363C148.705 59.6665 149.054 59.1095 149.155 58.4878C149.255 57.8662 149.1 57.2309 148.722 56.7217C148.344 56.2124 147.775 55.871 147.14 55.7724C146.505 55.6739 145.855 55.8263 145.335 56.1962L134.54 63.8684C134.283 64.0514 134.064 64.2824 133.898 64.548C133.732 64.8137 133.62 65.1088 133.57 65.4165C133.521 65.7243 133.533 66.0387 133.607 66.3417C133.682 66.6447 133.816 66.9304 134.003 67.1825Z" fill="#FE674C"/>
<path d="M109.742 49.9411C110.045 50.0378 110.365 50.0752 110.682 50.0509C111 50.0267 111.309 49.9413 111.593 49.7998C111.877 49.6582 112.129 49.4632 112.336 49.226C112.543 48.9888 112.699 48.714 112.797 48.4173L116.921 36.0035C117.02 35.7069 117.059 35.3941 117.034 35.083C117.01 34.7719 116.923 34.4685 116.778 34.1903C116.634 33.9121 116.435 33.6645 116.193 33.4616C115.95 33.2588 115.67 33.1048 115.366 33.0083C115.063 32.9118 114.743 32.8749 114.426 32.8995C114.108 32.9241 113.798 33.0099 113.514 33.1518C113.23 33.2938 112.978 33.4891 112.771 33.7267C112.564 33.9643 112.408 34.2395 112.31 34.5365L108.186 46.9503C108.088 47.2467 108.05 47.5592 108.075 47.8699C108.1 48.1806 108.187 48.4835 108.331 48.7612C108.476 49.0389 108.675 49.286 108.917 49.4885C109.159 49.6909 109.44 49.8447 109.742 49.9411Z" fill="#FE674C"/>
<path d="M184.835 103.145C181.029 103.095 177.306 103.911 174.243 105.465C172.086 106.557 169.48 107.146 166.803 107.146C164.126 107.146 161.52 106.557 159.364 105.465C156.27 103.956 152.571 103.146 148.779 103.146C144.986 103.146 141.288 103.956 138.193 105.465C136.04 106.556 133.435 107.144 130.761 107.144C128.087 107.144 125.483 106.556 123.329 105.465C120.235 103.956 116.536 103.146 112.744 103.146C108.952 103.146 105.253 103.956 102.159 105.465C100.006 106.558 97.4013 107.147 94.7266 107.147C92.0519 107.147 89.4474 106.558 87.2945 105.465C84.2011 103.955 80.5021 103.143 76.7093 103.143C72.9165 103.143 69.2175 103.955 66.1241 105.465C63.9712 106.558 61.3667 107.147 58.692 107.147C56.0173 107.147 53.4128 106.558 51.2599 105.465C48.2048 103.914 44.4924 103.099 40.6965 103.145C36.8957 103.097 33.1777 103.912 30.1186 105.465C27.9923 106.596 25.3656 107.189 22.6792 107.145C19.9928 107.189 17.3661 106.596 15.2398 105.465C12.1807 103.912 8.46269 103.097 4.66188 103.145C3.89115 103.145 3.152 103.356 2.60701 103.731C2.06203 104.106 1.75586 104.615 1.75586 105.145C1.75586 105.676 2.06203 106.184 2.60701 106.56C3.152 106.935 3.89115 107.145 4.66188 107.145C7.34829 107.101 9.97497 107.694 12.1013 108.825C15.1603 110.379 18.8784 111.194 22.6792 111.145C26.4802 111.195 30.1985 110.379 33.2571 108.825C35.3834 107.694 38.0101 107.101 40.6965 107.145C43.378 107.104 45.999 107.697 48.1214 108.825C51.1804 110.379 54.8985 111.194 58.6993 111.145C62.5001 111.194 66.2181 110.379 69.2772 108.825C71.4301 107.733 74.0346 107.144 76.7093 107.144C79.384 107.144 81.9885 107.733 84.1414 108.825C87.2334 110.333 90.9296 111.144 94.7194 111.144C98.5091 111.144 102.205 110.333 105.297 108.825C107.451 107.734 110.055 107.146 112.729 107.146C115.404 107.146 118.008 107.734 120.162 108.825C123.256 110.334 126.954 111.145 130.747 111.145C134.539 111.145 138.238 110.334 141.332 108.825C143.486 107.734 146.09 107.146 148.764 107.146C151.438 107.146 154.042 107.734 156.196 108.825C159.293 110.335 162.994 111.146 166.789 111.146C170.583 111.146 174.285 110.335 177.381 108.825C179.512 107.694 182.144 107.101 184.835 107.145C185.606 107.145 186.345 106.935 186.89 106.56C187.435 106.184 187.741 105.676 187.741 105.145C187.741 104.615 187.435 104.106 186.89 103.731C186.345 103.356 185.606 103.145 184.835 103.145Z" fill="#12CAD6"/>
<path d="M145.139 116.691C145.139 115.441 144.042 114.466 142.822 114.738C141.064 115.129 139.392 115.711 137.869 116.47C135.762 117.562 133.213 118.151 130.595 118.151C127.977 118.151 125.428 117.562 123.32 116.47C120.293 114.959 116.672 114.148 112.96 114.148C109.247 114.148 105.627 114.959 102.599 116.47C100.492 117.562 97.9426 118.151 95.3246 118.151C92.7066 118.151 90.1574 117.562 88.0501 116.47C85.0598 114.918 81.4262 114.103 77.7108 114.15C73.9906 114.101 70.3515 114.916 67.3573 116.47C65.2761 117.6 62.7051 118.194 60.0757 118.15C57.4463 118.194 54.8753 117.6 52.7941 116.47C49.7999 114.916 46.1608 114.101 42.4406 114.15C41.6862 114.15 40.9627 114.36 40.4293 114.735C39.8959 115.11 39.5962 115.619 39.5962 116.15C39.5962 116.68 39.8959 117.189 40.4293 117.564C40.9627 117.939 41.6862 118.15 42.4406 118.15C45.07 118.106 47.641 118.699 49.7222 119.83C52.7163 121.383 56.3555 122.198 60.0757 122.15C63.796 122.199 67.4355 121.383 70.4292 119.83C72.5104 118.699 75.0814 118.106 77.7108 118.15C80.3354 118.108 82.9008 118.701 84.9782 119.83C87.9724 121.383 91.6115 122.198 95.3317 122.15C99.0519 122.198 102.691 121.383 105.685 119.83C107.793 118.737 110.342 118.148 112.96 118.148C115.578 118.148 118.127 118.737 120.234 119.83C123.261 121.338 126.878 122.148 130.588 122.148C134.297 122.148 137.915 121.338 140.941 119.83C141.724 119.425 142.567 119.089 143.451 118.827C144.415 118.542 145.139 117.696 145.139 116.691Z" fill="#12CAD6"/>
<path d="M113.615 127.142C113.615 126.194 112.935 125.375 111.993 125.278C111.084 125.184 110.162 125.142 109.234 125.154C105.514 125.105 101.875 125.92 98.8807 127.474C96.7995 128.604 94.2286 129.198 91.5991 129.154C88.9697 129.198 86.3987 128.604 84.3175 127.474C81.3234 125.92 77.6842 125.105 73.964 125.154C73.2096 125.154 72.4862 125.364 71.9527 125.739C71.4193 126.115 71.1196 126.623 71.1196 127.154C71.1196 127.684 71.4193 128.193 71.9527 128.568C72.4862 128.943 73.2096 129.154 73.964 129.154C76.5934 129.11 79.1644 129.703 81.2456 130.834C84.2398 132.387 87.8789 133.202 91.5991 133.154C95.3195 133.203 98.959 132.388 101.953 130.834C104.034 129.703 106.605 129.11 109.234 129.154C109.865 129.144 110.493 129.17 111.111 129.232C112.389 129.36 113.615 128.426 113.615 127.142Z" fill="#12CAD6"/>
<path d="M32.5062 38.9852C32.1366 37.2117 31.2634 35.5762 29.9869 34.2665C28.7104 32.9568 27.0823 32.0261 25.2898 31.5813C24.8603 30.4093 24.1312 29.3645 23.1719 28.5467C22.2127 27.7289 21.0554 27.1652 19.8103 26.9096C18.5653 26.654 17.2742 26.7149 16.06 27.0865C14.8459 27.4581 13.7492 28.128 12.8748 29.0323H12.4772C9.7872 29.0374 7.20889 30.0856 5.30678 31.9474C3.40467 33.8092 2.33375 36.3328 2.3285 38.9658C2.32424 39.3854 2.35082 39.8049 2.40802 40.2208C1.89161 40.6884 1.48007 41.2558 1.19945 41.8872C0.918838 42.5186 0.775277 43.2002 0.777866 43.8887C0.780493 45.2194 1.32171 46.4948 2.28302 47.4357C3.24433 48.3767 4.54739 48.9064 5.90688 48.909C6.86012 48.911 7.79431 48.6478 8.60061 48.1501C9.86262 48.6628 11.2173 48.921 12.5837 48.9093C13.95 48.8976 15.2999 48.6162 16.5526 48.082C18.2832 49.5474 20.4836 50.3731 22.7716 50.4157C25.0595 50.4584 27.2905 49.7153 29.0769 48.3155C29.8127 48.7048 30.636 48.9088 31.4724 48.909C32.7347 48.9027 33.9504 48.4411 34.8867 47.6124C35.8229 46.7836 36.4141 45.6461 36.547 44.4174C36.68 43.1887 36.3453 41.9552 35.6071 40.9529C34.8688 39.9507 33.7789 39.2501 32.5459 38.9852H32.5062ZM30.8959 45.7956C30.8771 45.6335 30.8252 45.4768 30.7432 45.3347C30.6613 45.1926 30.5509 45.0681 30.4188 44.9687C30.1522 44.7684 29.8154 44.6795 29.482 44.7214C29.1487 44.7633 28.8458 44.9327 28.6395 45.1924C28.6085 45.2417 28.5718 45.2874 28.5302 45.3286C28.2328 45.6846 27.8998 46.0105 27.5362 46.3016C26.2445 47.345 24.6187 47.9099 22.944 47.8971C21.4752 47.8987 20.0404 47.4645 18.8288 46.6518C19.0239 46.4203 19.1262 46.1272 19.1166 45.8273C19.1071 45.5274 18.9864 45.2411 18.7771 45.0219C18.5677 44.8027 18.284 44.6656 17.979 44.6361C17.6739 44.6066 17.3683 44.6868 17.1191 44.8616C16.98 44.9687 16.8309 45.066 16.6619 45.173C16.2536 45.439 15.817 45.6609 15.3598 45.8346C13.7394 46.4766 11.9432 46.5555 10.2705 46.0583C10.2683 45.8699 10.2224 45.6845 10.1363 45.5159C10.0502 45.3474 9.92616 45.2002 9.77352 45.0854C9.63322 44.9877 9.47439 44.9184 9.30634 44.8816C9.1383 44.8448 8.96443 44.8413 8.79497 44.8712C8.62551 44.9011 8.46386 44.9639 8.31953 45.0558C8.1752 45.1477 8.0511 45.2669 7.95451 45.4065C7.67265 45.743 7.31091 46.0069 6.90087 46.1751H6.81142C6.52808 46.2771 6.22867 46.3298 5.92676 46.3307C5.23343 46.3307 4.5685 46.0612 4.07824 45.5813C3.58798 45.1014 3.31255 44.4506 3.31255 43.772C3.32312 43.288 3.47865 42.8178 3.75985 42.4196C4.03025 42.0328 4.41031 41.7318 4.85325 41.5537C5.16502 41.4121 5.50359 41.3359 5.84724 41.33C6.16143 41.3026 6.45376 41.1611 6.66669 40.9333C6.87962 40.7055 6.99771 40.408 6.99771 40.0992C6.99771 39.7905 6.87962 39.4929 6.66669 39.2651C6.45376 39.0374 6.16143 38.8958 5.84724 38.8685C5.48998 38.8699 5.13374 38.9057 4.78367 38.9755C4.78393 37.1963 5.43117 35.4752 6.60951 34.1204C7.78785 32.7656 9.42037 31.8655 11.2148 31.5813C10.9259 32.3746 10.778 33.2104 10.7775 34.0525C10.8054 34.3601 10.95 34.6462 11.1827 34.8546C11.4154 35.063 11.7194 35.1786 12.0349 35.1786C12.3503 35.1786 12.6543 35.063 12.887 34.8546C13.1197 34.6462 13.2643 34.3601 13.2923 34.0525C13.2913 33.3364 13.4542 32.6291 13.7689 31.9826C14.0837 31.3361 14.5424 30.7669 15.1113 30.3165L15.2504 30.2192C16.1047 29.5766 17.155 29.2339 18.2324 29.2463C19.051 29.2505 19.8559 29.4525 20.5755 29.8344C21.2952 30.2163 21.9073 30.7662 22.3575 31.4354C22.1295 31.5719 21.9517 31.7757 21.8496 32.0175C21.7475 32.2592 21.7264 32.5265 21.7894 32.7807C21.8524 33.0349 21.9962 33.263 22.2001 33.4321C22.404 33.6012 22.6575 33.7027 22.9241 33.7217C23.1458 33.707 23.3683 33.707 23.59 33.7217C24.0959 33.7692 24.5955 33.867 25.081 34.0136C26.5661 34.4613 27.8642 35.3656 28.7828 36.5924C29.7013 37.8192 30.1914 39.3031 30.1802 40.824C30.1795 41.0877 30.2656 41.3445 30.4258 41.5565C30.5859 41.7684 30.8117 41.9242 31.0694 42.0007C31.3272 42.0771 31.6033 42.0702 31.8568 41.9809C32.1102 41.8916 32.3275 41.7248 32.4764 41.5051C33.004 41.7527 33.4315 42.1665 33.6904 42.6802C33.9493 43.1938 34.0247 43.7776 33.9044 44.3382C33.7842 44.8987 33.4752 45.4035 33.0271 45.7719C32.579 46.1402 32.0175 46.3507 31.4327 46.3697C31.232 46.3667 31.0322 46.3438 30.8363 46.3016C30.8889 46.1482 30.9091 45.986 30.8959 45.8248V45.7956Z" fill="#13A6D9"/>
<path d="M181.751 15.5487C181.302 13.3913 180.24 11.4019 178.687 9.80875C177.134 8.21565 175.154 7.08355 172.973 6.54247C172.451 5.11679 171.564 3.84591 170.397 2.85108C169.23 1.85625 167.822 1.17066 166.308 0.859714C164.793 0.548765 163.223 0.622833 161.746 1.07485C160.269 1.52687 158.935 2.34175 157.871 3.44177H157.388C154.115 3.44803 150.979 4.72309 148.665 6.98778C146.352 9.25247 145.049 12.3223 145.043 15.525C145.037 16.0355 145.07 16.5457 145.139 17.0517C144.511 17.6204 144.01 18.3107 143.669 19.0787C143.328 19.8468 143.153 20.6758 143.156 21.5134C143.159 23.132 143.818 24.6835 144.987 25.828C146.157 26.9726 147.742 27.617 149.395 27.6201C150.555 27.6225 151.691 27.3024 152.672 26.697C154.207 27.3206 155.855 27.6347 157.517 27.6205C159.179 27.6063 160.821 27.264 162.345 26.6142C164.45 28.3967 167.127 29.4011 169.91 29.453C172.693 29.5049 175.407 28.6009 177.58 26.8982C178.475 27.3718 179.476 27.6199 180.494 27.6201C182.029 27.6125 183.508 27.051 184.647 26.0429C185.786 25.0348 186.505 23.6511 186.667 22.1565C186.828 20.6619 186.421 19.1614 185.523 17.9422C184.625 16.7231 183.3 15.8708 181.8 15.5487H181.751ZM179.793 23.833C179.77 23.6358 179.707 23.4451 179.607 23.2723C179.507 23.0995 179.373 22.948 179.212 22.827C178.888 22.5834 178.478 22.4753 178.073 22.5263C177.667 22.5773 177.299 22.7833 177.048 23.0992C177.01 23.1592 176.965 23.2148 176.915 23.2649C176.553 23.6979 176.148 24.0943 175.706 24.4484C174.135 25.7177 172.157 26.4049 170.12 26.3893C168.333 26.3912 166.588 25.863 165.114 24.8744C165.351 24.5928 165.476 24.2364 165.464 23.8715C165.452 23.5067 165.306 23.1585 165.051 22.8918C164.796 22.6252 164.451 22.4583 164.08 22.4225C163.709 22.3866 163.337 22.4841 163.034 22.6969C162.865 22.827 162.684 22.9454 162.478 23.0756C161.981 23.3992 161.45 23.669 160.894 23.8803C158.923 24.6613 156.738 24.7573 154.703 24.1525C154.701 23.9234 154.645 23.6978 154.54 23.4928C154.435 23.2878 154.284 23.1087 154.099 22.9691C153.928 22.8502 153.735 22.7659 153.531 22.7211C153.326 22.6764 153.115 22.6721 152.908 22.7085C152.702 22.7449 152.506 22.8212 152.33 22.933C152.155 23.0448 152.004 23.1899 151.886 23.3596C151.543 23.769 151.103 24.09 150.604 24.2945H150.496C150.151 24.4187 149.787 24.4828 149.42 24.4839C148.576 24.4839 147.767 24.156 147.171 23.5723C146.575 22.9886 146.24 22.1969 146.24 21.3714C146.252 20.7827 146.442 20.2107 146.784 19.7263C147.113 19.2558 147.575 18.8897 148.114 18.6731C148.493 18.5008 148.905 18.4081 149.323 18.4009C149.705 18.3676 150.061 18.1954 150.32 17.9184C150.579 17.6413 150.722 17.2793 150.722 16.9038C150.722 16.5282 150.579 16.1663 150.32 15.8892C150.061 15.6121 149.705 15.44 149.323 15.4067C148.888 15.4084 148.455 15.452 148.029 15.5369C148.029 13.3726 148.817 11.279 150.25 9.63104C151.683 7.98305 153.669 6.88819 155.852 6.54247C155.501 7.50739 155.321 8.5241 155.32 9.54848C155.354 9.92256 155.53 10.2706 155.813 10.5241C156.096 10.7777 156.466 10.9183 156.85 10.9183C157.233 10.9183 157.603 10.7777 157.886 10.5241C158.169 10.2706 158.345 9.92256 158.379 9.54848C158.378 8.67735 158.576 7.81701 158.959 7.03062C159.342 6.24422 159.9 5.55172 160.592 5.00395L160.761 4.8856C161.8 4.1039 163.078 3.68705 164.388 3.70213C165.384 3.70718 166.363 3.95288 167.239 4.41742C168.114 4.88196 168.859 5.55095 169.406 6.36494C169.129 6.53099 168.913 6.77891 168.788 7.07299C168.664 7.36707 168.639 7.69215 168.715 8.00139C168.792 8.31064 168.967 8.5881 169.215 8.79381C169.463 8.99952 169.771 9.12288 170.095 9.1461C170.365 9.12812 170.636 9.12812 170.906 9.1461C171.521 9.2038 172.129 9.32277 172.719 9.50115C174.526 10.0457 176.105 11.1457 177.222 12.638C178.339 14.1303 178.936 15.9354 178.922 17.7854C178.921 18.1061 179.026 18.4186 179.221 18.6764C179.416 18.9342 179.69 19.1237 180.004 19.2167C180.317 19.3097 180.653 19.3013 180.961 19.1927C181.27 19.0841 181.534 18.8811 181.715 18.6139C182.357 18.9151 182.877 19.4184 183.192 20.0433C183.507 20.6681 183.598 21.3782 183.452 22.0601C183.306 22.7419 182.93 23.356 182.385 23.8041C181.84 24.2521 181.157 24.5081 180.445 24.5312C180.201 24.5276 179.958 24.4998 179.72 24.4484C179.784 24.2619 179.809 24.0646 179.793 23.8685V23.833Z" fill="#13A6D9"/>
</svg>
