<svg width="132" height="129" viewBox="0 0 132 129" fill="none" xmlns="http://www.w3.org/2000/svg">
<path d="M83.5594 117.883L67.9727 114.493C67.016 114.285 66.3506 113.415 66.4004 112.437L68.1021 78.9962C68.1616 77.8287 69.2053 76.9608 70.3641 77.1154L79.257 78.302C80.2505 78.4346 80.9924 79.2821 80.9924 80.2845V84.8015C80.9924 86.9916 81.8813 89.0921 83.4636 90.6408C85.0458 92.1895 87.1918 93.0595 89.4294 93.0595C91.6671 93.0595 93.8131 92.1895 95.3953 90.6408C96.9776 89.0921 97.8665 86.9916 97.8665 84.8015V83.0706C97.8665 81.8609 98.932 80.9282 100.131 81.0882L112.346 82.7184C112.645 82.7582 112.948 82.735 113.237 82.6504C113.525 82.5658 113.792 82.4217 114.018 82.2279C114.245 82.0341 114.427 81.795 114.552 81.5267C114.676 81.2584 114.741 80.9671 114.74 80.6724V72.4144C114.741 71.9906 114.607 71.577 114.359 71.2299C114.111 70.8827 113.759 70.6187 113.353 70.4737L69.6663 54.9262C68.8693 54.6426 68.3369 53.8881 68.3369 53.042V22.8661C68.3368 22.3186 68.1145 21.7935 67.7189 21.4065L59.2819 13.1484C58.8863 12.7614 58.3499 12.5439 57.7906 12.5439C57.2313 12.5439 56.695 12.7614 56.2994 13.1484L47.8624 21.4065C47.4668 21.7935 47.2445 22.3186 47.2444 22.8661V53.042C47.2444 53.8881 46.712 54.6426 45.915 54.9262L2.22871 70.4737C1.82184 70.6187 1.4704 70.8827 1.22211 71.2299C0.973811 71.577 0.840691 71.9906 0.84082 72.4144V80.6724C0.840774 80.9671 0.905182 81.2584 1.02971 81.5267C1.15425 81.795 1.33602 82.0341 1.56281 82.2279C1.7896 82.4217 2.05615 82.5658 2.34455 82.6504C2.63295 82.735 2.93651 82.7582 3.23482 82.7184L15.4503 81.0882C16.6493 80.9282 17.7148 81.861 17.7148 83.0706V84.8015C17.7148 86.9916 18.6037 89.0921 20.186 90.6408C21.7682 92.1895 23.9142 93.0595 26.1519 93.0595C28.3895 93.0595 30.5355 92.1895 32.1177 90.6408C33.7 89.0921 34.5889 86.9916 34.5889 84.8015V80.2843C34.5889 79.2821 35.3307 78.4346 36.3242 78.3019L45.2108 77.1156C46.3696 76.9609 47.4134 77.8288 47.4728 78.9963L49.1746 112.437C49.2243 113.415 48.5589 114.285 47.6023 114.493L32.0156 117.883C31.5484 117.986 31.1309 118.242 30.8319 118.608C30.5329 118.974 30.3701 119.429 30.3704 119.898V126.092C30.3704 126.639 30.5926 127.164 30.9881 127.552C31.3837 127.939 31.9202 128.156 32.4796 128.156H83.1017C83.6611 128.156 84.1976 127.939 84.5932 127.552C84.9887 127.164 85.2109 126.639 85.2109 126.092V119.898C85.2109 119.429 85.0472 118.973 84.7469 118.607C84.4467 118.24 84.0278 117.985 83.5594 117.883ZM93.6479 84.8015C93.6479 85.8966 93.2035 86.9468 92.4124 87.7211C91.6213 88.4955 90.5483 88.9305 89.4294 88.9305C88.3106 88.9305 87.2376 88.4955 86.4465 87.7211C85.6554 86.9468 85.2109 85.8966 85.2109 84.8015V81.3816C85.2109 80.172 86.2763 79.2393 87.4753 79.3992L91.9123 79.9909C92.9059 80.1234 93.6479 80.971 93.6479 81.9734V84.8015ZM110.522 76.0219C110.522 77.2316 109.456 78.1643 108.257 78.0043L74.2909 73.4718C73.2974 73.3392 72.5554 72.4917 72.5554 71.4893V63.1824C72.5554 61.8001 73.9241 60.8346 75.2262 61.2982L79.6633 62.8779C80.4602 63.1617 80.9924 63.9161 80.9924 64.7621V66.2854C80.9924 67.3899 81.8879 68.2854 82.9924 68.2854H83.7906C84.575 68.2854 85.2109 67.6494 85.2109 66.865C85.2109 65.8835 86.1827 65.1978 87.1074 65.5268L92.3184 67.3808C93.1155 67.6644 93.6479 68.419 93.6479 69.2651V70.4144C93.6479 71.519 94.5434 72.4144 95.6479 72.4144H96.6008C97.2998 72.4144 97.8665 71.8477 97.8665 71.1487C97.8665 70.2741 98.7325 69.6631 99.5565 69.9564L109.193 73.3864C109.99 73.6701 110.522 74.4246 110.522 75.2706V76.0219ZM5.05933 75.2706C5.05933 74.4246 5.59163 73.6701 6.38864 73.3864L16.0248 69.9564C16.8488 69.6631 17.7148 70.2741 17.7148 71.1487C17.7148 71.8477 18.2815 72.4144 18.9805 72.4144H19.9333C21.0379 72.4144 21.9333 71.519 21.9333 70.4144V69.2651C21.9333 68.419 22.4658 67.6644 23.2629 67.3808L28.4739 65.5268C29.3986 65.1978 30.3704 65.8835 30.3704 66.865C30.3704 67.6494 31.0063 68.2854 31.7907 68.2854H32.5889C33.6934 68.2854 34.5889 67.3899 34.5889 66.2854V64.7621C34.5889 63.9161 35.1211 63.1617 35.918 62.8779L40.3551 61.2982C41.6572 60.8346 43.0259 61.8001 43.0259 63.1824V71.4893C43.0259 72.4917 42.2839 73.3392 41.2904 73.4718L7.32386 78.0043C6.12483 78.1643 5.05933 77.2316 5.05933 76.0219V75.2706ZM30.3704 84.8015C30.3704 85.8966 29.9259 86.9468 29.1348 87.7211C28.3437 88.4955 27.2707 88.9305 26.1519 88.9305C25.033 88.9305 23.96 88.4955 23.1689 87.7211C22.3778 86.9468 21.9333 85.8966 21.9333 84.8015V81.9734C21.9333 80.971 22.6754 80.1234 23.669 79.9909L28.106 79.3992C29.305 79.2393 30.3704 80.172 30.3704 81.3816V84.8015ZM49.0689 72.433C48.1029 72.562 47.2444 71.8105 47.2444 70.8359V60.2554C47.2444 59.4094 47.7767 58.6549 48.5737 58.3712L50.075 57.8369C50.4815 57.692 50.8327 57.4284 51.081 57.0816C51.3293 56.7348 51.4626 56.3217 51.4629 55.8983V24.5618C51.4629 24.0239 51.6795 23.5087 52.0639 23.1325L52.2824 22.9186C53.5484 21.6795 55.6814 22.5764 55.6814 24.3479V33.2532C55.6814 34.3577 56.5768 35.2531 57.6814 35.2531H57.8999C59.0045 35.2531 59.8999 34.3577 59.8999 33.2531V24.3479C59.8999 22.5764 62.0329 21.6795 63.2989 22.9186L63.5174 23.1325C63.9018 23.5087 64.1184 24.0239 64.1184 24.5618V55.8983C64.1183 56.3221 64.2514 56.7356 64.4997 57.0828C64.748 57.43 65.0994 57.694 65.5063 57.8389L67.0075 58.3733C67.8046 58.6569 68.3369 59.4114 68.3369 60.2575V70.8379C68.3369 71.8125 67.4784 72.564 66.5124 72.435C66.2229 72.396 65.9282 72.4164 65.6471 72.4947C65.366 72.5731 65.1047 72.7078 64.8796 72.8903C64.6545 73.0727 64.4706 73.299 64.3396 73.5547C64.2085 73.8104 64.1332 74.09 64.1184 74.3757L62.0092 115.666C62.0092 115.699 62.0219 115.729 62.0237 115.762C62.0239 115.766 62.0206 115.769 62.0165 115.769C62.0125 115.769 62.0092 115.772 62.0092 115.777V122.027C62.0092 123.132 61.1137 124.027 60.0092 124.027H55.5721C54.4676 124.027 53.5721 123.132 53.5721 122.027V115.778C53.5721 115.773 53.5684 115.769 53.5637 115.769C53.559 115.769 53.5552 115.765 53.5555 115.761C53.5576 115.729 53.57 115.698 53.57 115.666L51.4608 74.3757C51.4462 74.09 51.3712 73.8104 51.2404 73.5546C51.1096 73.2988 50.926 73.0724 50.7011 72.8898C50.4762 72.7071 50.215 72.5722 49.934 72.4935C49.653 72.4149 49.3584 72.3943 49.0689 72.433ZM34.5889 122.655C34.5889 122.01 35.0386 121.452 35.6692 121.315L46.9287 118.867C48.1753 118.596 49.3536 119.545 49.3536 120.821V122.027C49.3536 123.132 48.4582 124.027 47.3536 124.027H35.9607C35.2031 124.027 34.5889 123.413 34.5889 122.655ZM80.9924 122.656C80.9924 123.413 80.3783 124.027 79.6208 124.027H68.2277C67.1231 124.027 66.2277 123.132 66.2277 122.027V120.825C66.2277 119.549 67.4056 118.599 68.6521 118.87L79.9118 121.315C80.5425 121.452 80.9924 122.01 80.9924 122.656Z" fill="#12CAD6"/>
<path d="M39.2206 14.7563C38.7761 12.6234 37.7259 10.6564 36.1907 9.08134C34.6555 7.50626 32.6975 6.38697 30.5417 5.85201C30.0252 4.44246 29.1482 3.18596 27.9946 2.20239C26.841 1.21882 25.4491 0.540984 23.9517 0.233554C22.4544 -0.0738763 20.9016 -0.000647083 19.4413 0.446255C17.9811 0.893157 16.6623 1.69883 15.6106 2.78639H15.1324C11.8973 2.79258 8.79642 4.05321 6.50882 6.29228C4.22122 8.53135 2.93326 11.5664 2.92694 14.7329C2.92182 15.2377 2.95378 15.7421 3.02258 16.2423C2.40152 16.8046 1.90656 17.4871 1.56908 18.2464C1.23159 19.0058 1.05894 19.8255 1.06205 20.6535C1.06521 22.2539 1.71612 23.7878 2.87225 24.9194C4.02838 26.051 5.59552 26.6881 7.23054 26.6912C8.37696 26.6936 9.50048 26.3771 10.4702 25.7785C11.988 26.3951 13.6172 26.7056 15.2605 26.6915C16.9037 26.6775 18.5272 26.3391 20.0337 25.6966C22.1151 27.4589 24.7615 28.452 27.5131 28.5033C30.2648 28.5546 32.9478 27.6609 35.0963 25.9774C35.9812 26.4457 36.9713 26.691 37.9773 26.6912C39.4955 26.6837 40.9575 26.1284 42.0835 25.1318C43.2095 24.1351 43.9205 22.767 44.0804 21.2893C44.2402 19.8116 43.8377 18.3281 42.9499 17.1228C42.0621 15.9174 40.7513 15.0748 39.2684 14.7563H39.2206ZM37.284 22.9469C37.2614 22.7519 37.1989 22.5634 37.1003 22.3925C37.0018 22.2217 36.8691 22.072 36.7102 21.9523C36.3895 21.7114 35.9845 21.6045 35.5835 21.655C35.1826 21.7054 34.8183 21.909 34.5703 22.2214C34.5329 22.2807 34.4888 22.3357 34.4388 22.3853C34.0812 22.8133 33.6807 23.2053 33.2434 23.5553C31.6899 24.8103 29.7346 25.4897 27.7204 25.4743C25.954 25.4761 24.2284 24.9539 22.7713 23.9766C23.0059 23.6982 23.1289 23.3457 23.1175 22.985C23.106 22.6243 22.9608 22.28 22.7091 22.0164C22.4573 21.7528 22.1161 21.5878 21.7492 21.5523C21.3823 21.5169 21.0147 21.6133 20.7151 21.8236C20.5478 21.9523 20.3685 22.0693 20.1652 22.198C19.6742 22.518 19.1491 22.7848 18.5992 22.9937C16.6504 23.7658 14.4902 23.8608 12.4785 23.2628C12.4758 23.0362 12.4206 22.8132 12.3171 22.6105C12.2136 22.4078 12.0644 22.2308 11.8808 22.0927C11.7121 21.9752 11.5211 21.8919 11.3189 21.8476C11.1168 21.8034 10.9078 21.7991 10.7039 21.8351C10.5001 21.8711 10.3057 21.9466 10.1321 22.0571C9.95857 22.1677 9.80931 22.3111 9.69315 22.4789C9.35417 22.8836 8.91912 23.201 8.42598 23.4032H8.31839C7.97764 23.526 7.61754 23.5893 7.25445 23.5904C6.4206 23.5904 5.62091 23.2662 5.03129 22.6891C4.44168 22.112 4.11043 21.3293 4.11043 20.5131C4.12314 19.9311 4.3102 19.3656 4.64838 18.8867C4.97358 18.4215 5.43066 18.0595 5.96337 17.8453C6.33832 17.675 6.74552 17.5834 7.15881 17.5762C7.53667 17.5433 7.88826 17.3731 8.14434 17.0992C8.40041 16.8252 8.54244 16.4674 8.54244 16.0961C8.54244 15.7248 8.40041 15.3669 8.14434 15.093C7.88826 14.819 7.53667 14.6488 7.15881 14.6159C6.72915 14.6176 6.30071 14.6607 5.87969 14.7446C5.88001 12.6048 6.65842 10.535 8.07557 8.90563C9.49272 7.27629 11.4561 6.19382 13.6142 5.85201C13.2668 6.80602 13.0889 7.81122 13.0882 8.82401C13.1218 9.19386 13.2957 9.53798 13.5756 9.78863C13.8555 10.0393 14.2211 10.1783 14.6004 10.1783C14.9798 10.1783 15.3454 10.0393 15.6253 9.78863C15.9052 9.53798 16.079 9.19386 16.1127 8.82401C16.1115 7.96274 16.3074 7.11214 16.6859 6.33464C17.0645 5.55714 17.6161 4.87247 18.3003 4.3309L18.4677 4.21389C19.4951 3.44103 20.7583 3.0289 22.054 3.04381C23.0385 3.0488 24.0065 3.29172 24.872 3.75101C25.7375 4.21029 26.4736 4.87171 27.0151 5.6765C26.7409 5.84066 26.527 6.08577 26.4042 6.37653C26.2815 6.66729 26.2561 6.98868 26.3319 7.29443C26.4077 7.60017 26.5806 7.87449 26.8259 8.07788C27.0711 8.28127 27.3759 8.40322 27.6965 8.42619C27.9632 8.40841 28.2308 8.40841 28.4975 8.42619C29.1058 8.48323 29.7066 8.60085 30.2906 8.77721C32.0767 9.31561 33.6379 10.4032 34.7426 11.8786C35.8473 13.354 36.4366 15.1386 36.4232 16.9678C36.4223 17.2848 36.5259 17.5938 36.7185 17.8487C36.9112 18.1036 37.1827 18.2909 37.4927 18.3828C37.8027 18.4748 38.1347 18.4665 38.4395 18.3591C38.7443 18.2517 39.0057 18.0511 39.1847 17.7868C39.8193 18.0847 40.3334 18.5823 40.6448 19.2C40.9562 19.8178 41.0468 20.5199 40.9022 21.1941C40.7576 21.8682 40.386 22.4753 39.8471 22.9183C39.3081 23.3613 38.6329 23.6144 37.9295 23.6372C37.6882 23.6336 37.4479 23.6062 37.2122 23.5553C37.2755 23.3709 37.2999 23.1759 37.284 22.982V22.9469Z" fill="#13A6D9"/>
<path d="M127.687 111.864C127.324 110.125 126.468 108.521 125.216 107.237C123.964 105.953 122.368 105.04 120.61 104.604C120.189 103.455 119.474 102.43 118.533 101.628C117.593 100.826 116.458 100.273 115.237 100.023C114.016 99.7721 112.75 99.8319 111.559 100.196C110.368 100.561 109.293 101.218 108.435 102.104H108.046C105.408 102.109 102.879 103.137 101.014 104.963C99.1487 106.789 98.0985 109.263 98.0934 111.845C98.0892 112.257 98.1153 112.668 98.1714 113.076C97.665 113.535 97.2614 114.091 96.9862 114.71C96.711 115.329 96.5702 115.998 96.5728 116.673C96.5754 117.978 97.1061 119.229 98.0488 120.151C98.9915 121.074 100.269 121.593 101.602 121.596C102.537 121.598 103.453 121.34 104.244 120.852C105.482 121.354 106.81 121.608 108.15 121.596C109.49 121.585 110.814 121.309 112.042 120.785C113.739 122.222 115.897 123.032 118.141 123.073C120.384 123.115 122.572 122.387 124.324 121.014C125.045 121.396 125.853 121.596 126.673 121.596C127.911 121.59 129.103 121.137 130.021 120.324C130.939 119.512 131.519 118.396 131.649 117.191C131.78 115.986 131.451 114.777 130.728 113.794C130.004 112.811 128.935 112.124 127.726 111.864H127.687ZM126.108 118.543C126.089 118.384 126.038 118.23 125.958 118.091C125.878 117.952 125.769 117.829 125.64 117.732C125.378 117.536 125.048 117.448 124.721 117.489C124.394 117.531 124.097 117.697 123.895 117.951C123.864 118 123.829 118.045 123.788 118.085C123.496 118.434 123.17 118.754 122.813 119.039C121.546 120.062 119.952 120.616 118.31 120.604C116.869 120.605 115.462 120.179 114.274 119.382C114.465 119.155 114.566 118.868 114.556 118.574C114.547 118.28 114.429 117.999 114.223 117.784C114.018 117.569 113.74 117.435 113.441 117.406C113.142 117.377 112.842 117.456 112.598 117.627C112.461 117.732 112.315 117.827 112.149 117.932C111.749 118.193 111.321 118.411 110.872 118.581C109.283 119.211 107.522 119.288 105.882 118.801C105.879 118.616 105.834 118.434 105.75 118.269C105.666 118.103 105.544 117.959 105.394 117.846C105.257 117.751 105.101 117.683 104.936 117.647C104.771 117.611 104.601 117.607 104.435 117.636C104.268 117.666 104.11 117.727 103.968 117.817C103.827 117.908 103.705 118.024 103.61 118.161C103.334 118.491 102.979 118.75 102.577 118.915H102.49C102.212 119.015 101.918 119.067 101.622 119.068C100.942 119.068 100.29 118.803 99.8093 118.333C99.3285 117.862 99.0584 117.224 99.0584 116.558C99.0688 116.084 99.2213 115.623 99.497 115.232C99.7622 114.853 100.135 114.558 100.569 114.383C100.875 114.244 101.207 114.17 101.544 114.164C101.852 114.137 102.139 113.998 102.348 113.775C102.556 113.551 102.672 113.26 102.672 112.957C102.672 112.654 102.556 112.362 102.348 112.139C102.139 111.916 101.852 111.777 101.544 111.75C101.194 111.751 100.844 111.786 100.501 111.855C100.501 110.11 101.136 108.422 102.292 107.094C103.447 105.765 105.048 104.883 106.808 104.604C106.524 105.382 106.379 106.202 106.379 107.027C106.406 107.329 106.548 107.609 106.776 107.814C107.004 108.018 107.302 108.132 107.612 108.132C107.921 108.132 108.219 108.018 108.447 107.814C108.676 107.609 108.817 107.329 108.845 107.027C108.844 106.325 109.004 105.632 109.312 104.998C109.621 104.364 110.071 103.805 110.629 103.364L110.765 103.268C111.603 102.638 112.633 102.302 113.689 102.314C114.492 102.318 115.281 102.516 115.987 102.891C116.693 103.265 117.293 103.805 117.735 104.461C117.511 104.595 117.337 104.795 117.236 105.032C117.136 105.269 117.116 105.531 117.177 105.78C117.239 106.029 117.38 106.253 117.58 106.419C117.78 106.585 118.029 106.684 118.29 106.703C118.508 106.688 118.726 106.688 118.943 106.703C119.439 106.749 119.929 106.845 120.405 106.989C121.862 107.428 123.135 108.315 124.035 109.518C124.936 110.721 125.417 112.176 125.406 113.668C125.405 113.926 125.49 114.178 125.647 114.386C125.804 114.594 126.025 114.746 126.278 114.821C126.531 114.896 126.801 114.89 127.05 114.802C127.298 114.715 127.511 114.551 127.657 114.335C128.175 114.578 128.594 114.984 128.848 115.488C129.102 115.991 129.176 116.564 129.058 117.114C128.94 117.663 128.637 118.158 128.198 118.52C127.758 118.881 127.208 119.087 126.634 119.106C126.437 119.103 126.241 119.08 126.049 119.039C126.101 118.889 126.121 118.73 126.108 118.572V118.543Z" fill="#13A6D9"/>
<path d="M119.004 37.3174H118.914C117.774 37.3174 116.85 38.2417 116.85 39.3818C116.85 40.522 117.774 41.4463 118.914 41.4463H119.004C120.144 41.4463 121.068 40.522 121.068 39.3818C121.068 38.2417 120.144 37.3174 119.004 37.3174Z" fill="#FE674C"/>
<path d="M119.004 45.5757H118.914C117.774 45.5757 116.85 46.5 116.85 47.6401C116.85 48.7803 117.774 49.7046 118.914 49.7046H119.004C120.144 49.7046 121.068 48.7803 121.068 47.6401C121.068 46.5 120.144 45.5757 119.004 45.5757Z" fill="#FE674C"/>
<path d="M110.567 53.8335H110.477C109.337 53.8335 108.413 54.7578 108.413 55.8979C108.413 57.0381 109.337 57.9624 110.477 57.9624H110.567C111.707 57.9624 112.631 57.0381 112.631 55.8979C112.631 54.7578 111.707 53.8335 110.567 53.8335Z" fill="#FE674C"/>
<path d="M102.13 45.5757H102.04C100.9 45.5757 99.9756 46.5 99.9756 47.6401C99.9756 48.7803 100.9 49.7046 102.04 49.7046H102.13C103.27 49.7046 104.194 48.7803 104.194 47.6401C104.194 46.5 103.27 45.5757 102.13 45.5757Z" fill="#FE674C"/>
<path d="M102.13 37.3174H102.04C100.9 37.3174 99.9756 38.2417 99.9756 39.3818C99.9756 40.522 100.9 41.4463 102.04 41.4463H102.13C103.27 41.4463 104.194 40.522 104.194 39.3818C104.194 38.2417 103.27 37.3174 102.13 37.3174Z" fill="#FE674C"/>
<path d="M102.13 29.0596H102.04C100.9 29.0596 99.9756 29.9839 99.9756 31.124C99.9756 32.2642 100.9 33.1885 102.04 33.1885H102.13C103.27 33.1885 104.194 32.2642 104.194 31.124C104.194 29.9839 103.27 29.0596 102.13 29.0596Z" fill="#FE674C"/>
<path d="M93.6927 20.8013H93.603C92.4629 20.8013 91.5386 21.7256 91.5386 22.8657C91.5386 24.0059 92.4629 24.9302 93.603 24.9302H93.6927C94.8329 24.9302 95.7571 24.0059 95.7571 22.8657C95.7571 21.7256 94.8329 20.8013 93.6927 20.8013Z" fill="#FE674C"/>
<path d="M85.2556 29.0596H85.166C84.0258 29.0596 83.1016 29.9839 83.1016 31.124C83.1016 32.2642 84.0258 33.1885 85.166 33.1885H85.2556C86.3958 33.1885 87.3201 32.2642 87.3201 31.124C87.3201 29.9839 86.3958 29.0596 85.2556 29.0596Z" fill="#FE674C"/>
<path d="M85.2556 37.3174H85.166C84.0258 37.3174 83.1016 38.2417 83.1016 39.3818C83.1016 40.522 84.0258 41.4463 85.166 41.4463H85.2556C86.3958 41.4463 87.3201 40.522 87.3201 39.3818C87.3201 38.2417 86.3958 37.3174 85.2556 37.3174Z" fill="#FE674C"/>
<path d="M85.2556 45.5757H85.166C84.0258 45.5757 83.1016 46.5 83.1016 47.6401C83.1016 48.7803 84.0258 49.7046 85.166 49.7046H85.2556C86.3958 49.7046 87.3201 48.7803 87.3201 47.6401C87.3201 46.5 86.3958 45.5757 85.2556 45.5757Z" fill="#FE674C"/>
<path d="M119.019 1.04688C112.836 1.04688 107.806 5.97094 107.806 12.0235C107.806 15.0022 109.848 20.3869 111.872 24.4027C113.475 27.5818 116.542 32.9155 119.08 32.9155C121.298 32.9155 124.371 27.5768 126.005 24.3946C127.956 20.5948 130.235 15.0751 130.235 12.0235C130.235 5.97094 125.203 1.04688 119.019 1.04688ZM124.554 23.4835C121.93 28.6317 119.731 31.155 119.08 31.2382C116.82 31.2382 109.52 17.5159 109.52 12.0231C109.52 6.89548 113.781 2.72387 119.019 2.72387C124.259 2.72387 128.521 6.89548 128.521 12.0231C128.521 14.2239 126.927 18.8292 124.554 23.4835Z" fill="#FE674C" stroke="#FE674C"/>
<path d="M119.019 5.83301C115.436 5.83301 112.521 8.6868 112.521 12.1944C112.521 15.7024 115.436 18.5562 119.019 18.5562C122.603 18.5562 125.519 15.7024 125.519 12.1944C125.519 8.6868 122.603 5.83301 119.019 5.83301ZM119.019 17.1448C116.231 17.1448 113.963 14.9242 113.963 12.1947C113.963 9.46551 116.231 7.245 119.019 7.245C121.808 7.245 124.077 9.46551 124.077 12.1947C124.077 14.9242 121.808 17.1448 119.019 17.1448Z" fill="#FE674C" stroke="#FE674C"/>
</svg>
