<svg width="80" height="129" viewBox="0 0 80 129" fill="none" xmlns="http://www.w3.org/2000/svg">
<path d="M9.26993 111.251L14.1797 119.384V119.62H14.3236L18.8432 127.108C19.0361 127.428 19.3106 127.692 19.6398 127.876C19.969 128.06 20.3414 128.156 20.7203 128.156H59.9639C60.3428 128.156 60.7152 128.06 61.0444 127.876C61.3736 127.692 61.6481 127.428 61.841 127.108L71.4143 111.251C75.4611 104.582 78.0792 97.1768 79.1092 89.486C80.1391 81.7951 79.5595 73.9795 77.4054 66.5149C77.3749 66.4082 77.3487 66.3016 77.3182 66.1927L77.2027 65.7937C77.0784 65.3818 76.9563 64.9913 76.8342 64.6093C76.7645 64.3959 76.6947 64.1825 76.6162 63.9691C76.2761 62.9427 75.9403 62.008 75.5893 61.1289C73.9969 57.1 73.6965 52.6918 74.7281 48.4916C74.7783 48.2782 74.8175 48.0776 74.8742 47.8728C74.8873 47.8237 74.8938 47.7725 74.9069 47.7234C76.0998 43.4021 76.5775 38.9216 76.3219 34.4523C76.2608 33.3107 76.1867 32.169 76.0319 31.0252C75.324 25.7156 73.4207 20.6261 70.4593 16.1238C66.9572 10.7517 62.0055 6.43218 56.1517 3.6427C50.2979 0.853216 43.7701 -0.297536 37.2898 0.317666C29.4086 0.996438 21.9731 4.18972 16.1263 9.40673C10.2794 14.6237 6.34475 21.5757 4.92698 29.1943C3.80044 35.338 4.08193 41.65 5.7511 47.6743C5.7511 47.7042 5.76417 47.7362 5.7729 47.7661L5.90371 48.3486C6.88158 52.4327 6.56755 56.7113 5.00329 60.6167C4.61739 61.562 4.27074 62.5159 3.94371 63.4698C3.83034 63.7984 3.72569 64.1292 3.62104 64.46C3.51639 64.7907 3.40302 65.0831 3.318 65.3925L3.09998 66.1628C2.93574 66.7319 2.78239 67.301 2.63995 67.87C2.60943 67.9831 2.57237 68.109 2.54621 68.22C2.50696 68.3672 2.48298 68.5166 2.44592 68.6617C-1.01265 83.187 1.43442 98.4595 9.26993 111.251ZM67.6578 109.079L63.873 115.353H31.6213V119.62H61.296L58.7211 123.888H21.963L19.3882 119.62H27.2609V115.353H16.8112L13.0264 109.079C8.0574 100.92 5.37771 91.6222 5.25837 82.1248C8.29262 81.5267 11.2752 80.7006 14.1797 79.6537V81.2093C14.1797 88.0008 16.9361 94.5142 21.8425 99.3165C26.7489 104.119 33.4034 106.817 40.3421 106.817C47.2808 106.817 53.9353 104.119 58.8417 99.3165C63.7481 94.5142 66.5045 88.0008 66.5045 81.2093V79.6644C69.3493 80.6872 72.2679 81.5018 75.2361 82.1013C75.2237 91.5958 72.6064 100.913 67.6578 109.079ZM6.87608 68.8495C6.95892 68.5251 7.04395 68.2093 7.13552 67.8721L7.30121 67.2896C7.44947 66.7881 7.60208 66.2845 7.7656 65.7958C7.86807 65.4757 7.96835 65.1556 8.07955 64.8313C8.38477 63.9521 8.70526 63.0772 9.05845 62.2086C10.9517 57.5047 11.3373 52.3482 10.1638 47.4246L10.0068 46.7546C8.49037 41.2784 8.22242 35.5428 9.22197 29.954C9.54627 28.2093 10.0256 26.4956 10.6544 24.8325C10.7568 24.5529 10.8375 24.2606 10.9487 23.9789C10.9727 23.9149 11.0075 23.8573 11.0337 23.7954C13.7632 17.2628 18.6761 11.8299 24.9693 8.38468C31.2625 4.93948 38.5637 3.68589 45.6792 4.82884C50.3124 5.57662 54.7111 7.34621 58.5424 10.0037C61.5881 12.1058 64.2267 14.7224 66.3344 17.7307C69.2142 21.8699 71.0561 26.6155 71.7108 31.5822C71.8612 32.6726 71.9288 33.7609 71.9942 34.8493C72.1946 38.8581 71.7487 42.8729 70.673 46.746C69.1982 52.0046 69.4972 57.5886 71.5254 62.6674C71.8547 63.4975 72.1512 64.3319 72.4346 65.1706C72.5632 65.5504 72.6897 65.9516 72.8183 66.3656C72.9469 66.7796 73.0799 67.2192 73.2042 67.6459C73.2827 67.9212 73.3612 68.1965 73.4331 68.4782C73.4484 68.5439 73.4673 68.6087 73.4898 68.6724L73.5247 68.7705C73.6097 69.0928 73.6773 69.4107 73.7558 69.7415C73.8822 70.2472 74.0065 70.7466 74.1003 71.2587V71.2779C74.1003 71.3484 74.1221 71.4188 74.1373 71.4913C74.2572 72.0205 74.3553 72.5583 74.4469 73.1665C74.5712 73.8301 74.6649 74.4917 74.7805 75.3303C74.8284 75.6632 74.8786 75.9705 74.9091 76.4741C74.9658 76.9009 75.005 77.2978 75.0225 77.7161C71.6546 76.9604 68.3652 75.9017 65.1963 74.5536C59.249 72.0307 53.7973 68.5109 49.0869 64.1527C51.8464 64.0007 54.5155 63.1355 56.8222 61.6453C57.1199 61.4502 57.3639 61.1864 57.5326 60.8771C57.7013 60.5678 57.7896 60.2226 57.7896 59.872C57.7896 59.5213 57.7013 59.1761 57.5326 58.8668C57.3639 58.5575 57.1199 58.2937 56.8222 58.0986L53.8593 56.1504C58.7546 53.2608 62.5483 48.8815 64.6602 43.6821C66.7721 38.4826 67.086 32.7492 65.5538 27.3586C64.0217 21.9681 60.7279 17.217 56.1762 13.832C51.6244 10.447 46.0652 8.61436 40.3486 8.61436C34.6321 8.61436 29.0729 10.447 24.5211 13.832C19.9693 17.217 16.6755 21.9681 15.1434 27.3586C13.6113 32.7492 13.9252 38.4826 16.0371 43.6821C18.149 48.8815 21.9427 53.2608 26.838 56.1504L23.8707 58.1008C23.573 58.2958 23.329 58.5597 23.1603 58.8689C22.9916 59.1782 22.9033 59.5235 22.9033 59.8741C22.9033 60.2247 22.9916 60.5699 23.1603 60.8792C23.329 61.1885 23.573 61.4524 23.8707 61.6474C26.1817 63.1403 28.8566 64.0049 31.6213 64.1527C26.9041 68.5104 21.4439 72.0262 15.4879 74.5407C12.2483 75.9281 8.87859 77.0037 5.42625 77.7523C5.46767 77.0929 5.52654 76.4378 5.60066 75.8168L5.70967 74.9633C5.77508 74.4682 5.83612 73.9688 5.92769 73.4695C6.0585 72.6799 6.20458 71.9117 6.36373 71.1414C6.4553 70.674 6.57085 70.2046 6.6864 69.7308C6.73 69.4427 6.79977 69.1461 6.87608 68.8495ZM18.5401 77.8548C25.2658 74.8355 31.3591 70.6182 36.5093 65.4181C37.6186 66.2225 38.9626 66.6567 40.3432 66.6567C41.7237 66.6567 43.0678 66.2225 44.1771 65.4181C49.3314 70.6175 55.4226 74.8403 62.1441 77.874V81.2093C62.1441 86.8689 59.8471 92.2967 55.7584 96.2986C51.6698 100.301 46.1243 102.549 40.3421 102.549C34.5599 102.549 29.0144 100.301 24.9258 96.2986C20.8371 92.2967 18.5401 86.8689 18.5401 81.2093V77.8548ZM18.6644 32.0132C23.2152 31.6062 27.5731 30.0201 31.2899 27.418C35.0067 24.8159 37.9484 21.2917 39.8123 17.2079L40.3421 16.0257L40.8806 17.2079C42.7466 21.2899 45.6889 24.8122 49.4054 27.4133C53.1219 30.0145 57.4787 31.6006 62.0285 32.009C62.1067 32.7577 62.1453 33.5098 62.1441 34.2624C62.1476 37.1618 61.5476 40.0314 60.3804 42.6963C59.2133 45.3611 57.5036 47.7652 55.3557 49.7618C53.2078 51.7583 50.6667 53.3056 47.8876 54.309C45.1084 55.3125 42.1495 55.7511 39.1915 55.598C36.2334 55.445 33.3382 54.7036 30.6826 53.419C28.027 52.1344 25.6668 50.3337 23.7458 48.1266C21.8249 45.9195 20.3836 43.3524 19.51 40.5821C18.6363 37.8117 18.3486 34.8961 18.6644 32.0132ZM19.6455 27.5917C20.9014 23.8879 23.1688 20.5911 26.2021 18.0584C29.2355 15.5258 32.919 13.8538 36.8538 13.2238L35.8313 15.4666C34.3788 18.6473 32.1374 21.4225 29.3108 23.54C26.4841 25.6575 23.1618 27.0503 19.6455 27.5917ZM43.8304 13.2238C47.7631 13.855 51.4444 15.5273 54.4757 18.0595C57.5071 20.5917 59.7729 23.8873 61.0278 27.5896C57.5139 27.0469 54.1941 25.654 51.3695 23.5374C48.5449 21.4208 46.305 18.6473 44.8529 15.4687L43.8304 13.2238ZM51.1799 59.5305C49.7745 59.9149 48.3065 60.0301 46.8565 59.8698C46.8565 59.7546 46.8565 59.6415 46.8347 59.5263C46.7945 59.3721 46.736 59.2232 46.6603 59.0824C47.4146 58.8989 48.1537 58.6876 48.8797 58.4422C49.6878 58.7246 50.462 59.0924 51.1886 59.5391L51.1799 59.5305ZM38.1619 60.2134C38.1736 60.0624 38.1678 59.9107 38.1445 59.761C38.8726 59.8207 39.6052 59.8698 40.3486 59.8698C41.0921 59.8698 41.8203 59.8207 42.5485 59.761C42.519 59.9236 42.5102 60.0892 42.5223 60.2539C42.5212 60.5717 42.4466 60.8852 42.3043 61.1708C42.162 61.4565 41.9555 61.7069 41.7004 61.9035C41.6611 61.9334 41.6241 61.9654 41.5848 61.9995C41.2215 62.2514 40.7873 62.3867 40.3421 62.3867C39.8969 62.3867 39.4627 62.2514 39.0994 61.9995C39.0601 61.9654 39.0231 61.9334 38.9838 61.9035C38.7258 61.7004 38.5179 61.4429 38.3756 61.1503C38.2333 60.8577 38.1603 60.5375 38.1619 60.2134ZM31.811 58.4422C32.537 58.6876 33.2761 58.8989 34.0282 59.0824C33.9541 59.2236 33.8964 59.3725 33.856 59.5263C33.8386 59.6415 33.8407 59.7546 33.8342 59.8698C32.3819 60.034 30.9109 59.9217 29.5022 59.5391C30.226 59.0916 30.9981 58.7237 31.8044 58.4422H31.811Z" fill="#12CAD6"/>
<path d="M29.4414 36.396C30.6455 36.396 31.6216 35.4407 31.6216 34.2622C31.6216 33.0837 30.6455 32.1284 29.4414 32.1284C28.2373 32.1284 27.2612 33.0837 27.2612 34.2622C27.2612 35.4407 28.2373 36.396 29.4414 36.396Z" fill="#13A6D9"/>
<path d="M51.2432 36.396C52.4473 36.396 53.4235 35.4407 53.4235 34.2622C53.4235 33.0837 52.4473 32.1284 51.2432 32.1284C50.0391 32.1284 49.063 33.0837 49.063 34.2622C49.063 35.4407 50.0391 36.396 51.2432 36.396Z" fill="#13A6D9"/>
<path d="M30.4524 83.8186C30.1568 84.7472 30.088 85.7308 30.2518 86.6902C30.4155 87.6495 30.8072 88.5578 31.3951 89.3419C31.9831 90.1261 32.751 90.7641 33.6369 91.2047C34.5229 91.6452 35.5022 91.876 36.4959 91.8784C36.8332 91.8783 37.17 91.8526 37.5032 91.8016C38.4686 91.6534 39.3857 91.2882 40.1827 90.7346C41.2663 91.483 42.562 91.8805 43.8882 91.8715C45.2143 91.8625 46.5043 91.4474 47.5772 90.6844C48.6501 89.9214 49.4521 88.8489 49.8706 87.6171C50.2891 86.3854 50.3031 85.0564 49.9107 83.8165C50.9752 83.0401 51.7641 81.9566 52.1665 80.7184C52.5689 79.4802 52.5645 78.1497 52.1539 76.9141C51.7432 75.6785 50.9471 74.6 49.8775 73.8305C48.8079 73.0609 47.5187 72.639 46.1913 72.6241C45.7666 71.3933 44.9582 70.3238 43.8799 69.5663C42.8016 68.8088 41.5078 68.4014 40.1805 68.4014C38.8532 68.4014 37.5593 68.8088 36.481 69.5663C35.4028 70.3238 34.5944 71.3933 34.1696 72.6241C32.843 72.64 31.5548 73.0624 30.4861 73.8321C29.4175 74.6017 28.6221 75.6798 28.2119 76.9147C27.8016 78.1497 27.7972 79.4794 28.199 80.717C28.6009 81.9546 29.389 83.0378 30.4524 83.8143V83.8186ZM38.4232 86.3985L38.1136 86.8104C37.9616 87.0173 37.769 87.1926 37.547 87.326C37.325 87.4593 37.0782 87.5481 36.8208 87.5871C36.3012 87.6656 35.7709 87.5407 35.3448 87.2393C35.1343 87.0894 34.9561 86.9004 34.8203 86.683C34.6845 86.4657 34.5937 86.2243 34.5532 85.9726C34.5127 85.721 34.5233 85.464 34.5843 85.2163C34.6453 84.9686 34.7555 84.7352 34.9087 84.5292L35.2096 84.1216C35.4741 83.7383 35.6 83.2793 35.5672 82.8178C35.9844 83.5743 36.5832 84.2203 37.312 84.7002C38.0408 85.1801 38.8778 85.4795 39.751 85.5727C39.2182 85.6751 38.7442 85.9699 38.4232 86.3985ZM39.2517 80.2976C39.2517 80.0866 39.3156 79.8803 39.4354 79.7049C39.5552 79.5294 39.7255 79.3926 39.9246 79.3119C40.1238 79.2311 40.343 79.21 40.5545 79.2512C40.7659 79.2923 40.9602 79.394 41.1126 79.5432C41.2651 79.6924 41.3689 79.8825 41.411 80.0895C41.453 80.2965 41.4314 80.511 41.3489 80.7059C41.2664 80.9009 41.1267 81.0675 40.9474 81.1848C40.7682 81.302 40.5574 81.3646 40.3418 81.3646C40.0527 81.3646 39.7754 81.2522 39.571 81.0521C39.3666 80.852 39.2517 80.5806 39.2517 80.2976ZM45.0184 87.2393C44.5918 87.5398 44.0619 87.6647 43.5423 87.5871C43.285 87.5481 43.0381 87.4593 42.8161 87.326C42.5942 87.1926 42.4015 87.0173 42.2495 86.8104L41.9464 86.4028C41.6478 86.0026 41.2161 85.7167 40.7255 85.594C41.537 85.5394 42.3257 85.3077 43.0338 84.916C43.7419 84.5242 44.3515 83.9823 44.8178 83.3299C44.8716 83.6136 44.9852 83.8833 45.1513 84.1216L45.4566 84.5292C45.7654 84.9453 45.8929 85.4644 45.8112 85.9725C45.7294 86.4806 45.4451 86.9362 45.0205 87.2393H45.0184ZM45.5067 76.9965C46.0069 76.8377 46.551 76.8798 47.0195 77.1135C47.4879 77.3472 47.8425 77.7533 48.0052 78.2427C48.1674 78.7322 48.1244 79.2648 47.8857 79.7233C47.6469 80.1818 47.232 80.5289 46.732 80.6881L46.2414 80.8461C46.0466 80.9268 45.8652 81.0354 45.7029 81.1683C45.8362 80.4796 45.8213 79.7713 45.6591 79.0887C45.497 78.406 45.1911 77.7639 44.7611 77.2035C44.8485 77.1915 44.9352 77.1744 45.0205 77.1522L45.5067 76.9965ZM38.1987 74.6193C38.2157 74.1157 38.4321 73.6383 38.8021 73.288C39.1721 72.9376 39.6668 72.7418 40.1816 72.7418C40.6964 72.7418 41.191 72.9376 41.561 73.288C41.931 73.6383 42.1474 74.1157 42.1645 74.6193V75.125C42.1645 75.1848 42.1819 75.2445 42.1863 75.3043C40.8827 74.8179 39.4352 74.8578 38.1616 75.4152C38.1815 75.3174 38.1938 75.2182 38.1987 75.1186V74.6193ZM32.3579 78.2469C32.5212 77.7593 32.8747 77.3546 33.3414 77.1208C33.8081 76.887 34.3502 76.8431 34.8499 76.9986L35.3382 77.1565C35.515 77.2118 35.6981 77.2455 35.8833 77.2568C35.4533 77.8515 35.1538 78.5269 35.0037 79.2405C34.8536 79.9541 34.8561 80.6904 35.0112 81.403C34.7661 81.1495 34.4604 80.9596 34.1217 80.8503L33.6311 80.6924C33.1319 80.5322 32.7178 80.1849 32.4796 79.7266C32.2414 79.2683 32.1984 78.7362 32.3601 78.2469H32.3579Z" fill="#13A6D9"/>
<path d="M33.113 46.9572C37.8077 48.4765 42.8774 48.4765 47.5721 46.9572C48.1214 46.7783 48.5756 46.3932 48.8349 45.8866C49.0941 45.3799 49.1371 44.7933 48.9543 44.2556C48.7716 43.7179 48.3782 43.2733 47.8605 43.0196C47.3429 42.7659 46.7435 42.7238 46.1942 42.9027C42.3945 44.1339 38.2906 44.1339 34.4909 42.9027C33.9415 42.7238 33.3421 42.7659 32.8245 43.0196C32.3069 43.2733 31.9134 43.7179 31.7307 44.2556C31.548 44.7933 31.591 45.3799 31.8502 45.8866C32.1094 46.3932 32.5637 46.7783 33.113 46.9572Z" fill="#FE674C"/>
<path d="M60.1447 62.0034H59.7842C58.6796 62.0034 57.7842 62.8988 57.7842 64.0034V64.2715C57.7842 65.3761 58.6796 66.2715 59.7842 66.2715H60.1447C61.2492 66.2715 62.1447 65.3761 62.1447 64.2715V64.0034C62.1447 62.8988 61.2492 62.0034 60.1447 62.0034Z" fill="#FE674C"/>
<path d="M64.5049 66.2715H64.1445C63.04 66.2715 62.1445 67.1669 62.1445 68.2715V68.5396C62.1445 69.6441 63.04 70.5396 64.1445 70.5396H64.5049C65.6095 70.5396 66.5049 69.6441 66.5049 68.5396V68.2715C66.5049 67.1669 65.6095 66.2715 64.5049 66.2715Z" fill="#FE674C"/>
<path d="M64.5049 57.7358H64.1445C63.04 57.7358 62.1445 58.6313 62.1445 59.7358V60.0034C62.1445 61.108 63.04 62.0034 64.1445 62.0034H64.5049C65.6095 62.0034 66.5049 61.108 66.5049 60.0034V59.7358C66.5049 58.6313 65.6095 57.7358 64.5049 57.7358Z" fill="#FE674C"/>
<path d="M68.8654 62.0034H68.5049C67.4003 62.0034 66.5049 62.8988 66.5049 64.0034V64.2715C66.5049 65.3761 67.4003 66.2715 68.5049 66.2715H68.8654C69.9699 66.2715 70.8654 65.3761 70.8654 64.2715V64.0034C70.8654 62.8988 69.9699 62.0034 68.8654 62.0034Z" fill="#FE674C"/>
<path d="M12.1802 62.0034H11.8198C10.7153 62.0034 9.81982 62.8988 9.81982 64.0034V64.2715C9.81982 65.3761 10.7153 66.2715 11.8198 66.2715H12.1802C13.2847 66.2715 14.1802 65.3761 14.1802 64.2715V64.0034C14.1802 62.8988 13.2847 62.0034 12.1802 62.0034Z" fill="#FE674C"/>
<path d="M16.5405 57.7358H16.1802C15.0756 57.7358 14.1802 58.6313 14.1802 59.7358V60.0034C14.1802 61.108 15.0756 62.0034 16.1802 62.0034H16.5405C17.6451 62.0034 18.5405 61.108 18.5405 60.0034V59.7358C18.5405 58.6313 17.6451 57.7358 16.5405 57.7358Z" fill="#FE674C"/>
<path d="M20.901 62.0034H20.5405C19.436 62.0034 18.5405 62.8988 18.5405 64.0034V64.2715C18.5405 65.3761 19.436 66.2715 20.5405 66.2715H20.901C22.0056 66.2715 22.901 65.3761 22.901 64.2715V64.0034C22.901 62.8988 22.0056 62.0034 20.901 62.0034Z" fill="#FE674C"/>
<path d="M16.5405 66.2715H16.1802C15.0756 66.2715 14.1802 67.1669 14.1802 68.2715V68.5396C14.1802 69.6441 15.0756 70.5396 16.1802 70.5396H16.5405C17.6451 70.5396 18.5405 69.6441 18.5405 68.5396V68.2715C18.5405 67.1669 17.6451 66.2715 16.5405 66.2715Z" fill="#FE674C"/>
<path d="M55.7842 85.4771H55.4238C54.3193 85.4771 53.4238 86.3725 53.4238 87.4771V87.7451C53.4238 88.8497 54.3193 89.7451 55.4238 89.7451H55.7842C56.8887 89.7451 57.7842 88.8497 57.7842 87.7451V87.4771C57.7842 86.3725 56.8887 85.4771 55.7842 85.4771Z" fill="#FE674C"/>
<path d="M25.2614 85.4771H24.9009C23.7963 85.4771 22.9009 86.3725 22.9009 87.4771V87.7451C22.9009 88.8497 23.7963 89.7451 24.9009 89.7451H25.2614C26.3659 89.7451 27.2614 88.8497 27.2614 87.7451V87.4771C27.2614 86.3725 26.3659 85.4771 25.2614 85.4771Z" fill="#FE674C"/>
<path d="M40.5225 94.0127H40.1621C39.0575 94.0127 38.1621 94.9081 38.1621 96.0127V96.2808C38.1621 97.3853 39.0575 98.2808 40.1621 98.2808H40.5225C41.627 98.2808 42.5225 97.3853 42.5225 96.2808V96.0127C42.5225 94.9081 41.627 94.0127 40.5225 94.0127Z" fill="#FE674C"/>
</svg>
