<svg width="81" height="80" viewBox="0 0 81 80" fill="none" xmlns="http://www.w3.org/2000/svg">
<g filter="url(#filter0_d)">
<path fill-rule="evenodd" clip-rule="evenodd" d="M16.998 36C16.998 24.9543 25.9524 16 36.998 16C48.0437 16 56.998 24.9543 56.998 36C56.998 47.0457 48.0437 56 36.998 56C25.9524 56 16.998 47.0457 16.998 36Z" fill="#3B5998"/>
<path fill-rule="evenodd" clip-rule="evenodd" d="M38.6771 46.8797V35.9986H41.6807L42.0788 32.249H38.6771L38.6822 30.3722C38.6822 29.3942 38.7751 28.8702 40.1798 28.8702H42.0575V25.1201H39.0534C35.4451 25.1201 34.175 26.9391 34.175 29.9981V32.2494H31.9258V35.9991H34.175V46.8797H38.6771Z" fill="white"/>
</g>
<defs>
<filter id="filter0_d" x="0.998047" y="0" width="80" height="80" filterUnits="userSpaceOnUse" color-interpolation-filters="sRGB">
<feFlood flood-opacity="0" result="BackgroundImageFix"/>
<feColorMatrix in="SourceAlpha" type="matrix" values="0 0 0 0 0 0 0 0 0 0 0 0 0 0 0 0 0 0 127 0"/>
<feOffset dx="4" dy="4"/>
<feGaussianBlur stdDeviation="10"/>
<feColorMatrix type="matrix" values="0 0 0 0 0 0 0 0 0 0 0 0 0 0 0 0 0 0 0.21 0"/>
<feBlend mode="normal" in2="BackgroundImageFix" result="effect1_dropShadow"/>
<feBlend mode="normal" in="SourceGraphic" in2="effect1_dropShadow" result="shape"/>
</filter>
</defs>
</svg>
