<svg width="37" height="27" viewBox="0 0 37 27" fill="none" xmlns="http://www.w3.org/2000/svg">
<g filter="url(#filter0_d)">
<rect x="4.75" y="0.69873" width="27.47" height="17.2631" rx="2.25" stroke="#EEE4E4" stroke-width="0.5"/>
<mask id="mask0" mask-type="alpha" maskUnits="userSpaceOnUse" x="5" y="0" width="27" height="18">
<rect x="5" y="0.94873" width="26.97" height="16.7631" rx="2" fill="#C4C4C4"/>
</mask>
<g mask="url(#mask0)">
<path d="M32.9543 -0.880005H4.01758V8.56095H32.9543V-0.880005Z" fill="white"/>
<path d="M32.9523 8.56055H4.01562V18.0015H32.9523V8.56055Z" fill="#D52B1E"/>
<path d="M32.9523 5.4137H4.01562V11.7077H32.9523V5.4137Z" fill="#0039A6"/>
</g>
<mask id="mask1" mask-type="alpha" maskUnits="userSpaceOnUse" x="5" y="0" width="27" height="18">
<rect x="5" y="0.94873" width="26.97" height="16.7631" rx="2" fill="#C4C4C4"/>
</mask>
<g mask="url(#mask1)">
<path d="M42.738 -0.0541992H4.74609V18.9417H42.738V-0.0541992Z" fill="#00AFCA"/>
<path d="M7.49975 6.02806C7.49975 6.34873 7.21185 6.51355 6.98563 6.51355C6.68084 6.51355 6.51856 6.33131 6.51856 6.09277C6.51856 5.95755 6.54334 5.8727 6.60569 5.74327C6.60569 5.74327 7.10845 4.69771 7.30419 4.29331C7.3286 4.24287 7.33648 4.18546 7.33648 4.10128C7.33648 3.97128 7.21039 3.86503 7.07819 3.86178C6.95767 3.85877 6.82636 3.97414 6.82636 4.10559C6.82636 4.26527 6.90919 4.33646 6.99424 4.33646C7.0989 4.33646 7.14061 4.29343 7.14061 4.21995C7.14061 4.16874 7.11588 4.14659 7.08034 4.14659C6.99057 4.14659 7.01577 4.26741 7.01577 4.26741C6.97118 4.25765 6.93456 4.2121 6.9555 4.15522C6.92289 4.14795 6.89233 4.13083 6.86833 4.10343C6.89239 4.0801 6.92 4.06209 6.9555 4.05596C6.93448 3.98656 6.96257 3.95264 7.0233 3.93837C7.01105 3.96507 7.01063 3.98963 7.01469 4.01281C7.1103 3.98562 7.25684 4.02889 7.25684 4.19405C7.25684 4.35804 7.14303 4.49611 6.92966 4.4616C6.98042 4.48587 7.00624 4.53553 7.01145 4.59106C6.9727 4.57596 6.92966 4.5738 6.92966 4.5738C6.95461 4.61779 6.98926 4.65571 6.98777 4.7421C6.94821 4.72411 6.91148 4.69081 6.86078 4.71189C6.94034 4.86846 6.84259 5.08383 6.59388 5.13479C6.68491 5.02809 6.72948 4.91288 6.72948 4.79818C6.72948 4.42646 6.62617 4.364 6.62617 4.10557C6.62617 3.99745 6.68175 3.88069 6.7919 3.80134V3.80566C6.71909 3.78616 6.67246 3.75031 6.64565 3.7016C6.81199 3.65443 7.05379 3.65529 7.18364 3.70638C7.33288 3.72366 7.43705 3.83817 7.46775 3.89628C7.49845 3.95435 7.55808 4.16448 7.46775 4.35368C7.3689 4.56073 6.9028 5.54903 6.75747 5.85972C6.72665 5.92562 6.70797 5.9955 6.70797 6.07118C6.70797 6.26149 6.88231 6.32794 6.98133 6.32794C7.09971 6.32794 7.22024 6.23775 7.22024 6.12512C7.22024 6.05375 7.1815 6.01076 7.12554 6.01076C6.99172 6.01076 6.99985 6.1246 7.02653 6.19632C6.94324 6.15888 6.89483 6.09204 6.90814 6.02155C6.86099 6.01509 6.81611 5.99272 6.7747 5.94603C6.80728 5.90488 6.84703 5.87378 6.90814 5.87267C6.88145 5.76332 6.95467 5.71708 7.02653 5.69143C7.00379 5.77168 6.98887 5.86404 7.12554 5.86404C7.22518 5.86404 7.30365 5.8813 7.34939 5.94603C7.35208 5.85973 7.36015 5.51881 7.36015 5.51881C7.36589 5.3907 7.18867 5.39436 7.07603 5.4325C7.11854 5.28494 7.20572 5.20516 7.4075 5.22537C7.35853 5.20487 7.30634 5.15879 7.30634 5.07002C7.30637 4.9499 7.40382 4.81682 7.4678 4.77747L7.49979 6.02808L7.49975 6.02806Z" fill="#FEC50C"/>
<path d="M7.41822 6.02806C7.41822 6.34873 7.70612 6.51355 7.93234 6.51355C8.23713 6.51355 8.39941 6.33131 8.39941 6.09277C8.39941 5.95755 8.37463 5.8727 8.31228 5.74327C8.31228 5.74327 7.80952 4.69771 7.61378 4.29331C7.58937 4.24287 7.58149 4.18546 7.58149 4.10128C7.58149 3.97128 7.70758 3.86503 7.83978 3.86178C7.9603 3.85877 8.09161 3.97414 8.09161 4.10559C8.09161 4.26527 8.00878 4.33646 7.92372 4.33646C7.81906 4.33646 7.77736 4.29343 7.77736 4.21995C7.77736 4.16874 7.80209 4.14659 7.83763 4.14659C7.9274 4.14659 7.9022 4.26741 7.9022 4.26741C7.94679 4.25765 7.98341 4.2121 7.96247 4.15522C7.99508 4.14795 8.02563 4.13083 8.04964 4.10343C8.02557 4.0801 7.99797 4.06209 7.96247 4.05596C7.98349 3.98656 7.9554 3.95264 7.89467 3.93837C7.90692 3.96507 7.90734 3.98963 7.90328 4.01281C7.80766 3.98562 7.66113 4.02889 7.66113 4.19405C7.66113 4.35804 7.77493 4.49611 7.98831 4.4616C7.93755 4.48587 7.91173 4.53553 7.90652 4.59106C7.94526 4.57596 7.98831 4.5738 7.98831 4.5738C7.96336 4.61779 7.92871 4.65571 7.9302 4.7421C7.96976 4.72411 8.00649 4.69081 8.05719 4.71189C7.97762 4.86846 8.07538 5.08383 8.32409 5.13479C8.23306 5.02809 8.18849 4.91288 8.18849 4.79818C8.18849 4.42646 8.2918 4.364 8.2918 4.10557C8.2918 3.99745 8.23622 3.88069 8.12607 3.80134V3.80566C8.19887 3.78616 8.24551 3.75031 8.27232 3.7016C8.10598 3.65443 7.86418 3.65529 7.73433 3.70638C7.58509 3.72366 7.48092 3.83817 7.45022 3.89628C7.41952 3.95435 7.35989 4.16448 7.45022 4.35368C7.54907 4.56073 8.01517 5.54903 8.16049 5.85972C8.19132 5.92562 8.21 5.9955 8.21 6.07118C8.21 6.26149 8.03565 6.32794 7.93664 6.32794C7.81826 6.32794 7.69773 6.23775 7.69773 6.12512C7.69773 6.05375 7.73647 6.01076 7.79243 6.01076C7.92625 6.01076 7.91812 6.1246 7.89144 6.19632C7.97473 6.15888 8.02313 6.09204 8.00982 6.02155C8.05698 6.01509 8.10186 5.99272 8.14327 5.94603C8.11068 5.90488 8.07094 5.87378 8.00982 5.87267C8.03652 5.76332 7.9633 5.71708 7.89144 5.69143C7.91418 5.77168 7.9291 5.86404 7.79243 5.86404C7.69279 5.86404 7.61432 5.8813 7.56858 5.94603C7.56589 5.85973 7.55782 5.51881 7.55782 5.51881C7.55208 5.3907 7.72929 5.39436 7.84194 5.4325C7.79943 5.28494 7.71224 5.20516 7.51047 5.22537C7.55944 5.20487 7.61163 5.15879 7.61163 5.07002C7.6116 4.9499 7.51415 4.81682 7.45017 4.77747L7.41818 6.02808L7.41822 6.02806Z" fill="#FEC50C"/>
<path d="M7.44937 2.56028C7.44937 2.56028 7.60142 2.43251 7.65305 2.4966C7.73609 2.59967 7.39771 3.11308 7.39771 3.29387C7.39771 3.59065 7.59573 3.67136 7.84024 3.71372C8.00431 3.74217 8.27148 3.70183 8.27148 3.70183C8.22118 3.63423 8.18846 3.61432 8.1037 3.60891C8.19807 3.55992 8.29416 3.45358 8.29416 3.28802C8.29416 3.03272 8.18906 2.9275 8.18906 2.63966C8.18906 2.48 8.31998 2.27673 8.31998 2.27673C8.08857 2.29989 7.97387 2.51418 8.03913 2.68542C8.00229 2.69073 7.96884 2.68244 7.94012 2.65522C7.92318 2.70269 7.94992 2.75778 7.98573 2.80525C7.95689 2.82066 7.9357 2.81142 7.88977 2.80194C7.89412 2.85085 7.92343 2.9028 7.99512 2.95171C7.78707 2.89769 7.65905 3.0427 7.65905 3.1945C7.65905 3.30917 7.7394 3.39135 7.81794 3.39135C7.84332 3.39135 7.88061 3.38089 7.90164 3.36519C7.91647 3.39675 7.90883 3.43899 7.89356 3.47055C7.95112 3.45533 7.98766 3.42114 7.96165 3.34998C8.00586 3.34592 8.04104 3.33098 8.06496 3.30251C8.04072 3.27147 8.00395 3.25359 7.96165 3.25504C7.99384 3.18861 7.95797 3.15141 7.90569 3.12127C7.90569 3.12127 7.93893 3.25504 7.85403 3.25504C7.81585 3.25504 7.78106 3.24261 7.78106 3.18635C7.78106 3.13735 7.8239 3.06948 7.9229 3.0738C8.02192 3.07811 8.10219 3.14207 8.10219 3.30012C8.10219 3.44592 7.98459 3.51843 7.82963 3.52312C7.68987 3.52743 7.58439 3.45173 7.58439 3.30757C7.58439 3.11569 7.86138 2.67835 7.86138 2.50737C7.86138 2.37909 7.74601 2.30748 7.63313 2.30748C7.48677 2.30748 7.36328 2.45241 7.36328 2.45241L7.44927 2.56022L7.44937 2.56028Z" fill="#FEC50C"/>
<path d="M7.4686 2.56028C7.4686 2.56028 7.31655 2.43251 7.26492 2.4966C7.18188 2.59967 7.52026 3.11308 7.52026 3.29387C7.52026 3.59065 7.32224 3.67136 7.07773 3.71372C6.91366 3.74217 6.64649 3.70183 6.64649 3.70183C6.69679 3.63423 6.72951 3.61432 6.81427 3.60891C6.7199 3.55992 6.62381 3.45358 6.62381 3.28802C6.62381 3.03272 6.72891 2.9275 6.72891 2.63966C6.72891 2.48 6.59798 2.27673 6.59798 2.27673C6.8294 2.29989 6.9441 2.51418 6.87884 2.68542C6.91568 2.69073 6.94913 2.68244 6.97785 2.65522C6.99479 2.70269 6.96805 2.75778 6.93224 2.80525C6.96108 2.82066 6.98227 2.81142 7.0282 2.80194C7.02385 2.85085 6.99454 2.9028 6.92285 2.95171C7.1309 2.89769 7.25892 3.0427 7.25892 3.1945C7.25892 3.30917 7.17857 3.39135 7.10003 3.39135C7.07465 3.39135 7.03736 3.38089 7.01633 3.36519C7.0015 3.39675 7.00914 3.43899 7.02441 3.47055C6.96685 3.45533 6.93031 3.42114 6.95632 3.34998C6.9121 3.34592 6.87693 3.33098 6.85301 3.30251C6.87725 3.27147 6.91402 3.25359 6.95632 3.25504C6.92413 3.18861 6.96 3.15141 7.01228 3.12127C7.01228 3.12127 6.97903 3.25504 7.06394 3.25504C7.10212 3.25504 7.13691 3.24261 7.13691 3.18635C7.13691 3.13735 7.09407 3.06948 6.99506 3.0738C6.89605 3.07811 6.81578 3.14207 6.81578 3.30012C6.81578 3.44592 6.93338 3.51843 7.08834 3.52312C7.2281 3.52743 7.33358 3.45173 7.33358 3.30757C7.33358 3.11569 7.05659 2.67835 7.05659 2.50737C7.05659 2.37909 7.17196 2.30748 7.28483 2.30748C7.4312 2.30748 7.55469 2.45241 7.55469 2.45241L7.4687 2.56022L7.4686 2.56028Z" fill="#FEC50C"/>
<path d="M7.49975 11.6706C7.49975 11.9913 7.21185 12.1561 6.98563 12.1561C6.68084 12.1561 6.51856 11.9739 6.51856 11.7353C6.51856 11.6001 6.54334 11.5153 6.60569 11.3859C6.60569 11.3859 7.10845 10.3403 7.30419 9.93589C7.3286 9.88545 7.33648 9.82804 7.33648 9.74386C7.33648 9.61386 7.21039 9.50761 7.07819 9.50436C6.95767 9.50134 6.82636 9.61672 6.82636 9.74817C6.82636 9.90785 6.90919 9.97904 6.99424 9.97904C7.0989 9.97904 7.14061 9.93601 7.14061 9.86252C7.14061 9.81132 7.11588 9.78917 7.08034 9.78917C6.99057 9.78917 7.01577 9.90999 7.01577 9.90999C6.97118 9.90023 6.93456 9.85468 6.9555 9.79779C6.92289 9.79053 6.89233 9.77341 6.86833 9.74601C6.89239 9.72268 6.92 9.70467 6.9555 9.69854C6.93448 9.62914 6.96257 9.59522 7.0233 9.58095C7.01105 9.60765 7.01063 9.63221 7.01469 9.65539C7.1103 9.6282 7.25684 9.67147 7.25684 9.83663C7.25684 10.0006 7.14303 10.1387 6.92966 10.1042C6.98042 10.1284 7.00624 10.1781 7.01145 10.2336C6.9727 10.2185 6.92966 10.2164 6.92966 10.2164C6.95461 10.2604 6.98926 10.2983 6.98777 10.3847C6.94821 10.3667 6.91148 10.3334 6.86078 10.3545C6.94034 10.511 6.84259 10.7264 6.59388 10.7774C6.68491 10.6707 6.72948 10.5555 6.72948 10.4408C6.72948 10.069 6.62617 10.0066 6.62617 9.74815C6.62617 9.64003 6.68175 9.52326 6.7919 9.44392V9.44823C6.71909 9.42874 6.67246 9.39289 6.64565 9.34418C6.81199 9.29701 7.05379 9.29787 7.18364 9.34896C7.33288 9.36624 7.43705 9.48075 7.46775 9.53885C7.49845 9.59693 7.55808 9.80706 7.46775 9.99625C7.3689 10.2033 6.9028 11.1916 6.75747 11.5023C6.72665 11.5682 6.70797 11.6381 6.70797 11.7138C6.70797 11.9041 6.88231 11.9705 6.98133 11.9705C7.09971 11.9705 7.22024 11.8803 7.22024 11.7677C7.22024 11.6963 7.1815 11.6533 7.12554 11.6533C6.99172 11.6533 6.99985 11.7672 7.02653 11.8389C6.94324 11.8015 6.89483 11.7346 6.90814 11.6641C6.86099 11.6577 6.81611 11.6353 6.7747 11.5886C6.80728 11.5475 6.84703 11.5164 6.90814 11.5153C6.88145 11.4059 6.95467 11.3597 7.02653 11.334C7.00379 11.4143 6.98887 11.5066 7.12554 11.5066C7.22518 11.5066 7.30365 11.5239 7.34939 11.5886C7.35208 11.5023 7.36015 11.1614 7.36015 11.1614C7.36589 11.0333 7.18867 11.0369 7.07603 11.0751C7.11854 10.9275 7.20572 10.8477 7.4075 10.8679C7.35853 10.8475 7.30634 10.8014 7.30634 10.7126C7.30637 10.5925 7.40382 10.4594 7.4678 10.4201L7.49979 11.6707L7.49975 11.6706Z" fill="#FEC50C"/>
<path d="M7.41822 11.6706C7.41822 11.9913 7.70612 12.1561 7.93234 12.1561C8.23713 12.1561 8.39941 11.9739 8.39941 11.7353C8.39941 11.6001 8.37463 11.5153 8.31228 11.3859C8.31228 11.3859 7.80952 10.3403 7.61378 9.93589C7.58937 9.88545 7.58149 9.82804 7.58149 9.74386C7.58149 9.61386 7.70758 9.50761 7.83978 9.50436C7.9603 9.50134 8.09161 9.61672 8.09161 9.74817C8.09161 9.90785 8.00878 9.97904 7.92372 9.97904C7.81906 9.97904 7.77736 9.93601 7.77736 9.86252C7.77736 9.81132 7.80209 9.78917 7.83763 9.78917C7.9274 9.78917 7.9022 9.90999 7.9022 9.90999C7.94679 9.90023 7.98341 9.85468 7.96247 9.79779C7.99508 9.79053 8.02563 9.77341 8.04964 9.74601C8.02557 9.72268 7.99797 9.70467 7.96247 9.69854C7.98349 9.62914 7.9554 9.59522 7.89467 9.58095C7.90692 9.60765 7.90734 9.63221 7.90328 9.65539C7.80766 9.6282 7.66113 9.67147 7.66113 9.83663C7.66113 10.0006 7.77493 10.1387 7.98831 10.1042C7.93755 10.1284 7.91173 10.1781 7.90652 10.2336C7.94526 10.2185 7.98831 10.2164 7.98831 10.2164C7.96336 10.2604 7.92871 10.2983 7.9302 10.3847C7.96976 10.3667 8.00649 10.3334 8.05719 10.3545C7.97762 10.511 8.07538 10.7264 8.32409 10.7774C8.23306 10.6707 8.18849 10.5555 8.18849 10.4408C8.18849 10.069 8.2918 10.0066 8.2918 9.74815C8.2918 9.64003 8.23622 9.52326 8.12607 9.44392V9.44823C8.19887 9.42874 8.24551 9.39289 8.27232 9.34418C8.10598 9.29701 7.86418 9.29787 7.73433 9.34896C7.58509 9.36624 7.48092 9.48075 7.45022 9.53885C7.41952 9.59693 7.35989 9.80706 7.45022 9.99625C7.54907 10.2033 8.01517 11.1916 8.16049 11.5023C8.19132 11.5682 8.21 11.6381 8.21 11.7138C8.21 11.9041 8.03565 11.9705 7.93664 11.9705C7.81826 11.9705 7.69773 11.8803 7.69773 11.7677C7.69773 11.6963 7.73647 11.6533 7.79243 11.6533C7.92625 11.6533 7.91812 11.7672 7.89144 11.8389C7.97473 11.8015 8.02313 11.7346 8.00982 11.6641C8.05698 11.6577 8.10186 11.6353 8.14327 11.5886C8.11068 11.5475 8.07094 11.5164 8.00982 11.5153C8.03652 11.4059 7.9633 11.3597 7.89144 11.334C7.91418 11.4143 7.9291 11.5066 7.79243 11.5066C7.69279 11.5066 7.61432 11.5239 7.56858 11.5886C7.56589 11.5023 7.55782 11.1614 7.55782 11.1614C7.55208 11.0333 7.72929 11.0369 7.84194 11.0751C7.79943 10.9275 7.71224 10.8477 7.51047 10.8679C7.55944 10.8475 7.61163 10.8014 7.61163 10.7126C7.6116 10.5925 7.51415 10.4594 7.45017 10.4201L7.41818 11.6707L7.41822 11.6706Z" fill="#FEC50C"/>
<path d="M7.49975 7.0331C7.49975 6.71243 7.21185 6.54761 6.98563 6.54761C6.68084 6.54761 6.51856 6.72984 6.51856 6.96839C6.51856 7.10361 6.54334 7.18846 6.60569 7.31788C6.60569 7.31788 7.10845 8.36345 7.30419 8.76785C7.3286 8.81828 7.33648 8.8757 7.33648 8.95988C7.33648 9.08987 7.21039 9.19612 7.07819 9.19938C6.95767 9.20239 6.82636 9.08702 6.82636 8.95556C6.82636 8.79588 6.90919 8.7247 6.99424 8.7247C7.0989 8.7247 7.14061 8.76772 7.14061 8.84121C7.14061 8.89242 7.11588 8.91457 7.08034 8.91457C6.99057 8.91457 7.01577 8.79374 7.01577 8.79374C6.97118 8.8035 6.93456 8.84906 6.9555 8.90594C6.92289 8.9132 6.89233 8.93032 6.86833 8.95773C6.89239 8.98106 6.92 8.99907 6.9555 9.00519C6.93448 9.0746 6.96257 9.10851 7.0233 9.12279C7.01105 9.09609 7.01063 9.07153 7.01469 9.04835C7.1103 9.07553 7.25684 9.03227 7.25684 8.8671C7.25684 8.70312 7.14303 8.56505 6.92966 8.59956C6.98042 8.57529 7.00624 8.52563 7.01145 8.4701C6.9727 8.4852 6.92966 8.48736 6.92966 8.48736C6.95461 8.44336 6.98926 8.40545 6.98777 8.31906C6.94821 8.33705 6.91148 8.37035 6.86078 8.34927C6.94034 8.1927 6.84259 7.97733 6.59388 7.92637C6.68491 8.03307 6.72948 8.14828 6.72948 8.26298C6.72948 8.63469 6.62617 8.69716 6.62617 8.95559C6.62617 9.06371 6.68175 9.18047 6.7919 9.25982V9.2555C6.71909 9.275 6.67246 9.31085 6.64565 9.35956C6.81199 9.40673 7.05379 9.40586 7.18364 9.35478C7.33288 9.3375 7.43705 9.22299 7.46775 9.16488C7.49845 9.10681 7.55808 8.89667 7.46775 8.70748C7.3689 8.50043 6.9028 7.51213 6.75747 7.20143C6.72665 7.13554 6.70797 7.06565 6.70797 6.98998C6.70797 6.79967 6.88231 6.73322 6.98133 6.73322C7.09971 6.73322 7.22024 6.82341 7.22024 6.93604C7.22024 7.00741 7.1815 7.0504 7.12554 7.0504C6.99172 7.0504 6.99985 6.93656 7.02653 6.86484C6.94324 6.90228 6.89483 6.96912 6.90814 7.03961C6.86099 7.04607 6.81611 7.06843 6.7747 7.11513C6.80728 7.15627 6.84703 7.18738 6.90814 7.18848C6.88145 7.29783 6.95467 7.34408 7.02653 7.36973C7.00379 7.28947 6.98887 7.19711 7.12554 7.19711C7.22518 7.19711 7.30365 7.17985 7.34939 7.11512C7.35208 7.20143 7.36015 7.54235 7.36015 7.54235C7.36589 7.67045 7.18867 7.66679 7.07603 7.62865C7.11854 7.77622 7.20572 7.856 7.4075 7.83579C7.35853 7.85629 7.30634 7.90236 7.30634 7.99114C7.30637 8.11126 7.40382 8.24434 7.4678 8.28368L7.49979 7.03308L7.49975 7.0331Z" fill="#FEC50C"/>
<path d="M7.41822 7.0331C7.41822 6.71243 7.70612 6.54761 7.93234 6.54761C8.23713 6.54761 8.39941 6.72984 8.39941 6.96839C8.39941 7.10361 8.37463 7.18846 8.31228 7.31788C8.31228 7.31788 7.80952 8.36345 7.61378 8.76785C7.58937 8.81828 7.58149 8.8757 7.58149 8.95988C7.58149 9.08987 7.70758 9.19612 7.83978 9.19938C7.9603 9.20239 8.09161 9.08702 8.09161 8.95556C8.09161 8.79588 8.00878 8.7247 7.92372 8.7247C7.81906 8.7247 7.77736 8.76772 7.77736 8.84121C7.77736 8.89242 7.80209 8.91457 7.83763 8.91457C7.9274 8.91457 7.9022 8.79374 7.9022 8.79374C7.94679 8.8035 7.98341 8.84906 7.96247 8.90594C7.99508 8.9132 8.02563 8.93032 8.04964 8.95773C8.02557 8.98106 7.99797 8.99907 7.96247 9.00519C7.98349 9.0746 7.9554 9.10851 7.89467 9.12279C7.90692 9.09609 7.90734 9.07153 7.90328 9.04835C7.80766 9.07553 7.66113 9.03227 7.66113 8.8671C7.66113 8.70312 7.77493 8.56505 7.98831 8.59956C7.93755 8.57529 7.91173 8.52563 7.90652 8.4701C7.94526 8.4852 7.98831 8.48736 7.98831 8.48736C7.96336 8.44336 7.92871 8.40545 7.9302 8.31906C7.96976 8.33705 8.00649 8.37035 8.05719 8.34927C7.97762 8.1927 8.07538 7.97733 8.32409 7.92637C8.23306 8.03307 8.18849 8.14828 8.18849 8.26298C8.18849 8.63469 8.2918 8.69716 8.2918 8.95559C8.2918 9.06371 8.23622 9.18047 8.12607 9.25982V9.2555C8.19887 9.275 8.24551 9.31085 8.27232 9.35956C8.10598 9.40673 7.86418 9.40586 7.73433 9.35478C7.58509 9.3375 7.48092 9.22299 7.45022 9.16488C7.41952 9.10681 7.35989 8.89667 7.45022 8.70748C7.54907 8.50043 8.01517 7.51213 8.16049 7.20143C8.19132 7.13554 8.21 7.06565 8.21 6.98998C8.21 6.79967 8.03565 6.73322 7.93664 6.73322C7.81826 6.73322 7.69773 6.82341 7.69773 6.93604C7.69773 7.00741 7.73647 7.0504 7.79243 7.0504C7.92625 7.0504 7.91812 6.93656 7.89144 6.86484C7.97473 6.90228 8.02313 6.96912 8.00982 7.03961C8.05698 7.04607 8.10186 7.06843 8.14327 7.11513C8.11068 7.15627 8.07094 7.18738 8.00982 7.18848C8.03652 7.29783 7.9633 7.34408 7.89144 7.36973C7.91418 7.28947 7.9291 7.19711 7.79243 7.19711C7.69279 7.19711 7.61432 7.17985 7.56858 7.11512C7.56589 7.20143 7.55782 7.54235 7.55782 7.54235C7.55208 7.67045 7.72929 7.66679 7.84194 7.62865C7.79943 7.77622 7.71224 7.856 7.51047 7.83579C7.55944 7.85629 7.61163 7.90236 7.61163 7.99114C7.6116 8.11126 7.51415 8.24434 7.45017 8.28368L7.41818 7.03308L7.41822 7.0331Z" fill="#FEC50C"/>
<path d="M7.49975 12.7819C7.49975 12.4612 7.21185 12.2964 6.98563 12.2964C6.68084 12.2964 6.51856 12.4786 6.51856 12.7172C6.51856 12.8524 6.54334 12.9372 6.60569 13.0667C6.60569 13.0667 7.10845 14.1122 7.30419 14.5166C7.3286 14.5671 7.33648 14.6245 7.33648 14.7087C7.33648 14.8387 7.21039 14.9449 7.07819 14.9482C6.95767 14.9512 6.82636 14.8358 6.82636 14.7043C6.82636 14.5447 6.90919 14.4735 6.99424 14.4735C7.0989 14.4735 7.14061 14.5165 7.14061 14.59C7.14061 14.6412 7.11588 14.6633 7.08034 14.6633C6.99057 14.6633 7.01577 14.5425 7.01577 14.5425C6.97118 14.5523 6.93456 14.5978 6.9555 14.6547C6.92289 14.662 6.89233 14.6791 6.86833 14.7065C6.89239 14.7298 6.92 14.7478 6.9555 14.754C6.93448 14.8234 6.96257 14.8573 7.0233 14.8716C7.01105 14.8449 7.01063 14.8203 7.01469 14.7971C7.1103 14.8243 7.25684 14.781 7.25684 14.6159C7.25684 14.4519 7.14303 14.3138 6.92966 14.3483C6.98042 14.3241 7.00624 14.2744 7.01145 14.2189C6.9727 14.234 6.92966 14.2361 6.92966 14.2361C6.95461 14.1921 6.98926 14.1542 6.98777 14.0678C6.94821 14.0858 6.91148 14.1191 6.86078 14.098C6.94034 13.9415 6.84259 13.7261 6.59388 13.6752C6.68491 13.7818 6.72948 13.8971 6.72948 14.0118C6.72948 14.3835 6.62617 14.4459 6.62617 14.7044C6.62617 14.8125 6.68175 14.9293 6.7919 15.0086V15.0043C6.71909 15.0238 6.67246 15.0596 6.64565 15.1083C6.81199 15.1555 7.05379 15.1546 7.18364 15.1036C7.33288 15.0863 7.43705 14.9718 7.46775 14.9137C7.49845 14.8556 7.55808 14.6455 7.46775 14.4563C7.3689 14.2492 6.9028 13.2609 6.75747 12.9502C6.72665 12.8843 6.70797 12.8144 6.70797 12.7388C6.70797 12.5484 6.88231 12.482 6.98133 12.482C7.09971 12.482 7.22024 12.5722 7.22024 12.6848C7.22024 12.7562 7.1815 12.7992 7.12554 12.7992C6.99172 12.7992 6.99985 12.6853 7.02653 12.6136C6.94324 12.6511 6.89483 12.7179 6.90814 12.7884C6.86099 12.7948 6.81611 12.8172 6.7747 12.8639C6.80728 12.9051 6.84703 12.9362 6.90814 12.9373C6.88145 13.0466 6.95467 13.0929 7.02653 13.1185C7.00379 13.0383 6.98887 12.9459 7.12554 12.9459C7.22518 12.9459 7.30365 12.9286 7.34939 12.8639C7.35208 12.9502 7.36015 13.2911 7.36015 13.2911C7.36589 13.4192 7.18867 13.4156 7.07603 13.3774C7.11854 13.525 7.20572 13.6048 7.4075 13.5846C7.35853 13.6051 7.30634 13.6511 7.30634 13.7399C7.30637 13.86 7.40382 13.9931 7.4678 14.0325L7.49979 12.7819L7.49975 12.7819Z" fill="#FEC50C"/>
<path d="M7.41822 12.7819C7.41822 12.4612 7.70612 12.2964 7.93234 12.2964C8.23713 12.2964 8.39941 12.4786 8.39941 12.7172C8.39941 12.8524 8.37463 12.9372 8.31228 13.0667C8.31228 13.0667 7.80952 14.1122 7.61378 14.5166C7.58937 14.5671 7.58149 14.6245 7.58149 14.7087C7.58149 14.8387 7.70758 14.9449 7.83978 14.9482C7.9603 14.9512 8.09161 14.8358 8.09161 14.7043C8.09161 14.5447 8.00878 14.4735 7.92372 14.4735C7.81906 14.4735 7.77736 14.5165 7.77736 14.59C7.77736 14.6412 7.80209 14.6633 7.83763 14.6633C7.9274 14.6633 7.9022 14.5425 7.9022 14.5425C7.94679 14.5523 7.98341 14.5978 7.96247 14.6547C7.99508 14.662 8.02563 14.6791 8.04964 14.7065C8.02557 14.7298 7.99797 14.7478 7.96247 14.754C7.98349 14.8234 7.9554 14.8573 7.89467 14.8716C7.90692 14.8449 7.90734 14.8203 7.90328 14.7971C7.80766 14.8243 7.66113 14.781 7.66113 14.6159C7.66113 14.4519 7.77493 14.3138 7.98831 14.3483C7.93755 14.3241 7.91173 14.2744 7.90652 14.2189C7.94526 14.234 7.98831 14.2361 7.98831 14.2361C7.96336 14.1921 7.92871 14.1542 7.9302 14.0678C7.96976 14.0858 8.00649 14.1191 8.05719 14.098C7.97762 13.9415 8.07538 13.7261 8.32409 13.6752C8.23306 13.7818 8.18849 13.8971 8.18849 14.0118C8.18849 14.3835 8.2918 14.4459 8.2918 14.7044C8.2918 14.8125 8.23622 14.9293 8.12607 15.0086V15.0043C8.19887 15.0238 8.24551 15.0596 8.27232 15.1083C8.10598 15.1555 7.86418 15.1546 7.73433 15.1036C7.58509 15.0863 7.48092 14.9718 7.45022 14.9137C7.41952 14.8556 7.35989 14.6455 7.45022 14.4563C7.54907 14.2492 8.01517 13.2609 8.16049 12.9502C8.19132 12.8843 8.21 12.8144 8.21 12.7388C8.21 12.5484 8.03565 12.482 7.93664 12.482C7.81826 12.482 7.69773 12.5722 7.69773 12.6848C7.69773 12.7562 7.73647 12.7992 7.79243 12.7992C7.92625 12.7992 7.91812 12.6853 7.89144 12.6136C7.97473 12.6511 8.02313 12.7179 8.00982 12.7884C8.05698 12.7948 8.10186 12.8172 8.14327 12.8639C8.11068 12.9051 8.07094 12.9362 8.00982 12.9373C8.03652 13.0466 7.9633 13.0929 7.89144 13.1185C7.91418 13.0383 7.9291 12.9459 7.79243 12.9459C7.69279 12.9459 7.61432 12.9286 7.56858 12.8639C7.56589 12.9502 7.55782 13.2911 7.55782 13.2911C7.55208 13.4192 7.72929 13.4156 7.84194 13.3774C7.79943 13.525 7.71224 13.6048 7.51047 13.5846C7.55944 13.6051 7.61163 13.6511 7.61163 13.7399C7.6116 13.86 7.51415 13.9931 7.45017 14.0325L7.41818 12.7819L7.41822 12.7819Z" fill="#FEC50C"/>
<path d="M7.4686 16.2497C7.4686 16.2497 7.31655 16.3774 7.26492 16.3133C7.18188 16.2103 7.52026 15.6969 7.52026 15.5161C7.52026 15.2193 7.32224 15.1386 7.07773 15.0962C6.91366 15.0678 6.64649 15.1081 6.64649 15.1081C6.69679 15.1757 6.72951 15.1956 6.81427 15.201C6.7199 15.25 6.62381 15.3564 6.62381 15.5219C6.62381 15.7772 6.72891 15.8824 6.72891 16.1703C6.72891 16.3299 6.59798 16.5332 6.59798 16.5332C6.8294 16.51 6.9441 16.2958 6.87884 16.1245C6.91568 16.1192 6.94913 16.1275 6.97785 16.1547C6.99479 16.1073 6.96805 16.0522 6.93224 16.0047C6.96108 15.9893 6.98227 15.9985 7.0282 16.008C7.02385 15.9591 6.99454 15.9071 6.92285 15.8582C7.1309 15.9122 7.25892 15.7672 7.25892 15.6154C7.25892 15.5008 7.17857 15.4186 7.10003 15.4186C7.07465 15.4186 7.03736 15.429 7.01633 15.4447C7.0015 15.4132 7.00914 15.3709 7.02441 15.3394C6.96685 15.3546 6.93031 15.3888 6.95632 15.46C6.9121 15.464 6.87693 15.479 6.85301 15.5074C6.87725 15.5385 6.91402 15.5564 6.95632 15.5549C6.92413 15.6213 6.96 15.6585 7.01228 15.6887C7.01228 15.6887 6.97903 15.5549 7.06394 15.5549C7.10212 15.5549 7.13691 15.5673 7.13691 15.6236C7.13691 15.6726 7.09407 15.7405 6.99506 15.7361C6.89605 15.7318 6.81578 15.6679 6.81578 15.5098C6.81578 15.364 6.93338 15.2915 7.08834 15.2868C7.2281 15.2825 7.33358 15.3582 7.33358 15.5024C7.33358 15.6942 7.05659 16.1316 7.05659 16.3026C7.05659 16.4309 7.17196 16.5025 7.28483 16.5025C7.4312 16.5025 7.55469 16.3575 7.55469 16.3575L7.4687 16.2497L7.4686 16.2497Z" fill="#FEC50C"/>
<path d="M7.5021 16.2497C7.5021 16.2497 7.65415 16.3774 7.70578 16.3133C7.78883 16.2103 7.45045 15.6969 7.45045 15.5161C7.45045 15.2193 7.64846 15.1386 7.89298 15.0962C8.05705 15.0678 8.32422 15.1081 8.32422 15.1081C8.27392 15.1757 8.2412 15.1956 8.15644 15.201C8.2508 15.25 8.34689 15.3564 8.34689 15.5219C8.34689 15.7772 8.24179 15.8824 8.24179 16.1703C8.24179 16.3299 8.37272 16.5332 8.37272 16.5332C8.1413 16.51 8.0266 16.2958 8.09186 16.1245C8.05502 16.1192 8.02158 16.1275 7.99285 16.1547C7.97591 16.1073 8.00265 16.0522 8.03847 16.0047C8.00962 15.9893 7.98844 15.9985 7.9425 16.008C7.94686 15.9591 7.97616 15.9071 8.04786 15.8582C7.8398 15.9122 7.71178 15.7672 7.71178 15.6154C7.71178 15.5008 7.79214 15.4186 7.87068 15.4186C7.89606 15.4186 7.93334 15.429 7.95438 15.4447C7.9692 15.4132 7.96156 15.3709 7.94629 15.3394C8.00386 15.3546 8.04039 15.3888 8.01438 15.46C8.0586 15.464 8.09377 15.479 8.1177 15.5074C8.09346 15.5385 8.05668 15.5564 8.01438 15.5549C8.04658 15.6213 8.0107 15.6585 7.95842 15.6887C7.95842 15.6887 7.99167 15.5549 7.90676 15.5549C7.86859 15.5549 7.8338 15.5673 7.8338 15.6236C7.8338 15.6726 7.87663 15.7405 7.97564 15.7361C8.07465 15.7318 8.15492 15.6679 8.15492 15.5098C8.15492 15.364 8.03732 15.2915 7.88236 15.2868C7.74261 15.2825 7.63713 15.3582 7.63713 15.5024C7.63713 15.6942 7.91411 16.1316 7.91411 16.3026C7.91411 16.4309 7.79875 16.5025 7.68587 16.5025C7.5395 16.5025 7.41602 16.3575 7.41602 16.3575L7.502 16.2497L7.5021 16.2497Z" fill="#FEC50C"/>
<path d="M19.743 5.07724C19.8923 5.10501 19.9667 5.02301 19.9889 4.91128C20.0186 4.76231 19.9548 4.01206 19.9548 4.01206C19.9548 4.01206 19.6089 4.68081 19.5792 4.82979C19.557 4.94152 19.594 5.04761 19.743 5.07724Z" fill="#FEC50C"/>
<path d="M20.2871 5.24212C20.4282 5.29849 20.5171 5.23258 20.5607 5.12733C20.6188 4.987 20.7027 4.23874 20.7027 4.23874C20.7027 4.23874 20.2329 4.82715 20.1748 4.96748C20.1312 5.07273 20.1468 5.18399 20.2871 5.24212Z" fill="#FEC50C"/>
<path d="M20.789 5.51038C20.9164 5.59319 21.0165 5.5459 21.0798 5.45118C21.1642 5.32489 21.3924 4.60737 21.3924 4.60737C21.3924 4.60737 20.8169 5.09282 20.7325 5.21911C20.6692 5.31384 20.6627 5.426 20.789 5.51038Z" fill="#FEC50C"/>
<path d="M21.2293 5.87194C21.3381 5.978 21.4455 5.95115 21.526 5.87059C21.6335 5.76319 21.9973 5.10398 21.9973 5.10398C21.9973 5.10398 21.3381 5.46782 21.2307 5.57523C21.1501 5.65578 21.1219 5.76453 21.2293 5.87194Z" fill="#FEC50C"/>
<path d="M21.59 6.31134C21.6759 6.43658 21.7865 6.4312 21.8812 6.3679C22.0075 6.28352 22.493 5.70796 22.493 5.70796C22.493 5.70796 21.7755 5.9362 21.6492 6.02059C21.5544 6.08388 21.5056 6.18504 21.59 6.31134Z" fill="#FEC50C"/>
<path d="M21.8578 6.81389C21.9177 6.9535 22.0272 6.96979 22.1324 6.9262C22.2728 6.86807 22.8612 6.39828 22.8612 6.39828C22.8612 6.39828 22.1129 6.48216 21.9726 6.54028C21.8673 6.58388 21.7997 6.67356 21.8578 6.81389Z" fill="#FEC50C"/>
<path d="M22.0224 7.35788C22.0539 7.50649 22.1582 7.54383 22.2699 7.52161C22.4189 7.49198 23.0876 7.146 23.0876 7.146C23.0876 7.146 22.3374 7.08229 22.1884 7.11192C22.0767 7.13415 21.9928 7.20891 22.0224 7.35788Z" fill="#FEC50C"/>
<path d="M22.078 7.92443C22.0799 8.07633 22.1748 8.13329 22.2888 8.13329C22.4407 8.13329 23.1641 7.92443 23.1641 7.92443C23.1641 7.92443 22.4407 7.71558 22.2888 7.71558C22.1748 7.71558 22.078 7.77254 22.078 7.92443Z" fill="#FEC50C"/>
<path d="M22.023 8.49113C21.9952 8.64048 22.0772 8.71487 22.1889 8.73709C22.3379 8.76673 23.0882 8.70301 23.0882 8.70301C23.0882 8.70301 22.4194 8.35704 22.2704 8.32741C22.1587 8.30518 22.0526 8.34216 22.023 8.49113Z" fill="#FEC50C"/>
<path d="M21.8581 9.03589C21.8017 9.17695 21.8676 9.2659 21.9729 9.3095C22.1132 9.36763 22.8615 9.4515 22.8615 9.4515C22.8615 9.4515 22.2731 8.98171 22.1327 8.92358C22.0275 8.87999 21.9162 8.89556 21.8581 9.03589Z" fill="#FEC50C"/>
<path d="M21.5903 9.53781C21.5075 9.66516 21.5548 9.76526 21.6495 9.82856C21.7758 9.91294 22.4933 10.1412 22.4933 10.1412C22.4933 10.1412 22.0079 9.56563 21.8816 9.48124C21.7869 9.41795 21.6747 9.41151 21.5903 9.53781Z" fill="#FEC50C"/>
<path d="M21.2289 9.97739C21.1228 10.0861 21.1497 10.1935 21.2302 10.2741C21.3376 10.3815 21.9968 10.7453 21.9968 10.7453C21.9968 10.7453 21.633 10.0861 21.5256 9.97873C21.445 9.89817 21.3363 9.86998 21.2289 9.97739Z" fill="#FEC50C"/>
<path d="M20.7894 10.3381C20.6641 10.4241 20.6695 10.5347 20.7328 10.6294C20.8172 10.7557 21.3927 11.2412 21.3927 11.2412C21.3927 11.2412 21.1645 10.5236 21.0801 10.3973C21.0168 10.3026 20.9157 10.2537 20.7894 10.3381Z" fill="#FEC50C"/>
<path d="M20.2879 10.6063C20.1483 10.6662 20.132 10.7757 20.1756 10.881C20.2337 11.0213 20.7035 11.6097 20.7035 11.6097C20.7035 11.6097 20.6197 10.8615 20.5615 10.7211C20.5179 10.6159 20.4282 10.5482 20.2879 10.6063Z" fill="#FEC50C"/>
<path d="M17.5625 10.3381C17.4352 10.2553 17.3351 10.3026 17.2718 10.3973C17.1874 10.5236 16.9592 11.2411 16.9592 11.2411C16.9592 11.2411 17.5347 10.7557 17.6191 10.6294C17.6824 10.5347 17.6888 10.4225 17.5625 10.3381Z" fill="#FEC50C"/>
<path d="M17.1242 9.97731C17.0154 9.87124 16.908 9.8981 16.8275 9.97865C16.7201 10.0861 16.3562 10.7453 16.3562 10.7453C16.3562 10.7453 17.0154 10.3814 17.1228 10.274C17.2034 10.1935 17.2316 10.0847 17.1242 9.97731Z" fill="#FEC50C"/>
<path d="M16.7616 9.53717C16.6756 9.41193 16.565 9.41732 16.4703 9.48061C16.344 9.56499 15.8586 10.1406 15.8586 10.1406C15.8586 10.1406 16.5761 9.91231 16.7024 9.82792C16.7971 9.76463 16.846 9.66347 16.7616 9.53717Z" fill="#FEC50C"/>
<path d="M16.4938 9.03535C16.4339 8.89574 16.3244 8.87945 16.2191 8.92304C16.0788 8.98117 15.4904 9.45096 15.4904 9.45096C15.4904 9.45096 16.2386 9.36709 16.379 9.30896C16.4842 9.26536 16.5519 9.17568 16.4938 9.03535Z" fill="#FEC50C"/>
<path d="M16.3291 8.49063C16.2976 8.34202 16.1934 8.30468 16.0817 8.3269C15.9327 8.35653 15.2639 8.70251 15.2639 8.70251C15.2639 8.70251 16.0142 8.76622 16.1632 8.73659C16.2749 8.71436 16.3588 8.6396 16.3291 8.49063Z" fill="#FEC50C"/>
<path d="M16.2716 7.92481C16.2697 7.77292 16.1748 7.71596 16.0608 7.71596C15.9089 7.71596 15.1855 7.92481 15.1855 7.92481C15.1855 7.92481 15.9089 8.13367 16.0608 8.13367C16.1748 8.13367 16.2716 8.07671 16.2716 7.92481Z" fill="#FEC50C"/>
<path d="M16.3286 7.35811C16.3564 7.20876 16.2744 7.13438 16.1626 7.11215C16.0136 7.08252 15.2634 7.14623 15.2634 7.14623C15.2634 7.14623 15.9322 7.4922 16.0811 7.52184C16.1929 7.54406 16.299 7.50709 16.3286 7.35811Z" fill="#FEC50C"/>
<path d="M16.4935 6.81335C16.5498 6.67229 16.4839 6.58334 16.3787 6.53974C16.2383 6.48162 15.4901 6.39774 15.4901 6.39774C15.4901 6.39774 16.0785 6.86753 16.2188 6.92566C16.3241 6.96926 16.4353 6.95369 16.4935 6.81335Z" fill="#FEC50C"/>
<path d="M16.7612 6.31143C16.844 6.18408 16.7968 6.08398 16.702 6.02069C16.5757 5.9363 15.8582 5.70806 15.8582 5.70806C15.8582 5.70806 16.3437 6.28361 16.47 6.368C16.5647 6.43129 16.6769 6.43773 16.7612 6.31143Z" fill="#FEC50C"/>
<path d="M17.1227 5.87186C17.2287 5.76311 17.2019 5.6557 17.1213 5.57515C17.0139 5.46774 16.3547 5.1039 16.3547 5.1039C16.3547 5.1039 16.7186 5.76311 16.826 5.87051C16.9065 5.95107 17.0153 5.97926 17.1227 5.87186Z" fill="#FEC50C"/>
<path d="M19.1731 10.484C20.5847 10.484 21.729 9.33967 21.729 7.92809C21.729 6.51651 20.5847 5.37219 19.1731 5.37219C17.7615 5.37219 16.6172 6.51651 16.6172 7.92809C16.6172 9.33967 17.7615 10.484 19.1731 10.484Z" fill="#FEC50C"/>
<path d="M19.1757 5.0216C19.3275 5.0197 19.3845 4.92476 19.3845 4.81084C19.3845 4.65895 19.1757 3.93555 19.1757 3.93555C19.1757 3.93555 18.9668 4.65895 18.9668 4.81084C18.9668 4.92476 19.0238 5.0216 19.1757 5.0216Z" fill="#FEC50C"/>
<path d="M19.7415 10.7717C19.5929 10.8032 19.5555 10.9074 19.5778 11.0192C19.6074 11.1681 19.9534 11.8369 19.9534 11.8369C19.9534 11.8369 20.0171 11.0866 19.9874 10.9377C19.9652 10.8259 19.8905 10.7421 19.7415 10.7717Z" fill="#FEC50C"/>
<path d="M19.1759 10.8276C19.024 10.8295 18.9671 10.9245 18.9671 11.0384C18.9671 11.1903 19.1759 11.9137 19.1759 11.9137C19.1759 11.9137 19.3848 11.1903 19.3848 11.0384C19.3848 10.9245 19.3278 10.8276 19.1759 10.8276Z" fill="#FEC50C"/>
<path d="M18.6086 10.772C18.4593 10.7442 18.3849 10.8262 18.3626 10.938C18.333 11.0869 18.3967 11.8372 18.3967 11.8372C18.3967 11.8372 18.7427 11.1684 18.7723 11.0195C18.7945 10.9077 18.7576 10.8016 18.6086 10.772Z" fill="#FEC50C"/>
<path d="M18.0645 10.6064C17.9234 10.55 17.8344 10.6159 17.7908 10.7212C17.7327 10.8615 17.6488 11.6098 17.6488 11.6098C17.6488 11.6098 18.1186 11.0214 18.1768 10.881C18.2204 10.7758 18.2048 10.6645 18.0645 10.6064Z" fill="#FEC50C"/>
<path d="M17.5622 5.51037C17.6874 5.42441 17.6821 5.31382 17.6188 5.2191C17.5344 5.09281 16.9588 4.60735 16.9588 4.60735C16.9588 4.60735 17.1871 5.32487 17.2714 5.45117C17.3347 5.54589 17.4359 5.59476 17.5622 5.51037Z" fill="#FEC50C"/>
<path d="M18.0656 5.24291C18.2052 5.18303 18.2215 5.07352 18.1779 4.96827C18.1198 4.82794 17.65 4.23953 17.65 4.23953C17.65 4.23953 17.7339 4.98779 17.792 5.12813C17.8356 5.23338 17.9253 5.30104 18.0656 5.24291Z" fill="#FEC50C"/>
<path d="M18.6101 5.0768C18.7587 5.04531 18.796 4.94109 18.7738 4.82935C18.7442 4.68038 18.3982 4.01162 18.3982 4.01162C18.3982 4.01162 18.3345 4.76187 18.3641 4.91085C18.3863 5.02258 18.4611 5.10644 18.6101 5.0768Z" fill="#FEC50C"/>
<path fill-rule="evenodd" clip-rule="evenodd" d="M19.087 12.3877L19.0429 12.4759L18.9939 12.5886L18.9645 12.6425L18.94 12.6915L18.9204 12.7307L18.8959 12.7552L18.8371 12.7062L18.7734 12.6621L18.7048 12.6278L18.6313 12.5984L18.5529 12.5788L18.4745 12.5592L18.3961 12.5445L18.3128 12.5347L18.1413 12.52L17.9698 12.5151L17.8032 12.5053L17.6464 12.4857L17.5582 12.471L17.4749 12.4514L17.4308 12.4367L17.3867 12.422L17.3475 12.4024L17.3132 12.3828L17.2593 12.3485L17.2054 12.3093L17.1466 12.2652L17.0927 12.2162L16.98 12.1084L16.8673 12.0006L16.7546 11.8977L16.6517 11.8046L16.6027 11.7703L16.5537 11.736L16.5096 11.7164L16.4655 11.7017L16.3822 11.6821L16.3087 11.6576L16.2352 11.6331L16.1617 11.5988L16.098 11.5694L16.0343 11.5302L15.9755 11.491L15.9216 11.4518L15.8628 11.4077L15.8138 11.3636L15.7648 11.3146L15.7157 11.2656L15.6226 11.1627L15.5344 11.0549L15.358 10.8246L15.1718 10.5894L15.064 10.4767L14.9513 10.364L14.8876 10.3052L14.8239 10.2513L14.7553 10.2022L14.6818 10.1483L14.6671 10.1532L14.6524 10.1679L14.6377 10.1875L14.6279 10.212L14.6132 10.2561L14.6083 10.2757L14.574 10.261L14.5446 10.2463L14.5103 10.2316L14.4809 10.2218H14.4172L14.3829 10.2316L14.3486 10.2463L14.3829 10.2904L14.427 10.3493L14.4711 10.4179L14.5103 10.4914L14.5495 10.5698L14.5789 10.6433L14.5887 10.6825L14.5985 10.7119L14.6034 10.7462V10.7756H14.5495H14.3388L14.378 10.8344L14.4221 10.8932L14.4711 10.952L14.525 11.0059L14.5789 11.0598L14.6328 11.1137L14.6867 11.1578L14.7357 11.1921L14.6818 11.197L14.6083 11.2019L14.5348 11.2117L14.4809 11.2166L14.525 11.2558L14.5789 11.295L14.6377 11.3391L14.7014 11.3832L14.7651 11.4224L14.8288 11.4567L14.8876 11.4763L14.9415 11.491L14.966 11.4959L14.9856 11.5008L15.0003 11.5057L15.0101 11.5155L15.015 11.5204V11.54L15.0101 11.5498L15.0003 11.5792L14.9954 11.6086L14.9905 11.6282V11.6429L14.9954 11.6674L15.0003 11.687L15.0101 11.6968L15.0248 11.7066L15.0444 11.7164L15.0689 11.7213L15.0934 11.7311L15.1179 11.7409L15.1424 11.7507L15.162 11.7654L15.1669 11.7703V11.7801L15.162 11.785L15.1424 11.7997L15.1228 11.8144L15.1032 11.834L15.0836 11.8585V11.8781L15.0787 11.8977L15.0836 11.9222L15.0885 11.9516L15.1718 11.981L15.26 12.0104L15.2992 12.0202L15.3384 12.0349L15.3678 12.0496L15.3923 12.0643L15.2306 12.1917L15.2747 12.2309L15.3286 12.2603L15.3972 12.2946L15.4658 12.3191L15.5442 12.3436L15.6178 12.3583L15.6815 12.373H15.7403L15.6864 12.4122L15.6178 12.4563L15.5442 12.4955L15.4903 12.5347L15.5393 12.569L15.6079 12.6033L15.6864 12.6425L15.7795 12.6866L15.9951 12.7797L16.2303 12.8728L16.4753 12.961L16.7154 13.0394L16.8232 13.0737L16.9212 13.0982L17.0094 13.1227L17.0878 13.1374L16.931 13.1227L16.784 13.1031L16.637 13.0786L16.4998 13.0492L16.3626 13.01L16.2303 12.9708L16.1029 12.9267L15.9804 12.8777L15.7403 12.7797L15.5149 12.6817L15.407 12.6376L15.2992 12.5935L15.1963 12.5543L15.0934 12.5151L15.1179 12.5004L15.1473 12.4906L15.1865 12.4759L15.2306 12.4661L15.3237 12.4367L15.407 12.4073L15.26 12.3828L15.0591 12.3436L14.9611 12.3142L14.8778 12.2897L14.8435 12.275L14.8141 12.2603L14.7896 12.2456L14.7749 12.2309V12.226L14.7798 12.2211L14.7945 12.2162L14.8092 12.2064L14.8484 12.1917L14.9023 12.177L15.0199 12.1427L15.1179 12.1084L14.8778 12.0643L14.6916 12.0349L14.623 12.0202L14.5691 12.0006L14.5495 11.9908L14.5299 11.9761L14.5152 11.9663L14.5054 11.9516L14.5201 11.9418L14.5642 11.932L14.6279 11.9222L14.7014 11.9075L14.7798 11.8977L14.8484 11.8781L14.8827 11.8683L14.9121 11.8585L14.9317 11.8438L14.9513 11.8291L14.9121 11.8144L14.8729 11.7997L14.8239 11.7899L14.7749 11.7801L14.6622 11.7654L14.5495 11.7507L14.4907 11.736L14.4368 11.7262L14.3829 11.7066L14.329 11.687L14.28 11.6625L14.2359 11.6282L14.1967 11.5939L14.1673 11.5498L14.1771 11.5449L14.1967 11.54H14.2212L14.2604 11.5449L14.3486 11.5498L14.4466 11.5547L14.5544 11.5645H14.6916L14.7308 11.5596L14.7602 11.5498L14.7798 11.54L14.6622 11.491L14.5054 11.4224L14.4172 11.3783L14.3241 11.3342L14.231 11.2852L14.1379 11.2362L14.0497 11.1823L13.9664 11.1235L13.888 11.0647L13.8194 11.0059L13.79 10.9716L13.7606 10.9422L13.741 10.9128L13.7214 10.8785L13.7018 10.8491L13.692 10.8148L13.6871 10.7854L13.6822 10.7511H13.7165L13.7557 10.756L13.7949 10.7707L13.8341 10.7854L13.9125 10.8344L14.0007 10.8834L14.0399 10.9079L14.084 10.9324L14.1281 10.952L14.1673 10.9667L14.2114 10.9765L14.2506 10.9814H14.2947L14.3339 10.9667L14.2163 10.8785L14.084 10.7658L13.9321 10.6335L13.7802 10.4865L13.6283 10.3297L13.4862 10.1728L13.4225 10.0895L13.3588 10.0111L13.3049 9.93274L13.2559 9.85924L13.2461 9.83964V9.80534L13.251 9.79064L13.2559 9.77594L13.2706 9.76614L13.2853 9.75144L13.3 9.74164L13.3196 9.73674L13.3392 9.73184H13.3784L13.4029 9.73674L13.4225 9.74164L13.4421 9.75634L13.4568 9.77104L13.545 9.85924L13.6479 9.96214L13.7557 10.0748L13.8733 10.1875L13.9909 10.2904L14.1085 10.3885L14.1673 10.4277L14.2212 10.462L14.28 10.4914L14.3339 10.511L14.2947 10.4865L14.2506 10.4424L14.1918 10.3836L14.1281 10.3101L13.986 10.1385L13.8292 9.93764L13.7508 9.82984L13.6773 9.72204L13.6087 9.61423L13.5401 9.51133L13.4813 9.41333L13.4323 9.32512L13.398 9.24182L13.3686 9.17322L13.3637 9.14872V9.10952L13.3686 9.09482L13.3784 9.08012L13.3882 9.06542L13.398 9.05562L13.4127 9.04581L13.447 9.03601L13.4764 9.02621H13.545L13.5646 9.03111L13.5793 9.03601L13.5989 9.04581L13.6136 9.06052L13.6528 9.09482L13.692 9.14382L13.7802 9.25652L13.8733 9.39863L13.9811 9.55053L14.0938 9.70733L14.1526 9.78084L14.2114 9.85434L14.2751 9.91804L14.3437 9.97684L14.2604 9.81514L14.1673 9.62893L14.1183 9.52603L14.0742 9.42313L14.0301 9.31532L13.9909 9.20752L13.9566 9.09482L13.9223 8.98701L13.8978 8.87921L13.8782 8.7714L13.8684 8.6685L13.8635 8.5705L13.8684 8.5215L13.8733 8.4774L13.8782 8.43329L13.888 8.38919L13.8978 8.37449L13.9027 8.35979L13.9174 8.34509L13.9272 8.33529L13.9615 8.32059L13.9958 8.31079H14.0301L14.0595 8.31569L14.0742 8.32059L14.084 8.32549L14.0889 8.33529L14.0938 8.34999L14.1428 8.5068L14.1869 8.6734L14.231 8.84491L14.2751 9.01151L14.3192 9.17812L14.378 9.33492L14.4074 9.40842L14.4417 9.48193L14.4809 9.55053L14.525 9.61913L14.4956 9.47703L14.476 9.34962L14.4564 9.23202L14.4466 9.12422L14.4368 9.03111L14.4319 8.94781L14.4368 8.87921L14.4417 8.82041L14.4515 8.7714L14.4662 8.7322L14.476 8.7175L14.4858 8.7028L14.4956 8.693L14.5103 8.6832L14.525 8.6783H14.5691L14.6083 8.693L14.6475 8.7126L14.6818 8.8694L14.7161 9.02131L14.7553 9.16341L14.7994 9.30062L14.8484 9.43782L14.9023 9.57503L14.9611 9.71713L15.0297 9.85924L15.0787 9.95234L15.1277 10.0454L15.1816 10.1385L15.2355 10.2316L15.2944 10.3198L15.3532 10.4081L15.4169 10.4963L15.4806 10.5845L15.5982 10.7315L15.7207 10.8687L15.8481 11.0059L15.9804 11.1333L16.1176 11.2607L16.2597 11.3783L16.4067 11.491L16.5586 11.5988L16.6615 11.6674L16.7693 11.7311L16.882 11.7948L16.9898 11.8536L17.1613 11.9369L17.3279 12.0153L17.5043 12.0839L17.6807 12.1476L17.8473 12.2015L18.0188 12.2456L18.1952 12.2848L18.3667 12.3191L18.548 12.3436L18.7245 12.3632L18.9058 12.3779L19.0871 12.3877" fill="#FEC50C"/>
<path fill-rule="evenodd" clip-rule="evenodd" d="M19.5335 13.8776L19.6168 13.8874L19.656 13.9021L19.6658 13.907V13.9119H19.656L19.6462 13.9168L19.5678 13.9315H19.5041L19.2983 13.9168L19.0484 13.9119L18.7788 13.907L18.4995 13.9119L18.3672 13.9168L18.2349 13.9266L18.1173 13.9364L18.0046 13.9462L17.9115 13.9609L17.8282 13.9805L17.7988 13.9903L17.7694 14.0001L17.7449 14.0099L17.7253 14.0246L17.7351 13.9756L17.7547 13.9266L17.7204 13.9364L17.6861 13.9462L17.6567 13.9609L17.6273 13.9756L17.6028 13.9903L17.5832 14.0099L17.5685 14.0344L17.5636 14.0589L17.5489 14.0246L17.5391 13.9952L17.5342 13.9609L17.5293 13.9315L17.5342 13.907L17.5391 13.8776L17.544 13.8531L17.5587 13.8286L17.5685 13.809L17.5881 13.7845L17.6077 13.7649L17.6273 13.7453L17.6812 13.711L17.74 13.6767C17.7718 13.6959 17.8075 13.7099 17.8429 13.7208C17.8736 13.7248 17.9102 13.7199 17.9458 13.711C18.0056 13.7636 18.0856 13.7571 18.1369 13.7012C18.1463 13.691 18.1576 13.6753 18.1614 13.662C18.1695 13.6337 18.168 13.5967 18.1614 13.564L18.2202 13.5591L18.2888 13.5493L18.3623 13.5297L18.4407 13.5101L18.5191 13.4954L18.5926 13.4758L18.6612 13.466L18.72 13.4611L18.6955 13.4807L18.6367 13.5248L18.5681 13.5787L18.5191 13.613L18.5828 13.6277L18.6367 13.6375L18.5975 13.6816L18.5583 13.7257L18.5191 13.7698L18.4897 13.809L18.5289 13.8237L18.5681 13.8335L18.6122 13.8433H18.7004L18.7445 13.8335L18.7886 13.8237L18.8229 13.8041L18.8621 13.8237L18.9013 13.8384L18.9405 13.8482L18.9797 13.858L19.0679 13.8678L19.161 13.8776H19.5335" fill="#FEC50C"/>
<path fill-rule="evenodd" clip-rule="evenodd" d="M18.0281 13.598L18.0427 13.6029L18.0573 13.6077L18.0621 13.6223L18.067 13.6369L18.0621 13.6515L18.0573 13.6661L18.0427 13.6758H18.0087L17.999 13.6661L17.9892 13.6515L17.9844 13.6369L17.9892 13.6223L17.999 13.6077L18.0087 13.6029L18.0281 13.598Z" fill="#FEC50C"/>
<path fill-rule="evenodd" clip-rule="evenodd" d="M18.0246 13.6173L18.0345 13.6223L18.0395 13.6322L18.0345 13.6421L18.0246 13.647L18.0147 13.6421L18.0098 13.6322L18.0147 13.6223L18.0246 13.6173Z" fill="#FEC50C"/>
<path d="M18.027 13.6848C18.0024 13.6848 17.9824 13.6649 17.9824 13.6403C17.9824 13.6156 18.0024 13.5957 18.027 13.5957C18.0516 13.5957 18.0716 13.6156 18.0716 13.6403C18.0716 13.6649 18.0516 13.6848 18.027 13.6848Z" fill="#FEC50C"/>
<path fill-rule="evenodd" clip-rule="evenodd" d="M21.6781 14.1171L21.6438 14.1318L21.6095 14.1367L21.5801 14.1416L21.5556 14.1367L21.5311 14.1318L21.5066 14.122L21.487 14.1122L21.4625 14.0975L21.4233 14.0681L21.3841 14.0387L21.3645 14.024L21.34 14.0142L21.3204 14.0093H21.2959L21.2517 14.1024L21.1929 14.22L21.1733 14.2494L21.1537 14.2739L21.1341 14.2886L21.1145 14.3033L21.09 14.3131H21.0655L21.041 14.3033L21.0116 14.2886L21.0018 14.2739L20.992 14.2592L20.9822 14.2396L20.9724 14.2151L20.9626 14.171L20.9577 14.1416L20.9283 14.1661L20.8989 14.2004L20.8744 14.2396L20.845 14.2837L20.8107 14.3278L20.7764 14.3621L20.7568 14.3817L20.7323 14.3964L20.7078 14.4062L20.6784 14.416H20.6637L20.6392 14.4209L20.6147 14.416L20.5951 14.4062L20.5363 14.3376L20.4726 14.269L20.4285 14.3376L20.3795 14.3964L20.355 14.4209L20.3305 14.4454L20.306 14.465L20.2815 14.4797L20.2619 14.4895L20.2374 14.4944H20.2129L20.1933 14.4895L20.1737 14.4797L20.159 14.465L20.1394 14.4405L20.1296 14.4111L20.1198 14.3817L20.1002 14.3327L20.0953 14.3082L20.0855 14.2886L20.0757 14.2788H20.0659L19.9336 14.4944L19.914 14.514L19.8797 14.5287L19.8405 14.5385L19.8013 14.5483H19.7572L19.7229 14.5385L19.7131 14.5336L19.6984 14.5189L19.6935 14.5091V14.4895L19.7131 14.2739L19.6984 14.2788L19.6788 14.2886L19.6592 14.2984L19.6396 14.318L19.6004 14.3621L19.5563 14.4111L19.5122 14.465L19.4583 14.5091L19.4338 14.5287L19.4093 14.5483L19.3799 14.563L19.3554 14.5679L19.3211 14.5728L19.2966 14.5679L19.2868 14.563L19.277 14.5532L19.2721 14.5385V14.5238L19.277 14.4601L19.2868 14.3964L19.2917 14.3621L19.2868 14.3327L19.2819 14.3033L19.2623 14.269L19.2329 14.3131L19.1839 14.3768L19.1251 14.4405L19.0614 14.5042L19.0271 14.5287L18.9928 14.5532L18.9634 14.563L18.9389 14.5728L18.9291 14.5679H18.9144L18.9046 14.5581L18.8997 14.5532L18.8899 14.5385L18.885 14.5238V14.5042L18.8801 14.4797L18.885 14.2935L18.7625 14.3768L18.6155 14.4699L18.5812 14.4846L18.542 14.5042L18.5077 14.514L18.4685 14.5238L18.4342 14.5336H18.3999L18.3656 14.5287L18.3362 14.5189L18.3509 14.4797L18.3656 14.4454L18.3803 14.4111L18.3999 14.3817L18.4195 14.3523L18.4391 14.3229L18.4636 14.2984L18.4881 14.2739L18.542 14.2347L18.6057 14.1955L18.6694 14.1661L18.7429 14.1416L18.8164 14.122L18.8997 14.1073L18.983 14.0926L19.0663 14.0828L19.2476 14.073L19.4338 14.0681H19.8062L19.8993 14.0632L19.9875 14.0583L20.0757 14.0534L20.159 14.0436L20.2423 14.0289L20.3158 14.0142L20.3893 13.9946L20.4579 13.9652L20.5216 13.9358L20.5755 13.8966L20.6294 13.8574L20.6735 13.8035L20.6245 13.7055L20.6637 13.7006L20.7029 13.6908L20.7421 13.6712L20.7764 13.6467L20.7911 13.6369L20.8058 13.6222L20.8156 13.6026L20.8254 13.5879L20.8303 13.5683V13.534L20.8205 13.5144L20.9038 13.4997L20.992 13.4899L21.0851 13.485H21.1832L21.3841 13.4948L21.5899 13.5095L21.8006 13.534L22.0064 13.5536L22.2073 13.5732L22.3935 13.583V13.6516L22.3886 13.681L22.3788 13.7104L22.369 13.7398L22.3592 13.7643L22.3445 13.7839L22.3249 13.8084L22.2906 13.8427L22.2465 13.8721L22.2024 13.8917L22.1534 13.9015L22.0995 13.9113L22.0456 13.9064L21.9966 13.9015L21.9427 13.8868L21.8937 13.8623L21.8446 13.8378L21.8054 13.8035L21.7662 13.7643V13.8476L21.7515 13.9554L21.7417 14.0093L21.727 14.0583L21.7172 14.0779L21.7025 14.0926L21.6927 14.1073L21.678 14.1171L21.6781 14.1171ZM17.7383 13.6565L17.851 13.7055L17.8804 13.681L17.9196 13.6516L17.9637 13.6271L18.0029 13.6026L18.1499 13.5438L18.2773 13.485L18.341 13.4605L18.3949 13.4311L18.4488 13.4017L18.4929 13.3723L18.6056 13.2988L18.7183 13.2253L18.8261 13.1567L18.9241 13.0881L18.9976 13.0293L19.0564 12.9754L19.1201 12.9166L19.1887 12.8529L19.2132 12.8284L19.2426 12.8088L19.2769 12.7892L19.3161 12.7696L19.3994 12.7304L19.4827 12.701L19.5954 12.6716L19.7179 12.6422L19.8454 12.6177L19.9875 12.5932L20.159 12.5736L20.3305 12.5491L20.5069 12.5295L20.6784 12.5001L20.7372 12.4903L20.7911 12.4756L20.8499 12.4609L20.9087 12.4462L20.9675 12.3727L21.0606 12.2698L21.1243 12.2061L21.1978 12.1473L21.2811 12.0836L21.3791 12.0199L21.5261 11.9317L21.6829 11.8533L21.8446 11.77L22.0014 11.6964L22.1484 11.6229L22.2856 11.5543L22.3983 11.4955L22.4865 11.4367L22.511 11.3632L22.5453 11.2897L22.5894 11.2162L22.6433 11.1427L22.7021 11.0643L22.7756 10.9859L22.854 10.8977L22.952 10.8046L23.0402 10.7262L23.1334 10.6478L23.1824 10.6135L23.2314 10.5792L23.2853 10.5498L23.3392 10.5204L23.3931 10.4959L23.447 10.4763L23.5058 10.4616L23.5597 10.4469L23.6185 10.442L23.6724 10.4371L23.7312 10.442L23.7851 10.4518L23.7802 10.5106L23.7655 10.5694L23.7459 10.6282L23.7214 10.6919L23.6871 10.7556L23.643 10.8193L23.5891 10.8879L23.5254 10.9565L23.5744 10.9516L23.6185 10.9418L23.6528 10.932L23.6871 10.9173L23.7165 10.9075L23.7508 10.8977L23.7949 10.8928L23.8439 10.8879L23.8488 10.9222V10.9565L23.8439 10.9908L23.8341 11.0202L23.8194 11.0496L23.7998 11.079L23.7802 11.1035L23.7557 11.128L23.6528 11.226L23.5499 11.3191L23.6087 11.324L23.6724 11.3436L23.7361 11.3632L23.7851 11.373L23.7263 11.4171L23.6577 11.4612L23.5891 11.5053L23.5107 11.5494L23.4323 11.5935L23.3539 11.6425L23.2755 11.6964L23.202 11.7552L23.2363 11.7601L23.2804 11.7797L23.3 11.7846L23.3196 11.7944L23.3343 11.7993L23.349 11.7944L23.251 11.8483L23.1285 11.9072L23.0697 11.9366L23.0206 11.966L22.9961 11.9807L22.9814 11.9954L22.9716 12.0101L22.9618 12.0248L22.9667 12.0444L22.9765 12.0591L22.9961 12.0738L23.0108 12.0885L23.0059 12.1081L22.9961 12.1228L22.9765 12.1375L22.9569 12.1522L22.9128 12.1767L22.854 12.2012L22.7952 12.2208L22.7413 12.2404L22.7021 12.26L22.6727 12.2747L22.7707 12.3727L22.7364 12.407L22.7021 12.4315L22.6727 12.4462L22.6384 12.4609L22.5698 12.4707H22.4767L22.4865 12.5148L22.5012 12.5589L22.511 12.6079L22.5208 12.6569L22.4375 12.7206L22.3346 12.7941L22.2219 12.8676L22.0945 12.9411L22.021 12.9803L21.9475 13.0146L21.8691 13.044L21.7858 13.0734L21.6976 13.1028L21.6045 13.1224L21.5065 13.142L21.4036 13.1567L21.5849 13.1616H21.7417L21.8887 13.1469L22.021 13.1322L22.1435 13.1077L22.2513 13.0783L22.3591 13.0391L22.462 12.9999L22.5992 12.9362L22.7315 12.8627L22.8589 12.7843L22.9912 12.7059L22.9128 12.6667L22.8344 12.6422L22.7952 12.6275L22.756 12.6079L22.7119 12.5883L22.6678 12.5638L22.707 12.5344L22.7511 12.5148L22.805 12.4952L22.8638 12.4805L22.9814 12.456L23.104 12.4413L23.2118 12.4266L23.3098 12.4168L23.349 12.407L23.3833 12.3972L23.4029 12.3874L23.4176 12.3727L23.4127 12.3678L23.4029 12.358L23.3882 12.3531L23.3686 12.3433L23.3147 12.3335L23.2461 12.3237L23.1775 12.3188L23.1089 12.309L23.05 12.2943L23.0108 12.2796L23.1432 12.2502L23.2755 12.2208L23.3931 12.1963L23.4911 12.1718L23.5744 12.1473L23.6479 12.1179L23.6822 12.1032L23.7067 12.0885L23.7312 12.0738L23.7508 12.0542L23.7459 12.0493L23.7361 12.0395L23.7165 12.0346L23.692 12.0297L23.6283 12.0248H23.5548L23.4764 12.0199L23.4029 12.015L23.3392 12.0052L23.3 11.9954L23.3343 11.9807L23.3686 11.966L23.4862 11.9316L23.5891 11.9022L23.6822 11.8777L23.7704 11.8483L23.8635 11.8189L23.9566 11.7797L24.0007 11.7552L24.0399 11.7307L24.0546 11.716L24.0693 11.6964L24.084 11.6817L24.0889 11.667L24.084 11.6523L24.0693 11.6425L24.0546 11.6376H23.9174L23.8537 11.6425H23.7655L23.741 11.6376L23.7214 11.6278L23.7018 11.618L23.8978 11.4906L24.0791 11.373L24.2408 11.2701L24.3829 11.1721L24.4417 11.1231L24.4956 11.0741L24.5397 11.0251L24.5789 10.9761L24.6083 10.9222L24.6328 10.8683L24.6475 10.8095V10.7458H24.6132L24.5789 10.7507L24.5397 10.7654L24.5005 10.7801L24.4221 10.8291L24.3388 10.8781L24.2947 10.9026L24.2555 10.9271L24.2114 10.9467L24.1673 10.9614L24.1281 10.9712L24.0889 10.9761H24.0448L24.0056 10.9614L24.1232 10.8732L24.2555 10.7605L24.4074 10.6282L24.5593 10.4812L24.7112 10.3244L24.8533 10.1676L24.917 10.0843L24.9807 10.0059L25.0346 9.92749L25.0836 9.85399L25.0934 9.83439L25.0983 9.81969L25.0934 9.80009L25.0885 9.78539L25.0836 9.77069L25.0689 9.76089L25.0542 9.74619L25.0395 9.74129L25.0199 9.73149L25.0003 9.72659H24.9611L24.9415 9.73149L24.917 9.73638L24.9023 9.75109L24.8827 9.76579L24.7945 9.85399L24.6916 9.95689L24.5838 10.0696L24.4662 10.1823L24.3486 10.2852L24.231 10.3832L24.1722 10.4224L24.1183 10.4567L24.0595 10.4861L24.0105 10.5106L24.0448 10.4812L24.0889 10.4371L24.1477 10.3783L24.2114 10.3048L24.3535 10.1333L24.5103 9.9324L24.5887 9.82459L24.6622 9.71679L24.7357 9.61389L24.7994 9.50608L24.8582 9.40808L24.9072 9.31988L24.9464 9.23657L24.9709 9.16797L24.9758 9.14347V9.10427L24.9709 9.08957L24.9611 9.07487L24.9513 9.06017L24.9415 9.05037L24.9268 9.04547L24.8974 9.03077L24.8631 9.02097H24.7945L24.7749 9.02587L24.7602 9.03077L24.7406 9.04057L24.7259 9.05527L24.6867 9.08957L24.6475 9.13857L24.5593 9.25127L24.4662 9.39338L24.3633 9.54528L24.2506 9.70209L24.1869 9.77559L24.1281 9.84909L24.0644 9.91279L23.9958 9.97159L24.084 9.80989L24.1722 9.62368L24.2212 9.52078L24.2653 9.41788L24.3094 9.31007L24.3486 9.20227L24.3829 9.08957L24.4172 8.98176L24.4417 8.87396L24.4613 8.76616L24.4711 8.66325L24.476 8.56525L24.4711 8.51625L24.4662 8.47215L24.4613 8.42805L24.4515 8.38394L24.4466 8.36924L24.4368 8.35454L24.4221 8.33984L24.4123 8.33004L24.378 8.31534L24.3437 8.30554H24.3094L24.28 8.31044L24.2702 8.31534L24.2555 8.32024L24.2506 8.33004L24.2457 8.34474L24.1967 8.50645L24.1526 8.66815L24.1085 8.83966L24.0644 9.00626L24.0203 9.17287L23.9615 9.32967L23.9321 9.40807L23.8978 9.47668L23.8586 9.55018L23.8145 9.61388L23.8439 9.47178L23.8635 9.34437L23.8831 9.22677L23.8929 9.11896L23.9027 9.02586L23.9076 8.94256L23.9027 8.87396L23.8978 8.81515L23.888 8.76615L23.8733 8.72695L23.8635 8.71225L23.8537 8.69755L23.8439 8.68775L23.8292 8.68285L23.8145 8.67795L23.7998 8.67305H23.7851L23.7704 8.67795L23.7312 8.68775L23.692 8.70735L23.6577 8.86415L23.6234 9.01606L23.5842 9.15816L23.5401 9.29537L23.4911 9.43257L23.4372 9.56977L23.3784 9.71188L23.3098 9.85398L23.2608 9.94709L23.2117 10.0402L23.1578 10.1333L23.1039 10.2264L23.0451 10.3146L22.9863 10.4028L22.9226 10.491L22.8589 10.5792L22.7413 10.7262L22.6188 10.8634L22.4914 11.0006L22.3591 11.128L22.2219 11.2554L22.0798 11.373L21.9328 11.4857L21.7809 11.5935L21.678 11.6621L21.5702 11.7307L21.4624 11.7944L21.3546 11.8581L21.1831 11.9365L21.0116 12.0149L20.8352 12.0786L20.6588 12.1423L20.5118 12.1864L20.3648 12.2305L20.2129 12.2648L20.061 12.2991L19.909 12.3236L19.7522 12.3432L19.6003 12.3628L19.4435 12.3726L19.4288 12.3776L19.4141 12.3824L19.3847 12.3972L19.3504 12.4217L19.3014 12.4658L19.2377 12.5246L19.1593 12.603L19.0662 12.7059L18.978 12.8088L18.8751 12.9215L18.8212 12.9754L18.7673 13.0293L18.7036 13.0783L18.6399 13.1273L18.5909 13.1616L18.5419 13.191L18.488 13.2155L18.4341 13.24L18.3165 13.289L18.1989 13.3331L18.0813 13.3772L17.9784 13.4164L17.9343 13.436L17.8902 13.4605L17.851 13.4801L17.8216 13.4997L17.7922 13.5291L17.7677 13.5536L17.753 13.5781L17.7432 13.6026L17.7383 13.6369V13.6565" fill="#FEC50C"/>
<path d="M18.0222 13.6509C18.0121 13.6509 18.0039 13.6427 18.0039 13.6326C18.0039 13.6225 18.0121 13.6144 18.0222 13.6144C18.0322 13.6144 18.0404 13.6225 18.0404 13.6326C18.0404 13.6427 18.0322 13.6509 18.0222 13.6509Z" fill="#FEC50C" stroke="#00AFCA" stroke-width="0.114382"/>
</g>
</g>
<defs>
<filter id="filter0_d" x="0.5" y="0.44873" width="35.97" height="25.7631" filterUnits="userSpaceOnUse" color-interpolation-filters="sRGB">
<feFlood flood-opacity="0" result="BackgroundImageFix"/>
<feColorMatrix in="SourceAlpha" type="matrix" values="0 0 0 0 0 0 0 0 0 0 0 0 0 0 0 0 0 0 127 0"/>
<feOffset dy="4"/>
<feGaussianBlur stdDeviation="2"/>
<feColorMatrix type="matrix" values="0 0 0 0 0 0 0 0 0 0 0 0 0 0 0 0 0 0 0.08 0"/>
<feBlend mode="normal" in2="BackgroundImageFix" result="effect1_dropShadow"/>
<feBlend mode="normal" in="SourceGraphic" in2="effect1_dropShadow" result="shape"/>
</filter>
</defs>
</svg>
