<svg width="26" height="19" viewBox="0 0 26 19" fill="none" xmlns="http://www.w3.org/2000/svg">
<rect width="25.45" height="18.5091" rx="3" fill="url(#paint0_linear)"/>
<path d="M16.3945 8.84401L22.3855 3.71513C22.6643 3.4732 22.6896 3.06192 22.4362 2.79096C22.1828 2.52484 21.752 2.50065 21.4681 2.74258L13.2064 9.8214L11.5946 8.44725C11.5896 8.44241 11.5845 8.43757 11.5845 8.43273C11.549 8.39886 11.5135 8.36983 11.473 8.3408L4.91432 2.73774C4.63048 2.49581 4.19965 2.52 3.94623 2.79096C3.6928 3.06192 3.71814 3.4732 4.00198 3.71513L10.0639 8.88756L4.02732 14.2826C3.75362 14.5293 3.73842 14.9406 3.99691 15.2067C4.13376 15.3422 4.31623 15.4148 4.4987 15.4148C4.66596 15.4148 4.83322 15.3567 4.965 15.2406L11.0929 9.76818L12.7553 11.1859C12.8871 11.2972 13.0493 11.3504 13.2115 11.3504C13.3737 11.3504 13.5409 11.2923 13.6677 11.181L15.3758 9.71979L21.4681 15.2454C21.5999 15.3664 21.7722 15.4245 21.9395 15.4245C22.122 15.4245 22.2994 15.3567 22.4362 15.2212C22.6947 14.96 22.6846 14.5438 22.4109 14.2971L16.3945 8.84401Z" fill="white"/>
<defs>
<linearGradient id="paint0_linear" x1="24.7601" y1="7.21516" x2="0.32363" y2="7.41542" gradientUnits="userSpaceOnUse">
<stop offset="0.4375" stop-color="#12CAD6"/>
<stop offset="1" stop-color="#12B3D6"/>
</linearGradient>
</defs>
</svg>
