<svg width="113" height="74" viewBox="0 0 113 74" fill="none" xmlns="http://www.w3.org/2000/svg">
<path d="M38.1538 80.7052C36.0433 79.4089 33.9328 78.1125 31.7074 77.0524C28.0995 75.3332 24.1773 74.2879 20.1704 73.9339C19.1844 73.8362 18.6792 75.0778 19.4355 75.6479C20.9804 76.7859 22.5578 77.9218 24.1331 79.0252C25.6411 80.1003 27.1796 81.1408 28.8091 82.0773C34.8221 85.5957 41.6502 87.6232 48.5304 88.9616C50.2835 89.3022 52.3833 89.9462 54.1733 89.8599C51.6447 88.1669 48.7193 86.8921 46.0736 85.4028C43.3911 83.8506 40.7735 82.2942 38.1538 80.7052Z" fill="#F9F2F2"/>
<path d="M40.922 77.1583C45.8602 80.2256 51.3057 82.5737 57.1371 83.3614C58.7191 83.5828 60.3249 83.6719 61.9307 83.7611C63.7012 83.8719 65.5042 83.9806 67.2725 84.059C66.4795 83.4261 65.4762 83.0683 64.5336 82.6412C61.5411 81.3382 58.9258 79.3245 56.2584 77.5101C50.8891 73.851 45.0689 70.777 38.9386 68.4419C37.2961 67.8001 35.6579 67.2233 33.9329 66.8156C32.6046 66.4794 29.9045 65.6467 28.537 66.1948C26.6623 66.9724 29.8606 68.9147 30.5171 69.4588C32.0728 70.7593 33.6611 72.0577 35.2775 73.2889C37.1322 74.6676 38.9805 75.9487 40.922 77.1583Z" fill="#F9F2F2"/>
<path d="M14.1848 58.0725C12.1812 52.9816 10.9752 47.6092 10.1549 42.1458C11.8316 45.2667 13.478 48.4223 15.4387 51.3938C16.6389 53.2404 17.9648 55.0133 19.1347 56.8945C20.376 58.869 21.3985 60.9886 22.2606 63.1515C22.8086 64.5191 23.2634 65.9581 23.4278 67.4491C23.5641 68.5175 23.7219 70.8905 22.7942 71.6705C20.7639 70.1076 19.1543 67.5046 17.835 65.3394C16.3791 63.0854 15.1703 60.619 14.1848 58.0725Z" fill="#F9F2F2"/>
<path d="M21.3924 42.7041C21.3154 37.6158 22.0163 32.4431 23.9828 27.6433C24.1816 30.634 24.3479 33.6267 24.5467 36.6174C24.7001 38.9253 24.821 41.2355 25.2323 43.4937C25.596 45.5265 26.1829 47.4791 26.707 49.4686C27.3588 51.9067 27.976 54.3145 28.4999 56.7937C29.0066 59.0129 29.4526 61.3015 29.411 63.6224C29.3935 64.3419 29.5361 66.4873 28.9184 67.0181C27.9647 67.8978 27.3171 66.0145 27.016 65.4141C24.7306 60.995 23.1083 56.2379 22.1926 51.3033C21.7099 48.4621 21.4222 45.608 21.3924 42.7041Z" fill="#F9F2F2"/>
<path d="M32.5087 48.854C31.9332 44.1253 31.4833 39.3229 31.9177 34.5597C32.4302 29.0077 34.1302 23.638 35.7977 18.2705C36.0365 27.2661 38.3493 36.0259 39.3358 44.9719C39.6689 48.0188 39.8417 51.1092 39.2603 54.1516C38.9458 55.8051 38.3994 57.4086 37.6536 58.9601C36.9338 60.4119 36.0646 61.5798 35.0573 59.6877C33.3741 56.4693 32.9739 52.4146 32.5087 48.854Z" fill="#F9F2F2"/>
<path d="M71.1628 73.3532C64.8724 69.5921 58.5171 65.8353 51.559 63.3267C48.7832 62.3358 45.9553 61.5443 43.0949 60.7549C40.7329 60.0957 38.2733 59.4429 35.8526 59.865C37.8026 61.6944 40.2339 62.9041 42.5741 64.2178C47.5969 67.0837 52.1752 70.6321 57.456 72.9584C60.1798 74.1486 63.1095 74.9987 66.0805 75.4868C68.8197 75.9251 72.4473 76.4676 75.1758 75.7638C74.0057 74.8621 72.4889 74.1466 71.1628 73.3532Z" fill="#F9F2F2"/>
<path d="M65.9006 62.9267C68.3754 63.3172 70.874 63.5756 73.3704 63.8015C77.477 64.1815 81.5771 64.464 85.7053 64.6793C85.9675 64.6946 86.0738 64.3283 85.8051 64.2156C83.3001 63.3699 80.9881 61.9891 78.6522 60.7404C70.6001 56.5087 61.5551 54.0408 52.3148 53.5449C50.1845 53.4253 48.0305 53.4379 45.9391 53.9034C45.0051 54.0961 43.876 54.3018 44.7492 55.158C45.4122 55.7995 46.6516 56.2722 47.4642 56.708C51.1197 58.6525 55.0115 60.2222 59.0074 61.3932C61.2697 62.0265 63.5581 62.56 65.9006 62.9267Z" fill="#F9F2F2"/>
<path d="M46.7175 33.2183C48.9228 26.1171 51.9234 19.1917 53.6324 11.9929C54.3854 17.9179 54.0376 23.9814 53.3256 29.9711C52.4031 37.7052 50.8001 45.5173 47.0822 52.4577C46.5598 53.4393 45.1333 56.0482 44.4988 53.8702C44.07 52.3315 44.0487 50.5371 44.0403 48.9378C43.9803 45.5788 44.4404 42.1852 45.1995 38.8697C45.6311 37.0126 46.158 35.1165 46.7175 33.2183Z" fill="#F9F2F2"/>
<path d="M55.4462 32.4085C57.0406 23.9766 58.6611 15.4451 62.0497 7.48172C62.2897 10.6002 62.5275 13.6862 62.7349 16.8068C62.8992 18.7876 63.0332 20.803 63.035 22.7946C63.0361 28.2145 61.9624 33.6731 59.8853 38.7741C58.849 41.3571 57.5439 43.8273 56.0026 46.1826C55.439 47.0363 54.6131 48.3646 53.8961 46.9104C53.3654 45.8029 53.7623 43.9154 53.847 42.7344C54.1728 39.2844 54.7932 35.8475 55.4462 32.4085Z" fill="#F9F2F2"/>
<path d="M71.3887 2.55188C71.2941 9.96981 71.1995 17.3877 70.0885 24.7426C69.5178 28.4374 68.685 32.117 67.2172 35.5775C66.4865 37.3566 65.5544 39.0511 64.451 40.6263C64.2126 40.9687 63.3346 42.4963 62.7647 42.273C62.327 42.0735 62.7868 40.1492 62.8215 39.6898C63.7224 31.6306 65.0156 23.5779 67.104 15.701C68.3076 11.2131 69.7149 6.8424 71.3887 2.55188Z" fill="#F9F2F2"/>
<path d="M85.6895 5.02856C84.1561 11.432 82.5902 17.8376 80.1922 24.0047C78.9933 27.0883 77.5299 30.1241 75.6202 32.8304C74.6339 34.202 73.5132 35.5172 72.2518 36.6785C72.0068 36.9233 70.9426 38.1042 70.4962 37.7747C70.1517 37.5038 70.93 35.9501 71.0666 35.5492C73.4213 28.732 76.1098 22.0232 79.4375 15.5984C81.3171 11.9472 83.4004 8.41312 85.6895 5.02856Z" fill="#F9F2F2"/>
<path d="M57.6121 49.7336C58.9014 50.4642 60.2253 51.2251 61.5146 51.9556C62.975 52.8054 64.4659 53.6205 65.9848 54.3684C73.4693 57.9196 82.0378 58.6233 90.3962 59.1125C87.5859 57.1118 84.3051 55.8932 81.174 54.4689C76.9008 52.5653 72.8315 50.2891 68.4434 48.6218C65.5289 47.5095 62.4366 46.6703 59.2857 46.4226C58.2347 46.3292 55.8878 45.8975 55.1421 46.9592C54.2794 48.2247 56.7627 49.235 57.6121 49.7336Z" fill="#F9F2F2"/>
<path d="M64.2999 43.2809C75.1081 49.6802 87.4251 53.7264 100.146 55.0031C95.6234 52.2998 90.8324 49.9736 85.9612 47.9139C81.2243 45.9107 76.4051 44.1414 71.3646 42.9745C69.54 42.5408 67.6547 42.1763 65.7759 41.9094C65.3143 41.8421 63.4854 41.3434 63.182 41.69C62.6336 42.2815 63.8925 43.0468 64.2999 43.2809Z" fill="#F9F2F2"/>
<path d="M72.2158 38.5752C82.7864 40.909 93.9859 40.9155 104.707 38.6356C100.267 37.6574 95.7204 37.0454 91.1891 36.661C86.7899 36.3004 82.3388 36.1392 77.9222 36.4981C76.299 36.6386 74.6801 36.8442 73.0656 37.1148C72.6777 37.1732 71.0502 37.2487 70.8767 37.5868C70.5906 38.1935 71.8171 38.4711 72.2158 38.5752Z" fill="#F9F2F2"/>
<path d="M82.543 31.3584C79.7516 32.5888 77.1118 34.1356 74.4308 35.5545C71.6263 37.0796 68.8521 38.57 66.0801 40.093C60.5687 43.1367 55.159 46.2389 50.0461 49.8765C40.1932 56.8656 30.4204 64.078 21.068 71.7195C15.6494 76.161 10.4453 80.8821 5.52072 85.8785C4.90948 86.5068 5.84767 87.3587 6.46107 86.7628C15.1289 78.1546 24.6742 70.4676 34.4384 63.1252C44.1722 55.8175 53.8735 48.5119 64.5475 42.5783C67.5384 40.9102 70.5293 39.2422 73.5202 37.5741C76.6369 35.8323 79.89 34.1795 82.8571 32.1538C83.3296 31.8938 83.0502 31.1288 82.543 31.3584Z" fill="#F9F2F2"/>
<path d="M108.618 26.2625C104.027 24.9678 99.0204 25.7904 94.3826 27.2414C92.2392 27.9063 90.1716 28.7294 88.0672 29.4896C87.0161 29.886 85.965 30.2824 84.9117 30.6463C83.9213 30.9733 82.6622 31.1876 81.7823 31.7032C82.1418 32.6915 85.8151 32.4473 86.7642 32.4821C88.5954 32.5237 90.418 32.4352 92.2297 32.1841C95.9204 31.7103 99.6089 30.7141 103.038 29.2455C104.975 28.431 106.835 27.4258 108.618 26.2625Z" fill="#F9F2F2"/>
<path d="M96.7949 9.0238C96.3909 13.7523 93.8069 18.1033 90.7614 21.8973C89.3742 23.6221 87.8526 25.2904 86.3634 26.9566C85.6351 27.7887 84.8743 28.6228 84.1482 29.4874C83.4828 30.2826 82.8389 31.4028 82.0305 32.0116C81.2331 31.3137 82.7767 28.0113 83.1085 27.1077C83.7134 25.4023 84.4852 23.7512 85.3242 22.1282C87.0975 18.8432 89.3453 15.8205 92.007 13.1295C93.4744 11.628 95.0805 10.2479 96.7949 9.0238Z" fill="#F9F2F2"/>
</svg>
