<svg width="26" height="26" viewBox="0 0 26 26" fill="none" xmlns="http://www.w3.org/2000/svg">
<path fill-rule="evenodd" clip-rule="evenodd" d="M19.3569 16.9433L22.9552 17.3542C24.386 17.5242 25.4627 18.7283 25.4485 20.1592V22.61C25.4485 24.2108 24.1169 25.5425 22.516 25.4433C10.4319 24.6925 0.756037 15.0308 0.00520409 2.9325C-0.0939626 1.33167 1.2377 0 2.83854 0H5.28937C6.73437 0 7.93854 1.07667 8.10854 2.5075L8.51937 6.0775C8.61854 6.94167 8.32104 7.79167 7.71187 8.40083L5.09104 11.0217C7.13104 15.045 10.4177 18.3175 14.4269 20.3575L17.0335 17.7508C17.6427 17.1417 18.4927 16.8442 19.3569 16.9433ZM13.9594 2.89001C18.4644 3.45668 21.9919 6.98418 22.5586 11.4892C22.6436 12.2117 23.2527 12.7358 23.9611 12.7358C24.0177 12.7358 24.0744 12.7358 24.1311 12.7217C24.9102 12.6225 25.4627 11.9142 25.3636 11.135C24.6411 5.34085 20.0936 0.793347 14.2994 0.0708474C13.5202 -0.0141527 12.8119 0.538347 12.7269 1.31751C12.6277 2.09668 13.1802 2.80501 13.9594 2.89001ZM14.4978 5.87919C13.7469 5.68085 12.9678 6.13419 12.7694 6.89919C12.5711 7.66419 13.0244 8.42919 13.7894 8.62752C15.2769 9.01002 16.4386 10.1717 16.8353 11.6734C17.0053 12.3109 17.5719 12.7359 18.2094 12.7359C18.3228 12.7359 18.4503 12.7217 18.5636 12.6934C19.3144 12.495 19.7678 11.7159 19.5836 10.965C18.9178 8.45752 16.9769 6.51669 14.4978 5.87919Z" fill="url(#paint0_linear)"/>
<defs>
<linearGradient id="paint0_linear" x1="24.7588" y1="9.92028" x2="0.32284" y2="10.0659" gradientUnits="userSpaceOnUse">
<stop offset="0.4375" stop-color="#12CAD6"/>
<stop offset="1" stop-color="#12B3D6"/>
</linearGradient>
</defs>
</svg>
