<svg width="80" height="80" viewBox="0 0 80 80" fill="none" xmlns="http://www.w3.org/2000/svg">
<g filter="url(#filter0_d)">
<path fill-rule="evenodd" clip-rule="evenodd" d="M36 16C47.0457 16 56 24.9543 56 36C56 47.0457 47.0457 56 36 56C24.9543 56 16 47.0457 16 36C16 24.9543 24.9543 16 36 16Z" fill="#7F4DA0"/>
<path fill-rule="evenodd" clip-rule="evenodd" d="M41.3287 33.4654C41.2314 32.6751 40.9886 32.0546 40.5572 31.505C39.9971 30.7973 39.2813 30.3735 38.2216 30.1221C37.5309 29.9545 37.2519 29.9737 37.0021 30.2019C36.7695 30.4157 36.724 30.8442 36.9018 31.1217C37.0269 31.3231 37.1711 31.3953 37.5723 31.474C38.1066 31.5723 38.4758 31.6999 38.8117 31.8919C39.5245 32.3036 39.8565 32.9477 39.892 33.9905C39.9086 34.4801 39.9509 34.6306 40.122 34.8043C40.4389 35.1217 41.003 35.06 41.2423 34.6801C41.3301 34.5369 41.3435 34.4746 41.3527 34.1421C41.3589 33.9363 41.35 33.6299 41.3287 33.4654Z" fill="white"/>
<path fill-rule="evenodd" clip-rule="evenodd" d="M44.1185 34.3565C43.9777 31.9353 43.0307 29.9874 41.3359 28.6169C40.381 27.8468 39.2267 27.3173 37.9615 27.0597C37.498 26.9676 36.6447 26.893 36.4983 26.9357C36.3602 26.9752 36.1648 27.1248 36.0777 27.2601C35.9856 27.4067 35.9649 27.7343 36.0434 27.9237C36.1702 28.2404 36.4061 28.3523 37.0667 28.4101C38.0852 28.4992 39.1356 28.857 39.9293 29.3867C40.8354 29.9898 41.5556 30.8147 42.0216 31.784C42.4242 32.6169 42.6719 33.8172 42.665 34.892C42.6627 35.2807 42.7227 35.5002 42.8791 35.6608C43.115 35.9075 43.459 35.9615 43.7626 35.7976C44.099 35.6207 44.1777 35.3101 44.1185 34.3565Z" fill="white"/>
<path fill-rule="evenodd" clip-rule="evenodd" d="M47.2104 43.6804C47.1631 43.542 47.0526 43.3285 46.9736 43.2059C46.4762 42.4549 43.804 40.3636 42.4698 39.6797C41.708 39.2883 41.1435 39.1579 40.7251 39.2804C40.2751 39.407 40.0383 39.6164 39.2844 40.5533C38.9805 40.9289 38.6686 41.2808 38.5857 41.3361C38.3805 41.4784 37.9778 41.5931 37.6936 41.5931C37.0345 41.5891 35.8384 41.1621 34.9187 40.6008C34.2043 40.166 33.2886 39.3872 32.5859 38.6163C31.757 37.711 31.1926 36.9125 30.7465 36.0111C30.1702 34.8528 30.0242 34.1452 30.2649 33.6273C30.3241 33.4968 30.4031 33.3585 30.4386 33.315C30.4741 33.2755 30.8452 32.9711 31.2557 32.639C32.0609 31.9986 32.1912 31.8523 32.3412 31.4135C32.5306 30.8561 32.4794 30.2868 32.1873 29.7136C31.9622 29.2788 31.3741 28.33 30.9478 27.7173C30.3834 26.9108 28.9781 25.1872 28.6978 24.9539C28.1926 24.5428 27.5453 24.4716 26.8308 24.7484C26.0769 25.041 24.6638 26.1795 24.0598 26.9741C23.5151 27.6936 23.306 28.2035 23.2744 28.8755C23.2468 29.429 23.2941 29.6583 23.5862 30.3659C25.8717 35.9162 29.282 40.3478 33.9675 43.8662C36.4147 45.7044 38.9528 47.1038 41.5856 48.0606C43.1211 48.6179 43.7882 48.6456 44.5737 48.1871C44.9052 47.9894 45.7263 47.1473 46.1841 46.5346C46.942 45.5146 47.2223 45.0442 47.3012 44.6687C47.3565 44.4117 47.3131 43.965 47.2104 43.6804Z" fill="white"/>
<path fill-rule="evenodd" clip-rule="evenodd" d="M46.9622 34.9126C46.9117 33.5431 46.6811 32.4197 46.2003 31.1673C45.7256 29.9353 45.2452 29.1314 44.3379 28.044C43.4801 27.0245 42.8138 26.4424 41.7571 25.7944C40.2828 24.8916 38.4887 24.2941 36.478 24.0428C35.7923 23.955 35.6372 23.9613 35.4268 24.1017C35.0192 24.3676 35.0246 25.0308 35.4335 25.2927C35.5689 25.376 35.689 25.4064 36.2375 25.4782C37.0795 25.5915 37.6209 25.6984 38.2633 25.8736C40.7825 26.5623 42.7198 27.9699 44.0149 30.0595C45.0988 31.8011 45.5487 33.5429 45.4848 35.7675C45.4626 36.5195 45.4787 36.6519 45.5937 36.8326C45.8139 37.1694 46.3944 37.236 46.6923 36.9565C46.8776 36.7862 46.9125 36.6583 46.949 36.0146C46.9665 35.6789 46.9703 35.1832 46.9622 34.9126Z" fill="white"/>
</g>
<defs>
<filter id="filter0_d" x="0" y="0" width="80" height="80" filterUnits="userSpaceOnUse" color-interpolation-filters="sRGB">
<feFlood flood-opacity="0" result="BackgroundImageFix"/>
<feColorMatrix in="SourceAlpha" type="matrix" values="0 0 0 0 0 0 0 0 0 0 0 0 0 0 0 0 0 0 127 0"/>
<feOffset dx="4" dy="4"/>
<feGaussianBlur stdDeviation="10"/>
<feColorMatrix type="matrix" values="0 0 0 0 0 0 0 0 0 0 0 0 0 0 0 0 0 0 0.21 0"/>
<feBlend mode="normal" in2="BackgroundImageFix" result="effect1_dropShadow"/>
<feBlend mode="normal" in="SourceGraphic" in2="effect1_dropShadow" result="shape"/>
</filter>
</defs>
</svg>
