<svg width="80" height="80" viewBox="0 0 80 80" fill="none" xmlns="http://www.w3.org/2000/svg">
<g filter="url(#filter0_d)">
<path fill-rule="evenodd" clip-rule="evenodd" d="M36 56C47.0457 56 56 47.0457 56 36C56 24.9543 47.0457 16 36 16C24.9543 16 16 24.9543 16 36C16 47.0457 24.9543 56 36 56Z" fill="#25D366"/>
<path fill-rule="evenodd" clip-rule="evenodd" d="M36.6566 47.1271H36.6517C34.6613 47.1265 32.7056 46.6271 30.9685 45.6796L24.6641 47.3334L26.3512 41.1707C25.3105 39.3671 24.7629 37.3213 24.7638 35.2252C24.7664 28.6681 30.1014 23.3334 36.6565 23.3334C39.8379 23.3347 42.8239 24.5733 45.0692 26.8212C47.3146 29.0691 48.5504 32.057 48.5492 35.2346C48.5466 41.7903 43.2136 47.1245 36.6566 47.1271ZM31.2599 43.5267L31.6208 43.7409C33.1385 44.6415 34.8781 45.1181 36.6519 45.1188H36.6559C42.104 45.1188 46.5382 40.6844 46.5404 35.234C46.5414 32.5928 45.5143 30.1094 43.648 28.241C41.7818 26.3726 39.3 25.3431 36.6598 25.3422C31.2074 25.3422 26.7731 29.7761 26.771 35.226C26.7702 37.0938 27.2928 38.9127 28.2823 40.4865L28.5173 40.8605L27.5187 44.5081L31.2599 43.5267ZM42.6491 38.0628C42.5748 37.9389 42.3767 37.8645 42.0796 37.7157C41.7824 37.567 40.3215 36.8482 40.049 36.7489C39.7767 36.6498 39.5785 36.6003 39.3805 36.8976C39.1824 37.1951 38.6129 37.8645 38.4396 38.0628C38.2662 38.2611 38.0929 38.286 37.7958 38.1372C37.4987 37.9884 36.5412 37.6747 35.4061 36.6623C34.5227 35.8743 33.9264 34.9012 33.753 34.6037C33.5797 34.3062 33.7345 34.1455 33.8833 33.9973C34.017 33.8641 34.1805 33.6501 34.329 33.4767C34.4776 33.3032 34.5271 33.1792 34.6262 32.981C34.7252 32.7826 34.6757 32.6091 34.6014 32.4604C34.5271 32.3116 33.9329 30.849 33.6852 30.254C33.444 29.6745 33.199 29.753 33.0166 29.7439C32.8435 29.7352 32.6452 29.7333 32.4471 29.7333C32.249 29.7333 31.9271 29.8077 31.6547 30.1052C31.3823 30.4027 30.6147 31.1216 30.6147 32.5842C30.6147 34.0468 31.6795 35.4599 31.828 35.6582C31.9766 35.8566 33.9234 38.8579 36.9043 40.1451C37.6133 40.4513 38.1668 40.6341 38.5984 40.7711C39.3102 40.9973 39.9581 40.9654 40.47 40.8888C41.041 40.8035 42.2281 40.17 42.4758 39.4759C42.7233 38.7817 42.7233 38.1867 42.6491 38.0628Z" fill="#FDFDFD"/>
</g>
<defs>
<filter id="filter0_d" x="0" y="0" width="80" height="80" filterUnits="userSpaceOnUse" color-interpolation-filters="sRGB">
<feFlood flood-opacity="0" result="BackgroundImageFix"/>
<feColorMatrix in="SourceAlpha" type="matrix" values="0 0 0 0 0 0 0 0 0 0 0 0 0 0 0 0 0 0 127 0"/>
<feOffset dx="4" dy="4"/>
<feGaussianBlur stdDeviation="10"/>
<feColorMatrix type="matrix" values="0 0 0 0 0 0 0 0 0 0 0 0 0 0 0 0 0 0 0.21 0"/>
<feBlend mode="normal" in2="BackgroundImageFix" result="effect1_dropShadow"/>
<feBlend mode="normal" in="SourceGraphic" in2="effect1_dropShadow" result="shape"/>
</filter>
</defs>
</svg>
