<svg width="49" height="63" viewBox="0 0 49 63" fill="none" xmlns="http://www.w3.org/2000/svg">
<g opacity="0.6">
<path d="M38.0198 45.0363H10.8853C9.01209 45.0363 7.49353 46.5665 7.49353 48.4542C7.49353 50.3418 9.01209 51.872 10.8853 51.872H38.0198C39.8931 51.872 41.4116 50.3418 41.4116 48.4542C41.4116 46.5665 39.8931 45.0363 38.0198 45.0363Z" fill="#71DFE6"/>
<path d="M43.1415 17.6938C44.0912 17.6938 44.8035 18.2406 44.8035 18.7191V57.6823C44.8035 58.1608 44.0912 58.7077 43.1415 58.7077H4.10177V17.6938H43.1415ZM43.1415 14.2759H0.709961V62.1255H43.1415C44.3939 62.2009 45.6255 61.7774 46.5709 60.9462C47.5163 60.1151 48.0997 58.9429 48.1953 57.6823V18.7191C48.0997 17.4586 47.5163 16.2863 46.5709 15.4552C45.6255 14.6241 44.3939 14.2005 43.1415 14.2759Z" fill="#71DFE6"/>
<path d="M38.0199 5.35539V14.2759H11.4281L38.0199 5.35539ZM41.4117 0.604614L0.709961 14.2759V17.6937H41.4117V0.604614Z" fill="#71DFE6"/>
<path d="M23.9518 37.6768C20.2813 37.6768 17.3084 34.7156 17.3084 31.0611C17.3084 27.4105 20.2813 24.447 23.9518 24.447C25.781 24.447 27.4375 25.1836 28.6355 26.3768C27.1491 24.2578 24.684 22.8729 21.8959 22.8729C17.3552 22.8729 13.6723 26.5387 13.6723 31.0611C13.6723 35.5866 17.3552 39.2506 21.8959 39.2506C24.684 39.2506 27.1491 37.8637 28.6355 35.7487C27.4375 36.9372 25.781 37.6768 23.9518 37.6768Z" fill="#71DFE6"/>
<path d="M31.9116 27.5508L33.4449 29.7548L36.0259 28.9819L34.394 31.1179L35.9273 33.3258L33.3858 32.4368L31.7539 34.5726L31.813 31.8891L29.2715 30.9999L31.8525 30.2344L31.9116 27.5508Z" fill="#71DFE6"/>
</g>
</svg>
