<svg width="43" height="45" viewBox="0 0 43 45" fill="none" xmlns="http://www.w3.org/2000/svg">
<path d="M30.7573 19.9385C37.4947 19.9385 42.9766 15.0436 42.9766 9.02596V1.47447C42.9766 0.810854 42.3717 0.271362 41.6294 0.271362H33.1737C28.1406 0.271362 23.554 3.10542 21.7588 7.32427L21.5786 7.74727L21.3985 7.32427C19.6033 3.10542 15.0159 0.271362 9.9836 0.271362H1.52784C0.784758 0.271362 0.180664 0.811547 0.180664 1.47447V9.02596C0.180664 15.0429 5.66177 19.9385 12.4 19.9385H20.2315V22.7677L20.0567 22.7823C15.5097 23.1602 11.3152 25.2336 8.55024 28.4712L8.492 28.5385H3.50939C3.11184 28.5385 2.7368 28.6945 2.47979 28.9656C2.22278 29.2375 2.11407 29.5939 2.18163 29.9441L4.69118 43.0909C4.80221 43.6713 5.3605 44.0922 6.01894 44.0922H37.1375C37.796 44.0922 38.355 43.6713 38.4661 43.0909L40.9756 29.9441C41.0424 29.5939 40.9337 29.2375 40.6775 28.9656C40.4205 28.6945 40.0454 28.5385 39.6479 28.5385H34.666L34.6078 28.4712C31.8405 25.2336 27.6467 23.1595 23.1013 22.7823L22.9266 22.7677V19.9385H30.7573ZM23.6487 11.1839C23.6487 6.49423 27.9216 2.67827 33.1729 2.67827H40.2815V9.02665C40.2815 13.7163 36.0085 17.5323 30.7573 17.5323H25.5542L34.1256 9.87749C34.3803 9.65005 34.5201 9.34771 34.5201 9.02665C34.5201 8.70559 34.3795 8.40326 34.1256 8.17581C33.617 7.72092 32.7287 7.72092 32.2201 8.17581L23.6487 15.8306V11.1839ZM19.5078 15.8306L10.9363 8.17581C10.4277 7.72092 9.53946 7.72092 9.03087 8.17581C8.77619 8.40326 8.63643 8.70559 8.63643 9.02665C8.63643 9.34771 8.77697 9.65005 9.03087 9.87749L17.6023 17.5323H12.3992C7.14793 17.5323 2.87502 13.7163 2.87502 9.02665V2.67827H9.98283C15.2341 2.67827 19.507 6.49423 19.507 11.1839V15.8306H19.5078ZM38.0507 30.9454L36 41.6853H7.15647L5.10581 30.9454H38.0507ZM30.7161 28.2389L31.0912 28.5385H12.0653L12.4404 28.2389C14.9569 26.2266 18.2025 25.1185 21.5786 25.1185C24.9539 25.1185 28.1996 26.2266 30.7161 28.2389Z" fill="url(#paint0_linear)"/>
<defs>
<linearGradient id="paint0_linear" x1="41.8164" y1="17.3535" x2="0.723503" y2="17.5927" gradientUnits="userSpaceOnUse">
<stop offset="0.4375" stop-color="#12CAD6"/>
<stop offset="1" stop-color="#12B3D6"/>
</linearGradient>
</defs>
</svg>
