<svg width="52" height="51" viewBox="0 0 52 51" fill="none" xmlns="http://www.w3.org/2000/svg">
<g opacity="0.6">
<path d="M26.0214 0.856201C40.1554 0.856201 51.6571 11.8522 51.7715 25.31C51.8288 31.8748 49.1965 38.1114 44.3326 42.7614C39.5259 47.4662 33.0597 50.0374 26.193 50.0921H26.0214C11.8874 50.0921 0.385628 39.0961 0.271183 25.6383C0.156738 12.071 11.6585 0.965614 26.0214 0.856201ZM26.0214 46.755H26.193C32.1442 46.7003 37.6948 44.4573 41.9293 40.409C46.0493 36.4155 48.3382 31.0542 48.281 25.3647C48.2237 13.7122 38.2098 4.1933 25.8497 4.1933C13.5468 4.24801 3.64732 13.8764 3.70454 25.6383C3.81898 37.2908 13.8329 46.755 26.0214 46.755Z" fill="url(#paint0_linear)"/>
<path d="M9.13958 20.3865C9.4257 19.4017 10.3985 18.6906 11.4857 18.6906H20.6413L23.8458 10.977C24.1892 10.1016 25.1047 9.49988 26.0775 9.49988C27.0503 9.49988 27.9658 10.0469 28.3092 10.977L31.5137 18.6906H40.6693C41.7565 18.6906 42.6721 19.347 43.0154 20.3865C43.3015 21.3712 42.901 22.4106 41.9854 22.9577L34.0887 27.6624L37.522 37.4549C37.7509 38.166 37.6365 38.9319 37.1787 39.5337C36.7209 40.1355 35.977 40.5184 35.2331 40.5184C34.6609 40.5184 34.0887 40.2996 33.6309 39.9166L26.0203 33.5707L18.2952 39.9714C17.8374 40.3543 17.2652 40.5184 16.693 40.5184C15.8919 40.5184 15.148 40.1355 14.6902 39.5337C14.2324 38.9319 14.118 38.166 14.4041 37.4549L18.0091 27.6624L10.1124 22.9577C9.25403 22.4106 8.79625 21.3712 9.13958 20.3865ZM20.4125 25.3647C21.3852 25.9665 21.7858 27.0606 21.3852 28.1001L18.6958 35.4307L24.418 30.6713C24.8758 30.2883 25.4481 30.1242 26.0203 30.1242C26.5925 30.1242 27.1647 30.343 27.6225 30.726L33.1731 35.4854L30.5981 28.0454C30.2548 27.0059 30.6553 25.9118 31.6281 25.3647L37.4648 21.8635H30.827C29.8542 21.8635 28.9386 21.3165 28.5953 20.3865L26.0203 14.2046L23.4453 20.4412C23.1019 21.3165 22.1864 21.9182 21.2136 21.9182H14.5757L20.4125 25.3647Z" fill="url(#paint1_linear)"/>
</g>
<defs>
<linearGradient id="paint0_linear" x1="1.66654" y1="20.0492" x2="51.1189" y2="20.3575" gradientUnits="userSpaceOnUse">
<stop offset="0.4375" stop-color="#12CAD6"/>
<stop offset="1" stop-color="#12B3D6"/>
</linearGradient>
<linearGradient id="paint1_linear" x1="9.94886" y1="21.5914" x2="42.6738" y2="21.8057" gradientUnits="userSpaceOnUse">
<stop offset="0.4375" stop-color="#12CAD6"/>
<stop offset="1" stop-color="#12B3D6"/>
</linearGradient>
</defs>
</svg>
