<svg width="75" height="61" viewBox="0 0 75 61" fill="none" xmlns="http://www.w3.org/2000/svg">
<g opacity="0.6">
<path d="M4.62904 58.6921H18.7043C20.837 58.6921 22.5718 57.1428 22.5718 55.2375V55.2184L36.0422 59.2022C38.0532 59.7975 40.1259 60.0925 42.1927 60.0925C45.0716 60.0925 47.9381 59.5193 50.609 58.3817L71.6738 49.1802C72.9797 48.61 73.9585 47.6199 74.4302 46.3912C74.9019 45.1626 74.8091 43.8452 74.1697 42.6782C72.8523 40.2775 69.593 39.2742 66.8982 40.4485L54.8635 45.6925C54.2702 43.4973 52.0578 41.8599 49.4206 41.8599H41.0019L38.0269 40.4426C35.2032 39.098 32.0211 38.3876 28.8234 38.3876H22.5718V38.3032C22.5718 36.3986 20.837 34.8485 18.7043 34.8485H4.62904C2.4956 34.8492 0.760742 36.3986 0.760742 38.3032V55.2375C0.760742 57.1428 2.4956 58.6921 4.62904 58.6921ZM28.8234 41.3234C31.4836 41.3234 34.1315 41.9149 36.4795 43.0327L39.8201 44.6239C39.8399 44.6334 39.8604 44.6364 39.881 44.6445C39.9533 44.676 40.0289 44.7002 40.107 44.7223C40.1505 44.7347 40.1932 44.7494 40.2376 44.7582C40.3149 44.7736 40.3946 44.7788 40.476 44.7839C40.5146 44.7861 40.554 44.7964 40.5927 44.7964C40.5984 44.7964 40.6042 44.7942 40.6107 44.7942H49.4206C50.6986 44.7942 51.7382 45.7226 51.7382 46.8698C51.7382 48.0111 50.6977 48.9395 49.4206 48.9395H37.0925C36.1852 48.9395 35.4489 49.5971 35.4489 50.4074C35.4489 51.2177 36.1852 51.8753 37.0925 51.8753H49.4206C51.5861 51.8753 53.464 50.7714 54.3976 49.1604L68.3397 43.0863C69.4048 42.6224 70.6959 43.018 71.2177 43.9685C71.4708 44.4301 71.507 44.952 71.3205 45.4378C71.1339 45.9237 70.7468 46.3156 70.2299 46.5417L49.179 55.738C45.3765 57.3586 41.0783 57.5993 37.0753 56.4154L22.5718 52.1263V41.3234H28.8234ZM4.04802 38.3032C4.04802 38.0169 4.30853 37.7843 4.62904 37.7843H18.7043C19.0248 37.7843 19.2845 38.0169 19.2845 38.3032V55.2375C19.2845 55.5237 19.0248 55.7564 18.7043 55.7564H4.62904C4.30853 55.7564 4.04802 55.5237 4.04802 55.2375V38.3032Z" fill="url(#paint0_linear)"/>
<path d="M21.676 22.6876C22.0565 22.6876 22.4386 22.5702 22.7493 22.331L24.9591 20.6275V35.908C24.9591 36.7183 25.6955 37.3759 26.6028 37.3759C27.5101 37.3759 28.2464 36.7183 28.2464 35.908V18.0939L46.4061 4.09928L64.574 18.0983V38.1106C64.574 38.9208 65.3104 39.5784 66.2176 39.5784C67.1249 39.5784 67.8613 38.9208 67.8613 38.1106V20.6312L70.0679 22.331C70.7557 22.8609 71.7928 22.7926 72.3854 22.1783C72.9787 21.5647 72.9023 20.6378 72.2153 20.1079L65.7944 15.1604V4.45377C65.7944 3.6435 65.0581 2.9859 64.1508 2.9859H58.0069C57.0996 2.9859 56.3632 3.6435 56.3632 4.45377V7.89445L47.4794 1.04978C46.8614 0.574187 45.9483 0.574921 45.332 1.04978L20.6019 20.1093C19.9148 20.6392 19.8384 21.5655 20.4318 22.1798C20.7564 22.5152 21.215 22.6876 21.676 22.6876ZM59.6505 5.92164H62.5071V12.6269L59.6505 10.4258V5.92164Z" fill="url(#paint1_linear)"/>
<path d="M44.7612 18.7993V19.8466C42.6048 20.3971 41.04 21.9992 41.04 23.8869C41.04 26.2274 43.4472 28.1327 46.4049 28.1327C47.5308 28.1327 48.4824 28.7323 48.4824 29.4428C48.4824 30.1532 47.5308 30.7528 46.4049 30.7528C45.3612 30.7528 44.6043 30.2552 44.3947 29.7642C44.0709 29.0053 43.1201 28.6259 42.2736 28.9143C41.4255 29.2028 40.9998 30.0505 41.3227 30.8086C41.8758 32.1062 43.171 33.0816 44.7621 33.4845V34.5304C44.7621 35.3406 45.4984 35.9983 46.4057 35.9983C47.313 35.9983 48.0493 35.3406 48.0493 34.5304V33.4831C50.2058 32.9326 51.7705 31.3304 51.7705 29.4435C51.7705 27.103 49.3634 25.1977 46.4057 25.1977C45.2798 25.1977 44.3281 24.5981 44.3281 23.8876C44.3281 23.1772 45.2798 22.5776 46.4057 22.5776C47.5308 22.5776 48.3 23.1383 48.4512 23.666C48.6772 24.4506 49.5681 24.9254 50.4532 24.7221C51.3317 24.5203 51.8618 23.7203 51.6358 22.935C51.2043 21.4363 49.8179 20.2958 48.0493 19.8503V18.7993C48.0493 17.989 47.313 17.3314 46.4057 17.3314C45.4984 17.3314 44.7612 17.989 44.7612 18.7993Z" fill="url(#paint2_linear)"/>
<path d="M30.4434 26.6639C30.4434 34.5244 37.6047 40.9199 46.4073 40.9199C55.2098 40.9199 62.3712 34.5244 62.3712 26.6639C62.3712 18.8027 55.2098 12.4072 46.4073 12.4072C37.6047 12.4072 30.4434 18.8027 30.4434 26.6639ZM59.0839 26.6639C59.0839 32.906 53.3969 37.9841 46.4073 37.9841C39.4177 37.9841 33.7307 32.906 33.7307 26.6639C33.7307 20.4218 39.4177 15.343 46.4073 15.343C53.3969 15.343 59.0839 20.4211 59.0839 26.6639Z" fill="url(#paint3_linear)"/>
</g>
<defs>
<linearGradient id="paint0_linear" x1="72.7219" y1="44.6891" x2="1.71821" y2="45.929" gradientUnits="userSpaceOnUse">
<stop offset="0.4375" stop-color="#12CAD6"/>
<stop offset="1" stop-color="#12B3D6"/>
</linearGradient>
<linearGradient id="paint1_linear" x1="71.3548" y1="15.8514" x2="20.703" y2="16.261" gradientUnits="userSpaceOnUse">
<stop offset="0.4375" stop-color="#12CAD6"/>
<stop offset="1" stop-color="#12B3D6"/>
</linearGradient>
<linearGradient id="paint2_linear" x1="51.4796" y1="24.6081" x2="41.1759" y2="24.6434" gradientUnits="userSpaceOnUse">
<stop offset="0.4375" stop-color="#12CAD6"/>
<stop offset="1" stop-color="#12B3D6"/>
</linearGradient>
<linearGradient id="paint3_linear" x1="61.5056" y1="23.5219" x2="30.8487" y2="23.7265" gradientUnits="userSpaceOnUse">
<stop offset="0.4375" stop-color="#12CAD6"/>
<stop offset="1" stop-color="#12B3D6"/>
</linearGradient>
</defs>
</svg>
