<svg width="191" height="170" viewBox="0 0 191 170" fill="none" xmlns="http://www.w3.org/2000/svg">
<g opacity="0.52">
<path d="M156.837 165.262C153.624 169.146 150.412 173.031 147.631 177.221C143.121 184.015 139.846 191.653 137.909 199.676C137.412 201.647 139.708 203.055 141.068 201.695C143.793 198.91 146.523 196.058 149.189 193.2C151.778 190.471 154.309 187.668 156.662 184.65C165.467 173.529 171.581 160.295 176.349 146.743C177.563 143.29 179.483 139.226 179.865 135.567C175.74 140.178 172.319 145.723 168.561 150.634C164.667 155.601 160.784 160.434 156.837 165.262Z" fill="#F9F2F2"/>
<path d="M150.685 158.552C158.268 149.474 164.588 139.145 167.944 127.552C168.87 124.409 169.542 121.178 170.214 117.946C170.979 114.387 171.751 110.761 172.451 107.197C170.956 108.611 169.94 110.537 168.805 112.319C165.308 117.992 160.523 122.68 156.115 127.535C147.23 137.306 139.361 148.173 132.856 159.896C131.081 163.032 129.436 166.179 128.098 169.554C127.024 172.147 124.546 177.371 125.206 180.315C126.163 184.359 130.987 178.465 132.264 177.3C135.314 174.543 138.369 171.719 141.299 168.817C144.595 165.477 147.696 162.12 150.685 158.552Z" fill="#F9F2F2"/>
<path d="M92.1824 166.916C82.6646 166.629 73.0401 166.065 63.766 163.718C52.958 160.969 42.8766 155.867 32.7895 150.831C50.6314 153.114 68.6478 151.116 86.6224 151.866C92.7437 152.127 98.901 152.728 104.731 154.844C107.9 155.991 110.898 157.593 113.733 159.584C116.378 161.491 118.416 163.615 114.368 165.077C107.491 167.503 99.359 167.067 92.1824 166.916Z" fill="#F9F2F2"/>
<path d="M152.505 96.0043C143.134 107.613 133.751 119.356 126.648 132.705C123.833 138.034 121.397 143.53 118.955 149.092C116.923 153.683 114.874 158.474 114.961 163.517C119.176 160.122 122.316 155.56 125.634 151.215C132.845 141.903 141.268 133.703 147.493 123.701C150.685 118.539 153.269 112.855 155.15 106.975C156.862 101.551 159.053 94.3556 158.505 88.6015C156.363 90.6987 154.482 93.557 152.505 96.0043Z" fill="#F9F2F2"/>
<path d="M130.289 103.48C131.825 98.5772 133.107 93.5857 134.324 88.5886C136.342 80.3712 138.166 72.1369 139.866 63.8248C139.977 63.2973 139.287 62.969 138.981 63.4796C136.537 68.3034 133.096 72.5708 129.908 76.9273C119.064 91.9672 111.396 109.565 107.564 128.166C106.67 132.452 106.03 136.828 106.303 141.216C106.396 143.17 106.453 145.525 108.414 144.017C109.886 142.868 111.202 140.498 112.314 138.983C117.283 132.163 121.586 124.747 125.132 116.998C127.082 112.601 128.842 108.121 130.289 103.48Z" fill="#F9F2F2"/>
<path d="M65.6833 133.268C52.338 126.608 39.5854 118.387 25.8941 112.704C37.8296 112.998 49.6987 115.57 61.3097 118.858C76.3014 123.11 91.2368 128.767 103.798 138.448C105.575 139.81 110.288 143.508 105.79 144.125C102.618 144.522 99.0674 144.013 95.9059 143.538C89.2526 142.627 82.6917 140.649 76.3773 138.088C72.8424 136.641 69.26 134.988 65.6833 133.268Z" fill="#F9F2F2"/>
<path d="M66.7802 115.303C50.618 109.473 34.2669 103.559 19.5839 94.2313C25.8176 94.7038 31.9864 95.1707 38.2144 95.7099C42.1775 95.9858 46.1997 96.334 50.134 96.9431C60.8397 98.6084 71.2901 102.467 80.7242 108.252C85.506 111.15 89.9823 114.559 94.1587 118.411C95.6709 119.818 98.0395 121.903 94.9456 122.911C92.5943 123.647 88.9887 122.261 86.6821 121.725C79.9684 120.003 73.3714 117.686 66.7802 115.303Z" fill="#F9F2F2"/>
<path d="M12.7285 73.7654C27.3512 76.2397 41.9738 78.714 56.1582 83.2317C63.2799 85.5266 70.2906 88.3491 76.6727 92.3927C79.961 94.4229 83.0201 96.8361 85.7909 99.5601C86.3935 100.149 89.1398 102.401 88.5227 103.489C87.9936 104.316 84.3348 102.791 83.4381 102.579C67.7976 98.271 52.2913 93.1689 37.3776 86.5069C28.8849 82.6834 20.6863 78.4825 12.7285 73.7654Z" fill="#F9F2F2"/>
<path d="M22.0381 45.4999C34.2127 50.5821 46.3816 55.7309 57.8224 62.4951C63.5428 65.8772 69.0873 69.7812 73.8431 74.4897C76.2478 76.9134 78.4995 79.5924 80.4039 82.5099C80.8119 83.0823 82.8157 85.6055 82.0271 86.4101C81.3855 87.0259 78.557 84.9683 77.8074 84.5677C65.0691 77.6912 52.648 70.1708 40.9853 61.4403C34.3538 56.5024 28.0165 51.187 22.0381 45.4999Z" fill="#F9F2F2"/>
<path d="M101.668 116.242C103.509 113.85 105.421 111.397 107.262 109.005C109.391 106.303 111.461 103.528 113.408 100.675C122.733 86.578 126.769 69.4045 130.316 52.5916C125.496 57.6796 122.076 63.963 118.296 69.8796C113.217 77.9663 107.464 85.5248 102.816 93.9174C99.7193 99.4902 97.1068 105.508 95.6448 111.826C95.1358 113.931 93.5585 118.561 95.4254 120.401C97.6585 122.541 100.421 117.812 101.668 116.242Z" fill="#F9F2F2"/>
<path d="M90.9874 100.682C106.964 80.7157 118.759 56.9631 125.209 31.5393C118.473 39.8855 112.399 48.8931 106.827 58.1457C101.407 67.1429 96.4247 76.3793 92.5636 86.2499C91.1435 89.8195 89.8415 93.5336 88.7342 97.2646C88.4588 98.1807 86.9089 101.739 87.5 102.462C88.499 103.757 90.3992 101.437 90.9874 100.682Z" fill="#F9F2F2"/>
<path d="M84.1381 83.1704C92.0117 62.4352 95.4824 39.7076 94.2894 17.2476C90.9863 25.9581 88.3738 34.9969 86.2153 44.075C84.1448 52.8921 82.452 61.8762 81.7972 70.9502C81.5737 74.2877 81.4799 77.6365 81.5158 80.9965C81.5115 81.8017 81.1581 85.128 81.7723 85.584C82.8823 86.3515 83.8094 83.9476 84.1381 83.1704Z" fill="#F9F2F2"/>
<path d="M73.0724 59.9898C74.6408 66.0336 76.8809 71.8671 78.8558 77.7447C81.0022 83.9058 83.0896 89.9945 85.2418 96.0889C89.5519 108.211 94.0092 120.145 99.6154 131.64C110.378 153.787 121.607 175.841 133.812 197.173C140.912 209.536 148.63 221.551 156.979 233.083C158.031 234.516 160.003 232.874 159.016 231.446C144.689 211.206 132.453 189.469 120.965 167.393C109.536 145.39 98.1019 123.453 89.6776 99.9641C87.3063 93.3807 84.935 86.7974 82.5637 80.2141C80.0857 73.353 77.8254 66.2422 74.7404 59.5971C74.3728 58.5582 72.7755 58.8899 73.0724 59.9898Z" fill="#F9F2F2"/>
<path d="M71.0577 5.50063C67.0827 14.4215 67.1617 24.8346 68.5958 34.6936C69.2473 39.2482 70.2347 43.6976 71.0866 48.2024C71.545 50.4577 72.0034 52.7129 72.3969 54.9625C72.737 57.0732 72.7715 59.6945 73.5183 61.639C75.5813 61.2134 76.2331 53.6833 76.5951 51.7676C77.2425 48.064 77.6304 44.3379 77.694 40.5837C77.8975 32.9477 77.0688 25.1551 75.2266 17.7448C74.2161 13.562 72.8048 9.4787 71.0577 5.50063Z" fill="#F9F2F2"/>
<path d="M33.3604 24.1923C42.5754 26.467 50.3716 33.05 56.9252 40.3982C59.9035 43.7443 62.7291 47.3458 65.5604 50.8806C66.9789 52.6147 68.3917 54.4155 69.8751 56.1552C71.2403 57.7504 73.2542 59.4017 74.2071 61.2298C72.5823 62.6333 66.5361 58.4845 64.8538 57.5332C61.6721 55.7807 58.649 53.7063 55.7023 51.5043C49.7614 46.8946 44.4851 41.4025 39.9916 35.1726C37.4789 31.7325 35.2488 28.0483 33.3604 24.1923Z" fill="#F9F2F2"/>
</g>
</svg>
