<svg width="131" height="116" viewBox="0 0 131 116" fill="none" xmlns="http://www.w3.org/2000/svg">
<path d="M91.2142 -22.142C83.1946 -22.2785 75.0837 -21.204 67.6201 -18.0085C65.59 -17.1507 63.6253 -16.1194 61.6605 -15.0882C59.4853 -13.9661 57.2732 -12.8183 55.1236 -11.6592C56.5108 -11.4711 57.9522 -11.7577 59.3709 -11.9193C63.8372 -12.4948 68.3599 -11.9615 72.8031 -11.7012C81.7522 -11.1693 90.821 -11.6493 99.7338 -13.2238C102.133 -13.6267 104.482 -14.1034 106.813 -14.8417C108.624 -15.384 112.411 -16.3094 113.643 -17.9266C115.312 -20.1746 110.15 -20.2106 108.987 -20.3901C106.224 -20.8289 103.424 -21.2421 100.638 -21.5558C97.4655 -21.8754 94.3697 -22.084 91.2142 -22.142Z" fill="#F9F2F2"/>
<path d="M136.389 -18.4673C142.365 -13.8569 147.597 -8.34849 152.436 -2.45926C148.241 -4.96814 144.057 -7.53956 139.632 -9.67043C136.903 -11.0075 134.078 -12.1684 131.361 -13.5681C128.493 -15.0275 125.781 -16.8137 123.229 -18.7648C121.612 -19.9964 120.055 -21.3785 118.804 -23.0278C117.887 -24.1965 116.02 -26.8951 116.566 -28.4755C120.077 -28.062 123.826 -26.119 126.921 -24.489C130.241 -22.8503 133.419 -20.7853 136.389 -18.4673Z" fill="#F9F2F2"/>
<path d="M138.734 4.83358C142.427 10.8048 145.259 17.4268 146.328 24.503C143.976 21.1021 141.66 17.6757 139.307 14.2748C137.492 11.6502 135.713 9.00008 133.627 6.61704C131.757 4.46719 129.68 2.57028 127.651 0.58526C125.153 -1.84057 122.717 -4.255 120.342 -6.82008C118.171 -9.08944 116.022 -11.4839 114.429 -14.2619C113.94 -15.1263 112.252 -17.566 112.608 -18.632C113.114 -20.3488 115.215 -18.577 115.996 -18.0792C121.831 -14.4639 127.12 -9.97886 131.698 -4.78338C134.281 -1.76053 136.642 1.41576 138.734 4.83358Z" fill="#F9F2F2"/>
<path d="M121.212 5.42148C125.241 10.6139 129.174 15.9826 132.032 21.9308C135.355 28.8685 137.143 36.4311 138.969 43.968C132.317 33.4842 123.377 24.7478 115.875 14.8521C113.324 11.4796 110.931 7.94222 109.466 3.92762C108.668 1.74689 108.18 -0.538919 107.965 -2.90423C107.789 -5.13307 107.992 -7.1315 110.524 -5.60399C114.796 -2.98421 118.14 1.53423 121.212 5.42148Z" fill="#F9F2F2"/>
<path d="M58.0944 3.77544C68.2064 3.77622 78.3922 3.72586 88.4082 1.77075C92.397 0.979035 96.3063 -0.085627 100.252 -1.17586C103.516 -2.06733 106.891 -3.03552 109.459 -5.24916C105.855 -6.03507 102.119 -5.74645 98.4176 -5.64544C90.4406 -5.48342 82.5066 -6.44429 74.6061 -5.46067C70.5378 -4.94189 66.4665 -3.87445 62.6025 -2.34924C59.0485 -0.929099 54.3685 0.996651 51.6356 3.76174C53.6596 4.00126 55.9623 3.77467 58.0944 3.77544Z" fill="#F9F2F2"/>
<path d="M71.7076 12.3939C68.5005 13.6834 65.3586 15.1463 62.2423 16.6462C57.1102 19.1034 52.0547 21.6715 47.0134 24.3391C46.6921 24.5067 46.8255 25.0157 47.2236 24.9589C50.7887 24.187 54.5043 24.1855 58.1546 24.0105C70.686 23.3214 83.1445 19.8405 94.4383 13.886C97.0457 12.5196 99.5877 10.9797 101.735 8.94781C102.705 8.05836 103.896 7.01547 102.256 6.61972C101.017 6.32931 99.2141 6.64706 97.9433 6.7063C92.2376 6.99138 86.5175 7.88766 80.9565 9.32982C77.829 10.1815 74.7414 11.1697 71.7076 12.3939Z" fill="#F9F2F2"/>
<path d="M115.456 33.9983C117.872 43.9689 119.222 54.2945 122.294 64.0295C117.208 57.546 113.327 50.1192 109.93 42.5219C105.547 32.7097 101.915 22.3236 101.404 11.4724C101.328 9.94004 101.17 5.84062 103.463 7.97072C105.06 9.48936 106.356 11.5992 107.498 13.4873C109.947 17.4226 111.805 21.7671 113.253 26.2309C114.057 28.7357 114.775 31.3542 115.456 33.9983Z" fill="#F9F2F2"/>
<path d="M105.693 41.136C109.774 52.25 113.895 63.5006 115.519 75.3302C113.027 71.807 110.561 68.3208 108.106 64.7721C106.509 62.5427 104.924 60.2508 103.512 57.8936C99.6734 51.476 97.0805 44.2515 95.929 36.7403C95.3277 32.9477 95.1244 29.0985 95.2821 25.2181C95.3452 23.8081 95.3829 21.6504 97.2616 22.8649C98.6741 23.8007 99.5403 26.3169 100.276 27.7756C102.333 32.0917 104.031 36.6011 105.693 41.136Z" fill="#F9F2F2"/>
<path d="M107.953 87.7788C102.814 78.9272 97.6741 70.0757 93.7829 60.5792C91.8429 55.7998 90.2243 50.8527 89.5126 45.7154C89.1184 43.0913 89.0227 40.4247 89.2141 37.7781C89.2541 37.2039 89.2123 34.7733 90.0453 34.6343C90.7049 34.5606 91.5227 37.1649 91.8068 37.7336C96.4455 47.9154 100.615 58.3671 103.718 69.1738C105.47 75.3406 106.898 81.5128 107.953 87.7788Z" fill="#F9F2F2"/>
<path d="M89.2617 94.9705C86.5442 86.3017 83.8637 77.6074 82.3375 68.6064C81.5744 64.106 81.1582 59.4749 81.5038 54.9179C81.7008 52.5954 82.0968 50.2445 82.7685 47.9762C82.8852 47.5129 83.3096 45.361 84.0714 45.4352C84.6712 45.5122 84.8495 47.903 84.9715 48.4745C87.0092 58.2147 88.5749 68.0629 89.1825 78.0272C89.5415 83.6817 89.5764 89.3418 89.2617 94.9705Z" fill="#F9F2F2"/>
<path d="M90.8662 22.1518C88.8222 22.1994 86.7156 22.2356 84.6716 22.2832C82.3405 22.3108 79.998 22.401 77.6696 22.5906C66.2922 23.6838 55.6468 28.9165 45.4022 34.2545C50.1467 34.6343 54.8946 33.7547 59.611 33.2248C66.019 32.4539 72.4496 32.2685 78.8264 31.1365C83.0653 30.3904 87.3215 29.1951 91.2282 27.2577C92.539 26.6242 95.6239 25.474 95.7553 23.6887C95.8811 21.5794 92.2251 22.141 90.8662 22.1518Z" fill="#F9F2F2"/>
<path d="M87.512 34.5282C70.1821 34.6016 52.7314 38.5298 36.7634 46.0234C44.0325 46.0232 51.353 45.3862 58.5799 44.3767C65.6077 43.3957 72.5674 42.0791 79.3625 39.8925C81.8304 39.1145 84.321 38.2114 86.735 37.1973C87.3292 36.9502 89.8482 36.2461 89.9621 35.6207C90.1928 34.532 88.1602 34.5171 87.512 34.5282Z" fill="#F9F2F2"/>
<path d="M81.4699 45.7042C67.2996 50.4239 54.0321 58.3449 42.9499 68.6348C48.9007 66.6498 54.718 64.1559 60.3563 61.4032C65.8212 58.7159 71.2065 55.7556 76.1828 52.2038C78.0055 50.8883 79.7771 49.4988 81.4975 48.0353C81.9155 47.6915 83.7894 46.4499 83.7555 45.9268C83.6648 45.0057 82.0158 45.5452 81.4699 45.7042Z" fill="#F9F2F2"/>
<path d="M74.3481 61.5618C76.7828 58.1285 78.8139 54.4279 80.9842 50.8495C83.2257 47.058 85.4559 43.329 87.6604 39.5631C92.0325 32.0567 96.2426 24.5532 99.7222 16.6258C106.442 1.37359 112.91 -14.0862 118.575 -29.7567C121.848 -38.8526 124.669 -48.1277 126.963 -57.5309C127.242 -58.7078 125.528 -59.0523 125.224 -57.9125C121.053 -41.5819 115.191 -25.7211 108.826 -10.1134C102.472 5.43172 96.1558 20.9513 87.7159 35.5348C85.3548 39.6276 82.9938 43.7204 80.6328 47.8133C78.1751 52.0823 75.4928 56.3427 73.413 60.8422C73.0376 61.4845 73.9101 62.1927 74.3481 61.5618Z" fill="#F9F2F2"/>
<path d="M47.077 86.057C53.4314 84.3394 58.7775 79.8212 63.2425 74.8195C65.3101 72.5147 67.1759 70.0762 69.1297 67.6861C70.0939 66.4725 71.058 65.259 72.0478 64.0824C72.9891 62.994 74.3285 61.8488 75.0056 60.6152C73.8801 59.6995 69.703 62.5891 68.5543 63.2198C66.3563 64.467 64.2606 65.8621 62.2928 67.442C58.2577 70.616 54.5948 74.407 51.5742 78.5735C49.8563 80.9097 48.3658 83.4165 47.077 86.057Z" fill="#F9F2F2"/>
<path d="M73.2803 98.1002C70.4111 92.2145 70.3909 85.2325 71.3115 78.5835C71.7333 75.5589 72.3542 72.5059 72.938 69.4785C73.2115 67.9776 73.5219 66.4511 73.7698 64.9132C73.9949 63.5004 73.9642 61.718 74.4906 60.4247C75.929 60.6867 76.4389 65.6903 76.6858 66.9952C77.1767 69.4431 77.4317 71.9449 77.5871 74.4608C77.8127 79.6064 77.2906 84.7773 76.0436 89.8485C75.3689 92.6655 74.4439 95.4369 73.2803 98.1002Z" fill="#F9F2F2"/>
</svg>
