<svg width="222" height="209" viewBox="0 0 222 209" fill="none" xmlns="http://www.w3.org/2000/svg">
<g opacity="0.86">
<path d="M240.374 156.376C240.763 162.17 241.153 167.964 242.132 173.709C243.72 183.024 246.974 192.174 251.623 200.675C252.747 202.78 255.719 202.327 255.776 200.126C255.841 195.66 255.86 191.132 255.821 186.647C255.819 182.33 255.712 177.994 255.292 173.597C253.858 157.298 248.578 141.122 241.952 125.658C240.262 121.719 238.677 116.72 236.146 113.212C236.354 120.319 237.862 127.731 238.602 134.833C239.275 142.084 239.853 149.209 240.374 156.376Z" fill="#F9F2F2"/>
<path d="M230.125 154.999C229.278 141.402 226.423 127.636 220.164 114.94C218.48 111.487 216.519 108.143 214.558 104.798C212.42 101.096 210.234 97.3305 208.038 93.6711C207.914 96.021 208.578 98.4687 209.034 100.876C210.579 108.457 210.306 116.119 210.472 123.65C210.793 138.818 212.796 154.202 216.581 169.334C217.565 173.408 218.664 177.396 220.192 181.359C221.327 184.436 223.357 190.869 226.185 192.978C230.109 195.837 229.478 187.083 229.618 185.114C229.971 180.434 230.277 175.691 230.421 170.971C230.523 165.596 230.452 160.349 230.125 154.999Z" fill="#F9F2F2"/>
<path d="M230.119 231.553C223.327 241.63 214.957 250.433 205.907 258.565C209.477 251.483 213.151 244.421 216.068 236.943C217.905 232.333 219.438 227.557 221.379 222.967C223.399 218.122 225.977 213.546 228.848 209.243C230.66 206.516 232.727 203.893 235.276 201.793C237.077 200.252 241.271 197.12 243.946 198.066C243.735 204.014 241.037 210.347 238.767 215.575C236.513 221.184 233.538 226.546 230.119 231.553Z" fill="#F9F2F2"/>
<path d="M192.067 235.24C182.729 241.429 172.205 246.148 160.696 247.873C165.981 243.926 171.313 240.042 176.598 236.095C180.677 233.049 184.803 230.066 188.447 226.559C191.737 223.415 194.583 219.916 197.58 216.501C201.24 212.295 204.889 208.195 208.795 204.199C212.241 200.546 215.896 196.933 220.257 194.265C221.615 193.447 225.407 190.616 227.209 191.232C230.104 192.113 227.467 195.652 226.752 196.971C221.58 206.82 214.903 215.732 206.961 223.43C202.329 227.773 197.415 231.737 192.067 235.24Z" fill="#F9F2F2"/>
<path d="M188.757 205.524C180.747 212.292 172.433 218.893 163.021 223.665C152.043 229.214 139.83 232.152 127.664 235.153C144.036 224.005 157.225 208.954 172.516 196.358C177.727 192.073 183.232 188.06 189.646 185.626C193.13 184.3 196.828 183.5 200.694 183.165C204.34 182.895 207.658 183.264 205.481 187.539C201.739 194.75 194.747 200.364 188.757 205.524Z" fill="#F9F2F2"/>
<path d="M183.024 98.5161C184.375 115.663 185.82 132.935 190.379 149.943C192.216 156.717 194.492 163.359 196.815 170.064C198.719 175.609 200.765 181.344 204.753 185.726C205.565 179.624 204.59 173.286 203.929 167.008C202.595 153.48 203.116 140.038 200.44 126.629C199.041 119.724 196.739 112.808 193.711 106.237C190.897 100.192 187.101 92.2328 182.182 87.5642C182.058 90.9932 182.74 94.9008 183.024 98.5161Z" fill="#F9F2F2"/>
<path d="M170.653 121.493C168.101 116.039 165.272 110.693 162.386 105.39C157.653 96.6573 152.749 88.0529 147.682 79.4713C147.363 78.9244 146.543 79.1443 146.69 79.82C148.437 85.8749 148.937 92.1753 149.713 98.3671C152.524 119.625 159.922 140.794 171.237 160.018C173.835 164.457 176.711 168.786 180.344 172.452C181.938 174.108 183.814 176.141 184.247 173.365C184.559 171.267 183.795 168.207 183.527 166.051C182.295 156.373 180.054 146.662 176.935 137.214C175.115 131.901 173.075 126.653 170.653 121.493Z" fill="#F9F2F2"/>
<path d="M140.931 195.408C124.837 199.38 108.016 201.539 92.3982 206.628C102.393 198.084 114.103 191.596 126.157 185.93C141.727 178.621 158.342 172.591 176.141 171.86C178.654 171.75 185.383 171.534 182.182 175.396C179.895 178.085 176.595 180.256 173.639 182.169C167.486 186.273 160.582 189.369 153.426 191.769C149.409 193.1 145.193 194.286 140.931 195.408Z" fill="#F9F2F2"/>
<path d="M127.873 178.761C110.12 185.543 92.1463 192.391 72.8859 194.998C78.3535 190.817 83.7638 186.678 89.2785 182.559C92.7356 179.879 96.2972 177.22 99.9896 174.855C110.043 168.426 121.592 164.119 133.805 162.261C139.969 161.288 146.28 160.991 152.69 161.307C155.02 161.432 158.578 161.523 156.83 164.693C155.478 167.077 151.45 168.514 149.147 169.743C142.316 173.177 135.118 176.001 127.873 178.761Z" fill="#F9F2F2"/>
<path d="M51.3789 182.012C65.2659 173.408 79.1528 164.803 94.2685 158.324C101.879 155.094 109.808 152.411 118.171 151.268C122.439 150.632 126.817 150.503 131.2 150.861C132.151 150.936 136.148 150.895 136.488 152.309C136.697 153.429 132.519 154.783 131.62 155.257C115.476 162.996 98.8247 169.936 81.4462 175.064C71.5268 177.957 61.5549 180.301 51.3789 182.012Z" fill="#F9F2F2"/>
<path d="M37.0371 150.229C50.947 145.729 64.904 141.292 79.5202 138.816C86.8283 137.578 94.3979 136.93 101.947 137.573C105.798 137.936 109.721 138.637 113.546 139.804C114.325 140.008 117.925 140.754 117.904 142.045C117.858 143.061 113.945 143.334 113.02 143.533C97.2553 146.867 81.2495 149.399 64.9242 150.306C55.6619 150.844 46.347 150.832 37.0371 150.229Z" fill="#F9F2F2"/>
<path d="M157.153 153.855C156.801 150.389 156.459 146.817 156.108 143.35C155.75 139.397 155.289 135.424 154.665 131.473C151.343 112.167 141.303 94.051 131.144 76.613C131.153 84.6534 133.237 92.7151 134.74 100.719C136.866 111.595 138.032 122.501 140.749 133.328C142.544 140.525 145.081 147.757 148.794 154.406C150.012 156.636 152.319 161.882 155.276 162.127C158.766 162.366 157.352 156.16 157.153 153.855Z" fill="#F9F2F2"/>
<path d="M136.322 148.015C133.883 118.629 125.081 88.9893 110.607 61.8195C111.58 74.1455 113.608 86.5665 116.236 98.8334C118.792 110.762 121.89 122.58 126.399 134.13C128.011 138.324 129.831 142.559 131.823 146.664C132.31 147.675 133.806 151.955 134.851 152.156C136.674 152.561 136.427 149.115 136.322 148.015Z" fill="#F9F2F2"/>
<path d="M117.115 137.631C107.449 113.544 92.632 90.9485 74.2071 72.0285C78.2714 82.1438 83.1558 92.039 88.4423 101.634C93.5981 110.934 99.1926 120.103 105.706 128.585C108.116 131.692 110.641 134.714 113.281 137.649C113.903 138.362 116.198 141.555 117.055 141.504C118.559 141.362 117.45 138.559 117.115 137.631Z" fill="#F9F2F2"/>
<path d="M90.0534 125.359C96.032 129.53 102.397 133.02 108.579 136.745C115.122 140.593 121.56 144.421 128.056 148.206C141 155.713 153.918 162.946 167.436 168.945C193.448 180.53 219.768 191.689 246.328 201.492C261.742 207.154 277.391 212.052 293.181 216.061C295.156 216.548 295.494 213.646 293.577 213.116C266.13 205.84 239.23 195.702 212.681 184.715C186.235 173.748 159.837 162.843 134.696 148.35C127.641 144.296 120.586 140.241 113.531 136.187C106.173 131.966 98.7998 127.365 91.1131 123.782C90.0052 123.137 88.9559 124.608 90.0534 125.359Z" fill="#F9F2F2"/>
<path d="M46.0704 78.8089C49.7485 89.6051 57.9029 98.7267 66.7357 106.36C70.8071 109.895 75.0717 113.089 79.2685 116.432C81.3955 118.082 83.5226 119.732 85.5923 121.425C87.5104 123.035 89.5751 125.32 91.6968 126.483C93.0541 124.586 87.7375 117.467 86.5454 115.512C84.1978 111.769 81.6205 108.198 78.7559 104.842C72.9901 97.96 66.2581 91.7017 58.9938 86.5279C54.9174 83.5858 50.5905 81.0271 46.0704 78.8089Z" fill="#F9F2F2"/>
<path d="M29.75 123.092C39.0572 118.301 50.5506 118.353 61.6216 119.997C66.6581 120.75 71.768 121.841 76.8308 122.869C79.3387 123.351 81.8936 123.897 84.4589 124.336C86.8153 124.735 89.7461 124.706 91.9459 125.614C91.7068 128.05 83.5365 128.852 81.4209 129.255C77.4561 130.057 73.3709 130.458 69.2491 130.69C60.8069 131.008 52.223 130.059 43.7064 127.881C38.9778 126.702 34.2909 125.099 29.75 123.092Z" fill="#F9F2F2"/>
</g>
</svg>
