<svg width="251" height="161" viewBox="0 0 251 161" fill="none" xmlns="http://www.w3.org/2000/svg">
<g opacity="0.86">
<path d="M52.4997 24.1419C52.956 19.4933 53.4123 14.8446 53.3732 10.196C53.3107 2.65928 51.8459 -4.85433 49.1391 -11.9409C48.491 -13.6935 45.9687 -13.5253 45.6261 -11.7725C44.9715 -8.21357 44.3473 -4.60128 43.7765 -1.01948C43.1981 2.42515 42.7035 5.89263 42.4603 9.42864C41.4572 22.5287 43.6547 35.7804 47.0637 48.5518C47.9332 51.8056 48.5741 55.8978 50.1979 58.8618C50.9817 53.1767 50.7289 47.1641 51.0707 41.4486C51.4886 35.6188 51.9675 29.8956 52.4997 24.1419Z" fill="#F9F2F2"/>
<path d="M60.798 25.9079C59.6724 36.8132 60.1853 47.9849 63.6625 58.5235C64.5928 61.3886 65.767 64.1851 66.9411 66.9816C68.2144 70.0753 69.5182 73.2224 70.8448 76.2856C71.2635 74.4184 71.0421 72.4219 70.9884 70.471C70.728 64.3213 71.9841 58.2245 72.8592 52.2041C74.6323 40.0793 75.0412 27.6729 73.9413 15.3506C73.6739 12.0357 73.2998 8.78181 72.5675 5.52035C72.0412 2.99042 71.2247 -2.27524 69.1667 -4.14186C66.3008 -6.67892 65.6469 0.347402 65.2662 1.9097C64.3449 5.62113 63.4541 9.38589 62.7004 13.143C61.8935 17.4259 61.2467 21.6174 60.798 25.9079Z" fill="#F9F2F2"/>
<path d="M101.849 -11.7161C109.392 -16.5948 117.164 -21.3212 125.6 -24.516C135.437 -28.2293 145.946 -29.7785 156.424 -31.381C141.367 -23.5515 128.422 -12.3999 114.067 -3.34358C109.175 -0.263841 104.077 2.57972 98.4383 4.10501C95.375 4.9363 92.205 5.33322 88.9586 5.34914C85.9027 5.32692 83.2049 4.8169 85.5819 1.54717C89.6501 -3.96337 96.1954 -7.98841 101.849 -11.7161Z" fill="#F9F2F2"/>
<path d="M92.2097 74.0493C93.3956 60.2786 94.5206 46.4013 93.0317 32.5321C92.4209 27.0073 91.429 21.5588 90.4067 16.0569C89.5751 11.5076 88.6521 6.79823 85.9384 3.04185C84.4457 7.85838 84.4011 12.9794 84.1049 18.0319C83.3908 28.9143 81.1526 39.6065 81.5664 50.481C81.7962 56.0821 82.7728 61.7516 84.3972 67.1924C85.9147 72.1988 87.9889 78.7978 91.4342 82.8436C91.9976 80.1153 91.9588 76.9528 92.2097 74.0493Z" fill="#F9F2F2"/>
<path d="M105.545 56.5176C106.925 61.0363 108.549 65.4864 110.227 69.906C112.972 77.1831 115.877 84.3688 118.919 91.5467C119.11 92.0039 119.818 91.8818 119.788 91.3332C119.154 86.3875 119.587 81.3274 119.777 76.3358C120.307 59.1894 117.026 41.8151 110.241 25.737C108.685 22.0261 106.886 18.3839 104.371 15.2218C103.273 13.797 101.992 12.0522 101.261 14.2394C100.72 15.8932 100.942 18.3851 100.874 20.1226C100.593 27.9262 101.144 35.821 102.456 43.5633C103.249 47.9221 104.233 52.2427 105.545 56.5176Z" fill="#F9F2F2"/>
<path d="M140.092 -0.528393C153.953 -2.64981 168.173 -3.27767 181.79 -6.32113C172.365 -0.154102 161.796 4.26044 151.052 7.99677C137.176 12.8159 122.606 16.5454 107.769 15.9693C105.673 15.8936 100.072 15.628 103.241 12.7544C105.496 10.7573 108.522 9.24019 111.227 7.90602C116.873 5.03187 123.007 3.01114 129.256 1.56192C132.761 0.761025 136.411 0.0896436 140.092 -0.528393Z" fill="#F9F2F2"/>
<path d="M148.669 13.6055C164.282 9.3499 180.087 5.05621 196.387 4.22978C191.297 7.2105 186.26 10.1607 181.14 13.0881C177.917 15.0015 174.61 16.8921 171.234 18.5389C162.045 23.0141 151.902 25.6987 141.538 26.3867C136.303 26.7612 131.037 26.587 125.771 25.9175C123.859 25.6664 120.925 25.3622 122.799 22.9461C124.239 21.1321 127.767 20.2474 129.839 19.4163C135.958 17.1212 142.298 15.3367 148.669 13.6055Z" fill="#F9F2F2"/>
<path d="M212.453 15.9928C199.797 21.9547 187.14 27.9167 173.751 32.1032C167.015 34.185 160.089 35.8097 153.009 36.1769C149.389 36.4063 145.747 36.2242 142.165 35.6534C141.388 35.5316 138.072 35.3037 137.981 34.153C137.958 33.2461 141.6 32.4376 142.408 32.1174C156.817 26.9933 171.539 22.5398 186.62 19.5799C195.223 17.9168 203.796 16.6957 212.453 15.9928Z" fill="#F9F2F2"/>
<path d="M220.059 42.2897C207.935 44.9747 195.78 47.6063 183.344 48.6301C177.126 49.1419 170.77 49.1661 164.605 48.1615C161.465 47.6211 158.31 46.8063 155.299 45.6258C154.682 45.4125 151.801 44.5825 151.992 43.5537C152.167 42.7458 155.444 42.7833 156.236 42.684C169.74 41.0504 183.334 40.0721 196.975 40.4122C204.718 40.5859 212.43 41.2015 220.059 42.2897Z" fill="#F9F2F2"/>
<path d="M121.076 31.5735C120.902 34.3627 120.704 37.2357 120.53 40.0249C120.294 43.2027 120.142 46.4034 120.128 49.5964C120.283 65.2186 126.162 80.329 132.231 94.906C133.304 88.4892 132.663 81.9204 132.494 75.4353C132.195 66.6183 132.696 57.8393 131.901 49.0224C131.382 43.1623 130.253 37.2261 128.072 31.6787C127.363 29.8194 126.158 25.4836 123.742 25.0954C120.885 24.6769 121.221 29.7217 121.076 31.5735Z" fill="#F9F2F2"/>
<path d="M137.538 37.5895C135.607 61.1986 138.912 85.4238 147.246 108.048C148.098 98.1482 148.088 88.1043 147.56 78.1443C147.047 68.4586 146.07 58.8264 143.889 49.3163C143.118 45.8643 142.18 42.3667 141.082 38.9605C140.815 38.1223 140.151 34.6093 139.313 34.3809C137.857 33.9392 137.599 36.7055 137.538 37.5895Z" fill="#F9F2F2"/>
<path d="M152.051 47.1276C156.818 66.9783 166.051 85.9745 178.765 102.272C176.759 93.9358 174.044 85.7214 170.956 77.7204C167.937 69.9632 164.537 62.2824 160.283 55.0894C158.705 52.453 157.02 49.8776 155.229 47.3632C154.81 46.7536 153.338 44.0563 152.622 44.0412C151.357 44.0567 151.898 46.3656 152.051 47.1276Z" fill="#F9F2F2"/>
<path d="M172.812 58.6837C168.422 54.9658 163.62 51.7661 159.001 48.3912C154.101 44.8943 149.284 41.4204 144.413 37.9769C134.703 31.1432 124.978 24.5306 114.59 18.863C94.6064 7.924 74.3105 -2.69488 53.6339 -12.2468C41.6303 -17.7692 29.3296 -22.6972 16.7928 -26.924C15.2229 -27.4419 14.5527 -25.1479 16.0694 -24.5996C37.8201 -17.0064 58.7331 -7.16492 79.2423 3.33199C99.6677 13.806 120.063 24.2268 138.934 37.4293C144.231 41.1242 149.528 44.8191 154.825 48.514C160.351 52.3612 165.839 56.5133 171.722 59.8728C172.553 60.4594 173.62 59.3542 172.812 58.6837Z" fill="#F9F2F2"/>
<path d="M202.974 98.6936C201.38 89.8388 195.853 82.0289 189.565 75.3621C186.668 72.2764 183.566 69.4498 180.54 66.5089C179 65.0537 177.461 63.5985 175.974 62.1128C174.602 60.7032 173.2 58.745 171.599 57.6785C170.22 59.1038 173.666 65.131 174.39 66.7693C175.831 69.9087 177.485 72.9261 179.406 75.791C183.256 81.6581 187.99 87.0906 193.31 91.6923C196.29 94.3056 199.529 96.6292 202.974 98.6936Z" fill="#F9F2F2"/>
<path d="M222.449 64.4186C214.098 67.6362 204.587 66.8457 195.64 64.8128C191.57 63.884 187.486 62.6808 183.431 61.5309C181.419 60.9826 179.377 60.381 177.311 59.8633C175.414 59.3912 172.983 59.224 171.283 58.3556C171.809 56.4275 178.682 56.3194 180.488 56.1361C183.88 55.7544 187.316 55.7003 190.761 55.7834C197.795 56.0792 204.776 57.3961 211.536 59.6885C215.293 60.9375 218.959 62.5218 222.449 64.4186Z" fill="#F9F2F2"/>
</g>
</svg>
